<svg xmlns="http://www.w3.org/2000/svg" xmlns:xlink="http://www.w3.org/1999/xlink" width="99" height="20"><g style="fill:#000" transform="translate(-10.542 -49.09)scale(.95029)"><defs><path id="a" d="M0 0h126v126H0z"/></defs><clipPath id="b"><use xlink:href="#a" width="744.094" height="1052.362" style="overflow:visible"/></clipPath><path d="M43.622 71.128c0 .199-.082.328-.235.411-.306.176-.918.248-1.341.248a4.28 4.28 0 0 1-3.084-1.261c-.412-.398-1.248-1.601-1.248-3.259 0-1.379.482-2.447 1.165-2.989.895-.707 1.777-.777 2.52-.777 1.517 0 2.471.505 2.766.953.177.282.235.612.247.777.012.105.024.176.083.176.082 0 .104-.058.104-.246 0-1.18.083-1.507.083-1.672 0-.048-.022-.094-.142-.105a6 6 0 0 1-.954-.117c-.222-.047-1.058-.202-1.8-.202-.905 0-2.071.083-3.13.742-1.048.659-1.966 1.988-1.966 3.873 0 1.471.683 2.728 1.4 3.354 1.308 1.141 2.979 1.258 3.872 1.258.684 0 1.741-.129 2.495-.53.141-.082.153-.104.153-.634v-1.319c0-.494 0-.847.023-1.223.024-.413.117-.613.436-.673.141-.022.212-.035.294-.035.048 0 .094-.022.094-.071 0-.068-.058-.092-.188-.092-.354 0-1.095.034-1.153.034s-.8-.034-1.331-.034c-.129 0-.188.023-.188.092 0 .049.048.071.095.071.105 0 .306.013.399.035.472.13.529.26.529 1.215v2z" clip-path="url(#b)" style="fill:#000;fill-rule:evenodd"/><path d="M46.904 71.014c-.183.504-.385.887-.85.947a3 3 0 0 1-.292.02c-.051 0-.09.022-.09.062 0 .06.06.08.192.08.473 0 1.028-.029 1.139-.029s.544.029.787.029c.09 0 .151-.021.151-.08 0-.039-.03-.062-.102-.062h-.1c-.172 0-.385-.092-.385-.291 0-.182.051-.423.143-.676l.604-1.785c.021-.052.052-.083.102-.083h2.169c.05 0 .071.021.092.063l.938 2.481c.06.16 0 .25-.063.271-.04.012-.07.03-.07.071 0 .061.111.061.303.069.695.021 1.432.021 1.584.021.11 0 .202-.021.202-.08 0-.051-.04-.062-.102-.062-.101 0-.253-.008-.403-.06-.212-.062-.504-.222-.867-1.12-.615-1.533-2.198-5.699-2.352-6.082-.12-.313-.161-.362-.221-.362-.062 0-.102.061-.222.392zm1.41-2.23c-.028 0-.05-.021-.028-.071l.887-2.723q.075-.228.151 0l.958 2.723c.01.041.01.071-.039.071z" clip-path="url(#b)" style="fill:#000;fill-rule:evenodd"/><path d="m56.06 64.931 1.271.021c.968.019 1.201.252 1.241.553l.009.112c.01.141.031.171.082.171.04 0 .069-.042.069-.131 0-.111.03-.807.03-1.11 0-.06 0-.12-.05-.12-.042 0-.132.02-.283.05-.161.021-.393.05-.717.05H53.93c-.12 0-.504-.02-.797-.05-.271-.021-.373-.12-.442-.12-.04 0-.08.131-.103.19-.019.08-.221.949-.221 1.05 0 .061.02.091.05.091.04 0 .072-.02.102-.102.029-.069.059-.142.172-.312.161-.243.401-.313 1.027-.322l1.494-.021v4.268c0 .967 0 1.764-.051 2.188-.04.292-.09.515-.293.554a1.5 1.5 0 0 1-.302.041c-.062 0-.081.031-.081.062 0 .06.051.08.161.08.304 0 .938-.029.987-.029.052 0 .688.029 1.24.029.113 0 .164-.029.164-.08 0-.03-.021-.062-.083-.062a4 4 0 0 1-.452-.041c-.303-.039-.364-.262-.394-.554-.05-.424-.05-1.221-.05-2.188v-4.268z" clip-path="url(#b)" style="fill:#000;fill-rule:evenodd"/><path d="M60.694 69.198c0 .967 0 1.764-.051 2.188-.041.291-.091.515-.292.554a1.5 1.5 0 0 1-.302.041c-.061 0-.081.031-.081.062 0 .06.05.08.16.08.153 0 .383-.01.586-.021.211 0 .383-.009.403-.009.293 0 .968.059 2.491.059.396 0 .474 0 .543-.263.052-.212.132-.896.132-.977 0-.07 0-.152-.059-.152-.051 0-.073.041-.092.152-.07.413-.191.615-.453.728-.262.109-.707.109-.969.109-.988 0-1.139-.131-1.17-.826-.009-.213 0-1.382 0-1.725v-.89c0-.039.019-.071.069-.071.174 0 1.172.021 1.442.053.396.039.486.211.526.353.04.133.04.231.04.332 0 .051.02.093.069.093.071 0 .071-.112.071-.193 0-.072.021-.442.04-.646.032-.333.081-.503.081-.563s-.019-.08-.049-.08c-.041 0-.082.051-.152.131-.091.102-.231.12-.474.141-.233.021-1.474.021-1.604.021-.051 0-.061-.031-.061-.101v-2.783q-.001-.103.061-.102c.112 0 1.21.01 1.381.031.546.06.647.18.718.343.05.12.06.291.06.362 0 .082.021.131.082.131.039 0 .06-.06.07-.109.02-.123.039-.566.049-.667.031-.282.082-.404.082-.475 0-.051-.012-.09-.039-.09-.053 0-.092.039-.142.049a2.6 2.6 0 0 1-.436.051c-.23.01-2.238.01-2.31.01-.052 0-.687-.029-1.141-.029-.109 0-.161.02-.161.08 0 .039.04.06.081.06.092 0 .263.012.345.031.332.071.41.232.433.576.02.322.02.604.02 2.177v1.774z" clip-path="url(#b)" style="fill:#000;fill-rule:evenodd"/><path d="M67.489 72.265c.543 0 1.09-.122 1.523-.426.695-.492.857-1.261.857-1.674 0-.806-.283-1.431-1.475-2.37l-.279-.221c-.951-.777-1.23-1.123-1.23-1.695 0-.735.543-1.17 1.238-1.17.93 0 1.201.424 1.259.534.063.111.123.384.134.504.012.081.023.132.08.132.053 0 .072-.07.072-.23 0-.688.039-1.021.039-1.072 0-.05-.02-.069-.1-.069s-.162-.01-.354-.051a4 4 0 0 0-.939-.1c-1.279 0-2.086.735-2.086 1.815 0 .686.24 1.311 1.311 2.187l.453.376c.869.714 1.162 1.117 1.162 1.814 0 .646-.477 1.34-1.443 1.34-.676 0-1.342-.279-1.495-1.027-.028-.141-.028-.283-.028-.373 0-.081-.01-.112-.072-.112-.049 0-.068.053-.08.163-.01.161-.049.563-.049 1.07 0 .271.01.312.15.382.412.2.88.273 1.352.273" clip-path="url(#b)" style="fill:#000;fill-rule:evenodd"/><path d="M76.624 67.325c.123-.088.141-.213.082-.306h-1.033c.222-.702.387-1.37.777-1.925.197-.28.403-.445.643-.445.217 0 .48.149.506.645.008.059.041.133.115.133.133 0 .355-.256.355-.513 0-.332-.332-.546-.678-.546-.486 0-.973.198-1.389.687-.486.578-.703 1.222-.918 1.965h-.707c-.111.075-.145.233-.061.306h.686c-.396 1.349-.67 2.769-1.092 4.15-.172.561-.369.686-.52.686-.166 0-.381-.115-.494-.308-.068-.106-.125-.172-.242-.072a.33.33 0 0 0-.154.298c0 .14.154.421.535.421.488 0 .842-.323.94-.421.175-.158.425-.613.655-1.356.273-.908.512-1.826.777-2.744.072-.246.141-.513.189-.653h1.028z" clip-path="url(#b)" style="fill:#000;fill-rule:evenodd"/><path d="M79.569 66.906c-.338 0-.709.123-1.141.537-.561.535-.867 1.338-.9 1.851-.049.709.298 1.1.826 1.1.226 0 .668-.043 1.181-.571.614-.628.853-1.422.877-1.877.034-.601-.255-1.04-.843-1.04m-.054.247c.287 0 .336.29.328.545-.016.438-.404 1.528-.77 2.016-.264.355-.471.431-.65.431-.242 0-.357-.24-.338-.528.021-.438.344-1.422.824-2.067.238-.322.438-.397.606-.397" clip-path="url(#b)" style="fill:#000;fill-rule:evenodd"/><path d="M83.354 67.153c.049-.142-.141-.247-.25-.247-.387 0-1.215.651-1.428.98a.116.116 0 0 0 .141.125c.197-.207.627-.568.785-.568.066 0 .057.082 0 .238l-.76 2.01c-.141.361-.1.702.238.702.445 0 1.471-1.059 2.068-1.81l.015.008-.563 1.511c-.049.131.076.291.207.291.442 0 1.231-.653 1.447-1.051-.008-.098-.076-.131-.15-.116-.215.258-.65.646-.807.646-.084 0-.076-.099-.033-.207.346-.981.883-2.34.965-2.561-.031-.1-.232-.183-.404-.15-.271.504-.703 1.463-1.455 2.207-.43.421-.76.685-.883.685-.092 0-.135-.082-.057-.279z" clip-path="url(#b)" style="fill:#000;fill-rule:evenodd"/><path d="M88.144 67.245c.076-.192-.016-.339-.215-.339-.412 0-.918.339-1.23.768-.008.065.031.123.1.123.271-.238.561-.411.752-.411.066 0 .066.08.025.188l-.959 2.604c-.076.188.146.216.238.216.074 0 .109-.027.148-.102.488-.908.828-1.552 1.268-2.098.449-.569.941-.982 1.137-.982.125 0 .135.099.135.197 0 .165-.109.454-.174.603-.191.413-.497 1.224-.67 1.629-.174.412-.199.472-.199.545 0 .099.125.208.199.208.453 0 1.107-.397 1.423-.928 0-.065-.019-.131-.136-.114-.236.289-.635.563-.773.563-.061 0-.052-.075-.02-.158.027-.064.619-1.413.77-1.826.068-.19.133-.445.133-.578 0-.273-.142-.445-.463-.445-.621 0-1.438.908-2.023 1.801l-.025-.016z" clip-path="url(#b)" style="fill:#000;fill-rule:evenodd"/><path d="M94.316 67.163a.5.5 0 0 0-.421-.257c-.396 0-.918.23-1.48.734-.652.586-1.097 1.571-1.097 2.156 0 .331.171.597.493.597.801 0 1.425-.802 1.992-1.563l.031.007-.287.819c-.082.239-.108.371-.108.471 0 .133.091.266.265.266.432 0 1.18-.68 1.405-1.133-.007-.075-.048-.107-.124-.107-.258.322-.777.743-.908.743-.074 0-.084-.082-.051-.19.076-.248.463-1.569 1.281-3.827.248-.684.373-.998.52-1.462l-.033-.049c-.353-.008-.814.1-.975.157-.033.032-.043.082-.025.114l.191.134c.117.075.092.224-.074.686zm-.438-.01c.207 0 .315.247.215.594-.121.438-.365.937-1.006 1.596-.572.585-.992.736-1.117.736-.074 0-.158-.076-.158-.175 0-.107 0-.256.257-.784.255-.521.849-1.306 1.181-1.612.216-.197.437-.355.628-.355" clip-path="url(#b)" style="fill:#000;fill-rule:evenodd"/><path d="M98.917 67.245a.5.5 0 0 0-.166-.175.4.4 0 0 0-.197-.052c-.215 0-.424.06-.744.241-.34.19-.695.521-1.092 1.065-.547.754-.729 1.415-.729 1.603 0 .233.133.466.365.466.387 0 1.232-.571 1.818-1.298l.025.01-.273.74c-.064.192-.082.267-.082.323a.23.23 0 0 0 .238.225c.455 0 1.041-.466 1.391-.928 0-.065-.061-.106-.117-.106-.469.414-.711.555-.852.555-.066 0-.107-.051-.059-.191.266-.752.984-2.578 1.109-2.885-.051-.105-.266-.189-.403-.121zm-.621.09c.215 0 .354.141.414.298-.133.487-.48 1.198-1.107 1.784-.471.429-.719.536-.803.536-.074 0-.123-.057-.123-.156 0-.585.504-1.669 1.033-2.14.258-.232.389-.322.586-.322" clip-path="url(#b)" style="fill:#000;fill-rule:evenodd"/><path d="M103.104 67.417c.106-.059.159-.223.101-.305h-.902l.24-.812c-.066-.082-.232-.099-.313-.048l-.464.817-.661.115c-.081.033-.108.149-.089.231h.641l-.773 2.281c-.082.247-.117.362-.117.471 0 .099.107.225.225.225.346 0 1.123-.507 1.584-1.189.02-.099-.031-.149-.113-.149-.272.312-.818.742-.941.742-.068 0-.107-.05-.061-.205l.746-2.175h.897z" clip-path="url(#b)" style="fill:#000;fill-rule:evenodd"/><path d="M103.917 70.094a.2.2 0 0 0 .035.225c.041.048.09.075.131.075.572 0 1.424-.745 1.545-.986 0-.072-.041-.131-.121-.138-.281.322-.721.61-.86.61-.067 0-.058-.099-.026-.182l.986-2.347c.1-.239.1-.314.049-.363-.035-.034-.076-.082-.134-.082-.271 0-.907.306-1.362.825-.018.065.031.132.107.141.412-.34.63-.438.686-.438s.057.065.018.158zm1.82-5.172c-.322 0-.447.34-.447.521 0 .148.084.313.297.313.258 0 .439-.263.439-.52 0-.181-.099-.314-.289-.314" clip-path="url(#b)" style="fill:#000;fill-rule:evenodd"/><path d="M109.163 66.906c-.34 0-.713.123-1.142.537-.563.535-.868 1.338-.901 1.851-.049.709.297 1.1.828 1.1.223 0 .668-.043 1.18-.571.613-.628.851-1.422.877-1.877.033-.601-.258-1.04-.842-1.04m-.059.247c.291 0 .339.29.331.545-.018.438-.406 1.528-.768 2.016-.264.355-.471.431-.656.431-.236 0-.352-.24-.336-.528.023-.438.347-1.422.826-2.067.24-.322.437-.397.603-.397" clip-path="url(#b)" style="fill:#000;fill-rule:evenodd"/><path d="M112.813 67.245c.075-.192-.017-.339-.212-.339-.413 0-.918.339-1.234.768-.008.065.035.123.1.123.273-.238.564-.411.754-.411.063 0 .063.08.023.188-.041.117-.918 2.495-.959 2.604-.074.188.148.216.24.216.076 0 .107-.027.148-.102.488-.908.826-1.552 1.265-2.098.454-.569.944-.982 1.142-.982.123 0 .131.099.131.197 0 .165-.106.454-.174.603-.189.413-.494 1.224-.668 1.629-.174.412-.199.472-.199.545 0 .099.123.208.199.208.455 0 1.107-.397 1.422-.928 0-.065-.019-.131-.133-.114-.242.289-.636.563-.775.563-.059 0-.051-.075-.02-.158.025-.064.621-1.413.77-1.826.066-.19.133-.445.133-.578 0-.273-.143-.445-.465-.445-.617 0-1.436.908-2.023 1.801l-.025-.016z" clip-path="url(#b)" style="fill:#000;fill-rule:evenodd"/><path d="M12.256 57.515c0 1.13 0 2.06-.058 2.555-.048.341-.106.601-.343.646a2 2 0 0 1-.354.048c-.069 0-.094.035-.094.071 0 .069.059.093.188.093.354 0 1.095-.035 1.153-.035.095 0 1.295.071 1.566.071 2.012 0 3.001-1.307 3.001-2.566 0-1.377-1.165-2.212-2.036-2.482.553-.578 1.105-1.155 1.105-2.12 0-.588-.424-1.765-2.354-1.765-.541 0-.999.035-1.282.035-.059 0-.8-.035-1.329-.035-.131 0-.188.024-.188.093 0 .049.047.072.094.072.106 0 .305.012.4.036.389.082.482.271.506.67.023.377.023.705.023 2.542v2.071zm.941-4.967c0-.069.036-.105.142-.13.188-.047.436-.058.564-.058 1.154 0 1.589 1.048 1.589 2.024 0 .482-.176.906-.423 1.188-.247.283-.413.307-1.072.307-.434 0-.646-.034-.718-.047-.058-.024-.082-.047-.082-.13zm0 3.731c0-.06.024-.083.071-.083.176 0 .764 0 .917.023.283.036.577.07.978.342.905.624 1.143 1.647 1.143 2.354 0 1.33-1.024 1.672-1.66 1.672-.212 0-.718-.023-1.036-.177-.364-.177-.364-.341-.4-.919-.012-.176-.012-1.635-.012-2.541v-.671z" clip-path="url(#b)" style="fill:#000;fill-rule:evenodd"/><path d="M20.752 56.222c0-1.572 0-1.854.021-2.178.019-.354.1-.525.372-.575.121-.021.182-.03.253-.03.04 0 .082-.021.082-.062 0-.06-.052-.08-.164-.08-.302 0-.937.03-.988.03s-.685-.03-1.018-.03c-.111 0-.161.021-.161.08 0 .041.04.062.08.062.071 0 .202.01.312.04.224.051.324.223.344.565.021.323.021.605.021 2.178v1.775c0 .968 0 1.766-.051 2.188-.04.293-.09.516-.292.558a1.7 1.7 0 0 1-.303.038c-.061 0-.081.031-.081.061 0 .061.051.08.162.08.303 0 .938-.029.987-.029.052 0 .687.029 1.241.029.112 0 .162-.029.162-.08 0-.029-.021-.061-.081-.061-.09 0-.313-.02-.454-.038-.303-.042-.361-.265-.393-.558-.051-.423-.051-1.221-.051-2.188z" clip-path="url(#b)" style="fill:#000;fill-rule:evenodd"/><path d="M25.127 56.222c0-1.572 0-1.854.021-2.178.021-.354.101-.525.393-.575.121-.021.262-.03.334-.03.039 0 .08-.021.08-.062 0-.06-.051-.08-.162-.08-.303 0-1.039.03-1.089.03s-.687-.03-1.14-.03c-.11 0-.161.021-.161.08 0 .041.04.062.08.062.091 0 .263.01.343.03.333.07.414.232.434.575.021.323.021.605.021 2.178v1.775c0 .968 0 1.766-.052 2.188-.04.293-.091.516-.293.558a1.6 1.6 0 0 1-.302.038c-.061 0-.081.031-.081.061 0 .061.051.08.161.08.152 0 .374-.009.575-.02.203 0 .374-.01.414-.01.585 0 1.251.061 2.703.061.535 0 .564-.04.636-.272.081-.293.151-.898.151-1.008 0-.112-.011-.152-.062-.152-.059 0-.08.051-.09.132-.03.191-.132.443-.263.605-.241.292-.686.302-1.221.302-.786 0-1.049-.07-1.21-.232-.181-.181-.222-.826-.222-2.31v-1.796z" clip-path="url(#b)" style="fill:#000;fill-rule:evenodd"/><path d="M30.79 56.222c0-1.572 0-1.854.021-2.178.021-.354.1-.525.393-.575.121-.021.263-.03.334-.03.039 0 .08-.021.08-.062 0-.06-.051-.08-.161-.08-.303 0-1.038.03-1.09.03-.051 0-.687-.03-1.14-.03-.111 0-.162.021-.162.08 0 .041.041.062.081.062.091 0 .262.01.344.03.332.07.413.232.434.575.02.323.02.605.02 2.178v1.775c0 .968 0 1.766-.05 2.188-.041.293-.091.516-.292.558a1.7 1.7 0 0 1-.304.038c-.061 0-.08.031-.08.061 0 .061.05.08.161.08.151 0 .374-.009.574-.02.203 0 .373-.01.414-.01.585 0 1.251.061 2.703.061.534 0 .566-.04.637-.272.079-.293.15-.898.15-1.008 0-.112-.01-.152-.061-.152-.061 0-.08.051-.09.132-.03.191-.132.443-.264.605-.241.292-.685.302-1.22.302-.787 0-1.05-.07-1.21-.232-.182-.181-.223-.826-.223-2.31z" clip-path="url(#b)" style="fill:#000;fill-rule:evenodd"/><path d="M37.563 59.986c.596 0 1.447-.256 2.045-.928.655-.741.843-1.585.868-1.841.017-.162.034-.57.034-.724.264.213.545.536.587.605.045.067.111.109.205.05.153-.094.494-.195.639-.213.094-.017.171-.024.222-.085a.57.57 0 0 0 .162-.4c0-.221-.085-.477-.315-.477-.153 0-.272.111-.272.213 0 .026.017.068.034.128a.7.7 0 0 1 .034.213c0 .145-.085.264-.172.264-.151 0-.178-.043-.373-.222-.419-.374-.665-.664-1.134-.664-.119 0-.503.068-.843.35-.426.35-.58.732-.58.953 0 .229.188.342.367.342.239 0 .281-.179.281-.239 0-.051-.034-.145-.061-.237-.024-.095-.068-.204-.068-.282 0-.29.357-.545.622-.545.172 0 .35.059.443.146-.025.697-.137 1.124-.46 1.72-.494.912-1.363 1.389-2.07 1.389-.655 0-1.525-.365-1.508-1.456v-.068c.886-.604 2.317-1.688 3.024-2.386.792-.774 1.073-1.303 1.073-1.746 0-.332-.196-.451-.392-.451a.34.34 0 0 0-.341.35c0 .093.024.119.093.188a.33.33 0 0 1 .104.256c0 .221-.188.562-.307.714-.238.315-.827.912-1.201 1.219-.077-.109-.162-.332-.537-.332-.187 0-.716.085-1.27.664-.681.698-.817 1.406-.817 1.832.002.875.539 1.7 1.884 1.7m-1.294-2.334c.059-.357.195-.698.46-1.047.256-.333.535-.46.656-.46.162 0 .28.102.28.263 0 .018 0 .128-.008.205-.281.247-.783.621-1.388 1.039" clip-path="url(#b)" style="fill:#000;fill-rule:evenodd"/><path d="M53.373 52.111c-.024-.224-.061-.317-.143-.317-.083 0-.13.082-.177.188l-3.46 7.392-3.602-7.403c-.06-.131-.105-.177-.177-.177-.07 0-.105.082-.13.212l-.847 7.674c-.047.447-.082.905-.472.977-.176.036-.258.036-.353.036-.059 0-.116.022-.116.058 0 .084.081.106.199.106.318 0 .882-.035.988-.035.095 0 .659.035 1.096.035.14 0 .21-.022.21-.106 0-.035-.046-.058-.094-.058-.071 0-.247-.013-.447-.06a.376.376 0 0 1-.306-.364c0-.2 0-.412.012-.601l.471-5.461h.047a208 208 0 0 0 1.554 3.354c.06.118 1.071 2.154 1.378 2.731.223.423.281.542.363.542.106 0 .143-.107.39-.626l2.883-6.119h.035l.564 6.072c.024.212.013.412-.047.424-.058.013-.082.036-.082.084 0 .058.06.094.329.117.437.035 1.706.07 1.966.07.143 0 .247-.035.247-.106 0-.047-.035-.058-.094-.058-.119 0-.423 0-.764-.107-.508-.164-.59-.823-.637-1.247z" clip-path="url(#b)" style="fill:#000;fill-rule:evenodd"/><path d="M57.323 57.927c0 .968 0 1.765-.051 2.188-.04.293-.09.514-.291.556-.092.02-.213.039-.303.039-.061 0-.082.031-.082.061 0 .061.051.081.163.081.151 0 .383-.011.585-.021.212 0 .383-.009.404-.009.292 0 .968.06 2.49.06.394 0 .475 0 .544-.263.051-.211.132-.897.132-.979 0-.071 0-.152-.062-.152-.049 0-.07.043-.089.152-.072.413-.193.615-.456.726-.261.111-.706.111-.967.111-.99 0-1.14-.131-1.171-.826-.009-.212 0-1.383 0-1.725v-.888c0-.041.02-.071.071-.071.172 0 1.169.021 1.442.051.394.04.484.212.524.354.04.13.04.23.04.332 0 .05.02.092.069.092.071 0 .071-.111.071-.193 0-.07.021-.442.042-.645.029-.333.08-.505.08-.564 0-.061-.02-.082-.051-.082-.039 0-.08.05-.152.132-.089.101-.23.12-.473.142-.233.021-1.474.021-1.604.021-.05 0-.061-.031-.061-.102V53.72q0-.103.061-.101c.112 0 1.21.009 1.382.03.545.06.646.181.717.343.051.121.06.292.06.362 0 .082.021.131.082.131.04 0 .06-.06.07-.109.019-.121.04-.565.051-.667.03-.281.081-.402.081-.474 0-.051-.011-.09-.041-.09-.051 0-.091.039-.141.052a3 3 0 0 1-.435.048c-.231.011-2.24.011-2.309.011-.053 0-.688-.03-1.142-.03-.11 0-.162.02-.162.081 0 .04.041.06.082.06.091 0 .263.01.342.031.334.07.414.23.434.574.021.323.021.605.021 2.18v1.775z" clip-path="url(#b)" style="fill:#000;fill-rule:evenodd"/><path d="M64.138 56.151c0-1.574 0-1.856.021-2.18.021-.353.101-.523.392-.574a2 2 0 0 1 .334-.031c.041 0 .084-.02.084-.06 0-.062-.053-.081-.164-.081-.305 0-1.038.03-1.089.03s-.688-.03-1.141-.03c-.11 0-.161.02-.161.081 0 .04.041.06.082.06.09 0 .261.01.342.031.334.07.415.23.433.574.022.323.022.605.022 2.18v1.775c0 .968 0 1.765-.05 2.188-.04.293-.092.514-.295.557-.09.019-.212.038-.303.038-.06 0-.081.031-.081.061 0 .061.051.081.162.081.152 0 .374-.011.576-.021.201 0 .374-.01.413-.01.585 0 1.253.061 2.702.061.535 0 .564-.041.637-.272.08-.292.15-.896.15-1.009s-.008-.151-.059-.151c-.063 0-.082.051-.092.132a1.37 1.37 0 0 1-.262.604c-.244.293-.686.304-1.221.304-.788 0-1.051-.071-1.211-.231-.182-.183-.223-.828-.223-2.31v-1.797z" clip-path="url(#b)" style="fill:#000;fill-rule:evenodd"/><path d="M70.044 56.151c0-1.574 0-1.856.021-2.18.021-.353.101-.523.372-.574.123-.021.184-.031.253-.031.042 0 .081-.02.081-.06 0-.062-.049-.081-.16-.081-.305 0-.938.03-.986.03-.053 0-.689-.03-1.021-.03-.109 0-.163.02-.163.081 0 .04.04.06.083.06.068 0 .201.01.313.042.223.05.324.22.342.563.021.323.021.605.021 2.18v1.775c0 .968 0 1.765-.05 2.188-.039.293-.091.514-.293.557a1.7 1.7 0 0 1-.304.038c-.059 0-.082.031-.082.061 0 .061.053.081.162.081.303 0 .939-.03.992-.03.049 0 .682.03 1.238.03.111 0 .161-.03.161-.081 0-.029-.019-.061-.079-.061-.092 0-.313-.02-.453-.038-.307-.043-.365-.264-.395-.557-.053-.424-.053-1.221-.053-2.188z" clip-path="url(#b)" style="fill:#000;fill-rule:evenodd"/><path d="M73.714 54.648c.324.362 1.461 1.634 2.633 2.895a121 121 0 0 0 2.633 2.733c.537.535.656.646.736.646.07 0 .092-.051.092-.718l.02-5.91c0-.605.039-.827.371-.897.125-.031.193-.031.245-.031.071 0 .11-.031.11-.069 0-.061-.072-.071-.182-.071-.412 0-.746.03-.855.03-.114 0-.6-.03-1.049-.03-.125 0-.205.011-.205.071 0 .038.013.069.08.069.082 0 .314.01.494.051.313.08.383.303.395.959l.111 5.124c-.324-.333-1.424-1.563-2.422-2.632a496 496 0 0 1-3.207-3.46c-.102-.102-.271-.324-.353-.324s-.11.112-.11.505l-.012 5.779c0 .918-.051 1.212-.303 1.281-.15.051-.332.061-.411.061q-.08 0-.081.061c0 .07.061.081.16.081.455 0 .877-.03.969-.03s.495.03 1.068.03c.123 0 .18-.021.18-.081q0-.06-.078-.061c-.09 0-.313-.01-.506-.061-.271-.081-.373-.344-.393-1.17z" clip-path="url(#b)" style="fill:#000;fill-rule:evenodd"/><path d="M82.696 57.928c0 .967 0 1.764-.053 2.188-.04.293-.09.514-.293.556-.09.02-.211.039-.301.039-.063 0-.082.031-.082.061 0 .061.051.081.162.081.303 0 .938-.03.986-.03.104 0 1.373.121 2.24.121 1.715 0 2.624-.707 3.057-1.16.563-.595 1.09-1.574 1.09-2.845 0-1.2-.475-2.037-.979-2.562-1.201-1.24-3.048-1.15-4.043-1.15-.605 0-1.24.03-1.365.03-.049 0-.684-.03-1.14-.03-.108 0-.157.02-.157.081 0 .04.039.06.08.06.088 0 .26.01.342.031.332.071.412.23.434.574.021.323.021.605.021 2.18zm.846-1.939c0-.777 0-1.805.01-2.147 0-.112.029-.162.123-.203.078-.04.451-.07.654-.07 1.199 0 2.35.141 3.299 1.14.412.434.967 1.262.967 2.543 0 .927-.282 1.896-.805 2.41-.596.595-1.463.938-2.4.938-1.191 0-1.586-.212-1.715-.404-.084-.11-.104-.515-.112-.767a75 75 0 0 1-.021-2.189z" clip-path="url(#b)" style="fill:#000;fill-rule:evenodd"/><path d="M90.7 59.742c-.182.504-.383.887-.848.948-.08.009-.222.02-.291.02-.054 0-.092.021-.092.061 0 .061.061.081.193.081.475 0 1.027-.03 1.139-.03.109 0 .545.03.787.03.09 0 .15-.021.15-.081 0-.04-.029-.061-.102-.061h-.1c-.174 0-.385-.091-.385-.293 0-.182.051-.423.141-.675l.605-1.786c.021-.051.049-.08.104-.08h2.168c.049 0 .07.021.09.061l.938 2.48c.063.163 0 .254-.059.273-.041.009-.072.029-.072.07 0 .061.113.061.303.07.697.021 1.432.021 1.584.021.111 0 .203-.021.203-.081 0-.051-.041-.061-.102-.061a1.3 1.3 0 0 1-.406-.061c-.211-.061-.502-.222-.867-1.119-.613-1.534-2.197-5.7-2.35-6.083-.119-.313-.158-.363-.221-.363-.061 0-.102.062-.223.394zm1.412-2.23c-.029 0-.051-.02-.029-.07l.889-2.724q.071-.225.15 0l.957 2.724c.01.04.01.07-.039.07z" clip-path="url(#b)" style="fill:#000;fill-rule:evenodd"/></g></svg>