<svg xmlns="http://www.w3.org/2000/svg" width="269" height="114" viewBox="0 0 269 114"><title>Slice</title><g fill="#000" fill-rule="nonzero"><path d="M205.406 114c2.139 0 4.149-1.582 8.169-10.008 2.737-5.987 4.79-11.29 6.928-16.721.684-1.754 1.027-2.096 2.096-2.395.769-.214 1.069-.513 1.069-.984 0-.428-.257-.813-.898-.813-.941 0-2.053.129-3.336.129-1.326 0-2.309-.129-3.293-.129-.599 0-.898.343-.898.77 0 .47.299.77.983.984 1.882.513 2.053 1.326 1.326 3.55-1.155 3.507-2.438 6.885-4.405 11.376-1.668-4.149-3.079-7.87-4.49-12.06-.514-1.626-.342-2.31 1.668-2.866.769-.214 1.026-.47 1.026-.94 0-.471-.342-.814-.941-.814-1.283 0-2.609.129-4.362.129-1.882 0-3.25-.129-4.576-.129-.642 0-.941.385-.941.813 0 .513.256.77 1.026.984.984.256 1.283.598 1.882 2.138 2.352 5.86 4.448 11.034 7.185 18.048-1.839 3.378-3.208 4.148-5.047 4.49-1.496.257-2.48 1.198-2.48 2.395 0 .984.684 2.053 2.309 2.053m-13.343-29.21c2.737 0 3.978 2.48 3.978 3.464 0 .342-.171.6-.556.685-2.31.598-5.09 1.154-7.998 1.668.513-3.892 2.438-5.817 4.576-5.817m.3 19.245c3.72 0 6.286-1.839 7.826-3.678.684-.812.257-1.54-.428-1.54-.171 0-.342.086-.513.172-1.796 1.112-3.207 1.71-5.132 1.71-4.234 0-6.757-3.72-6.757-7.954v-.086c4.191-.598 8.297-1.411 12.531-2.395.556-.128.94-.556.812-1.197-.684-3.08-3.507-6.458-8.382-6.458-4.876 0-9.366 4.533-9.366 11.077 0 6.158 3.977 10.35 9.409 10.35zm-19.972-.342c1.411 0 2.908-.128 4.618-.128s3.294.128 4.705.128c.641 0 .941-.385.941-.813 0-.47-.3-.898-1.027-.983-1.924-.214-2.266-.428-2.266-1.326-.086-4.148-.086-8.04-.086-11.889 0-3.55 0-7.441.128-16.08 0-.556-.342-.685-.812-.556-2.01.503-4.054.86-6.116 1.069-.727.043-1.026.385-1.026.812 0 .47.299.813 1.112.941 1.881.342 2.095.556 2.138 1.54.086 4.32.086 8.382.086 12.274 0 3.849 0 7.74-.086 11.89-.043.897-.299 1.068-2.224 1.325-.77.085-1.026.513-1.026.984 0 .427.299.812.941.812m-9.665-18.903c2.737 0 3.977 2.48 3.977 3.464 0 .342-.171.6-.556.685-2.31.598-5.089 1.154-7.997 1.668.513-3.892 2.437-5.817 4.576-5.817m.299 19.245c3.721 0 6.287-1.839 7.826-3.678.685-.812.257-1.54-.427-1.54-.171 0-.343.086-.514.172-1.796 1.112-3.207 1.71-5.132 1.71-4.234 0-6.757-3.72-6.757-7.954v-.086c4.191-.598 8.297-1.411 12.531-2.395.556-.128.941-.556.813-1.197-.685-3.08-3.507-6.458-8.383-6.458s-9.366 4.533-9.366 11.077c0 6.158 3.978 10.35 9.409 10.35zm-30.878-.342c1.412 0 2.823-.128 4.533-.128s3.165.128 4.577.128c.641 0 .94-.385.94-.813 0-.47-.256-.812-1.026-.983-1.924-.3-2.138-.428-2.138-1.326-.043-1.368-.043-2.737-.043-4.063q1.415-.904 2.78-1.881c1.796 2.694 3.635 5.474 5.431 8.04.556.812.856.983 1.754.983 1.283 0 2.865-.042 4.704 0 .641 0 .984-.384.984-.855 0-.428-.172-.813-1.07-.898-1.197-.128-1.839-.727-2.865-2.053-1.796-2.438-3.678-5.218-5.431-7.912 0-.042.042-.042.085-.085 3.293-2.866 5.474-5.047 7.1-7.185.213-.3.342-.556.342-.813 0-.513-.342-.855-1.027-.812-2.01.17-3.849.17-6.116.042-.898-.042-1.154.385-1.154.813 0 .385.299.813.898.941l.855.214c1.412.342 1.412 1.497-.342 3.336-1.882 2.01-4.319 3.934-6.971 5.602v-5.303c0-3.55 0-7.441.128-16.08 0-.556-.342-.685-.812-.556-2.01.503-4.054.86-6.116 1.069-.727.043-1.026.385-1.026.812 0 .47.299.813 1.112.941 1.881.342 2.095.556 2.138 1.54.086 4.32.086 8.382.086 12.274 0 3.849 0 7.74-.086 11.89-.043.897-.214 1.026-2.138 1.325-.77.171-1.027.513-1.027.984 0 .427.3.812.941.812m-15.866 0c1.369 0 2.823-.128 4.49-.128s3.593.128 4.961.128c.599 0 .899-.385.899-.813 0-.47-.257-.855-1.112-.983-2.181-.257-2.395-.47-2.438-1.369-.086-2.352-.086-4.447-.086-7.184V89.75c2.224-2.95 3.251-3.55 4.363-3.55 1.325 0 2.437 1.668 2.993 1.668.3 0 .471-.085.685-.513.427-.855.855-1.71 1.283-2.608.256-.556.128-.856-.385-1.198-1.027-.684-2.096-1.155-3.165-1.155-1.882 0-3.593 1.583-5.731 5.09 0-1.412.043-2.951.086-4.662 0-.556-.342-.684-.813-.556-2.224.599-4.319.94-6.116 1.07-.727.085-.983.384-.983.854 0 .471.256.813 1.069.941 1.882.342 2.096.556 2.138 1.497.086 2.139.086 4.405.086 6.715 0 2.737 0 4.832-.086 7.184-.042.899-.171 1.112-2.053 1.369-.769.171-1.026.513-1.026.984 0 .427.3.812.941.812zM105.889 84.79c2.737 0 3.977 2.48 3.977 3.464 0 .342-.171.6-.556.685-2.309.598-5.089 1.154-7.997 1.668.513-3.892 2.438-5.817 4.576-5.817m.299 19.245c3.721 0 6.287-1.839 7.827-3.678.684-.812.256-1.54-.428-1.54-.171 0-.342.086-.513.172-1.796 1.112-3.208 1.71-5.132 1.71-4.234 0-6.757-3.72-6.757-7.954v-.086c4.191-.598 8.297-1.411 12.53-2.395.556-.128.941-.556.813-1.197-.684-3.08-3.507-6.458-8.382-6.458-4.876 0-9.366 4.533-9.366 11.077 0 6.158 3.977 10.35 9.408 10.35zm-26.087-2.694c-1.283-.3-1.71-.727-1.753-2.267-.086-3.25-.086-5.773-.086-10.392v-.085c7.27-.172 11.077 1.453 11.077 6.757 0 3.122-2.224 6.244-6.715 6.244-1.154 0-1.881-.086-2.523-.257M78.348 77.52c0-.856.213-1.198.855-1.454.513-.171 1.283-.257 2.48-.257 3.55 0 5.731 1.925 5.731 5.688 0 2.096-.684 3.85-1.796 5.175-2.181-.385-4.662-.513-7.356-.385 0-3.379 0-5.816.086-8.767m4.96 26.43c7.1 0 11.334-4.149 11.334-8.981 0-3.806-2.31-6.244-6.116-7.57 2.138-1.283 3.978-3.635 3.978-6.458 0-4.576-3.807-7.399-10.479-7.399-2.865 0-3.55.257-6.244.257-2.78 0-4.49-.214-5.602-.214-.684 0-1.026.385-1.026.941 0 .47.256.856 1.154 1.027 2.31.342 2.866.812 2.866 1.967.043 3.635.085 6.372.085 11.162s0 7.613-.085 11.248c-.043 1.24-.47 1.582-2.78 1.796-.898.128-1.155.556-1.155 1.026 0 .556.342.941 1.027.941 1.668 0 3.25-.085 5.516-.085 2.139 0 4.106.342 7.528.342zm-34.768.256c3.635 0 7.014-1.026 10.221-3.122.898-.556 1.155-1.154 1.155-1.753 0-1.155.085-2.224.042-3.165-.042-.727-.384-1.154-.983-1.154-.47 0-.813.299-.984.94-1.112 3.721-4.448 5.731-8.681 5.731-6.245 0-10.949-5.175-10.949-13.001 0-7.912 4.448-13.087 11.034-13.087 4.277 0 6.843 1.583 8.254 4.919.3.684.556 1.026 1.112 1.026.599 0 .855-.428.898-1.112.043-.984.043-2.523.043-3.464 0-.642-.214-1.155-1.155-1.668-2.266-1.24-5.431-2.138-8.81-2.138-10.007 0-16.85 6.885-16.85 15.995 0 8.852 6.415 15.053 15.653 15.053m-32.502 0c7.398 0 12.274-4.576 12.274-12.659v-2.865c0-4.833 0-7.655.042-11.547.043-.898.47-1.283 2.823-1.497.813-.128 1.07-.556 1.07-1.026 0-.556-.343-.941-.985-.941-1.368 0-2.694.128-4.404.128-1.754 0-3.123-.128-4.534-.128-.641 0-.983.385-.983.94 0 .428.256.856 1.112.984 2.48.257 2.908.642 2.908 1.54.085 3.892.085 6.714.085 11.547v2.523c0 6.33-3.122 9.537-8.34 9.537-5.345 0-8.125-3.335-8.125-9.237v-2.823c0-4.833 0-7.655.086-11.547 0-.898.427-1.283 2.78-1.497.855-.128 1.111-.556 1.111-1.026 0-.556-.342-.941-1.026-.941-1.625 0-3.25.128-5.474.128s-3.808-.128-5.474-.128c-.642 0-.984.385-.984.94 0 .471.257.899 1.112 1.027 2.352.214 2.78.599 2.78 1.497.085 3.892.085 6.714.085 11.547v3.379c0 7.997 4.62 12.145 12.06 12.145zM.17 35V8.818h9.154q2.736 0 4.513.94t2.646 2.518.87 3.497q0 1.687-.595 2.787-.594 1.1-1.56 1.738a7.2 7.2 0 0 1-2.09.946v.256q1.202.076 2.416.844 1.214.767 2.033 2.199.818 1.432.818 3.502 0 1.969-.895 3.542-.894 1.572-2.825 2.493-1.93.92-5.024.92zm3.171-2.812h6.29q3.105 0 4.417-1.209 1.31-1.207 1.31-2.934 0-1.329-.678-2.46-.677-1.132-1.93-1.816t-2.966-.684H3.341zm0-11.864h5.88q1.432 0 2.59-.563a4.57 4.57 0 0 0 1.84-1.585q.684-1.023.684-2.403 0-1.726-1.201-2.934t-3.81-1.208H3.34zM31.16 35.41q-2.66 0-4.66-1.267-2.001-1.265-3.12-3.54t-1.119-5.319q0-3.067 1.119-5.356t3.12-3.554q2-1.266 4.66-1.266 2.658 0 4.659 1.266 2.001 1.265 3.12 3.554 1.118 2.287 1.118 5.356 0 3.043-1.119 5.318-1.117 2.276-3.12 3.541-2 1.266-4.659 1.266m0-2.711q2.02 0 3.323-1.036 1.305-1.035 1.93-2.723.627-1.687.627-3.656 0-1.968-.627-3.669-.625-1.7-1.93-2.749-1.304-1.047-3.324-1.048-2.019 0-3.324 1.048-1.304 1.05-1.93 2.75-.627 1.7-.627 3.668t.627 3.656 1.93 2.723T31.16 32.7M52.892 35.41q-2.838 0-4.89-1.26t-3.157-3.529q-1.106-2.268-1.106-5.286t1.106-5.324q1.106-2.308 3.093-3.605 1.989-1.299 4.647-1.298 1.535 0 3.03.511 1.496.511 2.723 1.656 1.227 1.144 1.956 3.023t.729 4.628v1.279H45.886v-2.608h12.069q0-1.662-.659-2.966a5.07 5.07 0 0 0-1.866-2.059q-1.209-.754-2.845-.754-1.803 0-3.113.889a5.9 5.9 0 0 0-2.013 2.307 6.76 6.76 0 0 0-.703 3.043v1.738q0 2.224.773 3.765.774 1.54 2.154 2.34t3.21.799q1.188 0 2.153-.339a4.5 4.5 0 0 0 1.669-1.023q.702-.683 1.086-1.706l2.915.818a6.4 6.4 0 0 1-1.547 2.601q-1.087 1.119-2.685 1.74-1.597.619-3.592.62M74.165 15.364v2.556H63.989v-2.556zm-7.21-4.705h3.017v18.716q0 1.279.377 1.911t.971.844q.595.21 1.26.21.498 0 .818-.057t.511-.096l.614 2.71q-.307.115-.857.237-.549.122-1.393.122a6 6 0 0 1-2.5-.55 4.9 4.9 0 0 1-2.02-1.675q-.798-1.125-.798-2.838zM87.256 15.364v2.556H77.08v-2.556zm-7.21-4.705h3.017v18.716q0 1.279.377 1.911t.971.844q.595.21 1.26.21.498 0 .818-.057t.511-.096l.614 2.71q-.307.115-.857.237-.549.122-1.393.122a6 6 0 0 1-2.5-.55 4.9 4.9 0 0 1-2.02-1.675q-.798-1.125-.798-2.838zM91.807 35V15.364h3.017V35zm1.534-22.91q-.882 0-1.515-.6t-.633-1.445.633-1.444T93.341 8t1.515.6q.633.602.633 1.445t-.633 1.445q-.633.6-1.515.6M108.273 42.773q-2.186 0-3.759-.556t-2.614-1.458q-1.042-.9-1.656-1.924l2.404-1.687q.41.537 1.035 1.233.627.697 1.72 1.215t2.87.518q2.377 0 3.924-1.15 1.547-1.152 1.547-3.606v-3.989h-.255q-.333.538-.94 1.323-.607.788-1.739 1.394-1.13.607-3.049.607-2.377 0-4.263-1.125t-2.979-3.273-1.093-5.215q0-3.017 1.061-5.261 1.062-2.244 2.953-3.477 1.893-1.234 4.373-1.234 1.917 0 3.049.633 1.13.633 1.738 1.432.607.798.94 1.31h.307v-3.12h2.914v20.2q0 2.53-1.144 4.122t-3.068 2.34-4.276.748m-.102-10.79q1.814 0 3.068-.831 1.252-.83 1.905-2.39.651-1.56.651-3.734 0-2.122-.639-3.745-.64-1.624-1.892-2.544t-3.093-.92q-1.918 0-3.19.97-1.272.972-1.905 2.609-.633 1.635-.633 3.63 0 2.046.646 3.612t1.917 2.454 3.165.889M130.517 35.41q-2.838 0-4.89-1.26t-3.157-3.529q-1.107-2.268-1.106-5.286t1.106-5.324q1.105-2.308 3.093-3.605 1.989-1.299 4.647-1.298 1.535 0 3.03.511 1.496.511 2.723 1.656 1.227 1.144 1.956 3.023t.729 4.628v1.279H123.51v-2.608h12.069q0-1.662-.659-2.966a5.07 5.07 0 0 0-1.866-2.059q-1.209-.754-2.845-.754-1.803 0-3.113.889a5.9 5.9 0 0 0-2.013 2.307 6.76 6.76 0 0 0-.703 3.043v1.738q0 2.224.773 3.765.774 1.54 2.154 2.34t3.21.799q1.188 0 2.153-.339a4.5 4.5 0 0 0 1.669-1.023q.702-.683 1.086-1.706l2.915.818a6.4 6.4 0 0 1-1.547 2.601q-1.087 1.119-2.685 1.74-1.597.619-3.592.62M143.25 35V15.364h2.915v2.966h.204q.537-1.458 1.944-2.366 1.406-.907 3.17-.907.333 0 .831.013.499.011.754.038v3.068a10 10 0 0 0-.697-.121 7.6 7.6 0 0 0-1.144-.083q-1.431 0-2.55.594a4.54 4.54 0 0 0-1.764 1.636q-.646 1.042-.646 2.372V35zM185.08 17a9.5 9.5 0 0 0-1.106-2.32 7.4 7.4 0 0 0-1.624-1.758 6.9 6.9 0 0 0-2.128-1.112q-1.19-.384-2.608-.384-2.327 0-4.232 1.202t-3.03 3.541-1.125 5.74 1.138 5.74 3.081 3.541 4.372 1.202q2.25 0 3.97-.965a6.8 6.8 0 0 0 2.684-2.736q.966-1.77.966-4.174l.971.205h-7.875v-2.813h9.972v2.813q0 3.233-1.375 5.625a9.55 9.55 0 0 1-3.784 3.7q-2.41 1.311-5.529 1.311-3.477 0-6.104-1.636t-4.091-4.654-1.464-7.159q0-3.105.837-5.593.839-2.486 2.372-4.238a10.4 10.4 0 0 1 3.63-2.685q2.097-.933 4.616-.933 2.07 0 3.867.62a10.6 10.6 0 0 1 3.209 1.752 10.2 10.2 0 0 1 2.358 2.697A10.4 10.4 0 0 1 188.352 17zM193.517 35V15.364h2.915v2.966h.204q.537-1.458 1.944-2.366 1.406-.907 3.17-.907.333 0 .831.013.499.011.754.038v3.068a10 10 0 0 0-.696-.121 7.6 7.6 0 0 0-1.145-.083q-1.431 0-2.55.594a4.54 4.54 0 0 0-1.764 1.636q-.645 1.042-.646 2.372V35zM214.892 35.41q-2.66 0-4.66-1.267-2-1.265-3.119-3.54t-1.119-5.319q0-3.067 1.119-5.356t3.12-3.554q2-1.266 4.66-1.266 2.658 0 4.659 1.266 2 1.265 3.12 3.554 1.118 2.287 1.118 5.356 0 3.043-1.119 5.318-1.118 2.276-3.12 3.541-2 1.266-4.659 1.266m0-2.711q2.02 0 3.324-1.036 1.305-1.035 1.93-2.723.627-1.687.627-3.656 0-1.968-.627-3.669-.625-1.7-1.93-2.749-1.304-1.047-3.324-1.048-2.019 0-3.324 1.048-1.305 1.05-1.93 2.75-.627 1.7-.627 3.668t.627 3.656 1.93 2.723 3.324 1.036M240.767 26.972V15.364h3.017V35h-3.017v-3.324h-.204q-.69 1.495-2.148 2.538-1.458 1.041-3.682 1.042-1.84 0-3.273-.812-1.431-.812-2.25-2.455-.818-1.643-.818-4.148V15.364h3.017v12.272q0 2.148 1.208 3.427 1.209 1.278 3.088 1.278 1.125 0 2.294-.575 1.17-.576 1.97-1.765.798-1.188.798-3.03M249.307 42.364v-27h2.915v3.119h.358q.332-.512.926-1.31.595-.8 1.714-1.432 1.117-.633 3.036-.633 2.48 0 4.372 1.24t2.953 3.516 1.061 5.369q0 3.12-1.061 5.401-1.06 2.283-2.94 3.529t-4.334 1.246q-1.892 0-3.03-.633t-1.751-1.444a19 19 0 0 1-.946-1.349h-.256v10.38zm2.966-17.182q0 2.225.652 3.918.652 1.695 1.905 2.646 1.253.953 3.068.953 1.892 0 3.164-1.004 1.272-1.003 1.917-2.71.646-1.707.646-3.803 0-2.07-.633-3.74-.633-1.668-1.905-2.646-1.271-.978-3.19-.978-1.84 0-3.093.927t-1.892 2.582q-.64 1.656-.64 3.855"/></g></svg>