<svg width="302" height="101" viewBox="0 0 302 101" fill="none" xmlns="http://www.w3.org/2000/svg">
<path fill-rule="evenodd" clip-rule="evenodd" d="M69.7623 79.9226V73.0433L69.7542 73.0352L29.9455 33.2265C23.7713 36.0565 19.2032 39.6983 20.1165 45.7637C21.3137 53.7149 29.0067 55.6252 37.2535 57.673C42.3478 58.938 47.6534 60.2555 51.7698 63.0818C54.6329 65.0476 56.7918 67.9604 58.9158 70.8261C61.9514 74.9218 64.9158 78.9213 69.7623 79.9226ZM70.5002 80.0509C77.1202 80.9927 82.6596 76.1884 88.0354 71.526C89.4588 70.2915 90.8708 69.0669 92.2883 67.9616C94.4474 66.278 97.0038 64.6944 99.5883 63.0934C107.116 58.4303 114.881 53.62 113.756 45.7637C113.142 41.4768 110.269 38.8422 106.432 36.8791L70.5002 72.811V80.0509ZM105.734 36.5339C103.196 35.3211 100.291 34.3617 97.3646 33.3949C95.7854 32.8732 94.1998 32.3494 92.6618 31.7826L70.5002 53.9442V71.7675L105.734 36.5339ZM91.9032 31.4977C90.0605 30.7923 88.3009 30.0136 86.7206 29.0889C85.0065 28.086 83.3985 26.9312 81.8087 25.7893C81.4154 25.5069 81.0233 25.2253 80.6309 24.947L70.5002 35.0777L70.5002 52.9007L91.9032 31.4977ZM80.0186 24.5158C77.0819 22.4664 74.0943 20.6733 70.5002 20.1782V34.0342L80.0186 24.5158ZM69.7623 20.0955C65.4633 19.71 61.3929 20.5241 57.4423 21.9467L69.7623 34.2667V20.0955ZM56.6809 22.2288C54.2525 23.1533 51.867 24.2951 49.499 25.5151C47.9479 26.3142 46.2137 27.0487 44.384 27.7551L69.7623 53.1333L69.7623 35.3102L69.7541 35.302L56.6809 22.2288ZM43.7806 27.9858C42.2818 28.5535 40.7266 29.1054 39.1615 29.6607C36.2646 30.6886 33.3341 31.7284 30.6656 32.9031L69.7623 71.9998V54.1768L69.7541 54.1686L43.6759 28.0905L43.7806 27.9858Z" fill="black"/>
<path d="M129.89 50.0851C129.89 39.8676 138.15 31.7934 148.487 31.7934C155.531 31.7934 161.51 35.3321 164.703 40.7648L159.585 43.6556C157.254 39.8676 153.453 37.4254 148.487 37.4254C141.342 37.4254 135.869 43.0575 135.869 50.0851C135.869 57.1127 141.342 62.7447 148.487 62.7447C153.453 62.7447 157.254 60.3025 159.585 56.5146L164.703 59.4054C161.51 64.8381 155.531 68.3768 148.487 68.3768C138.15 68.3768 129.89 60.3025 129.89 50.0851Z" fill="black"/>
<path d="M176.049 67.7787V37.9737H165.61V32.3914H192.467V37.9737H181.977V67.7787H176.049Z" fill="black"/>
<path d="M191.575 67.7787V42.8581H197.149V47.294C198.112 44.453 200.95 42.6089 203.838 42.6089C204.547 42.6089 205.257 42.6587 206.017 42.8083V48.4403C205.054 48.1413 204.243 47.9917 203.23 47.9917C200.037 47.9917 197.149 50.6333 197.149 55.6174V67.7787H191.575Z" fill="black"/>
<path d="M206.843 55.3184C206.843 47.9917 212.367 42.3597 220.069 42.3597C226.707 42.3597 232.281 46.6959 232.281 54.7203C232.281 55.2686 232.281 55.7171 232.231 56.5146H212.316C212.569 60.6016 215.914 63.293 220.12 63.293C223.667 63.293 226.048 61.6981 227.366 59.5051L231.623 62.4955C229.342 66.0343 225.39 68.2771 220.069 68.2771C212.367 68.2771 206.843 62.8943 206.843 55.3184ZM219.866 46.9949C216.623 46.9949 213.329 48.839 212.569 52.5273H226.657C226.048 48.9387 223.109 46.9949 219.866 46.9949Z" fill="black"/>
<path d="M234.92 55.3184C234.92 47.9917 240.444 42.3597 248.146 42.3597C254.784 42.3597 260.358 46.6959 260.358 54.7203C260.358 55.2686 260.358 55.7171 260.308 56.5146H240.393C240.646 60.6016 243.991 63.293 248.197 63.293C251.744 63.293 254.126 61.6981 255.443 59.5051L259.7 62.4955C257.419 66.0343 253.467 68.2771 248.146 68.2771C240.444 68.2771 234.92 62.8943 234.92 55.3184ZM247.943 46.9949C244.7 46.9949 241.406 48.839 240.646 52.5273H254.734C254.126 48.9387 251.186 46.9949 247.943 46.9949Z" fill="black"/>
<path d="M282 60.5517C282 65.3365 278.047 68.2771 272.828 68.2771C268.318 68.2771 264.467 66.5327 262.643 62.9939L266.747 60.1032C267.761 62.2962 270.244 63.5422 272.828 63.5422C274.804 63.5422 276.477 62.6451 276.477 60.9006C276.477 59.4552 275.615 58.6079 272.575 57.7108L270.345 57.1127C265.936 55.9165 263.656 53.1752 263.707 49.487C263.757 45.0511 267.71 42.3597 272.777 42.3597C276.578 42.3597 279.568 43.8549 281.341 46.5962L277.49 49.487C276.375 47.9419 274.754 46.9451 272.676 46.9451C271.004 46.9451 269.281 47.7924 269.281 49.2876C269.281 50.4838 269.838 51.5305 272.321 52.2282L274.906 52.9759C279.365 54.2717 282 56.4647 282 60.5517Z" fill="black"/>
</svg>
