<svg xmlns="http://www.w3.org/2000/svg" viewBox="0 0 611.45 179.94"><path fill="#000" fill-rule="evenodd" d="M0 0h611.45v179.94H0z M548.05 108.64 L548.05 123.2 L560.19 123.2 L560.19 108.64 L568.55 108.64 L568.55 98.12 L560.19 98.12 L560.19 60.28 L548.77 60.28 L521.45 96.95 L521.45 108.64ZM548.05 76.28 L548.05 98.12 L531.52 98.12 L547.79 76.28ZM484.09 104.14 C484.09 100.91 485.16 98.45 487.32 96.77 C489.48 95.04 492.11 94.16 495.23 94.16 C496.73 94.16 498.11 94.41 499.37 94.89 C500.68 95.36 501.82 96.05 502.78 96.95 C503.8 97.85 504.58 98.93 505.12 100.19 C505.71 101.39 506.02 102.73 506.02 104.23 C506.02 105.79 505.75 107.23 505.21 108.55 C504.67 109.87 503.89 111 502.87 111.96 C501.91 112.86 500.77 113.58 499.45 114.12 C498.2 114.6 496.79 114.84 495.23 114.84 C493.73 114.84 492.29 114.6 490.91 114.12 C489.54 113.58 488.34 112.86 487.32 111.96 C486.36 111 485.58 109.87 484.98 108.55 C484.38 107.23 484.09 105.76 484.09 104.14ZM473.93 76.19 C473.93 79.3 474.7 82.03 476.26 84.37 C477.82 86.7 480.13 88.29 483.18 89.13 L483.18 89.31 C479.41 90.21 476.47 92.01 474.38 94.71 C472.34 97.4 471.32 100.76 471.32 104.77 C471.32 108.19 471.98 111.12 473.3 113.58 C474.68 116.04 476.47 118.08 478.69 119.7 C480.97 121.31 483.52 122.48 486.33 123.2 C489.21 123.98 492.18 124.37 495.23 124.37 C498.16 124.37 501.04 123.98 503.86 123.2 C506.68 122.36 509.19 121.13 511.41 119.52 C513.62 117.9 515.39 115.86 516.71 113.4 C518.09 110.95 518.78 108.04 518.78 104.68 C518.78 100.73 517.76 97.4 515.73 94.71 C513.69 91.95 510.78 90.15 507 89.31 L507 89.13 C510.06 88.11 512.34 86.43 513.84 84.1 C515.39 81.76 516.18 79.04 516.18 75.92 C516.18 74.36 515.82 72.62 515.09 70.7 C514.38 68.73 513.18 66.9 511.5 65.22 C509.88 63.48 507.73 62.02 505.03 60.82 C502.33 59.62 499.04 59.02 495.14 59.02 C492.56 59.02 490.02 59.38 487.5 60.1 C484.98 60.82 482.7 61.89 480.67 63.33 C478.69 64.77 477.07 66.57 475.81 68.73 C474.55 70.88 473.93 73.37 473.93 76.19ZM485.52 77.36 C485.52 75.92 485.76 74.66 486.24 73.58 C486.78 72.5 487.5 71.6 488.4 70.88 C489.3 70.16 490.32 69.62 491.45 69.27 C492.65 68.85 493.88 68.64 495.14 68.64 C497.12 68.64 498.7 68.94 499.9 69.54 C501.16 70.14 502.12 70.88 502.78 71.79 C503.5 72.68 503.98 73.64 504.22 74.66 C504.46 75.62 504.58 76.52 504.58 77.36 C504.58 80.05 503.68 82.12 501.88 83.56 C500.08 84.94 497.84 85.62 495.14 85.62 C492.56 85.62 490.32 84.94 488.4 83.56 C486.48 82.12 485.52 80.05 485.52 77.36 M379.79 76.73 L379.79 62.79 L367.02 62.79 L367.02 76.73 L359.29 76.73 L359.29 85.27 L367.02 85.27 L367.02 112.68 C367.02 115.02 367.41 116.91 368.19 118.35 C368.97 119.79 370.02 120.89 371.34 121.67 C372.72 122.45 374.28 122.96 376.01 123.2 C377.81 123.5 379.7 123.65 381.68 123.65 C382.93 123.65 384.22 123.62 385.54 123.56 C386.86 123.5 388.06 123.38 389.14 123.2 L389.14 113.31 C388.54 113.43 387.91 113.52 387.25 113.58 C386.59 113.64 385.9 113.67 385.18 113.67 C383.02 113.67 381.59 113.31 380.87 112.59 C380.15 111.88 379.79 110.43 379.79 108.28 L379.79 85.27 L389.14 85.27 L389.14 76.73ZM310.32 76.73 L310.32 123.2 L323.09 123.2 L323.09 98.84 C323.09 94.11 323.87 90.72 325.43 88.68 C326.98 86.59 329.5 85.54 332.98 85.54 C336.03 85.54 338.16 86.5 339.36 88.41 C340.56 90.27 341.16 93.12 341.16 96.95 L341.16 123.2 L353.92 123.2 L353.92 94.62 C353.92 91.74 353.65 89.13 353.11 86.79 C352.63 84.4 351.76 82.39 350.5 80.77 C349.25 79.09 347.51 77.8 345.29 76.91 C343.13 75.95 340.35 75.47 336.93 75.47 C334.23 75.47 331.6 76.1 329.02 77.36 C326.45 78.55 324.35 80.5 322.73 83.2 L322.46 83.2 L322.46 76.73ZM269.23 103.07 L302.75 103.07 C302.99 99.47 302.7 96.02 301.86 92.73 C301.02 89.43 299.64 86.5 297.72 83.92 C295.86 81.34 293.46 79.3 290.53 77.8 C287.59 76.25 284.15 75.47 280.19 75.47 C276.66 75.47 273.42 76.1 270.48 77.36 C267.61 78.61 265.12 80.35 263.02 82.57 C260.93 84.73 259.31 87.3 258.17 90.3 C257.03 93.3 256.46 96.53 256.46 100.01 C256.46 103.61 257 106.9 258.08 109.9 C259.22 112.89 260.8 115.47 262.84 117.62 C264.88 119.79 267.37 121.46 270.3 122.66 C273.24 123.8 276.54 124.37 280.19 124.37 C285.46 124.37 289.96 123.17 293.68 120.77 C297.39 118.38 300.15 114.39 301.95 108.82 L290.71 108.82 C290.29 110.25 289.15 111.63 287.29 112.95 C285.44 114.21 283.22 114.84 280.64 114.84 C277.05 114.84 274.29 113.91 272.37 112.05 C270.45 110.2 269.41 107.2 269.23 103.07 M289.99 94.97 L269.23 94.97 C269.29 94.07 269.46 93.06 269.77 91.92 C270.12 90.78 270.7 89.7 271.47 88.68 C272.31 87.66 273.39 86.82 274.71 86.16 C276.09 85.45 277.8 85.09 279.83 85.09 C282.95 85.09 285.26 85.93 286.75 87.61 C288.31 89.28 289.39 91.74 289.99 94.97 M177.61 76.73 L177.61 123.2 L190.37 123.2 L190.37 96.23 C190.37 93.96 190.7 92.13 191.36 90.75 C192.02 89.31 192.8 88.23 193.7 87.52 C194.66 86.73 195.61 86.23 196.57 85.98 C197.59 85.69 198.4 85.54 199 85.54 C201.04 85.54 202.57 85.89 203.58 86.61 C204.66 87.27 205.41 88.17 205.83 89.31 C206.31 90.45 206.58 91.71 206.64 93.09 C206.7 94.41 206.73 95.75 206.73 97.13 L206.73 123.2 L219.5 123.2 L219.5 97.31 C219.5 95.88 219.59 94.46 219.76 93.09 C220 91.65 220.42 90.39 221.02 89.31 C221.68 88.17 222.55 87.27 223.63 86.61 C224.77 85.89 226.23 85.54 228.04 85.54 C229.83 85.54 231.24 85.84 232.26 86.43 C233.34 87.04 234.14 87.84 234.69 88.86 C235.22 89.88 235.55 91.08 235.68 92.46 C235.79 93.84 235.86 95.3 235.86 96.86 L235.86 123.2 L248.62 123.2 L248.62 92.1 C248.62 89.1 248.2 86.55 247.36 84.46 C246.52 82.3 245.35 80.56 243.86 79.25 C242.36 77.93 240.56 76.96 238.46 76.37 C236.36 75.77 234.09 75.47 231.63 75.47 C228.39 75.47 225.58 76.25 223.18 77.8 C220.84 79.36 218.98 81.16 217.61 83.2 C216.35 80.32 214.49 78.32 212.04 77.18 C209.64 76.04 206.97 75.47 204.04 75.47 C200.98 75.47 198.25 76.13 195.85 77.45 C193.52 78.77 191.51 80.62 189.83 83.02 L189.65 83.02 L189.65 76.73ZM136.15 103.07 L169.68 103.07 C169.91 99.47 169.62 96.02 168.78 92.73 C167.94 89.43 166.56 86.5 164.64 83.92 C162.79 81.34 160.39 79.3 157.45 77.8 C154.52 76.25 151.07 75.47 147.11 75.47 C143.58 75.47 140.34 76.1 137.41 77.36 C134.53 78.61 132.04 80.35 129.95 82.57 C127.85 84.73 126.23 87.3 125.09 90.3 C123.95 93.3 123.38 96.53 123.38 100.01 C123.38 103.61 123.92 106.9 125 109.9 C126.14 112.89 127.73 115.47 129.77 117.62 C131.8 119.79 134.29 121.46 137.23 122.66 C140.16 123.8 143.46 124.37 147.11 124.37 C152.39 124.37 156.88 123.17 160.6 120.77 C164.31 118.38 167.07 114.39 168.87 108.82 L157.63 108.82 C157.21 110.25 156.07 111.63 154.21 112.95 C152.36 114.21 150.14 114.84 147.56 114.84 C143.97 114.84 141.21 113.91 139.29 112.05 C137.38 110.2 136.33 107.2 136.15 103.07 M156.91 94.97 L136.15 94.97 C136.21 94.07 136.39 93.06 136.69 91.92 C137.05 90.78 137.62 89.7 138.39 88.68 C139.23 87.66 140.31 86.82 141.63 86.16 C143.01 85.45 144.72 85.09 146.75 85.09 C149.87 85.09 152.18 85.93 153.68 87.61 C155.23 89.28 156.31 91.74 156.91 94.97 M102.82 123.2 L115.58 123.2 L115.58 59.02 L102.82 59.02ZM45.52 59.02 L45.52 123.2 L94.23 123.2 L94.23 111.34 L59.63 111.34 L59.63 95.61 L90.73 95.61 L90.73 84.64 L59.63 84.64 L59.63 70.88 L93.52 70.88 L93.52 59.02ZM45.52 59.02"/></svg>