<svg xmlns="http://www.w3.org/2000/svg" viewBox="0 0 607 180" fill="#000" fill-rule="evenodd"><path d="M607.45 0 L607.45 179.94 L426.06 179.94 L426.06 0 L607.45 0ZM491.59 59.02 C489.01 59.02 486.46 59.38 483.94 60.1 C481.42 60.82 479.14 61.9 477.1 63.34 C475.12 64.78 473.5 66.58 472.24 68.74 C470.99 70.9 470.36 73.39 470.36 76.21 C470.36 79.32 471.13 82.05 472.69 84.39 C474.25 86.73 476.56 88.32 479.62 89.16 L479.62 89.34 C475.84 90.24 472.9 92.04 470.81 94.74 C468.77 97.44 467.75 100.8 467.75 104.82 C467.75 108.23 468.41 111.17 469.73 113.63 C471.1 116.09 472.9 118.13 475.12 119.75 C477.4 121.37 479.95 122.54 482.77 123.26 C485.65 124.04 488.62 124.43 491.68 124.43 C494.62 124.43 497.5 124.04 500.32 123.26 C503.13 122.42 505.65 121.19 507.87 119.57 C510.09 117.95 511.86 115.91 513.18 113.45 C514.56 110.99 515.25 108.08 515.25 104.73 C515.25 100.77 514.23 97.44 512.19 94.74 C510.15 91.98 507.24 90.18 503.46 89.34 L503.46 89.16 C506.52 88.14 508.8 86.46 510.3 84.12 C511.86 81.78 512.64 79.05 512.64 75.94 C512.64 74.38 512.28 72.64 511.56 70.72 C510.84 68.74 509.64 66.91 507.96 65.23 C506.34 63.49 504.18 62.02 501.49 60.82 C498.79 59.62 495.49 59.02 491.59 59.02ZM556.7 60.28 L545.27 60.28 L517.92 96.99 L517.92 108.68 L544.55 108.68 L544.55 123.26 L556.7 123.26 L556.7 108.68 L565.06 108.68 L565.06 98.16 L556.7 98.16 L556.7 60.28ZM491.68 94.2 C493.18 94.2 494.56 94.44 495.82 94.92 C497.14 95.4 498.28 96.09 499.24 96.99 C500.26 97.89 501.04 98.97 501.58 100.23 C502.17 101.43 502.47 102.78 502.47 104.28 C502.47 105.84 502.2 107.27 501.67 108.59 C501.13 109.91 500.35 111.05 499.33 112.01 C498.37 112.91 497.23 113.63 495.91 114.17 C494.65 114.65 493.24 114.89 491.68 114.89 C490.18 114.89 488.74 114.65 487.36 114.17 C485.98 113.63 484.78 112.91 483.76 112.01 C482.8 111.05 482.02 109.91 481.42 108.59 C480.82 107.27 480.52 105.81 480.52 104.19 C480.52 100.95 481.6 98.49 483.76 96.81 C485.92 95.07 488.56 94.2 491.68 94.2ZM544.55 76.3 L544.55 98.16 L528 98.16 L544.28 76.3 L544.55 76.3ZM491.59 68.65 C493.57 68.65 495.16 68.95 496.36 69.55 C497.62 70.15 498.58 70.9 499.24 71.8 C499.96 72.7 500.44 73.66 500.68 74.68 C500.91 75.64 501.04 76.54 501.04 77.37 C501.04 80.07 500.14 82.14 498.34 83.58 C496.54 84.96 494.29 85.65 491.59 85.65 C489.01 85.65 486.76 84.96 484.84 83.58 C482.92 82.14 481.96 80.07 481.96 77.37 C481.96 75.94 482.2 74.68 482.68 73.6 C483.22 72.52 483.94 71.62 484.84 70.9 C485.74 70.18 486.76 69.64 487.9 69.28 C489.1 68.86 490.33 68.65 491.59 68.65Z"/><path d="M376.13 76.74 L376.13 62.8 L363.36 62.8 L363.36 76.74 L355.62 76.74 L355.62 85.29 L363.36 85.29 L363.36 112.73 C363.36 115.07 363.75 116.96 364.53 118.4 C365.31 119.84 366.36 120.95 367.67 121.73 C369.05 122.51 370.61 123.02 372.35 123.26 C374.15 123.56 376.04 123.71 378.02 123.71 C379.28 123.71 380.57 123.68 381.89 123.62 C383.21 123.56 384.41 123.44 385.49 123.26 L385.49 113.36 C384.89 113.48 384.26 113.57 383.6 113.63 C382.94 113.69 382.25 113.72 381.53 113.72 C379.37 113.72 377.93 113.36 377.21 112.64 C376.49 111.92 376.13 110.48 376.13 108.32 L376.13 85.29 L385.49 85.29 L385.49 76.74 L376.13 76.74ZM306.61 76.74 L306.61 123.26 L319.38 123.26 L319.38 98.88 C319.38 94.14 320.16 90.75 321.72 88.71 C323.28 86.61 325.8 85.56 329.28 85.56 C332.34 85.56 334.47 86.52 335.67 88.44 C336.87 90.3 337.47 93.15 337.47 96.99 L337.47 123.26 L350.24 123.26 L350.24 94.65 C350.24 91.77 349.97 89.16 349.43 86.82 C348.95 84.42 348.08 82.41 346.82 80.79 C345.56 79.11 343.82 77.82 341.6 76.92 C339.44 75.97 336.66 75.49 333.24 75.49 C330.54 75.49 327.9 76.12 325.32 77.37 C322.74 78.57 320.64 80.52 319.02 83.22 L318.75 83.22 L318.75 76.74 L306.61 76.74ZM265.47 103.11 L299.03 103.11 C299.27 99.51 298.97 96.06 298.13 92.76 C297.29 89.46 295.91 86.52 293.99 83.94 C292.13 81.36 289.73 79.32 286.79 77.82 C283.85 76.27 280.4 75.49 276.45 75.49 C272.91 75.49 269.67 76.12 266.73 77.37 C263.85 78.63 261.36 80.37 259.26 82.59 C257.16 84.75 255.54 87.33 254.4 90.33 C253.26 93.33 252.69 96.57 252.69 100.05 C252.69 103.65 253.23 106.95 254.31 109.94 C255.45 112.94 257.04 115.52 259.08 117.68 C261.12 119.84 263.61 121.52 266.55 122.72 C269.49 123.86 272.79 124.43 276.45 124.43 C281.72 124.43 286.22 123.23 289.94 120.83 C293.66 118.43 296.42 114.44 298.22 108.86 L286.97 108.86 C286.55 110.3 285.41 111.68 283.55 113 C281.69 114.26 279.47 114.89 276.9 114.89 C273.3 114.89 270.54 113.96 268.62 112.1 C266.7 110.24 265.65 107.24 265.47 103.11 L265.47 103.11ZM286.25 95.01 L265.47 95.01 C265.53 94.11 265.71 93.09 266.01 91.95 C266.37 90.81 266.94 89.73 267.72 88.71 C268.56 87.69 269.64 86.85 270.96 86.19 C272.34 85.47 274.05 85.11 276.09 85.11 C279.21 85.11 281.51 85.95 283.01 87.63 C284.57 89.31 285.65 91.77 286.25 95.01 L286.25 95.01ZM173.77 76.74 L173.77 123.26 L186.54 123.26 L186.54 96.27 C186.54 93.99 186.87 92.16 187.53 90.78 C188.19 89.34 188.97 88.26 189.87 87.54 C190.83 86.76 191.79 86.25 192.75 86.01 C193.77 85.71 194.58 85.56 195.18 85.56 C197.22 85.56 198.75 85.92 199.77 86.64 C200.85 87.3 201.6 88.2 202.02 89.34 C202.5 90.48 202.77 91.74 202.83 93.12 C202.89 94.44 202.92 95.79 202.92 97.17 L202.92 123.26 L215.69 123.26 L215.69 97.35 C215.69 95.91 215.78 94.5 215.96 93.12 C216.2 91.68 216.62 90.42 217.22 89.34 C217.88 88.2 218.75 87.3 219.83 86.64 C220.97 85.92 222.44 85.56 224.24 85.56 C226.04 85.56 227.45 85.86 228.47 86.46 C229.55 87.06 230.36 87.87 230.9 88.89 C231.44 89.91 231.77 91.11 231.89 92.49 C232.01 93.87 232.07 95.34 232.07 96.9 L232.07 123.26 L244.84 123.26 L244.84 92.13 C244.84 89.13 244.42 86.58 243.58 84.48 C242.74 82.32 241.57 80.58 240.08 79.26 C238.58 77.94 236.78 76.98 234.68 76.39 C232.58 75.79 230.3 75.49 227.84 75.49 C224.6 75.49 221.78 76.27 219.38 77.82 C217.04 79.38 215.18 81.18 213.8 83.22 C212.54 80.34 210.69 78.33 208.23 77.19 C205.83 76.06 203.16 75.49 200.22 75.49 C197.16 75.49 194.43 76.15 192.03 77.46 C189.69 78.78 187.68 80.64 186 83.04 L185.82 83.04 L185.82 76.74 L173.77 76.74ZM132.27 103.11 L165.83 103.11 C166.07 99.51 165.77 96.06 164.93 92.76 C164.09 89.46 162.71 86.52 160.79 83.94 C158.93 81.36 156.53 79.32 153.59 77.82 C150.66 76.27 147.21 75.49 143.25 75.49 C139.71 75.49 136.47 76.12 133.53 77.37 C130.65 78.63 128.16 80.37 126.06 82.59 C123.96 84.75 122.34 87.33 121.2 90.33 C120.07 93.33 119.49 96.57 119.49 100.05 C119.49 103.65 120.03 106.95 121.11 109.94 C122.25 112.94 123.84 115.52 125.88 117.68 C127.92 119.84 130.41 121.52 133.35 122.72 C136.29 123.86 139.59 124.43 143.25 124.43 C148.53 124.43 153.02 123.23 156.74 120.83 C160.46 118.43 163.22 114.44 165.02 108.86 L153.77 108.86 C153.35 110.3 152.21 111.68 150.35 113 C148.5 114.26 146.28 114.89 143.7 114.89 C140.1 114.89 137.34 113.96 135.42 112.1 C133.5 110.24 132.45 107.24 132.27 103.11 L132.27 103.11ZM153.05 95.01 L132.27 95.01 C132.33 94.11 132.51 93.09 132.81 91.95 C133.17 90.81 133.74 89.73 134.52 88.71 C135.36 87.69 136.44 86.85 137.76 86.19 C139.14 85.47 140.85 85.11 142.89 85.11 C146.01 85.11 148.32 85.95 149.81 87.63 C151.37 89.31 152.45 91.77 153.05 95.01 L153.05 95.01ZM98.91 123.26 L111.68 123.26 L111.68 59.02 L98.91 59.02 L98.91 123.26ZM41.56 59.02 L41.56 123.26 L90.32 123.26 L90.32 111.38 L55.68 111.38 L55.68 95.64 L86.81 95.64 L86.81 84.66 L55.68 84.66 L55.68 70.9 L89.6 70.9 L89.6 59.02 L41.56 59.02Z"/><rect x="5" y="5" width="597" height="170" fill="none" stroke="#000" stroke-width="10"/></svg>