<svg xmlns="http://www.w3.org/2000/svg" width="566" height="233" fill="none" viewBox="0 0 566 233"><path stroke="#000" stroke-width="7.566" d="m66 85.139 36.174 21.042M66 85.139l36.174-20.57M66 85.14v41.848m36.174-20.806 34.293 19.949a3.78 3.78 0 0 1 1.881 3.27v33.095c0 2.918-3.163 4.737-5.685 3.27L66 126.987m36.174-20.806v77.12c0 2.918-3.163 4.737-5.685 3.27L67.88 169.93A3.78 3.78 0 0 1 66 166.66v-39.673m36.174-20.806 72.584-41.611m-72.584 0 34.31-19.51a3.78 3.78 0 0 1 3.731-.005l34.543 19.515m-72.584 0 70.695 40.528a3.78 3.78 0 0 0 3.774-.006l28.794-16.64c2.534-1.465 2.516-5.13-.032-6.57L174.758 64.57"/><path fill="#000" d="M298.365 99.5h-30.301v14.3h23.917v9.447h-23.917v22.982h-11.746V90.052h42.047zm21.444 47.58q-4.257 0-7.661-1.532t-5.447-4.852q-1.958-3.405-1.958-8.767v-28.258h11.661v25.449q0 4.937 2.043 6.895 2.043 1.872 5.873 1.872a10.5 10.5 0 0 0 3.489-.596 8.2 8.2 0 0 0 2.979-2.042q1.363-1.362 2.128-3.49.766-2.213.766-5.192v-22.896h11.661v42.558h-10.384l-.426-7.406q-2.127 4.256-5.873 6.299-3.659 1.958-8.851 1.958m54.828 0q-6.47 0-11.831-2.298-5.277-2.3-8.597-6.469l6.724-6.809q2.043 3.063 5.447 5.021t8.086 1.958q3.32 0 5.278-.936 2.042-1.022 2.042-3.149 0-1.362-.936-2.299-.937-1.022-3.745-1.617l-7.49-1.532q-7.405-1.531-10.554-4.596-3.065-3.15-3.065-8.086 0-3.49 2.043-6.554 2.128-3.064 6.299-4.937 4.17-1.957 10.384-1.957 6.383 0 11.065 2.043 4.766 1.957 7.49 5.873l-6.98 6.809q-1.873-2.98-4.936-4.511-2.98-1.618-6.299-1.618-2.383 0-4.085.511t-2.554 1.447q-.85.852-.851 2.213 0 1.362 1.192 2.383 1.191.937 4.341 1.617l8.681 1.788q6.299 1.276 9.022 4.341 2.724 2.979 2.724 7.235 0 4.085-2.213 7.319-2.127 3.15-6.383 5.022-4.171 1.788-10.299 1.788m47.774 0q-6.724 0-11.745-2.639-4.937-2.638-7.661-7.575-2.723-4.936-2.723-11.916t2.723-11.916q2.724-4.938 7.575-7.576 4.938-2.638 11.236-2.638 6.468 0 10.98 2.638 4.51 2.555 6.894 7.065 2.383 4.426 2.383 10.129 0 1.702-.085 3.234a32 32 0 0 1-.255 2.724h-33.961v-8.086h28.854l-5.618 2.043q0-5.362-2.468-8.257-2.384-2.894-6.809-2.894-3.235 0-5.618 1.533-2.298 1.531-3.49 4.596-1.191 2.979-1.191 7.575 0 4.51 1.276 7.49 1.363 2.894 3.745 4.341 2.47 1.447 5.873 1.447 3.745 0 6.044-1.447t3.574-4l9.278 3.574q-1.362 3.32-4.171 5.703-2.724 2.383-6.554 3.66-3.745 1.191-8.086 1.192m45.631 0q-5.277 0-9.448-2.639-4.086-2.638-6.469-7.575-2.298-4.937-2.298-11.831 0-7.065 2.469-12.001 2.468-5.022 6.638-7.576 4.257-2.638 9.533-2.638 5.618 0 9.278 3.234t4.766 8.341l-1.106 1.362V85.031h11.661v61.198h-10.47l-.766-12.938 1.447.681q-.596 4-2.723 6.979a14.74 14.74 0 0 1-5.363 4.511q-3.234 1.618-7.149 1.618m3.404-8.937q3.064 0 5.278-1.532 2.213-1.618 3.404-4.682 1.277-3.065 1.277-7.32 0-4.085-1.192-6.894-1.191-2.894-3.404-4.426t-5.192-1.532q-4.767 0-7.49 3.404-2.64 3.32-2.639 9.789 0 6.468 2.639 9.873 2.639 3.32 7.319 3.32"/></svg>