<svg xmlns="http://www.w3.org/2000/svg" width="80" height="48"><g fill-rule="evenodd"><path d="M37.027 20.775q0-.728.31-1.289.306-.56.814-.922a3.7 3.7 0 0 1 1.135-.55q.628-.186 1.268-.186.638 0 1.27.185.628.186 1.132.55.508.364.816.923.31.561.309 1.289v6.372q0 .743-.309 1.295a2.8 2.8 0 0 1-.816.915 3.7 3.7 0 0 1-1.133.552q-.63.184-1.27.184-.639 0-1.267-.184-.632-.185-1.135-.552a2.8 2.8 0 0 1-.815-.915q-.31-.552-.31-1.295zm2.024 6.375c0 .415.232.725.515.922.281.198.615.303 1 .303.383 0 .718-.105 1-.303.281-.197.442-.507.442-.922v-6.372c0-.417-.16-.725-.441-.922a1.73 1.73 0 0 0-1.001-.33 1.72 1.72 0 0 0-1 .33c-.283.197-.515.505-.515.922zm-5.672-9.335v5.175h-3.227v-5.175h-1.765V30.1h1.765v-5.177h3.227V30.1h1.899V17.815zm19.052 0h-7.005v1.807h2.589l-.03 10.478h1.862V19.622h2.584z"/><path d="M65.423 28.767H79.68l-8.524-9.599L62.67 9.57 54.181 0H11.539l8.487 9.57H5.738l8.488 9.598.065.065H.001l8.52 9.599 8.492 9.598L25.5 48h42.642l-8.491-9.57-.063-.094h14.29zM39.84 39.949c-9.52 0-17.238-7.14-17.238-15.948 0-8.81 7.718-15.951 17.238-15.951 9.522 0 17.24 7.14 17.24 15.951 0 8.807-7.718 15.948-17.24 15.948"/></g></svg>