<svg xmlns="http://www.w3.org/2000/svg" xml:space="preserve" id="Ebene_1" x="0" y="0" viewBox="0 0 326.5 135.6"><style>.st0{fill:CurrentColor}</style><path d="M112.1 42.9h6v5.2h-6zm.3 27.4V51.6h5.6v18.7zM129.8 48.8c.2-.4.6-.8 1-1s.9-.3 1.4-.3q.75 0 1.8.3v-4.3c-.5-.2-1-.3-1.5-.4s-1.1-.1-1.6-.1c-2.3 0-4.1.7-5.2 2-1.2 1.3-1.8 3.1-1.8 5.5v1.2h-3.5v4.2h3.5v14.5h5.6V55.8h3.9v-4.2h-3.9v-1q-.15-1.05.3-1.8M145.2 78.5c-2.9 0-5.5-.6-7.7-1.7l.8-4.1c1.1.6 2.2 1 3.4 1.3 1.1.3 2.2.4 3.4.4 1.6 0 2.8-.4 3.6-1.1s1.2-1.9 1.2-3.4v-4.3l.4.2c-.3.7-.7 1.3-1.4 2-.6.6-1.4 1.1-2.2 1.5-.9.4-1.8.6-2.8.6-1.6 0-3.1-.4-4.3-1.2-1.3-.8-2.2-1.9-2.9-3.3s-1.1-3-1.1-4.9.4-3.5 1.1-4.9 1.7-2.5 2.9-3.3c1.3-.8 2.7-1.2 4.3-1.2 1.5 0 2.9.4 4 1.1q1.8 1.05 2.4 3l-.4.3v-3.9h5.5v17.8c0 3-.9 5.3-2.6 6.8-1.7 1.6-4.3 2.3-7.6 2.3m.3-13c1.3 0 2.4-.4 3.2-1.3s1.2-2.1 1.2-3.7c0-1.5-.4-2.8-1.1-3.7-.8-.9-1.8-1.4-3.2-1.4s-2.5.4-3.2 1.3c-.8.9-1.2 2.1-1.2 3.7s.4 2.8 1.2 3.7c.6 1 1.7 1.4 3.1 1.4M159.6 42.9h6v5.2h-6zm.2 27.4V51.6h5.6v18.7z" class="st0"/><path d="m96.6 70.3-.2-48.7-33.8 7-48.9-15.3v20.2l48.9 15.3 26.5-6.2v29.6z" style="fill:CurrentColor"/><path d="M62.6 54.2 13.7 38.9v24.7l48.9 15.3 21.9-5.5V48.7z" style="fill:CurrentColor"/><path d="m96.6 70.3-.2-48.7-33.8 7v20.2l26.5-6.2v29.6z" style="fill:CurrentColor"/><path d="m62.6 78.9 21.9-5.5V48.7l-21.9 5.5z" style="fill:CurrentColor"/><path d="M89.1 85.6h1.5v12.8h-1.5zM98.1 89.2c-.8 0-1.4.2-2 .6-.5.2-.9.7-1.1 1.2l-.1-1.6h-1.4c.1.4.1.8.1 1.3v7.8H95v-5.2c0-.9.3-1.6.8-2.1s1.2-.8 2-.8c.7 0 1.2.2 1.6.6.3.4.5 1 .5 1.8v5.6h1.5v-5.7c0-2.3-1.1-3.5-3.3-3.5M108.2 93.5l-1.5-.4c-.5-.1-.8-.3-1.1-.5q-.3-.3-.3-.9c0-.4.2-.8.5-1 .4-.3.9-.4 1.5-.4.5 0 1 .1 1.4.3s.9.4 1.3.8l.5-1.1c-.4-.4-.9-.7-1.4-.9q-.9-.3-1.8-.3-1.05 0-1.8.3t-1.2.9c-.3.4-.4.9-.4 1.4q0 .9.6 1.5t1.8.9l1.5.4c.6.1.9.3 1.2.5.2.2.4.5.4.9s-.2.8-.5 1c-.4.2-.9.4-1.6.4-.6 0-1.2-.1-1.7-.3s-1-.4-1.5-.8l-.5 1.1q1.35 1.2 3.6 1.2c1.1 0 2-.2 2.6-.7s1-1.1 1-1.9c0-.6-.2-1.2-.6-1.6-.5-.3-1.1-.6-2-.8M113.4 95.7c0 1 .2 1.7.7 2.2s1.2.7 2 .7h.7c.2 0 .4-.1.6-.1v-1.2c-.2.1-.3.1-.5.1h-.5c-.3 0-.6-.1-.8-.2s-.4-.3-.6-.5c-.1-.3-.2-.6-.2-1.1v-4.9h2.6v-1.2h-2.6v-2.8l-1.5.5v2.3h-1.8v1.2h1.8v5zM119.1 85.5h1.8v1.7h-1.8zM119.2 89.4h1.5v9.1h-1.5zM124 95.7c0 1 .2 1.7.7 2.2s1.2.7 2 .7h.7c.2 0 .4-.1.6-.1v-1.2c-.2.1-.3.1-.5.1h-.5c-.3 0-.6-.1-.8-.2s-.4-.3-.6-.5c-.1-.3-.2-.6-.2-1.1v-4.9h2.6v-1.2h-2.6v-2.8l-1.5.5v2.3h-1.8v1.2h1.8v5zM137.4 98.4v-9.1H136v5.1c0 .9-.2 1.6-.7 2.1s-1.1.8-1.9.8q-1.05 0-1.5-.6c-.45-.6-.5-1-.5-1.8v-5.6h-1.5V95c0 1.2.3 2.1.8 2.7s1.4.9 2.4.9c.7 0 1.4-.2 2-.6.4-.3.8-.7 1-1.1v1.6h1.3zM144.1 98.5c.2 0 .4-.1.6-.1v-1.2c-.2.1-.3.1-.5.1h-.5c-.3 0-.6-.1-.8-.2s-.4-.3-.6-.5c-.1-.3-.2-.6-.2-1.1v-4.9h2.6v-1.2h-2.6v-2.8l-1.5.5v2.3h-1.8v1.2h1.8v5.1c0 1 .2 1.7.7 2.2s1.2.7 2 .7c.4 0 .6-.1.8-.1M152.3 89.7c-.6-.4-1.3-.5-2.1-.5s-1.6.2-2.2.6-1.1.9-1.5 1.7-.5 1.5-.5 2.5.2 1.8.5 2.5.9 1.2 1.6 1.6q1.05.6 2.4.6c.6 0 1.3-.1 1.9-.3q.9-.3 1.5-.9l-.5-1.1c-.4.4-.9.6-1.4.8q-.75.3-1.5.3c-1 0-1.8-.3-2.3-.9s-.8-1.5-.8-2.6h6.6v-.3c0-.9-.2-1.7-.5-2.4-.2-.7-.6-1.2-1.2-1.6m-4.1 1.5q.75-.9 2.1-.9c.8 0 1.5.3 1.9.8q.45.6.6 1.8h-5.3c.1-.7.3-1.2.7-1.7M161.5 98.4h1.5v-7.9h2.2v-1.2H163v-1.2c0-.5.1-.8.2-1.1s.3-.4.5-.5.5-.2.8-.2.6 0 .9.1v-1.2c-.2-.1-.4-.1-.6-.1h-.6c-.8 0-1.5.2-2 .7s-.7 1.2-.7 2.2v1.4h-1.8v1.2h1.8zM173 89.7c-.6-.4-1.4-.6-2.3-.6s-1.6.2-2.3.6c-.6.4-1.1.9-1.5 1.6s-.5 1.5-.5 2.5.2 1.8.5 2.5c.4.7.9 1.2 1.5 1.6s1.4.6 2.3.6 1.6-.2 2.3-.6c.6-.4 1.1-.9 1.5-1.6s.5-1.5.5-2.5c0-.9-.2-1.8-.5-2.5-.4-.6-.9-1.2-1.5-1.6m-.2 6.8q-.75.9-2.1.9t-2.1-.9c-.75-.9-.7-1.5-.7-2.6s.2-2 .7-2.6q.75-.9 2.1-.9c1.35 0 1.6.3 2.1.9s.7 1.5.7 2.6-.2 2-.7 2.6M177.3 91.9v6.5h1.5v-5.2c0-.5.1-.9.3-1.3s.5-.8.8-1.1.9-.4 1.5-.4c.4 0 .7 0 1 .1v-1.3c-.1 0-.2-.1-.4-.1h-.4c-.7 0-1.3.2-1.9.6-.4.3-.7.7-.9 1.3l-.1-1.7h-1.4c.1.4.1.8.1 1.3-.1.5-.1.9-.1 1.3M198.8 91.8h-4.5V93h3.2v3.9c-.4.1-.8.2-1.3.3-.6.1-1.2.2-1.8.2-1.5 0-2.7-.5-3.5-1.4s-1.2-2.2-1.2-4q0-2.55 1.2-3.9c.8-.9 1.9-1.4 3.3-1.4.7 0 1.4.1 2 .4.6.2 1.2.6 1.8 1.1l.6-1.1c-.6-.5-1.2-.9-2-1.2s-1.6-.4-2.5-.4c-1.2 0-2.3.3-3.2.8s-1.6 1.3-2.1 2.2c-.5 1-.7 2.2-.7 3.5 0 1.4.2 2.6.7 3.5.5 1 1.2 1.7 2.1 2.2s2 .8 3.3.8c.6 0 1.1 0 1.7-.1s1.1-.2 1.6-.3.9-.3 1.2-.5v-5.8zM203.2 98q1.05.6 2.4.6c.6 0 1.3-.1 1.9-.3q.9-.3 1.5-.9l-.5-1.1c-.4.4-.9.6-1.4.8q-.75.3-1.5.3c-1 0-1.8-.3-2.3-.9s-.8-1.5-.8-2.6h6.6v-.3c0-.9-.2-1.7-.5-2.4s-.7-1.2-1.3-1.5c-.6-.4-1.3-.5-2.1-.5s-1.6.2-2.2.6-1.1.9-1.5 1.7c-.4.7-.5 1.5-.5 2.5s.2 1.8.5 2.5c.5.6 1 1.1 1.7 1.5m.1-6.8q.75-.9 2.1-.9c.8 0 1.5.3 1.9.8q.45.6.6 1.8h-5.3c.2-.7.4-1.2.7-1.7M215.2 98.6c.9 0 1.6-.2 2.3-.6.6-.4 1.1-.9 1.5-1.6s.5-1.5.5-2.5c0-.9-.2-1.8-.5-2.5-.4-.7-.9-1.3-1.5-1.6-.6-.4-1.4-.6-2.3-.6s-1.6.2-2.3.6c-.6.4-1.1.9-1.5 1.6s-.5 1.5-.5 2.5.2 1.8.5 2.5c.4.7.9 1.2 1.5 1.6.7.4 1.4.6 2.3.6m-2.1-7.3q.75-.9 2.1-.9c1.35 0 1.6.3 2.1.9s.7 1.5.7 2.6-.2 2-.7 2.6q-.75.9-2.1.9t-2.1-.9c-.5-.6-.7-1.5-.7-2.6 0-1.2.2-2 .7-2.6M221.6 85.5h1.8v1.7h-1.8zM221.7 89.4h1.5v9.1h-1.5zM233.8 98.4v-5.7q0-3.6-3.3-3.6c-.8 0-1.4.2-2 .6-.5.3-.8.7-1.1 1.3l-.1-1.6h-1.4c.1.4.1.8.1 1.3v7.8h1.5v-5.2c0-.9.3-1.6.8-2.1s1.2-.8 2-.8c.7 0 1.2.2 1.6.6.3.4.5 1 .5 1.8v5.6zM239.7 85.1c-.8 0-1.5.2-2 .7S237 87 237 88v1.4h-1.8v1.2h1.8v7.9h1.5v-7.9h2.2v-1.2h-2.2v-1.2c0-.5.1-.8.2-1.1s.3-.4.5-.5.5-.2.8-.2.6 0 .9.1v-1.2c-.2-.1-.4-.1-.6-.1-.2-.1-.4-.1-.6-.1M244 98c.6.4 1.4.6 2.3.6s1.6-.2 2.3-.6c.6-.4 1.1-.9 1.5-1.6s.5-1.5.5-2.5c0-.9-.2-1.8-.5-2.5-.4-.7-.9-1.3-1.5-1.6-.6-.4-1.4-.6-2.3-.6s-1.6.2-2.3.6c-.6.4-1.1.9-1.5 1.6s-.5 1.5-.5 2.5.2 1.8.5 2.5c.4.7.9 1.2 1.5 1.6m.2-6.7q.75-.9 2.1-.9c1.35 0 1.6.3 2.1.9s.7 1.5.7 2.6-.2 2-.7 2.6q-.75.9-2.1.9t-2.1-.9c-.75-.9-.7-1.5-.7-2.6 0-1.2.2-2 .7-2.6M257 89.2c-.7 0-1.3.2-1.9.6-.4.3-.7.7-.9 1.3l-.1-1.7h-1.4c.1.4.1.8.1 1.3v7.8h1.5v-5.2c0-.5.1-.9.3-1.3s.5-.8.8-1.1.9-.4 1.5-.4c.4 0 .7 0 1 .1v-1.3c-.1 0-.2-.1-.4-.1zM269.4 89.2q-1.2 0-2.1.6c-.4.3-.7.7-.9 1.1-.2-.5-.4-.9-.7-1.1-.5-.4-1.2-.6-2-.6-.7 0-1.4.2-1.9.6-.4.3-.7.7-1 1.2l-.1-1.6h-1.4c.1.4.1.8.1 1.3v7.8h1.5v-5.2c0-.9.2-1.6.7-2.1.4-.5 1-.8 1.8-.8.6 0 1.1.2 1.4.6s.5 1 .5 1.8v5.6h1.5v-5.2c0-.9.2-1.6.7-2.1.4-.5 1-.8 1.8-.8.6 0 1.1.2 1.4.6s.5 1 .5 1.8v5.6h1.5v-5.7c0-1.2-.3-2.1-.8-2.7-.8-.4-1.5-.7-2.5-.7M281.7 90.9c-.2-.5-.5-.9-1-1.2q-.9-.6-2.1-.6t-2.1.6c-.6.4-1.1.9-1.4 1.7s-.5 1.5-.5 2.5c0 .9.2 1.8.5 2.5s.8 1.2 1.4 1.6q.9.6 2.1.6t2.1-.6c.4-.3.7-.7 1-1.2v1.6h1.4v-9.1h-1.4zm-.7 5.5q-.75.9-2.1.9c-1.35 0-1.6-.3-2.1-.9s-.7-1.5-.7-2.6.2-2 .7-2.6q.75-.9 2.1-.9c.9 0 1.6.3 2 .9.5.6.7 1.5.7 2.6.1 1.2-.1 2-.6 2.6M287.9 86.5l-1.5.5v2.3h-1.8v1.2h1.8v5.1c0 1 .2 1.7.7 2.2s1.2.7 2 .7h.7c.2 0 .4-.1.6-.1v-1.2c-.2.1-.3.1-.5.1h-.5c-.3 0-.6-.1-.8-.2s-.4-.3-.6-.5c-.1-.3-.2-.6-.2-1.1v-4.9h2.6v-1.2h-2.6v-2.9zM292.3 89.4h1.5v9.1h-1.5zM292.1 85.5h1.8v1.7h-1.8zM300.5 90.4c.5 0 .9.1 1.3.3s.9.4 1.3.8l.5-1.1c-.4-.4-.8-.7-1.4-.9q-.9-.3-1.8-.3c-.9 0-1.7.2-2.3.6-.7.4-1.2 1-1.5 1.7-.4.7-.5 1.5-.5 2.5 0 .9.2 1.8.5 2.5.4.7.9 1.2 1.5 1.6s1.4.6 2.3.6q.9 0 1.8-.3c.9-.3 1.1-.5 1.4-.9l-.5-1.1c-.4.3-.9.6-1.3.8s-.9.3-1.3.3c-.9 0-1.7-.3-2.2-.9s-.8-1.5-.8-2.6.3-2 .8-2.6 1.3-1 2.2-1M311.5 94.4c-.4-.4-1-.7-1.9-.9l-1.5-.4c-.5-.1-.8-.3-1.1-.5q-.3-.3-.3-.9c0-.4.2-.8.5-1 .4-.3.9-.4 1.5-.4.5 0 1 .1 1.4.3s.9.4 1.3.8l.5-1.1c-.4-.4-.9-.7-1.4-.9q-.9-.3-1.8-.3-1.05 0-1.8.3t-1.2.9c-.3.4-.4.9-.4 1.4q0 .9.6 1.5t1.8.9l1.5.4c.6.1.9.3 1.2.5.2.2.4.5.4.9s-.2.8-.5 1c-.4.2-.9.4-1.6.4-.6 0-1.2-.1-1.7-.3s-1-.4-1.5-.8l-.5 1.1q1.35 1.2 3.6 1.2c1.1 0 2-.2 2.6-.7s1-1.1 1-1.9c-.1-.5-.3-1.1-.7-1.5M97.7 114.5c0 1.2-.3 2.2-.9 2.8s-1.5 1-2.7 1q-1.8 0-2.7-.9c-.6-.6-.9-1.6-.9-2.8v-7.9H89v7.8c0 1.7.4 3 1.3 3.9s2.1 1.3 3.8 1.3 2.9-.4 3.8-1.3 1.3-2.2 1.3-3.9v-7.8h-1.5zM106.6 110.2c-.8 0-1.4.2-2 .6-.5.3-.8.7-1.1 1.3l-.1-1.6H102c.1.4.1.8.1 1.3v7.8h1.5v-5.2c0-.9.3-1.6.8-2.1s1.2-.8 2-.8c.7 0 1.2.2 1.6.6.3.4.5 1 .5 1.8v5.6h1.5v-5.7c-.1-2.4-1.2-3.6-3.4-3.6M112.5 106.5h1.8v1.7h-1.8zM112.6 110.4h1.5v9.1h-1.5zM120.3 117.9l-3-7.5h-1.6l3.9 9h1.4l3.9-9h-1.5zM132.2 110.7c-.6-.4-1.3-.5-2.1-.5s-1.6.2-2.2.6-1.1.9-1.5 1.7c-.4.7-.5 1.5-.5 2.5s.2 1.8.5 2.5c.4.7.9 1.2 1.6 1.6q1.05.6 2.4.6c.6 0 1.3-.1 1.9-.3q.9-.3 1.5-.9l-.5-1.1c-.4.4-.9.6-1.4.8q-.75.3-1.5.3c-1 0-1.8-.3-2.3-.9s-.8-1.5-.8-2.6h6.6v-.3c0-.9-.2-1.7-.5-2.4-.2-.7-.7-1.2-1.2-1.6m-4.2 1.5q.75-.9 2.1-.9c.8 0 1.5.3 1.9.8q.45.6.6 1.8h-5.3c.2-.7.4-1.2.7-1.7M140.4 110.2c-.7 0-1.3.2-1.9.6-.4.3-.7.7-.9 1.3l-.1-1.7H136c.1.4.1.8.1 1.3v7.8h1.5v-5.2c0-.5.1-.9.3-1.3s.5-.8.8-1.1.9-.4 1.5-.4c.4 0 .7 0 1 .1v-1.3c-.1 0-.2-.1-.4-.1zM146.7 114.5l-1.5-.4c-.5-.1-.8-.3-1.1-.5q-.3-.3-.3-.9c0-.4.2-.8.5-1 .4-.3.9-.4 1.5-.4.5 0 1 .1 1.4.3s.9.4 1.3.8l.5-1.1c-.4-.4-.9-.7-1.4-.9q-.9-.3-1.8-.3-1.05 0-1.8.3t-1.2.9c-.3.4-.4.9-.4 1.4q0 .9.6 1.5t1.8.9l1.5.4c.6.1.9.3 1.2.5s.4.5.4.9-.2.8-.5 1c-.4.2-.9.4-1.6.4-.6 0-1.2-.1-1.7-.3s-1-.4-1.5-.8l-.5 1.1q1.35 1.2 3.6 1.2c1.1 0 2-.2 2.6-.7s1-1.1 1-1.9c0-.6-.2-1.2-.6-1.6s-1.1-.6-2-.8M151.5 110.4h1.5v9.1h-1.5zM151.4 106.5h1.8v1.7h-1.8zM157.7 107.5l-1.5.5v2.3h-1.8v1.2h1.8v5.1c0 1 .2 1.7.7 2.2s1.2.7 2 .7h.7c.2 0 .4-.1.6-.1v-1.2c-.2.1-.3.1-.5.1h-.5c-.3 0-.6-.1-.8-.2s-.4-.3-.6-.5c-.1-.3-.2-.6-.2-1.1v-4.9h2.6v-1.2h-2.6v-2.9zM165.6 117.8l-3.1-7.5H161l3.8 9-.4.8c-.2.5-.4.8-.7 1.1s-.6.5-1 .7-.8.3-1.4.5l.3 1.1c.6-.1 1.2-.3 1.7-.5s1-.6 1.4-1 .8-1 1.1-1.8l4.2-9.9h-1.5zM182.5 110.7c-.6-.4-1.4-.6-2.3-.6s-1.6.2-2.3.6c-.6.4-1.1.9-1.5 1.6s-.5 1.5-.5 2.5.2 1.8.5 2.5c.4.7.9 1.2 1.5 1.6s1.4.6 2.3.6 1.6-.2 2.3-.6c.6-.4 1.1-.9 1.5-1.6s.5-1.5.5-2.5c0-.9-.2-1.8-.5-2.5-.4-.6-.9-1.2-1.5-1.6m-.2 6.8q-.75.9-2.1.9t-2.1-.9c-.5-.6-.7-1.5-.7-2.6s.2-2 .7-2.6q.75-.9 2.1-.9c1.35 0 1.6.3 2.1.9s.7 1.5.7 2.6-.3 2-.7 2.6M189.9 106.1c-.8 0-1.5.2-2 .7s-.7 1.2-.7 2.2v1.4h-1.8v1.2h1.8v7.9h1.5v-7.9h2.2v-1.2h-2.2v-1.2c0-.5.1-.8.2-1.1s.3-.4.5-.5.5-.2.8-.2.6 0 .9.1v-1.2c-.2-.1-.4-.1-.6-.1-.2-.1-.4-.1-.6-.1M203.8 117.7l-4.9-11.1h-1.2v12.8h1.3V110l4.2 9.4h1.1l4.1-9.5v9.5h1.4v-12.8h-1.2zM217.3 106.6h1.6v1.5h-1.6zM218.9 115.5c0 .9-.2 1.6-.7 2.1s-1.1.8-1.9.8q-1.05 0-1.5-.6c-.45-.6-.5-1-.5-1.8v-5.6h-1.5v5.6c0 1.2.3 2.1.8 2.7s1.4.9 2.4.9c.7 0 1.4-.2 2-.6.4-.3.8-.7 1-1.1v1.6h1.4v-9.1h-1.5zM214.2 106.6h1.6v1.5h-1.6zM227.7 110.2c-.8 0-1.4.2-2 .6-.5.3-.8.7-1.1 1.3l-.1-1.6H223c.1.4.1.8.1 1.3v7.8h1.5v-5.2c0-.9.3-1.6.8-2.1s1.2-.8 2-.8c.7 0 1.2.2 1.6.6.3.4.5 1 .5 1.8v5.6h1.5v-5.7c-.1-2.4-1.1-3.6-3.3-3.6M237.8 114.5l-1.5-.4c-.5-.1-.8-.3-1.1-.5q-.3-.3-.3-.9c0-.4.2-.8.5-1 .4-.3.9-.4 1.5-.4.5 0 1 .1 1.4.3s.9.4 1.3.8l.5-1.1c-.4-.4-.9-.7-1.4-.9q-.9-.3-1.8-.3-1.05 0-1.8.3t-1.2.9c-.3.4-.4.9-.4 1.4q0 .9.6 1.5t1.8.9l1.5.4c.6.1.9.3 1.2.5.2.2.4.5.4.9s-.2.8-.5 1c-.4.2-.9.4-1.6.4-.6 0-1.2-.1-1.7-.3s-1-.4-1.5-.8l-.5 1.1q1.35 1.2 3.6 1.2c1.1 0 2-.2 2.6-.7s1-1.1 1-1.9c0-.6-.2-1.2-.6-1.6-.5-.3-1.1-.6-2-.8M244.5 107.5l-1.5.5v2.3h-1.8v1.2h1.8v5.1c0 1 .2 1.7.7 2.2s1.2.7 2 .7h.7c.2 0 .4-.1.6-.1v-1.2c-.2.1-.3.1-.5.1h-.5c-.3 0-.6-.1-.8-.2s-.4-.3-.6-.5c-.1-.3-.2-.6-.2-1.1v-4.9h2.6v-1.2h-2.6v-2.9zM254.6 110.7c-.6-.4-1.3-.5-2.1-.5s-1.6.2-2.2.6-1.1.9-1.5 1.7-.5 1.5-.5 2.5.2 1.8.5 2.5.9 1.2 1.6 1.6q1.05.6 2.4.6c.6 0 1.3-.1 1.9-.3q.9-.3 1.5-.9l-.5-1.1c-.4.4-.9.6-1.4.8q-.75.3-1.5.3c-1 0-1.8-.3-2.3-.9s-.8-1.5-.8-2.6h6.6v-.3c0-.9-.2-1.7-.5-2.4-.2-.7-.6-1.2-1.2-1.6m-4.1 1.5q.75-.9 2.1-.9c.8 0 1.5.3 1.9.8q.45.6.6 1.8h-5.3c.1-.7.4-1.2.7-1.7M262.8 110.2c-.7 0-1.3.2-1.9.6-.4.3-.7.7-.9 1.3l-.1-1.7h-1.4c.1.4.1.8.1 1.3v7.8h1.5v-5.2c0-.5.1-.9.3-1.3s.5-.8.8-1.1.9-.4 1.5-.4c.4 0 .7 0 1 .1v-1.3c-.1 0-.2-.1-.4-.1z" class="st0"/></svg>