<svg xmlns="http://www.w3.org/2000/svg" width="198" height="61" viewBox="0 0 198 61"><title>Untitled 4</title><g fill="#000" fill-rule="evenodd"><path fill-rule="nonzero" d="M78.787 17.612v9.08c0 2.202-1.788 3.99-3.956 3.99s-3.99-1.788-3.99-3.99v-9.08c0-2.166 1.788-3.956 3.99-3.956a3.956 3.956 0 0 1 3.956 3.956m-2.202 0c0-.962-.792-1.754-1.754-1.754s-1.788.79-1.788 1.754v9.08c0 .999.792 1.789 1.788 1.789s1.754-.792 1.754-1.788zM89.55 14.24v10.696a4.13 4.13 0 0 1-.653 2.202l-1.857 3.267a.55.55 0 0 1-.482.275h-1.926a.55.55 0 0 1-.481-.275l-1.857-3.267a4.13 4.13 0 0 1-.654-2.202V14.24c0-.309.242-.55.55-.55h1.102c.308 0 .55.241.55.55v10.696c0 .206.034.378.103.55l1.651 2.959 1.685-2.958c.034-.172.07-.345.07-.55V14.24c0-.309.275-.55.55-.55h1.1c.31 0 .551.241.551.55zM94.641 15.858v5.194h2.992c.309 0 .55.241.55.55v1.1c0 .31-.241.551-.55.551H94.64v5.228h2.992c.309 0 .55.241.55.55v1.1c0 .31-.241.551-.55.551H93.54c-.62 0-1.1-.516-1.1-1.1V14.756c0-.62.48-1.1 1.1-1.1h4.093c.309 0 .55.24.55.55v1.1c0 .31-.241.551-.55.551zM108.776 19.264c0 1.134-.447 2.166-1.204 2.889a3.9 3.9 0 0 1 1.204 2.855v5.124c0 .275-.241.55-.55.55h-1.101a.566.566 0 0 1-.55-.55v-5.124c0-.963-.792-1.755-1.755-1.755h-1.754v6.879c0 .275-.275.55-.55.55h-1.101a.567.567 0 0 1-.551-.55V14.757c0-.62.481-1.1 1.101-1.1h2.855a3.956 3.956 0 0 1 3.956 3.955zm-2.201-1.652c0-.962-.792-1.754-1.755-1.754h-1.754v5.194h1.754c.963 0 1.755-.79 1.755-1.788zM116.653 14.207v1.1c0 .31-.242.551-.551.551h-1.548v14.274c0 .275-.242.55-.55.55h-1.101a.567.567 0 0 1-.551-.55V15.858h-1.548a.545.545 0 0 1-.551-.55v-1.101c0-.31.242-.55.551-.55h5.296c.309 0 .551.24.551.55zM127.107 14.207V26.69c0 2.201-1.788 3.99-3.956 3.99s-3.989-1.789-3.989-3.99V14.207c0-.31.275-.55.55-.55h1.101c.309 0 .55.24.55.55V26.69c0 .998.792 1.788 1.788 1.788s1.755-.792 1.755-1.788V14.207c0-.31.241-.55.55-.55h1.101c.309 0 .55.24.55.55M137.698 19.264c0 1.134-.447 2.166-1.203 2.889a3.9 3.9 0 0 1 1.203 2.855v5.124c0 .275-.241.55-.55.55h-1.101a.566.566 0 0 1-.55-.55v-5.124c0-.963-.792-1.755-1.755-1.755h-1.754v6.879c0 .275-.275.55-.55.55h-1.101a.567.567 0 0 1-.551-.55V14.757c0-.62.481-1.1 1.101-1.1h2.855a3.956 3.956 0 0 1 3.956 3.955zm-2.201-1.652c0-.962-.792-1.754-1.755-1.754h-1.754v5.194h1.754c.963 0 1.755-.79 1.755-1.788zM142.755 15.858v5.194h2.992c.309 0 .551.241.551.55v1.1c0 .31-.242.551-.551.551h-2.992v5.228h2.992c.309 0 .551.241.551.55v1.1c0 .31-.242.551-.551.551h-4.092c-.62 0-1.101-.516-1.101-1.1V14.756c0-.62.481-1.1 1.101-1.1h4.092c.309 0 .551.24.551.55v1.1c0 .31-.242.551-.551.551zM166.706 17.398v12.52c0 .275-.242.55-.551.55h-1.101a.567.567 0 0 1-.55-.55v-12.52c0-.962-.792-1.754-1.788-1.754a1.74 1.74 0 0 0-1.754 1.754v12.52c0 .275-.242.55-.551.55h-1.101a.567.567 0 0 1-.55-.55v-12.52c0-.962-.792-1.754-1.754-1.754-.963 0-1.788.79-1.788 1.754v12.52c0 .275-.242.55-.551.55h-1.101c-.275 0-.55-.275-.55-.55v-12.52c0-2.166 1.788-3.956 3.99-3.956a3.98 3.98 0 0 1 2.855 1.238 3.98 3.98 0 0 1 2.855-1.238c2.202 0 3.99 1.788 3.99 3.956M177.505 17.432v12.484c0 .309-.242.55-.551.55h-1.101a.545.545 0 0 1-.55-.55v-6.845h-3.542v6.845c0 .309-.242.55-.551.55h-1.101a.545.545 0 0 1-.55-.55V17.432c0-2.166 1.788-3.956 3.99-3.956a3.956 3.956 0 0 1 3.956 3.956m-2.202 0c0-.962-.792-1.754-1.754-1.754-.963 0-1.788.79-1.788 1.754v3.44h3.542zM188.304 17.398v1.652c0 2.202-1.788 3.99-3.956 3.99h-1.788v6.878c0 .275-.242.55-.551.55h-1.101c-.275 0-.55-.275-.55-.55V13.995c0-.31.275-.55.55-.55h3.44c2.166 0 3.956 1.787 3.956 3.955zm-2.202 0c0-.962-.792-1.754-1.754-1.754h-1.788v5.194h1.788c.962 0 1.754-.79 1.754-1.788zM195.8 18.569V17.4c0-.962-.79-1.754-1.754-1.754a1.76 1.76 0 0 0-1.754 1.754q0 .448.103.585l4.779 6.328q.826 1.101.826 2.201c0 2.167-1.788 3.957-3.956 3.957s-3.956-1.788-3.956-3.957v-1.17c0-.309.241-.55.55-.55h1.101c.309 0 .551.241.551.55v1.17c0 .963.792 1.755 1.754 1.755s1.754-.792 1.754-1.755q0-.447-.103-.584l-4.782-6.328q-.825-1.101-.825-2.202c0-2.166 1.788-3.956 3.956-3.956S198 15.232 198 17.4v1.169c0 .309-.242.55-.55.55h-1.101a.545.545 0 0 1-.551-.55zM71.873 46.243v-8.619h5.647v.957h-4.574v2.778h4.483v.956h-4.483v3.928zM80.298 41.94c0-2.546 1.73-4.456 4.277-4.456 2.546 0 4.29 1.912 4.29 4.457s-1.744 4.457-4.29 4.457-4.277-1.913-4.277-4.457m7.455 0c0-2.015-1.254-3.502-3.178-3.502-1.925 0-3.166 1.485-3.166 3.503s1.227 3.502 3.166 3.502 3.178-1.498 3.178-3.502M92.188 42.897v-5.273h1.085v5.245c0 1.577.84 2.572 2.43 2.572s2.44-.994 2.44-2.572v-5.245h1.086v5.26c0 2.144-1.188 3.514-3.529 3.514-2.34 0-3.514-1.382-3.514-3.503zM109 46.243l-5.027-6.874v6.874H102.9v-8.619h1.099l4.962 6.732v-6.732h1.073v8.62zM113.705 46.243v-8.619h2.946c2.687 0 4.419 1.873 4.419 4.317s-1.73 4.302-4.419 4.302zm6.255-4.302c0-1.861-1.177-3.36-3.309-3.36h-1.873v6.706h1.873c2.093 0 3.309-1.499 3.309-3.346M130.077 46.243l-.762-1.924h-4.291l-.762 1.924h-1.227l3.474-8.619h1.331l3.463 8.62h-1.228zm-2.906-7.52-1.822 4.651h3.657zM135.35 46.243v-7.662h-2.726v-.957h6.538v.957h-2.739v7.662zM142.239 46.243v-8.619h1.073v8.62zM146.632 41.94c0-2.546 1.731-4.456 4.277-4.456s4.291 1.912 4.291 4.457-1.744 4.457-4.291 4.457c-2.546 0-4.277-1.913-4.277-4.457m7.455 0c0-2.015-1.253-3.502-3.178-3.502-1.924 0-3.166 1.485-3.166 3.503s1.228 3.502 3.166 3.502c1.939 0 3.178-1.498 3.178-3.502M164.621 46.243l-5.027-6.874v6.874h-1.074v-8.619h1.099l4.962 6.732v-6.732h1.073v8.62zM54.112 44.25l1.942.992a.75.75 0 0 0-.073.348c0 .317.18.59.432.729l-2.66 1.213a.824.824 0 1 0-1.552-.38c0 .39.276.717.634.802l-2.818 1.287a.49.49 0 0 0-.402-.222.49.49 0 0 0-.485.486c0 .041.01.085.022.126l-12.738 5.804a.833.833 0 0 0-.823-.739.824.824 0 0 0-.824.824c0 .212.085.412.222.558l-3.398 1.55-5.952-3.175a.824.824 0 0 0-.592-1.394.806.806 0 0 0-.802.653l-5.762-3.09a.826.826 0 0 0 .793-.825.823.823 0 1 0-1.647 0q-.002.24.126.432l-3.851-2.069a.5.5 0 0 0 .136-.339.49.49 0 0 0-.485-.485.49.49 0 0 0-.475.39l-4.126-2.215a.82.82 0 0 0 .421-.717.824.824 0 0 0-1.647 0v.063l-1.972-1.055 2.006-.865c.073.18.243.295.453.295a.49.49 0 0 0 .485-.485c0-.074-.022-.137-.041-.2l.19-.085-2.691-1.446-5.926 2.517L31.476 60.3l31.33-14.275-5.93-3.04-2.764 1.266z"/><path fill-rule="nonzero" d="M40.373 51.708a.823.823 0 1 1-1.647.001.823.823 0 0 1 1.647 0M46.05 50.338a.823.823 0 1 1-1.647.001.823.823 0 0 1 1.646-.001M49.605 47.33a.823.823 0 1 1-1.646.002.823.823 0 0 1 1.646-.002M30.506 54.706a.823.823 0 1 1-1.646.001.823.823 0 0 1 1.646-.001M12.957 45.198a.83.83 0 0 0 .58-.232l-1.392-.748c-.01.053-.01.105-.01.158 0 .454.369.822.824.822zM23.014 50.95c.338 0 .633-.2.76-.495l-1.455-.78a.8.8 0 0 0-.127.443c0 .465.368.834.824.834zM15.226 46.972a.824.824 0 0 0 1.648 0 1 1 0 0 0-.032-.244l-1.033-.548a.81.81 0 0 0-.58.792zM57.086 36.019 54.944 37l-.634.285-.465.212.865 2.532-2.089.95-.865-2.532-1.097.495.865 2.532-1.825.834-.866-2.532-1.097.495.866 2.532-2.09.95-.865-2.532-1.097.495.866 2.532-2.164.982-.866-2.532-1.097.495.866 2.532-1.826.834-.865-2.532-1.097.495.865 2.532-2.089.95-.865-2.532-1.097.495.865 2.533-1.867.843-.865-2.532-1.097.495.865 2.532-1.52.697-.527-.285-1.065-3.133-1.55-.833 1.064 3.134-2.469-1.299-1.065-3.134-1.55-.834 1.065 3.135-2.586-1.392-1.055-3.125-1.55-.833 1.065 3.134-2.438-1.309-1.065-3.134-1.55-.834 1.065 3.135-2.586-1.392-1.065-3.134-1.55-.834 1.065 3.134-2.501-1.34-1.077-3.135-1.265-.675-.286-.158-2.405-1.287-5.45 2.354 31.245 16.769 31.33-14.276-5.718-2.934zm-48.92-.369.982 2.891-3.42-1.835zm47.04 2.09 2.133 1.096-1.52.697zM37.418 53.239c0 .647-.97.647-.97 0 0-.648.97-.648.97 0M33.219 55.676c0 .648-.97.648-.97 0 0-.647.97-.647.97 0M21.2 50.611c0 .648-.97.648-.97 0 0-.647.97-.647.97 0M24.893 51.708c0 .648-.97.648-.97 0 0-.647.97-.647.97 0M11.458 45.493c0 .647-.97.647-.97 0 0-.648.97-.648.97 0M43.063 51.583c0 .648-.97.648-.97 0 0-.647.97-.647.97 0M47.031 48.342c0 .648-.97.648-.97 0 0-.647.97-.647.97 0M27.837 53.049c0 .647-.97.647-.97 0 0-.648.97-.648.97 0"/><path d="M38.369 3.202a16.29 16.29 0 0 1 9.95 15.02c0 4.158-1.553 7.946-4.11 10.823-.33-.628-.74-1.846-.173-3.51.663-1.947-.478-4.436-1.838-5.465-.772-.587-1.99.142-2.714.265-1.487.26-2.398-.456-3.169-2.539-1.277-3.447 1.226-5.34 2.668-5.971 1.437-.634 2.788-1.616 3.704-1.159.614.303.735 1.024.943 1.194.586.482 1.243.743 1.93.159.93-.794-1.64-3.281-3.174-3.154-1.736.14-1.857.918-2.782 1.485-.93.568-2.487.598-2.298-.886.231-1.825 2.437-.174 1.839-2.275-.6-1.68.814-.265 1.412-1.104s-.527-1.414-1.159-.773c-.627.644-1.43.004-1.146-1.544.065-.354.09-.45.115-.568zm-12.423-.107c.129.542.457 1.675.974 2.055.69.505 1.034 1.515.173 1.91-.864.393-1.194.603-.634.84.558.24.145 1.335-.675 1.054-.82-.282-1.812-.701-1.883.182-.072.885-.668 1.907-1.115 2.412-.447.506-.885.693-.729 1.378.159.689-.279 1.223-.544.633s-1.335-.645-2.014.012c0 0-1.869 2.105-.89 2.305 1.213.251 2.615.336 2.987 1.657.246.857.804 1.57 1.927 1.093 1.12-.477 2.502-.574 3.601.537s1.864-.18 3.028 2.403c1.22 1.628 4.32-1.08 2.625 3.95-1.055 3.135-2.28 1.587-2.558 2.93-.455 2.197-3.784 5.052-3.784 5.052l-2.48-1.148s1.136-5.006 0-5.919c-1.141-.915-2.383-3.635-2.076-4.904.303-1.271 1.018-1.687-.651-2.6-1.667-.913-1.363-1.786-2.624-2.083-1.023-.245-2.346-.004-2.827.097q.061-.803.204-1.586l.645-2.487a16.31 16.31 0 0 1 9.318-9.771zM32.023 0C21.968 0 13.799 8.172 13.799 18.222s8.171 18.224 18.224 18.224c10.052 0 18.222-8.171 18.222-18.224C50.245 8.17 42.073 0 32.023 0"/><path fill-rule="nonzero" d="M49.093 25.627q-.1.242-.206.482l-.072.156q-.35.769-.766 1.499l9.029 4.362-25.738 11.68L5.508 29.94l9.354-4.12-.018-.044a18 18 0 0 1-.261-.661q-.062-.163-.119-.33c-.038-.104-.071-.209-.107-.314a19 19 0 0 1-.293-.96L0 29.708l7.08 3.8 2.691 1.445 1.794.97 1.55.834 2.587 1.392 1.55.834 2.437 1.308 1.55.834 2.587 1.392 1.55.833 2.48 1.331 1.551.834 1.836.982.59-.275 1.097-.495 1.857-.844 1.097-.495 2.089-.95 1.097-.495 1.825-.834 1.097-.495 2.164-.982 1.097-.495 2.09-.95 1.096-.495 1.826-.834 1.097-.495 1.582-.717.507-.232 1.097-.495 1.172-.538 6.849-3.124-13.482-6.626z"/></g></svg>