<svg xmlns="http://www.w3.org/2000/svg" xml:space="preserve" id="Layer_1" x="0" y="0" viewBox="0 0 216 103.7"><style>.st1{fill:#000}</style><path d="M203 63c6.7 0 12.1-5.5 12.1-12.3s-5.4-12.3-12.1-12.3-12.1 5.5-12.1 12.3S196.3 63 203 63" style="fill:#000"/><path d="M203 32c6.7 0 12.1-5.5 12.1-12.3S209.7 7.4 203 7.4s-12.1 5.5-12.1 12.3S196.3 32 203 32" class="st1"/><path d="M.3 0H48v11.6H13.1v17.7h30.2v10.9H13.1v30.5H.3zm52.3 0h11.1l24 33v-.1L111.8 0h11.1v70.7h-12.7V23.9L89.9 49.6h-4.4L65.3 23.8v46.9H52.6zm75.8 0H176v11.6h-34.9v17.7h30.2v10.9h-30.2v18.9H176v11.6h-47.7z"/><path d="M103.9 99.9c3.5 0 6.3-2.9 6.3-6.4s-2.8-6.4-6.3-6.4-6.3 2.9-6.3 6.4c0 3.6 2.9 6.4 6.3 6.4" class="st1"/><path d="M176 93.3c0-1.1-.2-2.1-.7-3.1-.5-.9-1.1-1.7-2-2.2-.9-.6-2-.9-3-.8-1.2 0-2.2.3-3.1.9s-1.7 1.3-2.2 2.3-.8 2.1-.8 3.2.3 2.2.8 3.2 1.3 1.7 2.2 2.3 2 .9 3.1.9c.9 0 1.8-.2 2.6-.6s1.4-.9 1.9-1.5.8-1.2 1-1.9l-2.8.1c-.3.6-.9 1-1.6 1.2-.3.1-.8.2-1.2.2-.6 0-1.2-.2-1.7-.5s-.9-.8-1.2-1.3c-.2-.4-.3-.8-.4-1.3h9.1zm-9-1.2c.1-.3.2-.5.3-.7.3-.6.7-1 1.2-1.3s1.1-.4 1.7-.4q.75 0 1.5.3c.5.2.8.5 1.1.9s.5.8.5 1.2zm-18 7.7c-1 0-2-.3-2.8-.9s-1.5-1.4-2-2.3c-.5-1-.7-2-.7-3.2s.2-2.2.7-3.2 1.2-1.7 2-2.3 1.8-.9 2.8-.9q.9 0 1.8.3c.5.2 1.2.6 1.6.9.4.4.8.8.9 1.5v-2.4h2.6v12h-2.6v-2.1c-.3.6-.5 1-1 1.4s-.9.6-1.5.8c-.6.3-1.2.4-1.8.4m.7-2.6c.6 0 1.2-.2 1.7-.5s.9-.8 1.2-1.3c.3-.6.5-1.2.5-1.9s-.1-1.3-.5-1.9c-.3-.6-.7-1-1.3-1.3-.5-.3-1.1-.5-1.7-.5s-1.2.2-1.7.5-1 .8-1.3 1.3c-.3.6-.5 1.2-.5 2 0 .7.2 1.4.5 2s.7 1 1.3 1.3c.6.1 1.1.3 1.8.3m7.3-9.7h2.7v2.2c.2-.4.4-.8.7-1.2.6-.7 1.5-1 2.4-1h1.3v2.4H163c-.6 0-1.2.2-1.7.5s-.9.8-1.1 1.4c-.3.6-.4 1.3-.4 2.2v5.6H157zm-34.3 2.4h2.4v-2.4h-2.4v-4.6l-2.8 1.8v2.8h-4.5v-1.7c0-.2 0-.4.1-.4.1-.1.3-.1.5-.1h1.8V83h-2.3c-.9 0-1.6.2-2.1.7-.5.4-.7 1.1-.7 1.9v2h-2.4V90h2.4v9.6h2.7V90h4.5v5c0 1.2.1 2.2.5 2.8.3.6.8 1.2 1.4 1.5.6.2 1.2.2 2 .2h1.3v-2.4h-.8c-.3 0-.6 0-.9-.1s-.5-.4-.6-.6c-.2-.3-.1-.7-.1-1.3zm3.3-2.4h3l2.3 7.6.2.7.2-.7 2.2-7.6h2l2.2 7.5.2.8.3-.8 2.3-7.5h2.9l-4 12h-2.6l-2.4-7.7-2.5 7.7H130zM50.9 99.9c-1 0-2-.3-2.8-.9-.9-.6-1.5-1.4-2-2.3-.5-1-.7-2-.7-3.2s.2-2.2.7-3.2 1.2-1.7 2-2.3 1.8-.9 2.8-.9q.9 0 1.8.3c.5.2 1.2.6 1.6.9.4.4.8.8.9 1.5v-2.4h2.6v12h-2.6v-2.1c-.3.6-.5 1-1 1.4s-.9.6-1.4.8c-.7.3-1.3.4-1.9.4m.7-2.6c.6 0 1.2-.2 1.7-.5s.9-.8 1.2-1.4.5-1.2.5-1.9-.2-1.3-.5-1.9-.7-1-1.3-1.4c-.5-.3-1.1-.5-1.7-.5s-1.2.2-1.7.5-1 .8-1.3 1.3c-.3.6-.5 1.2-.5 2 0 .7.2 1.4.5 2s.7 1 1.3 1.3c.5.4 1.2.5 1.8.5m26.6-3.9c0-1.1-.2-2.1-.7-3.1-.5-.9-1.1-1.7-2-2.2-.9-.6-2-.9-3-.8-1.2 0-2.2.3-3.1.9s-1.7 1.3-2.2 2.3-.8 2.1-.8 3.2.3 2.2.8 3.2 1.3 1.7 2.2 2.3 2 .9 3.1.9c.9 0 1.8-.2 2.6-.6s1.4-.9 1.9-1.5.8-1.2 1-1.9l-3-.1c-.3.6-.9 1-1.6 1.2-.4.1-.8.2-1.2.2-.6 0-1.2-.2-1.7-.5s-.9-.8-1.2-1.3c-.2-.4-.3-.8-.4-1.3H78c.2-.3.2-.7.2-.9m-9.1-1.3c.1-.3.2-.5.3-.7.3-.5.7-1 1.2-1.3s1.1-.4 1.7-.4q.75 0 1.5.3c.5.2.8.5 1.1.9s.5.8.5 1.2zM63.8 83c-.9 0-1.6.2-2.1.7-.5.4-.7 1.1-.7 1.9v2h-2.4V90H61v9.6h2.7V90h2.4v-2.4h-2.4v-1.7c0-.2 0-.4.1-.4.1-.1.3-.1.5-.1h1.8v-2.3c0-.1-2.3-.1-2.3-.1M38.2 99.9c-1.4 0-2.6-.2-3.5-.7s-1.6-1.1-2.1-1.9c-.4-.8-.7-1.6-.7-2.5h2.9v.4c.1.4.2.8.5 1.2s.7.6 1.2.8 1 .3 1.7.3c.8 0 1.4-.1 1.9-.3s.9-.4 1.2-.8.4-.8.4-1.3c0-.4-.1-.8-.4-1.2-.3-.3-.8-.6-1.2-.8-.6-.2-1.3-.4-2-.5-1-.2-1.9-.5-2.9-.8q-1.2-.45-2.1-1.5c-.6-.6-.9-1.5-.9-2.5 0-.9.2-1.7.6-2.3.4-.7 1.1-1.2 1.9-1.6q1.35-.6 3.3-.6c1.3 0 2.3.2 3.2.6s1.5.9 2 1.7c.4.7.7 1.5.7 2.5H41c0-.4-.1-.8-.3-1.1-.3-.4-.6-.6-1-.8-.5-.2-1-.3-1.7-.3q-1.05 0-1.8.3c-.4.2-.8.4-.9.7-.2.3-.3.7-.3 1 0 .4.1.8.4 1.1s.7.5 1.3.7 1.3.4 2.2.5c1.1.2 2 .5 2.8.8s1.4.9 2 1.5c.5.7.8 1.5.8 2.5s-.3 1.9-.8 2.6-1.3 1.3-2.2 1.6c-.8.5-2 .7-3.3.7m52.4 0c-1.4 0-2.6-.2-3.5-.7s-1.6-1.1-2.1-1.9-.7-1.6-.7-2.5h2.9v.4c.1.4.2.8.5 1.2s.7.6 1.2.8 1 .3 1.7.3c.8 0 1.4-.1 1.9-.3s.9-.4 1.2-.8.4-.8.4-1.3c0-.4-.1-.8-.4-1.2-.3-.3-.8-.6-1.2-.8-.6-.2-1.3-.4-2-.5-1-.2-1.9-.5-2.9-.8q-1.2-.45-2.1-1.5c-.6-.6-.8-1.5-.8-2.5 0-.9.2-1.7.6-2.3.4-.7 1.1-1.2 1.9-1.6q1.35-.6 3.3-.6c1.3 0 2.3.2 3.2.6s1.5.9 2 1.7c.4.7.7 1.5.7 2.5h-2.9c0-.4-.1-.8-.3-1.1s-.6-.6-1-.8c-.5-.2-1-.3-1.7-.3q-1.05 0-1.8.3c-.4.2-.8.4-.9.7-.2.3-.3.7-.3 1 0 .4.1.8.4 1.1s.7.5 1.3.7 1.3.4 2.2.5c1.1.2 2 .5 2.8.8.8.4 1.5.9 2 1.5.5.7.8 1.5.8 2.5s-.3 1.9-.8 2.6-1.3 1.3-2.2 1.6c-1 .5-2.1.7-3.4.7m-83.5 0c-1.1 0-2.2-.4-3-1.1-.4-.4-.8-.8-1-1.3v2H.3V83.2h2.8V88L3 89.6c.3-.5.6-.9 1-1.2.4-.4.9-.6 1.4-.8s1-.3 1.6-.3q1.65 0 3 .9c.9.6 1.6 1.3 2.1 2.3s.8 2 .8 3.2-.2 2.2-.8 3.2c-.5 1-1.2 1.7-2.1 2.3-.9.5-1.9.8-2.9.7m-.5-2.5c.6 0 1.2-.2 1.7-.5s1-.7 1.3-1.3.5-1.2.5-2-.2-1.4-.5-2c-.3-.5-.7-1-1.3-1.3-.5-.3-1.1-.5-1.7-.5s-1.2.2-1.7.5-1 .8-1.3 1.4-.5 1.2-.5 1.9.2 1.4.5 1.9c.6 1.1 1.7 1.8 3 1.9m6.9 4h2c.4 0 .7-.1 1-.2s.5-.3.7-.6c.2-.2.3-.6.5-1.1l.1-.4-4.5-11.4h2.9L19 95l.3 1.2.3-1.2 2.7-7.3h3l-4.6 11.7c-.1.2-.2.4-.2.6-.1.2-.2.4-.2.6-.4.9-.8 1.6-1.2 2s-.9.7-1.4.9q-.75.3-2.1.3h-2c-.1-.1-.1-2.4-.1-2.4"/></svg>