<svg xmlns="http://www.w3.org/2000/svg" width="238" height="33" fill="none" class="logo" viewBox="0 0 238 33"><path fill="#000" d="M7.368 25.144q-1.872 0-3.6-.6-1.704-.6-2.64-1.584l.696-1.368q.912.912 2.424 1.488a9 9 0 0 0 3.12.552q2.256 0 3.384-.816 1.128-.84 1.128-2.16 0-1.008-.624-1.608-.6-.6-1.488-.912-.888-.336-2.472-.72-1.896-.48-3.024-.912a5.2 5.2 0 0 1-1.944-1.368q-.792-.912-.792-2.472 0-1.272.672-2.304.672-1.056 2.064-1.68t3.456-.624q1.44 0 2.808.408 1.392.384 2.4 1.08l-.6 1.416a8 8 0 0 0-2.256-1.032 8.2 8.2 0 0 0-2.352-.36q-2.208 0-3.336.864-1.104.84-1.104 2.184 0 1.008.6 1.632.624.6 1.536.936.936.312 2.496.696 1.848.456 2.976.912a4.73 4.73 0 0 1 1.944 1.344q.792.888.792 2.424 0 1.272-.696 2.328-.672 1.032-2.088 1.656-1.416.6-3.48.6m17.43 0q-2.496 0-4.512-1.104a8.2 8.2 0 0 1-3.144-3.048q-1.128-1.968-1.128-4.392t1.128-4.368A8.1 8.1 0 0 1 20.31 9.16q2.016-1.104 4.512-1.104 1.872 0 3.456.624a7.2 7.2 0 0 1 2.688 1.824l-1.128 1.128Q27.87 9.64 24.87 9.64q-1.992 0-3.624.912a6.75 6.75 0 0 0-2.568 2.496q-.912 1.584-.912 3.552t.912 3.552a6.75 6.75 0 0 0 2.568 2.496q1.632.912 3.624.912 3.024 0 4.968-2.016l1.128 1.128q-1.104 1.2-2.712 1.848-1.584.624-3.456.624M48.792 8.2V25H47.04v-7.752H36.528V25h-1.776V8.2h1.776v7.488H47.04V8.2zm22.931 0V25H70.02V11.56l-6.6 11.304h-.84l-6.6-11.232V25h-1.704V8.2h1.464l7.296 12.456L70.26 8.2zm5.474 0h1.776V25h-1.776zm7.242 0h6.84q2.664 0 4.704 1.08 2.04 1.056 3.168 2.976 1.128 1.896 1.128 4.344t-1.128 4.368q-1.128 1.896-3.168 2.976Q93.943 25 91.28 25h-6.84zm6.744 15.264q2.208 0 3.864-.864 1.656-.888 2.568-2.424.912-1.56.912-3.576t-.912-3.552q-.912-1.56-2.568-2.424-1.656-.888-3.864-.888h-4.968v13.728zm16.114-13.728h-5.904V8.2h13.584v1.536h-5.904V25h-1.776zm19.942 1.584v4.44h7.776v3.12h-7.776V25h-3.888V8.2h12.696v3.12zm18.905 13.968q-3.6 0-5.616-1.992-1.992-1.992-1.992-5.688V8.2h3.888v9.264q0 4.512 3.744 4.512 1.824 0 2.784-1.08.96-1.104.959-3.432V8.2h3.841v9.408q0 3.696-2.016 5.688-1.992 1.992-5.592 1.992m14.648-13.92h-5.376V8.2h14.64v3.168h-5.376V25h-3.888zm18.539 13.92q-3.6 0-5.616-1.992-1.992-1.992-1.992-5.688V8.2h3.888v9.264q0 4.512 3.744 4.512 1.824 0 2.784-1.08.96-1.104.96-3.432V8.2h3.84v9.408q0 3.696-2.016 5.688-1.992 1.992-5.592 1.992M201.485 25l-3.24-4.68h-3.576V25h-3.888V8.2h7.272q2.232 0 3.864.744 1.656.744 2.544 2.112t.888 3.24-.912 3.24q-.888 1.344-2.544 2.064l3.768 5.4zm-.072-10.704q0-1.416-.912-2.16-.912-.768-2.664-.768h-3.168v5.856h3.168q1.752 0 2.664-.768t.912-2.16m20.025 7.584V25H208.43V8.2h12.696v3.12h-8.832v3.648h7.8v3.024h-7.8v3.888zm8.613 3.408q-1.992 0-3.864-.528-1.848-.552-2.976-1.416l1.32-2.928q1.08.792 2.568 1.272t2.976.48q1.656 0 2.448-.48.792-.504.792-1.32 0-.6-.48-.984-.456-.408-1.2-.648-.72-.24-1.968-.528-1.92-.456-3.144-.912a5.2 5.2 0 0 1-2.112-1.464q-.864-1.008-.864-2.688 0-1.464.792-2.64.792-1.2 2.376-1.896 1.608-.696 3.912-.696 1.608 0 3.144.384t2.688 1.104l-1.2 2.952q-2.328-1.32-4.656-1.32-1.632 0-2.424.528-.768.528-.768 1.392t.888 1.296q.912.408 2.76.816 1.92.456 3.144.912a5.1 5.1 0 0 1 2.088 1.44q.888.984.888 2.664 0 1.44-.816 2.64-.792 1.176-2.4 1.872t-3.912.696"/></svg>