<svg xmlns="http://www.w3.org/2000/svg" width="110" height="41" viewBox="0 0 110 41"><title>Untitled</title><path fill="#000" fill-rule="evenodd" d="M94.778 28.283q-2.297-1.218-3.584-3.393-1.29-2.175-1.29-4.926 0-2.748 1.29-4.907 1.288-2.158 3.584-3.376 2.294-1.218 5.157-1.219 2.896 0 5.19 1.219c1.533.812 2.725 1.937 3.587 3.376Q110 17.216 110 19.964q0 2.751-1.288 4.926c-.862 1.45-2.054 2.581-3.587 3.393q-2.293 1.219-5.19 1.218-2.863 0-5.157-1.218m9.183-4.107q1.589-1.601 1.59-4.212-.001-2.61-1.59-4.21-1.59-1.602-4.026-1.602t-4.01 1.602q-1.57 1.6-1.572 4.21.001 2.61 1.572 4.212 1.575 1.601 4.01 1.6 2.435.001 4.026-1.6m-18.356-2.82H70.993q.385 2.054 2.007 3.255 1.621 1.2 4.027 1.2 3.068 0 5.057-2.018l2.335 2.68q-1.257 1.497-3.172 2.262-1.92.766-4.325.766-3.07 0-5.403-1.218-2.337-1.218-3.61-3.393-1.274-2.175-1.274-4.926.001-2.715 1.237-4.89a8.8 8.8 0 0 1 3.436-3.393q2.196-1.218 4.953-1.219 2.719 0 4.863 1.202a8.5 8.5 0 0 1 3.35 3.376q1.2 2.176 1.2 5.029 0 .452-.069 1.287M72.72 15.18q-1.446 1.236-1.76 3.288h10.566q-.278-2.018-1.709-3.271t-3.555-1.252q-2.094 0-3.542 1.235m-10.315-4.503V26.84q0 10.065-10.084 10.064-2.696 0-5.111-.696-2.414-.697-3.992-2.017l1.96-3.353q1.226 1.034 3.1 1.659 1.871.623 3.798.624 3.081 0 4.517-1.427t1.436-4.354v-1a7.2 7.2 0 0 1-2.73 1.893q-1.611.641-3.539.641-2.658 0-4.813-1.16a8.6 8.6 0 0 1-3.396-3.264q-1.243-2.106-1.242-4.818 0-2.712 1.242-4.798a8.54 8.54 0 0 1 3.396-3.231q2.155-1.141 4.813-1.142 2.031 0 3.696.679a6.84 6.84 0 0 1 2.784 2.069v-2.534zm-5.9 12.9q1.594-1.516 1.595-3.943 0-2.39-1.596-3.89c-1.06-.998-2.422-1.498-4.077-1.498q-2.521 0-4.114 1.498-1.595 1.5-1.594 3.89-.001 2.426 1.594 3.944 1.593 1.516 4.114 1.516c1.655 0 3.017-.505 4.077-1.516m-23.886-7.085-11.224 4.342 9.907 7.971-1.821 2.29-8.601-6.92 3.54 15.236-2.84.668-3.562-15.335-3.974 8.286-2.626-1.274 4.16-8.672-14.53 5.621L0 25.97l15.608-6.037-10.414-8.38 1.821-2.29 9.108 7.329L13.634 5.88l2.84-.668 2.504 10.78L26.649 0l2.625 1.274L21.4 17.693l10.172-3.935z"/></svg>