<?xml version="1.0" encoding="UTF-8"?>
<svg id="Layer_1" xmlns="http://www.w3.org/2000/svg" viewBox="0 0 469.5 116">
  <defs>
    <style>
      .cls-1 {
        fill: CurrentColor;
      }
    </style>
  </defs>
  <g id="Logo">
    <path id="Vector" class="cls-1" d="M140.18,55.37c-2.37-.77-4.78-1.47-7.15-2.07-2.3-.58-4.27-1.36-5.88-2.32-1.46-.87-2.18-1.98-2.18-3.39,0-1.59.64-2.8,1.94-3.66,1.38-.92,3.09-1.38,5.07-1.38,4.36,0,7.18,1.66,8.63,5.06l.3.7,7.56-4.2-.29-.58c-1.44-2.91-3.61-5.21-6.47-6.84-2.84-1.62-6.11-2.45-9.74-2.45-4.53,0-8.36,1.26-11.39,3.75-3.07,2.52-4.63,5.79-4.63,9.69,0,3.02.91,5.54,2.69,7.48,1.75,1.9,3.88,3.29,6.35,4.12,2.36.8,4.77,1.51,7.15,2.11,2.29.58,4.27,1.36,5.88,2.32,1.46.87,2.18,1.99,2.18,3.39,0,1.75-.68,3-2.08,3.81-1.51.87-3.46,1.32-5.8,1.32-2.52,0-4.69-.57-6.47-1.69-1.76-1.11-2.98-2.63-3.61-4.52l-.27-.79-7.75,4.39.23.56c1.32,3.15,3.57,5.7,6.69,7.6,3.1,1.88,6.86,2.84,11.18,2.84,4.87,0,8.93-1.23,12.07-3.66,3.2-2.47,4.81-5.79,4.81-9.88,0-3.07-.91-5.63-2.69-7.61-1.75-1.94-3.89-3.33-6.36-4.13h0Z"/>
    <path id="Vector_2" class="cls-1" d="M178.76,34.24c-6.6,0-11.87,2.38-15.68,7.06v-5.95h-8.91v61.3h8.91v-23.08c3.81,4.69,9.07,7.06,15.68,7.06,6.23,0,11.61-2.27,15.99-6.76,4.38-4.48,6.6-10.01,6.6-16.45s-2.22-11.96-6.6-16.45c-4.38-4.48-9.77-6.76-15.99-6.76h0ZM177.81,42.8c4.12,0,7.63,1.42,10.43,4.21,2.8,2.79,4.21,6.3,4.21,10.43s-1.42,7.64-4.21,10.43c-2.8,2.79-6.3,4.21-10.43,4.21s-7.72-1.42-10.51-4.21c-2.8-2.79-4.21-6.3-4.21-10.43s1.42-7.64,4.21-10.43c2.8-2.79,6.34-4.21,10.51-4.21Z"/>
    <path id="Vector_3" class="cls-1" d="M242.24,41.3c-3.81-4.69-9.07-7.06-15.68-7.06-6.23,0-11.61,2.27-15.99,6.76s-6.6,10.01-6.6,16.45,2.22,11.97,6.6,16.45c4.38,4.48,9.77,6.76,15.99,6.76,6.6,0,11.87-2.38,15.68-7.06v5.95h8.91v-44.18h-8.91v5.95ZM227.52,72.08c-4.12,0-7.63-1.42-10.43-4.21-2.8-2.79-4.21-6.3-4.21-10.43s1.42-7.64,4.21-10.43c2.8-2.79,6.3-4.21,10.43-4.21s7.72,1.42,10.51,4.21c2.8,2.79,4.21,6.3,4.21,10.43s-1.42,7.64-4.21,10.43c-2.8,2.79-6.33,4.21-10.51,4.21Z"/>
    <path id="Vector_4" class="cls-1" d="M267.51,40.63v-5.28h-8.91v44.18h8.91v-23.37c0-4.44,1.25-7.68,3.72-9.65,2.51-1.99,5.56-2.92,9.06-2.76l.72.03v-9.2h-.69c-5.77,0-10.07,2.03-12.82,6.05h0Z"/>
    <path id="Vector_5" class="cls-1" d="M301.3,56.76l21.39-21.41h-11.64l-17.73,17.93V18.23h-8.91v61.3h8.91v-19.28l18.76,19.28h11.26l-22.05-22.77Z"/>
    <path id="Vector_6" class="cls-1" d="M357.41,41.3c-3.8-4.69-9.04-7.06-15.59-7.06s-11.78,2.24-16.16,6.67c-4.38,4.42-6.6,9.9-6.6,16.28s2.22,11.87,6.6,16.32c4.38,4.45,9.82,6.71,16.16,6.71s11.75-2.41,15.59-7.15v3.99c0,3.83-1.22,6.89-3.63,9.08-2.43,2.21-5.84,3.33-10.14,3.33-6.82,0-11.24-2.23-13.5-6.81l-.32-.65-7.8,4.36.32.59c1.85,3.48,4.63,6.19,8.26,8.04,3.6,1.84,7.93,2.77,12.87,2.77,6.19,0,11.59-1.82,16.02-5.42,4.48-3.63,6.75-8.78,6.75-15.3v-41.7h-8.82v5.95h0ZM342.68,71.73c-4.18,0-7.72-1.4-10.51-4.16-2.8-2.76-4.21-6.25-4.21-10.38s1.42-7.53,4.21-10.29c2.8-2.76,6.34-4.16,10.51-4.16s7.72,1.4,10.51,4.16c2.8,2.76,4.21,6.23,4.21,10.29s-1.42,7.62-4.21,10.38c-2.8,2.76-6.34,4.16-10.51,4.16h0Z"/>
    <path id="Vector_7" class="cls-1" d="M459.2,40.94c-4.56-4.45-10.17-6.7-16.67-6.7s-12.1,2.25-16.63,6.7c-4.53,4.45-6.83,10.01-6.83,16.5s2.3,12.05,6.83,16.5c4.53,4.45,10.12,6.7,16.63,6.7s12.12-2.25,16.67-6.7c4.56-4.45,6.87-10,6.87-16.5s-2.32-12.05-6.87-16.5h0ZM442.53,71.99c-4.06,0-7.55-1.4-10.34-4.16-2.8-2.76-4.21-6.25-4.21-10.38s1.42-7.62,4.21-10.38c2.8-2.76,6.27-4.16,10.34-4.16s7.63,1.4,10.43,4.16,4.21,6.25,4.21,10.38-1.42,7.62-4.21,10.38c-2.8,2.76-6.31,4.16-10.43,4.16h0Z"/>
    <path id="Vector_8" class="cls-1" d="M410.69,41.1c-4.13-4.55-9.53-6.86-16.05-6.86-6.86,0-12.53,2.23-16.86,6.63-4.32,4.39-6.52,9.97-6.52,16.58s2.24,12.26,6.65,16.62c4.41,4.36,10.21,6.58,17.24,6.58,8.58,0,15.13-3.28,19.46-9.74l-7.55-4.24s-.03-.02-.05-.03c-2.49,3.77-6.32,5.61-11.68,5.61-3.93,0-7.27-1.02-9.94-3.03-2.45-1.84-4.09-4.42-4.89-7.67h36.02l.09-.58c.18-1.17.27-2.33.27-3.44,0-6.36-2.08-11.9-6.2-16.43h.02ZM380.48,53.67c.69-3.22,2.22-5.85,4.55-7.82,2.52-2.14,5.75-3.22,9.6-3.22,3.29,0,6.2,1.02,8.66,3.02,2.28,1.86,3.78,4.55,4.46,8.03h-27.27Z"/>
  </g>
  <polygon class="cls-1" points="95.27 76.33 64.9 58.79 92.82 51.31 90.78 43.72 62.89 51.19 88.18 7.38 81.03 3.25 55.85 46.86 47.19 14.53 39.25 16.66 47.92 48.99 16.95 31.11 12.82 38.25 44 56.25 3.43 67.13 5.46 74.72 46.04 63.85 31.29 89.4 38.44 93.53 53.07 68.2 65 112.75 72.94 110.63 61 66.07 91.14 83.47 95.27 76.33"/>
</svg>