<svg xmlns="http://www.w3.org/2000/svg" xml:space="preserve" id="Layer_1" x="0" y="0" viewBox="0 0 225 60"><style>.st0{fill:#000}</style><g id="XMLID_703_"><g id="XMLID_704_"><path id="XMLID_727_" d="M131 42.4h-9.1c-3.5 0-6.4-2.9-6.4-6.4v-1.3c0-3.2 2.4-6 5.6-6.3l11.7-1.3c.7-.1 1.3-.4 1.7-.9s.6-1.3.4-2v-.1c-.7-2.5-3-4.4-5.7-4.4h-10c-.6 0-1-.5-1-1s.5-1 1-1h10c4.4 0 8 3.6 8 8V36c.1 3.5-2.7 6.4-6.2 6.4m4.2-14c-.6.4-1.4.7-2.1.7l-11.7 1.3c-2.2.3-3.8 2.1-3.8 4.3V36c0 2.4 1.9 4.3 4.3 4.3h9.1c2.4 0 4.3-1.9 4.3-4.3v-7.6z" class="st0"/><path id="XMLID_725_" d="M46.1 42.4h-8.5c-4.2 0-7.7-2.7-9-6.5v-.1c-.3-.9-.5-1.9-.5-3v-7c0-4.6 3.7-8.3 8.3-8.3h7.2c3.5 0 6.4 2.9 6.4 6.4v.1c0 3.2-2.4 6-5.6 6.3l-11 1.3c-.7.1-1.6.5-2.2 1.3-.5.6-.6 1.4-.5 2.3 1 2.9 3.8 5 7 5h8.5c.6 0 1 .5 1 1 0 .7-.5 1.2-1.1 1.2m-9.7-22.7c-3.4 0-6.2 2.8-6.2 6.2v5c.8-.7 1.8-1.1 2.8-1.2l11-1.3c2.2-.3 3.8-2.1 3.8-4.3V24c0-2.4-1.9-4.3-4.3-4.3z" class="st0"/><path id="XMLID_722_" d="M220.4 42.4h-8.5c-4.2 0-7.7-2.7-9-6.5v-.1c-.3-.9-.5-1.9-.5-3v-7c0-4.6 3.7-8.3 8.3-8.3h7.2c3.5 0 6.4 2.9 6.4 6.4v.1c0 3.2-2.4 6-5.6 6.3l-11 1.3c-.7.1-1.6.5-2.2 1.3-.5.6-.6 1.4-.5 2.3 1 2.9 3.8 5 7 5h8.5c.6 0 1 .5 1 1-.1.7-.5 1.2-1.1 1.2m-9.7-22.7c-3.4 0-6.2 2.8-6.2 6.2v5c.8-.7 1.8-1.1 2.8-1.2l11-1.3c2.2-.3 3.8-2.1 3.8-4.3V24c0-2.4-1.9-4.3-4.3-4.3z" class="st0"/><path id="XMLID_720_" d="M184.7 42.4h-2.2c-5.4 0-9.8-4.4-9.8-9.8V18.7c0-.6.5-1 1-1 .6 0 1 .5 1 1v13.9c0 4.3 3.5 7.7 7.7 7.7h2.2c4.3 0 7.7-3.5 7.7-7.7V18.7c0-.6.5-1 1-1 .6 0 1 .5 1 1v13.9c.2 5.4-4.2 9.8-9.6 9.8" class="st0"/><g id="XMLID_714_"><path id="XMLID_717_" d="M12 42.4c-.6 0-1-.5-1-1V18.7c0-.6.5-1 1-1s1 .5 1 1v22.7c0 .5-.5 1-1 1" class="st0"/><path id="XMLID_715_" d="M21.8 19.7H2.1c-.6 0-1-.5-1-1s.5-1 1-1h19.7c.6 0 1 .5 1 1s-.4 1-1 1" class="st0"/></g><path id="XMLID_711_" d="M105.5 42.4c-.3 0-.6-.1-.8-.3L95.4 32c-.4-.4-.5-1-.3-1.5s.6-.9 1.2-1l7.3-1.2c2.1-.3 3.7-2.1 3.7-4.2 0-2.4-1.9-4.3-4.3-4.3H92.5c-1.6 0-2.9 1.3-2.9 2.9v18.8c0 .6-.5 1-1 1s-1-.5-1-1V22.6c0-2.7 2.2-4.9 4.9-4.9H103c3.5 0 6.4 2.9 6.4 6.4 0 3.2-2.4 5.9-5.5 6.3l-6.2 1 8.6 9.3c.4.4.4 1.1-.1 1.5-.1.1-.4.2-.7.2" class="st0"/><path id="XMLID_709_" d="M75.8 42.4c-.3 0-.6-.1-.8-.3L65.7 32c-.4-.4-.5-1-.3-1.5s.6-.9 1.2-1l7.3-1.2c2.1-.3 3.7-2.1 3.7-4.2 0-2.4-1.9-4.3-4.3-4.3H62.8c-1.6 0-2.9 1.3-2.9 2.9v18.8c0 .6-.5 1-1 1-.6 0-1-.5-1-1V22.6c0-2.7 2.2-4.9 4.9-4.9h10.5c3.5 0 6.4 2.9 6.4 6.4 0 3.2-2.4 5.9-5.5 6.3l-6.2 1 8.6 9.3c.4.4.4 1.1-.1 1.5-.2.1-.4.2-.7.2" class="st0"/></g></g><linearGradient id="SVGID_1_" x1="154.564" x2="154.564" y1="12.5" y2="47.5" gradientUnits="userSpaceOnUse"><stop offset=".25" style="stop-color:#2baa9f"/><stop offset=".444" style="stop-color:#25a19d"/><stop offset=".76" style="stop-color:#168998"/><stop offset="1" style="stop-color:#077294"/></linearGradient><path d="M147.3 47.5h-1.8c-.6 0-1.2-.5-1.2-1.2 0-.6.5-1.2 1.2-1.2h1.8c8.4 0 15.2-6.8 15.2-15.2s-6.8-15.2-15.2-15.2h-1.8c-.6 0-1.2-.5-1.2-1.2 0-.6.5-1.2 1.2-1.2h1.8c9.6 0 17.5 7.9 17.5 17.5s-7.9 17.7-17.5 17.7" style="fill:#000"/></svg>