<svg xmlns="http://www.w3.org/2000/svg" width="513.156" height="134.84" viewBox="0 0 481.083 126.413"><path d="M0 0a2.02 2.02 0 0 0-3.874.804v2.834H3.4v4.04h-7.274V7.7h-.002v7.633h-21.816v-5.254h8.083V-3.262h5.658v13.341h3.231V7.678h-1.655v-4.04h1.655V-.669h.004c.087-2.939 2.531-5.083 6.528-4.984 3.668.088 6.422 2.362 6.527 5.386q.005.135 0 .267zm8.747-10.113a4.447 4.447 0 0 0-4.445-4.447h-29.908a4.447 4.447 0 0 0-4.445 4.447v29.907a4.446 4.446 0 0 0 4.445 4.446H4.302a4.446 4.446 0 0 0 4.445-4.446zM4.571 26.662h-30.454a6.597 6.597 0 0 1-6.596-6.598v-30.453a6.595 6.595 0 0 1 6.596-6.597H4.571a6.596 6.596 0 0 1 6.598 6.597v30.453a6.6 6.6 0 0 1-6.598 6.598" style="fill:#000;fill-opacity:1;fill-rule:nonzero;stroke:none" transform="matrix(2.89618 0 0 -2.89618 94.065 77.218)"/><path d="M0 0h-4.233v-9.546h-2.913V0h-4.233v2.141H0z" style="fill:#000;fill-opacity:1;fill-rule:nonzero;stroke:none" transform="matrix(2.87432 0 0 -2.87432 179.266 39.071)"/><path d="M0 0h-8.62v11.687h8.5V9.546h-5.587V7.094h5.33V4.953h-5.33V2.142H0z" style="fill:#000;fill-opacity:1;fill-rule:nonzero;stroke:none" transform="matrix(2.87432 0 0 -2.87432 209.63 66.51)"/><path d="M0 0h-4.233v-9.546h-2.913V0h-4.233v2.141H0z" style="fill:#000;fill-opacity:1;fill-rule:nonzero;stroke:none" transform="matrix(2.87432 0 0 -2.87432 247.568 39.071)"/><path d="M0 0h1.542c.806 0 1.595.343 1.595 1.337 0 .874-.566 1.32-1.663 1.32H0zm2.314 4.798c2.399 0 3.822-1.61 3.822-3.359 0-1.285-.668-2.244-2.005-2.861 1.199-.6 1.56-2.04 3.205-5.467H4.131C2.879-4.387 2.417-2.142.84-2.142H0v-4.747h-2.913V4.798z" style="fill:#000;fill-opacity:1;fill-rule:nonzero;stroke:none" transform="matrix(2.87432 0 0 -2.87432 261.526 46.707)"/><path d="m0 0-1.713-4.542h3.598zm6.838-8.895H3.703l-.96 2.314h-5.227l-.875-2.314h-3.084L-1.73 2.792h3.375z" style="fill:#000;fill-opacity:1;fill-rule:nonzero;stroke:none" transform="matrix(2.87432 0 0 -2.87432 305.32 40.942)"/><path d="M0 0h-4.234v-9.546h-2.913V0h-4.233v2.141H0z" style="fill:#000;fill-opacity:1;fill-rule:nonzero;stroke:none" transform="matrix(2.87432 0 0 -2.87432 374.512 39.071)"/><path d="M0 0h-8.62v11.687h8.5V9.546h-5.587V7.094h5.33V4.953h-5.33V2.142H0z" style="fill:#000;fill-opacity:1;fill-rule:nonzero;stroke:none" transform="matrix(2.87432 0 0 -2.87432 404.87 66.51)"/><path d="M0 0c-1.621-.84-2.85-1.165-4.574-1.165-4.522 0-6.776 2.947-6.776 5.964 0 3.119 2.543 6.032 6.998 6.032 1.621 0 3.072-.342 4.215-1.028V7.198c-1.279.72-2.577 1.2-4.01 1.2-2.475 0-4.215-1.474-4.215-3.547 0-2.091 1.722-3.583 4.146-3.583 1.519 0 2.544.48 4.216 1.286z" style="fill:#000;fill-opacity:1;fill-rule:nonzero;stroke:none" transform="matrix(2.87432 0 0 -2.87432 441.99 63.643)"/><path d="M0 0h-2.913v4.731H-8.74V0h-2.913v11.687h2.913V6.992h5.827v4.695H0z" style="fill:#000;fill-opacity:1;fill-rule:nonzero;stroke:none" transform="matrix(2.87432 0 0 -2.87432 481.083 66.51)"/></svg>