<svg xmlns="http://www.w3.org/2000/svg" id="Layer_1" viewBox="0 0 345.6 86.4"><defs><style>.st0{fill:currentColor}</style></defs><path d="M99.8 8.1h21.1v2.6h-9v24h-3.1v-24h-9zM133.2 22.6l6.8-.4v-1.3c0-3.9-1.9-5.5-5.8-5.5s-5.1.5-6.3.8l-.2-2.8c.6-.2 3.3-.7 6.6-.7 6.2 0 8.8 2.7 8.8 8v6.5c0 2.5.3 5.1.7 7.4l-2.3.4q-.6-2.4-.9-4.8h-.1c-1.4 3.4-4.3 4.9-7.7 4.9s-6.9-2.6-6.9-6.6 2.1-5.7 7.4-6h-.1Zm.1 10c3.1 0 6.7-2.1 6.7-5.8v-2.4l-6 .4c-4.2.3-5.2 1.8-5.2 3.7 0 2.7 1.6 4 4.4 4h.1ZM152.8 42.9c-1.2 0-2.3-.2-3.4-.5l.3-2.8c.9.3 2 .6 3.2.6 2.8 0 4.6-1 6-4.7l-9.1-22.1 3.1-.5 5 12.9c.7 1.8 1.5 3.7 2.1 5.5h.2l5.2-18.4 3.1.4-6.3 20.7c-2 6.6-4.8 8.9-9.5 8.9ZM177.3 26.7V6.9l-6.1.2.2-2.8h8.9V26c0 4.1 1.5 6.3 5.1 6.3s3-.3 4.1-.6l.3 2.8c-1.1.3-2.9.6-4.7.6-5.7 0-8-3.2-8-8.4zM196.5 24.8V23c0-6.5 3.4-10.4 9.4-10.4s9.4 3.9 9.4 10.4v1.8c0 6.5-3.4 10.4-9.4 10.4s-9.4-3.9-9.4-10.4m9.4 7.6c4.2 0 6.4-2.6 6.4-7.7v-1.8c0-5.1-2.1-7.7-6.3-7.7s-6.4 2.6-6.4 7.7v1.8c0 5.1 2.1 7.7 6.3 7.7M227 15.6l-5.8.2.2-2.7h8.2v6.1h.2c2.3-2.9 6.8-5.8 10.3-7l1.2 3.5c-4.1 1-8.4 3.1-11.4 6v13h-3.1V15.4h.2ZM111.1 60.6h7.6v12.5c-1.9 1.4-4 2.1-7.2 2.1-6.2 0-9.8-3.8-9.8-10.7v-6.1c0-6.3 3.6-10.7 10.2-10.7s4.7.2 6.1.4l-.4 2.7c-1.3-.2-3.4-.4-6-.4-4.2 0-6.8 3-6.8 8v6.1c0 5.1 2.5 8.1 7 8.1s2.8-.3 3.9-.8v-8.7l-4.6.2zM129 64.9c0 4.9 2.5 7.5 7.2 7.5s4.1-.6 5.9-1.6l.8 2.4c-2.1 1.2-4.4 1.9-7 1.9-6.2 0-9.9-3.7-9.9-10.4v-1.8c0-6.2 3.5-10.3 9.3-10.3s9 4.1 9 10.2v2.1zm12.4-2.3c-.1-4.6-2.3-7.2-6-7.2s-6.2 2.5-6.3 7.2zM150.3 64.7v-1.8c0-6.5 3.4-10.4 9.4-10.4s9.4 3.9 9.4 10.4v1.8c0 6.5-3.4 10.4-9.4 10.4s-9.4-3.9-9.4-10.4m9.4 7.7c4.2 0 6.4-2.6 6.4-7.7v-1.8c0-5.1-2.1-7.7-6.3-7.7s-6.4 2.6-6.4 7.7v1.8c0 5.1 2.1 7.7 6.3 7.7M175.5 72.6l1.1-2.5c1.7 1.1 4.7 2.4 7.9 2.4s5.5-1.1 5.5-3.7-1-2.8-4.1-3.5l-4.3-1.1c-3.1-.8-4.9-2.5-4.9-5.5s3.1-6.1 8-6.1 6.1.8 7.5 1.4l-.8 2.6c-1.1-.5-3.9-1.4-6.7-1.4s-5.1 1.1-5.1 3.4 1.2 2.5 3.5 3l3.5.9c4.1 1 6.3 2.5 6.3 6s-3.1 6.6-8.5 6.6-7.4-1.4-9-2.5zM204 73.4h-.2c.2 2.5.2 4.9.2 7.3v2.6h-3.1V52.9h2.2l.3 1.9c1.5-1.2 3.8-2.3 6.6-2.3 5.5 0 8 3.7 8 9.9v2.1c0 6.5-3.1 10.5-8.9 10.5s-4-.7-5.3-1.7h.2Zm5.2-1c3.8 0 5.9-2.9 5.9-7.5v-2.4c0-4.9-1.9-7.4-6.1-7.4s-3.6.5-5.1 1.2v14.8c1.5.9 3.3 1.3 5.2 1.3zM232 62.6l6.8-.4v-1.3c0-3.9-1.9-5.5-5.8-5.5s-5.1.5-6.3.8l-.2-2.8c.6-.2 3.3-.7 6.6-.7 6.2 0 8.8 2.7 8.8 8v6.5c0 2.5.3 5.1.7 7.4l-2.3.4q-.6-2.4-.9-4.8h-.1c-1.4 3.4-4.3 4.9-7.7 4.9s-6.9-2.6-6.9-6.6 2.1-5.7 7.4-6h-.1Zm0 10c3.1 0 6.7-2.1 6.7-5.8v-2.4l-6 .4c-4.2.3-5.2 1.8-5.2 3.7 0 2.7 1.6 4 4.4 4h.1ZM253 53.1v-5.9h3.1v5.9h11l-.4 2.6h-10.6v12.2c0 2.9 1.7 4.6 5.2 4.6s3.9-.5 5.3-.9l.2 2.6c-1.5.5-4.1 1-6.2 1-5.1 0-7.6-2.5-7.6-6.7V55.6h-5.2v-2.5zM280.5 67.2V55.5l-7.2.3.2-2.7h10v13.6c0 3.6.6 5.7 3.9 5.7s3.1-.4 4.1-.8l.5 2.6c-1.1.6-3.2 1.1-5.1 1.1-4.4 0-6.3-2.4-6.3-7.9v-.2Zm1.5-24.5c1.4 0 2.5 1 2.5 2.2s-1.1 2.3-2.5 2.3-2.5-1-2.5-2.3 1.1-2.2 2.5-2.2M305.3 62.6l6.8-.4v-1.3c0-3.9-1.9-5.5-5.8-5.5s-5.1.5-6.3.8l-.2-2.8c.6-.2 3.3-.7 6.6-.7 6.2 0 8.8 2.7 8.8 8v6.5c0 2.5.3 5.1.7 7.4l-2.3.4q-.6-2.4-.9-4.8h-.1c-1.4 3.4-4.3 4.9-7.7 4.9s-6.9-2.6-6.9-6.6 2.1-5.7 7.4-6h-.1Zm0 10c3.1 0 6.7-2.1 6.7-5.8v-2.4l-6 .4c-4.2.3-5.2 1.8-5.2 3.7 0 2.7 1.6 4 4.4 4h.1ZM328 66.7V46.9l-6.1.2.2-2.8h8.9V66c0 4.1 1.5 6.3 5.1 6.3s3-.3 4.1-.6l.3 2.8c-1.1.3-2.9.6-4.7.6-5.7 0-8-3.2-8-8.4zM22.7 31.1l-8.8 8.8c-.3.3-.3.8 0 1.1l8.8 8.8c.6.6 1.6 0 1.3-.8-2.1-5.5-2.1-11.6 0-17 .3-.8-.7-1.4-1.3-.8ZM33.4 20.4l8.8-8.8c.3-.3.8-.3 1.1 0l8.8 8.8c.6.6 0 1.6-.8 1.3-5.5-2.1-11.6-2.1-17 0s-1.4-.7-.8-1.3ZM62.8 49.8l8.8-8.8c.3-.3.3-.8 0-1.1l-8.8-8.8c-.6-.6-1.6 0-1.3.8 2.1 5.5 2.1 11.6 0 17-.3.8.7 1.4 1.3.8ZM52.2 60.6l-8.8 8.8c-.3.3-.8.3-1.1 0l-8.8-8.8c-.6-.6 0-1.6.8-1.3 5.5 2.1 11.6 2.1 17 0 .8-.3 1.4.7.8 1.3ZM80.3 20.6V4.1c0-.5-.4-1-1-1H63.2c-1 0-1.4 1.4-.4 1.9 7 3.2 12.6 8.9 15.6 16 .4 1 1.9.7 1.9-.4M5.2 60.4v16.5c0 .5.4 1 1 1h16.1c1 0 1.4-1.4.4-1.9-7-3.2-12.6-8.9-15.6-16-.4-1-1.9-.7-1.9.4M62.9 77.8h16.5c.5 0 1-.4 1-1V60.7c0-1-1.4-1.4-1.9-.4-3.2 7-8.9 12.6-16 15.6-1 .4-.7 1.9.4 1.9M22.6 3H6.1c-.5 0-1 .4-1 1v16.1c0 1 1.4 1.4 1.9.4 3.2-7 8.9-12.6 16-15.6 1-.4.7-1.9-.4-1.9" class="st0"/></svg>