<svg xmlns="http://www.w3.org/2000/svg" id="Layer_1" viewBox="0 0 680.68 156.95"><defs><style>.cls-1,.cls-2{fill:#231f20}.cls-2{fill-rule:evenodd}</style></defs><path d="M259.08 141.37h-58.6V63.7h56.55v12.51h-42.41V96.3h35.26v12.46h-35.26v20.09h44.47v12.51ZM350.84 141.37h-12.08l-37.32-52.21v52.21H287.3V63.7h12.51l36.94 52.1V63.7h14.08v77.67ZM420.61 142.4c-7.62 0-14.56-1.8-20.83-5.39s-11.26-8.4-14.98-14.43q-5.58-9.045-5.58-20.04c0-10.995 1.86-14.01 5.58-20.04s8.71-10.83 14.98-14.41c6.26-3.58 13.21-5.36 20.83-5.36 5.89 0 11.32 1.17 16.3 3.52s9.37 5.47 13.16 9.37l-10.13 10.07c-2.46-2.49-5.36-4.39-8.72-5.69q-5.04-1.95-10.62-1.95c-4.62 0-8.91.97-12.86 2.92s-7.14 4.76-9.56 8.42c-2.42 3.67-3.63 8.04-3.63 13.13s1.21 9.51 3.63 13.16 5.61 6.45 9.56 8.4 8.24 2.92 12.86 2.92c5.6 0 10.71-1.44 15.33-4.33v-10.4h-6.45V99.76h20.58v29.41c-3.32 3.97-7.59 7.17-12.81 9.59s-10.77 3.63-16.66 3.63ZM494.28 141.37h-14.14V63.7h14.14zM589.94 141.37h-12.08l-37.32-52.21v52.21H526.4V63.7h12.51l36.94 52.1V63.7h14.08v77.67ZM680.68 141.37h-58.6V63.7h56.55v12.51h-42.41V96.3h35.26v12.46h-35.26v20.09h44.47v12.51ZM215.19 47.78h-5.49V22.49h-9v-4.86h23.48v4.86h-9v25.29ZM254.44 47.78h-6.03l-2.98-7.86H233.3l-2.96 7.86h-6.03l12.09-30.14h5.95l12.11 30.14Zm-10.85-12.71-4.22-11.18-4.22 11.18h8.45ZM268.91 47.78h-5.49V35.4l-11.37-17.76h5.72l8.39 12.49 8.39-12.49h5.72L268.92 35.4v12.38ZM308.24 47.78H285.5V17.64h5.49v25.29h17.26v4.86ZM328.55 48.18c-2.96 0-5.65-.7-8.08-2.09s-4.37-3.26-5.81-5.6-2.17-4.93-2.17-7.78.72-5.44 2.17-7.78c1.44-2.34 3.38-4.2 5.81-5.59s5.12-2.08 8.08-2.08 5.63.69 8.06 2.08 4.37 3.25 5.81 5.59 2.17 4.93 2.17 7.78-.72 5.44-2.17 7.78-3.38 4.21-5.81 5.6-5.12 2.09-8.06 2.09m0-5.97c1.78 0 3.44-.38 4.97-1.14a9.3 9.3 0 0 0 3.71-3.26c.94-1.42 1.41-3.12 1.41-5.11s-.47-3.67-1.41-5.1-2.17-2.51-3.71-3.27c-1.53-.76-3.19-1.13-4.97-1.13s-3.46.38-4.99 1.13a9.3 9.3 0 0 0-3.71 3.27q-1.41 2.13-1.41 5.1c0 2.97.47 3.69 1.41 5.11s2.17 2.5 3.71 3.26c1.53.76 3.2 1.14 4.99 1.14M375.81 47.78h-6.89l-6.43-8.26c-.46.03-.94.04-1.43.04h-4.27v8.22h-5.49V17.64h9.75c3.03 0 5.53.47 7.51 1.41s3.46 2.23 4.43 3.88 1.46 3.54 1.46 5.67-.5 4.11-1.5 5.78q-1.5 2.505-4.59 3.87l7.44 9.54Zm-14.76-13.07c2.69 0 4.66-.55 5.92-1.64s1.88-2.58 1.88-4.48-.63-3.36-1.88-4.46-3.23-1.64-5.92-1.64h-4.27V34.7h4.27ZM411.56 48.18c-2.96 0-5.65-.7-8.08-2.09s-4.37-3.26-5.81-5.6-2.17-4.93-2.17-7.78.72-5.44 2.17-7.78c1.44-2.34 3.38-4.2 5.81-5.59s5.12-2.08 8.08-2.08c2.28 0 4.39.46 6.33 1.37s3.64 2.12 5.11 3.64l-3.93 3.91c-.95-.97-2.08-1.7-3.38-2.21-1.3-.5-2.68-.76-4.12-.76-1.79 0-3.46.38-4.99 1.13a9.3 9.3 0 0 0-3.71 3.27q-1.41 2.13-1.41 5.1c0 2.97.47 3.69 1.41 5.11s2.17 2.5 3.71 3.26c1.53.76 3.2 1.14 4.99 1.14 2.17 0 4.15-.56 5.95-1.68V36.5h-2.5v-4.85h7.99v11.41c-1.29 1.54-2.95 2.78-4.97 3.72a15.2 15.2 0 0 1-6.46 1.41ZM453.1 47.78h-22.74V17.64h21.94v4.86h-16.46v7.8h13.68v4.83h-13.68v7.8h17.26v4.86ZM473.73 48.18c-2.96 0-5.65-.7-8.08-2.09s-4.37-3.26-5.81-5.6-2.17-4.93-2.17-7.78.72-5.44 2.17-7.78c1.44-2.34 3.38-4.2 5.81-5.59s5.12-2.08 8.08-2.08 5.63.69 8.06 2.08 4.37 3.25 5.81 5.59 2.17 4.93 2.17 7.78-.72 5.44-2.17 7.78-3.38 4.21-5.81 5.6-5.12 2.09-8.06 2.09m0-5.97c1.78 0 3.44-.38 4.97-1.14a9.3 9.3 0 0 0 3.71-3.26c.94-1.42 1.41-3.12 1.41-5.11s-.47-3.67-1.41-5.1-2.17-2.51-3.71-3.27c-1.53-.76-3.19-1.13-4.97-1.13s-3.46.38-4.99 1.13a9.3 9.3 0 0 0-3.71 3.27q-1.41 2.13-1.41 5.1c0 2.97.47 3.69 1.41 5.11s2.17 2.5 3.71 3.26c1.53.76 3.2 1.14 4.99 1.14M506.36 48.18c-1.61 0-3.19-.16-4.73-.47-1.54-.32-2.95-.71-4.24-1.2s-2.36-.99-3.25-1.52l2.12-4.75.71.46c.46.32 1.11.68 1.96 1.08s1.82.76 2.93 1.07c1.11.32 2.32.47 3.63.47 1.64 0 3-.17 4.07-.53 1.07-.35 1.87-.82 2.4-1.42.53-.59.79-1.26.79-1.99 0-.87-.33-1.57-1-2.1s-1.54-.98-2.62-1.36a45 45 0 0 0-3.51-1.03c-1.26-.31-2.51-.68-3.75-1.08-1.24-.41-2.38-.91-3.42-1.52a7.5 7.5 0 0 1-2.5-2.34c-.63-.95-.95-2.14-.95-3.57 0-1.6.42-3.09 1.27-4.48s2.11-2.51 3.77-3.36c1.67-.85 3.72-1.28 6.16-1.28 1.58 0 3.08.14 4.49.43s2.68.65 3.83 1.09q1.71.66 2.91 1.38l-1.95 4.43-.57-.38c-.38-.25-.94-.54-1.68-.86s-1.67-.61-2.79-.86c-1.11-.25-2.4-.38-3.86-.38-1.74 0-3.19.31-4.35.92q-1.74.93-1.74 2.58c0 .84.34 1.53 1.02 2.08s1.57 1.02 2.66 1.43 2.28.8 3.56 1.17 2.55.78 3.79 1.22 2.39.98 3.43 1.61 1.87 1.41 2.5 2.33.95 2.06.95 3.4c0 1.75-.45 3.33-1.34 4.74-.9 1.41-2.24 2.52-4.03 3.34s-4.01 1.23-6.67 1.23ZM530.66 47.78h-5.49V17.64h9.75c3.2 0 5.78.48 7.77 1.45s3.44 2.28 4.36 3.93 1.39 3.51 1.39 5.57-.49 3.94-1.48 5.59-2.48 2.96-4.48 3.93-4.52 1.45-7.56 1.45h-4.27v8.22Zm4.27-13.07c2.69 0 4.67-.55 5.94-1.64s1.9-2.58 1.9-4.48-.63-3.36-1.9-4.46c-1.27-1.09-3.25-1.64-5.94-1.64h-4.27V34.7h4.27ZM579.58 47.78h-6.03l-2.98-7.86h-12.13l-2.96 7.86h-6.03l12.09-30.14h5.95l12.11 30.14Zm-10.84-12.71-4.22-11.18-4.22 11.18h8.45ZM593.97 47.78h-5.49V22.49h-9v-4.86h23.48v4.86h-9v25.29ZM614.93 47.78h-5.49V17.64h5.49zM651.28 47.78h-6.03l-2.98-7.86h-12.13l-2.96 7.86h-6.03l12.09-30.14h5.95l12.11 30.14Zm-10.85-12.71-4.22-11.18-4.22 11.18h8.45ZM680.23 47.78h-22.74V17.64h5.49v25.29h17.26v4.86Z" class="cls-1"/><path d="M6.76 111.15c24.56 55.26 101.74 56.95 126.8 4.56 4.98-10.4 6.98-21.82 6.22-32.81-.76-10.98-4.27-21.54-10.32-30.23-7.43-10.68-18.71-18.56-33.41-20.97-3.58-.59-10.63-.25-14.32.22 11.29 1.64 19.25 4.18 28.64 12.55 13.71 12.21 21.03 37.75 16.66 55.43-4.09 16.54-14.27 28.25-27.14 35.02-9.48 4.99-20.42 7.29-31.45 6.87-11.02-.42-22.13-3.57-31.96-9.47-14.81-8.89-26.73-24.04-31.09-45.57-2.57-12.71-1.71-25.37 2.04-37.13 1.4-4.39 3.2-8.65 5.37-12.75A79.9 79.9 0 0 0 2.18 61.52c-3.92 16.24-2.69 33.7 4.56 49.62Z" class="cls-2"/><path d="M86.69.43C26.54-5.93-13.5 60.06 19.33 107.96c6.52 9.51 15.41 16.95 25.3 21.79 9.89 4.83 20.79 7.07 31.34 6.17 12.96-1.1 25.42-6.92 34.87-18.45 2.3-2.81 5.53-9.07 6.97-12.51-7.07 8.96-13.24 14.58-25.19 18.53-17.43 5.77-43.21-.67-56.33-13.28C24.01 98.4 18.96 83.72 19.53 69.2c.42-10.7 3.89-21.33 9.77-30.67 5.87-9.33 14.15-17.38 24.18-22.94 15.11-8.38 34.19-11.13 55.01-4.14 12.29 4.13 22.82 11.2 31.14 20.33 3.1 3.4 5.89 7.09 8.35 11.03a79.8 79.8 0 0 0-16.04-21.52C119.83 9.77 104.1 2.1 86.69.43" class="cls-2"/><path d="M140.69 124.95c35.58-48.91-1.55-116.58-59.45-112.1-11.5.89-22.38 4.87-31.52 11.02-9.13 6.15-16.52 14.47-21.02 24.05-5.53 11.77-6.72 25.48-1.45 39.42 1.28 3.4 5.09 9.33 7.35 12.29-4.23-10.6-6-18.76-3.46-31.08 3.72-17.98 22.18-37.09 39.67-42.14 16.37-4.73 31.6-1.76 43.9 5.99 9.06 5.71 16.53 14.04 21.67 23.8 5.14 9.75 7.98 20.95 7.78 32.41-.3 17.27-7.46 35.17-23.92 49.71-9.72 8.58-21.11 14.17-33.17 16.8-4.5.98-9.09 1.56-13.73 1.72 9.03.47 18.07-.6 26.66-3.13 16.03-4.72 30.53-14.52 40.69-28.76" class="cls-2"/></svg>