<?xml version="1.0" encoding="utf-8"?>
<!-- Generator: Adobe Illustrator 25.2.1, SVG Export Plug-In . SVG Version: 6.00 Build 0)  -->
<svg version="1.1" id="Layer_1" xmlns="http://www.w3.org/2000/svg" xmlns:xlink="http://www.w3.org/1999/xlink" x="0px" y="0px"
	 viewBox="0 0 3052 485" style="enable-background:new 0 0 3052 485;" xml:space="preserve">
<style type="text/css">
	.st0{clip-path:url(#SVGID_2_);}
	.st1{fill:#FFFFFF;}
</style>
<g>
	<g>
		<defs>
			<rect id="SVGID_1_" y="0" width="485" height="484.9"/>
		</defs>
		<clipPath id="SVGID_2_">
			<use xlink:href="#SVGID_1_"  style="overflow:visible;"/>
		</clipPath>
		<g class="st0">
			<path d="M484.9,242.5c0,63.3-24.7,124-68.9,169.3c-44.2,45.3-104.3,71.5-167.6,73.1h-12c-47.7-1.2-94-16.4-133.1-43.8
				c-39.1-27.4-69.2-65.6-86.7-110c-17.4-44.4-21.4-93-11.4-139.6c10-46.6,33.6-89.3,67.7-122.6c34.1-33.3,77.4-55.8,124.2-64.7
				c46.9-8.9,95.3-3.7,139.3,14.8c44,18.5,81.5,49.6,107.9,89.4C470.9,148.1,485,194.8,484.9,242.5L484.9,242.5z"/>
			<path class="st1" d="M248.4,387.9v97h-12v-97.4c0-1.5,0.6-3,1.7-4.1c1.1-1.1,2.6-1.7,4.1-1.7c1.6,0,3.2,0.6,4.3,1.8
				S248.4,386.3,248.4,387.9z"/>
			<path class="st1" d="M330.3,180.5c-6.1-4.6-12.4-8.8-19.1-12.5c-17-10.2-34.1-20-51-30.3c-10.7-6.5-21.3-7.8-32.7-1.3
				c-22,12.7-44.2,25-66.4,37.5c-4.3,2.1-7.9,5.3-10.5,9.4c-2.6,4-4,8.7-4.1,13.5c-0.3,13.9,0,27.5,0,41.3s-0.2,26.5,0,39.7
				c-0.2,4.9,0.8,9.8,3.1,14.2s5.7,8.1,9.8,10.7c22.1,15,44.3,30,66.4,45.2c4.6,3.1,9.9,4.8,15.4,4.9s10.9-1.5,15.5-4.6
				c22.7-15,45.4-29.9,68.2-44.8c4-2.4,7.2-5.7,9.5-9.7c2.3-4,3.4-8.6,3.4-13.2c0.3-26.8,0.5-53.5,0.8-80.3
				c0.3-3.7-0.4-7.5-1.8-10.9C335.4,186,333.2,183,330.3,180.5z M235.1,336.2c0,1.1-0.1,2.2-0.2,3.2c-4.8-3.2-9-6-13.1-8.8
				c-18.7-12.7-37.2-25.4-55.9-38c-2.6-1.6-4.7-3.9-6.2-6.5c-1.5-2.7-2.2-5.7-2.1-8.8c0.3-26,0.5-52,0.7-78c0-0.9,0-1.7,0.3-3.3
				c3.2,1.8,6,3.5,8.7,5c19.2,11.6,38.2,23.3,57.7,34.8c3.6,1.8,6.5,4.6,8.5,8c2,3.5,2.9,7.4,2.6,11.4
				C235.4,282.2,235.4,309.2,235.1,336.2z M234.3,227.5c-20.4-12.2-40.7-24.5-61-36.8l-8.2-4.9c5.8-3.5,11-6.3,16.2-9.2
				c17.7-10,35.5-20.1,53.1-30c2.5-1.6,5.5-2.5,8.5-2.5c3,0,6,0.9,8.5,2.5l66.6,39.1c0.7,0.5,1.4,1,2.7,2L302,198.1l-44,25.4
				c-2.7,1.7-5.5,3.3-8.4,4.6c-2.4,1.2-5,1.8-7.7,1.7C239.2,229.7,236.6,228.9,234.3,227.5z M326.9,211.3
				c-0.2,22.6-0.4,45.3-0.6,67.9c0.1,2.8-0.5,5.5-1.7,7.9c-1.3,2.4-3.2,4.5-5.5,6l-52.7,34.1l-14.9,10c-1.1,0.7-2.3,1.3-4,2.2v-31.7
				c0-17.1,0.7-34.2,0.3-51.3c-0.3-4.3,0.7-8.5,2.8-12.2c2.2-3.7,5.4-6.6,9.3-8.4c21.7-12.1,43.3-24.7,64.9-37
				c0.6-0.2,1.2-0.4,1.8-0.5C326.9,202.9,326.9,207.1,326.9,211.3z"/>
		</g>
	</g>
	<path d="M698.3,342.2c-4.9,0-7.4-2.5-7.4-7.6V194.5h-45.3c-5.1,0-7.6-2.2-7.6-6.7c0-4.4,2.5-6.7,7.6-6.7h104.9
		c5.2,0,7.8,2.2,7.8,6.7c0,4.4-2.6,6.7-7.8,6.7h-45.1v140.1C705.4,339.6,703,342.2,698.3,342.2z"/>
	<path d="M827.6,342.2c-2.5,0-4.1-0.7-5.1-2.1c-0.8-1.4-0.7-3.3,0.2-5.8l59.3-147.9c1.1-3.5,3.6-5.3,7.6-5.3h1.1
		c4,0,6.5,1.8,7.6,5.3L958,334.3c1.7,5.2,0.1,7.8-4.8,7.8h-2.3c-3.7,0-6.2-1.8-7.6-5.3l-17-43.2h-72L837,336.9
		c-1.2,3.5-3.8,5.3-7.6,5.3H827.6z M859.1,280.1h62.1l-30.8-78.9L859.1,280.1z"/>
	<path d="M1063.2,342.2c-4.8,0-7.1-2.5-7.1-7.6V188.7c0-5.1,2.4-7.6,7.1-7.6c4.6,0,6.9,2.5,6.9,7.6v63l72.7-65.8
		c1.7-2,3.3-3.3,4.8-3.9c1.5-0.6,3.4-0.9,5.5-0.9c3.5,0,5.6,1.1,6.2,3.2c0.8,2,0.1,4.1-1.8,6.2l-74.3,66l80.7,77.1
		c1.7,2,2.2,4.1,1.6,6.2c-0.6,2-2.7,3-6.2,3c-2.6,0-4.8-0.5-6.4-1.4c-1.7-0.9-3.1-2.1-4.4-3.5l-78.4-77v73.6
		C1070.1,339.6,1067.8,342.2,1063.2,342.2z"/>
	<path d="M1274.2,342.2c-5.1,0-7.6-2.5-7.6-7.6V188.7c0-5.1,2.5-7.6,7.6-7.6h84.9c5.1,0,7.6,2.2,7.6,6.7c0,4.4-2.5,6.7-7.6,6.7
		h-78.4v58.4h70.8c5.1,0,7.6,2.3,7.6,6.9c0,4.6-2.5,6.9-7.6,6.9h-70.8v61.9h81.2c5.1,0,7.6,2.2,7.6,6.7c0,4.6-2.5,6.9-7.6,6.9
		H1274.2z"/>
	<path d="M1478.2,342.2c-4.8,0-7.1-2.5-7.1-7.6V188.7c0-5.1,2.8-7.6,8.3-7.6c4,0,7,1.7,9,5.1l52.2,78l51.8-78c1.2-2,2.6-3.3,4.1-3.9
		c1.5-0.8,3.4-1.2,5.8-1.2c5.1,0,7.6,2.5,7.6,7.6v145.8c0,5.1-2.4,7.6-7.1,7.6c-4.9,0-7.4-2.5-7.4-7.6V205.8l-47.8,72.5
		c-2,3.4-4.3,5.1-6.9,5.1c-2.8,0-5.1-1.7-7.1-5.1l-48.1-72.5v128.8C1485.3,339.6,1483,342.2,1478.2,342.2z"/>
	<path d="M1727.4,342.2c-5.1,0-7.6-2.5-7.6-7.6V188.7c0-5.1,2.5-7.6,7.6-7.6h84.9c5.1,0,7.6,2.2,7.6,6.7c0,4.4-2.5,6.7-7.6,6.7
		h-78.4v58.4h70.8c5.1,0,7.6,2.3,7.6,6.9c0,4.6-2.5,6.9-7.6,6.9h-70.8v61.9h81.2c5.1,0,7.6,2.2,7.6,6.7c0,4.6-2.5,6.9-7.6,6.9
		H1727.4z"/>
	<path d="M1921.3,342.2c-5.1,0-7.6-1.7-7.6-5.1c0-7.8,1.7-15.3,5.1-22.3c3.5-7.2,8.2-14.3,14-21.2c5.8-7.1,12.4-14.2,19.8-21.4
		c5.5-5.5,10.7-10.9,15.4-16.1c4.9-5.4,9-10.7,12.2-15.9c3.2-5.4,4.9-10.7,5.1-16.1c0.3-10.4-2.2-18.2-7.6-23.5
		c-5.2-5.2-12.6-7.8-22.1-7.8c-7.1,0-13,2.1-17.9,6.4c-4.9,4.3-7.9,10.6-9,18.9c-0.9,4.9-3.3,7.4-7.1,7.4c-2.2,0-3.8-0.7-5.1-2.1
		c-1.2-1.4-1.7-3.4-1.4-6c1.5-11.3,5.9-20.5,13.1-27.4c7.4-6.9,16.5-10.4,27.4-10.4c13.2,0,23.8,3.9,31.7,11.7
		c8,7.8,11.7,18.8,11.3,32.9c-0.2,7.1-2,13.8-5.5,20.2c-3.5,6.3-8,12.4-13.6,18.4c-5.4,6-11.2,12.1-17.5,18.4
		c-5.4,5.4-10.5,10.7-15.4,16.1c-4.9,5.2-9.1,10.5-12.4,15.9c-3.4,5.4-5.4,10.7-6.2,16.1h61.4c5.1,0,7.6,2.1,7.6,6.2
		c0,4.3-2.5,6.4-7.6,6.4H1921.3z"/>
	<path d="M2150.7,344.9c-10.9,0-21-1.7-30.4-5.1c-9.2-3.4-17.2-8.7-24.2-16.1c-3.4-3.8-3-7.1,1.2-9.9c3.4-2.6,6.7-2.1,10.1,1.6
		c11,10.6,25.5,15.9,43.5,15.9c7.2,0,13.8-1.1,19.8-3.2c6.1-2.1,11-5.4,14.7-9.9c3.7-4.4,5.5-10,5.5-16.6c0-5.8-1.2-10.9-3.7-15.2
		c-2.3-4.3-6.9-8.1-13.8-11.3s-17.2-6.1-30.8-8.5c-30.1-5.7-45.1-20.5-45.1-44.6c0-8.7,2.1-16.4,6.4-23c4.3-6.7,10.3-12,17.9-15.6
		c7.7-3.8,16.6-5.8,26.7-5.8c9.2,0,17.6,1.5,25.3,4.6c7.8,2.9,15.1,7.1,21.9,12.4c3.8,3.5,3.9,6.9,0.2,10.1c-3.1,3.1-6.5,3-10.4-0.2
		c-5.7-4.3-11.5-7.5-17.5-9.7s-12.6-3.2-19.8-3.2c-10.4,0-19.1,2.6-26,7.8c-6.8,5.1-10.1,12.4-10.1,22.1c0,8.4,2.7,15.3,8.1,20.5
		c5.5,5.2,15.4,9.1,29.7,11.7c19.8,3.5,34,9,42.6,16.6c8.6,7.5,12.9,17.9,12.9,31c0,9-2.5,16.9-7.4,23.5
		c-4.8,6.4-11.3,11.4-19.6,14.9C2170.3,343.2,2161,344.9,2150.7,344.9z"/>
	<path d="M2316.4,342.2c-4.8,0-7.1-2.5-7.1-7.6v-146c0-5.1,2.5-7.6,7.6-7.6h62.6c15.2,0,26.7,3.5,34.5,10.6c8,7.1,12,17.6,12,31.5
		s-4,24.5-12,31.5c-7.8,7.1-19.3,10.6-34.5,10.6h-56.1v69.5C2323.3,339.6,2321,342.2,2316.4,342.2z M2323.3,251.5h55
		c11,0,19.2-2.3,24.6-6.9c5.5-4.6,8.3-11.8,8.3-21.6s-2.8-17-8.3-21.6c-5.4-4.6-13.6-6.9-24.6-6.9h-55V251.5z"/>
	<path d="M2501.9,342.2c-2.4,0-4.1-0.7-5.1-2.1c-0.8-1.4-0.7-3.3,0.2-5.8l59.3-147.9c1.1-3.5,3.6-5.3,7.6-5.3h1.1
		c4,0,6.5,1.8,7.6,5.3l59.6,147.9c1.7,5.2,0.1,7.8-4.8,7.8h-2.3c-3.7,0-6.2-1.8-7.6-5.3l-17-43.2h-72l-17.2,43.2
		c-1.2,3.5-3.8,5.3-7.6,5.3H2501.9z M2533.4,280.1h62.1l-30.8-78.9L2533.4,280.1z"/>
	<path d="M2788.5,345.1c-14.6,0-27.4-3.5-38.4-10.4c-11-6.9-19.7-16.6-26-29.2c-6.1-12.6-9.2-27.3-9.2-44.2s3.1-31.5,9.2-43.9
		c6.3-12.6,14.9-22.3,26-29.2c11-7.1,23.8-10.6,38.4-10.6c11.4,0,21.6,2.2,30.8,6.7c9.4,4.4,17.3,10.7,23.9,18.9
		c1.5,1.7,2,3.4,1.4,5.1c-0.5,1.7-1.5,3.1-3.2,4.4l-0.7,0.2c-1.2,0.8-2.8,1.1-4.6,0.9c-1.7-0.2-3.3-1-4.8-2.5
		c-10.9-13-25.1-19.6-42.8-19.6c-11.5,0-21.7,2.8-30.6,8.5c-8.9,5.5-15.9,13.5-20.9,23.9c-5.1,10.4-7.6,22.8-7.6,37.3
		s2.5,26.9,7.6,37.5c5.1,10.4,12,18.5,20.9,24.1c8.9,5.5,19.1,8.3,30.6,8.3c8.6,0,16.6-1.7,23.9-5.1c7.4-3.5,13.7-8.4,18.9-14.5
		c3.2-3.2,6.4-3.8,9.4-1.8l0.7,0.5c1.7,1.1,2.8,2.5,3.2,4.4c0.6,1.7,0.2,3.4-1.1,5.1c-6.6,8-14.6,14.2-23.9,18.6
		C2810.2,342.9,2799.9,345.1,2788.5,345.1z"/>
	<path d="M2956.6,342.2c-5.1,0-7.6-2.5-7.6-7.6V188.7c0-5.1,2.5-7.6,7.6-7.6h84.9c5.1,0,7.6,2.2,7.6,6.7c0,4.4-2.5,6.7-7.6,6.7
		h-78.4v58.4h70.8c5.1,0,7.6,2.3,7.6,6.9c0,4.6-2.5,6.9-7.6,6.9h-70.8v61.9h81.2c5.1,0,7.6,2.2,7.6,6.7c0,4.6-2.5,6.9-7.6,6.9
		H2956.6z"/>
</g>
</svg>