<svg xmlns="http://www.w3.org/2000/svg" width="207" height="74" fill="none" viewBox="0 0 207 74"><path fill="#000" d="M115.88 39.265c-4.852 0-8.551-3.747-8.551-8.76 0-5.058 3.699-8.759 8.551-8.759 5.044 0 8.598 3.7 8.598 8.76 0 5.012-3.554 8.759-8.598 8.759m8.694-18.268c0 1.124.048 1.733.097 2.389h-.097c-1.008-2.436-4.275-4.731-8.838-4.731-7.11 0-12.01 5.059-12.01 11.85 0 6.793 4.66 11.898 11.914 11.898 4.419-.047 7.83-2.248 8.934-5.2h.097a33 33 0 0 0-.097 2.437v2.06h3.363V19.359h-3.363zM185.726 39.265c-4.9 0-8.551-3.747-8.551-8.76 0-5.058 3.651-8.759 8.551-8.759 5.044 0 8.599 3.7 8.599 8.76 0 5.012-3.555 8.759-8.599 8.759m8.695-19.907v1.639c0 1.124.048 1.733.096 2.389h-.096c-1.009-2.436-4.276-4.731-8.839-4.731-7.11 0-12.01 5.059-12.01 11.85 0 6.793 4.612 11.898 11.914 11.898 4.419-.047 7.83-2.248 8.935-5.2h.096a33 33 0 0 0-.096 2.437v2.06h3.362V19.359zM157.192 39.218c-4.9 0-8.551-3.7-8.551-8.712 0-5.06 3.651-8.76 8.551-8.76 4.996 0 8.598 3.7 8.598 8.76 0 5.012-3.602 8.712-8.598 8.712m8.454-26.934v8.15c0 1.219.048 1.828.096 2.436h-.144c-1.441-2.623-5.044-4.215-8.742-4.215-7.158 0-11.914 5.012-11.914 11.85 0 6.886 4.708 11.898 11.865 11.898 3.988 0 7.494-1.686 9.032-4.918h.144c-.096.656-.144 1.405-.144 2.389V41.7h3.314V12.285zM133.702 22.87V41.7h3.554V23.668c0-.656.577-1.218 1.249-1.218h5.477v-3.091h-6.726c-1.969 0-3.554 1.545-3.554 3.513M88.403 41.7l-8.647-22.342h3.939l6.917 19.251h.288l6.966-19.251h3.891L93.11 41.7zM47.018 6.654h-3.27c-.625 0-1.213.286-1.508.788l-8.635 14.692c-.662 1.11.183 2.508 1.506 2.508h20.543c1.36 0 2.168-1.397 1.507-2.508L48.525 7.442c-.294-.502-.882-.788-1.507-.788m-.956 3.26 6.726 11.431h-14.81l6.725-11.43zM73.036 50.693h-3.27c-.625 0-1.213.323-1.507.86L59.623 66.21a1.685 1.685 0 0 0 1.47 2.544h20.58c1.322 0 2.168-1.397 1.506-2.544l-8.636-14.656a1.75 1.75 0 0 0-1.507-.86m-.955 3.297 6.725 11.467H63.959l6.762-11.467zM59.99 28.655H42.682c-1.323 0-2.169 1.398-1.507 2.509l8.636 14.692c.33.537.882.86 1.507.86h17.345c1.323 0 2.132-1.434 1.47-2.545l-8.636-14.656c-.294-.537-.882-.86-1.507-.86m-.955 3.297 6.762 11.431H52.273l-6.725-11.43zM61.093 50.693H17.766c-.625 0-1.213.323-1.507.86L7.623 66.21c-.661 1.147.184 2.544 1.507 2.544h43.327c.624 0 1.212-.322 1.507-.86L62.6 53.238c.661-1.146-.184-2.544-1.507-2.544m-2.867 3.297-6.725 11.467H11.996l6.725-11.467zM34.046 28.655h-3.271c-.625 0-1.213.323-1.507.86l-8.636 14.656c-.661 1.111.147 2.545 1.507 2.545h20.543c1.323 0 2.168-1.434 1.506-2.545l-8.636-14.656a1.75 1.75 0 0 0-1.506-.86m-.956 3.297 6.725 11.431h-14.81l6.725-11.43zM89.335 56.532v-5.645h3.5v.733h-2.649v1.72h2.398v.73h-2.398v2.462zm15.972-2.823q0 .904-.33 1.555a2.43 2.43 0 0 1-.907.998 2.47 2.47 0 0 1-1.304.347q-.734 0-1.31-.347a2.44 2.44 0 0 1-.904-1q-.33-.651-.331-1.553 0-.903.331-1.552.331-.65.904-.997.576-.35 1.31-.35.73 0 1.304.35.576.347.907.997.33.649.33 1.552m-.843 0q0-.69-.223-1.16a1.64 1.64 0 0 0-.607-.717 1.57 1.57 0 0 0-.868-.245q-.489 0-.871.245-.384.242-.607.717-.22.47-.22 1.16t.22 1.164q.223.471.607.716.382.243.871.243.485 0 .868-.243a1.66 1.66 0 0 0 .607-.716q.222-.474.223-1.164m12.056-2.822h.855V54.6q0 .593-.279 1.05a1.94 1.94 0 0 1-.783.717q-.504.258-1.182.259-.675 0-1.18-.26a1.95 1.95 0 0 1-.783-.716 2 2 0 0 1-.278-1.05v-3.713h.852v3.644q0 .383.168.68.17.299.482.47.312.167.739.168.43 0 .741-.169.315-.171.48-.468.168-.298.168-.681zm13.17 0v5.645h-.783l-2.869-4.14h-.053v4.14h-.851v-5.645h.788l2.872 4.145h.053v-4.145zm9.591 5.645h-1.828v-5.645h1.886q.83 0 1.425.339.595.336.912.967.32.63.32 1.508 0 .882-.322 1.516a2.27 2.27 0 0 1-.927.976q-.606.34-1.466.34m-.976-.744h.929q.645 0 1.072-.243.427-.245.64-.708.212-.466.212-1.136 0-.665-.212-1.127a1.5 1.5 0 0 0-.626-.703q-.416-.24-1.034-.24h-.981zm11.467.744h-.904l2.032-5.645h.984l2.031 5.645h-.904l-1.596-4.62h-.044zm.152-2.21h2.933v.716h-2.933zm10.382-2.702v-.733h4.369v.733h-1.762v4.912h-.849V51.62zm12.706-.733v5.645h-.851v-5.645zm12.665 2.822q0 .904-.33 1.555a2.43 2.43 0 0 1-.907.998 2.47 2.47 0 0 1-1.304.347 2.5 2.5 0 0 1-1.31-.347 2.44 2.44 0 0 1-.904-1q-.33-.651-.331-1.553 0-.903.331-1.552.331-.65.904-.997.577-.35 1.31-.35.73 0 1.304.35.576.347.907.997.33.649.33 1.552m-.843 0q0-.69-.223-1.16a1.63 1.63 0 0 0-.607-.717 1.57 1.57 0 0 0-.868-.245 1.6 1.6 0 0 0-.871.245q-.384.242-.607.717-.22.47-.22 1.16t.22 1.164q.223.471.607.716.383.243.871.243.485 0 .868-.243.386-.245.607-.716.222-.474.223-1.164m12.982-2.822v5.645h-.782l-2.87-4.14h-.052v4.14h-.852v-5.645h.788l2.873 4.145h.052v-4.145z"/></svg>