<?xml version="1.0" encoding="UTF-8"?>
<svg id="Layer_1" xmlns="http://www.w3.org/2000/svg" version="1.1" viewBox="0 0 380.63 137.43">
  <!-- Generator: Adobe Illustrator 30.3.0, SVG Export Plug-In . SVG Version: 2.1.3 Build 182)  -->
  <defs>
    <style>
      .st0 {
        fill: CurrentColor;
      }

      .st1 {
        isolation: isolate;
      }

      .st2 {
        fill: CurrentColor;
        fill-rule: evenodd;
      }

      .st3 {
        fill: none;
        stroke: #231f20;
      }
    </style>
  </defs>
  <g>
    <path class="st0" d="M150.67,74.71c-1.18,0-2.14-.99-2.14-2.2s.96-2.21,2.14-2.21,2.15.98,2.15,2.21-.97,2.2-2.15,2.2h0ZM150.67,75.13c1.41,0,2.56-1.17,2.56-2.61s-1.15-2.62-2.56-2.62-2.54,1.17-2.54,2.62,1.14,2.61,2.54,2.61h0ZM149.81,73.5c0,.19-.05.18-.22.2h-.1v.14h1.15v-.14h-.12c-.17,0-.18-.07-.19-.23v-.9h.11c.13,0,.25-.01.35.1.14.15.36.86.52,1.05.07.09.13.09.23.12h.5v-.14c-.12,0-.18-.03-.24-.11-.08-.12-.18-.33-.23-.46-.12-.26-.27-.6-.57-.65.38-.07.71-.33.71-.76,0-.21-.13-.45-.3-.56-.22-.13-.54-.12-.79-.12h-1.12v.15h.11c.18,0,.21.03.21.21v2.1h-.01ZM150.32,71.49c0-.11-.02-.27.13-.27l.15-.02c.38,0,.6.19.6.59,0,.49-.32.61-.74.61h-.14v-.91h0Z"/>
    <g>
      <path class="st0" d="M161.89,65.69l1.36,4.7.85,3.36h1.94l2.75-9.55,6.47-21.23c.7-2.27.78-4.18,3.25-3.98v-1.55c-1.4.16-2.75.26-4.19.26s-2.78-.1-4.18-.26v1.55c4.65-.2,3.44,2.07,2.67,4.96l-1.66,6.25-5.08,16.84-6.04-20.4-1.47-5.74c-.27-1.03-.5-2.01,3.22-1.91v-1.55c-1.71.16-3.41.26-5.16.26s-3.44-.1-5.15-.26v1.55l.73.05c2.13.41,1.82.62,2.68,3.41,0,0,7.01,23.24,7.01,23.24Z"/>
      <path class="st0" d="M186.4,56.5c8.76-.41,9.02-.73,9.02,5.11h1.28v-11.93h-1.28c-.04,5.06-.57,4.44-9.02,4.33v-9.66c0-1.81.04-3,.2-4.28,1.27-.26,3.1-.26,4.8-.26,1.94,0,3.91.1,5.77.88.27,1.6.5,3.05.54,5.06h1.2c0-1.09.11-1.96.11-3.05.04-1.65.2-3.31.62-5.01-1.32-.26-3.99-.2-6.43-.26-2.32.16-4.69.26-7.09.26s-4.72-.1-7.08-.26v1.55c3.72.26,3.68.62,3.68,4.65v23.71c0,3.46-1.4,4.54-3.33,4.64v1.55c2.37-.15,4.65-.26,7.01-.26s4.69.11,6.97.26c2.4-.05,5,0,6.43-.26v-4.28c0-1.65.23-3.1.38-4.18h-1.27l-.35,2.84c-.08.93-.27,1.86-.46,2.64-2.02.77-4.15.87-6.24.87-1.86,0-3.84,0-5.27-.25-.16-1.35-.2-2.59-.2-4.45v-9.96h.01Z"/>
      <path class="st0" d="M205.29,67.35c0,4.03.04,4.39-3.67,4.64v1.55c1.74-.15,3.56-.26,5.46-.26s3.72.11,5.58.26v-1.55c-3.72-.26-3.68-.62-3.68-4.64v-23.71c0-1.6,0-2.68.23-3.56,1.05-.42,2.52-.68,3.87-.68,2.86,0,5.96,1.65,5.96,7.23,0,3.82-2.33,6.61-5.04,7.23-1.16.26-2.36.31-3.56.2l-.16.78,9.22,15.8c.54.88.97,1.81,1.59,2.89.89-.15,1.74-.26,2.63-.26s1.79.11,2.63.26v-1.55c-.77-.16-1.58-.46-2.2-1.45l-8.8-15.28c3.76-.98,7.55-4.34,7.55-9.97,0-4.34-2.48-8.21-7.83-7.86-2.24.16-4.49.26-6.78.26s-4.53-.1-6.7-.26v1.55c3.71.26,3.67.62,3.67,4.65v23.71l.03.02Z"/>
      <path class="st0" d="M253.75,43.64v23.71c0,4.03.04,4.39-3.68,4.64v1.55c1.74-.15,3.56-.26,5.46-.26s3.72.11,5.58.26v-1.55c-3.72-.26-3.68-.62-3.68-4.64v-24.84c0-3,.7-3.46,3.02-3.51h.58v-1.55c-1.2.16-2.44.26-3.68.26s-2.48-.1-3.68-.26c-.5,2.28-1.24,4.5-2.09,6.87l-7.99,21.9-10.22-28.77c-1.2.16-2.45.26-3.68.26s-2.48-.1-3.68-.26v1.55l.62.05c2.37,0,3.06.46,3.06,3.46v25.98c0,3-.7,3.46-3.06,3.46l-.62.05v1.55c1.55-.15,3.1-.26,4.65-.26s3.1.11,4.61.26v-1.55l-.62-.05c-2.44,0-3.18-.46-3.18-3.46v-24.84l10.81,30.32h.78l10.69-30.32h0Z"/>
      <path class="st0" d="M276.24,36.67c-8.98-.16-14.56,8.11-14.56,18.64,0,11.78,5.89,19.01,13.75,19.01,8.48,0,14.99-8.88,14.99-19.98s-5.88-17.66-14.18-17.66h0ZM276.67,72.1c-7.67,0-10.85-9.45-10.85-18.49,0-8.47,3.06-14.72,9.8-14.72,7.2,0,10.65,6.82,10.65,17.04,0,9.5-3.13,15.6-9.6,16.17h0Z"/>
      <path class="st0" d="M297.66,37.44c-1.12.16-2.21.26-3.33.26s-2.24-.1-3.37-.26v1.55h.54c2.17.05,2.79.52,2.79,3.51v25.98c0,3-.69,3.46-3.06,3.46l-.62.05v1.55c1.55-.15,3.1-.26,4.65-.26s3.09.11,4.6.26v-1.55l-.62-.05c-2.44,0-3.17-.46-3.17-3.46v-25.21l18.71,30.32,3.06.72-.12-1.91v-29.9c0-3,.74-3.46,3.18-3.46l.62-.05v-1.55c-1.51.16-3.06.26-4.61.26s-3.1-.1-4.64-.26v1.55l.62.05c2.36,0,3.06.46,3.06,3.46v25.67l-18.28-30.74h-.01Z"/>
      <path class="st0" d="M331.58,67.35c0,4.03.03,4.39-3.68,4.64v1.55c1.74-.15,3.56-.26,5.46-.26s3.72.11,5.58.26v-1.55c-3.72-.26-3.68-.62-3.68-4.64v-22.11c.04-1.96.04-3.61.15-5.16l6.04.26c.81.05,1.28.21,1.36,1.55.15,1.24.38,2.58.42,3.98h1.17c0-.97,0-1.91.04-2.89.03-1.8.07-3.62.19-5.53-3.76.16-7.44.26-11.2.26s-7.47-.1-11.15-.26c.12,1.91.16,3.72.2,5.53.03.98.03,1.92.03,2.89h1.17c.03-1.39.27-2.74.43-3.98.08-1.34.54-1.5,1.35-1.55l5.97-.26c.12,1.55.12,3.2.16,5.16v22.11h-.01Z"/>
    </g>
    <path class="st2" d="M112.71,37.82c.11.03.43.2.46.26l.21.57.21.41.36.26.26.46.21.36.1.88-.1.83v.47c.07.08-.08.49-.11.62-.24.02-.35.11-.47.26l-.26.47-.57.25-.51.26-.21.47c-.12.02-.3.07-.36.15l-.31.41-.62.52c-.37.12-.51.28-.77.36-.29.09-.69-.04-.93.11l-.36.41-.41.52-.57.05-.41-.05-.57.2c-.16.17-.27.11-.41.15l-.72.06h-1.19l-.67-.21-1.04-.1-.36-.26-.41-.21-.36-.36-.41-.26c-.14-.13-.29-.26-.52-.31-.06-.23-.19-.18-.26-.41-.16-.03-.44-.17-.57-.26l-.41-.41-.16-.57-.11-.36.16-.36-.21-.47.05-.67-.1-.57.15-.57c.32-.41.58-.45.62-.51l.16-.47c.08-.2.07-.35.31-.42l.41-.26c.4-.5.49-.66.72-.72.24-.33.48-.39.52-.72l.52-.15.62-.42.41-.57.46-.05.52-.25.41-.26c.41-.23.61-.07.77-.15.17-.19.79-.26.93-.2.32.32.45.31.52.36l.36.16c.43-.13.45-.04.52-.05l.51-.05.72-.05h.78l.67.11.36.15.46.25.62.52c.25.09.32.2.36.41l.02-.02ZM105.9,38.7l-.98.15-.41.1-1.24.15-.1.47c-.27.21-.36.24-.41.31-.17,0-.23.02-.36.05-.01.38-.18.3-.26.57-.23.05-.29.1-.62.11-.07.13-.1.18-.11.41-.12.02-.23.08-.41.05l-.51.36-.16.72-.21.47c-.14.29.03.51.11.67l.05.36.56.51c.33.09.32.25.37.31l.41.21.72.31.62.15,1.14.26h.62l.36.05.52.05.57-.15.72-.15.41-.31.52-.15c.38-.16.46-.27.62-.31l.26-.57c.41-.15.7-.23.88-.36.25-.21.31-.17.41-.2.12-.3.21-.8.41-.93l.31-.36c-.08-.15-.11-.44-.05-.57.04-.09.23-.09.16-.36l-.1-.51c-.39-.29-.2-.34-.31-.52l-.36-.31-.77-.31-.41-.26-.36-.1-.56-.05-1.92-.21-.1-.1h-.03ZM47.15,63.38c.09-.32.41-.16.47-.62-.75.32-.59.47-.68.62-.2.13-.4.08-.51.15l-.83.57c-.36.17-.7.46-.72.98h.47c.53-.41.66-.4.72-.47l.83-.93.26-.31h-.01ZM120.77,60.64c-.12.18-.27.14-.31.41.23.14.16.21.57.21l.41-.11,1.08.21-.36-.37-.41-.05-.42-.16-.57-.16v.02ZM121.91,60.54l-.11-.37-.1.42.21-.05ZM50.66,59.71c-.12.29-.09.36-.15.42l-.78.31-.41.52c-.1.27-.2.41-.42.46.09.31.08.33.21.36l.41-.2.57-.46c.55-.62.58-.64.67-.72l.36-.21c.3-.27.48-.28.52-.67l-.36.05-.36.05-.26.1h0ZM57.12,58.63l.41.41.42-.05-.36-.26c-.24-.21-.38-.12-.46-.1h0ZM72.79,56.57c-.12,0-.24-.06-.34.05.15.13.01.15.34.15v-.2ZM109,54.14l.46.47c-.14.21-.26.25-.46.26-.09-.2.06-.37.05-.47l-.05-.26ZM110.39,53.93c.22,0,.32.04.47.11l.26.41c-.2.1-.43.04-.56.11-.34.24-.76.14-.83,0,.19-.27.57-.34.62-.42l.05-.2h-.01ZM112.46,53.73l.51.51c-.08.31-.49.26-.77.26-.15-.26-.03-.42,0-.57,0,0,.26-.2.26-.2ZM80.6,45.16l.68.11.36.2.41.05.72.47.52.26.36.1.62.57.47.11.2.36.37.1.15.37.62.21.98.26.88.31c.05.13.12.21.16.36l.77-.06.36.16c.51.31.6.5.77.57l.47.05.46.1.67.41.77.26.41.41.46.15.41.21.93.26.62.47.83.26.62.21.41.41.57.62.36.11.37.05c.16.1.29.03.41.11l.37.2.82.41.36.21.36.31.67.21c.11.1.29.13.36.21l.56.21.77.21c0-.18-.03-.48.05-.57.05-.21.15-.22.41-.21l.67.31.36.16.67.31c.39.37.34.5.57.57l.46.1h.52l.36-.26.42-.1.61-.26,1.13-.31c.11-.03.45-.15.62-.1l.46.05.67.2c.51-.51,1.22-.74,1.29-.72.09.08.24.13.36.1l.73-.05.67.36c.23.2.29.2.42.21l.46-.47c.09-.03.26-.14.42-.11l.51.05.42.05c.18.05.24.1.52.1-.34-.29-.36-.21-.36-.21l-.83-.31-.83-.11-.36-.15-.52-.05.52-.31.57.05,1.08.2.51.21.78.11.67.46h.67l.51.21.36.2.47.16.46.21c.28.25.44.24.51.57l.72.21.62.26.36.16.36.16.36.21.62.52.57.46.46.16.72.52c.91.21,1.2.31,1.29.67.16.03.23.08.41.1.23.22.24.25.26.37.23.03.71.04.88.15l.31.36.41.16.57.25.36.15.46.26.42.26.36.26.57.46.42.21.36.16c.45.36.68.21.78.57.63.24.9.51,1.29.62l.67.52.57.36.41.26.62.67.77.47.57.61.36.16.62.52.57.46.31.57.37.11.36.2c.34.41.17.59.26.72.22.2.15.03.36.11l.41.15.36.41c.23.39.34.57.36.88l.72.56.15.37.36.31.36.36c.35.36.57.62.62.82.14.17.22.24.26.41-.62-.09-.64-.08-.67-.2-.38-.16-.54-.08-.67-.16l-.41-.26-.41-.31-.16-.37-.72-.67-.46-.62-.36-.31c-.14-.1-.3-.14-.41-.26-.42-.47-.33-.52-.36-.62-.2-.29-.32-.39-.47-.46-.53-.35-.53-.39-.57-.41-.46-.31-.46-.45-.62-.51l-.67-.21-.31-.41c-.49-.47-.5-.45-.52-.45l-.1-.33c-.2,0-.25-.01-.36-.1l-.51-.11c-.44-.31-.49-.15-.62-.21l-.36-.16-.36-.15c-.26-.29-.22-.34-.26-.36l-.51-.1-.57-.15-.47-.16-.62-.36c-.19-.23-.06-.42-.46-.46-.25.15-.32.12-.46.05l-.98-.72h-.36c-.1-.09-.57-.11-.78-.1l-.46.1c-.13-.39,0-.59-.57-.57l-.57-.51-.36-.21c-.2-.23-.32-.32-.51-.42l-.47-.05-.36-.26-.62-.11-.77-.05-.98-.57c-.35-.11-.58.09-.62.11h-.47c-.12.03-.42.16-.62.1l-.41-.16-1.04-.05h-.72l-.41-.05-.37.16.11.46-.41.05h-.46c-.12-.1-.2-.09-.36-.1-.06.1-.18.24-.21.36-.2.45-.33.66-.72.67-.36.28-.53.51-.67.57l-.67.41c-.54.36-.51.21-.52.62.12.12.16.57.16.83-.6.12-.72.19-.72.21-.07.43-.27.41-.47.41-.1-.14-.31-.18-.52-.2l-.36-.05-.62-.16-.98-.51-.41-.06-.62-.25-.67-.31-.41-.36-.36-.42c-.22-.16-.3-.19-.36-.26-.19-.25-.23-.35-.52-.36l-1.6-.21-.36-.15-.88-.31-.36-.31-.46-.21-.67-.66-.41-.06-.67-.26-.36-.2-.98-.26c-.47-.3-.9-.35-.98-.67l-1.08-.21c-.24-.1-.39-.1-.52-.2l-.36-.31-1.04-.31-.41-.26-.67-.41-.56-.41-.62-.21-.72-.51-.93-.16-.62-.36-.36-.1-.57-.26-.36-.26-.67-.52-.46-.16-.52-.1c-.26-.23-.5-.25-.57-.52-.2-.05-.34-.2-.46-.31-.47-.3-.55-.52-.57-.61-.23,0-.58.04-.72-.05l-.47-.26c-.15-.18-.22-.23-.36-.26-.17-.26-.1-.4-.41-.46l-.36-.31-.36-.46-.47-.57-.31-.36-.52-.62-.41-.26-.16-.52-.41-.26c-.22-.31-.26-.43-.31-.46-.27-.09-.49-.53-.52-.62-.45-.35-.75-.36-.98-.36-.04.23-.24.45-.41.57h-1.34c-.14.24-.03.43,0,.46l.2.52-.67-.15-.62-.1.52.46.62.47c-.37.68-.8.43-1.19.41-.16.11-.33.11-.62.1-.08.16-.1.09-.11.36.3.23.07.54.05.93l-.26.62c-.39.16-.49.21-.67.31l-.47.21c-.35.28-.42.33-.56.36-.03.13-.05.19-.05.36.11.24.04.28-.05.36-.48.31-.82.35-1.08.36l-.36.11-.36-.26c-.12-.06-.3-.03-.41-.1-.1.43-.09.36,0,.47.13.11.05.27.11.41.17.33.13.27.1.31l-.37.16c-.44.28-.38.14-.51.31.1.49-.09.65-.2.77l-.21.36s-.35.23-.42.26l-.51.2c-.34.26-.51.19-.62.26l-.31.37-.73.15c-.22.23-.48.3-.67.31l-.51.36-.83.05c-.16-.1-.3-.02-.41,0-.42.51-.63.24-.83.52-.15.18.03.33-.31.41l-.62.47-.31.62c-.28.22-.36.24-.41.31-.18,0-.38-.16-.52-.1-.31.21-.57,0-.77.2l.05.52-.1.36h-.83l-.62.46c-.47.6-.49.61-.51.72l-1.03.05c-.27.16-.39.25-.52.31l.36.26c.19.16.3.17.31.46l-.36.16c-.02-.14-.05-.23-.05-.41h-.36l-.62.26-.36.21c-.33.19-.39.03-.46.31-.12.13,0,.32.05.46l.21.36-.73-.05h-.41c-.53.25-.53.4-.57.46-.23.2-.28.26-.51.31-.26.24-.2.25-.26.36l-.62.42c-.39.23-.52.15-.78.15l.16.41-.62.52c-.58.41-.68.46-.88.47-.13-.17-.16-.24-.36-.26l-.67.41-.52.26-.05.51-.31.36c-.19.15-.28.14-.31.36.27.29.24.35.21.52l-.36.05c-.02-.12-.05-.19-.05-.36-.18-.07-.51-.05-.78-.05-.11.19-.31.36-.56.41-.44.38-.6.63-.62.67-.32.39-.4.44-.52.41-.13-.04-.37-.27-.57-.21l-.36.21-.47-.05v.36c-.09.03-.51.11-.57.11l-.36.05-.77.11h-.36l-.26.37c-.33.15-.47.08-.57.15-.28.3-.52.09-.72.15l-1.09.1h-.41l-.62.05c-.35.11-.54.16-.83.11-.11-.23-.24-.4-.36-.32l-.46-.2-.72-.05c-.25-.28-.17-.41-.26-.47l-.62.06-.46-.36c-.05-.16-.29-.24-.36-.26l-.88.11-.36-.26-.36-.26c-.43-.32-.57-.09-.67-.41.14-.47.19-.26.46-.36l.62-.21.26-.47.46-.62.67-.52c.08-.06.09-.27.15-.36l.21-.36c.34-.22.34-.4.62-.47l.72-.62.47-.62c.25-.21.4-.37.57-.46l.93-.31c-.06-.33-.09-.4-.11-.57l.62-.41c.25-.03.37,0,.62-.05l.41-.62c.41-.34.35-.22.47-.36l.67-.72c.11-.24.12-.24.15-.36l.93.1.05-.72.78-.57.31-.46.36-.16c.27-.26.5-.25.78-.25v-.41l.57-.31c.27-.29.3-.35.51-.37.08-.25.24-.39.31-.41l.52-.05-.05-.42c.19-.04.29-.14.41-.26l.57-.31.52-.57.26-.36c.21-.35.34-.25.41-.51l.78-.16c.05-.22.2-.22.26-.46l.36-.15c.54-.22.69-.2.87-.2,0-.39.13-.25.21-.52.37-.21.55-.17.62-.26l.36-.47.41-.21.36-.51.72-.31c.53-.66.45-.55.62-.62l.83-.26.42-.77c.23,0,.35,0,.47-.1l1.34-.67.41-.26.62-.26c.26-.34.2-.41.26-.46l.36-.11c.37-.14.53-.25.72-.2.2.11.31-.02.41.05.31.27.35.2.36.47l-.61-.05-.16.46c-.08.1-.19.14-.36.15l-.57.21c-.43.41-.57.35-.67.41l-.41.46-.36.26c-.17.21-.25.28-.46.31-.26-.15-.36-.15-.52-.15l-.77.26v.36c-.22.12-.39.3-.67.36v.47c-.09.26-.42.35-.83.31l-.57.72c-.18.04-.28.14-.41.21l-.57.05-.11.41c-.12.28-.39.22-.72.21-.23.29-.22.29-.21.41-.55.68-.91.79-1.08.83l-.1.46c-.51.23-.63.11-.77.26l-.57.47-.26.36c-.32.25-.4.37-.57.41l.46.16c.37-.02.46-.08.57-.11l.41-.46.37-.15.98-.05c-.21-.32-.31-.44-.31-.78l.57-.15c.55-.57.47-.62.83-.62.06.06.35.09.46.1l.05-.46c.17-.12.43,0,.62-.05.25-.08.33-.2.67-.21-.06-.23-.19-.19-.21-.51l.72-.57.73-.57h.51c.09-.33.2-.16.47-.26.26-.29.28-.38.31-.51.12-.08.27-.39.31-.41l.72-.31c.14-.26.26-.3.31-.36h.47c.31-.33.4-.36.47-.41.44-.26.49-.32.67-.36.06-.24.44-.42.82-.31.48-.11.49-.2.83-.21l-.05-.41.36-.15.26-.52.36-.05.46-.21c.32-.32.51-.27.62-.36.56-.25.57-.51,1.08-.52l.52-.42.46-.1.36-.26.72-.26.57-.46.98-.31.41-.11,1.39-.11v-.36c.23-.13.33-.35.67-.36l-.52-.2-1.55.15-.57.47c-.25.31-.65.38-.93.46-.35.1-.59-.11-.88,0l-.36.16-.62.67c-.19.1-.23-.06-.46,0l-.67-.05c-.02.23-.17.69-.31.77l-.47.11c-.26.24-.39.3-.67.31l-.62.41-.37.05-.72-.05c-.1-.31-.03-.27,0-.52.42-.16.64-.34.87-.42h.36l.36.31c.28-.13.38-.19.52-.25-.04-.1-.05-.2-.05-.36.28-.3.33-.37.41-.46l.31-.52c.22-.11.52-.14.67-.1l.93-.21.46-.26.36-.26.67-.36.72-.26c.25-.19.34-.34.72-.36l.62-.26c.44-.26.82,0,.93.05l.62-.36.36-.36h.46l.67-.15c.2-.13.32-.19.46-.31.22-.18.39-.02.46,0l.72-.11.36-.15.98-.05c.44.19.54.09.62.05.24-.15.64.02.78.05.22.1.38.09.73.1.14.2.39.1.46.36l.1.47.03-.09Z"/>
  </g>
  <g class="st1">
    <g class="st1">
      <path class="st0" d="M47.27,91.28h2.3l1.54,7.62,1.59-7.62h1.88l-2.45,10.05-2.46-.05-2.4-10Z"/>
      <path class="st0" d="M55.32,91.28h6.08v1.71h-3.88v2.32h3.02v1.71h-3.02v2.46h3.88v1.79h-6.08v-10Z"/>
      <path class="st0" d="M62.48,91.28h3.14c.61,0,1.08.03,1.4.08.32.06.65.21.99.45.33.25.59.58.78,1.01.19.43.28.91.28,1.44,0,1.25-.47,2.13-1.41,2.64l1.84,4.37h-2.39l-1.34-3.96h-1.1v3.96h-2.2v-10ZM64.68,92.9v2.8h.97c.86,0,1.29-.48,1.29-1.44,0-.33-.06-.6-.19-.82-.13-.21-.27-.36-.44-.43-.17-.08-.42-.11-.74-.11h-.88Z"/>
      <path class="st0" d="M70.65,91.28h3.22l1.41,6.17,1.59-6.17h3.13v10h-2.06v-8.37l-2.04,8.37h-1.6l-1.87-8.37v8.37h-1.79v-10Z"/>
      <path class="st0" d="M88.8,96.28c0,3.44-1.21,5.16-3.63,5.16-1.2,0-2.11-.44-2.72-1.32-.61-.88-.92-2.16-.92-3.84,0-3.43,1.21-5.15,3.63-5.15,1.18,0,2.08.43,2.7,1.29s.93,2.15.93,3.86ZM86.48,96.28c0-1.35-.1-2.25-.31-2.69-.21-.45-.54-.67-1-.67s-.79.22-1,.67-.31,1.35-.31,2.69.1,2.21.31,2.67c.21.46.54.7,1,.7s.79-.22,1-.67c.21-.44.32-1.34.32-2.7Z"/>
      <path class="st0" d="M90.25,91.28h2.44l2.57,6.21v-6.21h1.7v10h-1.96l-3.05-7.24v7.24h-1.7v-10Z"/>
      <path class="st0" d="M97.64,91.28h6.23v1.88h-2.04v8.12h-2.2v-8.12h-1.99v-1.88Z"/>
      <path class="st0" d="M112.29,97.64l2.03.12c-.07,1.08-.42,1.97-1.03,2.65-.62.68-1.43,1.02-2.44,1.02-1.23,0-2.17-.46-2.81-1.37s-.97-2.17-.97-3.77.32-2.88.96-3.79,1.59-1.37,2.85-1.37c2.08,0,3.22,1.29,3.41,3.87l-2.01.15c-.05-1.48-.52-2.23-1.39-2.23-.46,0-.82.24-1.1.72-.27.48-.41,1.41-.41,2.78,0,1.23.12,2.08.37,2.54.25.46.62.69,1.12.69.8,0,1.27-.67,1.41-2.01Z"/>
      <path class="st0" d="M115.61,91.28h6.08v1.71h-3.88v2.32h3.02v1.71h-3.02v2.46h3.88v1.79h-6.08v-10Z"/>
      <path class="st0" d="M122.69,91.28h2.44l2.57,6.21v-6.21h1.7v10h-1.96l-3.05-7.24v7.24h-1.7v-10Z"/>
      <path class="st0" d="M130.08,91.28h6.23v1.88h-2.04v8.12h-2.2v-8.12h-1.99v-1.88Z"/>
      <path class="st0" d="M137.07,91.28h6.08v1.71h-3.88v2.32h3.02v1.71h-3.02v2.46h3.88v1.79h-6.08v-10Z"/>
      <path class="st0" d="M144.23,91.28h3.14c.61,0,1.08.03,1.4.08.32.06.65.21.99.45.33.25.59.58.78,1.01.19.43.28.91.28,1.44,0,1.25-.47,2.13-1.41,2.64l1.84,4.37h-2.39l-1.34-3.96h-1.1v3.96h-2.2v-10ZM146.42,92.9v2.8h.97c.86,0,1.29-.48,1.29-1.44,0-.33-.06-.6-.19-.82-.13-.21-.27-.36-.44-.43-.17-.08-.42-.11-.74-.11h-.88Z"/>
      <path class="st0" d="M155.2,91.28h5.93v1.71h-3.74v2.61h2.88v1.71h-2.88v3.96h-2.2v-10Z"/>
      <path class="st0" d="M168.87,96.28c0,3.44-1.21,5.16-3.63,5.16-1.2,0-2.11-.44-2.72-1.32-.61-.88-.92-2.16-.92-3.84,0-3.43,1.21-5.15,3.63-5.15,1.18,0,2.08.43,2.7,1.29s.93,2.15.93,3.86ZM166.56,96.28c0-1.35-.1-2.25-.31-2.69-.21-.45-.54-.67-1-.67s-.79.22-1,.67-.31,1.35-.31,2.69.1,2.21.31,2.67c.21.46.54.7,1,.7s.79-.22,1-.67c.21-.44.32-1.34.32-2.7Z"/>
      <path class="st0" d="M170.4,91.28h3.14c.61,0,1.08.03,1.4.08.32.06.65.21.99.45.33.25.59.58.78,1.01.19.43.28.91.28,1.44,0,1.25-.47,2.13-1.41,2.64l1.84,4.37h-2.39l-1.34-3.96h-1.1v3.96h-2.2v-10ZM172.6,92.9v2.8h.97c.86,0,1.29-.48,1.29-1.44,0-.33-.06-.6-.19-.82-.13-.21-.27-.36-.44-.43-.17-.08-.42-.11-.74-.11h-.88Z"/>
      <path class="st0" d="M184.88,95.95h3.47v5.33h-.93l-.29-1.14c-.54.86-1.34,1.3-2.42,1.3-1.14,0-2.04-.45-2.71-1.34-.67-.9-1-2.1-1-3.61,0-1.65.33-2.95.99-3.91.66-.96,1.63-1.44,2.91-1.44,2.05,0,3.19,1.14,3.44,3.43l-1.98.32c-.14-1.31-.61-1.96-1.42-1.96-.49,0-.89.24-1.18.73-.3.48-.44,1.4-.44,2.75,0,1.2.14,2.04.43,2.53s.71.73,1.27.73c.89,0,1.34-.66,1.35-1.99h-1.49v-1.71Z"/>
      <path class="st0" d="M190.07,91.28h6.08v1.71h-3.88v2.32h3.02v1.71h-3.02v2.46h3.88v1.79h-6.08v-10Z"/>
      <path class="st0" d="M204.12,96.28c0,3.44-1.21,5.16-3.62,5.16-1.2,0-2.11-.44-2.72-1.32-.61-.88-.92-2.16-.92-3.84,0-3.43,1.21-5.15,3.62-5.15,1.18,0,2.08.43,2.7,1.29s.93,2.15.93,3.86ZM201.81,96.28c0-1.35-.1-2.25-.31-2.69-.21-.45-.54-.67-1-.67s-.79.22-1,.67-.31,1.35-.31,2.69.1,2.21.31,2.67c.21.46.54.7,1,.7s.79-.22,1-.67c.21-.44.32-1.34.32-2.7Z"/>
      <path class="st0" d="M209.16,95.95h3.47v5.33h-.93l-.29-1.14c-.54.86-1.34,1.3-2.42,1.3-1.14,0-2.04-.45-2.71-1.34-.67-.9-1-2.1-1-3.61,0-1.65.33-2.95.99-3.91.66-.96,1.63-1.44,2.91-1.44,2.05,0,3.19,1.14,3.44,3.43l-1.98.32c-.14-1.31-.61-1.96-1.42-1.96-.49,0-.89.24-1.18.73-.3.48-.44,1.4-.44,2.75,0,1.2.14,2.04.43,2.53s.71.73,1.27.73c.89,0,1.34-.66,1.35-1.99h-1.49v-1.71Z"/>
      <path class="st0" d="M214.35,91.28h3.14c.61,0,1.08.03,1.4.08.32.06.65.21.99.45.33.25.59.58.78,1.01.19.43.28.91.28,1.44,0,1.25-.47,2.13-1.41,2.64l1.84,4.37h-2.39l-1.34-3.96h-1.1v3.96h-2.2v-10ZM216.54,92.9v2.8h.97c.86,0,1.29-.48,1.29-1.44,0-.33-.06-.6-.19-.82-.13-.21-.27-.36-.44-.43-.17-.08-.42-.11-.74-.11h-.88Z"/>
      <path class="st0" d="M224.29,91.28h2.21l2.86,10h-2.25l-.5-2.07h-2.82l-.49,2.07h-2.02l3-10ZM226.2,97.5l-1.01-4.1-.97,4.1h1.98Z"/>
      <path class="st0" d="M230.19,91.28h2.88c.87,0,1.55.07,2.03.22.48.15.89.48,1.21.99.33.51.49,1.15.49,1.92s-.13,1.34-.4,1.82-.63.82-1.09,1.04c-.47.21-1.18.32-2.15.32h-.78v3.7h-2.2v-10ZM232.39,92.9v2.97h.68c.6,0,.99-.14,1.16-.42.17-.28.26-.64.26-1.09,0-.38-.07-.68-.2-.91-.13-.23-.29-.38-.47-.45-.18-.07-.43-.1-.75-.1h-.68Z"/>
      <path class="st0" d="M237.86,91.28h2.2v4.04h2.4v-4.04h2.2v10h-2.2v-4.09h-2.4v4.09h-2.2v-10Z"/>
      <path class="st0" d="M246.54,91.28h2.2v10h-2.2v-10Z"/>
      <path class="st0" d="M255.5,97.64l2.03.12c-.07,1.08-.42,1.97-1.03,2.65-.62.68-1.43,1.02-2.44,1.02-1.23,0-2.17-.46-2.81-1.37s-.97-2.17-.97-3.77.32-2.88.96-3.79,1.59-1.37,2.85-1.37c2.08,0,3.22,1.29,3.41,3.87l-2.01.15c-.05-1.48-.52-2.23-1.39-2.23-.46,0-.82.24-1.09.72-.27.48-.41,1.41-.41,2.78,0,1.23.12,2.08.37,2.54.25.46.62.69,1.12.69.8,0,1.27-.67,1.41-2.01Z"/>
      <path class="st0" d="M261.61,91.28h2.2v10h-2.2v-10Z"/>
      <path class="st0" d="M265.62,91.28h2.44l2.57,6.21v-6.21h1.7v10h-1.96l-3.05-7.24v7.24h-1.7v-10Z"/>
      <path class="st0" d="M274.13,91.28h5.93v1.71h-3.74v2.61h2.88v1.71h-2.88v3.96h-2.2v-10Z"/>
      <path class="st0" d="M287.8,96.28c0,3.44-1.21,5.16-3.63,5.16-1.2,0-2.11-.44-2.72-1.32-.61-.88-.92-2.16-.92-3.84,0-3.43,1.21-5.15,3.63-5.15,1.18,0,2.08.43,2.7,1.29s.93,2.15.93,3.86ZM285.49,96.28c0-1.35-.11-2.25-.32-2.69-.21-.45-.54-.67-1-.67s-.79.22-1,.67-.32,1.35-.32,2.69.1,2.21.31,2.67c.21.46.54.7,1,.7s.79-.22,1-.67c.21-.44.32-1.34.32-2.7Z"/>
      <path class="st0" d="M289.33,91.28h3.14c.61,0,1.08.03,1.4.08.32.06.65.21.99.45.33.25.59.58.78,1.01.19.43.28.91.28,1.44,0,1.25-.47,2.13-1.41,2.64l1.84,4.37h-2.39l-1.34-3.96h-1.1v3.96h-2.2v-10ZM291.53,92.9v2.8h.97c.86,0,1.29-.48,1.29-1.44,0-.33-.06-.6-.19-.82-.13-.21-.27-.36-.44-.43-.17-.08-.42-.11-.74-.11h-.88Z"/>
      <path class="st0" d="M297.51,91.28h3.22l1.41,6.17,1.59-6.17h3.13v10h-2.06v-8.37l-2.04,8.37h-1.6l-1.87-8.37v8.37h-1.79v-10Z"/>
      <path class="st0" d="M310.51,91.28h2.21l2.86,10h-2.25l-.5-2.07h-2.82l-.49,2.07h-2.02l3-10ZM312.42,97.5l-1.01-4.1-.97,4.1h1.98Z"/>
      <path class="st0" d="M315.03,91.28h6.23v1.88h-2.04v8.12h-2.2v-8.12h-1.99v-1.88Z"/>
      <path class="st0" d="M322.02,91.28h2.2v10h-2.2v-10Z"/>
      <path class="st0" d="M333.01,96.28c0,3.44-1.21,5.16-3.63,5.16-1.2,0-2.11-.44-2.72-1.32-.61-.88-.92-2.16-.92-3.84,0-3.43,1.21-5.15,3.63-5.15,1.18,0,2.08.43,2.7,1.29s.93,2.15.93,3.86ZM330.69,96.28c0-1.35-.11-2.25-.32-2.69-.21-.45-.54-.67-1-.67s-.79.22-1,.67-.32,1.35-.32,2.69.1,2.21.31,2.67c.21.46.54.7,1,.7s.79-.22,1-.67c.21-.44.32-1.34.32-2.7Z"/>
      <path class="st0" d="M334.46,91.28h2.44l2.57,6.21v-6.21h1.7v10h-1.96l-3.05-7.24v7.24h-1.7v-10Z"/>
    </g>
  </g>
  <line class="st3" x1="36" y1="82.27" x2="341.91" y2="82.27"/>
</svg>