<svg xmlns="http://www.w3.org/2000/svg" width="286" height="65" viewBox="0 0 286 65"><title>Slice</title><g fill="#000" fill-rule="nonzero"><path d="M26.406 1.081c-2.175.077-3.589.798-4.67 2.634l-6.65 11.094v7.466c.763 1.792 2.706 2.032 4.55 2.108v1.039H6.616v-1.039c1.855-.076 4.108-.36 4.715-1.552v-7.695L4.551 3.792C3.39 1.879 2.251 1.234 0 1.082V.041h11.331v1.04c-2.131.12-2.816.513-3.422.994l6.283 10.765 6.163-10.732c-.64-.48-1.491-.918-3.634-1.039V.031h9.675v1.04z"/><path d="M29.931 8.156c3.716 0 5.072 1.883 5.026 4.787l-.124 8.25c-.044 1.614.862 2.002 1.68 2.002.649 0 1.31-.398 2.08-1.14v1.131l-.154.17c-.918.981-2.419 2.065-3.762 2.065-2.204 0-3.268-1.452-3.347-2.473-1.387 1.409-3.19 2.474-4.902 2.474-2.205 0-4.084-1.291-4.084-3.528 0-1.098.28-2.238.86-3.142l8.126-2.829V13.02c0-1.764-.862-3.453-2.697-3.453-1.108 0-2.16 1.291-2.25 3.302l-3.682.593v-.4c1.22-3.539 5.272-4.905 7.23-4.905m1.388 8.746c-1.063.473-3.682 1.57-4.823 2.119-.168.625-.29 1.173-.29 2.045 0 1.172.693 2.355 2.047 2.355 1.22 0 1.924-.388 3.022-1.216zM47.722 25.422H38.91v-.913c1.784-.12 2.307-.511 2.622-1.186V2.762c0-1.348-.196-1.902-2.938-2.142v-.794L45.863-2l.24.675L44.949.099v23.213c.403.795 1.154 1.076 2.785 1.185v.914zM58.365 8.156c4.046 0 6.3 2.204 6.3 5.716v.713l-11.042-.075c-.08.432-.124 1.145-.124 2.008 0 4.02 2.623 6.667 6.098 6.667 2.085 0 3.15-.713 4.786-2.054l.617.909-.011-.011c-2.331 2.053-4.26 3.393-7.611 3.393-4.294 0-7.612-3.274-7.612-7.844 0-5.597 3.554-9.422 8.599-9.422m-.618 1.21c-2.051 0-3.474 1.578-3.967 4.062l7.196-.075c0-2.084-1.357-3.987-3.23-3.987M91.648 8.2c-2.044-.672-3.808-1.344-6.608-1.344-5.852 0-10.444 4.452-10.444 10.304 0 5.572 3.976 8.204 9.464 8.204 1.736 0 2.8-.252 4.396-.728l1.708-4.284-.644-.196c-.476 1.316-1.484 2.632-2.744 3.472-.504.336-1.456.756-2.632.756-3.92 0-6.692-2.716-6.692-7.224 0-4.592 2.436-9.296 7.392-9.296 2.52 0 3.92 1.092 4.396 1.456.784.588 1.036 1.68 1.036 2.772 0 .224 0 .42-.028.644l.616.056zM100.552 14.892c0-1.12-.7-2.184-2.324-2.184-1.456 0-2.912.952-4.172 2.408-1.372 1.568-2.324 3.696-2.324 5.852 0 2.52 1.12 4.312 2.884 4.312 1.4 0 3.36-1.148 5.18-3.332l-.448-.448c-1.344 1.428-2.492 2.324-3.416 2.324-1.288 0-2.044-1.26-2.044-3.248 0-.336.028-.784.056-1.12 4.424-1.204 6.608-2.968 6.608-4.564m-2.016 1.064c0 .14-.056.364-.112.504-.868.784-2.128 1.68-4.424 2.296.392-2.296 1.428-4.2 2.52-4.928 1.792 0 2.016.98 2.016 2.128M114.048 21.416c-1.064 1.26-2.072 2.268-2.38 2.268-.336 0-.364-.224-.364-.672 0-.196.084-.812.168-1.12l1.372-5.124c.28-1.008.392-1.652.392-2.156 0-.84-.672-1.904-1.148-1.904-1.512 0-4.088 2.716-6.552 5.712l.728-3.108c.084-.308.14-.672.14-.952 0-.868-.28-1.652-.896-1.652-1.288 0-2.464 1.092-4.032 3.332l.532.364c1.12-1.568 1.932-2.38 2.296-2.38.056 0 .084.196.084.28 0 .112-.28 1.176-.364 1.652L102.176 25h2.072l1.036-5.348c2.212-2.688 4.732-5.292 5.264-5.292.42 0 .476.168.476.896-.196 1.148-1.4 5.88-1.4 5.88-.196.868-.42 1.708-.42 2.212 0 .98.168 1.876.784 1.876 1.456 0 2.94-1.428 4.564-3.388zM120.208 13.072l.868-3.024h-.616c-1.204 1.932-2.24 2.772-4.144 3.64l-.14.588 1.764-.056-1.316 6.944c-.168.812-.308 1.708-.308 2.212 0 .98.392 1.848 1.008 1.848 1.456 0 3.108-1.344 4.872-3.612l-.504-.42c-1.092 1.428-2.436 2.52-2.744 2.52s-.476-.364-.476-.896c0-.196.056-.84.112-1.12l1.4-7.448h2.94l.336-1.176zM132.248 14.892c0-1.12-.7-2.184-2.324-2.184-1.456 0-2.912.952-4.172 2.408-1.372 1.568-2.324 3.696-2.324 5.852 0 2.52 1.12 4.312 2.884 4.312 1.4 0 3.36-1.148 5.18-3.332l-.448-.448c-1.344 1.428-2.492 2.324-3.416 2.324-1.288 0-2.044-1.26-2.044-3.248 0-.336.028-.784.056-1.12 4.424-1.204 6.608-2.968 6.608-4.564m-2.016 1.064c0 .14-.056.364-.112.504-.868.784-2.128 1.68-4.424 2.296.392-2.296 1.428-4.2 2.52-4.928 1.792 0 2.016.98 2.016 2.128M143.56 13.352c-.588-.308-1.232-.644-1.932-.644-.98.364-2.548 1.512-4.032 4.116l.224-1.484c.056-.308.112-.672.112-.952 0-.868-.252-1.68-.868-1.68-1.288 0-2.436 1.092-4.004 3.332l.532.364c1.12-1.568 1.904-2.38 2.268-2.38.056 0 .112.196.112.28 0 .112-.112 1.176-.196 1.652L133.984 25h2.072l1.204-6.16c.168-.868 1.96-3.892 2.688-3.892s.952.112 1.736.616h.28zM162.152 6.52c0-.56-.84-1.428-2.268-1.428-2.996 0-5.012 1.96-6.496 4.396-.532.868-.952 2.212-1.232 3.584l-2.324.532-.112.588h2.324l-1.652 9.94c-.7 4.256-1.568 6.664-2.968 6.748-1.26-.084-2.184-.952-2.94-1.624-.56.196-1.344 1.036-1.344 1.54 0 .616.728 1.4 2.1 1.4 2.828 0 4.648-1.876 6.132-4.396.504-.868.896-2.24 1.12-3.584l1.596-9.996h3.332l.336-1.176h-3.472c.924-5.152 1.708-6.468 3.36-6.608 1.316.084 2.296.784 3.08 1.568.56-.224 1.428-.98 1.428-1.484M166.772 17.58c0-3.108-1.596-4.872-3.192-4.872-.952 0-3.164 1.036-4.928 3.22-1.148 1.428-1.708 3.052-1.708 4.508 0 3.108 1.652 4.872 3.192 4.872 1.036 0 3.024-.924 4.928-3.248 1.148-1.4 1.708-3.024 1.708-4.48m-2.184.14c0 3.92-2.044 6.44-3.304 6.44-1.148 0-2.156-1.288-2.156-3.976 0-3.836 2.156-6.3 3.332-6.3 1.12 0 2.128 1.344 2.128 3.836M178.588 13.352c-.588-.308-1.232-.644-1.932-.644-.98.364-2.548 1.512-4.032 4.116l.224-1.484c.056-.308.112-.672.112-.952 0-.868-.252-1.68-.868-1.68-1.288 0-2.436 1.092-4.004 3.332l.532.364c1.12-1.568 1.904-2.38 2.268-2.38.056 0 .112.196.112.28 0 .112-.112 1.176-.196 1.652L169.012 25h2.072l1.204-6.16c.168-.868 1.96-3.892 2.688-3.892s.952.112 1.736.616h.28zM85.012 50.188l-.14.616c1.288.056 2.632.448 2.828 1.008l-.896 4.284c-.532.504-1.932 1.372-3.416 1.372-3.78 0-5.964-3.052-5.964-7.112 0-4.452 2.66-9.52 7.392-9.52 2.94 0 4.256 1.624 4.648 2.072.7.812.84 1.82.84 2.632 0 .168-.028.28-.028.448l.616.056.84-4.564c-2.128-.812-3.92-1.624-6.776-1.624-5.768 0-10.332 4.48-10.332 10.276 0 4.62 2.996 8.288 8.4 8.288 2.408 0 4.2-.7 5.964-1.344l1.092-5.264c.42-.56 1.26-.952 2.52-1.008l.112-.616zM102.176 47.892c0-1.12-.7-2.184-2.324-2.184-1.456 0-2.912.952-4.172 2.408-1.372 1.568-2.324 3.696-2.324 5.852 0 2.52 1.12 4.312 2.884 4.312 1.4 0 3.36-1.148 5.18-3.332l-.448-.448c-1.344 1.428-2.492 2.324-3.416 2.324-1.288 0-2.044-1.26-2.044-3.248 0-.336.028-.784.056-1.12 4.424-1.204 6.608-2.968 6.608-4.564m-2.016 1.064c0 .14-.056.364-.112.504-.868.784-2.128 1.68-4.424 2.296.392-2.296 1.428-4.2 2.52-4.928 1.792 0 2.016.98 2.016 2.128M112.956 50.58c0-3.108-1.596-4.872-3.192-4.872-.952 0-3.164 1.036-4.928 3.22-1.148 1.428-1.708 3.052-1.708 4.508 0 3.108 1.652 4.872 3.192 4.872 1.036 0 3.024-.924 4.928-3.248 1.148-1.4 1.708-3.024 1.708-4.48m-2.184.14c0 3.92-2.044 6.44-3.304 6.44-1.148 0-2.156-1.288-2.156-3.976 0-3.836 2.156-6.3 3.332-6.3 1.12 0 2.128 1.344 2.128 3.836M122.336 47.22c0-.644-.896-1.512-2.408-1.512-1.988 0-4.424 2.296-4.424 4.116 0 1.036.7 1.792 1.736 2.884s2.128 1.932 2.128 2.828c0 .644-.532 1.316-.84 1.484a2 2 0 0 1-.56.084c-1.736 0-2.8-1.288-3.276-2.044-.476.224-1.344.924-1.344 1.372 0 .616.98 1.876 2.8 1.876 2.632 0 4.732-2.072 4.732-4.032 0-.812-.56-1.568-1.064-2.1-.616-.644-1.372-1.316-2.016-2.128a2.47 2.47 0 0 1-.504-1.428c0-.672.476-1.428.7-1.596.084-.028.168-.028.252-.028 1.204 0 2.044.812 2.716 1.624.504-.252 1.372-.98 1.372-1.4M134.768 50.16c0-2.548-1.092-4.452-1.904-4.452-.756 0-2.884 1.512-5.432 4.424 0 0 .448-2.044.448-3.528 0-.56-.084-.98-.392-.98-1.372 0-2.968 1.484-4.48 3.192l.476.42c1.288-1.316 1.932-2.044 2.296-2.044.14 0 .084.28.084.364 0 .112-.168 1.092-.252 1.512l-2.66 13.412c-.308 1.596-.952 1.904-2.884 2.128v.588h7.028v-.644h-.14c-.924 0-2.1-.336-2.1-.952 0-.196.028-.616.14-1.176l.896-4.816c.532.252 1.204.616 1.82.616 1.736 0 3.472-1.008 5.096-3.08 1.288-1.624 1.96-3.332 1.96-4.984m-2.24-.196c0 3.304-1.316 6.104-2.744 7.084-.616.028-2.184 0-3.556-1.12l.952-4.592c2.156-2.492 3.836-3.92 4.256-3.92.588 0 1.092.812 1.092 2.548M147.368 54.416c-1.064 1.26-2.072 2.212-2.408 2.212-.308 0-.308-.28-.308-.644 0-.196.056-.728.112-1.008l1.96-9.212h-.84c-2.856 0-5.544 1.148-7.644 3.304-1.68 1.708-2.492 3.892-2.492 6.16 0 2.184.868 2.996 1.344 2.996 1.512 0 3.808-2.296 6.104-5.096l-.756 3.248c0 .98.252 1.848.868 1.848 1.456 0 2.94-1.428 4.564-3.388zm-4.032-2.436c-2.016 2.492-4.172 4.62-4.676 4.62-.308 0-.728-.476-.728-2.156 0-3.22 1.12-5.264 2.492-6.356.42-.336 1.652-.56 2.772-.56.308 0 .728.028 1.064.112zM153.136 46.072l.868-3.024h-.616c-1.204 1.932-2.24 2.772-4.144 3.64l-.14.588 1.764-.056-1.316 6.944c-.168.812-.308 1.708-.308 2.212 0 .98.392 1.848 1.008 1.848 1.456 0 3.108-1.344 4.872-3.612l-.504-.42c-1.092 1.428-2.436 2.52-2.744 2.52s-.476-.364-.476-.896c0-.196.056-.84.112-1.12l1.4-7.448h2.94l.336-1.176zM162.768 40.584c0-.672-.56-1.4-1.4-1.4-.868 0-1.428.728-1.428 1.4 0 .644.56 1.344 1.428 1.344.84 0 1.4-.7 1.4-1.344m-.588 13.832c-1.064 1.26-2.016 2.184-2.296 2.184-.308 0-.448-.448-.448-.868 0-.196.084-.7.14-.924l1.624-6.496c.084-.308.084-.672.084-.952 0-.868-.224-1.652-.84-1.652-1.288 0-2.52 1.092-4.088 3.332l.532.364c1.12-1.568 1.932-2.38 2.296-2.38.14 0 .084.196.084.28 0 .112-.196 1.036-.336 1.652l-1.26 5.068c-.224.868-.392 1.848-.392 2.352 0 .98.224 1.848.84 1.848 1.456 0 2.94-1.428 4.564-3.388zM175.088 54.416c-1.064 1.26-2.072 2.212-2.408 2.212-.308 0-.308-.28-.308-.644 0-.196.056-.728.112-1.008l1.96-9.212h-.84c-2.856 0-5.544 1.148-7.644 3.304-1.68 1.708-2.492 3.892-2.492 6.16 0 2.184.868 2.996 1.344 2.996 1.512 0 3.808-2.296 6.104-5.096l-.756 3.248c0 .98.252 1.848.868 1.848 1.456 0 2.94-1.428 4.564-3.388zm-4.032-2.436c-2.016 2.492-4.172 4.62-4.676 4.62-.308 0-.728-.476-.728-2.156 0-3.22 1.12-5.264 2.492-6.356.42-.336 1.652-.56 2.772-.56.308 0 .728.028 1.064.112zM182.06 38.176l-4.088 1.064-.14.644c.364-.028.784-.112 1.036-.112.784 0 1.036.196 1.036.756 0 .28-.056.616-.168 1.12l-2.548 12.516c-.168.784-.336 1.708-.336 2.212 0 .98.196 1.848.812 1.848 1.456 0 2.968-1.428 4.62-3.444l-.504-.42c-1.064 1.288-2.044 2.24-2.352 2.24s-.42-.364-.42-.784c0-.196.084-.868.14-1.12l3.36-16.52zM204.18 41.088c-.98-.56-2.688-1.204-4.872-1.204-3.92 0-6.86 2.24-6.86 5.432 0 2.016 1.428 3.444 4.396 4.928 2.044 1.036 3.192 1.904 3.192 3.584 0 2.016-1.512 3.64-4.032 3.64-1.512 0-2.66-.84-3.388-1.428-.98-.784-1.484-2.324-1.512-3.556l-.616-.056-.28 4.452c1.148.644 3.024 1.54 5.516 1.54 3.78 0 6.832-2.016 6.832-5.46 0-2.016-1.484-3.36-4.228-4.872-2.576-1.428-3.416-2.156-3.416-3.668 0-1.932 1.26-3.556 3.836-3.556 1.68 0 2.576.756 3.024 1.12.812.644 1.092 1.624 1.092 2.828 0 .196 0 .364-.028.56l.616.056zM214.624 50.58c0-3.108-1.596-4.872-3.192-4.872-.952 0-3.164 1.036-4.928 3.22-1.148 1.428-1.708 3.052-1.708 4.508 0 3.108 1.652 4.872 3.192 4.872 1.036 0 3.024-.924 4.928-3.248 1.148-1.4 1.708-3.024 1.708-4.48m-2.184.14c0 3.92-2.044 6.44-3.304 6.44-1.148 0-2.156-1.288-2.156-3.976 0-3.836 2.156-6.3 3.332-6.3 1.12 0 2.128 1.344 2.128 3.836M221.792 38.176l-4.088 1.064-.14.644c.364-.028.784-.112 1.036-.112.784 0 1.036.196 1.036.756 0 .28-.056.616-.168 1.12l-2.548 12.516c-.168.784-.336 1.708-.336 2.212 0 .98.196 1.848.812 1.848 1.456 0 2.968-1.428 4.62-3.444l-.504-.42c-1.064 1.288-2.044 2.24-2.352 2.24s-.42-.364-.42-.784c0-.196.084-.868.14-1.12l3.36-16.52zM235.82 54.416c-1.064 1.26-2.072 2.268-2.38 2.268s-.364-.308-.364-.728c0-.196.056-.644.14-.98l1.96-8.988h-2.1l-1.12 5.264c-2.212 2.828-4.592 5.348-5.18 5.348-.308 0-.476-.308-.476-1.064.196-1.148 1.036-4.34 1.792-7.308.056-.28.112-.56.112-.84 0-.896-.252-1.68-.868-1.68-1.288 0-2.492 1.092-4.06 3.332l.532.364c1.12-1.568 1.932-2.38 2.296-2.38.14 0 .084.252.084.364s-.252 1.148-.392 1.652l-1.344 5.124c-.252 1.008-.42 1.652-.42 2.156 0 .84.728 1.904 1.204 1.904 1.512 0 4.116-2.688 6.58-5.852 0 0-.896 3.304-.896 4.004 0 .98.224 1.848.84 1.848 1.456 0 2.94-1.428 4.564-3.388zM241.7 46.072l.868-3.024h-.616c-1.204 1.932-2.24 2.772-4.144 3.64l-.14.588 1.764-.056-1.316 6.944c-.168.812-.308 1.708-.308 2.212 0 .98.392 1.848 1.008 1.848 1.456 0 3.108-1.344 4.872-3.612l-.504-.42c-1.092 1.428-2.436 2.52-2.744 2.52s-.476-.364-.476-.896c0-.196.056-.84.112-1.12l1.4-7.448h2.94l.336-1.176zM251.332 40.584c0-.672-.56-1.4-1.4-1.4-.868 0-1.428.728-1.428 1.4 0 .644.56 1.344 1.428 1.344.84 0 1.4-.7 1.4-1.344m-.588 13.832c-1.064 1.26-2.016 2.184-2.296 2.184-.308 0-.448-.448-.448-.868 0-.196.084-.7.14-.924l1.624-6.496c.084-.308.084-.672.084-.952 0-.868-.224-1.652-.84-1.652-1.288 0-2.52 1.092-4.088 3.332l.532.364c1.12-1.568 1.932-2.38 2.296-2.38.14 0 .084.196.084.28 0 .112-.196 1.036-.336 1.652l-1.26 5.068c-.224.868-.392 1.848-.392 2.352 0 .98.224 1.848.84 1.848 1.456 0 2.94-1.428 4.564-3.388zM262.224 50.58c0-3.108-1.596-4.872-3.192-4.872-.952 0-3.164 1.036-4.928 3.22-1.148 1.428-1.708 3.052-1.708 4.508 0 3.108 1.652 4.872 3.192 4.872 1.036 0 3.024-.924 4.928-3.248 1.148-1.4 1.708-3.024 1.708-4.48m-2.184.14c0 3.92-2.044 6.44-3.304 6.44-1.148 0-2.156-1.288-2.156-3.976 0-3.836 2.156-6.3 3.332-6.3 1.12 0 2.128 1.344 2.128 3.836M276.224 54.416c-1.064 1.26-2.072 2.268-2.38 2.268-.336 0-.364-.224-.364-.672 0-.196.084-.812.168-1.12l1.372-5.124c.28-1.008.392-1.652.392-2.156 0-.84-.672-1.904-1.148-1.904-1.512 0-4.088 2.716-6.552 5.712l.728-3.108c.084-.308.14-.672.14-.952 0-.868-.28-1.652-.896-1.652-1.288 0-2.464 1.092-4.032 3.332l.532.364c1.12-1.568 1.932-2.38 2.296-2.38.056 0 .084.196.084.28 0 .112-.28 1.176-.364 1.652L264.352 58h2.072l1.036-5.348c2.212-2.688 4.732-5.292 5.264-5.292.42 0 .476.168.476.896-.196 1.148-1.4 5.88-1.4 5.88-.196.868-.42 1.708-.42 2.212 0 .98.168 1.876.784 1.876 1.456 0 2.94-1.428 4.564-3.388zM285.8 47.22c0-.644-.896-1.512-2.408-1.512-1.988 0-4.424 2.296-4.424 4.116 0 1.036.7 1.792 1.736 2.884s2.128 1.932 2.128 2.828c0 .644-.532 1.316-.84 1.484a2 2 0 0 1-.56.084c-1.736 0-2.8-1.288-3.276-2.044-.476.224-1.344.924-1.344 1.372 0 .616.98 1.876 2.8 1.876 2.632 0 4.732-2.072 4.732-4.032 0-.812-.56-1.568-1.064-2.1-.616-.644-1.372-1.316-2.016-2.128a2.47 2.47 0 0 1-.504-1.428c0-.672.476-1.428.7-1.596.084-.028.168-.028.252-.028 1.204 0 2.044.812 2.716 1.624.504-.252 1.372-.98 1.372-1.4"/></g></svg>