<?xml version="1.0" encoding="UTF-8"?>
<svg id="cng-logo" width="852px" height="266px" viewBox="0 0 852 266" version="1.1" xmlns="http://www.w3.org/2000/svg" xmlns:xlink="http://www.w3.org/1999/xlink">
  <title>Cloud-native Geospatial Foundation</title>
  <path d="M215.316708,1 C222.235722,1 228.629155,4.70574872 232.088662,10.7213265 L297.40537,124.297541 C300.864877,130.313119 300.864877,137.724617 297.40537,143.740194 L232.088662,257.316409 C228.629155,263.331987 222.235722,267.037736 215.316708,267.037736 L84.6832925,267.037736 C77.7642781,267.037736 71.3708451,263.331987 67.9113379,257.316409 L2.5946304,143.740194 C-0.8648768,137.724617 -0.8648768,130.313119 2.5946304,124.297541 L67.9113379,10.7213265 C71.3708451,4.70574872 77.7642781,1 84.6832925,1 L215.316708,1 Z M155.924866,169.173122 L151.109719,177.540952 L150.931744,177.878251 C148.619541,182.398158 148.738883,187.805966 151.289665,192.234239 L170.670396,225.871789 L170.85871,226.17362 C173.604637,230.461121 178.34859,233.075472 183.463906,233.075472 L222.218225,233.071338 L222.573173,233.058793 C227.650679,232.819017 232.281541,230.008335 234.839199,225.568126 L254.138671,192.055621 L254.251012,191.828981 C254.992954,190.235467 254.806365,188.502505 253.992086,187.147485 C253.140657,185.730646 251.601666,184.726894 249.715855,184.726894 L202.459587,184.731034 L202.194056,184.748835 C200.963912,184.864285 199.863702,185.429582 199.058442,186.299618 C198.199362,187.227804 197.678385,188.499646 197.675714,189.937501 C197.729411,191.271678 198.304325,192.470955 199.201448,193.337032 C200.099243,194.20376 201.320015,194.736688 202.664958,194.736688 L241.066844,194.735887 L226.059507,220.777866 L225.924134,220.977128 C224.992473,222.279912 223.485075,223.065677 221.86601,223.065677 L183.213017,223.059373 L182.973161,223.041498 C181.381677,222.884191 179.949045,221.968617 179.13951,220.563229 L159.812141,186.996007 L159.698298,186.756219 C159.055397,185.304 159.135393,183.618601 159.938458,182.224445 L160.937852,180.488359 L155.924866,169.173122 Z M129.535373,87.3303231 C126.859427,87.3303231 124.285116,88.0457691 122.045298,89.3419103 C119.805481,90.6380515 117.900156,92.514888 116.562184,94.8376688 L100.640309,122.477714 L112.172372,122.477714 L126.463863,97.7339113 L163.468765,181.255903 L163.601271,181.504639 C164.018124,182.23675 164.606597,182.840419 165.301858,183.273519 C166.077426,183.756644 166.985926,184.027479 167.937477,184.027479 C170.613422,184.027479 173.187733,183.312033 175.427551,182.015892 C177.667368,180.719751 179.572693,178.842914 180.910666,176.520134 L197.113373,148.390069 L185.581287,148.390069 L171.009724,173.623524 L134.004086,90.1019033 L133.87158,89.8531666 C133.454727,89.1210545 132.866253,88.5173844 132.170991,88.0842838 C131.395423,87.6011583 130.486923,87.3303231 129.535373,87.3303231 Z M105.412071,136.521038 L95.3983858,136.832313 L95.4386771,137.27237 C95.6568892,139.323701 96.2977086,141.340097 97.3611315,143.186247 L116.741862,176.823797 L116.930176,177.125627 C119.676103,181.413128 124.420056,184.027479 129.535373,184.027479 C130.914257,184.027479 132.162603,183.467287 133.066227,182.561579 C133.969852,181.655871 134.528755,180.404646 134.528755,179.022582 C134.528755,177.640518 133.969852,176.389294 133.066227,175.483585 C132.162603,174.577877 130.914257,174.017685 129.535373,174.017685 C128.643391,174.017685 127.785287,173.779203 127.038681,173.347156 C126.292075,172.915109 125.656967,172.289497 125.210976,171.515236 L105.883607,137.948014 L105.753968,137.672167 C105.592892,137.300462 105.478922,136.913845 105.412071,136.521038 Z M221.86601,136.378315 L183.111692,136.382449 L182.756743,136.394994 C177.679238,136.63477 173.048376,139.445452 170.490717,143.885661 L164.572895,154.160004 L169.585665,165.476632 L179.270447,148.675863 L179.405821,148.476606 C180.337485,147.173854 181.844863,146.38811 183.463906,146.38811 L222.116931,146.394414 L222.352582,146.411819 C223.917258,146.564366 225.349521,147.447305 226.297399,149.067471 C227.010089,150.196908 228.10776,150.947515 229.318133,151.247167 C230.526835,151.546406 231.848134,151.395693 233.011495,150.722478 C234.205644,150.031446 235.007291,148.920693 235.338041,147.683472 C235.66879,146.446252 235.528642,145.082564 234.839199,143.885661 C233.501227,141.56288 231.595902,139.686044 229.356085,138.389903 C227.116267,137.093761 224.541956,136.378315 221.86601,136.378315 Z M115.036146,37.7924528 L76.2818282,37.7965862 L75.9268794,37.8091316 C70.8493736,38.0489075 66.2185117,40.859589 63.6608534,45.2997986 L44.2872656,78.9414816 L44.1087495,79.2789771 C41.7894442,83.8015947 41.9064951,89.2157229 44.4598013,93.6483768 L63.8486671,127.2993 L64.037077,127.600595 C66.7842463,131.880477 71.5238333,134.489609 76.6340423,134.489609 L115.388361,134.485476 L115.743309,134.47293 C120.820815,134.233154 125.451677,131.422473 128.009335,126.982263 C128.698778,125.785361 128.838926,124.421673 128.508176,123.184452 C128.177427,121.947232 127.37578,120.836479 126.18163,120.145447 C124.982136,119.451321 123.614313,119.313578 122.363596,119.673583 C121.112742,120.033628 119.982906,120.889581 119.213586,122.216746 C118.294726,123.623555 116.726279,124.479815 115.036146,124.479815 L76.3692745,124.472793 L76.130201,124.454323 C74.5439569,124.293299 73.1169597,123.378899 72.309646,121.977366 L52.9885966,88.4225502 L52.8737563,88.1823379 C52.2250968,86.727414 52.3033199,85.0365743 53.1085939,83.6385824 L72.4405376,50.0900707 L72.5759106,49.890808 C73.5075709,48.5880171 75.0149728,47.8022472 76.6340423,47.8022472 L115.300948,47.8092691 L115.535851,47.8272621 C117.095516,47.9834967 118.522278,48.8655045 119.467927,50.4822794 C120.180628,51.6113207 121.278119,52.3617071 122.488269,52.6613044 C123.696971,52.9605433 125.018269,52.8098309 126.18163,52.1366153 C127.37578,51.4455832 128.177427,50.3348304 128.508176,49.0976099 C128.838926,47.8603894 128.698778,46.4967013 128.009335,45.2997986 C126.671363,42.9770177 124.766038,41.1001813 122.526221,39.8040401 C120.286403,38.5078988 117.712092,37.7924528 115.036146,37.7924528 Z M167.937477,87.3303231 C166.558592,87.3303231 165.310246,87.8905153 164.406622,88.7962235 C163.502997,89.7019317 162.944094,90.953156 162.944094,92.3352202 C162.944094,93.7234708 163.50899,94.979644 164.445405,95.8852913 C165.381923,96.7910381 166.686413,97.3437854 168.217787,97.347989 C169.892746,97.4421763 171.416807,98.3754934 172.261873,99.842566 L191.589242,133.409788 L191.701377,133.645721 C191.807031,133.883838 191.893242,134.128251 191.960006,134.376687 L202.062296,134.376687 L202.018782,133.946853 C201.786874,131.943339 201.151184,129.976116 200.111718,128.171555 L180.730987,94.5340058 L180.542673,94.232175 C177.796746,89.9446741 173.052793,87.3303231 167.937477,87.3303231 Z" id="hex" fill="#0B5FBF"></path>
  <g id="cng-logo-text" transform="translate(340.000000, 115.000000)" fill="#1A1919" fill-rule="nonzero">
    <path d="M8.11415525,21.0317195 C8.11415525,13.9899833 15.8523592,8.34390651 25.4627093,8.34390651 C31.8280061,8.34390651 38.0684932,11.4524207 42,16.4641068 L42,7.13856427 C37.3820396,3.90317195 31.5783866,2 25.4627093,2 C11.9208524,2 1,10.5642738 1,21.0317195 C1,31.4991653 11.9208524,40 25.4627093,40 C31.5783866,40 37.3196347,38.1602671 42,34.9248748 L42,25.6627713 C38.0060883,30.6744574 31.8280061,33.6560935 25.4627093,33.6560935 C15.8523592,33.6560935 8.11415525,28.0734558 8.11415525,21.0317195 Z"></path>
    <polygon points="59.8125 3 53 3 53 38 87 38 87 31.7275986 59.8125 31.7275986"></polygon>
    <path d="M91,21.0317195 C91,31.4991653 102,40 115.5,40 C129.0625,40 140,31.4991653 140,21.0317195 C140,10.5642738 129.0625,2 115.5,2 C102,2 91,10.5642738 91,21.0317195 Z M98.125,21.0317195 C98.125,13.9899833 105.9375,8.34390651 115.5,8.34390651 C125.125,8.34390651 132.875,13.9899833 132.875,21.0317195 C132.875,28.0734558 125.125,33.6560935 115.5,33.6560935 C105.9375,33.6560935 98.125,28.0734558 98.125,21.0317195 Z" id="Shape"></path>
    <path d="M181.198686,20.9377163 C181.198686,29.0968858 175.083744,32.7716263 168.968801,32.7716263 C162.853859,32.7716263 156.801314,29.0968858 156.801314,20.9377163 L156.801314,3 L150,3 L150,21.8096886 C150,33.7058824 159.422003,39 168.968801,39 C178.453202,39 188,33.7058824 188,21.8096886 L188,3 L181.198686,3 L181.198686,20.9377163 Z"></path>
    <path d="M218.159652,38 C228.582003,38 242,33.1702509 242,20.5 C242,7.8297491 228.582003,3 218.159652,3 L199,3 L199,38 L218.159652,38 Z M205.865022,9.27240143 L217.597968,9.27240143 C224.899855,9.27240143 234.94775,11.5304659 234.94775,20.5 C234.94775,29.4695341 224.899855,31.7275986 217.597968,31.7275986 L205.865022,31.7275986 L205.865022,9.27240143 Z" id="Shape"></path>
    <polygon points="264 21 250 21 250 27 264 27"></polygon>
    <polygon points="277.875385 38.3343653 277.875385 14.5340557 312 41 312 2.91950464 305.124615 2.91950464 305.124615 26.9736842 271 0 271 38.3343653"></polygon>
    <path d="M355.727273,38 L364,38 L339.5,0 L315,38 L323.272727,38 L329.954545,27.6421405 L349.045455,27.6421405 L355.727273,38 Z M339.5,12.8361204 L344.972727,21.2876254 L334.090909,21.2876254 L339.5,12.8361204 Z" id="Shape"></path>
    <polygon points="378.057011 9.27240143 378.057011 38 384.942989 38 384.942989 9.27240143 402 9.27240143 402 3 361 3 361 9.27240143"></polygon>
    <polygon points="416 38 416 3 409 3 409 38"></polygon>
    <polygon points="430.272727 3 422 3 446.5 41 471 3 462.727273 3 446.5 28.1638796"></polygon>
    <polygon points="477 38 512 38 512 31.7275986 483.873874 31.7275986 483.873874 22.8207885 507.585586 22.8207885 507.585586 16.5483871 483.936937 16.5483871 483.936937 9.27240143 512 9.27240143 512 3 477 3"></polygon>
    <path d="M47,76.9048414 L28.6585366,76.9048414 L28.6585366,83.1853088 L39.4214092,83.1853088 C38.1476965,87.8797997 31.1422764,89.6560935 24.9647696,89.6560935 C15.1571816,89.6560935 7.2601626,84.0734558 7.2601626,77.0317195 C7.2601626,69.9899833 15.1571816,64.3439065 24.9647696,64.3439065 C31.4607046,64.3439065 37.8292683,67.4524207 41.8414634,72.4641068 L41.8414634,63.1385643 C37.1287263,59.903172 31.2059621,58 24.9647696,58 C11.1449864,58 0,66.5642738 0,77.0317195 C0,87.4991653 11.1449864,96 24.9647696,96 C37.0650407,96 47,90.3539232 47,78.7445743 L47,76.9048414 Z"></path>
    <polygon points="56 95 91 95 91 88.7275986 62.8738739 88.7275986 62.8738739 79.8207885 86.5855856 79.8207885 86.5855856 73.5483871 62.9369369 73.5483871 62.9369369 66.2724014 91 66.2724014 91 60 56 60"></polygon>
    <path d="M99,77.0317195 C99,87.4991653 110,96 123.5,96 C137.0625,96 148,87.4991653 148,77.0317195 C148,66.5642738 137.0625,58 123.5,58 C110,58 99,66.5642738 99,77.0317195 Z M106.125,77.0317195 C106.125,69.9899833 113.9375,64.3439065 123.5,64.3439065 C133.125,64.3439065 140.875,69.9899833 140.875,77.0317195 C140.875,84.0734558 133.125,89.6560935 123.5,89.6560935 C113.9375,89.6560935 106.125,84.0734558 106.125,77.0317195 Z" id="Shape"></path>
    <path d="M192,84.8501684 C192,76.9393939 182.734024,75.5690236 174.298791,74.2609428 C168.100173,73.3265993 162.412781,72.3922559 162.412781,69.2154882 C162.412781,66.0387205 168.994819,65.2289562 172.062176,65.2289562 C178.005181,65.2289562 183.756477,66.9107744 188.421416,70.0875421 L188.421416,62.6750842 C185.098446,60.2457912 178.580311,59 172.637306,59 C164.202073,59 155,61.989899 155,69.1531987 C155,77.5 164.968912,79.2441077 173.404145,80.5521886 C179.219344,81.4242424 184.715026,82.3585859 184.715026,85.2239057 C184.715026,87.5286195 180.305699,89.7710438 173.340242,89.7710438 C166.949914,89.7710438 159.345423,86.7811448 155.830743,83.7289562 L155.830743,91.8888889 C159.537133,94.3804714 166.502591,96 173.212435,96 C182.542314,96 192,93.010101 192,84.8501684 Z"></path>
    <path d="M207.836918,80.1344086 L222.263441,80.1344086 C228.724014,80.1344086 236,77.688172 236,70.0358423 C236,62.4462366 228.724014,60 222.263441,60 L201,60 L201,95 L207.836918,95 L207.836918,80.1344086 Z M207.836918,66.2724014 L221.698925,66.2724014 C226.905018,66.2724014 228.849462,67.5896057 228.849462,70.0358423 C228.849462,72.5448029 226.905018,73.8620072 221.698925,73.8620072 L207.836918,73.8620072 L207.836918,66.2724014 Z" id="Shape"></path>
    <path d="M273.727273,95 L282,95 L257.5,57 L233,95 L241.272727,95 L247.954545,84.6421405 L267.045455,84.6421405 L273.727273,95 Z M257.5,69.8361204 L262.972727,78.2876254 L252.090909,78.2876254 L257.5,69.8361204 Z" id="Shape"></path>
    <polygon points="295.057011 66.2724014 295.057011 95 301.942989 95 301.942989 66.2724014 319 66.2724014 319 60 278 60 278 66.2724014"></polygon>
    <polygon points="333 95 333 60 326 60 326 95"></polygon>
    <path d="M379.727273,95 L388,95 L363.5,57 L339,95 L347.272727,95 L353.954545,84.6421405 L373.045455,84.6421405 L379.727273,95 Z M363.5,69.8361204 L368.972727,78.2876254 L358.090909,78.2876254 L363.5,69.8361204 Z" id="Shape"></path>
    <polygon points="400.8125 60 394 60 394 95 428 95 428 88.7275986 400.8125 88.7275986"></polygon>
    <polygon points="1 151 4.4018018 151 4.4018018 135.573477 28.5027027 135.573477 28.5027027 132.820789 4.45945946 132.820789 4.45945946 121.752688 33 121.752688 33 119 1 119"></polygon>
    <path d="M39,135.028192 C39,144.444444 49.2790123,152 62,152 C74.7209877,152 85,144.444444 85,135.028192 C85,125.61194 74.7209877,118 62,118 C49.2790123,118 39,125.61194 39,135.028192 Z M42.6345679,135.028192 C42.6345679,127.077944 51.3234568,120.650083 62,120.650083 C72.6765432,120.650083 81.3654321,127.077944 81.3654321,135.028192 C81.3654321,142.978441 72.6765432,149.349917 62,149.349917 C51.3234568,149.349917 42.6345679,142.978441 42.6345679,135.028192 Z" id="Shape"></path>
    <path d="M124.699187,135.5 C124.699187,144.887931 117.585366,149.325862 110.528455,149.325862 C103.471545,149.325862 96.3577236,144.887931 96.3577236,135.5 L96.3577236,119 L93,119 L93,136.296552 C93,147.22069 101.764228,152 110.528455,152 C119.235772,152 128,147.22069 128,136.296552 L128,119 L124.699187,119 L124.699187,135.5 Z"></path>
    <polygon points="140.334342 151.137056 140.334342 125.306261 175 152 175 119.035533 171.665658 119.035533 171.665658 145.153976 137 118 137 151.137056"></polygon>
    <path d="M202.613636,151 C212.329545,151 225,146.584229 225,135 C225,123.415771 212.329545,119 202.613636,119 L185,119 L185,151 L202.613636,151 Z M188.352273,121.752688 L202.102273,121.752688 C210.170455,121.752688 221.420455,124.390681 221.420455,135 C221.420455,145.609319 210.170455,148.247312 202.102273,148.247312 L188.352273,148.247312 L188.352273,121.752688 Z" id="Shape"></path>
    <path d="M263.083784,151 L267,151 L246,118 L225,151 L228.916216,151 L235.556757,140.554783 L256.443243,140.554783 L263.083784,151 Z M246,124.14087 L254.740541,137.857391 L237.259459,137.857391 L246,124.14087 Z" id="Shape"></path>
    <polygon points="281.899848 121.752688 281.899848 151 285.156297 151 285.156297 121.752688 302 121.752688 302 119 265 119 265 121.752688"></polygon>
    <polygon points="311 151 311 119 308 119 308 151"></polygon>
    <path d="M320,135.028192 C320,144.444444 330.279012,152 343,152 C355.720988,152 366,144.444444 366,135.028192 C366,125.61194 355.720988,118 343,118 C330.279012,118 320,125.61194 320,135.028192 Z M323.634568,135.028192 C323.634568,127.077944 332.323457,120.650083 343,120.650083 C353.676543,120.650083 362.365432,127.077944 362.365432,135.028192 C362.365432,142.978441 353.676543,149.349917 343,149.349917 C332.323457,149.349917 323.634568,142.978441 323.634568,135.028192 Z" id="Shape"></path>
    <polygon points="378.334342 151.137056 378.334342 125.306261 413 152 413 119.035533 409.665658 119.035533 409.665658 145.153976 375 118 375 151.137056"></polygon>
  </g>
  <defs>
    <linearGradient id="CNGGradient" x1="50%" y1="0%" x2="50%" y2="100%" >
      <stop offset="0%" stop-color="#AACBEA">
        <animate attributeName="stop-color" values="#AACBEA; #7A5FFF; #AACBEA;" dur="12s" repeatCount="indefinite"></animate>
      </stop>
      <stop offset="100%" stop-color="#0B5FBF">
        <animate attributeName="stop-color" values="#0B5FBF; #01FF89; #53B4FF; #0B5FBF;" dur="12s" repeatCount="indefinite"></animate>
      </stop>
    </linearGradient>
  </defs>
</svg>