<?xml version="1.0" encoding="UTF-8"?>
<svg width="140px" height="106px" viewBox="0 0 140 106" version="1.1" xmlns="http://www.w3.org/2000/svg" xmlns:xlink="http://www.w3.org/1999/xlink">
    <title>Untitled 5</title>
    <defs>
        <polygon id="path-1" points="0 0 139.607 0 139.607 105.051 0 105.051"></polygon>
    </defs>
    <g id="Page-1" stroke="none" stroke-width="1" fill="none" fill-rule="evenodd">
        <g id="NASA_Partner_color_outline" transform="translate(0.060000, 0.949000)">
            <g id="Fill-1-Clipped">
                <mask id="mask-2" fill="white">
                    <use xlink:href="#path-1"></use>
                </mask>
                <g id="path-1"></g>
                <polygon id="Fill-1" fill="#FFFFFE" fill-rule="nonzero" mask="url(#mask-2)" points="-2.2759572e-15 105.051 139.607 105.051 139.607 0 -2.2759572e-15 0"></polygon>
            </g>
            <text id="Partner" fill="#1A1919" fill-rule="nonzero" font-family="ArialMT, Arial" font-size="16" font-weight="normal">
                <tspan x="43.1299" y="90.2593">Partner</tspan>
            </text>
            <path d="M100.065,43.136 C100.065,60.431 85.817,74.666 68.504,74.666 C51.192,74.666 36.943,60.431 36.943,43.136 C36.943,25.84 50.857,11.606 68.504,11.606 C85.483,11.606 100.065,25.84 100.065,43.136" id="Fill-4" fill="#26357A" fill-rule="nonzero"></path>
            <path d="M75.623,59.731 C89.106,65.278 86.766,51.26 79.579,40.528 C75.505,34.446 70.193,29.381 66.843,26.936 C55.731,18.827 48.872,23.745 56.718,39.738 C59.254,44.909 62.513,48.399 65.058,51.688 C67.001,54.199 70.787,55.457 69.453,56.649 C67.95,57.992 64.312,52.066 64.312,52.066 C61.622,48.825 59.061,45.366 56.421,40.621 C50.39,29.781 51.26,18.718 62.176,23.538 C71.441,27.63 80.29,39.106 83.848,47.256 C85.492,51.019 89.972,65.908 75.702,59.889" id="Fill-5" fill="#FFFFFE" fill-rule="nonzero"></path>
            <path d="M33.692,52.483 C39.624,48.531 45.248,45.981 54.819,42.82 C68.268,38.378 78.391,35.391 90.81,29.149 C96.369,26.355 106.015,20.09 109.463,14.642 C108.431,16.751 105.233,20.853 103.784,22.669 C86.934,43.768 51.041,42.572 33.928,52.703" id="Fill-6" fill="#CD242E" fill-rule="nonzero"></path>
            <path d="M42.297,37.062 C47.727,37.104 47.194,37.05 47.257,37.114 C47.352,37.114 51.592,44.416 51.592,44.479 C51.592,44.51 51.561,41.884 51.561,38.6 C51.561,38.22 50.517,37.114 50.548,37.114 C52.098,37.114 54.123,37.146 54.123,37.146 C53.364,38.031 53.212,37.958 53.206,38.505 C53.185,40.264 53.165,43.515 53.206,47.166 C53.212,47.713 53.617,47.924 54.282,48.873 L49.314,48.873 C47.7,46.186 44.743,41.146 44.758,41.16 C44.781,41.183 44.694,44.321 44.789,46.85 C44.821,47.685 45.201,47.956 45.897,48.715 C45.897,48.715 46.698,48.694 42.005,48.746 C43.429,47.987 43.24,47.04 43.239,47.008 C43.188,43.515 43.229,40.528 43.229,38.6 C43.229,38.284 43.207,38.315 42.227,37.114" id="Fill-7" fill="#FFFFFE" fill-rule="nonzero"></path>
            <path d="M59.273,42.456 C59.729,40.873 60.119,39.459 60.303,38.537 C60.335,38.379 59.955,37.81 59.354,37.241 L59.312,37.153 C62.211,37.162 65.239,37.178 65.239,37.178 C66.03,39.106 67.834,44.51 69.194,47.83 C69.554,48.707 70.175,48.873 70.175,48.873 C67.707,48.841 63.127,48.862 63.151,48.841 C64.385,47.735 64.227,47.735 63.689,46.123 L59.829,46.123 C59.038,47.956 60.075,48.817 60.208,48.81 C59.33,48.855 56.348,48.81 56.348,48.81 C57.962,47.672 57.867,47.324 57.867,47.324 C58.31,45.747 58.824,44.02 59.273,42.456 L60.857,42.456 C60.517,43.547 60.176,44.637 60.176,44.637 L63.246,44.637 L61.537,40.275 C61.537,40.275 61.197,41.366 60.857,42.456 L59.273,42.456" id="Fill-8" fill="#FFFFFE" fill-rule="nonzero"></path>
            <path d="M85.789,42.614 C86.244,41.032 86.633,39.617 86.818,38.695 C86.849,38.537 86.469,37.968 85.869,37.399 L85.826,37.311 C88.725,37.32 91.754,37.336 91.754,37.336 C92.545,39.264 94.348,44.669 95.709,47.987 C96.068,48.865 96.689,49.031 96.689,49.031 C94.222,48.999 89.642,49.021 89.666,48.999 C90.9,47.893 90.742,47.893 90.204,46.281 L86.343,46.281 C85.552,48.114 86.589,48.974 86.722,48.968 C85.844,49.013 82.863,48.968 82.863,48.968 C84.476,47.83 84.381,47.482 84.381,47.482 C84.825,45.905 85.338,44.178 85.789,42.614 L87.372,42.614 C87.031,43.705 86.692,44.796 86.692,44.796 L89.76,44.796 L88.051,40.433 C88.051,40.433 87.712,41.524 87.372,42.614 L85.789,42.614" id="Fill-9" fill="#FFFFFE" fill-rule="nonzero"></path>
            <path d="M80.796,40.023 C80.733,37.778 80.796,37.051 80.796,37.051 C79.815,37.841 80.31,37.741 77.854,37.336 C70.776,36.168 70.237,42.776 74.088,44.258 C77.322,45.503 78.467,45.746 77.98,46.913 C77.822,47.293 74.879,48.683 71.842,45.87 L71.905,49.79 C72.285,49.399 73.33,48.683 73.33,48.683 C73.361,48.683 76.622,50.12 79.562,48.62 C84.087,46.313 81.829,42.578 77,41.097 C72.981,39.864 76.778,36.988 80.764,40.054" id="Fill-10" fill="#FFFFFE" fill-rule="nonzero"></path>
            <path d="M68.949,14.47 C68.949,14.611 68.833,14.727 68.692,14.727 C68.551,14.727 68.435,14.611 68.435,14.47 C68.435,14.329 68.551,14.213 68.692,14.213 C68.833,14.213 68.949,14.329 68.949,14.47" id="Fill-11" fill="#FFFFFE" fill-rule="nonzero"></path>
            <path d="M70.729,18.362 C70.729,18.535 70.586,18.678 70.413,18.678 C70.239,18.678 70.096,18.535 70.096,18.362 C70.096,18.189 70.239,18.046 70.413,18.046 C70.586,18.046 70.729,18.189 70.729,18.362" id="Fill-12" fill="#FFFFFE" fill-rule="nonzero"></path>
            <path d="M75.356,24.724 C75.356,24.897 75.213,25.04 75.04,25.04 C74.867,25.04 74.723,24.897 74.723,24.724 C74.723,24.55 74.856,24.407 75.03,24.407 C75.204,24.407 75.356,24.55 75.356,24.724" id="Fill-13" fill="#FFFFFE" fill-rule="nonzero"></path>
            <path d="M67.92,20.555 C67.92,20.696 67.805,20.812 67.664,20.812 C67.522,20.812 67.406,20.696 67.406,20.555 C67.406,20.414 67.522,20.298 67.664,20.298 C67.805,20.298 67.92,20.414 67.92,20.555" id="Fill-14" fill="#FFFFFE" fill-rule="nonzero"></path>
            <path d="M70.689,22.017 C70.689,22.157 70.573,22.274 70.432,22.274 C70.291,22.274 70.175,22.157 70.175,22.017 C70.175,21.876 70.291,21.761 70.432,21.761 C70.573,21.761 70.689,21.876 70.689,22.017" id="Fill-15" fill="#FFFFFE" fill-rule="nonzero"></path>
            <path d="M67.09,17.927 C67.09,18.101 66.947,18.243 66.774,18.243 C66.6,18.243 66.457,18.101 66.457,17.927 C66.457,17.754 66.6,17.611 66.774,17.611 C66.947,17.611 67.09,17.754 67.09,17.927" id="Fill-16" fill="#FFFFFE" fill-rule="nonzero"></path>
            <path d="M62.898,20.476 C62.898,20.617 62.782,20.733 62.641,20.733 C62.5,20.733 62.383,20.617 62.383,20.476 C62.383,20.335 62.5,20.219 62.641,20.219 C62.782,20.219 62.898,20.335 62.898,20.476" id="Fill-17" fill="#FFFFFE" fill-rule="nonzero"></path>
            <path d="M63.65,20.989 C63.65,21.131 63.533,21.247 63.392,21.247 C63.251,21.247 63.135,21.131 63.135,20.989 C63.135,20.849 63.251,20.733 63.392,20.733 C63.533,20.733 63.65,20.849 63.65,20.989" id="Fill-18" fill="#FFFFFE" fill-rule="nonzero"></path>
            <path d="M64.401,21.503 C64.401,21.644 64.285,21.761 64.144,21.761 C64.002,21.761 63.886,21.644 63.886,21.503 C63.886,21.362 64.002,21.247 64.144,21.247 C64.285,21.247 64.401,21.362 64.401,21.503" id="Fill-19" fill="#FFFFFE" fill-rule="nonzero"></path>
            <path d="M63.254,22.491 C63.254,22.632 63.137,22.748 62.997,22.748 C62.856,22.748 62.739,22.632 62.739,22.491 C62.739,22.35 62.856,22.234 62.997,22.234 C63.137,22.234 63.254,22.35 63.254,22.491" id="Fill-20" fill="#FFFFFE" fill-rule="nonzero"></path>
            <path d="M57.282,26.679 C57.282,26.821 57.166,26.936 57.024,26.936 C56.883,26.936 56.767,26.821 56.767,26.679 C56.767,26.538 56.883,26.423 57.024,26.423 C57.166,26.423 57.282,26.538 57.282,26.679" id="Fill-21" fill="#FFFFFE" fill-rule="nonzero"></path>
            <path d="M58.389,28.023 C58.389,28.163 58.273,28.28 58.132,28.28 C57.991,28.28 57.875,28.163 57.875,28.023 C57.875,27.882 57.991,27.766 58.132,27.766 C58.273,27.766 58.389,27.882 58.389,28.023" id="Fill-22" fill="#FFFFFE" fill-rule="nonzero"></path>
            <path d="M57.509,49.715 C57.509,49.856 57.393,49.971 57.252,49.971 C57.111,49.971 56.995,49.856 56.995,49.715 C56.995,49.574 57.111,49.458 57.252,49.458 C57.393,49.458 57.509,49.574 57.509,49.715" id="Fill-23" fill="#FFFFFE" fill-rule="nonzero"></path>
            <path d="M57.667,55.7 C57.667,55.874 57.524,56.016 57.351,56.016 C57.177,56.016 57.034,55.874 57.034,55.7 C57.034,55.527 57.177,55.384 57.351,55.384 C57.524,55.384 57.667,55.527 57.667,55.7" id="Fill-24" fill="#FFFFFE" fill-rule="nonzero"></path>
            <path d="M54.266,58.763 C54.266,58.904 54.15,59.02 54.009,59.02 C53.868,59.02 53.752,58.904 53.752,58.763 C53.752,58.622 53.868,58.506 54.009,58.506 C54.15,58.506 54.266,58.622 54.266,58.763" id="Fill-25" fill="#FFFFFE" fill-rule="nonzero"></path>
            <path d="M50.193,60.008 C50.193,60.181 50.049,60.323 49.876,60.323 C49.702,60.323 49.559,60.181 49.559,60.008 C49.559,59.834 49.702,59.691 49.876,59.691 C50.049,59.691 50.193,59.834 50.193,60.008" id="Fill-26" fill="#FFFFFE" fill-rule="nonzero"></path>
            <path d="M49.361,57.242 C49.361,57.415 49.218,57.558 49.045,57.558 C48.872,57.558 48.729,57.415 48.729,57.242 C48.729,57.068 48.872,56.926 49.045,56.926 C49.218,56.926 49.361,57.068 49.361,57.242" id="Fill-27" fill="#FFFFFE" fill-rule="nonzero"></path>
            <path d="M48.887,59 C48.887,59.141 48.771,59.257 48.63,59.257 C48.489,59.257 48.373,59.141 48.373,59 C48.373,58.859 48.489,58.743 48.63,58.743 C48.771,58.743 48.887,58.859 48.887,59" id="Fill-28" fill="#FFFFFE" fill-rule="nonzero"></path>
            <path d="M45.841,57.538 C45.841,57.678 45.725,57.795 45.585,57.795 C45.443,57.795 45.327,57.678 45.327,57.538 C45.327,57.397 45.443,57.281 45.585,57.281 C45.725,57.281 45.841,57.397 45.841,57.538" id="Fill-29" fill="#FFFFFE" fill-rule="nonzero"></path>
            <path d="M56.481,62.477 C56.481,62.618 56.374,62.734 56.234,62.734 C56.092,62.734 55.966,62.618 55.966,62.477 C55.966,62.336 56.083,62.22 56.223,62.22 C56.365,62.22 56.481,62.336 56.481,62.477" id="Fill-30" fill="#FFFFFE" fill-rule="nonzero"></path>
            <path d="M59.684,60.126 C59.684,60.299 59.551,60.442 59.377,60.442 C59.204,60.442 59.051,60.299 59.051,60.126 C59.051,59.953 59.194,59.81 59.368,59.81 C59.542,59.81 59.684,59.953 59.684,60.126" id="Fill-31" fill="#FFFFFE" fill-rule="nonzero"></path>
            <path d="M60.05,63.148 C60.05,63.289 59.924,63.405 59.783,63.405 C59.642,63.405 59.526,63.289 59.526,63.148 C59.526,63.008 59.642,62.892 59.783,62.892 C59.924,62.892 60.05,63.008 60.05,63.148" id="Fill-32" fill="#FFFFFE" fill-rule="nonzero"></path>
            <path d="M73.22,60.264 C73.22,60.405 73.104,60.521 72.963,60.521 C72.822,60.521 72.706,60.405 72.706,60.264 C72.706,60.123 72.822,60.008 72.963,60.008 C73.104,60.008 73.22,60.123 73.22,60.264" id="Fill-33" fill="#FFFFFE" fill-rule="nonzero"></path>
            <path d="M67.09,62.437 C67.09,62.578 66.974,62.694 66.833,62.694 C66.692,62.694 66.576,62.578 66.576,62.437 C66.576,62.297 66.692,62.18 66.833,62.18 C66.974,62.18 67.09,62.297 67.09,62.437" id="Fill-34" fill="#FFFFFE" fill-rule="nonzero"></path>
            <path d="M83.583,65.559 C83.583,65.699 83.466,65.816 83.326,65.816 C83.184,65.816 83.068,65.699 83.068,65.559 C83.068,65.418 83.184,65.302 83.326,65.302 C83.466,65.302 83.583,65.418 83.583,65.559" id="Fill-35" fill="#FFFFFE" fill-rule="nonzero"></path>
            <path d="M84.927,53.409 C84.927,53.582 84.785,53.725 84.611,53.725 C84.437,53.725 84.295,53.582 84.295,53.409 C84.295,53.236 84.437,53.092 84.611,53.092 C84.785,53.092 84.927,53.236 84.927,53.409" id="Fill-36" fill="#FFFFFE" fill-rule="nonzero"></path>
            <path d="M82.396,55.128 C82.396,55.268 82.28,55.384 82.138,55.384 C81.998,55.384 81.881,55.268 81.881,55.128 C81.881,54.987 81.998,54.871 82.138,54.871 C82.28,54.871 82.396,54.987 82.396,55.128" id="Fill-37" fill="#FFFFFE" fill-rule="nonzero"></path>
            <path d="M84.888,55.621 C84.888,55.795 84.746,55.938 84.572,55.938 C84.398,55.938 84.256,55.795 84.256,55.621 C84.256,55.448 84.398,55.305 84.572,55.305 C84.746,55.305 84.888,55.448 84.888,55.621" id="Fill-38" fill="#FFFFFE" fill-rule="nonzero"></path>
            <path d="M82.396,58.684 C82.396,58.824 82.28,58.941 82.138,58.941 C81.998,58.941 81.881,58.824 81.881,58.684 C81.881,58.543 81.998,58.427 82.138,58.427 C82.28,58.427 82.396,58.543 82.396,58.684" id="Fill-39" fill="#FFFFFE" fill-rule="nonzero"></path>
            <path d="M88.842,51.69 C88.842,51.831 88.726,51.947 88.586,51.947 C88.445,51.947 88.329,51.831 88.329,51.69 C88.329,51.549 88.445,51.433 88.586,51.433 C88.726,51.433 88.842,51.549 88.842,51.69" id="Fill-40" fill="#FFFFFE" fill-rule="nonzero"></path>
            <path d="M89.465,53.251 C89.465,53.424 89.334,53.567 89.16,53.567 C88.986,53.567 88.834,53.424 88.834,53.251 C88.834,53.077 88.976,52.935 89.149,52.935 C89.323,52.935 89.465,53.077 89.465,53.251" id="Fill-41" fill="#FFFFFE" fill-rule="nonzero"></path>
            <path d="M93.905,55.108 C93.905,55.281 93.763,55.424 93.588,55.424 C93.415,55.424 93.272,55.281 93.272,55.108 C93.272,54.935 93.415,54.792 93.588,54.792 C93.763,54.792 93.905,54.935 93.905,55.108" id="Fill-42" fill="#FFFFFE" fill-rule="nonzero"></path>
            <path d="M89.397,58.407 C89.397,58.548 89.28,58.664 89.139,58.664 C88.999,58.664 88.882,58.548 88.882,58.407 C88.882,58.266 88.999,58.15 89.139,58.15 C89.28,58.15 89.397,58.266 89.397,58.407" id="Fill-43" fill="#FFFFFE" fill-rule="nonzero"></path>
            <path d="M92.244,55.72 C92.244,55.862 92.127,55.977 91.987,55.977 C91.846,55.977 91.73,55.862 91.73,55.72 C91.73,55.579 91.846,55.464 91.987,55.464 C92.127,55.464 92.244,55.579 92.244,55.72" id="Fill-44" fill="#FFFFFE" fill-rule="nonzero"></path>
            <path d="M91.72,59.869 C91.72,60.01 91.604,60.126 91.463,60.126 C91.322,60.126 91.206,60.01 91.206,59.869 C91.206,59.728 91.322,59.612 91.463,59.612 C91.604,59.612 91.72,59.728 91.72,59.869" id="Fill-45" fill="#FFFFFE" fill-rule="nonzero"></path>
            <path d="M92.926,52.974 C92.926,53.191 92.748,53.369 92.531,53.369 C92.314,53.369 92.135,53.191 92.135,52.974 C92.135,52.758 92.314,52.579 92.531,52.579 C92.748,52.579 92.926,52.758 92.926,52.974" id="Fill-46" fill="#FFFFFE" fill-rule="nonzero"></path>
            <polyline id="Fill-47" fill="#FFFFFE" fill-rule="nonzero" points="92.531 51.769 92.413 52.856 91.335 52.974 92.422 53.092 92.541 54.219 92.66 53.092 93.727 52.954 92.65 52.856 92.531 51.769"></polyline>
            <path d="M90.158,59.849 C90.158,60.066 89.979,60.244 89.762,60.244 C89.545,60.244 89.367,60.066 89.367,59.849 C89.367,59.633 89.545,59.454 89.762,59.454 C89.979,59.454 90.158,59.633 90.158,59.849" id="Fill-48" fill="#FFFFFE" fill-rule="nonzero"></path>
            <polyline id="Fill-49" fill="#FFFFFE" fill-rule="nonzero" points="89.762 58.644 89.643 59.731 88.566 59.849 89.653 59.968 89.772 61.094 89.891 59.968 90.959 59.83 89.881 59.731 89.762 58.644"></polyline>
            <path d="M60.653,27.213 C60.653,27.429 60.475,27.608 60.258,27.608 C60.041,27.608 59.862,27.429 59.862,27.213 C59.862,26.996 60.041,26.818 60.258,26.818 C60.475,26.818 60.653,26.996 60.653,27.213" id="Fill-50" fill="#FFFFFE" fill-rule="nonzero"></path>
            <polyline id="Fill-51" fill="#FFFFFE" fill-rule="nonzero" points="60.258 26.008 60.139 27.094 59.061 27.213 60.149 27.331 60.268 28.457 60.386 27.331 61.454 27.193 60.376 27.094 60.258 26.008"></polyline>
            <path d="M75.366,17.651 C75.366,17.868 75.187,18.046 74.97,18.046 C74.753,18.046 74.576,17.868 74.576,17.651 C74.576,17.434 74.753,17.256 74.97,17.256 C75.187,17.256 75.366,17.434 75.366,17.651" id="Fill-52" fill="#FFFFFE" fill-rule="nonzero"></path>
            <polyline id="Fill-53" fill="#FFFFFE" fill-rule="nonzero" points="74.97 16.446 74.852 17.532 73.774 17.651 74.862 17.77 74.98 18.896 75.099 17.77 76.167 17.631 75.089 17.532 74.97 16.446"></polyline>
            <path d="M57.48,66.171 C57.48,66.388 57.301,66.566 57.084,66.566 C56.867,66.566 56.688,66.388 56.688,66.171 C56.688,65.955 56.867,65.776 57.084,65.776 C57.301,65.776 57.48,65.955 57.48,66.171" id="Fill-54" fill="#FFFFFE" fill-rule="nonzero"></path>
            <polyline id="Fill-55" fill="#FFFFFE" fill-rule="nonzero" points="57.094 64.966 56.975 66.052 55.898 66.171 56.985 66.29 57.104 67.416 57.222 66.29 58.29 66.152 57.212 66.052 57.094 64.966"></polyline>
            <path d="M109.463,14.642 C104.653,28.911 85.384,39.929 69.164,50.449 C59.379,56.796 49.664,64.103 42.976,70.319 C41.213,71.958 43.336,69.706 42.66,70.398 C51.994,59.651 62.73,53.251 68.662,49.221 C78.697,42.404 84.403,40.686 101.713,24.74" id="Fill-56" fill="#CD242E" fill-rule="nonzero"></path>
            <path d="M37.704,49.994 C35.977,50.84 34.429,51.674 33.116,52.489 L33.915,52.78 C35.063,52.073 36.441,51.335 37.894,50.685" id="Fill-57" fill="#DC3B41" fill-rule="nonzero"></path>
            <path d="M46.823,65.961 C45.244,67.339 43.612,68.81 41.975,70.352 L41.903,71.442 C43.402,69.898 45.243,68.23 47.368,66.461" id="Fill-58" fill="#DC3B41" fill-rule="nonzero"></path>
            <path d="M75.623,59.731 C89.106,65.278 86.766,51.26 79.579,40.528 C75.505,34.446 70.481,29.623 66.843,26.936 C62.593,23.798 62.176,23.538 62.176,23.538 C71.668,28.042 80.29,39.106 83.848,47.256 C85.492,51.019 89.972,65.908 75.702,59.889" id="Fill-59" fill="#FFFFFE" fill-rule="nonzero"></path>
        </g>
    </g>
</svg>