<?xml version="1.0" encoding="UTF-8" standalone="no"?>
<svg
   xmlns:dc="http://purl.org/dc/elements/1.1/"
   xmlns:cc="http://creativecommons.org/ns#"
   xmlns:rdf="http://www.w3.org/1999/02/22-rdf-syntax-ns#"
   xmlns:svg="http://www.w3.org/2000/svg"
   xmlns="http://www.w3.org/2000/svg"
   version="1.1"
   id="svg4894"
   viewBox="0 0 481.08331 126.41251"
   height="35.676418mm"
   width="135.7724mm">
  <defs
     id="defs4896" />
  <metadata
     id="metadata4899">
    <rdf:RDF>
      <cc:Work
         rdf:about="">
        <dc:format>image/svg+xml</dc:format>
        <dc:type
           rdf:resource="http://purl.org/dc/dcmitype/StillImage" />
        <dc:title></dc:title>
      </cc:Work>
    </rdf:RDF>
  </metadata>
  <g
     transform="translate(-128.02977,-560.58452)"
     id="layer1">
    <g
       id="g48"
       transform="matrix(2.896181,0,0,-2.896181,222.09483,637.8025)">
      <path
         d="m 0,0 c -0.31,-0.714 -1.023,-1.217 -1.854,-1.217 -1.115,0 -2.02,0.904 -2.02,2.021 l 0,2.834 7.274,0 0,4.04 -7.274,0 0,0.022 -0.002,0 0,7.633 -21.816,0 0,-5.254 8.083,0 0,-13.341 5.658,0 0,13.341 3.231,0 0,-2.401 -1.655,0 0,-4.04 1.655,0 0,-4.307 0.004,0 c 0.087,-2.939 2.531,-5.083 6.528,-4.984 3.668,0.088 6.422,2.362 6.527,5.386 0.003,0.09 0.003,0.179 0,0.267 L 0,0 Z m 8.747,-10.113 c 0,-2.455 -1.99,-4.447 -4.445,-4.447 l -29.908,0 c -2.455,0 -4.445,1.992 -4.445,4.447 l 0,29.907 c 0,2.455 1.99,4.446 4.445,4.446 l 29.908,0 c 2.455,0 4.445,-1.991 4.445,-4.446 l 0,-29.907 z m -4.176,36.775 -30.454,0 c -3.643,0 -6.596,-2.954 -6.596,-6.598 l 0,-30.453 c 0,-3.645 2.953,-6.597 6.596,-6.597 l 30.454,0 c 3.644,0 6.598,2.952 6.598,6.597 l 0,30.453 c 0,3.644 -2.954,6.598 -6.598,6.598"
         style="fill:#005596;fill-opacity:1;fill-rule:nonzero;stroke:none"
         id="path50" />
    </g>
    <g
       transform="matrix(2.8743229,0,0,-2.8743229,-714.09065,2078.2917)"
       id="g4845">
      <g
         transform="translate(355.3486,514.42931)"
         id="g52">
        <path
           id="path54"
           style="fill:#005596;fill-opacity:1;fill-rule:nonzero;stroke:none"
           d="m 0,0 -4.233,0 0,-9.546 -2.913,0 0,9.546 -4.233,0 0,2.141 L 0,2.141 0,0 Z" />
      </g>
      <g
         transform="translate(365.9122,504.88331)"
         id="g56">
        <path
           id="path58"
           style="fill:#005596;fill-opacity:1;fill-rule:nonzero;stroke:none"
           d="m 0,0 -8.62,0 0,11.687 8.5,0 0,-2.141 -5.587,0 0,-2.452 5.33,0 0,-2.141 -5.33,0 0,-2.811 L 0,2.142 0,0 Z" />
      </g>
      <g
         transform="translate(379.1112,514.42931)"
         id="g60">
        <path
           id="path62"
           style="fill:#005596;fill-opacity:1;fill-rule:nonzero;stroke:none"
           d="m 0,0 -4.233,0 0,-9.546 -2.913,0 0,9.546 -4.233,0 0,2.141 L 0,2.141 0,0 Z" />
      </g>
      <g
         transform="translate(383.9675,511.77271)"
         id="g64">
        <path
           id="path66"
           style="fill:#005596;fill-opacity:1;fill-rule:nonzero;stroke:none"
           d="m 0,0 1.542,0 c 0.806,0 1.595,0.343 1.595,1.337 0,0.874 -0.566,1.32 -1.663,1.32 L 0,2.657 0,0 Z m 2.314,4.798 c 2.399,0 3.822,-1.61 3.822,-3.359 0,-1.285 -0.668,-2.244 -2.005,-2.861 1.199,-0.6 1.56,-2.04 3.205,-5.467 l -3.205,0 C 2.879,-4.387 2.417,-2.142 0.84,-2.142 l -0.84,0 0,-4.747 -2.913,0 0,11.687 5.227,0 z" />
      </g>
      <g
         transform="translate(399.204,513.77831)"
         id="g68">
        <path
           id="path70"
           style="fill:#005596;fill-opacity:1;fill-rule:nonzero;stroke:none"
           d="m 0,0 -1.713,-4.542 3.598,0 L 0,0 Z m 6.838,-8.895 -3.135,0 -0.96,2.314 -5.227,0 -0.875,-2.314 -3.084,0 4.713,11.687 3.375,0 5.193,-11.687 z" />
      </g>
      <g
         transform="translate(423.2763,514.42931)"
         id="g72">
        <path
           id="path74"
           style="fill:#005596;fill-opacity:1;fill-rule:nonzero;stroke:none"
           d="m 0,0 -4.234,0 0,-9.546 -2.913,0 0,9.546 -4.233,0 0,2.141 L 0,2.141 0,0 Z" />
      </g>
      <g
         transform="translate(433.838,504.88331)"
         id="g76">
        <path
           id="path78"
           style="fill:#005596;fill-opacity:1;fill-rule:nonzero;stroke:none"
           d="m 0,0 -8.62,0 0,11.687 8.5,0 0,-2.141 -5.587,0 0,-2.452 5.33,0 0,-2.141 -5.33,0 0,-2.811 L 0,2.142 0,0 Z" />
      </g>
      <g
         transform="translate(446.7525,505.88071)"
         id="g80">
        <path
           id="path82"
           style="fill:#005596;fill-opacity:1;fill-rule:nonzero;stroke:none"
           d="m 0,0 c -1.621,-0.84 -2.85,-1.165 -4.574,-1.165 -4.522,0 -6.776,2.947 -6.776,5.964 0,3.119 2.543,6.032 6.998,6.032 1.621,0 3.072,-0.342 4.215,-1.028 l 0,-2.605 c -1.279,0.72 -2.577,1.2 -4.01,1.2 -2.475,0 -4.215,-1.474 -4.215,-3.547 0,-2.091 1.722,-3.583 4.146,-3.583 1.519,0 2.544,0.48 4.216,1.286 L 0,0 Z" />
      </g>
      <g
         transform="translate(460.3532,504.88331)"
         id="g84">
        <path
           id="path86"
           style="fill:#005596;fill-opacity:1;fill-rule:nonzero;stroke:none"
           d="m 0,0 -2.913,0 0,4.731 -5.827,0 0,-4.731 -2.913,0 0,11.687 2.913,0 0,-4.695 5.827,0 0,4.695 2.913,0 L 0,0 Z" />
      </g>
    </g>
  </g>
</svg>
