<?xml version="1.0" encoding="UTF-8"?>
<svg width="367px" height="75px" viewBox="0 0 367 75" version="1.1" xmlns="http://www.w3.org/2000/svg" xmlns:xlink="http://www.w3.org/1999/xlink">
    <title>Untitled 3</title>
    <g id="Page-1" stroke="none" stroke-width="1" fill="none" fill-rule="evenodd">
        <g id="Group" transform="translate(89.874200, 20.555400)" fill="#000000">
            <path d="M7.785,1.8225 L7.785,18.6685 L11.108,18.6685 C17.802,18.6685 19.714,14.5705 19.714,10.3825 C19.714,6.5565 18.074,1.8225 12.292,1.8225 L7.785,1.8225 Z M13.248,1.3665 C20.078,1.3665 23.856,5.0095 23.856,10.0175 C23.856,14.4335 20.851,18.8955 12.155,19.1235 C16.663,20.3975 18.074,22.1285 19.213,23.7665 L23.037,29.4585 C24.676,31.8255 26.407,32.5545 28.227,32.7815 L28.227,33.2375 L21.489,33.2375 C20.397,32.0525 18.985,30.0505 18.256,28.7765 L15.478,24.2685 C14.205,22.2655 12.747,20.1245 11.063,19.1235 L7.785,19.1235 L7.785,30.6425 C7.785,32.5085 8.195,32.5545 11.701,32.7815 L11.701,33.2375 L0,33.2375 L0,32.7815 C3.505,32.5545 3.914,32.5085 3.914,30.6425 L3.914,3.9625 C3.914,2.0955 3.505,2.0505 0,1.8225 L0,1.3665 L13.248,1.3665 Z" id="Fill-2250"></path>
            <path d="M42.8865,21.9466 C35.8745,22.7666 33.9625,24.7696 33.9625,27.8196 C33.9625,30.2326 35.0545,31.8256 37.6045,31.8256 C39.5625,31.8256 41.1565,30.7336 42.8865,29.5946 L42.8865,21.9466 Z M46.6645,30.6426 C46.6645,31.6446 47.2565,32.0986 48.0765,32.0986 C48.8965,32.0986 49.8515,31.5086 50.8995,30.8706 L50.9905,31.1436 C49.2155,32.4176 47.1195,33.6936 45.2075,33.6936 C43.3875,33.6936 42.8865,32.3716 42.8865,30.8706 L42.8865,30.0506 L42.7955,30.0506 C40.5185,32.2356 38.1965,33.6936 35.4185,33.6936 C31.9125,33.6936 30.1375,31.4166 30.1375,28.6396 C30.1375,25.7716 32.1405,22.4026 42.8865,21.4906 L42.8865,16.7566 C42.8865,13.4326 41.2005,11.0656 37.6495,11.0656 C34.9635,11.0656 32.9605,12.7496 32.9605,14.2966 C32.9605,15.6176 34.8265,15.9826 34.8265,17.0746 C34.8265,17.9846 34.0085,18.6226 32.8695,18.6226 C31.7765,18.6226 30.8215,18.0306 30.8215,16.7106 C30.8215,14.4786 33.8715,10.0176 39.7905,10.0176 C44.6155,10.0176 46.6645,12.8406 46.6645,16.7106 L46.6645,30.6426 Z" id="Fill-2251"></path>
            <path d="M67.8348,29.9592 L67.8348,16.9842 C67.8348,11.8382 64.7838,10.4732 62.5538,10.4732 C57.6358,10.4732 55.4048,15.5262 55.4048,21.7642 C55.4048,28.5482 58.6378,32.3262 62.4168,32.3262 C64.6468,32.3262 66.5138,31.1432 67.8348,29.9592 L67.8348,29.9592 Z M71.6138,30.0502 C71.6138,32.0072 72.0238,32.0532 75.5288,32.2812 L75.5288,32.7362 L68.5638,33.6932 L68.1078,33.6932 L68.0628,30.4602 L67.8348,30.4602 C66.1508,32.2812 63.4178,33.6932 60.6868,33.6932 C54.8128,33.6932 51.3538,28.6852 51.3538,21.8552 C51.3538,14.3872 56.4068,10.0172 61.9618,10.0172 C63.5548,10.0172 65.7408,10.4272 67.8348,12.0202 L67.8348,3.6432 C67.8348,1.6862 67.4248,1.6402 63.9188,1.4122 L63.9188,0.9572 L71.1588,0.0002 L71.6138,0.0002 L71.6138,30.0502 Z" id="Fill-2252"></path>
            <path d="M82.9481,2.0047 C84.4971,2.0047 85.7251,3.0967 85.7251,4.5997 C85.7251,6.1927 84.4971,7.1947 82.9481,7.1947 C81.3551,7.1947 80.1251,6.1927 80.1251,4.5997 C80.1251,3.0967 81.3551,2.0047 82.9481,2.0047 L82.9481,2.0047 Z M84.9521,30.6427 C84.9521,32.5087 85.3611,32.5547 88.8671,32.7817 L88.8671,33.2377 L77.2571,33.2377 L77.2571,32.7817 C80.7621,32.5547 81.1731,32.5087 81.1731,30.6427 L81.1731,13.6607 C81.1731,11.7017 80.7621,11.6557 77.2571,11.4287 L77.2571,10.9737 L84.4971,10.0177 L84.9521,10.0177 L84.9521,30.6427 Z" id="Fill-2253"></path>
            <path d="M103.2996,21.9466 C96.2876,22.7666 94.3756,24.7696 94.3756,27.8196 C94.3756,30.2326 95.4676,31.8256 98.0176,31.8256 C99.9756,31.8256 101.5696,30.7336 103.2996,29.5946 L103.2996,21.9466 Z M107.0776,30.6426 C107.0776,31.6446 107.6696,32.0986 108.4896,32.0986 C109.3096,32.0986 110.2646,31.5086 111.3126,30.8706 L111.4036,31.1436 C109.6286,32.4176 107.5326,33.6936 105.6206,33.6936 C103.8006,33.6936 103.2996,32.3716 103.2996,30.8706 L103.2996,30.0506 L103.2086,30.0506 C100.9316,32.2356 98.6096,33.6936 95.8316,33.6936 C92.3256,33.6936 90.5506,31.4166 90.5506,28.6396 C90.5506,25.7716 92.5536,22.4026 103.2996,21.4906 L103.2996,16.7566 C103.2996,13.4326 101.6136,11.0656 98.0626,11.0656 C95.3766,11.0656 93.3736,12.7496 93.3736,14.2966 C93.3736,15.6176 95.2396,15.9826 95.2396,17.0746 C95.2396,17.9846 94.4216,18.6226 93.2826,18.6226 C92.1896,18.6226 91.2346,18.0306 91.2346,16.7106 C91.2346,14.4786 94.2846,10.0176 100.2036,10.0176 C105.0286,10.0176 107.0776,12.8406 107.0776,16.7106 L107.0776,30.6426 Z" id="Fill-2254"></path>
            <path d="M112.7674,32.782 C116.2734,32.554 116.6834,32.509 116.6834,30.642 L116.6834,13.66 C116.6834,11.701 116.2734,11.656 112.7674,11.428 L112.7674,10.974 L120.0074,10.017 L120.4624,10.017 L120.2354,14.798 L120.4624,14.798 C122.6934,12.112 125.8804,10.017 129.2044,10.017 C132.3004,10.017 134.9864,11.838 134.9864,16.847 L134.9864,30.642 C134.9864,32.509 135.3954,32.554 138.9014,32.782 L138.9014,33.238 L128.1114,33.238 L128.1114,32.782 C130.7974,32.554 131.2064,32.509 131.2064,30.642 L131.2064,16.665 C131.2064,14.116 130.1604,11.975 126.7454,11.975 C124.1954,11.975 122.0554,13.706 120.4624,15.253 L120.4624,30.642 C120.4624,32.509 120.8714,32.554 124.3774,32.782 L124.3774,33.238 L112.7674,33.238 L112.7674,32.782 Z" id="Fill-2255"></path>
            <path d="M147.2772,28.5032 C147.2772,31.5992 148.3702,32.6902 150.0992,32.6902 C151.6482,32.6902 153.1052,31.6452 154.0612,30.9612 L154.1982,31.3262 C152.2412,32.8732 150.1912,33.6932 148.0972,33.6932 C145.0912,33.6932 143.4992,32.0992 143.4992,28.2302 L143.4992,10.9282 L139.5832,10.9282 L139.5832,10.7012 L143.4992,10.4732 L146.8212,3.6432 L147.2772,3.6432 L147.2772,10.4732 L153.5142,10.4732 L153.5142,10.9282 L147.2772,10.9282 L147.2772,28.5032 Z" id="Fill-2256"></path>
            <path d="M190.3914,8.7879 L189.9364,8.7879 C189.0254,4.8279 187.3414,1.8229 183.4704,1.8229 L175.0474,1.8229 L175.0474,16.8019 L180.2384,16.8019 C183.1524,16.8019 184.7914,15.2989 185.2004,11.6559 L185.6564,11.6559 L185.6564,22.4019 L185.2004,22.4019 C184.7914,18.7589 183.1524,17.2559 180.2384,17.2559 L175.0474,17.2559 L175.0474,32.7819 L183.1064,32.7819 C186.9764,32.7819 189.3894,30.3239 190.4374,25.8169 L190.8924,25.8169 L190.4374,33.2379 L167.2624,33.2379 L167.2624,32.7819 C170.7674,32.5549 171.1774,32.5089 171.1774,30.6419 L171.1774,3.9619 C171.1774,2.0959 170.7674,2.0499 167.2624,1.8229 L167.2624,1.3669 L190.1634,1.3669 L190.3914,8.7879 Z" id="Fill-2257"></path>
            <path d="M207.0086,21.9466 C199.9976,22.7666 198.0846,24.7696 198.0846,27.8196 C198.0846,30.2326 199.1776,31.8256 201.7276,31.8256 C203.6846,31.8256 205.2796,30.7336 207.0086,29.5946 L207.0086,21.9466 Z M210.7876,30.6426 C210.7876,31.6446 211.3796,32.0986 212.1976,32.0986 C213.0186,32.0986 213.9746,31.5086 215.0216,30.8706 L215.1126,31.1436 C213.3366,32.4176 211.2426,33.6936 209.3296,33.6936 C207.5096,33.6936 207.0086,32.3716 207.0086,30.8706 L207.0086,30.0506 L206.9166,30.0506 C204.6416,32.2356 202.3196,33.6936 199.5416,33.6936 C196.0356,33.6936 194.2606,31.4166 194.2606,28.6396 C194.2606,25.7716 196.2636,22.4026 207.0086,21.4906 L207.0086,16.7566 C207.0086,13.4326 205.3236,11.0656 201.7726,11.0656 C199.0866,11.0656 197.0836,12.7496 197.0836,14.2966 C197.0836,15.6176 198.9496,15.9826 198.9496,17.0746 C198.9496,17.9846 198.1296,18.6226 196.9926,18.6226 C195.8996,18.6226 194.9436,18.0306 194.9436,16.7106 C194.9436,14.4786 197.9926,10.0176 203.9116,10.0176 C208.7386,10.0176 210.7876,12.8406 210.7876,16.7106 L210.7876,30.6426 Z" id="Fill-2258"></path>
            <path d="M216.4774,32.782 C219.9834,32.554 220.3924,32.509 220.3924,30.642 L220.3924,13.66 C220.3924,11.701 219.9834,11.656 216.4774,11.428 L216.4774,10.974 L223.7154,10.017 L224.1714,10.017 L223.9434,15.253 L224.1714,15.253 C226.5834,11.793 228.7704,10.017 231.2744,10.017 C232.6394,10.017 233.7784,10.838 233.7784,12.339 C233.7784,13.432 232.9134,14.433 231.8204,14.433 C230.5454,14.433 230.0444,12.613 228.4974,12.613 C227.1304,12.613 225.7654,13.751 224.1714,15.709 L224.1714,30.642 C224.1714,32.509 224.5814,32.554 228.9974,32.782 L228.9974,33.238 L216.4774,33.238 L216.4774,32.782 Z" id="Fill-2259"></path>
            <path d="M242.2449,28.5032 C242.2449,31.5992 243.3389,32.6902 245.0679,32.6902 C246.6169,32.6902 248.0729,31.6452 249.0299,30.9612 L249.1669,31.3262 C247.2089,32.8732 245.1589,33.6932 243.0649,33.6932 C240.0599,33.6932 238.4679,32.0992 238.4679,28.2302 L238.4679,10.9282 L234.5519,10.9282 L234.5519,10.7012 L238.4679,10.4732 L241.7899,3.6432 L242.2449,3.6432 L242.2449,10.4732 L248.4829,10.4732 L248.4829,10.9282 L242.2449,10.9282 L242.2449,28.5032 Z" id="Fill-2260"></path>
            <path d="M250.7137,32.782 C254.2197,32.554 254.6287,32.509 254.6287,30.642 L254.6287,3.643 C254.6287,1.686 254.2197,1.64 250.7137,1.412 L250.7137,0.957 L257.9517,0 L258.4077,0 L258.1797,14.798 L258.4077,14.798 C260.6387,12.112 263.8257,10.017 267.1497,10.017 C270.2457,10.017 272.9317,11.838 272.9317,16.847 L272.9317,30.642 C272.9317,32.509 273.3417,32.554 276.8477,32.782 L276.8477,33.238 L266.0567,33.238 L266.0567,32.782 C268.7437,32.554 269.1517,32.509 269.1517,30.642 L269.1517,16.665 C269.1517,14.116 268.1067,11.975 264.6917,11.975 C262.1417,11.975 260.0017,13.706 258.4077,15.253 L258.4077,30.642 C258.4077,32.509 258.8177,32.554 262.3237,32.782 L262.3237,33.238 L250.7137,33.238 L250.7137,32.782 Z" id="Fill-2261"></path>
        </g>
        <g id="Group-2" transform="translate(0.735400, 0.887500)">
            <path d="M30.1816,56.5695 C30.1816,62.6485 25.3406,67.5755 19.3686,67.5755 C13.3976,67.5755 8.5566,62.6485 8.5566,56.5695 C8.5566,50.4915 13.3976,45.5645 19.3686,45.5645 C25.3406,45.5645 30.1816,50.4915 30.1816,56.5695" id="Fill-2262" fill="#6AA843"></path>
            <path d="M72.6709,40.3103 C72.6709,43.6243 70.0309,46.3123 66.7749,46.3123 C63.5179,46.3123 60.8779,43.6243 60.8779,40.3103 C60.8779,36.9953 63.5179,34.3083 66.7749,34.3083 C70.0309,34.3083 72.6709,36.9953 72.6709,40.3103" id="Fill-2263" fill="#6AA843"></path>
            <path d="M42.4179,22.3308 C42.4179,23.9578 41.1219,25.2768 39.5229,25.2768 C37.9239,25.2768 36.6279,23.9578 36.6279,22.3308 C36.6279,20.7038 37.9239,19.3838 39.5229,19.3838 C41.1219,19.3838 42.4179,20.7038 42.4179,22.3308" id="Fill-2264" fill="#6AA843"></path>
            <path d="M6.9853,27.1706 C6.9853,28.7976 5.6893,30.1166 4.0903,30.1166 C2.4923,30.1166 1.1963,28.7976 1.1963,27.1706 C1.1963,25.5436 2.4923,24.2236 4.0903,24.2236 C5.6893,24.2236 6.9853,25.5436 6.9853,27.1706" id="Fill-2265" fill="#6AA843"></path>
            <path d="M37.6093,2.946 C37.6093,4.573 36.3133,5.893 34.7143,5.893 C33.1163,5.893 31.8203,4.573 31.8203,2.946 C31.8203,1.319 33.1163,-5.68434189e-14 34.7143,-5.68434189e-14 C36.3133,-5.68434189e-14 37.6093,1.319 37.6093,2.946" id="Fill-2266" fill="#6AA843"></path>
            <path d="M69.8281,50.2316 C69.8281,51.8586 68.5321,53.1786 66.9331,53.1786 C65.3351,53.1786 64.0391,51.8586 64.0391,50.2316 C64.0391,48.6046 65.3351,47.2856 66.9331,47.2856 C68.5321,47.2856 69.8281,48.6046 69.8281,50.2316" id="Fill-2267" fill="#6AA843"></path>
            <path d="M25.8964,33.6594 C25.8964,35.2864 24.6004,36.6054 23.0014,36.6054 C21.4034,36.6054 20.1074,35.2864 20.1074,33.6594 C20.1074,32.0324 21.4034,30.7124 23.0014,30.7124 C24.6004,30.7124 25.8964,32.0324 25.8964,33.6594" id="Fill-2268" fill="#6AA843"></path>
            <path d="M26.5136,15.0568 C29.1516,20.5098 26.9476,27.1078 21.5896,29.7928 C16.2326,32.4778 9.7506,30.2338 7.1136,24.7798 C4.4756,19.3268 6.6806,12.7288 12.0376,10.0438 C17.3956,7.3588 23.8756,9.6028 26.5136,15.0568" id="Fill-2269" fill="#F4811F"></path>
            <path d="M56.1767,64.4826 C56.1767,66.7526 54.3687,68.5916 52.1397,68.5916 C49.9097,68.5916 48.1027,66.7526 48.1027,64.4826 C48.1027,62.2126 49.9097,60.3736 52.1397,60.3736 C54.3687,60.3736 56.1767,62.2126 56.1767,64.4826" id="Fill-2270" fill="#F4811F"></path>
            <path d="M41.5947,69.0246 C41.5947,71.2946 39.7867,73.1336 37.5577,73.1336 C35.3277,73.1336 33.5207,71.2946 33.5207,69.0246 C33.5207,66.7546 35.3277,64.9156 37.5577,64.9156 C39.7867,64.9156 41.5947,66.7546 41.5947,69.0246" id="Fill-2271" fill="#F4811F"></path>
            <path d="M62.7646,32.9045 C62.7646,35.1745 60.9566,37.0135 58.7266,37.0135 C56.4966,37.0135 54.6896,35.1745 54.6896,32.9045 C54.6896,30.6345 56.4966,28.7955 58.7266,28.7955 C60.9566,28.7955 62.7646,30.6345 62.7646,32.9045" id="Fill-2272" fill="#F4811F"></path>
            <path d="M57.3984,12.7082 C57.3984,14.3352 56.1024,15.6542 54.5024,15.6542 C52.9044,15.6542 51.6084,14.3352 51.6084,12.7082 C51.6084,11.0812 52.9044,9.7612 54.5024,9.7612 C56.1024,9.7612 57.3984,11.0812 57.3984,12.7082" id="Fill-2273" fill="#F4811F"></path>
            <path d="M23.7724,41.9885 C23.7724,43.6155 22.4754,44.9355 20.8764,44.9355 C19.2784,44.9355 17.9824,43.6155 17.9824,41.9885 C17.9824,40.3615 19.2784,39.0425 20.8764,39.0425 C22.4754,39.0425 23.7724,40.3615 23.7724,41.9885" id="Fill-2274" fill="#F4811F"></path>
            <path d="M54.8222,20.7922 C54.8222,24.1072 52.1812,26.7942 48.9262,26.7942 C45.6692,26.7942 43.0292,24.1072 43.0292,20.7922 C43.0292,17.4772 45.6692,14.7902 48.9262,14.7902 C52.1812,14.7902 54.8222,17.4772 54.8222,20.7922" id="Fill-2275" fill="#F4811F"></path>
            <path d="M52.9892,57.0998 C52.9892,58.7268 51.6932,60.0468 50.0942,60.0468 C48.4952,60.0468 47.1992,58.7268 47.1992,57.0998 C47.1992,55.4728 48.4952,54.1538 50.0942,54.1538 C51.6932,54.1538 52.9892,55.4728 52.9892,57.0998" id="Fill-2276" fill="#69AEDF"></path>
            <path d="M35.3525,63.0744 C35.3525,64.7014 34.0565,66.0214 32.4575,66.0214 C30.8595,66.0214 29.5635,64.7014 29.5635,63.0744 C29.5635,61.4474 30.8595,60.1284 32.4575,60.1284 C34.0565,60.1284 35.3525,61.4474 35.3525,63.0744" id="Fill-2277" fill="#69AEDF"></path>
            <path d="M64.3574,14.4094 C64.3574,16.0364 63.0604,17.3564 61.4614,17.3564 C59.8634,17.3564 58.5674,16.0364 58.5674,14.4094 C58.5674,12.7824 59.8634,11.4634 61.4614,11.4634 C63.0604,11.4634 64.3574,12.7824 64.3574,14.4094" id="Fill-2278" fill="#69AEDF"></path>
            <path d="M5.79,36.0656 C5.79,37.6926 4.494,39.0126 2.895,39.0126 C1.297,39.0126 0,37.6926 0,36.0656 C0,34.4386 1.297,33.1196 2.895,33.1196 C4.494,33.1196 5.79,34.4386 5.79,36.0656" id="Fill-2279" fill="#69AEDF"></path>
            <path d="M31.7929,12.8137 C31.7929,14.4407 30.4969,15.7607 28.8979,15.7607 C27.2999,15.7607 26.0039,14.4407 26.0039,12.8137 C26.0039,11.1867 27.2999,9.8677 28.8979,9.8677 C30.4969,9.8677 31.7929,11.1867 31.7929,12.8137" id="Fill-2280" fill="#69AEDF"></path>
            <path d="M31.5283,5.3254 C31.5283,7.5954 29.7203,9.4344 27.4913,9.4344 C25.2613,9.4344 23.4543,7.5954 23.4543,5.3254 C23.4543,3.0554 25.2613,1.2164 27.4913,1.2164 C29.7203,1.2164 31.5283,3.0554 31.5283,5.3254" id="Fill-2281" fill="#69AEDF"></path>
            <path d="M43.1884,55.072 C43.1884,58.386 40.5484,61.074 37.2924,61.074 C34.0354,61.074 31.3954,58.386 31.3954,55.072 C31.3954,51.757 34.0354,49.07 37.2924,49.07 C40.5484,49.07 43.1884,51.757 43.1884,55.072" id="Fill-2282" fill="#69AEDF"></path>
            <path d="M65.6054,57.2346 C65.6054,60.5496 62.9654,63.2366 59.7094,63.2366 C56.4534,63.2366 53.8124,60.5496 53.8124,57.2346 C53.8124,53.9196 56.4534,51.2326 59.7094,51.2326 C62.9654,51.2326 65.6054,53.9196 65.6054,57.2346" id="Fill-2283" fill="#69AEDF"></path>
            <path d="M13.3867,44.2033 C13.3867,47.5183 10.7467,50.2053 7.4907,50.2053 C4.2347,50.2053 1.5937,47.5183 1.5937,44.2033 C1.5937,40.8883 4.2347,38.2013 7.4907,38.2013 C10.7467,38.2013 13.3867,40.8883 13.3867,44.2033" id="Fill-2284" fill="#B1782F"></path>
            <path d="M28.5791,69.1579 C28.5791,70.7849 27.2831,72.1049 25.6841,72.1049 C24.0861,72.1049 22.7901,70.7849 22.7901,69.1579 C22.7901,67.5309 24.0861,66.2119 25.6841,66.2119 C27.2831,66.2119 28.5791,67.5309 28.5791,69.1579" id="Fill-2285" fill="#B1782F"></path>
            <path d="M40.8779,15.2746 C40.8779,17.5446 39.0699,19.3836 36.8409,19.3836 C34.6109,19.3836 32.8039,17.5446 32.8039,15.2746 C32.8039,13.0046 34.6109,11.1656 36.8409,11.1656 C39.0699,11.1656 40.8779,13.0046 40.8779,15.2746" id="Fill-2286" fill="#B1782F"></path>
            <path d="M36.0966,23.4934 C36.0966,25.7634 34.2886,27.6034 32.0596,27.6034 C29.8296,27.6034 28.0226,25.7634 28.0226,23.4934 C28.0226,21.2234 29.8296,19.3844 32.0596,19.3844 C34.2886,19.3844 36.0966,21.2234 36.0966,23.4934" id="Fill-2287" fill="#B1782F"></path>
            <path d="M72.6972,31.2526 C72.6972,32.8796 71.4012,34.1986 69.8022,34.1986 C68.2042,34.1986 66.9082,32.8796 66.9082,31.2526 C66.9082,29.6256 68.2042,28.3056 69.8022,28.3056 C71.4012,28.3056 72.6972,29.6256 72.6972,31.2526" id="Fill-2288" fill="#B1782F"></path>
            <path d="M49.0322,6.4069 C49.0322,9.7209 46.3912,12.4089 43.1362,12.4089 C39.8792,12.4089 37.2392,9.7209 37.2392,6.4069 C37.2392,3.0919 39.8792,0.4049 43.1362,0.4049 C46.3912,0.4049 49.0322,3.0919 49.0322,6.4069" id="Fill-2289" fill="#B1782F"></path>
            <path d="M50.3164,37.1208 C50.3164,43.1988 45.4754,48.1258 39.5034,48.1258 C33.5334,48.1258 28.6924,43.1988 28.6924,37.1208 C28.6924,31.0418 33.5334,26.1148 39.5034,26.1148 C45.4754,26.1148 50.3164,31.0418 50.3164,37.1208" id="Fill-2290" fill="#2A61AD"></path>
            <path d="M48.4462,69.05 C48.4462,70.677 47.1502,71.996 45.5512,71.996 C43.9532,71.996 42.6572,70.677 42.6572,69.05 C42.6572,67.423 43.9532,66.103 45.5512,66.103 C47.1502,66.103 48.4462,67.423 48.4462,69.05" id="Fill-2291" fill="#2A61AD"></path>
            <path d="M61.7021,46.4201 C61.7021,48.6901 59.8941,50.5291 57.6641,50.5291 C55.4341,50.5291 53.6271,48.6901 53.6271,46.4201 C53.6271,44.1501 55.4341,42.3111 57.6641,42.3111 C59.8941,42.3111 61.7021,44.1501 61.7021,46.4201" id="Fill-2292" fill="#2A61AD"></path>
            <path d="M53.0693,49.2321 C53.0693,51.5021 51.2613,53.3411 49.0323,53.3411 C46.8013,53.3411 44.9943,51.5021 44.9943,49.2321 C44.9943,46.9621 46.8013,45.1221 49.0323,45.1221 C51.2613,45.1221 53.0693,46.9621 53.0693,49.2321" id="Fill-2293" fill="#2A61AD"></path>
            <path d="M20.0546,36.6872 C20.0546,38.9572 18.2466,40.7962 16.0166,40.7962 C13.7866,40.7962 11.9796,38.9572 11.9796,36.6872 C11.9796,34.4172 13.7866,32.5782 16.0166,32.5782 C18.2466,32.5782 20.0546,34.4172 20.0546,36.6872" id="Fill-2294" fill="#2A61AD"></path>
            <path d="M55.4853,6.9201 C55.4853,8.5471 54.1893,9.8661 52.5903,9.8661 C50.9923,9.8661 49.6963,8.5471 49.6963,6.9201 C49.6963,5.2931 50.9923,3.9731 52.5903,3.9731 C54.1893,3.9731 55.4853,5.2931 55.4853,6.9201" id="Fill-2295" fill="#2A61AD"></path>
            <path d="M69.8554,23.4934 C69.8554,26.8084 67.2154,29.4954 63.9594,29.4954 C60.7024,29.4954 58.0624,26.8084 58.0624,23.4934 C58.0624,20.1794 60.7024,17.4914 63.9594,17.4914 C67.2154,17.4914 69.8554,20.1794 69.8554,23.4934" id="Fill-2296" fill="#2A61AD"></path>
        </g>
    </g>
</svg>