<?xml version="1.0" encoding="UTF-8"?>
<svg width="406px" height="84px" viewBox="0 0 406 84" version="1.1" xmlns="http://www.w3.org/2000/svg" xmlns:xlink="http://www.w3.org/1999/xlink">
    <title>Slice</title>
    <g id="Page-1" stroke="none" stroke-width="1" fill="none" fill-rule="evenodd">
        <path d="M35.0056,7.3911 C35.0056,9.9111 32.9986,11.9531 30.5236,11.9531 C28.0476,11.9531 26.0406,9.9111 26.0406,7.3911 C26.0406,4.8711 28.0476,2.8281 30.5236,2.8281 C32.9986,2.8281 35.0056,4.8711 35.0056,7.3911" id="Fill-63" fill="#69AEDF"></path>
        <path d="M213.6634,24.3662 C205.8774,25.2772 203.7554,27.5002 203.7554,30.8872 C203.7554,33.5662 204.9674,35.3352 207.7984,35.3352 C209.9734,35.3352 211.7414,34.1222 213.6634,32.8582 L213.6634,24.3662 Z M217.8574,34.0212 C217.8574,35.1342 218.5154,35.6382 219.4254,35.6382 C220.3364,35.6382 221.3964,34.9822 222.5594,34.2742 L222.6614,34.5782 C220.6904,35.9922 218.3634,37.4082 216.2414,37.4082 C214.2194,37.4082 213.6634,35.9422 213.6634,34.2742 L213.6634,33.3642 L213.5624,33.3642 C211.0334,35.7902 208.4554,37.4082 205.3714,37.4082 C201.4794,37.4082 199.5084,34.8812 199.5084,31.7982 C199.5084,28.6132 201.7324,24.8722 213.6634,23.8612 L213.6634,18.6042 C213.6634,14.9132 211.7914,12.2852 207.8484,12.2852 C204.8664,12.2852 202.6424,14.1552 202.6424,15.8732 C202.6424,17.3392 204.7144,17.7442 204.7144,18.9582 C204.7144,19.9682 203.8054,20.6762 202.5414,20.6762 C201.3274,20.6762 200.2674,20.0182 200.2674,18.5532 C200.2674,16.0752 203.6544,11.1222 210.2254,11.1222 C215.5834,11.1222 217.8574,14.2562 217.8574,18.5532 L217.8574,34.0212 Z" id="Fill-9" fill="#000000"></path>
        <path d="M107.6135,2.023 L107.6135,20.727 L111.3035,20.727 C118.7355,20.727 120.8585,16.176 120.8585,11.526 C120.8585,7.28 119.0375,2.023 112.6175,2.023 L107.6135,2.023 Z M113.6795,1.517 C121.2625,1.517 125.4575,5.562 125.4575,11.122 C125.4575,16.024 122.1205,20.98 112.4655,21.232 C117.4705,22.647 119.0375,24.569 120.3015,26.388 L124.5485,32.707 C126.3675,35.335 128.2895,36.144 130.3105,36.397 L130.3105,36.903 L122.8285,36.903 C121.6165,35.588 120.0485,33.364 119.2395,31.95 L116.1555,26.944 C114.7415,24.72 113.1225,22.343 111.2535,21.232 L107.6135,21.232 L107.6135,34.022 C107.6135,36.094 108.0685,36.144 111.9615,36.397 L111.9615,36.903 L98.9695,36.903 L98.9695,36.397 C102.8615,36.144 103.3165,36.094 103.3165,34.022 L103.3165,4.398 C103.3165,2.326 102.8615,2.276 98.9695,2.023 L98.9695,1.517 L113.6795,1.517 Z" id="Fill-1" fill="#000000"></path>
        <path d="M61.6052,9.1616 C61.6052,10.9686 60.1662,12.4326 58.3912,12.4326 C56.6162,12.4326 55.1772,10.9686 55.1772,9.1616 C55.1772,7.3546 56.6162,5.8906 58.3912,5.8906 C60.1662,5.8906 61.6052,7.3546 61.6052,9.1616" id="Fill-91" fill="#2A61AD"></path>
        <path d="M320.6331,82.5405 C324.4291,82.2945 324.8731,82.2445 324.8731,80.2235 L324.8731,61.8365 C324.8731,59.7185 324.4291,59.6675 320.6331,59.4225 L320.6331,58.9295 L328.4701,57.8945 L328.9631,57.8945 L328.7171,63.0705 L328.9631,63.0705 C331.3801,60.1605 334.8301,57.8945 338.4271,57.8945 C341.7811,57.8945 344.6881,59.8645 344.6881,65.2875 L344.6881,80.2235 C344.6881,82.2445 345.1331,82.2945 348.9281,82.5405 L348.9281,83.0335 L337.2441,83.0335 L337.2441,82.5405 C340.1541,82.2945 340.5961,82.2445 340.5961,80.2235 L340.5961,65.0905 C340.5961,62.3295 339.4641,60.0125 335.7651,60.0125 C333.0071,60.0125 330.6901,61.8875 328.9631,63.5635 L328.9631,80.2235 C328.9631,82.2445 329.4071,82.2945 333.2031,82.5405 L333.2031,83.0335 L320.6331,83.0335 L320.6331,82.5405 Z" id="Fill-113" fill="#000000"></path>
        <path d="M104.5398,51.3379 C104.5398,49.3169 104.0978,49.2689 100.3018,49.0209 L100.3018,48.5279 L125.0958,48.5279 L125.3428,56.5639 L124.8508,56.5639 C123.8638,52.2749 122.0398,49.0209 117.8508,49.0209 L108.7318,49.0209 L108.7318,66.2249 L114.3488,66.2249 C117.5038,66.2249 119.2788,64.5979 119.7238,60.6539 L120.2168,60.6539 L120.2168,72.2869 L119.7238,72.2869 C119.2788,68.3449 117.5038,66.7179 114.3488,66.7179 L108.7318,66.7179 L108.7318,80.2239 C108.7318,82.2439 109.1738,82.2949 112.9698,82.5409 L112.9698,83.0329 L100.3018,83.0329 L100.3018,82.5409 C104.0978,82.2949 104.5398,82.2439 104.5398,80.2239 L104.5398,51.3379 Z" id="Fill-95" fill="#000000"></path>
        <path d="M80.7151,36.1778 C80.7151,37.9848 79.2761,39.4488 77.5011,39.4488 C75.7261,39.4488 74.2871,37.9848 74.2871,36.1778 C74.2871,34.3708 75.7261,32.9068 77.5011,32.9068 C79.2761,32.9068 80.7151,34.3708 80.7151,36.1778" id="Fill-77" fill="#B1782F"></path>
        <path d="M60.8684,24.564 C60.8684,28.244 57.9374,31.228 54.3214,31.228 C50.7054,31.228 47.7744,28.244 47.7744,24.564 C47.7744,20.883 50.7054,17.9 54.3214,17.9 C57.9374,17.9 60.8684,20.883 60.8684,24.564" id="Fill-51" fill="#F4811F"></path>
        <path d="M146.5867,24.3662 C138.8017,25.2772 136.6787,27.5002 136.6787,30.8872 C136.6787,33.5662 137.8907,35.3352 140.7217,35.3352 C142.8967,35.3352 144.6647,34.1222 146.5867,32.8582 L146.5867,24.3662 Z M150.7817,34.0212 C150.7817,35.1342 151.4397,35.6382 152.3497,35.6382 C153.2597,35.6382 154.3197,34.9822 155.4837,34.2742 L155.5847,34.5782 C153.6137,35.9922 151.2877,37.4082 149.1647,37.4082 C147.1437,37.4082 146.5867,35.9422 146.5867,34.2742 L146.5867,33.3642 L146.4857,33.3642 C143.9567,35.7902 141.3787,37.4082 138.2957,37.4082 C134.4027,37.4082 132.4317,34.8812 132.4317,31.7982 C132.4317,28.6132 134.6557,24.8722 146.5867,23.8612 L146.5867,18.6042 C146.5867,14.9132 144.7157,12.2852 140.7727,12.2852 C137.7897,12.2852 135.5657,14.1552 135.5657,15.8732 C135.5657,17.3392 137.6377,17.7442 137.6377,18.9582 C137.6377,19.9682 136.7297,20.6762 135.4647,20.6762 C134.2517,20.6762 133.1907,20.0182 133.1907,18.5532 C133.1907,16.0752 136.5777,11.1222 143.1487,11.1222 C148.5067,11.1222 150.7817,14.2562 150.7817,18.5532 L150.7817,34.0212 Z" id="Fill-3" fill="#000000"></path>
        <path d="M39.2512,71.5098 C39.2512,73.3168 37.8122,74.7808 36.0372,74.7808 C34.2622,74.7808 32.8232,73.3168 32.8232,71.5098 C32.8232,69.7028 34.2622,68.2388 36.0372,68.2388 C37.8122,68.2388 39.2512,69.7028 39.2512,71.5098" id="Fill-55" fill="#69AEDF"></path>
        <path d="M58.9221,56.1406 C58.9221,58.6606 56.9151,60.7026 54.4391,60.7026 C51.9641,60.7026 49.9571,58.6606 49.9571,56.1406 C49.9571,53.6206 51.9641,51.5776 54.4391,51.5776 C56.9151,51.5776 58.9221,53.6206 58.9221,56.1406" id="Fill-87" fill="#2A61AD"></path>
        <path d="M41.7576,4.7495 C41.7576,6.5565 40.3186,8.0205 38.5436,8.0205 C36.7686,8.0205 35.3296,6.5565 35.3296,4.7495 C35.3296,2.9425 36.7686,1.4785 38.5436,1.4785 C40.3186,1.4785 41.7576,2.9425 41.7576,4.7495" id="Fill-33" fill="#6AA843"></path>
        <path d="M180.7932,82.5405 C184.5892,82.2945 185.0332,82.2445 185.0332,80.2235 L185.0332,61.8365 C185.0332,59.7185 184.5892,59.6675 180.7932,59.4225 L180.7932,58.9295 L188.6302,57.8945 L189.1232,57.8945 L188.8782,63.0705 L189.1232,63.0705 C191.5402,60.1605 194.9912,57.8945 198.5872,57.8945 C201.9412,57.8945 204.8492,59.8645 204.8492,65.2875 L204.8492,80.2235 C204.8492,82.2445 205.2932,82.2945 209.0892,82.5405 L209.0892,83.0335 L197.4052,83.0335 L197.4052,82.5405 C200.3142,82.2945 200.7562,82.2445 200.7562,80.2235 L200.7562,65.0905 C200.7562,62.3295 199.6252,60.0125 195.9262,60.0125 C193.1672,60.0125 190.8502,61.8875 189.1232,63.5635 L189.1232,80.2235 C189.1232,82.2445 189.5682,82.2945 193.3642,82.5405 L193.3642,83.0335 L180.7932,83.0335 L180.7932,82.5405 Z" id="Fill-101" fill="#000000"></path>
        <path d="M228.6077,79.4854 L228.6077,65.4354 C228.6077,59.8644 225.3047,58.3874 222.8907,58.3874 C217.5667,58.3874 215.1507,63.8594 215.1507,70.6114 C215.1507,77.9554 218.6507,82.0474 222.7427,82.0474 C225.1567,82.0474 227.1777,80.7654 228.6077,79.4854 L228.6077,79.4854 Z M232.6997,79.5824 C232.6997,81.7024 233.1417,81.7514 236.9377,81.9994 L236.9377,82.4914 L229.3977,83.5264 L228.9037,83.5264 L228.8557,80.0274 L228.6077,80.0274 C226.7837,81.9994 223.8257,83.5264 220.8677,83.5264 C214.5097,83.5264 210.7647,78.1034 210.7647,70.7104 C210.7647,62.6264 216.2367,57.8954 222.2497,57.8954 C223.9737,57.8954 226.3397,58.3374 228.6077,60.0634 L228.6077,50.9924 C228.6077,48.8724 228.1637,48.8244 224.3697,48.5764 L224.3697,48.0864 L232.2067,47.0484 L232.6997,47.0484 L232.6997,79.5824 Z" id="Fill-103" fill="#000000"></path>
        <path d="M62.3728,73.0733 C62.3728,75.5933 60.3658,77.6353 57.8908,77.6353 C55.4148,77.6353 53.4078,75.5933 53.4078,73.0733 C53.4078,70.5533 55.4148,68.5103 57.8908,68.5103 C60.3658,68.5103 62.3728,70.5533 62.3728,73.0733" id="Fill-41" fill="#F4811F"></path>
        <path d="M224.1751,36.397 C228.0681,36.144 228.5231,36.094 228.5231,34.022 L228.5231,15.167 C228.5231,12.992 228.0681,12.941 224.1751,12.688 L224.1751,12.184 L232.2141,11.122 L232.7191,11.122 L232.4671,16.429 L232.7191,16.429 C235.1961,13.447 238.7351,11.122 242.4251,11.122 C245.8621,11.122 248.8451,13.143 248.8451,18.705 L248.8451,34.022 C248.8451,36.094 249.2991,36.144 253.1921,36.397 L253.1921,36.903 L241.2111,36.903 L241.2111,36.397 C244.1941,36.144 244.6491,36.094 244.6491,34.022 L244.6491,18.503 C244.6491,15.672 243.4861,13.295 239.6941,13.295 C236.8631,13.295 234.4881,15.217 232.7191,16.935 L232.7191,34.022 C232.7191,36.094 233.1731,36.144 237.0661,36.397 L237.0661,36.903 L224.1751,36.903 L224.1751,36.397 Z" id="Fill-11" fill="#000000"></path>
        <path d="M328.8103,24.3662 C321.0263,25.2772 318.9023,27.5002 318.9023,30.8872 C318.9023,33.5662 320.1163,35.3352 322.9463,35.3352 C325.1203,35.3352 326.8903,34.1222 328.8103,32.8582 L328.8103,24.3662 Z M333.0063,34.0212 C333.0063,35.1342 333.6643,35.6382 334.5733,35.6382 C335.4833,35.6382 336.5453,34.9822 337.7063,34.2742 L337.8083,34.5782 C335.8373,35.9922 333.5123,37.4082 331.3883,37.4082 C329.3663,37.4082 328.8103,35.9422 328.8103,34.2742 L328.8103,33.3642 L328.7093,33.3642 C326.1823,35.7902 323.6043,37.4082 320.5203,37.4082 C316.6273,37.4082 314.6573,34.8812 314.6573,31.7982 C314.6573,28.6132 316.8803,24.8722 328.8103,23.8612 L328.8103,18.6042 C328.8103,14.9132 326.9403,12.2852 322.9973,12.2852 C320.0153,12.2852 317.7913,14.1552 317.7913,15.8732 C317.7913,17.3392 319.8633,17.7442 319.8633,18.9582 C319.8633,19.9682 318.9533,20.6762 317.6903,20.6762 C316.4763,20.6762 315.4143,20.0182 315.4143,18.5532 C315.4143,16.0752 318.8013,11.1222 325.3723,11.1222 C330.7323,11.1222 333.0063,14.2562 333.0063,18.5532 L333.0063,34.0212 Z" id="Fill-17" fill="#000000"></path>
        <path d="M53.7898,78.1441 C53.7898,79.9511 52.3508,81.4151 50.5758,81.4151 C48.8008,81.4151 47.3618,79.9511 47.3618,78.1441 C47.3618,76.3371 48.8008,74.8731 50.5758,74.8731 C52.3508,74.8731 53.7898,76.3371 53.7898,78.1441" id="Fill-83" fill="#2A61AD"></path>
        <path d="M29.4378,18.1958 C32.3668,24.2508 29.9188,31.5758 23.9708,34.5568 C18.0218,37.5378 10.8268,35.0468 7.8978,28.9918 C4.9698,22.9368 7.4168,15.6118 13.3658,12.6308 C19.3128,9.6498 26.5098,12.1408 29.4378,18.1958" id="Fill-39" fill="#F4811F"></path>
        <path d="M33.51,64.2876 C33.51,71.0366 28.135,76.5076 21.505,76.5076 C14.875,76.5076 9.5,71.0366 9.5,64.2876 C9.5,57.5386 14.875,52.0676 21.505,52.0676 C28.135,52.0676 33.51,57.5386 33.51,64.2876" id="Fill-25" fill="#6AA843"></path>
        <path d="M54.4392,8.5918 C54.4392,12.2718 51.5082,15.2558 47.8922,15.2558 C44.2762,15.2558 41.3452,12.2718 41.3452,8.5918 C41.3452,4.9108 44.2762,1.9278 47.8922,1.9278 C51.5082,1.9278 54.4392,4.9108 54.4392,8.5918" id="Fill-79" fill="#B1782F"></path>
        <path d="M35.2996,15.7056 C35.2996,17.5126 33.8606,18.9766 32.0856,18.9766 C30.3106,18.9766 28.8716,17.5126 28.8716,15.7056 C28.8716,13.8986 30.3106,12.4346 32.0856,12.4346 C33.8606,12.4346 35.2996,13.8986 35.2996,15.7056" id="Fill-61" fill="#69AEDF"></path>
        <path d="M367.9339,31.646 C367.9339,35.084 369.1479,36.296 371.0679,36.296 C372.7879,36.296 374.4049,35.134 375.4669,34.375 L375.6189,34.78 C373.4449,36.498 371.1689,37.409 368.8449,37.409 C365.5079,37.409 363.7399,35.639 363.7399,31.343 L363.7399,12.133 L359.3919,12.133 L359.3919,11.88 L363.7399,11.627 L367.4289,4.044 L367.9339,4.044 L367.9339,11.627 L374.8599,11.627 L374.8599,12.133 L367.9339,12.133 L367.9339,31.646 Z" id="Fill-21" fill="#000000"></path>
        <path d="M47.096,26.272 C47.096,28.079 45.657,29.543 43.882,29.543 C42.107,29.543 40.668,28.079 40.668,26.272 C40.668,24.465 42.107,23.001 43.882,23.001 C45.657,23.001 47.096,24.465 47.096,26.272" id="Fill-29" fill="#6AA843"></path>
        <path d="M377.3362,36.397 C381.2292,36.144 381.6832,36.094 381.6832,34.022 L381.6832,4.044 C381.6832,1.871 381.2292,1.821 377.3362,1.568 L377.3362,1.062 L385.3732,0 L385.8792,0 L385.6262,16.429 L385.8792,16.429 C388.3562,13.447 391.8942,11.122 395.5852,11.122 C399.0222,11.122 402.0042,13.143 402.0042,18.705 L402.0042,34.022 C402.0042,36.094 402.4602,36.144 406.3532,36.397 L406.3532,36.903 L394.3712,36.903 L394.3712,36.397 C397.3552,36.144 397.8082,36.094 397.8082,34.022 L397.8082,18.503 C397.8082,15.672 396.6472,13.295 392.8552,13.295 C390.0242,13.295 387.6492,15.217 385.8792,16.935 L385.8792,34.022 C385.8792,36.094 386.3342,36.144 390.2272,36.397 L390.2272,36.903 L377.3362,36.903 L377.3362,36.397 Z" id="Fill-23" fill="#000000"></path>
        <path d="M58.8333,64.876 C58.8333,66.683 57.3943,68.147 55.6193,68.147 C53.8443,68.147 52.4053,66.683 52.4053,64.876 C52.4053,63.069 53.8443,61.605 55.6193,61.605 C57.3943,61.605 58.8333,63.069 58.8333,64.876" id="Fill-53" fill="#69AEDF"></path>
        <path d="M7.7556,31.6455 C7.7556,33.4525 6.3166,34.9165 4.5416,34.9165 C2.7666,34.9165 1.3276,33.4525 1.3276,31.6455 C1.3276,29.8385 2.7666,28.3745 4.5416,28.3745 C6.3166,28.3745 7.7556,29.8385 7.7556,31.6455" id="Fill-31" fill="#6AA843"></path>
        <path d="M55.866,42.6934 C55.866,49.4424 50.491,54.9134 43.861,54.9134 C37.231,54.9134 31.856,49.4424 31.856,42.6934 C31.856,35.9444 37.231,30.4734 43.861,30.4734 C50.491,30.4734 55.866,35.9444 55.866,42.6934" id="Fill-81" fill="#2A61AD"></path>
        <path d="M72.8416,65.0259 C72.8416,68.7059 69.9106,71.6899 66.2946,71.6899 C62.6786,71.6899 59.7476,68.7059 59.7476,65.0259 C59.7476,61.3449 62.6786,58.3619 66.2946,58.3619 C69.9106,58.3619 72.8416,61.3449 72.8416,65.0259" id="Fill-67" fill="#69AEDF"></path>
        <path d="M45.3865,18.4375 C45.3865,20.9575 43.3795,23.0005 40.9035,23.0005 C38.4285,23.0005 36.4215,20.9575 36.4215,18.4375 C36.4215,15.9175 38.4285,13.8755 40.9035,13.8755 C43.3795,13.8755 45.3865,15.9175 45.3865,18.4375" id="Fill-73" fill="#B1782F"></path>
        <path d="M339.324,36.397 C343.217,36.144 343.67,36.094 343.67,34.022 L343.67,15.167 C343.67,12.992 343.217,12.941 339.324,12.688 L339.324,12.184 L347.361,11.122 L347.866,11.122 L347.614,16.935 L347.866,16.935 C350.545,13.093 352.973,11.122 355.753,11.122 C357.269,11.122 358.533,12.032 358.533,13.7 C358.533,14.914 357.572,16.024 356.359,16.024 C354.944,16.024 354.387,14.003 352.67,14.003 C351.152,14.003 349.637,15.268 347.866,17.44 L347.866,34.022 C347.866,36.094 348.322,36.144 353.224,36.397 L353.224,36.903 L339.324,36.903 L339.324,36.397 Z" id="Fill-19" fill="#000000"></path>
        <path d="M31.7307,78.2642 C31.7307,80.0712 30.2917,81.5352 28.5167,81.5352 C26.7417,81.5352 25.3027,80.0712 25.3027,78.2642 C25.3027,76.4572 26.7417,74.9932 28.5167,74.9932 C30.2917,74.9932 31.7307,76.4572 31.7307,78.2642" id="Fill-71" fill="#B1782F"></path>
        <path d="M262.491,31.646 C262.491,35.084 263.705,36.296 265.625,36.296 C267.345,36.296 268.962,35.134 270.024,34.375 L270.176,34.78 C268.002,36.498 265.726,37.409 263.402,37.409 C260.065,37.409 258.297,35.639 258.297,31.343 L258.297,12.133 L253.949,12.133 L253.949,11.88 L258.297,11.627 L261.986,4.044 L262.491,4.044 L262.491,11.627 L269.417,11.627 L269.417,12.133 L262.491,12.133 L262.491,31.646 Z" id="Fill-13" fill="#000000"></path>
        <path d="M40.0779,27.563 C40.0779,30.083 38.0709,32.126 35.5959,32.126 C33.1199,32.126 31.1129,30.083 31.1129,27.563 C31.1129,25.043 33.1199,23.001 35.5959,23.001 C38.0709,23.001 40.0779,25.043 40.0779,27.563" id="Fill-75" fill="#B1782F"></path>
        <path d="M14.8631,50.5571 C14.8631,54.2371 11.9321,57.2211 8.3161,57.2211 C4.7001,57.2211 1.7691,54.2371 1.7691,50.5571 C1.7691,46.8761 4.7001,43.8931 8.3161,43.8931 C11.9321,43.8931 14.8631,46.8761 14.8631,50.5571" id="Fill-69" fill="#B1782F"></path>
        <path d="M270.3093,77.9068 C270.3093,81.2588 271.4923,82.4408 273.3643,82.4408 C275.0403,82.4408 276.6193,81.3088 277.6533,80.5688 L277.8013,80.9648 C275.6813,82.6398 273.4643,83.5268 271.1963,83.5268 C267.9413,83.5268 266.2173,81.8028 266.2173,77.6108 L266.2173,58.8808 L261.9793,58.8808 L261.9793,58.6338 L266.2173,58.3878 L269.8163,50.9928 L270.3093,50.9928 L270.3093,58.3878 L277.0603,58.3878 L277.0603,58.8808 L270.3093,58.8808 L270.3093,77.9068 Z" id="Fill-107" fill="#000000"></path>
        <path d="M28.7527,38.8501 C28.7527,40.6571 27.3137,42.1211 25.5387,42.1211 C23.7637,42.1211 22.3247,40.6571 22.3247,38.8501 C22.3247,37.0431 23.7637,35.5791 25.5387,35.5791 C27.3137,35.5791 28.7527,37.0431 28.7527,38.8501" id="Fill-37" fill="#6AA843"></path>
        <path d="M46.1819,78.1162 C46.1819,80.6362 44.1749,82.6782 41.6999,82.6782 C39.2239,82.6782 37.2169,80.6362 37.2169,78.1162 C37.2169,75.5962 39.2239,73.5532 41.6999,73.5532 C44.1749,73.5532 46.1819,75.5962 46.1819,78.1162" id="Fill-43" fill="#F4811F"></path>
        <path d="M285.8333,49.2178 C287.5093,49.2178 288.8403,50.4008 288.8403,52.0278 C288.8403,53.7538 287.5093,54.8378 285.8333,54.8378 C284.1093,54.8378 282.7783,53.7538 282.7783,52.0278 C282.7783,50.4008 284.1093,49.2178 285.8333,49.2178 L285.8333,49.2178 Z M288.0023,80.2238 C288.0023,82.2438 288.4463,82.2948 292.2423,82.5408 L292.2423,83.0328 L279.6713,83.0328 L279.6713,82.5408 C283.4673,82.2948 283.9123,82.2438 283.9123,80.2238 L283.9123,61.8368 C283.9123,59.7188 283.4673,59.6678 279.6713,59.4228 L279.6713,58.9298 L287.5093,57.8948 L288.0023,57.8948 L288.0023,80.2238 Z" id="Fill-109" fill="#000000"></path>
        <path d="M191.0667,2.2251 C192.7867,2.2251 194.1507,3.4371 194.1507,5.1061 C194.1507,6.8751 192.7867,7.9881 191.0667,7.9881 C189.2977,7.9881 187.9327,6.8751 187.9327,5.1061 C187.9327,3.4371 189.2977,2.2251 191.0667,2.2251 L191.0667,2.2251 Z M193.2927,34.0211 C193.2927,36.0941 193.7457,36.1441 197.6387,36.3971 L197.6387,36.9031 L184.7477,36.9031 L184.7477,36.3971 C188.6407,36.1441 189.0957,36.0941 189.0957,34.0211 L189.0957,15.1661 C189.0957,12.9921 188.6407,12.9411 184.7477,12.6881 L184.7477,12.1841 L192.7867,11.1221 L193.2927,11.1221 L193.2927,34.0211 Z" id="Fill-7" fill="#000000"></path>
        <path d="M129.5325,70.7105 C129.5325,78.4995 132.2935,83.0335 136.8275,83.0335 C141.3625,83.0335 144.1235,78.4995 144.1235,70.7105 C144.1235,62.9225 141.3625,58.3875 136.8275,58.3875 C132.2935,58.3875 129.5325,62.9225 129.5325,70.7105 M125.1465,70.7105 C125.1465,63.5635 129.7295,57.8955 136.8275,57.8955 C143.9275,57.8955 148.5095,63.5635 148.5095,70.7105 C148.5095,77.8575 143.9275,83.5265 136.8275,83.5265 C129.7295,83.5265 125.1465,77.8575 125.1465,70.7105" id="Fill-97" fill="#000000"></path>
        <path d="M63.7283,15.5879 C63.7283,17.3949 62.2893,18.8589 60.5143,18.8589 C58.7393,18.8589 57.3003,17.3949 57.3003,15.5879 C57.3003,13.7809 58.7393,12.3169 60.5143,12.3169 C62.2893,12.3169 63.7283,13.7809 63.7283,15.5879" id="Fill-47" fill="#F4811F"></path>
        <path d="M174.2869,33.2632 L174.2869,18.8572 C174.2869,13.1432 170.8999,11.6272 168.4229,11.6272 C162.9629,11.6272 160.4859,17.2382 160.4859,24.1642 C160.4859,31.6972 164.0749,35.8912 168.2709,35.8912 C170.7479,35.8912 172.8199,34.5782 174.2869,33.2632 L174.2869,33.2632 Z M178.4829,33.3642 C178.4829,35.5372 178.9379,35.5882 182.8289,35.8412 L182.8289,36.3462 L175.0959,37.4092 L174.5899,37.4092 L174.5389,33.8192 L174.2869,33.8192 C172.4169,35.8412 169.3829,37.4092 166.3499,37.4092 C159.8289,37.4092 155.9879,31.8482 155.9879,24.2652 C155.9879,15.9742 161.5989,11.1222 167.7659,11.1222 C169.5339,11.1222 171.9619,11.5772 174.2869,13.3462 L174.2869,4.0442 C174.2869,1.8712 173.8309,1.8212 169.9389,1.5682 L169.9389,1.0622 L177.9769,0.0002 L178.4829,0.0002 L178.4829,33.3642 Z" id="Fill-5" fill="#000000"></path>
        <path d="M6.428,41.522 C6.428,43.329 4.989,44.793 3.214,44.793 C1.439,44.793 0,43.329 0,41.522 C0,39.715 1.439,38.251 3.214,38.251 C4.989,38.251 6.428,39.715 6.428,41.522" id="Fill-59" fill="#69AEDF"></path>
        <path d="M68.5066,53.0186 C68.5066,55.5386 66.4996,57.5806 64.0246,57.5806 C61.5486,57.5806 59.5416,55.5386 59.5416,53.0186 C59.5416,50.4986 61.5486,48.4556 64.0246,48.4556 C66.4996,48.4556 68.5066,50.4986 68.5066,53.0186" id="Fill-85" fill="#2A61AD"></path>
        <path d="M26.3938,48.0982 C26.3938,49.9052 24.9548,51.3692 23.1798,51.3692 C21.4048,51.3692 19.9658,49.9052 19.9658,48.0982 C19.9658,46.2912 21.4048,44.8272 23.1798,44.8272 C24.9548,44.8272 26.3938,46.2912 26.3938,48.0982" id="Fill-49" fill="#F4811F"></path>
        <path d="M253.0564,70.8081 C245.4644,71.6971 243.3954,73.8651 243.3954,77.1681 C243.3954,79.7791 244.5784,81.5061 247.3394,81.5061 C249.4594,81.5061 251.1844,80.3231 253.0564,79.0891 L253.0564,70.8081 Z M257.1484,80.2241 C257.1484,81.3091 257.7894,81.8021 258.6764,81.8021 C259.5624,81.8021 260.5994,81.1611 261.7314,80.4711 L261.8314,80.7651 C259.9084,82.1471 257.6414,83.5261 255.5704,83.5261 C253.5984,83.5261 253.0564,82.0961 253.0564,80.4711 L253.0564,79.5821 L252.9594,79.5821 C250.4944,81.9481 247.9804,83.5261 244.9724,83.5261 C241.1784,83.5261 239.2544,81.0611 239.2544,78.0551 C239.2544,74.9491 241.4234,71.3011 253.0564,70.3151 L253.0564,65.1901 C253.0564,61.5911 251.2324,59.0271 247.3884,59.0271 C244.4814,59.0271 242.3094,60.8501 242.3094,62.5291 C242.3094,63.9561 244.3324,64.3501 244.3324,65.5351 C244.3324,66.5211 243.4444,67.2111 242.2124,67.2111 C241.0304,67.2111 239.9954,66.5701 239.9954,65.1401 C239.9954,62.7251 243.2964,57.8951 249.7054,57.8951 C254.9294,57.8951 257.1484,60.9501 257.1484,65.1401 L257.1484,80.2241 Z" id="Fill-105" fill="#000000"></path>
        <path d="M22.2659,42.2119 C22.2659,44.7319 20.2589,46.7749 17.7839,46.7749 C15.3079,46.7749 13.3009,44.7319 13.3009,42.2119 C13.3009,39.6919 15.3079,37.6499 17.7839,37.6499 C20.2589,37.6499 22.2659,39.6919 22.2659,42.2119" id="Fill-89" fill="#2A61AD"></path>
        <path d="M47.9514,62.6245 C47.9514,66.3045 45.0204,69.2885 41.4044,69.2885 C37.7884,69.2885 34.8574,66.3045 34.8574,62.6245 C34.8574,58.9435 37.7884,55.9605 41.4044,55.9605 C45.0204,55.9605 47.9514,58.9435 47.9514,62.6245" id="Fill-65" fill="#69AEDF"></path>
        <path d="M310.3611,9.7564 L309.8551,9.7564 C308.8441,5.3594 306.9741,2.0234 302.6771,2.0234 L293.3251,2.0234 L293.3251,18.6544 L299.0881,18.6544 C302.3231,18.6544 304.1431,16.9854 304.5971,12.9414 L305.1031,12.9414 L305.1031,24.8724 L304.5971,24.8724 C304.1431,20.8274 302.3231,19.1584 299.0881,19.1584 L293.3251,19.1584 L293.3251,36.3974 L302.2721,36.3974 C306.5691,36.3974 309.2481,33.6674 310.4121,28.6634 L310.9181,28.6634 L310.4121,36.9024 L284.6811,36.9024 L284.6811,36.3974 C288.5721,36.1444 289.0281,36.0934 289.0281,34.0214 L289.0281,4.3984 C289.0281,2.3264 288.5721,2.2764 284.6811,2.0234 L284.6811,1.5174 L310.1081,1.5174 L310.3611,9.7564 Z" id="Fill-15" fill="#000000"></path>
        <path d="M77.5301,57.2505 C77.5301,59.0575 76.0911,60.5215 74.3161,60.5215 C72.5411,60.5215 71.1021,59.0575 71.1021,57.2505 C71.1021,55.4435 72.5411,53.9795 74.3161,53.9795 C76.0911,53.9795 77.5301,55.4435 77.5301,57.2505" id="Fill-35" fill="#6AA843"></path>
        <path d="M298.7,70.7105 C298.7,78.4995 301.461,83.0335 305.995,83.0335 C310.53,83.0335 313.291,78.4995 313.291,70.7105 C313.291,62.9225 310.53,58.3875 305.995,58.3875 C301.461,58.3875 298.7,62.9225 298.7,70.7105 M294.314,70.7105 C294.314,63.5635 298.897,57.8955 305.995,57.8955 C313.095,57.8955 317.677,63.5635 317.677,70.7105 C317.677,77.8575 313.095,83.5265 305.995,83.5265 C298.897,83.5265 294.314,77.8575 294.314,70.7105" id="Fill-111" fill="#000000"></path>
        <path d="M77.5598,27.563 C77.5598,31.244 74.6288,34.227 71.0128,34.227 C67.3968,34.227 64.4658,31.244 64.4658,27.563 C64.4658,23.883 67.3968,20.899 71.0128,20.899 C74.6288,20.899 77.5598,23.883 77.5598,27.563" id="Fill-93" fill="#2A61AD"></path>
        <path d="M69.6863,38.0122 C69.6863,40.5322 67.6793,42.5742 65.2043,42.5742 C62.7283,42.5742 60.7213,40.5322 60.7213,38.0122 C60.7213,35.4922 62.7283,33.4492 65.2043,33.4492 C67.6793,33.4492 69.6863,35.4922 69.6863,38.0122" id="Fill-45" fill="#F4811F"></path>
        <path d="M80.6858,46.2344 C80.6858,49.9154 77.7548,52.8984 74.1388,52.8984 C70.5228,52.8984 67.5918,49.9154 67.5918,46.2344 C67.5918,42.5544 70.5228,39.5704 74.1388,39.5704 C77.7548,39.5704 80.6858,42.5544 80.6858,46.2344" id="Fill-27" fill="#6AA843"></path>
        <path d="M71.4549,17.4771 C71.4549,19.2841 70.0159,20.7481 68.2409,20.7481 C66.4659,20.7481 65.0269,19.2841 65.0269,17.4771 C65.0269,15.6701 66.4659,14.2061 68.2409,14.2061 C70.0159,14.2061 71.4549,15.6701 71.4549,17.4771" id="Fill-57" fill="#69AEDF"></path>
        <path d="M170.593,61.8364 C170.593,59.7184 170.149,59.6684 165.367,59.4224 L165.367,58.9294 L174.093,57.8954 L174.683,57.8954 L174.683,79.5824 C174.683,81.7024 175.127,81.7514 178.923,81.9994 L178.923,82.4914 L171.382,83.5264 L170.889,83.5264 L170.839,78.3514 L170.593,78.3514 C168.176,81.2584 164.726,83.5264 161.129,83.5264 C157.777,83.5264 154.868,81.5544 154.868,76.1314 L154.868,61.8364 C154.868,59.7184 154.424,59.6684 150.63,59.4224 L150.63,58.9294 L158.367,57.8954 L158.96,57.8954 L158.96,76.9204 C158.96,79.5824 160.291,81.3094 162.952,81.3094 C166.107,81.3094 168.866,79.5334 170.593,77.8574 L170.593,61.8364 Z" id="Fill-99" fill="#000000"></path>
    </g>
</svg>