<svg xmlns="http://www.w3.org/2000/svg" width="96" height="96"><g fill="none"><path fill="#2126F7" fill-rule="evenodd" d="M0 0h96v96H0z"/><path fill="#FFF" d="M58.094 11.56a2.47 2.47 0 0 0-1.57-.56h-8.495c-.432 0-.86.095-1.251.275L18.722 24.23a3.37 3.37 0 0 0-1.934 2.682l-3.765 33.725a3.7 3.7 0 0 0 1.333 3.276l25 20.525c.445.364.998.563 1.573.563h7.64c.432 0 .862-.095 1.254-.275L78.46 71.468a3.17 3.17 0 0 0 1.813-2.517L83.97 35.55a4.73 4.73 0 0 0-1.703-4.178zM48.387 31c8.231 2.122 12.683 9.195 12.612 16.613-.066 7.076-4.464 14.363-12.455 16.387-16.944-4.6-16.453-28.356-.157-33"/></g></svg>