<?xml version="1.0" encoding="UTF-8"?>
<svg width="32px" height="32px" viewBox="0 0 32 32" version="1.1" xmlns="http://www.w3.org/2000/svg" xmlns:xlink="http://www.w3.org/1999/xlink">
    <title>32 Slice</title>
    <g id="Favicon" stroke="none" stroke-width="1" fill="none" fill-rule="evenodd">
        <g id="Main-bolt" transform="translate(1.384416, 0.472008)" fill="#0B5FBF">
            <path d="M17.3892564,0.405622053 L28.2402945,8.58246576 C28.8150211,9.01555326 29.1150408,9.72235556 29.0273393,10.4366271 L27.371504,23.9223236 C27.2838025,24.6365951 26.8217036,25.249821 26.1592756,25.531005 L13.6524022,30.8398578 C12.9899741,31.1210419 12.2278555,31.0274654 11.6531289,30.5943779 L0.802090852,22.4175342 C0.227364326,21.9844467 -0.072655453,21.2776444 0.0150460622,20.5633729 L1.67088139,7.07767641 C1.7585829,6.36340489 2.22068176,5.75017899 2.8831098,5.46899497 L15.3899832,0.16014217 C16.0524113,-0.121041851 16.8145299,-0.0274654481 17.3892564,0.405622053 Z M19.595425,13.2942741 C18.2949856,10.2306309 15.0304155,8.6016982 11.8914053,9.25176587 L11.8646437,9.26992406 C9.23535258,11.0813647 8.15079197,14.5484603 9.44696041,17.6020418 C10.7473998,20.665685 14.0119699,22.2946177 17.1517003,21.6442443 C19.7998595,19.8378043 20.8958644,16.3579174 19.595425,13.2942741 Z" id="Combined-Shape"></path>
        </g>
    </g>
</svg>