<?xml version="1.0" encoding="UTF-8"?>
<svg width="180px" height="180px" viewBox="0 0 180 180" version="1.1" xmlns="http://www.w3.org/2000/svg" xmlns:xlink="http://www.w3.org/1999/xlink">
    <title>apple-icon-180x180</title>
    <g id="apple-icon-180x180" stroke="none" stroke-width="1" fill="none" fill-rule="evenodd">
        <polygon id="Hex" fill="#2126F7" fill-rule="nonzero" points="83.9895155 1.62689805 84.477585 1.43167028 84.8355025 1.26898048 85.1934201 1.13882863 85.3235719 1.07375271 85.9092552 0.813449024 86.3973247 0.618221258 86.8853941 0.455531453 87.3734635 0.260303688 87.6012292 0.227765727 87.8289949 0.195227766 88.1218366 0.130151844 88.3821403 0.0650759219 88.9027477 0.032537961 89.423355 0 90.269342 0 91.115329 0 91.928778 0 92.774765 0 93.620752 0 94.434201 0 95.280188 0 96.126175 0 96.972162 0 97.785611 0 98.631598 0 99.477585 0 100.323572 0 101.137021 0 101.983008 0 102.828995 0 103.674982 0 104.488431 0 105.334418 0 106.180405 0 106.993854 0 107.839841 0 108.360448 0 108.881056 0 109.043745 0.032537961 109.173897 0.032537961 109.531815 0.0650759219 109.889732 0.130151844 110.41034 0.227765727 110.898409 0.35791757 111.158713 0.455531453 111.419017 0.520607375 111.646782 0.618221258 111.907086 0.68329718 112.232466 0.845986985 112.557845 1.00867679 112.720535 1.07375271 112.850687 1.13882863 113.27368 1.46420824 113.696674 1.78958785 114.054591 2.0824295 114.412509 2.40780911 114.477585 2.44034707 114.933116 2.79826464 115.35611 3.12364425 115.746565 3.44902386 116.169559 3.80694143 116.527477 4.09978308 116.885394 4.42516269 116.95047 4.45770065 116.983008 4.49023861 116.983008 4.49023861 116.983008 4.49023861 117.406001 4.81561822 118.251988 5.46637744 118.642444 5.79175705 119.065437 6.11713666 119.520969 6.50759219 119.586045 6.57266811 119.943962 6.86550976 120.724873 7.45119306 121.147867 7.77657267 121.180405 7.80911063 121.212943 7.84164859 121.603398 8.1670282 121.961316 8.45986985 122.091468 8.55748373 122.189082 8.65509761 122.481923 8.88286334 123.197758 9.46854664 123.620752 9.79392625 124.043745 10.1518438 124.596891 10.6073753 124.727043 10.7375271 124.987346 10.9327549 125.442878 11.2906725 125.638106 11.4533623 125.865871 11.6160521 126.093637 11.8112798 126.516631 12.1366594 126.907086 12.494577 127.134852 12.6572668 127.33008 12.8199566 127.525307 12.9826464 128.176067 13.4707158 128.59906 13.7960954 128.989516 14.154013 129.412509 14.4793926 129.640275 14.6746204 129.900578 14.9023861 129.933116 14.9349241 129.998192 15 130.128344 15.0976139 130.648952 15.4880694 131.039407 15.845987 131.462401 16.1713666 131.852856 16.4967462 132.145698 16.7570499 132.438539 16.9848156 132.568691 17.0824295 133.121837 17.505423 133.512292 17.8308026 133.935286 18.1887202 134.358279 18.5140998 134.358279 18.5466377 134.390817 18.5466377 134.716197 18.8069414 135.009038 19.0672451 135.074114 19.132321 135.594722 19.5227766 136.017715 19.8481562 136.408171 20.2060738 137.189082 20.856833 137.546999 21.1496746 137.579537 21.1822126 138.067607 21.5401302 138.458062 21.8655098 138.65329 22.0281996 138.81598 22.1583514 139.043745 22.3861171 139.694505 22.9067245 140.117498 23.2321041 140.117498 23.2321041 140.540492 23.5574837 140.930947 23.8828633 141.353941 24.2407809 142.16739 24.9240781 142.590383 25.2494577 142.622921 25.2819957 142.687997 25.3470716 142.948301 25.5422993 143.208604 25.7700651 143.306218 25.867679 143.403832 25.9327549 143.794288 26.2906725 144.607737 26.9739696 145.03073 27.2668113 145.128344 27.3644252 145.225958 27.4295011 145.5188 27.6898048 146.267173 28.308026 147.11316 28.9587852 147.536153 29.2841649 147.568691 29.3167028 147.601229 29.3817787 147.698843 29.4468547 147.763919 29.5119306 148.024223 29.7722343 148.70752 30.3579176 149.130513 30.6832972 149.553507 31.0086768 149.943962 31.3665944 150.106652 31.4967462 150.269342 31.626898 150.529646 31.8546638 151.180405 32.3752711 151.603398 32.7006508 151.831164 32.8958785 152.05893 33.0911063 152.22162 33.2212581 152.416847 33.3839479 152.612075 33.5466377 152.807303 33.7418655 153.035069 33.9045553 153.65329 34.3926247 154.076283 34.7505423 154.466739 35.1084599 155.08496 35.6290672 155.345264 35.824295 155.507954 35.9869848 155.703181 36.1171367 156.093637 36.4425163 156.484093 36.8004338 156.907086 37.1258134 157.33008 37.483731 157.590383 37.7114967 157.883225 37.9067245 158.013377 38.0368764 158.176067 38.1344902 158.566522 38.4924078 159.347433 39.175705 159.770427 39.5336226 160.063268 39.7939262 160.388648 40.0542299 160.486262 40.1193059 160.746565 40.3796095 160.941793 40.5422993 161.169559 40.7049892 161.820318 41.2255965 162.243312 41.5509761 162.568691 41.8438178 162.894071 42.1366594 162.959147 42.2017354 163.447216 42.5921909 163.87021 42.9175705 164.260665 43.2754881 165.009038 43.9262473 165.399494 44.2516269 165.399494 44.2516269 165.432032 44.2516269 165.46457 44.2841649 165.497108 44.3167028 165.887563 44.6420824 166.310557 45 166.701012 45.3253796 167.514461 46.0086768 167.937455 46.3340564 167.969993 46.3340564 167.969993 46.3340564 168.360448 46.691974 169.141359 47.4078091 169.564353 47.7331887 169.694505 47.8633406 169.857195 47.9934924 170.117498 48.2212581 170.345264 48.4490239 170.377802 48.4490239 170.41034 48.4815618 170.800795 48.8069414 171.191251 49.0997831 171.581706 49.4577007 172.0047 49.7830803 172.395155 50.1409978 172.818149 50.4663774 172.883225 50.5314534 172.948301 50.5965293 173.241142 50.9219089 173.566522 51.2472885 173.891902 51.670282 174.184743 52.1258134 174.477585 52.5813449 174.770427 53.0043384 174.802965 53.0368764 174.802965 53.0368764 174.998192 53.5574837 175.421186 54.5986985 175.616414 55.1193059 175.714027 55.4446855 175.811641 55.802603 175.876717 55.9978308 175.941793 56.1930586 176.039407 56.7462039 176.169559 57.2993492 176.234635 57.8524946 176.299711 58.4056399 176.267173 58.6334056 176.267173 58.8611714 176.234635 59.186551 176.169559 60.0976139 176.104483 60.6507592 176.039407 61.2039046 175.974331 62.0173536 175.941793 62.2776573 175.909255 62.5704989 175.909255 62.8633406 175.876717 63.1236443 175.844179 63.3839479 175.811641 63.6767896 175.779103 64.0021692 175.714027 64.5553145 175.616414 65.4338395 175.583876 65.7266811 175.551338 65.9869848 175.551338 66.2147505 175.486262 66.7678959 175.388648 67.9067245 175.35611 68.4598698 175.291034 68.8177874 175.258496 69.143167 175.225958 69.3058568 175.19342 69.4685466 175.19342 69.5010846 175.128344 70.1193059 175.03073 71.2255965 174.965654 71.8112798 174.900578 72.2017354 174.86804 72.6247289 174.835503 72.7548807 174.770427 73.4707158 174.737889 74.0238612 174.672813 74.5770065 174.575199 75.3253796 174.575199 75.5206074 174.542661 75.7809111 174.510123 76.0412148 174.510123 76.1388286 174.445047 76.8221258 174.379971 77.3752711 174.314895 77.9284165 174.184743 78.9696312 174.152205 79.4902386 174.152205 79.5553145 174.152205 79.6203905 174.054591 80.1735358 173.956978 81.1171367 173.891902 81.5401302 173.891902 81.670282 173.826826 82.3861171 173.794288 82.9067245 173.794288 82.9392625 173.794288 82.9392625 173.696674 83.4924078 173.566522 84.6312364 173.533984 85.1843818 173.468908 85.7375271 173.403832 86.2906725 173.403832 86.3232104 173.371294 86.3882863 173.306218 86.9088937 173.241142 87.462039 173.241142 87.527115 173.208604 88.0151844 173.176067 88.5032538 173.110991 89.0889371 173.013377 89.7396963 173.013377 89.8373102 172.948301 90.2928416 172.850687 91.3015184 172.818149 91.8872017 172.720535 92.4078091 172.622921 93.1236443 172.622921 93.2863341 172.590383 93.4164859 172.590383 93.5791757 172.557845 93.8394794 172.525307 94.0997831 172.492769 94.6529284 172.427693 95.2060738 172.33008 95.7592191 172.265004 96.5401302 172.232466 96.7353579 172.232466 97.0932755 172.199928 97.4511931 172.102314 98.0043384 171.972162 99.0780911 171.939624 99.5661605 171.907086 99.6312364 171.907086 99.9240781 171.874548 100.184382 171.84201 100.477223 171.809472 100.770065 171.711858 101.32321 171.581706 102.462039 171.549168 103.015184 171.516631 103.308026 171.484093 103.633406 171.451555 103.861171 171.419017 104.121475 171.353941 104.67462 171.256327 105.390456 171.256327 105.553145 171.223789 105.943601 171.191251 106.366594 171.158713 106.724512 171.093637 107.08243 171.061099 107.277657 170.963485 108.02603 170.865871 109.132321 170.800795 109.685466 170.735719 110.10846 170.703181 110.531453 170.670644 110.661605 170.605568 111.149675 170.57303 111.54013 170.540492 111.735358 170.475416 112.483731 170.442878 113.036876 170.377802 113.524946 170.312726 113.980477 170.280188 114.078091 170.24765 114.696312 170.182574 115.249458 170.117498 115.835141 170.052422 116.388286 169.987346 116.908894 169.889732 117.462039 169.889732 117.462039 169.889732 117.494577 169.889732 117.494577 169.857195 118.047722 169.824657 118.600868 169.727043 119.154013 169.596891 120.260304 169.531815 120.845987 169.531815 120.878525 169.499277 121.43167 169.466739 121.952278 169.369125 122.505423 169.271511 123.286334 169.238973 123.5141 169.206435 123.839479 169.173897 124.164859 169.173897 124.262473 169.173897 124.327549 169.108821 124.815618 169.076283 125.303688 168.97867 125.856833 168.848518 126.963124 168.81598 127.516269 168.81598 127.646421 168.783442 127.776573 168.750904 128.199566 168.620752 129.078091 168.588214 129.533623 168.555676 129.631236 168.523138 130.314534 168.458062 130.867679 168.458062 131.062907 168.425524 131.225597 168.360448 131.583514 168.262834 132.527115 168.197758 133.08026 168.132683 133.633406 168.067607 134.186551 168.035069 134.446855 168.002531 134.67462 167.969993 135 167.937455 135.422993 167.904917 135.553145 167.904917 135.976139 167.872379 136.43167 167.774765 136.984816 167.677151 137.830803 167.644613 138.123644 167.612075 138.383948 167.612075 138.67679 167.546999 139.229935 167.481923 139.78308 167.384309 140.336226 167.286696 140.889371 167.254158 141.149675 167.189082 141.37744 167.189082 141.507592 167.156544 141.637744 167.124006 141.800434 167.05893 141.995662 166.89624 142.516269 166.701012 143.036876 166.440709 143.524946 166.180405 144.013015 165.887563 144.468547 165.562184 144.924078 165.204266 145.347072 164.878886 145.737527 164.520969 146.030369 164.163051 146.290672 164.097975 146.355748 164.000362 146.388286 163.674982 146.616052 163.317064 146.843818 163.21945 146.908894 163.121837 146.941432 162.633767 147.169197 162.178236 147.396963 161.690166 147.624729 161.234635 147.852495 161.006869 147.950108 160.779103 148.047722 160.5188 148.145336 159.802965 148.503254 158.826826 148.926247 158.371294 149.154013 158.306218 149.186551 158.241142 149.219089 157.818149 149.414317 156.939624 149.804772 156.451555 150.032538 156.061099 150.195228 155.703181 150.390456 155.605568 150.422993 155.019884 150.683297 154.564353 150.911063 154.076283 151.138829 153.360448 151.43167 153.132683 151.561822 152.904917 151.659436 152.644613 151.789588 152.156544 152.017354 151.212943 152.440347 150.724873 152.668113 150.659798 152.700651 150.594722 152.733189 150.204266 152.895879 149.293203 153.318872 148.447216 153.709328 148.056761 153.904555 147.959147 153.937093 147.894071 153.969631 147.406001 154.197397 146.462401 154.62039 145.974331 154.848156 145.746565 154.94577 145.5188 155.075922 145.258496 155.173536 145.03073 155.303688 144.542661 155.498915 143.59906 155.954447 143.110991 156.182213 143.045915 156.214751 142.980839 156.247289 142.557845 156.409978 141.67932 156.832972 141.223789 157.060738 140.833333 157.223427 140.41034 157.386117 140.345264 157.451193 139.792119 157.711497 139.304049 157.906725 138.81598 158.13449 138.132683 158.45987 137.872379 158.590022 137.644613 158.687636 137.416847 158.817787 136.928778 159.013015 135.985177 159.468547 135.497108 159.696312 135.432032 159.72885 135.334418 159.761388 134.943962 159.956616 134.553507 160.119306 134.065437 160.347072 133.186913 160.737527 132.796457 160.932755 132.731381 160.965293 132.633767 160.997831 132.178236 161.225597 131.202097 161.681128 130.746565 161.908894 130.486262 162.006508 130.258496 162.104121 130.03073 162.201735 129.314895 162.527115 128.826826 162.754881 128.338756 162.982646 127.785611 163.24295 127.720535 163.275488 127.33008 163.470716 126.939624 163.633406 126.451555 163.861171 125.57303 164.284165 125.182574 164.479393 125.117498 164.511931 125.019884 164.544469 124.564353 164.739696 123.588214 165.195228 123.132683 165.422993 122.872379 165.520607 122.644613 165.650759 122.416847 165.748373 121.701012 166.073753 121.212943 166.301518 120.757411 166.529284 120.171728 166.789588 120.074114 166.822126 119.716197 166.984816 118.837672 167.407809 118.38214 167.603037 117.959147 167.798265 117.536153 167.993492 117.471077 168.02603 116.95047 168.286334 116.462401 168.5141 115.974331 168.709328 115.258496 169.067245 96.2563268 128.264642 97.1999277 127.809111 97.9808388 127.418655 98.2736804 127.255965 98.4363702 127.190889 99.0545915 126.800434 99.477585 126.475054 99.9656544 126.247289 100.583876 125.921909 100.714027 125.791757 101.006869 125.596529 101.299711 125.368764 101.722704 125.075922 102.568691 124.457701 103.024223 124.132321 103.056761 124.099783 103.447216 123.774403 104.228127 123.123644 104.651121 122.765727 104.683659 122.765727 104.9765 122.472885 105.30188 122.212581 105.366956 122.147505 105.432032 122.08243 105.855025 121.724512 106.603398 120.976139 106.993854 120.585683 107.22162 120.357918 107.481923 120.097614 107.612075 119.967462 108.100145 119.446855 108.81598 118.633406 109.369125 117.982646 109.564353 117.722343 109.694505 117.559653 110.019884 117.169197 110.215112 116.908894 110.345264 116.713666 110.833333 116.095445 111.353941 115.37961 111.549168 115.086768 111.646782 114.924078 111.776934 114.761388 112.069776 114.305857 112.655459 113.394794 112.915763 112.906725 113.143529 112.548807 113.371294 112.190889 113.403832 112.158351 113.403832 112.158351 113.43637 112.060738 113.76175 111.507592 114.282357 110.531453 114.802965 109.555315 115.095806 108.969631 115.128344 108.872017 115.291034 108.449024 115.453724 108.02603 115.486262 107.960954 115.5188 107.928416 115.746565 107.472885 116.137021 106.496746 116.494939 105.553145 116.657628 105.130152 116.690166 105.032538 116.917932 104.414317 117.11316 103.926247 117.11316 103.893709 117.243312 103.373102 117.406001 102.819957 117.568691 102.299349 117.861533 101.290672 117.959147 100.802603 117.991685 100.737527 117.991685 100.672451 118.056761 100.412148 118.121837 100.151844 118.186913 99.8590022 118.38214 99.0455531 118.609906 97.9392625 118.674982 97.3861171 118.772596 96.9631236 118.837672 96.5726681 118.87021 96.4099783 118.902748 96.2798265 118.935286 95.9869848 118.967824 95.6616052 119.000362 95.4338395 119.097975 94.6203905 119.195589 93.5791757 119.228127 93.0911063 119.260665 93.0260304 119.293203 92.3752711 119.358279 91.2689805 119.390817 90.2277657 119.390817 89.7722343 119.390817 89.6746204 119.390817 89.6095445 119.390817 89.3167028 119.390817 89.0563991 119.423355 88.7635575 119.358279 87.9175705 119.325741 87.3644252 119.325741 86.9414317 119.293203 86.5184382 119.293203 86.3882863 119.228127 85.6724512 119.097975 84.5661605 119.032899 84.0130152 119.000362 83.7201735 118.967824 83.4273319 118.935286 83.1670282 118.805134 82.3535792 118.609906 81.2472885 118.479754 80.5314534 118.447216 80.3687636 118.349602 79.978308 118.284526 79.6203905 118.186913 79.0347072 117.894071 77.9609544 117.698843 77.4403471 117.698843 77.4403471 117.698843 77.4403471 117.601229 76.9522777 117.503615 76.4642082 117.503615 76.3991323 117.27585 75.813449 117.11316 75.2928416 116.983008 74.9349241 116.852856 74.5770065 116.78778 74.4143167 116.527477 73.7310195 116.104483 72.6898048 115.844179 71.9739696 115.779103 71.8112798 115.616414 71.4859002 115.258496 70.6399132 115.03073 70.1193059 115.03073 70.0867679 114.737889 69.6312364 114.477585 69.175705 114.477585 69.143167 114.477585 69.143167 114.249819 68.6550976 113.76175 67.6789588 113.468908 67.2234273 113.241142 66.8655098 113.013377 66.5401302 112.948301 66.4099783 112.590383 65.824295 112.0047 64.9132321 111.549168 64.2299349 111.386479 64.0347072 111.223789 63.8069414 111.061099 63.5791757 110.735719 63.1236443 110.08496 62.2776573 109.629429 61.7245119 109.531815 61.5943601 109.304049 61.3340564 108.685828 60.6182213 108.197758 60.0976139 108.067607 59.9349241 107.839841 59.6746204 107.546999 59.3492408 107.481923 59.2841649 107.156544 58.9913232 106.473247 58.308026 105.692336 57.5921909 105.236804 57.1691974 105.13919 57.0715835 104.813811 56.8112798 104.488431 56.5509761 104.097975 56.1930586 103.54483 55.7375271 103.414678 55.6399132 103.121837 55.4446855 102.828995 55.2494577 102.698843 55.1193059 102.536153 55.021692 102.27585 54.7939262 101.560014 54.2733189 101.104483 53.9804772 100.68149 53.6876356 99.9656544 53.2321041 99.7053507 53.0694143 99.5101229 52.9718004 99.3148952 52.8416486 99.3148952 52.8416486 98.8593637 52.6138829 98.4038322 52.3535792 97.9483008 52.0932755 97.0372379 51.6052061 96.4840926 51.3449024 96.4190166 51.3123644 95.9960231 51.1171367 95.5730296 50.9219089 95.5730296 50.9219089 95.1174982 50.7266811 94.1738973 50.3036876 93.1977585 49.9132321 92.7096891 49.7505423 92.7096891 49.7505423 92.3517715 49.6203905 92.0263919 49.5227766 91.8637021 49.4577007 91.2129429 49.2624729 90.7248735 49.132321 90.2042661 48.9696312 89.9439624 48.9045553 89.8138106 48.9370933 89.5535069 49.0021692 89.2606652 49.0672451 89.0328995 49.132321 88.3170644 49.3600868 87.8289949 49.5227766 87.3409255 49.6854664 86.7227043 49.8806941 86.5925524 49.9457701 86.2346349 50.1084599 85.8767173 50.2711497 85.3886479 50.4663774 84.477585 50.8893709 84.0545915 51.0845987 84.0220535 51.0845987 83.5014461 51.3449024 82.5578453 51.8004338 82.1023138 52.0607375 81.8094722 52.1908894 81.5491685 52.3210412 81.3539407 52.4186551 80.7357195 52.8416486 80.280188 53.1344902 79.8246565 53.3947939 79.2389732 53.7201735 79.1088214 53.8177874 78.8159798 54.0455531 78.0676067 54.5986985 77.2216197 55.2169197 76.7986262 55.5748373 76.7986262 55.5748373 76.4081706 55.867679 76.0177151 56.1930586 76.0177151 56.1930586 75.5947216 56.5509761 74.8463485 57.1691974 74.5209689 57.462039 74.455893 57.527115 74.0003615 57.9826464 73.642444 58.4056399 73.2519884 58.7310195 72.6012292 59.3817787 72.3734635 59.6420824 72.2758496 59.7722343 72.1456978 59.9349241 71.7877802 60.3253796 71.071945 61.1388286 70.5187997 61.7895879 70.3235719 62.0498915 70.258496 62.0824295 70.2259581 62.1475054 70.1283442 62.2776573 69.7053507 62.7982646 69.0871294 63.6767896 68.5665221 64.4251627 68.3712943 64.7505423 68.2736804 64.8806941 68.1760665 65.0433839 67.8506869 65.4989154 67.2975416 66.4099783 67.0046999 66.8980477 66.972162 66.9305857 66.7443962 67.3210412 66.5166305 67.7114967 66.4840926 67.7765727 66.1912509 68.329718 65.7031815 69.3058568 65.4428778 69.7939262 65.2151121 70.3145336 64.8897325 70.9652928 64.8246565 71.0954447 64.8246565 71.1605206 64.7921186 71.2255965 64.6619667 71.5184382 64.5318149 71.8112798 64.3040492 72.3318872 63.8810557 73.340564 63.4906001 74.3817787 63.3279103 74.9023861 63.2953724 74.9023861 63.2628344 75.0650759 63.1977585 75.2277657 63.1001446 75.5856833 62.807303 76.5292842 62.6446132 77.0498915 62.4819234 77.6030369 62.2216197 78.5466377 62.1240058 79.0021692 62.0914678 79.0997831 62.0589299 79.2624729 62.0263919 79.3275488 61.928778 79.8156182 61.7010123 80.856833 61.5057845 81.9631236 61.4081706 82.5488069 61.4081706 82.6138829 61.3430947 83.1019523 61.2780188 83.6225597 61.1804049 84.1106291 61.115329 84.6312364 61.082791 84.6637744 61.0502531 85.2819957 61.0177151 85.835141 60.9851772 85.9652928 60.9851772 86.0629067 60.9526392 86.5184382 60.8875633 87.527115 60.8550253 88.6334056 60.8224873 89.3167028 60.8224873 89.4143167 60.8224873 89.8698482 60.8550253 90.8785249 60.8875633 91.4316703 60.8875633 91.5943601 60.8875633 91.7895879 60.8875633 92.1800434 60.8875633 92.6030369 60.8875633 92.6355748 60.9526392 93.1561822 61.0502531 94.2299349 61.115329 94.7830803 61.1804049 95.2711497 61.2129429 95.791757 61.2129429 95.856833 61.3105568 96.4750542 61.4732466 97.5813449 61.6684743 98.4598698 61.7335503 98.8177874 61.7986262 99.0130152 61.8311641 99.208243 61.961316 99.7613883 62.0589299 100.314534 62.1890817 100.867679 62.3517715 101.583514 62.4168474 101.778742 62.5469993 102.104121 62.6446132 102.462039 62.807303 103.015184 63.1326826 104.088937 63.2953724 104.609544 63.2953724 104.642082 63.4906001 105.130152 63.6858279 105.650759 63.8810557 106.171367 64.2389732 107.049892 64.3691251 107.407809 64.434201 107.570499 64.7270427 108.221258 64.9873463 108.709328 65.2151121 109.197397 65.4754158 109.718004 65.5730296 109.880694 65.6381056 110.075922 65.8007954 110.401302 66.2237889 111.182213 66.7769342 112.125813 67.0697758 112.581345 67.1023138 112.646421 67.1023138 112.678959 67.3626175 113.101952 67.9157628 113.980477 68.4689082 114.826464 68.7292119 115.21692 68.7942878 115.281996 69.1522054 115.770065 69.477585 116.225597 69.8029646 116.64859 70.3561099 117.364425 70.5838756 117.624729 70.7140275 117.787419 70.8441793 117.91757 71.0394071 118.177874 71.2671728 118.438178 71.3973247 118.600868 71.8853941 119.121475 72.2758496 119.511931 72.4385394 119.739696 72.6337672 119.934924 72.796457 120.130152 73.3821403 120.683297 74.1305134 121.43167 74.7161967 121.984816 74.9439624 122.147505 75.1391902 122.342733 75.6923355 122.830803 76.082791 123.156182 76.115329 123.18872 76.5708604 123.5141 76.9938539 123.806941 77.2541576 124.034707 77.4819234 124.229935 77.6446132 124.360087 78.2302965 124.78308 78.6858279 125.075922 79.1088214 125.401302 79.8897325 125.921909 80.24765 126.149675 80.280188 126.182213 80.3452639 126.182213 80.3778019 126.214751 80.8984093 126.507592 81.3539407 126.767896 81.8094722 127.0282 82.753073 127.548807 83.2086045 127.744035 83.4038322 127.874187 83.59906 127.9718 83.8268257 128.069414 84.0545915 128.199566 84.0871294 128.232104 84.6077368 128.45987 85.5838756 128.882863 86.5600145 129.240781 87.0480839 129.436009 87.1782357 129.468547 87.2758496 129.533623 87.4710774 129.598698 87.6337672 129.663774 87.8289949 129.72885 88.5122921 129.956616 89.0003615 130.086768 89.5209689 130.249458 90.3344179 130.477223 90.4971077 130.412148 90.6923355 130.347072 90.9201012 130.281996 91.4081706 130.151844 92.3843095 129.826464 92.9049168 129.631236 93.0350687 129.598698 93.1652205 129.566161 93.5231381 129.436009 94.3691251 129.110629 95.280188 128.687636 95.7357195 128.492408 95.7682574 128.492408 95.8007954 128.45987 96.2563268 128.264642 115.258496 169.067245 114.998192 169.164859 114.770427 169.295011 114.575199 169.392625 114.087129 169.62039 113.143529 170.043384 112.655459 170.27115 112.557845 170.303688 112.460231 170.368764 112.102314 170.531453 111.223789 170.921909 110.768257 171.149675 110.345264 171.344902 109.92227 171.54013 109.857195 171.572668 109.792119 171.605206 109.336587 171.800434 108.392986 172.255965 107.904917 172.483731 107.644613 172.613883 107.384309 172.711497 107.156544 172.841649 106.473247 173.13449 105.529646 173.590022 105.041576 173.817787 104.943962 173.850325 104.846349 173.915401 104.488431 174.078091 104.097975 174.240781 103.609906 174.468547 103.154375 174.696312 102.731381 174.89154 102.308388 175.086768 102.243312 175.119306 101.722704 175.347072 101.234635 175.574837 100.779103 175.802603 100.03073 176.160521 99.7704266 176.290672 99.5426609 176.388286 99.3474331 176.4859 98.8593637 176.681128 97.9157628 177.136659 97.4602314 177.364425 97.3300795 177.429501 97.2324657 177.462039 96.8745481 177.624729 96.0285611 178.015184 95.5404917 178.24295 95.1174982 178.438178 94.6945047 178.633406 94.6294288 178.665944 94.1088214 178.893709 93.1652205 179.349241 92.6771511 179.577007 92.3843095 179.642082 92.0914678 179.707158 92.0263919 179.707158 91.928778 179.739696 91.7986262 179.739696 91.6684743 179.772234 91.147867 179.869848 90.6597975 179.967462 90.1391902 179.967462 89.6185828 180 88.7725958 180 87.9591468 180 87.1131598 180 86.2671728 180 85.4211858 180 84.6077368 180 83.7617498 180 82.9157628 180 82.0697758 180 81.2563268 180 80.4103398 180 79.5643529 180 78.7183659 180 77.9049168 180 77.0589299 180 76.2129429 180 75.3994939 180 74.5535069 180 73.7075199 180 72.8615329 180 72.0480839 180 71.2020969 180 70.9743312 179.934924 70.7465654 179.902386 70.4537238 179.83731 70.1934201 179.772234 69.6728127 179.642082 69.1847433 179.479393 68.7292119 179.219089 68.2736804 178.958785 68.2411424 178.926247 68.2086045 178.926247 67.785611 178.665944 67.3626175 178.40564 67.2324657 178.275488 67.0697758 178.145336 66.8094722 177.91757 66.126175 177.396963 65.7031815 177.071584 65.6055676 176.97397 65.5079537 176.908894 65.1825741 176.64859 64.4992769 176.030369 63.6532899 175.37961 63.2302965 175.021692 63.1001446 174.924078 62.9699928 174.793926 62.807303 174.631236 62.6446132 174.501085 62.5469993 174.403471 62.0263919 173.980477 61.6033984 173.655098 61.2129429 173.329718 60.7899494 172.9718 60.6272596 172.841649 60.4645698 172.678959 60.236804 172.483731 59.5535069 171.963124 59.1305134 171.637744 58.7400578 171.279826 58.2845264 170.856833 58.2194505 170.824295 58.0567607 170.694143 57.9266088 170.596529 57.7313811 170.433839 57.5361533 170.27115 57.1131598 169.913232 56.6901663 169.587852 56.2997108 169.229935 55.6489516 168.67679 55.3886479 168.481562 55.2259581 168.35141 55.0632683 168.253796 54.6402748 167.895879 54.0220535 167.342733 53.7942878 167.147505 53.59906 167.017354 53.4363702 166.854664 53.1435286 166.626898 52.8506869 166.399132 52.7205351 166.301518 52.5903832 166.203905 52.1999277 165.845987 51.3864787 165.16269 50.9634852 164.83731 50.6381056 164.544469 50.312726 164.284165 50.24765 164.219089 50.1500362 164.154013 49.7595806 163.828633 49.3691251 163.470716 49.3365871 163.470716 48.9135936 163.145336 48.4906001 162.819957 48.1326826 162.494577 47.774765 162.201735 47.742227 162.169197 47.2866956 161.778742 46.4407086 161.095445 46.0502531 160.770065 45.6597975 160.412148 45.269342 160.086768 45.269342 160.086768 45.1066522 159.956616 44.9439624 159.826464 44.6836587 159.631236 44.3908171 159.403471 44.0003615 159.078091 43.577368 158.752711 43.1869125 158.394794 42.7313811 158.004338 42.6988431 158.004338 42.3083876 157.711497 41.917932 157.418655 41.5274765 157.060738 40.8116414 156.442516 40.5187997 156.214751 40.4211858 156.117137 40.291034 156.019523 40.2259581 155.954447 40.1608821 155.889371 39.8029646 155.629067 39.477585 155.368764 39.0871294 155.010846 38.2411424 154.327549 37.8506869 154.002169 37.7205351 153.904555 37.5903832 153.806941 37.2975416 153.579176 37.0046999 153.318872 36.6142444 152.993492 36.1587129 152.603037 36.126175 152.570499 35.7357195 152.277657 35.3778019 151.984816 35.2151121 151.854664 35.0524223 151.724512 34.7921186 151.496746 34.5643529 151.301518 34.1413594 150.943601 33.3279103 150.292842 32.9049168 149.967462 32.7096891 149.804772 32.5144613 149.609544 32.2866956 149.446855 31.8962401 149.121475 31.7010123 148.958785 31.4732466 148.763557 30.8550253 148.275488 30.4320318 147.950108 30.1717281 147.754881 29.9439624 147.527115 29.7812726 147.396963 29.1955893 146.908894 28.8051338 146.583514 28.3821403 146.225597 27.9591468 145.900217 27.6988431 145.672451 27.4385394 145.444685 27.3734635 145.37961 27.2758496 145.314534 27.2107737 145.249458 26.7552422 144.89154 26.3322487 144.566161 25.9092552 144.208243 25.4862617 143.882863 25.1934201 143.62256 24.8680405 143.329718 24.7704266 143.264642 24.2498192 142.874187 23.8593637 142.548807 23.4363702 142.190889 22.9808388 141.800434 22.9157628 141.767896 22.6229212 141.507592 22.2975416 141.247289 22.2650036 141.214751 21.8094722 140.856833 21.3864787 140.498915 20.9634852 140.173536 20.1825741 139.490239 19.7595806 139.164859 19.7595806 139.164859 19.3365871 138.839479 18.9135936 138.5141 18.7183659 138.35141 18.5231381 138.18872 18.2953724 137.993492 17.6771511 137.472885 17.2216197 137.114967 17.1890817 137.08243 16.7986262 136.789588 16.4081706 136.496746 16.0177151 136.138829 15.2042661 135.455531 14.7161967 135.065076 14.6185828 135 14.3908171 134.804772 14.1305134 134.609544 14.0328995 134.544469 13.9678236 134.479393 13.5448301 134.121475 12.7313811 133.438178 12.1782357 133.015184 12.0480839 132.91757 11.7552422 132.689805 11.4949385 132.462039 11.071945 132.136659 10.258496 131.453362 9.77042661 131.062907 9.73788865 131.030369 9.6077368 130.932755 9.47758496 130.835141 9.24981923 130.639913 9.02205351 130.444685 8.59906001 130.086768 7.78561099 129.403471 7.3626175 129.078091 7.16738973 128.915401 6.97216197 128.720174 6.7769342 128.557484 6.58170644 128.394794 6.22378886 127.9718 5.86587129 127.581345 5.54049168 127.125813 5.21511208 126.70282 5.11749819 126.54013 4.98734635 126.37744 4.88973247 126.182213 4.75958062 125.986985 4.6945047 125.889371 4.62942878 125.759219 4.43420101 125.238612 4.23897325 124.718004 4.20643529 124.587852 4.17389732 124.425163 4.07628344 124.034707 3.97866956 123.644252 3.9461316 123.611714 3.9461316 123.579176 3.88105568 123.058568 3.78344179 122.537961 3.81597975 121.952278 3.81597975 120.878525 3.78344179 120.390456 3.78344179 120.32538 3.78344179 120.292842 3.88105568 119.739696 4.01120752 118.600868 4.07628344 118.047722 4.14135936 117.494577 4.20643529 116.941432 4.20643529 116.941432 4.20643529 116.908894 4.20643529 116.876356 4.20643529 116.843818 4.30404917 116.355748 4.40166305 115.281996 4.46673897 114.72885 4.5318149 114.175705 4.59689082 113.590022 4.59689082 113.524946 4.62942878 113.45987 4.6945047 112.9718 4.79211858 111.930586 4.82465654 111.37744 4.8571945 111.149675 4.88973247 110.889371 4.95480839 110.563991 4.98734635 110.140998 5.01988431 109.978308 5.08496023 109.587852 5.18257411 108.579176 5.24765004 108.02603 5.31272596 107.472885 5.37780188 106.91974 5.41033984 106.724512 5.4428778 106.529284 5.47541576 106.171367 5.57302965 105.390456 5.60556761 105 5.60556761 104.83731 5.63810557 104.707158 5.70318149 104.154013 5.76825741 103.56833 5.80079537 103.340564 5.83333333 103.08026 5.86587129 102.754881 5.96348518 101.908894 5.99602314 101.355748 6.06109906 100.802603 6.1912509 99.9240781 6.22378886 99.5986985 6.25632683 99.3709328 6.28886479 99.1106291 6.28886479 99.0780911 6.35394071 98.5574837 6.38647867 98.0043384 6.48409255 97.4511931 6.58170644 96.5401302 6.64678236 96.1496746 6.64678236 95.9544469 6.71185828 95.2386117 6.7769342 94.6854664 6.84201012 94.0997831 6.93962401 93.318872 6.97216197 93.0911063 7.00469993 92.8958785 7.00469993 92.7006508 7.00469993 92.5704989 7.03723789 92.4403471 7.10231381 91.8872017 7.16738973 91.3340564 7.23246565 90.7809111 7.3626175 89.7396963 7.39515546 89.2516269 7.42769342 89.186551 7.42769342 89.0889371 7.49276934 88.5357918 7.55784526 87.9826464 7.62292119 87.5596529 7.65545915 87.1691974 7.68799711 87.0065076 7.75307303 86.3232104 7.78561099 85.802603 7.78561099 85.7700651 7.78561099 85.7700651 7.85068691 85.1843818 8.01337672 84.0780911 8.1109906 82.9718004 8.17606652 82.4186551 8.17606652 82.3861171 8.17606652 82.3535792 8.2736804 81.8329718 8.33875633 81.2472885 8.33875633 81.2147505 8.40383225 80.6941432 8.50144613 79.6203905 8.56652205 79.0672451 8.56652205 78.9696312 8.59906001 78.8720174 8.63159798 78.4164859 8.76174982 77.4078091 8.79428778 76.8546638 8.8593637 76.3015184 8.92443962 75.7158351 8.95697758 75.5856833 8.95697758 75.4229935 8.98951555 75.3253796 8.98951555 75.1952278 9.05459147 74.9023861 9.11966739 74.0563991 9.18474331 73.5032538 9.24981923 72.9501085 9.34743312 72.1691974 9.37997108 71.9739696 9.41250904 71.6160521 9.51012292 70.7049892 9.54266088 70.1518438 9.6077368 69.6963124 9.67281273 69.208243 9.67281273 69.1106291 9.70535069 68.7852495 9.73788865 68.5249458 9.77042661 68.2321041 9.80296457 67.9392625 9.86804049 67.3861171 9.93311641 66.8004338 9.99819234 66.2472885 10.0958062 65.4013015 10.1283442 65.0759219 10.1608821 64.8481562 10.1608821 64.5878525 10.2259581 64.0347072 10.3235719 63.35141 10.3561099 63.2212581 10.3886479 62.7982646 10.4537238 61.9848156 10.4862617 61.626898 10.5187997 61.4316703 10.5187997 61.2364425 10.6164136 60.6832972 10.7465654 59.5770065 10.7791034 59.0238612 10.8441793 58.6008677 10.8767173 58.1778742 10.9092552 58.0477223 10.9092552 57.9175705 10.9743312 57.5596529 11.0068691 57.2342733 11.0394071 57.0065076 11.104483 56.2255965 11.137021 55.6724512 11.2020969 55.2169197 11.2671728 54.7288503 11.2671728 54.6637744 11.3322487 54.0130152 11.4624006 52.8741866 11.4949385 52.3210412 11.5600145 51.8004338 11.6576283 51.2798265 11.6576283 51.2472885 11.6576283 51.2147505 11.6576283 51.2147505 11.6576283 51.1822126 11.7227043 50.6616052 11.7552422 50.1084599 11.8203181 49.5553145 11.95047 48.4164859 12.0155459 47.8633406 12.0155459 47.8308026 12.0480839 47.3101952 12.1131598 46.7570499 12.1782357 46.2039046 12.2758496 45.3904555 12.3083876 45.1301518 12.3409255 44.8373102 12.3409255 44.5119306 12.3734635 44.4793926 12.3734635 44.4143167 12.4385394 43.9262473 12.4710774 43.4056399 12.5686913 42.8524946 12.6663051 41.7462039 12.6988431 41.1930586 12.7313811 41.0629067 12.7313811 40.9652928 12.796457 40.5097614 12.8615329 40.0542299 12.8940709 39.5986985 12.9591468 39.143167 12.9916847 39.0455531 12.9916847 38.9479393 13.1218366 38.4273319 13.2194505 37.8741866 13.2845264 37.6464208 13.3496023 37.4186551 13.4472162 37.0932755 13.5448301 36.7678959 13.7725958 36.2798265 14.0003615 35.7592191 14.1955893 35.4013015 14.3908171 35.0433839 14.455893 34.9457701 14.5209689 34.8156182 14.8788865 34.3926247 15.236804 33.9696312 15.6272596 33.6117137 16.0177151 33.2537961 16.2780188 33.0585683 16.5383225 32.8633406 16.7010123 32.7331887 16.8637021 32.6355748 17.3192336 32.3752711 17.774765 32.1149675 18.2628344 31.8872017 18.7183659 31.659436 18.8810557 31.5943601 19.0112075 31.5292842 19.3691251 31.3991323 20.1825741 31.0412148 20.6381056 30.813449 21.126175 30.6182213 21.5817064 30.4229935 21.5817064 30.4229935 22.1023138 30.1952278 23.0459147 29.7722343 23.5339841 29.5444685 23.8268257 29.4143167 24.1196674 29.2516269 24.3148952 29.186551 24.9656544 28.8937093 25.4211858 28.6659436 25.9092552 28.4707158 26.5274765 28.1778742 26.6901663 28.1127983 27.0155459 27.9501085 27.3409255 27.7874187 27.8289949 27.5921909 28.7725958 27.1366594 29.2281273 26.9414317 29.2281273 26.9414317 29.2606652 26.9414317 29.7161967 26.7136659 30.6597975 26.2581345 31.147867 26.0303688 31.4732466 25.9002169 31.7660882 25.7700651 31.928778 25.6724512 32.5795372 25.3796095 33.0676067 25.1518438 33.5231381 24.9566161 34.0112075 24.7288503 34.1738973 24.6637744 34.3040492 24.5661605 34.6294288 24.4360087 34.9548084 24.2733189 35.4428778 24.0780911 36.3864787 23.6225597 36.8420101 23.3947939 36.8420101 23.3947939 36.8745481 23.3947939 37.3300795 23.1670282 38.2736804 22.7440347 38.7617498 22.516269 39.0871294 22.3861171 39.3799711 22.2234273 39.5426609 22.1583514 40.1934201 21.8655098 40.6814895 21.637744 41.137021 21.4099783 41.7877802 21.1171367 41.95047 21.0520607 42.2433116 20.8893709 42.5686913 20.7592191 43.0567607 20.5314534 44.0003615 20.0759219 44.455893 19.8806941 44.4884309 19.8481562 44.4884309 19.8481562 44.9439624 19.6529284 45.8875633 19.197397 46.3756327 18.9696312 46.7010123 18.8394794 47.0263919 18.6767896 47.1565437 18.6117137 47.807303 18.318872 48.2628344 18.0911063 48.7509038 17.8633406 49.2389732 17.6355748 49.4016631 17.5704989 49.5643529 17.505423 49.8571945 17.3427332 50.1825741 17.2125813 50.6381056 16.9848156 51.126175 16.7570499 51.6142444 16.5618221 52.1023138 16.3340564 52.1023138 16.3340564 52.5578453 16.1062907 53.0459147 15.8785249 53.5014461 15.6832972 54.3148952 15.2928416 54.6402748 15.1301518 54.7704266 15.0650759 54.9331164 15 55.4211858 14.7722343 56.3647867 14.3492408 57.0155459 14.0238612 57.1782357 13.9587852 57.4710774 13.7960954 57.796457 13.6659436 58.2519884 13.4707158 59.1955893 13.0151844 59.6836587 12.7548807 59.6836587 12.7548807 59.7161967 12.7548807 60.1717281 12.5596529 61.115329 12.1041215 61.928778 11.7462039 62.2541576 11.5835141 62.3843095 11.5184382 62.5469993 11.4533623 63.0025307 11.2255965 63.9786696 10.7700651 64.434201 10.5422993 64.5968908 10.4772234 64.7921186 10.3796095 65.0849602 10.2494577 65.8658713 9.89154013 66.8094722 9.46854664 67.2975416 9.24078091 67.2975416 9.20824295 67.3300795 9.20824295 67.785611 9.01301518 68.7292119 8.55748373 69.1847433 8.329718 69.5101229 8.1670282 69.8680405 8.00433839 69.9981923 7.93926247 70.6164136 7.67895879 71.071945 7.45119306 71.5600145 7.22342733 72.2433116 6.93058568 72.4060014 6.86550976 72.6988431 6.73535792 72.9916847 6.60520607 73.4797542 6.37744035 74.423355 5.92190889 74.9114244 5.69414317 74.9439624 5.69414317 74.9439624 5.66160521 75.3994939 5.4989154 76.3430947 5.07592191 76.7986262 4.84815618 77.1565437 4.68546638 77.5144613 4.52277657 77.6446132 4.49023861 78.2628344 4.19739696 78.7183659 3.96963124 79.2064353 3.77440347 79.8897325 3.48156182 80.0524223 3.38394794 80.3452639 3.2537961 81.126175 2.89587852 81.5817064 2.70065076 82.0697758 2.47288503 82.5578453 2.27765727 82.5903832 2.24511931 82.6229212 2.24511931 83.0784526 2.04989154 83.5014461 1.85466377"></polygon>
    </g>
</svg>