<?xml version="1.0" encoding="UTF-8"?>
<svg width="32px" height="32px" viewBox="0 0 32 32" version="1.1" xmlns="http://www.w3.org/2000/svg" xmlns:xlink="http://www.w3.org/1999/xlink">
    <title>favicon-32x32</title>
    <g id="favicon-32x32" stroke="none" stroke-width="1" fill="none" fill-rule="evenodd">
        <g id="Logomark---SVG" transform="translate(2.000000, 1.000000)" fill="#2126F7">
            <path d="M16.8398719,0.392261369 L27.3480573,8.3055833 C27.9050425,8.72429888 28.195118,9.40873781 28.1105127,10.1002224 L26.5070399,23.1508625 C26.4224346,23.8423471 25.9742277,24.435192 25.3326371,24.7079611 L13.220979,29.8452792 C12.5793884,30.1170417 11.8411061,30.0264542 11.2851281,29.6077386 L0.776942654,21.6944167 C0.21995746,21.2757011 -0.0701180126,20.5912622 0.0144873334,19.8997776 L1.61796008,6.8491375 C1.70256543,6.15765287 2.15077232,5.56480797 2.79236286,5.29203892 L14.904021,0.154720797 C15.5456116,-0.117041721 16.2838939,-0.0264542148 16.8398719,0.392261369 Z M18.9761569,12.8651544 C17.7171488,9.8999234 14.5555276,8.3237008 11.5157784,8.9527807 L11.4462811,9.00008751 C8.93128648,10.7615112 7.90091423,14.0951315 9.14884309,17.0331862 C10.4078512,19.9984173 13.5694724,21.5746399 16.6102288,20.94556 C19.1745766,19.1972211 20.2361722,15.8293789 18.9771641,12.8651544 L18.9761569,12.8651544 Z" id="Combined-Shape"></path>
        </g>
    </g>
</svg>
