<?xml version="1.0" encoding="UTF-8"?>
<svg id="Layer_2" data-name="Layer 2" xmlns="http://www.w3.org/2000/svg" width="298.89" height="311.75" viewBox="0 0 298.89 311.75">
  <defs>
    <style>
      .cls-1 {
        fill: #2126f7;
        stroke-width: 0px;
      }
    </style>
  </defs>
  <path class="cls-1" d="M291.6,85.81L189.84,2.36c-1.86-1.53-4.2-2.36-6.61-2.36h-35.76c-1.82,0-3.62.4-5.27,1.16L24.09,55.73c-4.5,2.08-7.59,6.37-8.14,11.3L.1,209.11c-.59,5.25,1.52,10.45,5.61,13.8l105.25,86.47c1.87,1.53,4.2,2.37,6.62,2.37h32.16c1.82,0,3.63-.4,5.28-1.16l120.56-55.85c4.22-1.96,7.11-5.98,7.63-10.6l15.57-140.72c.74-6.7-1.96-13.32-7.17-17.6ZM149.8,226.17c-69.08-19.75-67.08-121.75-.64-141.69,33.56,9.11,51.71,39.48,51.42,71.33-.27,30.38-18.2,61.67-50.78,70.36Z"/>
</svg>
