<svg xmlns="http://www.w3.org/2000/svg" width="665" height="211" viewBox="0 0 665 211"><g fill="#000" fill-rule="nonzero"><path d="M82 85.6H41v-39h33c4.4 0 8-3.6 8-8v-33h39v41c0 21.6-17.5 39-39 39m-41 4H0v39h33c4.4 0 8 3.6 8 8v33h39v-41c0-21.6-17.5-39-39-39m131.1-2c-4.4 0-8-3.6-8-8v-33h-39v41c0 21.6 17.5 39 39 39h41v-39zm-88.1 82v41h39v-33c0-4.4 3.6-8 8-8h33v-39h-41c-21.6 0-39 17.5-39 39M469.5 33.3h-38.9V5.5h38.9zm-30.3 23.1h-23.4v29.2h20.4c3.4 0 6.2 2.8 6.2 6.2v118.9h30.8V89.6c0-21.5-13.9-33.2-33.9-33.2zM345.1 5.5l76.2 205.1h-32.4l-20.2-54.5h-95.3l-20.2 54.5h-32.1L297.3 5.5zm14.1 125.1L321.1 28 283 130.6zm186.7 54.5 62.6-49.4c36.4-28.7 52.4-48.7 52.4-76.2S642.7 0 587.8 0s-88.2 44.6-88.2 85.6h33.3c0-37 16.4-59.4 54.9-59.4s39.8 16.5 39.8 33.6-4.6 25.9-22.5 40.4L500.2 185v25.6h164.4V185H545.8z"/></g></svg>