<?xml version="1.0" encoding="UTF-8"?>
<svg width="665px" height="211px" viewBox="0 0 665 211" version="1.1" xmlns="http://www.w3.org/2000/svg" xmlns:xlink="http://www.w3.org/1999/xlink">
    <g id="Page-1" stroke="none" stroke-width="1" fill="none" fill-rule="evenodd">
        <g id="ai2" fill="#000000" fill-rule="nonzero">
            <path d="M82,85.6 L41,85.6 L41,46.6 L74,46.6 C78.4,46.6 82,43 82,38.6 L82,5.6 L121,5.6 L121,46.6 C121,68.2 103.5,85.6 82,85.6 Z M41,89.6 L0,89.6 L0,128.6 L33,128.6 C37.4,128.6 41,132.2 41,136.6 L41,169.6 L80,169.6 L80,128.6 C80,107 62.5,89.6 41,89.6 Z M172.1,87.6 C167.7,87.6 164.1,84 164.1,79.6 L164.1,46.6 L125.1,46.6 L125.1,87.6 C125.1,109.2 142.6,126.6 164.1,126.6 L205.1,126.6 L205.1,87.6 L172.1,87.6 Z M84,169.6 L84,210.6 L123,210.6 L123,177.6 C123,173.2 126.6,169.6 131,169.6 L164,169.6 L164,130.6 L123,130.6 C101.4,130.6 84,148.1 84,169.6 Z" id="Shape"></path>
            <path d="M469.5,33.3 L430.6,33.3 L430.6,5.5 L469.5,5.5 L469.5,33.3 Z M439.2,56.4 L415.8,56.4 L415.8,85.6 L436.2,85.6 C439.6,85.6 442.4,88.4 442.4,91.8 L442.4,210.7 L473.2,210.7 L473.2,89.6 C473.2,68.1 459.3,56.4 439.3,56.4 L439.2,56.4 Z M345.1,5.5 L421.3,210.6 L388.9,210.6 L368.7,156.1 L273.4,156.1 L253.2,210.6 L221.1,210.6 L297.3,5.5 L345.1,5.5 Z M359.2,130.6 L321.1,28 L283,130.6 L359.2,130.6 L359.2,130.6 L359.2,130.6 Z M545.9,185.1 L608.5,135.7 C644.9,107 660.9,87 660.9,59.5 C660.9,32 642.7,0 587.8,0 C532.9,0 499.6,44.6 499.6,85.6 L532.9,85.6 C532.9,48.6 549.3,26.2 587.8,26.2 C626.3,26.2 627.6,42.7 627.6,59.8 C627.6,76.9 623,85.7 605.1,100.2 L500.2,185 L500.2,210.6 L664.6,210.6 L664.6,185 L545.8,185 L545.9,185.1 Z" id="Shape"></path>
        </g>
    </g>
</svg>
