<?xml version="1.0" encoding="UTF-8" standalone="no"?>
<!-- Created with Inkscape (http://www.inkscape.org/) -->

<svg
   xmlns:dc="http://purl.org/dc/elements/1.1/"
   xmlns:cc="http://creativecommons.org/ns#"
   xmlns:rdf="http://www.w3.org/1999/02/22-rdf-syntax-ns#"
   xmlns:svg="http://www.w3.org/2000/svg"
   xmlns="http://www.w3.org/2000/svg"
   xmlns:xlink="http://www.w3.org/1999/xlink"
   xmlns:sodipodi="http://sodipodi.sourceforge.net/DTD/sodipodi-0.dtd"
   xmlns:inkscape="http://www.inkscape.org/namespaces/inkscape"
   version="1.0"
   width="99"
   height="20"
   id="svg2"
   inkscape:version="0.91 r13725"
   sodipodi:docname="Bill_&amp;_Melinda_Gates_Foundation_logo.svg">
  <metadata
     id="metadata41">
    <rdf:RDF>
      <cc:Work
         rdf:about="">
        <dc:format>image/svg+xml</dc:format>
        <dc:type
           rdf:resource="http://purl.org/dc/dcmitype/StillImage" />
        <dc:title></dc:title>
      </cc:Work>
    </rdf:RDF>
  </metadata>
  <sodipodi:namedview
     pagecolor="#ffffff"
     bordercolor="#666666"
     borderopacity="1"
     objecttolerance="10"
     gridtolerance="10"
     guidetolerance="10"
     inkscape:pageopacity="0"
     inkscape:pageshadow="2"
     inkscape:window-width="1366"
     inkscape:window-height="706"
     id="namedview39"
     showgrid="false"
     inkscape:zoom="0.834386"
     inkscape:cx="-91.890677"
     inkscape:cy="117.89776"
     inkscape:window-x="-8"
     inkscape:window-y="-8"
     inkscape:window-maximized="1"
     inkscape:current-layer="svg2" />
  <defs
     id="defs4" />
  <g
     id="g2386"
     transform="matrix(0.95028835,0,0,0.95028835,-10.542467,-49.089909)"
     style="fill:#000000">
    <defs
       id="defs2388">
      <rect
         width="126"
         height="126"
         x="0"
         y="0"
         id="SVGID_1_" />
    </defs>
    <clipPath
       id="SVGID_2_">
      <use
         id="use2392"
         style="overflow:visible"
         x="0"
         y="0"
         width="744.09448"
         height="1052.3622"
         xlink:href="#SVGID_1_" />
    </clipPath>
    <path
       d="m 43.622,71.128 c 0,0.199 -0.082,0.328 -0.235,0.411 -0.306,0.176 -0.918,0.248 -1.341,0.248 -1.084,0 -2.155,-0.354 -3.084,-1.261 -0.412,-0.398 -1.248,-1.601 -1.248,-3.259 0,-1.379 0.482,-2.447 1.165,-2.989 0.895,-0.707 1.777,-0.777 2.52,-0.777 1.517,0 2.471,0.505 2.766,0.953 0.177,0.282 0.235,0.612 0.247,0.777 0.012,0.105 0.024,0.176 0.083,0.176 0.082,0 0.104,-0.058 0.104,-0.246 0,-1.18 0.083,-1.507 0.083,-1.672 0,-0.048 -0.022,-0.094 -0.142,-0.105 -0.294,-0.012 -0.707,-0.059 -0.954,-0.117 -0.222,-0.047 -1.058,-0.202 -1.8,-0.202 -0.905,0 -2.071,0.083 -3.13,0.742 -1.048,0.659 -1.966,1.988 -1.966,3.873 0,1.471 0.683,2.728 1.4,3.354 1.308,1.141 2.979,1.258 3.872,1.258 0.684,0 1.741,-0.129 2.495,-0.53 0.141,-0.082 0.153,-0.104 0.153,-0.634 l 0,-1.319 c 0,-0.494 0,-0.847 0.023,-1.223 0.024,-0.413 0.117,-0.613 0.436,-0.673 0.141,-0.022 0.212,-0.035 0.294,-0.035 0.048,0 0.094,-0.022 0.094,-0.071 0,-0.068 -0.058,-0.092 -0.188,-0.092 -0.354,0 -1.095,0.034 -1.153,0.034 -0.058,0 -0.8,-0.034 -1.331,-0.034 -0.129,0 -0.188,0.023 -0.188,0.092 0,0.049 0.048,0.071 0.095,0.071 0.105,0 0.306,0.013 0.399,0.035 0.472,0.13 0.529,0.26 0.529,1.215 l 0,2 0.002,0 z"
       clip-path="url(#SVGID_2_)"
       id="path2394"
       style="fill:#000000;fill-rule:evenodd"
       inkscape:connector-curvature="0" />
    <path
       d="m 46.904,71.014 c -0.183,0.504 -0.385,0.887 -0.85,0.947 -0.08,0.012 -0.22,0.02 -0.292,0.02 -0.051,0 -0.09,0.022 -0.09,0.062 0,0.06 0.06,0.08 0.192,0.08 0.473,0 1.028,-0.029 1.139,-0.029 0.111,0 0.544,0.029 0.787,0.029 0.09,0 0.151,-0.021 0.151,-0.08 0,-0.039 -0.03,-0.062 -0.102,-0.062 l -0.1,0 c -0.172,0 -0.385,-0.092 -0.385,-0.291 0,-0.182 0.051,-0.423 0.143,-0.676 l 0.604,-1.785 c 0.021,-0.052 0.052,-0.083 0.102,-0.083 l 2.169,0 c 0.05,0 0.071,0.021 0.092,0.063 l 0.938,2.481 c 0.06,0.16 0,0.25 -0.063,0.271 -0.04,0.012 -0.07,0.03 -0.07,0.071 0,0.061 0.111,0.061 0.303,0.069 0.695,0.021 1.432,0.021 1.584,0.021 0.11,0 0.202,-0.021 0.202,-0.08 0,-0.051 -0.04,-0.062 -0.102,-0.062 -0.101,0 -0.253,-0.008 -0.403,-0.06 -0.212,-0.062 -0.504,-0.222 -0.867,-1.12 -0.615,-1.533 -2.198,-5.699 -2.352,-6.082 -0.12,-0.313 -0.161,-0.362 -0.221,-0.362 -0.062,0 -0.102,0.061 -0.222,0.392 l -2.287,6.266 z m 1.41,-2.23 c -0.028,0 -0.05,-0.021 -0.028,-0.071 l 0.887,-2.723 c 0.05,-0.152 0.1,-0.152 0.151,0 l 0.958,2.723 c 0.01,0.041 0.01,0.071 -0.039,0.071 l -1.929,0 z"
       clip-path="url(#SVGID_2_)"
       id="path2396"
       style="fill:#000000;fill-rule:evenodd"
       inkscape:connector-curvature="0" />
    <path
       d="m 56.06,64.931 1.271,0.021 c 0.968,0.019 1.201,0.252 1.241,0.553 l 0.009,0.112 c 0.01,0.141 0.031,0.171 0.082,0.171 0.04,0 0.069,-0.042 0.069,-0.131 0,-0.111 0.03,-0.807 0.03,-1.11 0,-0.06 0,-0.12 -0.05,-0.12 -0.042,0 -0.132,0.02 -0.283,0.05 -0.161,0.021 -0.393,0.05 -0.717,0.05 l -3.782,0 c -0.12,0 -0.504,-0.02 -0.797,-0.05 -0.271,-0.021 -0.373,-0.12 -0.442,-0.12 -0.04,0 -0.08,0.131 -0.103,0.19 -0.019,0.08 -0.221,0.949 -0.221,1.05 0,0.061 0.02,0.091 0.05,0.091 0.04,0 0.072,-0.02 0.102,-0.102 0.029,-0.069 0.059,-0.142 0.172,-0.312 0.161,-0.243 0.401,-0.313 1.027,-0.322 l 1.494,-0.021 0,4.268 c 0,0.967 0,1.764 -0.051,2.188 -0.04,0.292 -0.09,0.515 -0.293,0.554 -0.091,0.021 -0.211,0.041 -0.302,0.041 -0.062,0 -0.081,0.031 -0.081,0.062 0,0.06 0.051,0.08 0.161,0.08 0.304,0 0.938,-0.029 0.987,-0.029 0.052,0 0.688,0.029 1.24,0.029 0.113,0 0.164,-0.029 0.164,-0.08 0,-0.03 -0.021,-0.062 -0.083,-0.062 -0.089,0 -0.313,-0.02 -0.452,-0.041 -0.303,-0.039 -0.364,-0.262 -0.394,-0.554 -0.05,-0.424 -0.05,-1.221 -0.05,-2.188 l 0,-4.268 0.002,0 z"
       clip-path="url(#SVGID_2_)"
       id="path2398"
       style="fill:#000000;fill-rule:evenodd"
       inkscape:connector-curvature="0" />
    <path
       d="m 60.694,69.198 c 0,0.967 0,1.764 -0.051,2.188 -0.041,0.291 -0.091,0.515 -0.292,0.554 -0.091,0.021 -0.212,0.041 -0.302,0.041 -0.061,0 -0.081,0.031 -0.081,0.062 0,0.06 0.05,0.08 0.16,0.08 0.153,0 0.383,-0.01 0.586,-0.021 0.211,0 0.383,-0.009 0.403,-0.009 0.293,0 0.968,0.059 2.491,0.059 0.396,0 0.474,0 0.543,-0.263 0.052,-0.212 0.132,-0.896 0.132,-0.977 0,-0.07 0,-0.152 -0.059,-0.152 -0.051,0 -0.073,0.041 -0.092,0.152 -0.07,0.413 -0.191,0.615 -0.453,0.728 -0.262,0.109 -0.707,0.109 -0.969,0.109 -0.988,0 -1.139,-0.131 -1.17,-0.826 -0.009,-0.213 0,-1.382 0,-1.725 l 0,-0.89 c 0,-0.039 0.019,-0.071 0.069,-0.071 0.174,0 1.172,0.021 1.442,0.053 0.396,0.039 0.486,0.211 0.526,0.353 0.04,0.133 0.04,0.231 0.04,0.332 0,0.051 0.02,0.093 0.069,0.093 0.071,0 0.071,-0.112 0.071,-0.193 0,-0.072 0.021,-0.442 0.04,-0.646 0.032,-0.333 0.081,-0.503 0.081,-0.563 0,-0.06 -0.019,-0.08 -0.049,-0.08 -0.041,0 -0.082,0.051 -0.152,0.131 -0.091,0.102 -0.231,0.12 -0.474,0.141 -0.233,0.021 -1.474,0.021 -1.604,0.021 -0.051,0 -0.061,-0.031 -0.061,-0.101 l 0,-2.783 c 0,-0.07 0.019,-0.102 0.061,-0.102 0.112,0 1.21,0.01 1.381,0.031 0.546,0.06 0.647,0.18 0.718,0.343 0.05,0.12 0.06,0.291 0.06,0.362 0,0.082 0.021,0.131 0.082,0.131 0.039,0 0.06,-0.06 0.07,-0.109 0.02,-0.123 0.039,-0.566 0.049,-0.667 0.031,-0.282 0.082,-0.404 0.082,-0.475 0,-0.051 -0.012,-0.09 -0.039,-0.09 -0.053,0 -0.092,0.039 -0.142,0.049 -0.082,0.021 -0.243,0.041 -0.436,0.051 -0.23,0.01 -2.238,0.01 -2.31,0.01 -0.052,0 -0.687,-0.029 -1.141,-0.029 -0.109,0 -0.161,0.02 -0.161,0.08 0,0.039 0.04,0.06 0.081,0.06 0.092,0 0.263,0.012 0.345,0.031 0.332,0.071 0.41,0.232 0.433,0.576 0.02,0.322 0.02,0.604 0.02,2.177 l 0,1.774 0.003,0 z"
       clip-path="url(#SVGID_2_)"
       id="path2400"
       style="fill:#000000;fill-rule:evenodd"
       inkscape:connector-curvature="0" />
    <path
       d="m 67.489,72.265 c 0.543,0 1.09,-0.122 1.523,-0.426 0.695,-0.492 0.857,-1.261 0.857,-1.674 0,-0.806 -0.283,-1.431 -1.475,-2.37 l -0.279,-0.221 c -0.951,-0.777 -1.23,-1.123 -1.23,-1.695 0,-0.735 0.543,-1.17 1.238,-1.17 0.93,0 1.201,0.424 1.259,0.534 0.063,0.111 0.123,0.384 0.134,0.504 0.012,0.081 0.023,0.132 0.08,0.132 0.053,0 0.072,-0.07 0.072,-0.23 0,-0.688 0.039,-1.021 0.039,-1.072 0,-0.05 -0.02,-0.069 -0.1,-0.069 -0.08,0 -0.162,-0.01 -0.354,-0.051 -0.252,-0.061 -0.543,-0.1 -0.939,-0.1 -1.279,0 -2.086,0.735 -2.086,1.815 0,0.686 0.24,1.311 1.311,2.187 l 0.453,0.376 c 0.869,0.714 1.162,1.117 1.162,1.814 0,0.646 -0.477,1.34 -1.443,1.34 -0.676,0 -1.342,-0.279 -1.495,-1.027 -0.028,-0.141 -0.028,-0.283 -0.028,-0.373 0,-0.081 -0.01,-0.112 -0.072,-0.112 -0.049,0 -0.068,0.053 -0.08,0.163 -0.01,0.161 -0.049,0.563 -0.049,1.07 0,0.271 0.01,0.312 0.15,0.382 0.412,0.2 0.88,0.273 1.352,0.273"
       clip-path="url(#SVGID_2_)"
       id="path2402"
       style="fill:#000000;fill-rule:evenodd"
       inkscape:connector-curvature="0" />
    <path
       d="m 76.624,67.325 c 0.123,-0.088 0.141,-0.213 0.082,-0.306 l -1.033,0 c 0.222,-0.702 0.387,-1.37 0.777,-1.925 0.197,-0.28 0.403,-0.445 0.643,-0.445 0.217,0 0.48,0.149 0.506,0.645 0.008,0.059 0.041,0.133 0.115,0.133 0.133,0 0.355,-0.256 0.355,-0.513 0,-0.332 -0.332,-0.546 -0.678,-0.546 -0.486,0 -0.973,0.198 -1.389,0.687 -0.486,0.578 -0.703,1.222 -0.918,1.965 l -0.707,0 c -0.111,0.075 -0.145,0.233 -0.061,0.306 l 0.686,0 c -0.396,1.349 -0.67,2.769 -1.092,4.15 -0.172,0.561 -0.369,0.686 -0.52,0.686 -0.166,0 -0.381,-0.115 -0.494,-0.308 -0.068,-0.106 -0.125,-0.172 -0.242,-0.072 -0.057,0.041 -0.154,0.113 -0.154,0.298 0,0.14 0.154,0.421 0.535,0.421 0.488,0 0.842,-0.323 0.94,-0.421 0.175,-0.158 0.425,-0.613 0.655,-1.356 0.273,-0.908 0.512,-1.826 0.777,-2.744 0.072,-0.246 0.141,-0.513 0.189,-0.653 l 1.028,0 0,-0.002 z"
       clip-path="url(#SVGID_2_)"
       id="path2404"
       style="fill:#000000;fill-rule:evenodd"
       inkscape:connector-curvature="0" />
    <path
       d="m 79.569,66.906 c -0.338,0 -0.709,0.123 -1.141,0.537 -0.561,0.535 -0.867,1.338 -0.9,1.851 -0.049,0.709 0.298,1.1 0.826,1.1 0.226,0 0.668,-0.043 1.181,-0.571 0.614,-0.628 0.853,-1.422 0.877,-1.877 0.034,-0.601 -0.255,-1.04 -0.843,-1.04 m -0.054,0.247 c 0.287,0 0.336,0.29 0.328,0.545 -0.016,0.438 -0.404,1.528 -0.77,2.016 -0.264,0.355 -0.471,0.431 -0.65,0.431 -0.242,0 -0.357,-0.24 -0.338,-0.528 0.021,-0.438 0.344,-1.422 0.824,-2.067 0.238,-0.322 0.438,-0.397 0.606,-0.397"
       clip-path="url(#SVGID_2_)"
       id="path2406"
       style="fill:#000000;fill-rule:evenodd"
       inkscape:connector-curvature="0" />
    <path
       d="m 83.354,67.153 c 0.049,-0.142 -0.141,-0.247 -0.25,-0.247 -0.387,0 -1.215,0.651 -1.428,0.98 -0.008,0.075 0.057,0.141 0.141,0.125 0.197,-0.207 0.627,-0.568 0.785,-0.568 0.066,0 0.057,0.082 0,0.238 l -0.76,2.01 c -0.141,0.361 -0.1,0.702 0.238,0.702 0.445,0 1.471,-1.059 2.068,-1.81 l 0.015,0.008 -0.563,1.511 c -0.049,0.131 0.076,0.291 0.207,0.291 0.442,0 1.231,-0.653 1.447,-1.051 -0.008,-0.098 -0.076,-0.131 -0.15,-0.116 -0.215,0.258 -0.65,0.646 -0.807,0.646 -0.084,0 -0.076,-0.099 -0.033,-0.207 0.346,-0.981 0.883,-2.34 0.965,-2.561 -0.031,-0.1 -0.232,-0.183 -0.404,-0.15 -0.271,0.504 -0.703,1.463 -1.455,2.207 -0.43,0.421 -0.76,0.685 -0.883,0.685 -0.092,0 -0.135,-0.082 -0.057,-0.279 l 0.924,-2.414 z"
       clip-path="url(#SVGID_2_)"
       id="path2408"
       style="fill:#000000;fill-rule:evenodd"
       inkscape:connector-curvature="0" />
    <path
       d="m 88.144,67.245 c 0.076,-0.192 -0.016,-0.339 -0.215,-0.339 -0.412,0 -0.918,0.339 -1.23,0.768 -0.008,0.065 0.031,0.123 0.1,0.123 0.271,-0.238 0.561,-0.411 0.752,-0.411 0.066,0 0.066,0.08 0.025,0.188 -0.043,0.117 -0.918,2.495 -0.959,2.604 -0.076,0.188 0.146,0.216 0.238,0.216 0.074,0 0.109,-0.027 0.148,-0.102 0.488,-0.908 0.828,-1.552 1.268,-2.098 0.449,-0.569 0.941,-0.982 1.137,-0.982 0.125,0 0.135,0.099 0.135,0.197 0,0.165 -0.109,0.454 -0.174,0.603 -0.191,0.413 -0.497,1.224 -0.67,1.629 -0.174,0.412 -0.199,0.472 -0.199,0.545 0,0.099 0.125,0.208 0.199,0.208 0.453,0 1.107,-0.397 1.423,-0.928 0,-0.065 -0.019,-0.131 -0.136,-0.114 -0.236,0.289 -0.635,0.563 -0.773,0.563 -0.061,0 -0.052,-0.075 -0.02,-0.158 0.027,-0.064 0.619,-1.413 0.77,-1.826 0.068,-0.19 0.133,-0.445 0.133,-0.578 0,-0.273 -0.142,-0.445 -0.463,-0.445 -0.621,0 -1.438,0.908 -2.023,1.801 l -0.025,-0.016 0.559,-1.448 z"
       clip-path="url(#SVGID_2_)"
       id="path2410"
       style="fill:#000000;fill-rule:evenodd"
       inkscape:connector-curvature="0" />
    <path
       d="m 94.316,67.163 c -0.089,-0.175 -0.29,-0.257 -0.421,-0.257 -0.396,0 -0.918,0.23 -1.48,0.734 -0.652,0.586 -1.097,1.571 -1.097,2.156 0,0.331 0.171,0.597 0.493,0.597 0.801,0 1.425,-0.802 1.992,-1.563 l 0.031,0.007 -0.287,0.819 c -0.082,0.239 -0.108,0.371 -0.108,0.471 0,0.133 0.091,0.266 0.265,0.266 0.432,0 1.18,-0.68 1.405,-1.133 -0.007,-0.075 -0.048,-0.107 -0.124,-0.107 -0.258,0.322 -0.777,0.743 -0.908,0.743 -0.074,0 -0.084,-0.082 -0.051,-0.19 0.076,-0.248 0.463,-1.569 1.281,-3.827 0.248,-0.684 0.373,-0.998 0.52,-1.462 l -0.033,-0.049 c -0.353,-0.008 -0.814,0.1 -0.975,0.157 -0.033,0.032 -0.043,0.082 -0.025,0.114 l 0.191,0.134 c 0.117,0.075 0.092,0.224 -0.074,0.686 l -0.595,1.704 z m -0.438,-0.01 c 0.207,0 0.315,0.247 0.215,0.594 -0.121,0.438 -0.365,0.937 -1.006,1.596 -0.572,0.585 -0.992,0.736 -1.117,0.736 -0.074,0 -0.158,-0.076 -0.158,-0.175 0,-0.107 0,-0.256 0.257,-0.784 0.255,-0.521 0.849,-1.306 1.181,-1.612 0.216,-0.197 0.437,-0.355 0.628,-0.355"
       clip-path="url(#SVGID_2_)"
       id="path2412"
       style="fill:#000000;fill-rule:evenodd"
       inkscape:connector-curvature="0" />
    <path
       d="m 98.917,67.245 c -0.041,-0.082 -0.133,-0.158 -0.166,-0.175 -0.049,-0.024 -0.107,-0.052 -0.197,-0.052 -0.215,0 -0.424,0.06 -0.744,0.241 -0.34,0.19 -0.695,0.521 -1.092,1.065 -0.547,0.754 -0.729,1.415 -0.729,1.603 0,0.233 0.133,0.466 0.365,0.466 0.387,0 1.232,-0.571 1.818,-1.298 l 0.025,0.01 -0.273,0.74 c -0.064,0.192 -0.082,0.267 -0.082,0.323 0,0.064 0.051,0.225 0.238,0.225 0.455,0 1.041,-0.466 1.391,-0.928 0,-0.065 -0.061,-0.106 -0.117,-0.106 -0.469,0.414 -0.711,0.555 -0.852,0.555 -0.066,0 -0.107,-0.051 -0.059,-0.191 0.266,-0.752 0.984,-2.578 1.109,-2.885 -0.051,-0.105 -0.266,-0.189 -0.403,-0.121 l -0.232,0.528 z m -0.621,0.09 c 0.215,0 0.354,0.141 0.414,0.298 -0.133,0.487 -0.48,1.198 -1.107,1.784 -0.471,0.429 -0.719,0.536 -0.803,0.536 -0.074,0 -0.123,-0.057 -0.123,-0.156 0,-0.585 0.504,-1.669 1.033,-2.14 0.258,-0.232 0.389,-0.322 0.586,-0.322"
       clip-path="url(#SVGID_2_)"
       id="path2414"
       style="fill:#000000;fill-rule:evenodd"
       inkscape:connector-curvature="0" />
    <path
       d="m 103.104,67.417 c 0.106,-0.059 0.159,-0.223 0.101,-0.305 l -0.902,0 0.24,-0.812 c -0.066,-0.082 -0.232,-0.099 -0.313,-0.048 l -0.464,0.817 -0.661,0.115 c -0.081,0.033 -0.108,0.149 -0.089,0.231 l 0.641,0 -0.773,2.281 c -0.082,0.247 -0.117,0.362 -0.117,0.471 0,0.099 0.107,0.225 0.225,0.225 0.346,0 1.123,-0.507 1.584,-1.189 0.02,-0.099 -0.031,-0.149 -0.113,-0.149 -0.272,0.312 -0.818,0.742 -0.941,0.742 -0.068,0 -0.107,-0.05 -0.061,-0.205 l 0.746,-2.175 0.897,0 0,0.001 z"
       clip-path="url(#SVGID_2_)"
       id="path2416"
       style="fill:#000000;fill-rule:evenodd"
       inkscape:connector-curvature="0" />
    <path
       d="m 103.917,70.094 c -0.039,0.092 -0.014,0.167 0.035,0.225 0.041,0.048 0.09,0.075 0.131,0.075 0.572,0 1.424,-0.745 1.545,-0.986 0,-0.072 -0.041,-0.131 -0.121,-0.138 -0.281,0.322 -0.721,0.61 -0.86,0.61 -0.067,0 -0.058,-0.099 -0.026,-0.182 l 0.986,-2.347 c 0.1,-0.239 0.1,-0.314 0.049,-0.363 -0.035,-0.034 -0.076,-0.082 -0.134,-0.082 -0.271,0 -0.907,0.306 -1.362,0.825 -0.018,0.065 0.031,0.132 0.107,0.141 0.412,-0.34 0.63,-0.438 0.686,-0.438 0.057,0 0.057,0.065 0.018,0.158 l -1.054,2.502 z m 1.82,-5.172 c -0.322,0 -0.447,0.34 -0.447,0.521 0,0.148 0.084,0.313 0.297,0.313 0.258,0 0.439,-0.263 0.439,-0.52 0,-0.181 -0.099,-0.314 -0.289,-0.314"
       clip-path="url(#SVGID_2_)"
       id="path2418"
       style="fill:#000000;fill-rule:evenodd"
       inkscape:connector-curvature="0" />
    <path
       d="m 109.163,66.906 c -0.34,0 -0.713,0.123 -1.142,0.537 -0.563,0.535 -0.868,1.338 -0.901,1.851 -0.049,0.709 0.297,1.1 0.828,1.1 0.223,0 0.668,-0.043 1.18,-0.571 0.613,-0.628 0.851,-1.422 0.877,-1.877 0.033,-0.601 -0.258,-1.04 -0.842,-1.04 m -0.059,0.247 c 0.291,0 0.339,0.29 0.331,0.545 -0.018,0.438 -0.406,1.528 -0.768,2.016 -0.264,0.355 -0.471,0.431 -0.656,0.431 -0.236,0 -0.352,-0.24 -0.336,-0.528 0.023,-0.438 0.347,-1.422 0.826,-2.067 0.24,-0.322 0.437,-0.397 0.603,-0.397"
       clip-path="url(#SVGID_2_)"
       id="path2420"
       style="fill:#000000;fill-rule:evenodd"
       inkscape:connector-curvature="0" />
    <path
       d="m 112.813,67.245 c 0.075,-0.192 -0.017,-0.339 -0.212,-0.339 -0.413,0 -0.918,0.339 -1.234,0.768 -0.008,0.065 0.035,0.123 0.1,0.123 0.273,-0.238 0.564,-0.411 0.754,-0.411 0.063,0 0.063,0.08 0.023,0.188 -0.041,0.117 -0.918,2.495 -0.959,2.604 -0.074,0.188 0.148,0.216 0.24,0.216 0.076,0 0.107,-0.027 0.148,-0.102 0.488,-0.908 0.826,-1.552 1.265,-2.098 0.454,-0.569 0.944,-0.982 1.142,-0.982 0.123,0 0.131,0.099 0.131,0.197 0,0.165 -0.106,0.454 -0.174,0.603 -0.189,0.413 -0.494,1.224 -0.668,1.629 -0.174,0.412 -0.199,0.472 -0.199,0.545 0,0.099 0.123,0.208 0.199,0.208 0.455,0 1.107,-0.397 1.422,-0.928 0,-0.065 -0.019,-0.131 -0.133,-0.114 -0.242,0.289 -0.636,0.563 -0.775,0.563 -0.059,0 -0.051,-0.075 -0.02,-0.158 0.025,-0.064 0.621,-1.413 0.77,-1.826 0.066,-0.19 0.133,-0.445 0.133,-0.578 0,-0.273 -0.143,-0.445 -0.465,-0.445 -0.617,0 -1.436,0.908 -2.023,1.801 l -0.025,-0.016 0.56,-1.448 z"
       clip-path="url(#SVGID_2_)"
       id="path2422"
       style="fill:#000000;fill-rule:evenodd"
       inkscape:connector-curvature="0" />
    <path
       d="m 12.256,57.515 c 0,1.13 0,2.06 -0.058,2.555 -0.048,0.341 -0.106,0.601 -0.343,0.646 -0.106,0.024 -0.247,0.048 -0.354,0.048 -0.069,0 -0.094,0.035 -0.094,0.071 0,0.069 0.059,0.093 0.188,0.093 0.354,0 1.095,-0.035 1.153,-0.035 0.095,0 1.295,0.071 1.566,0.071 2.012,0 3.001,-1.307 3.001,-2.566 0,-1.377 -1.165,-2.212 -2.036,-2.482 0.553,-0.578 1.105,-1.155 1.105,-2.12 0,-0.588 -0.424,-1.765 -2.354,-1.765 -0.541,0 -0.999,0.035 -1.282,0.035 -0.059,0 -0.8,-0.035 -1.329,-0.035 -0.131,0 -0.188,0.024 -0.188,0.093 0,0.049 0.047,0.072 0.094,0.072 0.106,0 0.305,0.012 0.4,0.036 0.389,0.082 0.482,0.271 0.506,0.67 0.023,0.377 0.023,0.705 0.023,2.542 l 0,2.071 0.002,0 z m 0.941,-4.967 c 0,-0.069 0.036,-0.105 0.142,-0.13 0.188,-0.047 0.436,-0.058 0.564,-0.058 1.154,0 1.589,1.048 1.589,2.024 0,0.482 -0.176,0.906 -0.423,1.188 -0.247,0.283 -0.413,0.307 -1.072,0.307 -0.434,0 -0.646,-0.034 -0.718,-0.047 -0.058,-0.024 -0.082,-0.047 -0.082,-0.13 l 0,-3.154 z m 0,3.731 c 0,-0.06 0.024,-0.083 0.071,-0.083 0.176,0 0.764,0 0.917,0.023 0.283,0.036 0.577,0.07 0.978,0.342 0.905,0.624 1.143,1.647 1.143,2.354 0,1.33 -1.024,1.672 -1.66,1.672 -0.212,0 -0.718,-0.023 -1.036,-0.177 -0.364,-0.177 -0.364,-0.341 -0.4,-0.919 -0.012,-0.176 -0.012,-1.635 -0.012,-2.541 l 0,-0.671 -0.001,0 z"
       clip-path="url(#SVGID_2_)"
       id="path2424"
       style="fill:#000000;fill-rule:evenodd"
       inkscape:connector-curvature="0" />
    <path
       d="m 20.752,56.222 c 0,-1.572 0,-1.854 0.021,-2.178 0.019,-0.354 0.1,-0.525 0.372,-0.575 0.121,-0.021 0.182,-0.03 0.253,-0.03 0.04,0 0.082,-0.021 0.082,-0.062 0,-0.06 -0.052,-0.08 -0.164,-0.08 -0.302,0 -0.937,0.03 -0.988,0.03 -0.05,0 -0.685,-0.03 -1.018,-0.03 -0.111,0 -0.161,0.021 -0.161,0.08 0,0.041 0.04,0.062 0.08,0.062 0.071,0 0.202,0.01 0.312,0.04 0.224,0.051 0.324,0.223 0.344,0.565 0.021,0.323 0.021,0.605 0.021,2.178 l 0,1.775 c 0,0.968 0,1.766 -0.051,2.188 -0.04,0.293 -0.09,0.516 -0.292,0.558 -0.091,0.019 -0.212,0.038 -0.303,0.038 -0.061,0 -0.081,0.031 -0.081,0.061 0,0.061 0.051,0.08 0.162,0.08 0.303,0 0.938,-0.029 0.987,-0.029 0.052,0 0.687,0.029 1.241,0.029 0.112,0 0.162,-0.029 0.162,-0.08 0,-0.029 -0.021,-0.061 -0.081,-0.061 -0.09,0 -0.313,-0.02 -0.454,-0.038 -0.303,-0.042 -0.361,-0.265 -0.393,-0.558 -0.051,-0.423 -0.051,-1.221 -0.051,-2.188 l 0,-1.775 0,0 z"
       clip-path="url(#SVGID_2_)"
       id="path2426"
       style="fill:#000000;fill-rule:evenodd"
       inkscape:connector-curvature="0" />
    <path
       d="m 25.127,56.222 c 0,-1.572 0,-1.854 0.021,-2.178 0.021,-0.354 0.101,-0.525 0.393,-0.575 0.121,-0.021 0.262,-0.03 0.334,-0.03 0.039,0 0.08,-0.021 0.08,-0.062 0,-0.06 -0.051,-0.08 -0.162,-0.08 -0.303,0 -1.039,0.03 -1.089,0.03 -0.051,0 -0.687,-0.03 -1.14,-0.03 -0.11,0 -0.161,0.021 -0.161,0.08 0,0.041 0.04,0.062 0.08,0.062 0.091,0 0.263,0.01 0.343,0.03 0.333,0.07 0.414,0.232 0.434,0.575 0.021,0.323 0.021,0.605 0.021,2.178 l 0,1.775 c 0,0.968 0,1.766 -0.052,2.188 -0.04,0.293 -0.091,0.516 -0.293,0.558 -0.091,0.019 -0.211,0.038 -0.302,0.038 -0.061,0 -0.081,0.031 -0.081,0.061 0,0.061 0.051,0.08 0.161,0.08 0.152,0 0.374,-0.009 0.575,-0.02 0.203,0 0.374,-0.01 0.414,-0.01 0.585,0 1.251,0.061 2.703,0.061 0.535,0 0.564,-0.04 0.636,-0.272 0.081,-0.293 0.151,-0.898 0.151,-1.008 0,-0.112 -0.011,-0.152 -0.062,-0.152 -0.059,0 -0.08,0.051 -0.09,0.132 -0.03,0.191 -0.132,0.443 -0.263,0.605 -0.241,0.292 -0.686,0.302 -1.221,0.302 -0.786,0 -1.049,-0.07 -1.21,-0.232 -0.181,-0.181 -0.222,-0.826 -0.222,-2.31 l 0,-1.796 0.002,0 z"
       clip-path="url(#SVGID_2_)"
       id="path2428"
       style="fill:#000000;fill-rule:evenodd"
       inkscape:connector-curvature="0" />
    <path
       d="m 30.79,56.222 c 0,-1.572 0,-1.854 0.021,-2.178 0.021,-0.354 0.1,-0.525 0.393,-0.575 0.121,-0.021 0.263,-0.03 0.334,-0.03 0.039,0 0.08,-0.021 0.08,-0.062 0,-0.06 -0.051,-0.08 -0.161,-0.08 -0.303,0 -1.038,0.03 -1.09,0.03 -0.051,0 -0.687,-0.03 -1.14,-0.03 -0.111,0 -0.162,0.021 -0.162,0.08 0,0.041 0.041,0.062 0.081,0.062 0.091,0 0.262,0.01 0.344,0.03 0.332,0.07 0.413,0.232 0.434,0.575 0.02,0.323 0.02,0.605 0.02,2.178 l 0,1.775 c 0,0.968 0,1.766 -0.05,2.188 -0.041,0.293 -0.091,0.516 -0.292,0.558 -0.091,0.019 -0.213,0.038 -0.304,0.038 -0.061,0 -0.08,0.031 -0.08,0.061 0,0.061 0.05,0.08 0.161,0.08 0.151,0 0.374,-0.009 0.574,-0.02 0.203,0 0.373,-0.01 0.414,-0.01 0.585,0 1.251,0.061 2.703,0.061 0.534,0 0.566,-0.04 0.637,-0.272 0.079,-0.293 0.15,-0.898 0.15,-1.008 0,-0.112 -0.01,-0.152 -0.061,-0.152 -0.061,0 -0.08,0.051 -0.09,0.132 -0.03,0.191 -0.132,0.443 -0.264,0.605 -0.241,0.292 -0.685,0.302 -1.22,0.302 -0.787,0 -1.05,-0.07 -1.21,-0.232 -0.182,-0.181 -0.223,-0.826 -0.223,-2.31 l 0,-1.796 10e-4,0 z"
       clip-path="url(#SVGID_2_)"
       id="path2430"
       style="fill:#000000;fill-rule:evenodd"
       inkscape:connector-curvature="0" />
    <path
       d="m 37.563,59.986 c 0.596,0 1.447,-0.256 2.045,-0.928 0.655,-0.741 0.843,-1.585 0.868,-1.841 0.017,-0.162 0.034,-0.57 0.034,-0.724 0.264,0.213 0.545,0.536 0.587,0.605 0.045,0.067 0.111,0.109 0.205,0.05 0.153,-0.094 0.494,-0.195 0.639,-0.213 0.094,-0.017 0.171,-0.024 0.222,-0.085 0.068,-0.068 0.162,-0.204 0.162,-0.4 0,-0.221 -0.085,-0.477 -0.315,-0.477 -0.153,0 -0.272,0.111 -0.272,0.213 0,0.026 0.017,0.068 0.034,0.128 0.017,0.051 0.034,0.119 0.034,0.213 0,0.145 -0.085,0.264 -0.172,0.264 -0.151,0 -0.178,-0.043 -0.373,-0.222 -0.419,-0.374 -0.665,-0.664 -1.134,-0.664 -0.119,0 -0.503,0.068 -0.843,0.35 -0.426,0.35 -0.58,0.732 -0.58,0.953 0,0.229 0.188,0.342 0.367,0.342 0.239,0 0.281,-0.179 0.281,-0.239 0,-0.051 -0.034,-0.145 -0.061,-0.237 -0.024,-0.095 -0.068,-0.204 -0.068,-0.282 0,-0.29 0.357,-0.545 0.622,-0.545 0.172,0 0.35,0.059 0.443,0.146 -0.025,0.697 -0.137,1.124 -0.46,1.72 -0.494,0.912 -1.363,1.389 -2.07,1.389 -0.655,0 -1.525,-0.365 -1.508,-1.456 l 0,-0.068 c 0.886,-0.604 2.317,-1.688 3.024,-2.386 0.792,-0.774 1.073,-1.303 1.073,-1.746 0,-0.332 -0.196,-0.451 -0.392,-0.451 -0.162,0 -0.341,0.119 -0.341,0.35 0,0.093 0.024,0.119 0.093,0.188 0.061,0.059 0.104,0.136 0.104,0.256 0,0.221 -0.188,0.562 -0.307,0.714 -0.238,0.315 -0.827,0.912 -1.201,1.219 -0.077,-0.109 -0.162,-0.332 -0.537,-0.332 -0.187,0 -0.716,0.085 -1.27,0.664 -0.681,0.698 -0.817,1.406 -0.817,1.832 0.002,0.875 0.539,1.7 1.884,1.7 m -1.294,-2.334 c 0.059,-0.357 0.195,-0.698 0.46,-1.047 0.256,-0.333 0.535,-0.46 0.656,-0.46 0.162,0 0.28,0.102 0.28,0.263 0,0.018 0,0.128 -0.008,0.205 -0.281,0.247 -0.783,0.621 -1.388,1.039"
       clip-path="url(#SVGID_2_)"
       id="path2432"
       style="fill:#000000;fill-rule:evenodd"
       inkscape:connector-curvature="0" />
    <path
       d="m 53.373,52.111 c -0.024,-0.224 -0.061,-0.317 -0.143,-0.317 -0.083,0 -0.13,0.082 -0.177,0.188 l -3.46,7.392 -3.602,-7.403 c -0.06,-0.131 -0.105,-0.177 -0.177,-0.177 -0.07,0 -0.105,0.082 -0.13,0.212 l -0.847,7.674 c -0.047,0.447 -0.082,0.905 -0.472,0.977 -0.176,0.036 -0.258,0.036 -0.353,0.036 -0.059,0 -0.116,0.022 -0.116,0.058 0,0.084 0.081,0.106 0.199,0.106 0.318,0 0.882,-0.035 0.988,-0.035 0.095,0 0.659,0.035 1.096,0.035 0.14,0 0.21,-0.022 0.21,-0.106 0,-0.035 -0.046,-0.058 -0.094,-0.058 -0.071,0 -0.247,-0.013 -0.447,-0.06 -0.177,-0.035 -0.306,-0.188 -0.306,-0.364 0,-0.2 0,-0.412 0.012,-0.601 l 0.471,-5.461 0.047,0 c 0.131,0.317 1.448,3.143 1.554,3.354 0.06,0.118 1.071,2.154 1.378,2.731 0.223,0.423 0.281,0.542 0.363,0.542 0.106,0 0.143,-0.107 0.39,-0.626 l 2.883,-6.119 0.035,0 0.564,6.072 c 0.024,0.212 0.013,0.412 -0.047,0.424 -0.058,0.013 -0.082,0.036 -0.082,0.084 0,0.058 0.06,0.094 0.329,0.117 0.437,0.035 1.706,0.07 1.966,0.07 0.143,0 0.247,-0.035 0.247,-0.106 0,-0.047 -0.035,-0.058 -0.094,-0.058 -0.119,0 -0.423,0 -0.764,-0.107 -0.508,-0.164 -0.59,-0.823 -0.637,-1.247 l -0.784,-7.227 z"
       clip-path="url(#SVGID_2_)"
       id="path2434"
       style="fill:#000000;fill-rule:evenodd"
       inkscape:connector-curvature="0" />
    <path
       d="m 57.323,57.927 c 0,0.968 0,1.765 -0.051,2.188 -0.04,0.293 -0.09,0.514 -0.291,0.556 -0.092,0.02 -0.213,0.039 -0.303,0.039 -0.061,0 -0.082,0.031 -0.082,0.061 0,0.061 0.051,0.081 0.163,0.081 0.151,0 0.383,-0.011 0.585,-0.021 0.212,0 0.383,-0.009 0.404,-0.009 0.292,0 0.968,0.06 2.49,0.06 0.394,0 0.475,0 0.544,-0.263 0.051,-0.211 0.132,-0.897 0.132,-0.979 0,-0.071 0,-0.152 -0.062,-0.152 -0.049,0 -0.07,0.043 -0.089,0.152 -0.072,0.413 -0.193,0.615 -0.456,0.726 -0.261,0.111 -0.706,0.111 -0.967,0.111 -0.99,0 -1.14,-0.131 -1.171,-0.826 -0.009,-0.212 0,-1.383 0,-1.725 l 0,-0.888 c 0,-0.041 0.02,-0.071 0.071,-0.071 0.172,0 1.169,0.021 1.442,0.051 0.394,0.04 0.484,0.212 0.524,0.354 0.04,0.13 0.04,0.23 0.04,0.332 0,0.05 0.02,0.092 0.069,0.092 0.071,0 0.071,-0.111 0.071,-0.193 0,-0.07 0.021,-0.442 0.042,-0.645 0.029,-0.333 0.08,-0.505 0.08,-0.564 0,-0.061 -0.02,-0.082 -0.051,-0.082 -0.039,0 -0.08,0.05 -0.152,0.132 -0.089,0.101 -0.23,0.12 -0.473,0.142 -0.233,0.021 -1.474,0.021 -1.604,0.021 -0.05,0 -0.061,-0.031 -0.061,-0.102 l 0,-2.785 c 0,-0.07 0.02,-0.101 0.061,-0.101 0.112,0 1.21,0.009 1.382,0.03 0.545,0.06 0.646,0.181 0.717,0.343 0.051,0.121 0.06,0.292 0.06,0.362 0,0.082 0.021,0.131 0.082,0.131 0.04,0 0.06,-0.06 0.07,-0.109 0.019,-0.121 0.04,-0.565 0.051,-0.667 0.03,-0.281 0.081,-0.402 0.081,-0.474 0,-0.051 -0.011,-0.09 -0.041,-0.09 -0.051,0 -0.091,0.039 -0.141,0.052 -0.082,0.019 -0.243,0.038 -0.435,0.048 -0.231,0.011 -2.24,0.011 -2.309,0.011 -0.053,0 -0.688,-0.03 -1.142,-0.03 -0.11,0 -0.162,0.02 -0.162,0.081 0,0.04 0.041,0.06 0.082,0.06 0.091,0 0.263,0.01 0.342,0.031 0.334,0.07 0.414,0.23 0.434,0.574 0.021,0.323 0.021,0.605 0.021,2.18 l 0,1.775 0.003,0 z"
       clip-path="url(#SVGID_2_)"
       id="path2436"
       style="fill:#000000;fill-rule:evenodd"
       inkscape:connector-curvature="0" />
    <path
       d="m 64.138,56.151 c 0,-1.574 0,-1.856 0.021,-2.18 0.021,-0.353 0.101,-0.523 0.392,-0.574 0.123,-0.021 0.264,-0.031 0.334,-0.031 0.041,0 0.084,-0.02 0.084,-0.06 0,-0.062 -0.053,-0.081 -0.164,-0.081 -0.305,0 -1.038,0.03 -1.089,0.03 -0.051,0 -0.688,-0.03 -1.141,-0.03 -0.11,0 -0.161,0.02 -0.161,0.081 0,0.04 0.041,0.06 0.082,0.06 0.09,0 0.261,0.01 0.342,0.031 0.334,0.07 0.415,0.23 0.433,0.574 0.022,0.323 0.022,0.605 0.022,2.18 l 0,1.775 c 0,0.968 0,1.765 -0.05,2.188 -0.04,0.293 -0.092,0.514 -0.295,0.557 -0.09,0.019 -0.212,0.038 -0.303,0.038 -0.06,0 -0.081,0.031 -0.081,0.061 0,0.061 0.051,0.081 0.162,0.081 0.152,0 0.374,-0.011 0.576,-0.021 0.201,0 0.374,-0.01 0.413,-0.01 0.585,0 1.253,0.061 2.702,0.061 0.535,0 0.564,-0.041 0.637,-0.272 0.08,-0.292 0.15,-0.896 0.15,-1.009 0,-0.113 -0.008,-0.151 -0.059,-0.151 -0.063,0 -0.082,0.051 -0.092,0.132 -0.029,0.191 -0.129,0.443 -0.262,0.604 -0.244,0.293 -0.686,0.304 -1.221,0.304 -0.788,0 -1.051,-0.071 -1.211,-0.231 -0.182,-0.183 -0.223,-0.828 -0.223,-2.31 l 0,-1.797 0.002,0 z"
       clip-path="url(#SVGID_2_)"
       id="path2438"
       style="fill:#000000;fill-rule:evenodd"
       inkscape:connector-curvature="0" />
    <path
       d="m 70.044,56.151 c 0,-1.574 0,-1.856 0.021,-2.18 0.021,-0.353 0.101,-0.523 0.372,-0.574 0.123,-0.021 0.184,-0.031 0.253,-0.031 0.042,0 0.081,-0.02 0.081,-0.06 0,-0.062 -0.049,-0.081 -0.16,-0.081 -0.305,0 -0.938,0.03 -0.986,0.03 -0.053,0 -0.689,-0.03 -1.021,-0.03 -0.109,0 -0.163,0.02 -0.163,0.081 0,0.04 0.04,0.06 0.083,0.06 0.068,0 0.201,0.01 0.313,0.042 0.223,0.05 0.324,0.22 0.342,0.563 0.021,0.323 0.021,0.605 0.021,2.18 l 0,1.775 c 0,0.968 0,1.765 -0.05,2.188 -0.039,0.293 -0.091,0.514 -0.293,0.557 -0.091,0.019 -0.212,0.038 -0.304,0.038 -0.059,0 -0.082,0.031 -0.082,0.061 0,0.061 0.053,0.081 0.162,0.081 0.303,0 0.939,-0.03 0.992,-0.03 0.049,0 0.682,0.03 1.238,0.03 0.111,0 0.161,-0.03 0.161,-0.081 0,-0.029 -0.019,-0.061 -0.079,-0.061 -0.092,0 -0.313,-0.02 -0.453,-0.038 -0.307,-0.043 -0.365,-0.264 -0.395,-0.557 -0.053,-0.424 -0.053,-1.221 -0.053,-2.188 l 0,-1.775 0,0 z"
       clip-path="url(#SVGID_2_)"
       id="path2440"
       style="fill:#000000;fill-rule:evenodd"
       inkscape:connector-curvature="0" />
    <path
       d="m 73.714,54.648 c 0.324,0.362 1.461,1.634 2.633,2.895 1.07,1.149 2.523,2.633 2.633,2.733 0.537,0.535 0.656,0.646 0.736,0.646 0.07,0 0.092,-0.051 0.092,-0.718 l 0.02,-5.91 c 0,-0.605 0.039,-0.827 0.371,-0.897 0.125,-0.031 0.193,-0.031 0.245,-0.031 0.071,0 0.11,-0.031 0.11,-0.069 0,-0.061 -0.072,-0.071 -0.182,-0.071 -0.412,0 -0.746,0.03 -0.855,0.03 -0.114,0 -0.6,-0.03 -1.049,-0.03 -0.125,0 -0.205,0.011 -0.205,0.071 0,0.038 0.013,0.069 0.08,0.069 0.082,0 0.314,0.01 0.494,0.051 0.313,0.08 0.383,0.303 0.395,0.959 l 0.111,5.124 c -0.324,-0.333 -1.424,-1.563 -2.422,-2.632 -1.553,-1.665 -3.057,-3.289 -3.207,-3.46 -0.102,-0.102 -0.271,-0.324 -0.353,-0.324 -0.081,0 -0.11,0.112 -0.11,0.505 l -0.012,5.779 c 0,0.918 -0.051,1.212 -0.303,1.281 -0.15,0.051 -0.332,0.061 -0.411,0.061 -0.052,0 -0.081,0.021 -0.081,0.061 0,0.07 0.061,0.081 0.16,0.081 0.455,0 0.877,-0.03 0.969,-0.03 0.092,0 0.495,0.03 1.068,0.03 0.123,0 0.18,-0.021 0.18,-0.081 0,-0.04 -0.027,-0.061 -0.078,-0.061 -0.09,0 -0.313,-0.01 -0.506,-0.061 -0.271,-0.081 -0.373,-0.344 -0.393,-1.17 l -0.13,-4.831 z"
       clip-path="url(#SVGID_2_)"
       id="path2442"
       style="fill:#000000;fill-rule:evenodd"
       inkscape:connector-curvature="0" />
    <path
       d="m 82.696,57.928 c 0,0.967 0,1.764 -0.053,2.188 -0.04,0.293 -0.09,0.514 -0.293,0.556 -0.09,0.02 -0.211,0.039 -0.301,0.039 -0.063,0 -0.082,0.031 -0.082,0.061 0,0.061 0.051,0.081 0.162,0.081 0.303,0 0.938,-0.03 0.986,-0.03 0.104,0 1.373,0.121 2.24,0.121 1.715,0 2.624,-0.707 3.057,-1.16 0.563,-0.595 1.09,-1.574 1.09,-2.845 0,-1.2 -0.475,-2.037 -0.979,-2.562 -1.201,-1.24 -3.048,-1.15 -4.043,-1.15 -0.605,0 -1.24,0.03 -1.365,0.03 -0.049,0 -0.684,-0.03 -1.14,-0.03 -0.108,0 -0.157,0.02 -0.157,0.081 0,0.04 0.039,0.06 0.08,0.06 0.088,0 0.26,0.01 0.342,0.031 0.332,0.071 0.412,0.23 0.434,0.574 0.021,0.323 0.021,0.605 0.021,2.18 l 0,1.775 0.001,0 z m 0.846,-1.939 c 0,-0.777 0,-1.805 0.01,-2.147 0,-0.112 0.029,-0.162 0.123,-0.203 0.078,-0.04 0.451,-0.07 0.654,-0.07 1.199,0 2.35,0.141 3.299,1.14 0.412,0.434 0.967,1.262 0.967,2.543 0,0.927 -0.282,1.896 -0.805,2.41 -0.596,0.595 -1.463,0.938 -2.4,0.938 -1.191,0 -1.586,-0.212 -1.715,-0.404 -0.084,-0.11 -0.104,-0.515 -0.112,-0.767 -0.011,-0.191 -0.021,-1.119 -0.021,-2.189 l 0,-1.251 z"
       clip-path="url(#SVGID_2_)"
       id="path2444"
       style="fill:#000000;fill-rule:evenodd"
       inkscape:connector-curvature="0" />
    <path
       d="m 90.7,59.742 c -0.182,0.504 -0.383,0.887 -0.848,0.948 -0.08,0.009 -0.222,0.02 -0.291,0.02 -0.054,0 -0.092,0.021 -0.092,0.061 0,0.061 0.061,0.081 0.193,0.081 0.475,0 1.027,-0.03 1.139,-0.03 0.109,0 0.545,0.03 0.787,0.03 0.09,0 0.15,-0.021 0.15,-0.081 0,-0.04 -0.029,-0.061 -0.102,-0.061 l -0.1,0 c -0.174,0 -0.385,-0.091 -0.385,-0.293 0,-0.182 0.051,-0.423 0.141,-0.675 l 0.605,-1.786 c 0.021,-0.051 0.049,-0.08 0.104,-0.08 l 2.168,0 c 0.049,0 0.07,0.021 0.09,0.061 l 0.938,2.48 c 0.063,0.163 0,0.254 -0.059,0.273 -0.041,0.009 -0.072,0.029 -0.072,0.07 0,0.061 0.113,0.061 0.303,0.07 0.697,0.021 1.432,0.021 1.584,0.021 0.111,0 0.203,-0.021 0.203,-0.081 0,-0.051 -0.041,-0.061 -0.102,-0.061 -0.102,0 -0.254,-0.011 -0.406,-0.061 -0.211,-0.061 -0.502,-0.222 -0.867,-1.119 -0.613,-1.534 -2.197,-5.7 -2.35,-6.083 -0.119,-0.313 -0.158,-0.363 -0.221,-0.363 -0.061,0 -0.102,0.062 -0.223,0.394 L 90.7,59.742 Z m 1.412,-2.23 c -0.029,0 -0.051,-0.02 -0.029,-0.07 l 0.889,-2.724 c 0.047,-0.15 0.098,-0.15 0.15,0 l 0.957,2.724 c 0.01,0.04 0.01,0.07 -0.039,0.07 l -1.928,0 0,0 z"
       clip-path="url(#SVGID_2_)"
       id="path2446"
       style="fill:#000000;fill-rule:evenodd"
       inkscape:connector-curvature="0" />
  </g>
</svg>
