<?xml version="1.0" encoding="UTF-8"?>
<svg width="269px" height="114px" viewBox="0 0 269 114" version="1.1" xmlns="http://www.w3.org/2000/svg" xmlns:xlink="http://www.w3.org/1999/xlink">
    <title>Slice</title>
    <g id="Page-1" stroke="none" stroke-width="1" fill="none" fill-rule="evenodd">
        <g id="logo-uc-berkeley" transform="translate(0, 72)" fill="#000000" fill-rule="nonzero">
            <path d="M205.406,42.000014 C207.545,42.000014 209.555,40.418014 213.575,31.992014 C216.312,26.005014 218.365,20.702014 220.503,15.271014 C221.187,13.517014 221.53,13.175014 222.599,12.876014 C223.368,12.662014 223.668,12.363014 223.668,11.892014 C223.668,11.464014 223.411,11.079014 222.77,11.079014 C221.829,11.079014 220.717,11.208014 219.434,11.208014 C218.108,11.208014 217.125,11.079014 216.141,11.079014 C215.542,11.079014 215.243,11.422014 215.243,11.849014 C215.243,12.319014 215.542,12.619014 216.226,12.833014 C218.108,13.346014 218.279,14.159014 217.552,16.383014 C216.397,19.890014 215.114,23.268014 213.147,27.759014 C211.479,23.610014 210.068,19.889014 208.657,15.699014 C208.143,14.073014 208.315,13.389014 210.325,12.833014 C211.094,12.619014 211.351,12.363014 211.351,11.893014 C211.351,11.422014 211.009,11.079014 210.41,11.079014 C209.127,11.079014 207.801,11.208014 206.048,11.208014 C204.166,11.208014 202.798,11.079014 201.472,11.079014 C200.83,11.079014 200.531,11.464014 200.531,11.892014 C200.531,12.405014 200.787,12.662014 201.557,12.876014 C202.541,13.132014 202.84,13.474014 203.439,15.014014 C205.791,20.874014 207.887,26.048014 210.624,33.062014 C208.785,36.440014 207.416,37.210014 205.577,37.552014 C204.081,37.809014 203.097,38.750014 203.097,39.947014 C203.097,40.931014 203.781,42.000014 205.406,42.000014 L205.406,42.000014 Z M192.063,12.790014 C194.8,12.790014 196.041,15.270014 196.041,16.254014 C196.041,16.596014 195.87,16.854014 195.485,16.939014 C193.175,17.537014 190.395,18.093014 187.487,18.607014 C188,14.715014 189.925,12.790014 192.063,12.790014 L192.063,12.790014 Z M192.363,32.035014 C196.083,32.035014 198.649,30.196014 200.189,28.357014 C200.873,27.545014 200.446,26.817014 199.761,26.817014 C199.59,26.817014 199.419,26.903014 199.248,26.989014 C197.452,28.101014 196.041,28.699014 194.116,28.699014 C189.882,28.699014 187.359,24.979014 187.359,20.745014 L187.359,20.659014 C191.55,20.061014 195.656,19.248014 199.89,18.264014 C200.446,18.136014 200.83,17.708014 200.702,17.067014 C200.018,13.987014 197.195,10.609014 192.32,10.609014 C187.444,10.609014 182.954,15.142014 182.954,21.686014 C182.954,27.844014 186.931,32.036014 192.363,32.036014 L192.363,32.035014 Z M172.391,31.693014 C173.802,31.693014 175.299,31.565014 177.009,31.565014 C178.72,31.565014 180.303,31.693014 181.714,31.693014 C182.355,31.693014 182.655,31.308014 182.655,30.880014 C182.655,30.410014 182.355,29.982014 181.628,29.897014 C179.704,29.683014 179.362,29.469014 179.362,28.571014 C179.276,24.423014 179.276,20.531014 179.276,16.682014 C179.276,13.132014 179.276,9.24101399 179.404,0.602013985 C179.404,0.0460139854 179.062,-0.0829860146 178.592,0.0460139854 C176.581769,0.549315945 174.537771,0.906581099 172.476,1.11501399 C171.749,1.15801399 171.45,1.50001399 171.45,1.92701399 C171.45,2.39701399 171.749,2.74001399 172.562,2.86801399 C174.443,3.21001399 174.657,3.42401399 174.7,4.40801399 C174.786,8.72801399 174.786,12.790014 174.786,16.682014 C174.786,20.531014 174.786,24.422014 174.7,28.572014 C174.657,29.469014 174.401,29.640014 172.476,29.897014 C171.706,29.982014 171.45,30.410014 171.45,30.881014 C171.45,31.308014 171.749,31.693014 172.391,31.693014 L172.391,31.693014 Z M162.726,12.790014 C165.463,12.790014 166.703,15.270014 166.703,16.254014 C166.703,16.596014 166.532,16.854014 166.147,16.939014 C163.837,17.537014 161.058,18.093014 158.15,18.607014 C158.663,14.715014 160.587,12.790014 162.726,12.790014 L162.726,12.790014 Z M163.025,32.035014 C166.746,32.035014 169.312,30.196014 170.851,28.357014 C171.536,27.545014 171.108,26.817014 170.424,26.817014 C170.253,26.817014 170.081,26.903014 169.91,26.989014 C168.114,28.101014 166.703,28.699014 164.778,28.699014 C160.544,28.699014 158.021,24.979014 158.021,20.745014 L158.021,20.659014 C162.212,20.061014 166.318,19.248014 170.552,18.264014 C171.108,18.136014 171.493,17.708014 171.365,17.067014 C170.68,13.987014 167.858,10.609014 162.982,10.609014 C158.107,10.609014 153.616,15.142014 153.616,21.686014 C153.616,27.844014 157.594,32.036014 163.025,32.036014 L163.025,32.035014 Z M132.147,31.693014 C133.559,31.693014 134.97,31.565014 136.68,31.565014 C138.391,31.565014 139.845,31.693014 141.257,31.693014 C141.898,31.693014 142.197,31.308014 142.197,30.880014 C142.197,30.410014 141.941,30.068014 141.171,29.897014 C139.247,29.597014 139.033,29.469014 139.033,28.571014 C138.99,27.203014 138.99,25.834014 138.99,24.508014 C139.933206,23.9058124 140.860202,23.2785899 141.77,22.627014 C143.566,25.321014 145.405,28.101014 147.201,30.667014 C147.757,31.479014 148.057,31.650014 148.955,31.650014 C150.238,31.650014 151.82,31.608014 153.659,31.650014 C154.3,31.650014 154.643,31.266014 154.643,30.795014 C154.643,30.367014 154.471,29.982014 153.573,29.897014 C152.376,29.769014 151.734,29.170014 150.708,27.844014 C148.912,25.406014 147.03,22.626014 145.277,19.932014 C145.277,19.890014 145.319,19.890014 145.362,19.847014 C148.655,16.981014 150.836,14.800014 152.462,12.662014 C152.675,12.362014 152.804,12.106014 152.804,11.849014 C152.804,11.336014 152.462,10.994014 151.777,11.037014 C149.767,11.207014 147.928,11.207014 145.661,11.079014 C144.763,11.037014 144.507,11.464014 144.507,11.892014 C144.507,12.277014 144.806,12.705014 145.405,12.833014 L146.26,13.047014 C147.672,13.389014 147.672,14.544014 145.918,16.383014 C144.036,18.393014 141.599,20.317014 138.947,21.985014 L138.947,16.682014 C138.947,13.132014 138.947,9.24101399 139.075,0.602013985 C139.075,0.0460139854 138.733,-0.0829860146 138.263,0.0460139854 C136.252769,0.549315945 134.208771,0.906581099 132.147,1.11501399 C131.42,1.15801399 131.121,1.50001399 131.121,1.92701399 C131.121,2.39701399 131.42,2.74001399 132.233,2.86801399 C134.114,3.21001399 134.328,3.42401399 134.371,4.40801399 C134.457,8.72801399 134.457,12.790014 134.457,16.682014 C134.457,20.531014 134.457,24.422014 134.371,28.572014 C134.328,29.469014 134.157,29.598014 132.233,29.897014 C131.463,30.068014 131.206,30.410014 131.206,30.881014 C131.206,31.308014 131.506,31.693014 132.147,31.693014 L132.147,31.693014 Z M116.281,31.693014 C117.65,31.693014 119.104,31.565014 120.771,31.565014 C122.439,31.565014 124.364,31.693014 125.732,31.693014 C126.331,31.693014 126.631,31.308014 126.631,30.880014 C126.631,30.410014 126.374,30.025014 125.519,29.897014 C123.338,29.640014 123.124,29.427014 123.081,28.528014 C122.995,26.176014 122.995,24.081014 122.995,21.344014 L122.995,17.750014 C125.219,14.800014 126.246,14.200014 127.358,14.200014 C128.683,14.200014 129.795,15.868014 130.351,15.868014 C130.651,15.868014 130.822,15.783014 131.036,15.355014 C131.463,14.500014 131.891,13.645014 132.319,12.747014 C132.575,12.191014 132.446963,11.891014 131.934,11.549014 C130.907,10.865014 129.838,10.394014 128.769,10.394014 C126.887,10.394014 125.176,11.977014 123.038,15.484014 C123.038,14.072014 123.081,12.533014 123.124,10.822014 C123.124,10.266014 122.782,10.138014 122.311,10.266014 C120.087,10.865014 117.992,11.206014 116.195,11.336014 C115.468,11.421014 115.212,11.720014 115.212,12.190014 C115.212,12.661014 115.468,13.003014 116.281,13.131014 C118.163,13.473014 118.377,13.687014 118.419,14.628014 C118.505,16.767014 118.505,19.033014 118.505,21.343014 C118.505,24.080014 118.505,26.175014 118.419,28.527014 C118.377,29.426014 118.248,29.639014 116.366,29.896014 C115.597,30.067014 115.34,30.409014 115.34,30.880014 C115.34,31.307014 115.64,31.692014 116.281,31.692014 L116.281,31.693014 Z M105.889,12.790014 C108.626,12.790014 109.866,15.270014 109.866,16.254014 C109.866,16.596014 109.695,16.854014 109.31,16.939014 C107.001,17.537014 104.221,18.093014 101.313,18.607014 C101.826,14.715014 103.751,12.790014 105.889,12.790014 L105.889,12.790014 Z M106.188,32.035014 C109.909,32.035014 112.475,30.196014 114.015,28.357014 C114.699,27.545014 114.271,26.817014 113.587,26.817014 C113.416,26.817014 113.245,26.903014 113.074,26.989014 C111.278,28.101014 109.866,28.699014 107.942,28.699014 C103.708,28.699014 101.185,24.979014 101.185,20.745014 L101.185,20.659014 C105.376,20.061014 109.482,19.248014 113.715,18.264014 C114.271,18.136014 114.656,17.708014 114.528,17.067014 C113.844,13.987014 111.021,10.609014 106.146,10.609014 C101.27,10.609014 96.78,15.142014 96.78,21.686014 C96.78,27.844014 100.757,32.036014 106.188,32.036014 L106.188,32.035014 Z M80.101,29.341014 C78.818,29.041014 78.391,28.614014 78.348,27.074014 C78.262,23.824014 78.262,21.301014 78.262,16.682014 L78.262,16.597014 C85.532,16.425014 89.339,18.050014 89.339,23.354014 C89.339,26.476014 87.115,29.598014 82.624,29.598014 C81.47,29.598014 80.743,29.512014 80.101,29.341014 Z M78.348,5.52001399 C78.348,4.66401399 78.561,4.32201399 79.203,4.06601399 C79.716,3.89501399 80.486,3.80901399 81.683,3.80901399 C85.233,3.80901399 87.414,5.73401399 87.414,9.49701399 C87.414,11.593014 86.73,13.347014 85.618,14.672014 C83.437,14.287014 80.956,14.159014 78.262,14.287014 C78.262,10.908014 78.262,8.47101399 78.348,5.52001399 Z M83.308,31.950014 C90.408,31.950014 94.642,27.801014 94.642,22.969014 C94.642,19.163014 92.332,16.725014 88.526,15.399014 C90.664,14.116014 92.504,11.764014 92.504,8.94101399 C92.504,4.36501399 88.697,1.54201399 82.025,1.54201399 C79.16,1.54201399 78.475,1.79901399 75.781,1.79901399 C73.001,1.79901399 71.291,1.58501399 70.179,1.58501399 C69.495,1.58501399 69.153,1.97001399 69.153,2.52601399 C69.153,2.99601399 69.409,3.38201399 70.307,3.55301399 C72.617,3.89501399 73.173,4.36501399 73.173,5.52001399 C73.216,9.15501399 73.258,11.892014 73.258,16.682014 C73.258,21.472014 73.258,24.295014 73.173,27.930014 C73.13,29.170014 72.703,29.512014 70.393,29.726014 C69.495,29.854014 69.238,30.282014 69.238,30.752014 C69.238,31.308014 69.58,31.693014 70.265,31.693014 C71.933,31.693014 73.515,31.608014 75.781,31.608014 C77.92,31.608014 79.887,31.950014 83.309,31.950014 L83.308,31.950014 Z M48.54,32.206014 C52.175,32.206014 55.554,31.180014 58.761,29.084014 C59.659,28.528014 59.916,27.930014 59.916,27.331014 C59.916,26.176014 60.001,25.107014 59.958,24.166014 C59.916,23.439014 59.574,23.012014 58.975,23.012014 C58.505,23.012014 58.162,23.311014 57.991,23.952014 C56.879,27.673014 53.543,29.683014 49.31,29.683014 C43.065,29.683014 38.361,24.508014 38.361,16.682014 C38.361,8.77001399 42.809,3.59501399 49.395,3.59501399 C53.672,3.59501399 56.238,5.17801399 57.649,8.51401399 C57.949,9.19801399 58.205,9.54001399 58.761,9.54001399 C59.36,9.54001399 59.616,9.11201399 59.659,8.42801399 C59.702,7.44401399 59.702,5.90501399 59.702,4.96401399 C59.702,4.32201399 59.488,3.80901399 58.547,3.29601399 C56.281,2.05601399 53.116,1.15801399 49.737,1.15801399 C39.73,1.15801399 32.887,8.04301399 32.887,17.153014 C32.887,26.005014 39.302,32.206014 48.54,32.206014 L48.54,32.206014 Z M16.038,32.206014 C23.436,32.206014 28.312,27.630014 28.312,19.547014 L28.312,16.682014 C28.312,11.849014 28.312,9.02701399 28.354,5.13501399 C28.397,4.23701399 28.824,3.85201399 31.177,3.63801399 C31.99,3.51001399 32.247,3.08201399 32.247,2.61201399 C32.247,2.05601399 31.904,1.67101399 31.262,1.67101399 C29.894,1.67101399 28.568,1.79901399 26.858,1.79901399 C25.104,1.79901399 23.735,1.67101399 22.324,1.67101399 C21.683,1.67101399 21.341,2.05601399 21.341,2.61101399 C21.341,3.03901399 21.597,3.46701399 22.453,3.59501399 C24.933,3.85201399 25.361,4.23701399 25.361,5.13501399 C25.446,9.02701399 25.446,11.849014 25.446,16.682014 L25.446,19.205014 C25.446,25.535014 22.324,28.742014 17.106,28.742014 C11.761,28.742014 8.981,25.407014 8.981,19.505014 L8.981,16.682014 C8.981,11.849014 8.981,9.02701399 9.067,5.13501399 C9.067,4.23701399 9.494,3.85201399 11.847,3.63801399 C12.702,3.51001399 12.958,3.08201399 12.958,2.61201399 C12.958,2.05601399 12.616,1.67101399 11.932,1.67101399 C10.307,1.67101399 8.682,1.79901399 6.458,1.79901399 C4.234,1.79901399 2.65,1.67101399 0.984,1.67101399 C0.342,1.67101399 0,2.05601399 0,2.61101399 C0,3.08201399 0.257,3.51001399 1.112,3.63801399 C3.464,3.85201399 3.892,4.23701399 3.892,5.13501399 C3.977,9.02701399 3.977,11.849014 3.977,16.682014 L3.977,20.061014 C3.977,28.058014 8.597,32.206014 16.037,32.206014 L16.038,32.206014 Z" id="Shape"></path>
        </g>
        <g id="Boettiger-Group" transform="translate(0.1705, 8)" fill="#000000" fill-rule="nonzero">
            <path d="M1.33226763e-14,27 L1.33226763e-14,0.818181818 L9.15340909,0.818181818 C10.9772727,0.818181818 12.4815341,1.13139205 13.6661932,1.7578125 C14.8508523,2.38423295 15.7329545,3.22372159 16.3125,4.27627841 C16.8920455,5.32883523 17.1818182,6.49431818 17.1818182,7.77272727 C17.1818182,8.89772727 16.9836648,9.82670455 16.587358,10.5596591 C16.1910511,11.2926136 15.6711648,11.8721591 15.0276989,12.2982955 C14.384233,12.7244318 13.6875,13.0397727 12.9375,13.2443182 L12.9375,13.5 C13.7386364,13.5511364 14.5440341,13.8323864 15.3536932,14.34375 C16.1633523,14.8551136 16.8409091,15.5880682 17.3863636,16.5426136 C17.9318182,17.4971591 18.2045455,18.6647727 18.2045455,20.0454545 C18.2045455,21.3579545 17.90625,22.5383523 17.3096591,23.5866477 C16.7130682,24.6349432 15.7713068,25.4659091 14.484375,26.0795455 C13.1974432,26.6931818 11.5227273,27 9.46022727,27 L1.33226763e-14,27 Z M3.17045455,24.1875 L9.46022727,24.1875 C11.53125,24.1875 13.0035511,23.7848011 13.8771307,22.9794034 C14.7507102,22.1740057 15.1875,21.1960227 15.1875,20.0454545 C15.1875,19.1590909 14.9616477,18.3387784 14.5099432,17.584517 C14.0582386,16.8302557 13.4147727,16.225142 12.5795455,15.7691761 C11.7443182,15.3132102 10.7556818,15.0852273 9.61363636,15.0852273 L3.17045455,15.0852273 L3.17045455,24.1875 Z M3.17045455,12.3238636 L9.05113636,12.3238636 C10.0056818,12.3238636 10.868608,12.1363636 11.6399148,11.7613636 C12.4112216,11.3863636 13.024858,10.8579545 13.4808239,10.1761364 C13.9367898,9.49431818 14.1647727,8.69318182 14.1647727,7.77272727 C14.1647727,6.62215909 13.7642045,5.64417614 12.9630682,4.83877841 C12.1619318,4.03338068 10.8920455,3.63068182 9.15340909,3.63068182 L3.17045455,3.63068182 L3.17045455,12.3238636 Z" id="Shape"></path>
            <path d="M30.9886364,27.4090909 C29.2159091,27.4090909 27.662642,26.9872159 26.3288352,26.1434659 C24.9950284,25.2997159 23.9552557,24.1193182 23.209517,22.6022727 C22.4637784,21.0852273 22.0909091,19.3125 22.0909091,17.2840909 C22.0909091,15.2386364 22.4637784,13.453125 23.209517,11.9275568 C23.9552557,10.4019886 24.9950284,9.21732955 26.3288352,8.37357955 C27.662642,7.52982955 29.2159091,7.10795455 30.9886364,7.10795455 C32.7613636,7.10795455 34.3146307,7.52982955 35.6484375,8.37357955 C36.9822443,9.21732955 38.022017,10.4019886 38.7677557,11.9275568 C39.5134943,13.453125 39.8863636,15.2386364 39.8863636,17.2840909 C39.8863636,19.3125 39.5134943,21.0852273 38.7677557,22.6022727 C38.022017,24.1193182 36.9822443,25.2997159 35.6484375,26.1434659 C34.3146307,26.9872159 32.7613636,27.4090909 30.9886364,27.4090909 Z M30.9886364,24.6988636 C32.3352273,24.6988636 33.4431818,24.3536932 34.3125,23.6633523 C35.1818182,22.9730114 35.8252841,22.0653409 36.2428977,20.9403409 C36.6605114,19.8153409 36.8693182,18.5965909 36.8693182,17.2840909 C36.8693182,15.9715909 36.6605114,14.7485795 36.2428977,13.6150568 C35.8252841,12.4815341 35.1818182,11.5653409 34.3125,10.8664773 C33.4431818,10.1676136 32.3352273,9.81818182 30.9886364,9.81818182 C29.6420455,9.81818182 28.5340909,10.1676136 27.6647727,10.8664773 C26.7954545,11.5653409 26.1519886,12.4815341 25.734375,13.6150568 C25.3167614,14.7485795 25.1079545,15.9715909 25.1079545,17.2840909 C25.1079545,18.5965909 25.3167614,19.8153409 25.734375,20.9403409 C26.1519886,22.0653409 26.7954545,22.9730114 27.6647727,23.6633523 C28.5340909,24.3536932 29.6420455,24.6988636 30.9886364,24.6988636 Z" id="Shape"></path>
            <path d="M52.7215909,27.4090909 C50.8295455,27.4090909 49.1995739,26.9893466 47.8316761,26.149858 C46.4637784,25.3103693 45.4112216,24.134233 44.6740057,22.6214489 C43.9367898,21.1086648 43.5681818,19.3465909 43.5681818,17.3352273 C43.5681818,15.3238636 43.9367898,13.5490057 44.6740057,12.0106534 C45.4112216,10.4723011 46.4424716,9.27059659 47.7677557,8.40553977 C49.0930398,7.54048295 50.6420455,7.10795455 52.4147727,7.10795455 C53.4375,7.10795455 54.4474432,7.27840909 55.4446023,7.61931818 C56.4417614,7.96022727 57.3494318,8.51207386 58.1676136,9.27485795 C58.9857955,10.037642 59.6377841,11.0454545 60.1235795,12.2982955 C60.609375,13.5511364 60.8522727,15.09375 60.8522727,16.9261364 L60.8522727,18.2045455 L45.7159091,18.2045455 L45.7159091,15.5965909 L57.7840909,15.5965909 C57.7840909,14.4886364 57.5646307,13.5 57.1257102,12.6306818 C56.6867898,11.7613636 56.0646307,11.0752841 55.259233,10.5724432 C54.4538352,10.0696023 53.5056818,9.81818182 52.4147727,9.81818182 C51.2130682,9.81818182 50.1754261,10.1143466 49.3018466,10.7066761 C48.428267,11.2990057 47.7571023,12.0681818 47.2883523,13.0142045 C46.8196023,13.9602273 46.5852273,14.9744318 46.5852273,16.0568182 L46.5852273,17.7954545 C46.5852273,19.2784091 46.8430398,20.5333807 47.3586648,21.5603693 C47.8742898,22.587358 48.5923295,23.3671875 49.5127841,23.899858 C50.4332386,24.4325284 51.5028409,24.6988636 52.7215909,24.6988636 C53.5142045,24.6988636 54.2322443,24.5859375 54.8757102,24.3600852 C55.5191761,24.134233 56.0752841,23.7933239 56.5440341,23.337358 C57.0127841,22.881392 57.375,22.3125 57.6306818,21.6306818 L60.5454545,22.4488636 C60.2386364,23.4375 59.7230114,24.3046875 58.9985795,25.0504261 C58.2741477,25.7961648 57.3792614,26.3757102 56.3139205,26.7890625 C55.2485795,27.2024148 54.0511364,27.4090909 52.7215909,27.4090909 Z" id="Path"></path>
            <path d="M73.9943182,7.36363636 L73.9943182,9.92045455 L63.8181818,9.92045455 L63.8181818,7.36363636 L73.9943182,7.36363636 Z M66.7840909,2.65909091 L69.8011364,2.65909091 L69.8011364,21.375 C69.8011364,22.2272727 69.9268466,22.8643466 70.178267,23.2862216 C70.4296875,23.7080966 70.7535511,23.9893466 71.149858,24.1299716 C71.5461648,24.2705966 71.9659091,24.3409091 72.4090909,24.3409091 C72.7414773,24.3409091 73.0142045,24.321733 73.2272727,24.2833807 C73.4403409,24.2450284 73.6107955,24.2130682 73.7386364,24.1875 L74.3522727,26.8977273 C74.1477273,26.9744318 73.8622159,27.053267 73.4957386,27.134233 C73.1292614,27.2151989 72.6647727,27.2556818 72.1022727,27.2556818 C71.25,27.2556818 70.4169034,27.0724432 69.602983,26.7059659 C68.7890625,26.3394886 68.115767,25.78125 67.5830966,25.03125 C67.0504261,24.28125 66.7840909,23.3352273 66.7840909,22.1931818 L66.7840909,2.65909091 Z" id="Shape"></path>
            <path d="M87.0852273,7.36363636 L87.0852273,9.92045455 L76.9090909,9.92045455 L76.9090909,7.36363636 L87.0852273,7.36363636 Z M79.875,2.65909091 L82.8920455,2.65909091 L82.8920455,21.375 C82.8920455,22.2272727 83.0177557,22.8643466 83.2691761,23.2862216 C83.5205966,23.7080966 83.8444602,23.9893466 84.240767,24.1299716 C84.6370739,24.2705966 85.0568182,24.3409091 85.5,24.3409091 C85.8323864,24.3409091 86.1051136,24.321733 86.3181818,24.2833807 C86.53125,24.2450284 86.7017045,24.2130682 86.8295455,24.1875 L87.4431818,26.8977273 C87.2386364,26.9744318 86.953125,27.053267 86.5866477,27.134233 C86.2201705,27.2151989 85.7556818,27.2556818 85.1931818,27.2556818 C84.3409091,27.2556818 83.5078125,27.0724432 82.693892,26.7059659 C81.8799716,26.3394886 81.2066761,25.78125 80.6740057,25.03125 C80.1413352,24.28125 79.875,23.3352273 79.875,22.1931818 L79.875,2.65909091 Z" id="Shape"></path>
            <path d="M91.6363636,27 L91.6363636,7.36363636 L94.6534091,7.36363636 L94.6534091,27 L91.6363636,27 Z M93.1704545,4.09090909 C92.5823864,4.09090909 92.0774148,3.890625 91.6555398,3.49005682 C91.2336648,3.08948864 91.0227273,2.60795455 91.0227273,2.04545455 C91.0227273,1.48295455 91.2336648,1.00142045 91.6555398,0.600852273 C92.0774148,0.200284091 92.5823864,0 93.1704545,0 C93.7585227,0 94.2634943,0.200284091 94.6853693,0.600852273 C95.1072443,1.00142045 95.3181818,1.48295455 95.3181818,2.04545455 C95.3181818,2.60795455 95.1072443,3.08948864 94.6853693,3.49005682 C94.2634943,3.890625 93.7585227,4.09090909 93.1704545,4.09090909 Z" id="Shape"></path>
            <path d="M108.102273,34.7727273 C106.644886,34.7727273 105.392045,34.587358 104.34375,34.2166193 C103.295455,33.8458807 102.424006,33.3600852 101.729403,32.759233 C101.034801,32.1583807 100.482955,31.5170455 100.073864,30.8352273 L102.477273,29.1477273 C102.75,29.5056818 103.09517,29.9169034 103.512784,30.381392 C103.930398,30.8458807 104.503551,31.2507102 105.232244,31.5958807 C105.960938,31.9410511 106.917614,32.1136364 108.102273,32.1136364 C109.6875,32.1136364 110.995739,31.7301136 112.026989,30.9630682 C113.058239,30.1960227 113.573864,28.9943182 113.573864,27.3579545 L113.573864,23.3693182 L113.318182,23.3693182 C113.096591,23.7272727 112.783381,24.1683239 112.378551,24.6924716 C111.973722,25.2166193 111.394176,25.681108 110.639915,26.0859375 C109.885653,26.490767 108.869318,26.6931818 107.590909,26.6931818 C106.005682,26.6931818 104.584517,26.3181818 103.327415,25.5681818 C102.070313,24.8181818 101.077415,23.7272727 100.348722,22.2954545 C99.6200284,20.8636364 99.2556818,19.125 99.2556818,17.0795455 C99.2556818,15.0681818 99.609375,13.3146307 100.316761,11.818892 C101.024148,10.3231534 102.008523,9.1640625 103.269886,8.34161932 C104.53125,7.51917614 105.988636,7.10795455 107.642045,7.10795455 C108.920455,7.10795455 109.93679,7.31889205 110.691051,7.74076705 C111.445313,8.16264205 112.024858,8.63991477 112.429688,9.17258523 C112.834517,9.70525568 113.147727,10.1420455 113.369318,10.4829545 L113.676136,10.4829545 L113.676136,7.36363636 L116.590909,7.36363636 L116.590909,27.5625 C116.590909,29.25 116.209517,30.6242898 115.446733,31.6853693 C114.683949,32.7464489 113.661222,33.5262784 112.378551,34.024858 C111.095881,34.5234375 109.670455,34.7727273 108.102273,34.7727273 Z M108,23.9829545 C109.210227,23.9829545 110.232955,23.7059659 111.068182,23.1519886 C111.903409,22.5980114 112.538352,21.8011364 112.973011,20.7613636 C113.40767,19.7215909 113.625,18.4772727 113.625,17.0284091 C113.625,15.6136364 113.411932,14.3650568 112.985795,13.2826705 C112.559659,12.2002841 111.928977,11.3522727 111.09375,10.7386364 C110.258523,10.125 109.227273,9.81818182 108,9.81818182 C106.721591,9.81818182 105.658381,10.1420455 104.810369,10.7897727 C103.962358,11.4375 103.327415,12.3068182 102.90554,13.3977273 C102.483665,14.4886364 102.272727,15.6988636 102.272727,17.0284091 C102.272727,18.3920455 102.487926,19.5958807 102.918324,20.6399148 C103.348722,21.6839489 103.987926,22.5021307 104.835938,23.0944602 C105.683949,23.6867898 106.738636,23.9829545 108,23.9829545 Z" id="Shape"></path>
            <path d="M130.346591,27.4090909 C128.454545,27.4090909 126.824574,26.9893466 125.456676,26.149858 C124.088778,25.3103693 123.036222,24.134233 122.299006,22.6214489 C121.56179,21.1086648 121.193182,19.3465909 121.193182,17.3352273 C121.193182,15.3238636 121.56179,13.5490057 122.299006,12.0106534 C123.036222,10.4723011 124.067472,9.27059659 125.392756,8.40553977 C126.71804,7.54048295 128.267045,7.10795455 130.039773,7.10795455 C131.0625,7.10795455 132.072443,7.27840909 133.069602,7.61931818 C134.066761,7.96022727 134.974432,8.51207386 135.792614,9.27485795 C136.610795,10.037642 137.262784,11.0454545 137.74858,12.2982955 C138.234375,13.5511364 138.477273,15.09375 138.477273,16.9261364 L138.477273,18.2045455 L123.340909,18.2045455 L123.340909,15.5965909 L135.409091,15.5965909 C135.409091,14.4886364 135.189631,13.5 134.75071,12.6306818 C134.31179,11.7613636 133.689631,11.0752841 132.884233,10.5724432 C132.078835,10.0696023 131.130682,9.81818182 130.039773,9.81818182 C128.838068,9.81818182 127.800426,10.1143466 126.926847,10.7066761 C126.053267,11.2990057 125.382102,12.0681818 124.913352,13.0142045 C124.444602,13.9602273 124.210227,14.9744318 124.210227,16.0568182 L124.210227,17.7954545 C124.210227,19.2784091 124.46804,20.5333807 124.983665,21.5603693 C125.49929,22.587358 126.21733,23.3671875 127.137784,23.899858 C128.058239,24.4325284 129.127841,24.6988636 130.346591,24.6988636 C131.139205,24.6988636 131.857244,24.5859375 132.50071,24.3600852 C133.144176,24.134233 133.700284,23.7933239 134.169034,23.337358 C134.637784,22.881392 135,22.3125 135.255682,21.6306818 L138.170455,22.4488636 C137.863636,23.4375 137.348011,24.3046875 136.62358,25.0504261 C135.899148,25.7961648 135.004261,26.3757102 133.93892,26.7890625 C132.87358,27.2024148 131.676136,27.4090909 130.346591,27.4090909 Z" id="Path"></path>
            <path d="M143.079545,27 L143.079545,7.36363636 L145.994318,7.36363636 L145.994318,10.3295455 L146.198864,10.3295455 C146.556818,9.35795455 147.204545,8.56960227 148.142045,7.96448864 C149.079545,7.359375 150.136364,7.05681818 151.3125,7.05681818 C151.534091,7.05681818 151.81108,7.06107955 152.143466,7.06960227 C152.475852,7.078125 152.727273,7.09090909 152.897727,7.10795455 L152.897727,10.1761364 C152.795455,10.1505682 152.56321,10.1100852 152.200994,10.0546875 C151.838778,9.99928977 151.457386,9.97159091 151.056818,9.97159091 C150.102273,9.97159091 149.252131,10.1697443 148.506392,10.5660511 C147.760653,10.962358 147.172585,11.5078125 146.742188,12.2024148 C146.31179,12.897017 146.096591,13.6875 146.096591,14.5738636 L146.096591,27 L143.079545,27 Z" id="Path"></path>
            <path d="M184.909091,9 C184.627841,8.13920455 184.259233,7.36576705 183.803267,6.6796875 C183.347301,5.99360795 182.806108,5.40767045 182.179688,4.921875 C181.553267,4.43607955 180.84375,4.06534091 180.051136,3.80965909 C179.258523,3.55397727 178.389205,3.42613636 177.443182,3.42613636 C175.892045,3.42613636 174.481534,3.82670455 173.211648,4.62784091 C171.941761,5.42897727 170.931818,6.609375 170.181818,8.16903409 C169.431818,9.72869318 169.056818,11.6420455 169.056818,13.9090909 C169.056818,16.1761364 169.43608,18.0894886 170.194602,19.6491477 C170.953125,21.2088068 171.980114,22.3892045 173.275568,23.1903409 C174.571023,23.9914773 176.028409,24.3920455 177.647727,24.3920455 C179.147727,24.3920455 180.470881,24.0703125 181.617188,23.4268466 C182.763494,22.7833807 183.658381,21.8714489 184.301847,20.6910511 C184.945313,19.5106534 185.267045,18.1193182 185.267045,16.5170455 L186.238636,16.7215909 L178.363636,16.7215909 L178.363636,13.9090909 L188.335227,13.9090909 L188.335227,16.7215909 C188.335227,18.8778409 187.877131,20.7528409 186.960938,22.3465909 C186.044744,23.9403409 184.783381,25.1740057 183.176847,26.0475852 C181.570313,26.9211648 179.727273,27.3579545 177.647727,27.3579545 C175.329545,27.3579545 173.294744,26.8125 171.543324,25.7215909 C169.791903,24.6306818 168.428267,23.0795455 167.452415,21.0681818 C166.476563,19.0568182 165.988636,16.6704545 165.988636,13.9090909 C165.988636,11.8380682 166.267756,9.97372159 166.825994,8.31605114 C167.384233,6.65838068 168.174716,5.24573864 169.197443,4.078125 C170.22017,2.91051136 171.430398,2.015625 172.828125,1.39346591 C174.225852,0.771306818 175.764205,0.460227273 177.443182,0.460227273 C178.823864,0.460227273 180.112926,0.666903409 181.310369,1.08025568 C182.507813,1.49360795 183.577415,2.07741477 184.519176,2.83167614 C185.460938,3.5859375 186.247159,4.48508523 186.877841,5.52911932 C187.508523,6.57315341 187.943182,7.73011364 188.181818,9 L184.909091,9 Z" id="Path"></path>
            <path d="M193.346591,27 L193.346591,7.36363636 L196.261364,7.36363636 L196.261364,10.3295455 L196.465909,10.3295455 C196.823864,9.35795455 197.471591,8.56960227 198.409091,7.96448864 C199.346591,7.359375 200.403409,7.05681818 201.579545,7.05681818 C201.801136,7.05681818 202.078125,7.06107955 202.410511,7.06960227 C202.742898,7.078125 202.994318,7.09090909 203.164773,7.10795455 L203.164773,10.1761364 C203.0625,10.1505682 202.830256,10.1100852 202.46804,10.0546875 C202.105824,9.99928977 201.724432,9.97159091 201.323864,9.97159091 C200.369318,9.97159091 199.519176,10.1697443 198.773438,10.5660511 C198.027699,10.962358 197.439631,11.5078125 197.009233,12.2024148 C196.578835,12.897017 196.363636,13.6875 196.363636,14.5738636 L196.363636,27 L193.346591,27 Z" id="Path"></path>
            <path d="M214.721591,27.4090909 C212.948864,27.4090909 211.395597,26.9872159 210.06179,26.1434659 C208.727983,25.2997159 207.68821,24.1193182 206.942472,22.6022727 C206.196733,21.0852273 205.823864,19.3125 205.823864,17.2840909 C205.823864,15.2386364 206.196733,13.453125 206.942472,11.9275568 C207.68821,10.4019886 208.727983,9.21732955 210.06179,8.37357955 C211.395597,7.52982955 212.948864,7.10795455 214.721591,7.10795455 C216.494318,7.10795455 218.047585,7.52982955 219.381392,8.37357955 C220.715199,9.21732955 221.754972,10.4019886 222.50071,11.9275568 C223.246449,13.453125 223.619318,15.2386364 223.619318,17.2840909 C223.619318,19.3125 223.246449,21.0852273 222.50071,22.6022727 C221.754972,24.1193182 220.715199,25.2997159 219.381392,26.1434659 C218.047585,26.9872159 216.494318,27.4090909 214.721591,27.4090909 Z M214.721591,24.6988636 C216.068182,24.6988636 217.176136,24.3536932 218.045455,23.6633523 C218.914773,22.9730114 219.558239,22.0653409 219.975852,20.9403409 C220.393466,19.8153409 220.602273,18.5965909 220.602273,17.2840909 C220.602273,15.9715909 220.393466,14.7485795 219.975852,13.6150568 C219.558239,12.4815341 218.914773,11.5653409 218.045455,10.8664773 C217.176136,10.1676136 216.068182,9.81818182 214.721591,9.81818182 C213.375,9.81818182 212.267045,10.1676136 211.397727,10.8664773 C210.528409,11.5653409 209.884943,12.4815341 209.46733,13.6150568 C209.049716,14.7485795 208.840909,15.9715909 208.840909,17.2840909 C208.840909,18.5965909 209.049716,19.8153409 209.46733,20.9403409 C209.884943,22.0653409 210.528409,22.9730114 211.397727,23.6633523 C212.267045,24.3536932 213.375,24.6988636 214.721591,24.6988636 Z" id="Shape"></path>
            <path d="M240.596591,18.9715909 L240.596591,7.36363636 L243.613636,7.36363636 L243.613636,27 L240.596591,27 L240.596591,23.6761364 L240.392045,23.6761364 C239.931818,24.6732955 239.215909,25.5191761 238.244318,26.2137784 C237.272727,26.9083807 236.045455,27.2556818 234.5625,27.2556818 C233.335227,27.2556818 232.244318,26.9850852 231.289773,26.443892 C230.335227,25.9026989 229.585227,25.084517 229.039773,23.9893466 C228.494318,22.8941761 228.221591,21.5113636 228.221591,19.8409091 L228.221591,7.36363636 L231.238636,7.36363636 L231.238636,19.6363636 C231.238636,21.0681818 231.641335,22.2102273 232.446733,23.0625 C233.252131,23.9147727 234.28125,24.3409091 235.534091,24.3409091 C236.284091,24.3409091 237.049006,24.1491477 237.828835,23.765625 C238.608665,23.3821023 239.264915,22.7940341 239.797585,22.0014205 C240.330256,21.2088068 240.596591,20.1988636 240.596591,18.9715909 Z" id="Path"></path>
            <path d="M249.136364,34.3636364 L249.136364,7.36363636 L252.051136,7.36363636 L252.051136,10.4829545 L252.409091,10.4829545 C252.630682,10.1420455 252.939631,9.70525568 253.335938,9.17258523 C253.732244,8.63991477 254.303267,8.16264205 255.049006,7.74076705 C255.794744,7.31889205 256.806818,7.10795455 258.085227,7.10795455 C259.738636,7.10795455 261.196023,7.52130682 262.457386,8.34801136 C263.71875,9.17471591 264.703125,10.3465909 265.410511,11.8636364 C266.117898,13.3806818 266.471591,15.1704545 266.471591,17.2329545 C266.471591,19.3125 266.117898,21.1129261 265.410511,22.634233 C264.703125,24.1555398 263.723011,25.3316761 262.47017,26.162642 C261.21733,26.993608 259.772727,27.4090909 258.136364,27.4090909 C256.875,27.4090909 255.865057,27.1981534 255.106534,26.7762784 C254.348011,26.3544034 253.764205,25.8728693 253.355114,25.3316761 C252.946023,24.790483 252.630682,24.3409091 252.409091,23.9829545 L252.153409,23.9829545 L252.153409,34.3636364 L249.136364,34.3636364 Z M252.102273,17.1818182 C252.102273,18.6647727 252.319602,19.9708807 252.754261,21.100142 C253.18892,22.2294034 253.823864,23.1115057 254.659091,23.7464489 C255.494318,24.381392 256.517045,24.6988636 257.727273,24.6988636 C258.988636,24.6988636 260.043324,24.3643466 260.891335,23.6953125 C261.739347,23.0262784 262.378551,22.1228693 262.808949,20.9850852 C263.239347,19.8473011 263.454545,18.5795455 263.454545,17.1818182 C263.454545,15.8011364 263.243608,14.5546875 262.821733,13.4424716 C262.399858,12.3302557 261.764915,11.4481534 260.916903,10.7961648 C260.068892,10.1441761 259.005682,9.81818182 257.727273,9.81818182 C256.5,9.81818182 255.46875,10.1271307 254.633523,10.7450284 C253.798295,11.3629261 253.167614,12.2237216 252.741477,13.3274148 C252.315341,14.431108 252.102273,15.7159091 252.102273,17.1818182 Z" id="Shape"></path>
        </g>
    </g>
</svg>