<?xml version="1.0" encoding="UTF-8"?>
<svg width="304px" height="117px" viewBox="0 0 304 117" version="1.1" xmlns="http://www.w3.org/2000/svg" xmlns:xlink="http://www.w3.org/1999/xlink">
    <title>Slice</title>
    <defs>
        <circle id="path-1" cx="37.5" cy="37.5" r="32.37384"></circle>
        <circle id="path-3" cx="37.5" cy="37.5" r="32.37384"></circle>
        <circle id="path-5" cx="37.5" cy="37.5" r="32.37384"></circle>
        <circle id="path-7" cx="37.5" cy="37.5" r="32.37384"></circle>
        <circle id="path-9" cx="37.5" cy="37.5" r="32.37384"></circle>
        <circle id="path-11" cx="37.5" cy="37.5" r="32.37384"></circle>
        <circle id="path-13" cx="37.5" cy="37.5" r="32.37384"></circle>
        <circle id="path-15" cx="37.5" cy="37.5" r="32.37384"></circle>
        <circle id="path-17" cx="37.5" cy="37.5" r="32.37384"></circle>
        <circle id="path-19" cx="37.5" cy="37.5" r="32.37384"></circle>
        <circle id="path-21" cx="37.5" cy="37.5" r="32.37384"></circle>
        <circle id="path-23" cx="37.5" cy="37.5" r="32.37384"></circle>
        <circle id="path-25" cx="37.5" cy="37.5" r="32.37384"></circle>
    </defs>
    <g id="Page-1" stroke="none" stroke-width="1" fill="none" fill-rule="evenodd">
        <g id="clark" transform="translate(209, 0)">
            <circle id="Outter_Ring_2_" fill="#000000" fill-rule="nonzero" cx="47" cy="47" r="47"></circle>
            <path d="M47,2.05263158 C71.8421053,2.05263158 91.9473684,22.1578947 91.9473684,47 C91.9473684,71.8421053 71.8421053,91.9473684 47,91.9473684 C22.1578947,91.9473684 2.05263158,71.8421053 2.05263158,47 C2.05263158,22.1578947 22.1578947,2.05263158 47,2.05263158 M47,1 C21.6315789,1 1,21.6315789 1,47 C1,72.3684211 21.6315789,93 47,93 C72.3684211,93 93,72.3684211 93,47 C93,21.6315789 72.3684211,1 47,1" id="Thicker_White_border_2_" fill="#FFFFFF" fill-rule="nonzero"></path>
            <circle id="CENTER_RING_FILL_2_" fill="#FFFFFF" fill-rule="nonzero" transform="translate(47.2562, 46.6576) rotate(-80.781) translate(-47.2562, -46.6576)" cx="47.2561542" cy="46.6575772" r="31.9977679"></circle>
            <g id="Center_Organic_rev_2_-Clipped" transform="translate(11, 8)">
                <mask id="mask-2" fill="white">
                    <use xlink:href="#path-1" transform="translate(37.5, 37.5) rotate(-80.008) translate(-37.5, -37.5)"></use>
                </mask>
                <g id="SVGID_1_" transform="translate(37.5, 37.5) rotate(-80.008) translate(-37.5, -37.5)"></g>
                <g id="Center_Organic_rev_2_" mask="url(#mask-2)" stroke="#000000">
                    <g transform="translate(34.0183, 18.6121)" id="Path">
                        <path d="M3.27251208,40.101789 C3.27251208,40.101789 0.452855045,34.9846336 0.0351280768,29.554183 C-0.27816715,25.6902086 1.60160421,22.7661198 1.81046769,19.842031 C2.12376292,15.5603296 -1.74021154,13.2628312 1.18387724,0.313295226 L7.86750873,0.104431742 C7.86750873,0.104431742 6.71875957,6.37033627 6.09216912,9.71215201 C5.25671518,14.4115804 7.55421351,17.6489644 7.86750873,20.8863484 C8.2852357,24.9591864 3.79467079,25.1680498 2.95921686,29.136456 C2.3326264,32.2694083 2.75035337,36.9688367 3.27251208,40.101789 L3.27251208,40.101789 Z" stroke-width="0.6654" fill="#FFFFFF" fill-rule="nonzero"></path>
                        <path d="M3.58580731,0 C3.58580731,0 3.48137557,3.86397446 3.0636486,8.25010763 C2.64592163,12.3229456 4.52569299,17.1268057 4.42126124,20.1553262 C4.3168295,22.8705515 2.54148989,24.0193007 1.91489943,27.5699799 C1.28830898,31.3295226 2.3326264,37.0732684 3.16808034,39.1619033" stroke-width="0.4491" fill="none"></path>
                    </g>
                </g>
            </g>
            <g id="_x34__pm_oragnic_rev_2_-Clipped" transform="translate(11, 8)">
                <mask id="mask-4" fill="white">
                    <use xlink:href="#path-3" transform="translate(37.5, 37.5) rotate(-80.008) translate(-37.5, -37.5)"></use>
                </mask>
                <g id="SVGID_3_" transform="translate(37.5, 37.5) rotate(-80.008) translate(-37.5, -37.5)"></g>
                <g id="_x34__pm_oragnic_rev_2_" mask="url(#mask-4)" stroke="#000000">
                    <g transform="translate(41.0504, 15.0614)" id="Path">
                        <path d="M26.1079355,36.028951 C26.1079355,36.028951 25.5857768,32.37384 24.3325959,28.5098656 C23.9148689,27.1522529 23.2882785,24.7503229 22.1395293,23.079415 C20.259758,20.259758 15.3514661,17.2312374 13.6805582,14.2027169 C11.9052186,10.9653329 11.3830599,6.37033627 5.74374581,0 L0,3.86397446 C0,3.86397446 3.65511097,6.99692672 5.43045059,9.39885679 C7.62351717,12.2185138 8.14567588,16.18692 10.3387425,18.3799866 C14.7248756,22.8705515 16.9179422,22.0350976 19.6331675,24.5414594 C22.2439611,26.9433895 24.7503229,33.1048622 26.1079355,36.028951 L26.1079355,36.028951 Z" stroke-width="0.6654" fill="#FFFFFF" fill-rule="nonzero"></path>
                        <path d="M3.13295226,2.61079355 C3.13295226,2.61079355 6.99692672,5.2215871 8.66783459,8.98112982 C10.0254472,12.0096503 10.8609012,15.4558978 13.2628312,17.6489644 C15.5603296,19.6331675 18.4844183,21.6173706 20.5730532,23.497142 C22.7661198,25.4813451 24.9591864,32.37384 25.6902086,34.5669066" stroke-width="0.4491" fill="none"></path>
                    </g>
                </g>
            </g>
            <g id="_x37__pm_oragnic_rev_2_-Clipped" transform="translate(11, 8)">
                <mask id="mask-6" fill="white">
                    <use xlink:href="#path-5" transform="translate(37.5, 37.5) rotate(-80.008) translate(-37.5, -37.5)"></use>
                </mask>
                <g id="SVGID_5_" transform="translate(37.5, 37.5) rotate(-80.008) translate(-37.5, -37.5)"></g>
                <g id="_x37__pm_oragnic_rev_2_" mask="url(#mask-6)" stroke="#000000">
                    <g transform="translate(7.7367, 15.0614)" id="Path">
                        <path d="M0,36.028951 C0,36.028951 0.52215871,32.37384 1.77533962,28.5098656 C2.19306658,27.1522529 2.81965704,24.7503229 3.9684062,23.079415 C5.84817756,20.259758 10.7564694,17.2312374 12.4273773,14.2027169 C14.2027169,10.9653329 14.7248756,6.37033627 20.3641897,0 L26.1079355,3.86397446 C26.1079355,3.86397446 22.4528245,6.99692672 20.6774849,9.39885679 C18.4844183,12.2185138 17.9622596,16.18692 15.7691931,18.3799866 C11.3830599,22.8705515 9.1899933,22.0350976 6.47476801,24.5414594 C3.86397446,26.9433895 1.46204439,33.1048622 0,36.028951 L0,36.028951 Z" stroke-width="0.6654" fill="#FFFFFF" fill-rule="nonzero"></path>
                        <path d="M23.079415,2.61079355 C23.079415,2.61079355 19.2154405,5.2215871 17.5445327,8.98112982 C16.18692,12.0096503 15.3514661,15.4558978 12.949536,17.6489644 C10.6520377,19.6331675 7.72794891,21.6173706 5.63931407,23.497142 C3.44624749,25.4813451 1.25318091,32.37384 0.52215871,34.5669066" stroke-width="0.4491" fill="none"></path>
                    </g>
                </g>
            </g>
            <g id="Upper_Left_organic_2_-Clipped" transform="translate(11, 8)">
                <mask id="mask-8" fill="white">
                    <use xlink:href="#path-7" transform="translate(37.5, 37.5) rotate(-80.008) translate(-37.5, -37.5)"></use>
                </mask>
                <g id="SVGID_7_" transform="translate(37.5, 37.5) rotate(-80.008) translate(-37.5, -37.5)"></g>
                <g id="Upper_Left_organic_2_" mask="url(#mask-8)" stroke="#000000">
                    <g transform="translate(-9.1813, 7.6468)" id="Path">
                        <path d="M0.417726968,13.9938534 C0.417726968,13.9938534 3.44624749,10.4431742 8.45897111,8.45897111 C12.1140821,6.99692672 17.2312374,8.14567588 20.4686214,6.89249498 C23.9148689,5.53488233 27.8832751,1.35761265 36.2378145,0 L37.9087224,5.9526093 C37.9087224,5.9526093 34.6713384,6.57919975 31.8516813,7.31022195 C28.3010021,8.25010763 26.734526,9.60772027 23.6015737,10.129879 C19.5287358,10.8609012 13.6805582,10.9653329 9.60772027,11.2786281 C6.57919975,11.5919234 3.237384,12.6362408 0.417726968,13.9938534 Z" stroke-width="0.6654" fill="#FFFFFF" fill-rule="nonzero"></path>
                        <path d="M37.4909954,3.65511097 C37.4909954,3.65511097 34.4624749,3.65511097 30.3896369,5.32601885 C26.0035038,7.10135846 22.661688,8.66783459 19.6331675,9.39885679 C16.9179422,10.0254472 14.3071487,9.1899933 10.7564694,9.60772027 C6.99692672,10.0254472 1.77533962,12.7406725 0,14.0982852" stroke-width="0.4491" fill="none"></path>
                    </g>
                </g>
            </g>
            <g id="Upper_Right_organic_2_-Clipped" transform="translate(11, 8)">
                <mask id="mask-10" fill="white">
                    <use xlink:href="#path-9" transform="translate(37.5, 37.5) rotate(-80.008) translate(-37.5, -37.5)"></use>
                </mask>
                <g id="SVGID_9_" transform="translate(37.5, 37.5) rotate(-80.008) translate(-37.5, -37.5)"></g>
                <g id="Upper_Right_organic_2_" mask="url(#mask-10)" stroke="#000000">
                    <g transform="translate(46.1675, 7.6468)" id="Path">
                        <path d="M37.5954272,13.9938534 C37.5954272,13.9938534 34.5669066,10.4431742 29.554183,8.45897111 C25.899072,6.99692672 20.7819167,8.14567588 17.5445327,6.89249498 C14.0982852,5.53488233 10.129879,1.35761265 1.77533962,0 L0,5.9526093 C0,5.9526093 3.237384,6.57919975 6.05704104,7.31022195 C9.60772027,8.25010763 11.1741964,9.60772027 14.3071487,10.129879 C18.3799866,10.8609012 24.2281642,10.9653329 28.3010021,11.2786281 C31.5383861,11.5919234 34.7757701,12.6362408 37.5954272,13.9938534 L37.5954272,13.9938534 Z" stroke-width="0.6654" fill="#FFFFFF" fill-rule="nonzero"></path>
                        <path d="M0.626590453,3.65511097 C0.626590453,3.65511097 3.65511097,3.65511097 7.72794891,5.32601885 C12.1140821,7.10135846 15.4558978,8.66783459 18.4844183,9.39885679 C21.1996436,10.0254472 23.8104372,9.1899933 27.3611164,9.60772027 C31.1206591,10.0254472 36.3422462,12.7406725 38.1175859,14.0982852" stroke-width="0.4491" fill="none"></path>
                    </g>
                </g>
            </g>
            <g id="Clipped" transform="translate(11, 8)">
                <mask id="mask-12" fill="white">
                    <use xlink:href="#path-11" transform="translate(37.5, 37.5) rotate(-80.008) translate(-37.5, -37.5)"></use>
                </mask>
                <g id="SVGID_11_" transform="translate(37.5, 37.5) rotate(-80.008) translate(-37.5, -37.5)"></g>
                <polygon id="Path" fill="#000000" fill-rule="nonzero" mask="url(#mask-12)" points="69.9779774 33.2325682 47.5251528 12.659515 43.6611784 17.7766704"></polygon>
            </g>
            <g id="Clipped" transform="translate(11, 8)">
                <mask id="mask-14" fill="white">
                    <use xlink:href="#path-13" transform="translate(37.5, 37.5) rotate(-80.008) translate(-37.5, -37.5)"></use>
                </mask>
                <g id="SVGID_13_" transform="translate(37.5, 37.5) rotate(-80.008) translate(-37.5, -37.5)"></g>
                <polygon id="Path" fill="#000000" fill-rule="nonzero" mask="url(#mask-14)" points="50.1359464 48.4796026 43.3478832 15.5836038 36.6642517 17.6722386"></polygon>
            </g>
            <g id="Clipped" transform="translate(11, 8)">
                <mask id="mask-16" fill="white">
                    <use xlink:href="#path-15" transform="translate(37.5, 37.5) rotate(-80.008) translate(-37.5, -37.5)"></use>
                </mask>
                <g id="SVGID_15_" transform="translate(37.5, 37.5) rotate(-80.008) translate(-37.5, -37.5)"></g>
                <polygon id="Path" fill="#000000" fill-rule="nonzero" mask="url(#mask-16)" points="24.8634648 48.4796026 31.651528 15.5836038 38.3351595 17.7766704"></polygon>
            </g>
            <g id="Clipped" transform="translate(11, 8)">
                <mask id="mask-18" fill="white">
                    <use xlink:href="#path-17" transform="translate(37.5, 37.5) rotate(-80.008) translate(-37.5, -37.5)"></use>
                </mask>
                <g id="SVGID_17_" transform="translate(37.5, 37.5) rotate(-80.008) translate(-37.5, -37.5)"></g>
                <polygon id="Path" fill="#000000" fill-rule="nonzero" mask="url(#mask-18)" points="5.02143381 33.2325682 27.5786901 12.659515 31.3382328 17.7766704"></polygon>
            </g>
            <g id="Upper_R_spike_2_-Clipped" transform="translate(11, 8)">
                <mask id="mask-20" fill="white">
                    <use xlink:href="#path-19" transform="translate(37.5, 37.5) rotate(-80.008) translate(-37.5, -37.5)"></use>
                </mask>
                <g id="SVGID_19_" transform="translate(37.5, 37.5) rotate(-80.008) translate(-37.5, -37.5)"></g>
                <polygon id="Upper_R_spike_2_" fill="#000000" fill-rule="nonzero" mask="url(#mask-20)" points="77.4970628 7.85565488 47.6295846 6.81133746 47.9428798 12.7639468"></polygon>
            </g>
            <g id="Upper_L_Spike_2_-Clipped" transform="translate(11, 8)">
                <mask id="mask-22" fill="white">
                    <use xlink:href="#path-21" transform="translate(37.5, 37.5) rotate(-80.008) translate(-37.5, -37.5)"></use>
                </mask>
                <g id="SVGID_21_" transform="translate(37.5, 37.5) rotate(-80.008) translate(-37.5, -37.5)"></g>
                <polygon id="Upper_L_Spike_2_" fill="#000000" fill-rule="nonzero" mask="url(#mask-22)" points="-2.39321988 7.75122314 27.4742584 6.70690572 27.1609631 12.659515"></polygon>
            </g>
            <g id="Clipped" transform="translate(11, 8)">
                <mask id="mask-24" fill="white">
                    <use xlink:href="#path-23" transform="translate(37.5, 37.5) rotate(-80.008) translate(-37.5, -37.5)"></use>
                </mask>
                <g id="SVGID_23_" transform="translate(37.5, 37.5) rotate(-80.008) translate(-37.5, -37.5)"></g>
                <g id="Group" mask="url(#mask-24)">
                    <g transform="translate(18.8064, 35.0079)">
                        <path d="M18.6932818,30.2852052 L16.3957835,30.2852052 C16.3957835,30.2852052 15.5603296,30.1807735 15.5603296,29.4497513 C15.5603296,29.0320243 15.7691931,28.9275926 15.7691931,28.9275926 L2.40193007,30.1807735 L0,28.6142973 L0,4.80386014 L37.2821319,4.80386014 L37.2821319,28.6142973 L34.8802019,30.1807735 L21.6173706,28.9275926 C21.6173706,28.9275926 21.8262341,29.0320243 21.8262341,29.4497513 C21.8262341,30.2852052 20.9907802,30.2852052 20.9907802,30.2852052 L18.6932818,30.2852052 Z" id="Path" stroke="none" fill="#000000" fill-rule="nonzero"></path>
                        <path d="M18.6932818,28.1965704 C18.6932818,28.1965704 16.3957835,26.8389577 13.0539678,26.8389577 C9.71215201,26.8389577 8.35453937,28.4054338 4.90829188,28.4054338 C1.77533962,28.4054338 1.25318091,27.7788434 1.25318091,27.7788434 L1.25318091,3.55067923 C1.25318091,3.55067923 1.46204439,3.75954272 2.29749833,3.9684062 L35.0890653,3.9684062 C35.9245193,3.75954272 36.1333828,3.55067923 36.1333828,3.55067923 L36.1333828,27.7788434 C36.1333828,27.7788434 35.6112241,28.4054338 32.4782718,28.4054338 C29.0320243,28.4054338 27.6744117,26.8389577 24.3325959,26.8389577 C20.9907802,26.8389577 18.6932818,28.1965704 18.6932818,28.1965704" id="SM_bottom_page_2_" stroke="#000000" stroke-width="0.693" fill="#FFFFFF" fill-rule="nonzero" stroke-linecap="round" stroke-linejoin="round"></path>
                        <path d="M18.6932818,25.6902086 C18.6932818,25.6902086 20.9907802,24.3325959 24.1237324,24.3325959 C27.3611164,24.3325959 28.5098656,25.7946403 31.1206591,25.7946403 C33.8358844,25.7946403 34.1491797,25.1680498 34.1491797,25.1680498 L34.1491797,0.939885679 C34.1491797,0.939885679 33.627021,1.56647613 30.9117957,1.56647613 C27.8832751,1.56647613 26.9433895,0 23.7060055,0 C20.6774849,0 18.6932818,1.35761265 18.6932818,1.35761265 C18.6932818,1.35761265 16.7090787,0 13.6805582,0 C10.4431742,0 9.50328853,1.56647613 6.47476801,1.56647613 C3.75954272,1.56647613 3.237384,0.939885679 3.237384,0.939885679 L3.237384,25.1680498 C3.237384,25.1680498 3.44624749,25.7946403 6.26590453,25.7946403 C8.87669808,25.7946403 10.0254472,24.3325959 13.2628312,24.3325959 C16.3957835,24.3325959 18.6932818,25.6902086 18.6932818,25.6902086" id="SM_top_page_2_" stroke="#000000" stroke-width="0.693" fill="#FFFFFF" fill-rule="nonzero" stroke-linecap="round" stroke-linejoin="round"></path>
                        <line x1="18.6932818" y1="25.6902086" x2="18.6932818" y2="28.1965704" id="SM_spine_2_" stroke="#000000" stroke-width="0.6971" fill="none" stroke-linecap="round" stroke-linejoin="round"></line>
                        <path d="M12.0096503,5.11715536 C12.0096503,5.32601885 12.1140821,6.05704104 12.1140821,6.68363149 L11.6963551,6.68363149 C11.5919234,6.16147278 11.3830599,5.9526093 11.2786281,5.74374581 C11.0697647,5.53488233 10.6520377,5.53488233 9.9210155,5.53488233 L9.29442505,5.53488233 C8.77226634,5.53488233 8.77226634,5.53488233 8.77226634,5.9526093 L8.77226634,8.25010763 L10.0254472,8.25010763 C11.0697647,8.25010763 11.0697647,8.14567588 11.2786281,7.41465369 L11.6963551,7.41465369 L11.6963551,9.50328853 L11.2786281,9.50328853 C11.1741964,8.77226634 11.1741964,8.66783459 10.0254472,8.66783459 L8.77226634,8.66783459 L8.77226634,10.2343107 C8.77226634,11.3830599 8.87669808,11.3830599 10.0254472,11.4874916 L10.0254472,11.8007869 L6.37033627,11.8007869 L6.37033627,11.4874916 C7.31022195,11.3830599 7.41465369,11.3830599 7.41465369,10.2343107 L7.41465369,6.57919975 C7.41465369,5.43045059 7.31022195,5.43045059 6.37033627,5.32601885 L6.37033627,5.01272362 C6.37033627,5.11715536 12.0096503,5.11715536 12.0096503,5.11715536 M16.5002153,5.11715536 L16.5002153,5.43045059 C15.5603296,5.53488233 15.4558978,5.53488233 15.4558978,6.68363149 L15.4558978,10.3387425 C15.4558978,11.4874916 15.5603296,11.4874916 16.5002153,11.5919234 L16.5002153,11.9052186 L12.949536,11.9052186 L12.949536,11.5919234 C13.8894217,11.4874916 13.9938534,11.4874916 13.9938534,10.3387425 L13.9938534,6.68363149 C13.9938534,5.53488233 13.8894217,5.53488233 12.949536,5.43045059 L12.949536,5.11715536 L16.5002153,5.11715536 Z M21.3040754,5.01272362 L22.1395293,6.89249498 C22.661688,8.14567588 23.2882785,9.39885679 23.7060055,10.4431742 C24.1237324,11.3830599 24.3325959,11.4874916 25.0636181,11.4874916 L25.0636181,11.8007869 L21.8262341,11.8007869 L21.8262341,11.4874916 L22.1395293,11.4874916 C22.661688,11.3830599 22.661688,11.2786281 22.4528245,10.9653329 C22.3483928,10.6520377 22.0350976,10.0254472 21.7218024,9.50328853 L19.424304,9.50328853 C19.2154405,9.81658376 19.0065771,10.4431742 18.9021453,10.8609012 C18.6932818,11.3830599 18.7977136,11.5919234 19.3198723,11.5919234 L19.6331675,11.5919234 L19.6331675,11.9052186 L16.9179422,11.9052186 L16.9179422,11.5919234 C17.6489644,11.4874916 17.8578279,11.4874916 18.2755549,10.547606 L20.7819167,5.2215871 L21.3040754,5.01272362 Z M19.6331675,8.98112982 L21.6173706,8.98112982 L20.5730532,6.68363149 L19.6331675,8.98112982 Z M24.3325959,6.68363149 C24.3325959,5.9526093 24.4370276,5.32601885 24.4370276,4.80386014 L24.7503229,4.80386014 C24.9591864,5.01272362 25.0636181,5.11715536 25.3769133,5.11715536 L30.4940687,5.11715536 C30.8073639,5.11715536 30.9117957,5.01272362 31.1206591,4.80386014 L31.3295226,4.80386014 C31.3295226,5.2215871 31.4339544,6.05704104 31.4339544,6.68363149 L31.0162274,6.68363149 C30.9117957,6.16147278 30.7029322,5.84817756 30.5985004,5.74374581 C30.3896369,5.53488233 29.97191,5.53488233 29.2408878,5.53488233 L28.6142973,5.53488233 L28.6142973,10.3387425 C28.6142973,11.4874916 28.7187291,11.4874916 29.8674782,11.5919234 L29.8674782,11.9052186 L26.0035038,11.9052186 L26.0035038,11.5919234 C27.0478212,11.4874916 27.1522529,11.4874916 27.1522529,10.3387425 L27.1522529,5.53488233 L26.734526,5.53488233 C25.6902086,5.53488233 25.3769133,5.63931407 25.1680498,5.84817756 C25.0636181,5.9526093 24.8547546,6.26590453 24.7503229,6.78806324 C24.7503229,6.68363149 24.3325959,6.68363149 24.3325959,6.68363149 M10.7564694,14.2027169 L10.7564694,14.5160122 C9.81658376,14.6204439 9.71215201,14.6204439 9.71215201,15.7691931 L9.71215201,19.3198723 C9.71215201,19.9464627 9.81658376,20.259758 10.0254472,20.3641897 C10.2343107,20.4686214 10.6520377,20.4686214 11.0697647,20.4686214 C11.5919234,20.4686214 12.2185138,20.4686214 12.5318091,20.1553262 C12.7406725,19.9464627 12.949536,19.6331675 13.1583995,19.1110088 L13.5761265,19.2154405 C13.4716947,19.5287358 13.2628312,20.5730532 13.1583995,20.8863484 L7.31022195,20.8863484 L7.31022195,20.5730532 C8.35453937,20.4686214 8.45897111,20.4686214 8.45897111,19.3198723 L8.45897111,15.6647613 C8.45897111,14.5160122 8.35453937,14.5160122 7.41465369,14.4115804 L7.41465369,14.0982852 L10.7564694,14.0982852 L10.7564694,14.2027169 Z M16.7090787,14.2027169 L16.7090787,14.5160122 C15.7691931,14.6204439 15.6647613,14.6204439 15.6647613,15.7691931 L15.6647613,17.9622596 C15.6647613,19.6331675 16.2913518,20.5730532 17.7533962,20.5730532 C19.2154405,20.5730532 19.9464627,19.6331675 19.9464627,17.8578279 L19.9464627,17.2312374 C19.9464627,16.0824883 19.842031,15.4558978 19.842031,15.1426026 C19.7375993,14.7248756 19.424304,14.6204439 18.5888501,14.6204439 L18.5888501,14.3071487 L21.6173706,14.3071487 L21.6173706,14.6204439 C20.9907802,14.6204439 20.6774849,14.8293074 20.5730532,15.1426026 C20.5730532,15.4558978 20.4686214,16.0824883 20.4686214,17.2312374 L20.4686214,17.9622596 C20.4686214,19.0065771 20.259758,19.842031 19.5287358,20.4686214 C19.0065771,20.9907802 18.0666914,21.1996436 17.2312374,21.1996436 C16.5002153,21.1996436 15.6647613,21.0952119 15.0381709,20.6774849 C14.5160122,20.1553262 14.3071487,19.3198723 14.3071487,18.1711231 L14.3071487,15.7691931 C14.3071487,14.6204439 14.2027169,14.6204439 13.2628312,14.5160122 L13.2628312,14.2027169 L16.7090787,14.2027169 Z M25.899072,14.2027169 L25.899072,14.5160122 L25.4813451,14.5160122 C25.0636181,14.5160122 24.9591864,14.6204439 25.1680498,14.9337391 C25.2724816,15.0381709 25.899072,15.9780565 26.5256625,16.7090787 C26.9433895,16.18692 27.4655482,15.5603296 27.7788434,15.0381709 C27.9877069,14.7248756 27.9877069,14.6204439 27.5699799,14.6204439 L27.1522529,14.6204439 L27.1522529,14.3071487 L29.97191,14.3071487 L29.97191,14.6204439 C29.136456,14.7248756 29.0320243,14.7248756 28.4054338,15.3514661 C27.9877069,15.7691931 27.4655482,16.3957835 26.8389577,17.2312374 L28.9275926,19.9464627 C29.4497513,20.6774849 29.6586148,20.6774849 30.4940687,20.7819167 L30.4940687,21.0952119 L26.9433895,21.0952119 L26.9433895,20.7819167 L27.2566847,20.7819167 C27.7788434,20.7819167 27.7788434,20.5730532 27.5699799,20.3641897 C27.4655482,20.1553262 27.0478212,19.6331675 26.0035038,18.2755549 C25.3769133,19.1110088 24.7503229,20.0508945 24.5414594,20.259758 C24.3325959,20.4686214 24.3325959,20.7819167 24.7503229,20.7819167 L25.2724816,20.7819167 L25.2724816,21.0952119 L22.2439611,21.0952119 L22.2439611,20.7819167 C22.9749833,20.6774849 23.2882785,20.6774849 23.6015737,20.259758 C23.8104372,20.0508945 24.9591864,18.6932818 25.6902086,17.7533962 L23.9148689,15.4558978 C23.3927102,14.8293074 23.2882785,14.7248756 22.4528245,14.6204439 L22.4528245,14.3071487 L25.899072,14.3071487 L25.899072,14.2027169 Z" id="Shape" stroke="none" fill="#000000" fill-rule="nonzero"></path>
                    </g>
                </g>
            </g>
            <g id="new_sun_2_x25__wider_2_-Clipped" transform="translate(11, 8)">
                <mask id="mask-26" fill="white">
                    <use xlink:href="#path-25" transform="translate(37.5, 37.5) rotate(-80.008) translate(-37.5, -37.5)"></use>
                </mask>
                <g id="SVGID_25_" transform="translate(37.5, 37.5) rotate(-80.008) translate(-37.5, -37.5)"></g>
                <ellipse id="new_sun_2_x25__wider_2_" stroke="#000000" stroke-width="0.84" fill="#FFFFFF" fill-rule="nonzero" mask="url(#mask-26)" cx="37.4997056" cy="8.79554056" rx="12.1140821" ry="10.4431742"></ellipse>
            </g>
            <g id="Center_Ring_RED_2_" transform="translate(16, 13)" stroke="#FFFFFF" stroke-width="0.79">
                <circle id="CENTER_RING_non_Organic_2_" cx="32.5" cy="32.5" r="32.5"></circle>
            </g>
            <g id="Clark_1_" transform="translate(4, 4)" fill="#FFFFFF" fill-rule="nonzero">
                <path d="M2.12608158,40.5827815 C0.850432633,41.0066225 0.531520396,41.8543046 0.531520396,43.0198675 C0.637824475,45.1390728 2.12608158,45.986755 3.82694685,45.986755 C5.95302843,45.8807947 7.22867738,44.6092715 7.22867738,42.807947 C7.22867738,41.4304636 6.5908529,40.794702 5.31520396,40.1589404 L5.31520396,39.6291391 C5.95302843,39.7350993 6.80346106,40.0529801 7.22867738,40.2649007 C7.33498146,40.6887417 7.6538937,41.8543046 7.6538937,42.807947 C7.76019778,46.410596 5.95302843,47.8940397 4.03955501,48 C1.91347342,48 0.106304079,45.986755 0,42.807947 C0,41.6423841 0.106304079,40.794702 0.212608158,40.3708609 C0.850432633,40.2649007 1.27564895,40.1589404 2.0197775,40.0529801 L2.12608158,40.5827815 Z M6.27194067,35.3907285 C7.1223733,35.602649 7.33498146,35.602649 7.44128554,35.2847682 C7.54758962,35.0728477 7.6538937,34.7549669 7.76019778,34.3311258 C7.86650185,33.8013245 7.97280593,33.1655629 7.76019778,32.8476821 C7.54758962,32.6357616 7.33498146,32.3178808 6.80346106,32 L7.01606922,31.5761589 C7.44128554,31.7880795 8.50432633,32.2119205 8.82323857,32.4238411 L7.44128554,38.5695364 L7.01606922,38.5695364 C7.22867738,37.5099338 7.1223733,37.2980132 5.95302843,37.0860927 L2.12608158,36.2384106 C0.956736712,36.0264901 0.850432633,36.0264901 0.531520396,37.0860927 L0.212608158,36.9801325 L1.06304079,33.0596026 L1.38195303,33.1655629 C1.27564895,34.2251656 1.27564895,34.3311258 2.44499382,34.5430464 L6.27194067,35.3907285 Z M10.9493201,26.5960265 L11.0556242,26.2781457 C11.2682324,25.8543046 11.1619283,25.6423841 10.6304079,25.6423841 L9.1421508,25.6423841 L8.07911001,27.7615894 C8.29171817,28.0794702 8.71693449,28.397351 9.03584672,28.8211921 C9.46106304,29.2450331 9.56736712,29.2450331 9.88627936,28.7152318 L10.0988875,28.397351 L10.4177998,28.5033113 L9.1421508,31.2582781 L8.71693449,31.1523179 C9.03584672,30.410596 9.03584672,30.1986755 8.29171817,29.3509934 L4.25216316,24.3708609 L4.35846724,23.7350993 L6.5908529,23.8410596 C8.07911001,23.9470199 9.56736712,23.9470199 10.736712,23.9470199 C11.9060569,23.9470199 12.0123609,23.8410596 12.4375773,23.205298 L12.7564895,23.3112583 L11.1619283,26.5960265 L10.9493201,26.5960265 Z M7.54758962,27.3377483 L8.39802225,25.5364238 L5.84672435,25.4304636 L7.54758962,27.3377483 Z M13.6069221,19.7086093 C14.5636588,20.4503311 14.6699629,20.4503311 15.4140915,19.7086093 L15.7330037,19.9205298 L13.1817058,22.8874172 L12.7564895,22.6754967 C13.394314,21.8278146 13.394314,21.7218543 12.4375773,20.9801325 L9.46106304,18.5430464 C8.50432633,17.8013245 8.39802225,17.8013245 7.76019778,18.5430464 L7.44128554,18.3311258 L9.77997528,15.4701987 C10.5241038,14.6225166 11.0556242,14.0927152 11.5871446,13.8807947 C12.118665,13.6688742 12.7564895,13.6688742 13.2880099,14.0927152 C14.0321384,14.7284768 14.0321384,15.6821192 13.6069221,16.6357616 C13.9258344,16.7417219 14.8825711,16.7417219 15.5203956,16.8476821 L17.2212608,16.8476821 C17.5401731,16.8476821 17.7527812,16.7417219 18.0716934,16.5298013 L18.2843016,16.7417219 L17.9653894,17.0596026 C16.7960445,18.2251656 16.3708282,18.4370861 15.5203956,18.4370861 C14.8825711,18.4370861 14.1384425,18.3311258 13.394314,18.2251656 C12.9690977,18.1192053 12.7564895,18.2251656 12.5438813,18.5430464 L12.3312732,18.7549669 L13.6069221,19.7086093 Z M12.118665,18.5430464 L12.3312732,18.2251656 C12.6501854,17.8013245 12.8627936,17.4834437 12.8627936,17.0596026 C12.9690977,16.4238411 12.6501854,15.8940397 12.2249691,15.5761589 C11.3745365,14.8344371 10.4177998,15.3642384 9.99258344,15.8940397 C9.56736712,16.4238411 9.56736712,16.4238411 9.88627936,16.7417219 L12.118665,18.5430464 Z M20.197775,13.3509934 C20.8355995,14.3046358 21.0482077,14.3046358 21.8986403,13.7748344 L22.1112485,14.0927152 L18.9221261,16.4238411 L18.7095179,16.1059603 C19.4536465,15.4701987 19.4536465,15.3642384 18.815822,14.410596 L16.5834363,11.2317881 C15.8393078,10.2781457 15.7330037,10.2781457 14.8825711,10.807947 L14.6699629,10.4900662 L17.8590853,8.1589404 L18.0716934,8.47682119 C17.3275649,9.11258278 17.3275649,9.21854305 17.9653894,10.1721854 L19.0284302,11.6556291 C19.2410383,10.9139073 19.7725587,8.68874172 19.7725587,7.8410596 C19.8788628,7.31125828 19.7725587,7.20529801 19.4536465,7.41721854 L19.0284302,7.62913907 L18.815822,7.31125828 L21.5797281,5.29801325 L21.7923362,5.61589404 C21.1545117,6.14569536 20.9419036,6.35761589 20.6229913,7.41721854 C20.3040791,8.47682119 20.091471,9.43046358 19.8788628,10.2781457 C21.2608158,10.5960265 22.7490729,10.807947 24.131026,11.0198675 C25.0877627,11.1258278 25.3003708,11.1258278 25.8318912,10.807947 L26.0444994,11.1258278 L23.9184178,12.7152318 C23.1742892,12.5033113 20.7292954,12.0794702 19.1347342,11.6556291 L20.197775,13.3509934 Z M29.8714462,2.1192053 L29.9777503,2.43708609 C29.0210136,2.75496689 29.0210136,2.86092715 29.3399258,4.02649007 L29.9777503,6.25165563 C30.5092707,7.94701987 31.4660074,8.68874172 32.8479604,8.26490066 C34.3362176,7.8410596 34.7614339,6.56953642 34.2299135,4.76821192 L34.0173053,4.02649007 C33.6983931,2.86092715 33.3794808,2.33112583 33.2731768,2.01324503 C33.0605686,1.69536424 32.7416564,1.58940397 31.8912237,1.8013245 L31.7849197,1.48344371 L34.974042,0.529801325 L35.0803461,0.847682119 C34.4425216,1.05960265 34.1236094,1.27152318 34.2299135,1.69536424 C34.2299135,2.01324503 34.3362176,2.64900662 34.7614339,3.81456954 L34.974042,4.66225166 C35.2929543,5.7218543 35.3992583,6.67549669 34.8677379,7.52317881 C34.4425216,8.1589404 33.592089,8.79470199 32.7416564,9.00662252 C31.8912237,9.21854305 30.934487,9.43046358 30.1903585,9.11258278 C29.3399258,8.90066225 28.8084054,8.1589404 28.3831891,6.88741722 L27.6390606,4.45033113 C27.3201483,3.28476821 27.1075402,3.28476821 26.1508035,3.49668874 L26.0444994,3.17880795 L29.8714462,2.1192053 Z M45.4981459,7.31125828 L44.6477132,7.31125828 L39.1199011,2.01324503 L39.2262052,4.34437086 C39.2262052,5.50993377 39.3325093,6.14569536 39.4388133,6.46357616 C39.5451174,6.88741722 39.8640297,6.99337748 40.7144623,6.99337748 L40.7144623,7.31125828 L37.3127318,7.41721854 L37.3127318,7.09933775 C37.9505562,7.09933775 38.2694685,6.88741722 38.3757726,6.46357616 C38.3757726,6.14569536 38.4820766,5.50993377 38.4820766,4.34437086 L38.3757726,2.1192053 C38.3757726,1.37748344 38.3757726,1.16556291 38.0568603,0.847682119 C37.8442522,0.635761589 37.4190358,0.529801325 36.8875155,0.529801325 L36.8875155,0.21192053 L39.2262052,0.105960265 L44.6477132,4.98013245 L44.5414091,2.96688742 C44.5414091,1.8013245 44.4351051,1.16556291 44.328801,0.847682119 C44.328801,0.529801325 44.0098888,0.42384106 43.053152,0.42384106 L43.053152,0.105960265 L46.4548826,0 L46.4548826,0.317880795 C45.8170581,0.317880795 45.4981459,0.529801325 45.3918418,0.953642384 C45.3918418,1.27152318 45.2855377,1.90728477 45.2855377,3.07284768 L45.4981459,7.31125828 Z M50.6007417,6.35761589 C50.3881335,7.52317881 50.4944376,7.62913907 51.4511743,7.94701987 L51.3448702,8.26490066 L47.4116193,7.52317881 L47.5179234,7.20529801 C48.4746601,7.31125828 48.6872682,7.31125828 48.8998764,6.0397351 L49.6440049,2.22516556 C49.8566131,1.05960265 49.750309,0.953642384 48.7935723,0.635761589 L48.7935723,0.42384106 L52.7268232,1.16556291 L52.6205192,1.48344371 C51.6637824,1.37748344 51.4511743,1.37748344 51.2385661,2.64900662 L50.6007417,6.35761589 Z M55.2781211,9.64238411 C55.1718171,7.41721854 54.9592089,4.34437086 54.8529048,3.17880795 C54.7466007,2.01324503 54.5339926,1.90728477 53.8961681,1.58940397 L54.0024722,1.27152318 L57.6168109,2.64900662 L57.5105068,2.96688742 L57.0852905,2.86092715 C56.5537701,2.75496689 56.5537701,2.86092715 56.5537701,3.28476821 C56.5537701,3.9205298 56.7663782,6.46357616 56.8726823,8.1589404 C57.6168109,7.41721854 59.5302843,5.40397351 59.9555006,4.98013245 C60.487021,4.34437086 60.487021,4.2384106 59.9555006,3.9205298 L59.6365884,3.70860927 L59.7428925,3.39072848 L62.7194067,4.55629139 L62.6131026,4.87417219 C61.6563659,4.66225166 61.5500618,4.66225166 60.5933251,5.50993377 C60.487021,5.61589404 57.723115,8.1589404 55.9159456,9.9602649 L55.2781211,9.64238411 Z M63.2509271,6.99337748 C63.8887515,5.93377483 63.8887515,5.82781457 63.0383189,5.29801325 L63.2509271,4.98013245 L68.4598269,8.37086093 C68.3535229,8.58278146 67.9283066,9.21854305 67.6093943,9.9602649 L67.184178,9.74834437 C67.3967862,9.21854305 67.3967862,8.90066225 67.2904821,8.58278146 C67.184178,8.26490066 66.8652658,8.05298013 66.2274413,7.62913907 L65.802225,7.31125828 C65.3770087,6.99337748 65.3770087,6.99337748 65.1644005,7.31125828 L63.9950556,9.21854305 L64.8454883,9.74834437 C65.802225,10.384106 65.908529,10.384106 66.4400494,9.64238411 L66.8652658,9.85430464 L65.4833127,11.9735099 L65.0580964,11.7615894 C65.3770087,10.9139073 65.3770087,10.9139073 64.4202719,10.2781457 L63.5698393,9.74834437 L62.6131026,11.2317881 C62.1878863,11.9735099 62.0815822,12.1854305 62.2941904,12.397351 C62.4004944,12.6092715 62.7194067,12.8211921 63.2509271,13.1390728 C63.7824475,13.4569536 64.3139679,13.7748344 64.7391842,13.6688742 C65.0580964,13.6688742 65.4833127,13.4569536 65.908529,13.0331126 L66.2274413,13.3509934 L64.8454883,14.7284768 L59.2113721,11.1258278 L59.4239802,10.807947 C60.3807169,11.3377483 60.487021,11.3377483 61.2311496,10.2781457 L63.2509271,6.99337748 Z M68.9913473,16.2119205 C68.1409147,17.0596026 68.1409147,17.1655629 68.7787392,17.9072848 L68.566131,18.1192053 L65.802225,15.2582781 L66.0148331,15.0463576 C66.7589617,15.7880795 66.8652658,15.7880795 67.8220025,14.9403974 L70.5859085,12.2913907 C71.4363412,11.4437086 71.4363412,11.3377483 70.7985167,10.5960265 L71.0111248,10.384106 L73.5624227,13.0331126 C74.4128554,13.8807947 74.8380717,14.410596 74.9443758,15.0463576 C75.1569839,15.6821192 74.9443758,16.2119205 74.5191595,16.7417219 C73.7750309,17.3774834 72.9245983,17.3774834 71.9678616,16.8476821 C71.8615575,17.1655629 71.6489493,18.1192053 71.5426452,18.7549669 C71.4363412,19.4966887 71.3300371,20.0264901 71.3300371,20.4503311 C71.3300371,20.7682119 71.3300371,21.0860927 71.5426452,21.2980132 L71.4363412,21.4039735 L71.1174289,21.0860927 C70.0543881,19.8145695 69.9480841,19.2847682 70.0543881,18.4370861 C70.1606922,17.8013245 70.3733004,17.0596026 70.5859085,16.4238411 C70.6922126,16 70.5859085,15.7880795 70.3733004,15.5761589 L70.0543881,15.2582781 L68.9913473,16.2119205 Z M70.3733004,14.9403974 L70.6922126,15.2582781 C71.1174289,15.6821192 71.4363412,15.8940397 71.7552534,16 C72.3930779,16.1059603 72.9245983,15.8940397 73.2435105,15.5761589 C74.0939431,14.8344371 73.6687268,13.8807947 73.1372064,13.3509934 C72.7119901,12.9271523 72.605686,12.9271523 72.2867738,13.2450331 L70.3733004,14.9403974 Z M73.7750309,21.0860927 C73.3498146,21.615894 72.7119901,22.8874172 73.4561187,24.0529801 C73.881335,24.794702 74.6254635,24.9006623 75.1569839,24.5827815 C75.7948084,24.1589404 75.9011125,23.5231788 75.6885043,22.4635762 L75.6885043,22.1456954 C75.4758962,20.9801325 75.4758962,19.8145695 76.4326329,19.2847682 C77.4956737,18.6490066 78.8776267,19.0728477 79.9406675,20.6622517 C80.1532756,20.9801325 80.3658838,21.4039735 80.4721879,21.8278146 C80.578492,22.0397351 80.578492,22.2516556 80.684796,22.3576159 C80.3658838,22.5695364 79.9406675,22.9933775 79.5154512,23.4172185 L79.1965389,22.9933775 C79.6217553,22.4635762 80.0469716,21.615894 79.5154512,20.6622517 C79.0902349,19.9205298 78.4524104,19.8145695 77.8145859,20.1324503 C77.2830655,20.4503311 77.2830655,21.0860927 77.4956737,22.0397351 L77.6019778,22.4635762 C77.8145859,23.6291391 77.8145859,24.794702 76.8578492,25.4304636 C75.6885043,26.1721854 74.2002472,25.5364238 73.1372064,23.9470199 C72.9245983,23.5231788 72.7119901,23.0993377 72.605686,22.6754967 C72.499382,22.2516556 72.3930779,22.0397351 72.3930779,21.8278146 L73.6687268,20.5562914 L73.7750309,21.0860927 Z M77.92089,29.7748344 C76.7515451,30.1986755 76.7515451,30.3046358 77.0704574,31.2582781 L76.7515451,31.3642384 L75.263288,27.6556291 L75.5822002,27.5496689 C76.0074166,28.5033113 76.1137206,28.5033113 77.2830655,28.0794702 L80.8974042,26.5960265 C82.0667491,26.1721854 82.0667491,26.0662252 81.7478368,25.1125828 L82.0667491,25.0066225 L83.5550062,28.7152318 L83.1297899,28.8211921 C82.7045735,27.8675497 82.5982695,27.8675497 81.4289246,28.2913907 L77.92089,29.7748344 Z M79.7280593,36.4503311 C78.5587145,36.6622517 78.4524104,36.7682119 78.6650185,38.0397351 L78.3461063,38.1456954 L77.4956737,33.9072848 L77.8145859,33.8013245 C78.1334981,34.9668874 78.2398022,34.9668874 79.4091471,34.7549669 L84.4054388,33.8013245 L84.2991347,33.4834437 C84.0865266,32.4238411 83.8739184,32.1059603 83.6613103,31.8940397 C83.4487021,31.7880795 83.1297899,31.6821192 82.5982695,31.5761589 L82.4919654,31.0463576 C83.342398,30.9403974 84.0865266,30.8344371 84.618047,30.8344371 L84.618047,31.0463576 C84.4054388,31.3642384 84.4054388,31.4701987 84.5117429,31.7880795 L85.5747837,37.0860927 C85.6810878,37.4039735 85.7873918,37.615894 86,37.7218543 L86,37.9337748 C85.5747837,38.0397351 84.7243511,38.2516556 83.9802225,38.4635762 L83.8739184,38.0397351 C84.4054388,37.8278146 84.7243511,37.615894 84.8306551,37.2980132 C84.9369592,37.0860927 84.9369592,36.5562914 84.8306551,35.8145695 L84.7243511,35.2847682 L79.7280593,36.4503311 Z M79.9406675,44.5033113 C78.7713226,44.5033113 78.6650185,44.6092715 78.5587145,45.7748344 L78.2398022,45.7748344 L78.3461063,41.4304636 L78.6650185,41.4304636 C78.6650185,42.5960265 78.7713226,42.7019868 80.0469716,42.7019868 L81.1100124,42.7019868 C81.4289246,42.7019868 81.5352287,42.7019868 81.7478368,42.4900662 C82.3856613,42.1721854 83.1297899,41.6423841 84.4054388,40.794702 C85.2558714,40.2649007 85.2558714,40.1589404 85.3621755,39.4172185 L85.6810878,39.4172185 L85.5747837,43.1258278 L85.2558714,43.1258278 L85.1495674,42.807947 C85.1495674,42.4900662 85.0432633,42.4900662 84.618047,42.5960265 L82.0667491,44.1854305 C82.7045735,44.6092715 83.7676143,45.2450331 84.5117429,45.6688742 C84.9369592,45.8807947 85.0432633,45.8807947 85.0432633,45.3509934 L85.1495674,44.8211921 L85.4684796,44.8211921 L85.3621755,48 L85.0432633,48 C85.0432633,47.1523179 84.9369592,47.0463576 84.0865266,46.410596 C83.4487021,45.8807947 82.9171817,45.4569536 81.8541409,44.8211921 C81.4289246,44.6092715 81.4289246,44.5033113 80.8974042,44.5033113 L79.9406675,44.5033113 Z" id="Shape"></path>
            </g>
            <g id="Roman_Numbers_1_" transform="translate(11, 61)" fill="#FFFFFF" fill-rule="nonzero">
                <path d="M10.349381,8.76981132 L10.1403026,8.98113208 C9.6176066,8.24150943 9.5130674,8.24150943 8.67675378,8.8754717 L5.95873453,10.7773585 C5.12242091,11.4113208 5.12242091,11.4113208 5.54057772,12.2566038 L5.22696011,12.2566038 L3.44979367,9.50943396 L3.65887208,9.29811321 C4.18156809,9.93207547 4.18156809,10.0377358 5.12242091,9.40377358 L8.04951857,7.39622642 L2.61348006,8.03018868 L2.40440165,7.71320755 L5.01788171,3.06415094 L2.92709766,4.22641509 C2.19532325,4.6490566 1.77716644,4.96603774 1.56808803,5.17735849 C1.25447043,5.38867925 1.35900963,5.70566038 1.67262724,6.33962264 L1.46354883,6.5509434 L0,4.22641509 L0.209078404,4.01509434 C0.522696011,4.43773585 0.731774415,4.54339623 1.04539202,4.43773585 C1.35900963,4.33207547 1.88170564,4.12075472 2.61348006,3.69811321 L4.28610729,2.74716981 C5.43603851,2.11320755 5.43603851,2.00754717 5.01788171,1.16226415 L5.22696011,0.950943396 L6.48143054,2.85283019 L4.18156809,7.18490566 L8.99037139,6.65660377 L10.349381,8.76981132 Z" id="M_moved_2_"></path>
                <path d="M13.2764787,11.9396226 C14.2173315,12.890566 14.7400275,13.9471698 14.8445667,14.8981132 C14.8445667,15.6377358 14.6354883,16.3773585 14.0082531,17.0113208 C12.3356259,18.5962264 10.0357634,17.7509434 8.25859697,15.7433962 L6.27235213,13.6301887 L6.48143054,13.4188679 C7.10866575,14.0528302 7.21320495,14.0528302 8.04951857,13.3132075 L10.4539202,11.0943396 C11.1856946,10.354717 11.1856946,10.2490566 10.6629986,9.61509434 L10.872077,9.40377358 L13.2764787,11.9396226 Z M9.09491059,14.3698113 C8.46767538,15.0037736 8.36313618,15.2150943 8.88583219,15.8490566 C10.0357634,17.1169811 11.4993122,17.1169811 12.6492435,15.954717 C14.1127923,14.5811321 13.7991747,13.2075472 12.6492435,11.9396226 C12.4401651,11.7283019 12.2310867,11.5169811 12.1265475,11.5169811 C12.0220083,11.5169811 11.9174691,11.6226415 11.7083906,11.8339623 L9.09491059,14.3698113 Z" id="D_rotated_2_"></path>
                <path d="M21.1169188,19.5471698 C21.3259972,18.3849057 20.9078404,17.7509434 19.9669876,17.3283019 C18.3988996,16.4830189 17.03989,17.2226415 16.4126547,18.490566 C15.5763411,20.0754717 15.8899587,21.6603774 17.2489684,22.4 C18.2943604,22.9283019 19.0261348,22.8226415 20.0715268,22.1886792 L20.3851444,22.4 C19.9669876,22.8226415 19.4442916,23.3509434 19.130674,23.5622642 C18.8170564,23.4566038 17.7716644,23.1396226 17.1444292,22.7169811 C14.4264099,21.2377358 14.2173315,19.2301887 14.9491059,17.8566038 C15.8899587,16.1660377 18.085282,15.7433962 20.4896836,17.1169811 C21.3259972,17.5396226 21.9532325,18.1735849 22.1623109,18.3849057 C21.9532325,18.9132075 21.8486933,19.3358491 21.6396149,19.8641509 L21.1169188,19.5471698 Z" id="C_rotated_2_"></path>
                <path d="M28.2255846,22.2943396 C28.2255846,21.1320755 27.5983494,20.6037736 26.6574966,20.2867925 C24.9848693,19.7584906 23.8349381,20.8150943 23.4167813,22.0830189 C22.8940853,23.7735849 23.5213205,25.2528302 24.9848693,25.6754717 C26.0302613,25.9924528 26.7620358,25.6754717 27.7028886,24.9358491 L28.1210454,25.1471698 C27.8074278,25.5698113 27.389271,26.309434 27.0756534,26.5207547 C26.7620358,26.5207547 25.7166437,26.4150943 24.9848693,26.0981132 C22.0577717,25.1471698 21.4305365,23.245283 21.8486933,21.7660377 C22.3713893,19.9698113 24.5667125,19.1245283 27.0756534,19.8641509 C28.0165062,20.1811321 28.6437414,20.6037736 28.957359,20.709434 C28.8528198,21.2377358 28.8528198,21.6603774 28.6437414,22.2943396 L28.2255846,22.2943396 Z" id="C_2_tweeked_2_"></path>
                <path d="M35.9614856,23.4566038 C35.7524072,22.2943396 35.0206327,21.8716981 34.0797799,21.7660377 C32.3026135,21.554717 31.3617607,22.7169811 31.1526823,24.090566 C30.9436039,25.8867925 31.7799175,27.154717 33.3480055,27.3660377 C34.4979367,27.4716981 35.1251719,27.0490566 35.8569464,26.0981132 L36.2751032,26.2037736 C36.0660248,26.7320755 35.7524072,27.4716981 35.4387895,27.7886792 C35.1251719,27.7886792 34.0797799,27.8943396 33.2434663,27.7886792 C30.2118294,27.3660377 29.1664374,25.5698113 29.3755158,24.090566 C29.5845942,22.1886792 31.5708391,21.0264151 34.1843191,21.3433962 C35.1251719,21.4490566 35.8569464,21.7660377 36.170564,21.8716981 L36.170564,23.4566038 L35.9614856,23.4566038 Z M39.829436,26.4150943 C39.829436,27.154717 39.9339752,27.3660377 40.1430536,27.3660377 C40.352132,27.4716981 40.6657497,27.3660377 40.9793673,27.3660377 C41.3975241,27.3660377 41.9202201,27.2603774 42.2338377,26.9433962 C42.4429161,26.7320755 42.5474553,26.4150943 42.7565337,25.9924528 L43.1746905,25.9924528 C43.1746905,26.4150943 42.9656121,27.3660377 42.8610729,27.6830189 L37.4250344,28 L37.4250344,27.6830189 C38.3658872,27.5773585 38.4704264,27.4716981 38.3658872,26.4150943 L38.1568088,23.1396226 C38.0522696,22.0830189 38.0522696,22.0830189 37.1114168,21.9773585 L37.1114168,21.6603774 L40.5612105,21.4490566 L40.5612105,21.7660377 C39.6203576,21.8716981 39.6203576,21.9773585 39.6203576,23.0339623 L39.829436,26.4150943 Z M48.088033,26.309434 L48.4016506,26.2037736 C48.8198074,26.0981132 48.8198074,25.8867925 48.5061898,25.6754717 C48.2971114,25.4641509 47.9834938,25.1471698 46.8335626,24.1962264 C46.519945,24.9358491 46.2063274,25.8867925 46.1017882,26.2037736 C45.997249,26.4150943 45.8927098,26.7320755 46.4154058,26.6264151 L46.8335626,26.5207547 L46.9381018,26.8377358 L44.1155433,27.5773585 L44.0110041,27.2603774 C44.6382393,27.0490566 44.8473177,26.9433962 45.0563961,26.6264151 C45.2654746,26.309434 45.997249,24.8301887 46.4154058,23.8792453 L44.2200825,22.1886792 C43.6973865,21.7660377 43.5928473,21.6603774 42.7565337,21.7660377 L42.6519945,21.4490566 L45.8927098,20.6037736 L45.997249,20.9207547 L45.6836314,21.0264151 C45.3700138,21.1320755 45.2654746,21.2377358 45.474553,21.3433962 C45.5790922,21.4490566 46.3108666,22.0830189 46.9381018,22.6113208 C47.1471802,22.1886792 47.4607978,21.4490566 47.6698762,20.9207547 C47.8789546,20.709434 47.8789546,20.6037736 47.4607978,20.709434 L47.042641,20.709434 L46.9381018,20.3924528 L49.5515818,19.7584906 L49.656121,20.0754717 C48.9243466,20.2867925 48.8198074,20.3924528 48.4016506,21.0264151 C48.088033,21.554717 47.6698762,22.2943396 47.3562586,23.0339623 L49.9697387,25.0415094 C50.5969739,25.5698113 50.8060523,25.5698113 51.5378267,25.4641509 L51.6423659,25.7811321 L48.1925722,26.6264151 L48.088033,26.309434 Z M55.9284732,23.3509434 L56.2420908,23.1396226 C56.6602476,22.9283019 56.5557084,22.8226415 56.2420908,22.6113208 C56.0330124,22.5056604 55.6148556,22.2943396 54.2558459,21.554717 C54.0467675,22.4 53.9422283,23.3509434 53.9422283,23.6679245 C53.9422283,23.8792453 53.8376891,24.1962264 54.3603851,23.9849057 L54.778542,23.8792453 L54.8830812,24.1962264 L52.2696011,25.4641509 L52.0605227,25.2528302 C52.5832187,24.9358491 52.7922971,24.7245283 53.0013755,24.4075472 C53.1059147,24.090566 53.5240715,22.5056604 53.8376891,21.4490566 L51.4332875,20.1811321 C50.8060523,19.8641509 50.5969739,19.8641509 49.8651994,20.0754717 L49.7606602,19.7584906 L52.7922971,18.2792453 L52.8968363,18.5962264 L52.5832187,18.8075472 C52.2696011,19.0188679 52.2696011,19.0188679 52.4786795,19.2301887 C52.5832187,19.3358491 53.5240715,19.8641509 54.2558459,20.1811321 C54.3603851,19.6528302 54.5694635,18.9132075 54.5694635,18.2792453 C54.5694635,17.9622642 54.5694635,17.8566038 54.2558459,18.0679245 L53.8376891,18.1735849 L53.7331499,17.8566038 L56.2420908,16.6943396 L56.34663,17.0113208 C55.7193948,17.4339623 55.6148556,17.5396226 55.301238,18.1735849 C55.0921596,18.7018868 54.8830812,19.5471698 54.6740028,20.3924528 L57.6011004,21.8716981 C58.3328748,22.1886792 58.437414,22.1886792 59.1691884,21.8716981 L59.2737276,22.1886792 L56.0330124,23.7735849 L55.9284732,23.3509434 Z M63.0371389,18.9132075 L63.2462173,18.7018868 C63.5598349,18.3849057 63.5598349,18.2792453 63.1416781,18.1735849 C62.9325997,18.0679245 62.4099037,17.9622642 61.0508941,17.5396226 C61.0508941,18.3849057 61.1554333,19.3358491 61.1554333,19.6528302 C61.1554333,19.8641509 61.1554333,20.1811321 61.5735901,19.9698113 L61.8872077,19.7584906 L62.0962861,19.9698113 L59.7964237,21.7660377 L59.5873453,21.554717 C60.0055021,21.1320755 60.2145805,20.9207547 60.3191197,20.4981132 C60.3191197,20.1811321 60.5281981,18.490566 60.5281981,17.4339623 L57.914718,16.6943396 C57.1829436,16.4830189 57.0784044,16.4830189 56.4511692,16.9056604 L56.2420908,16.6943396 L58.96011,14.6867925 L59.1691884,14.8981132 L58.8555708,15.109434 C58.5419532,15.3207547 58.5419532,15.4264151 58.8555708,15.5320755 C58.96011,15.6377358 60.0055021,15.954717 60.7372765,16.0603774 L60.7372765,14.1584906 C60.7372765,13.8415094 60.7372765,13.7358491 60.3191197,13.9471698 L60.0055021,14.1584906 L59.7964237,13.9471698 L61.9917469,12.2566038 L62.2008253,12.4679245 C61.6781293,12.9962264 61.5735901,13.1018868 61.4690509,13.8415094 C61.3645117,14.3698113 61.2599725,15.2150943 61.2599725,16.1660377 L64.3961486,17.0113208 C65.127923,17.2226415 65.3370014,17.1169811 65.9642366,16.6943396 L66.173315,16.9056604 L63.3507565,19.0188679 L63.0371389,18.9132075 Z" id="Shape"></path>
                <path d="M68.786795,14.0528302 C67.0096286,13.5245283 64.5006878,12.7849057 63.5598349,12.4679245 C62.6189821,12.1509434 62.4099037,12.2566038 61.9917469,12.6792453 L61.7826685,12.4679245 L63.9779917,9.93207547 L64.1870702,10.1433962 L63.9779917,10.4603774 C63.7689133,10.7773585 63.7689133,10.8830189 64.1870702,10.9886792 C64.7097662,11.2 66.696011,11.7283019 68.1595598,12.1509434 L66.4869326,8.76981132 C66.173315,8.13584906 66.0687758,8.13584906 65.650619,8.45283019 L65.4415406,8.66415094 L65.2324622,8.45283019 L67.0096286,6.44528302 L67.218707,6.65660377 C66.8005502,7.29056604 66.8005502,7.39622642 67.1141678,8.34716981 C67.218707,8.45283019 68.3686382,11.4113208 69.2049519,13.4188679 L68.786795,14.0528302 Z" id="Path"></path>
                <path d="M72.1320495,6.97358491 C72.9683631,7.50188679 73.0729023,7.50188679 73.5955983,6.76226415 L73.8046768,6.97358491 L72.0275103,9.82641509 L71.8184319,9.61509434 C72.2365887,8.8754717 72.2365887,8.76981132 71.2957359,8.13584906 L68.4731774,6.33962264 C67.6368638,5.81132075 67.5323246,5.81132075 67.0096286,6.5509434 L66.8005502,6.33962264 L68.5777166,3.48679245 L68.786795,3.69811321 C68.3686382,4.43773585 68.3686382,4.54339623 69.3094911,5.17735849 L72.1320495,6.97358491 Z M74.2228336,2.95849057 C75.1636864,3.38113208 75.2682256,3.38113208 75.6863824,2.64150943 L76,2.74716981 L74.5364512,5.81132075 L74.2228336,5.70566038 C74.5364512,4.86037736 74.5364512,4.75471698 73.5955983,4.33207547 L70.6685007,2.85283019 C69.7276479,2.43018868 69.6231087,2.43018868 69.2049519,3.16981132 L68.8913343,3.06415094 L70.3548831,-7.10542736e-15 L70.6685007,0.105660377 C70.3548831,0.950943396 70.3548831,1.05660377 71.2957359,1.47924528 L74.2228336,2.95849057 Z" id="Shape"></path>
            </g>
            <g id="Diamonds_1_" transform="translate(8, 55)" fill="#FFFFFF" fill-rule="nonzero">
                <path d="M2.937583,5 L2.20318725,4.3 C1.99335989,4.1 1.78353254,4 1.67861886,3.9 C1.4687915,3.8 1.25896414,3.8 1.04913679,3.7 C0.839309429,3.6 0.419654714,3.6 0,3.6 L0,3.5 C0.314741036,3.2 0.629482072,3 0.73439575,2.8 C0.839309429,2.6 1.04913679,2.4 1.15405046,2.3 C1.25896414,2.1 1.25896414,1.9 1.36387782,1.7 C1.4687915,1.5 1.4687915,1.1 1.4687915,0.7 L1.57370518,0.7 C1.88844622,1 2.09827357,1.3 2.30810093,1.4 C2.51792829,1.6 2.72775564,1.7 2.83266932,1.8 C3.04249668,1.9 3.25232404,1.9 3.46215139,2 C3.67197875,2 4.09163347,2.1 4.51128818,2.1 L4.51128818,2.2 C4.19654714,2.5 3.88180611,2.7 3.77689243,2.9 C3.56706507,3.1 3.46215139,3.3 3.35723772,3.4 C3.25232404,3.5 3.25232404,3.7 3.14741036,4 C3.04249668,4.3 3.04249668,4.6 3.04249668,5 L2.937583,5 Z M77.5312085,0 C77.5312085,0.4 77.6361222,0.7 77.6361222,1 C77.7410359,1.2 77.7410359,1.4 77.8459495,1.6 C77.9508632,1.8 78.0557769,1.9 78.2656042,2.1 L79,2.8 L79,2.9 C78.5803453,2.9 78.2656042,3 77.9508632,3.1 C77.6361222,3.2 77.5312085,3.2 77.3213811,3.3 C77.2164675,3.4 77.0066401,3.5 76.7968127,3.7 C76.5869854,3.9 76.377158,4.1 76.1673307,4.4 L76.062417,4.4 C76.062417,4 75.9575033,3.7 75.9575033,3.4 C75.8525896,3.2 75.8525896,3 75.747676,2.8 C75.6427623,2.7 75.5378486,2.5 75.3280212,2.3 L74.5936255,1.6 L74.5936255,1.5 C75.0132802,1.5 75.3280212,1.4 75.6427623,1.3 C75.8525896,1.2 76.062417,1.2 76.2722444,1.1 C76.377158,1 76.5869854,0.9 76.7968127,0.7 C77.0066401,0.5 77.2164675,0.3 77.4262948,0 L77.5312085,0 Z" id="Shape"></path>
            </g>
        </g>
        <path d="M37.24,25.1 C35.24,17.32 30.88,15.23 24.24,15.23 C12.1,15.23 6.69,24.42 6.69,35.02 C6.69,48.02 13.38,56.71 24.33,56.71 C31.9,56.71 35.41,53.06 38.72,45.97 L40.41,46.17 C39.53,49.09 38.05,54.49 37,57.02 C32.8416892,58.095718 28.5813915,58.729232 24.29,58.910103 C7.16,58.95 0,47.33 0,36.58 C0,22.66 10.75,13.02 25.54,13.02 C29.6536296,13.1036997 33.7412001,13.6948356 37.71,14.78 C38.25,18.49 38.52,21.47 38.93,24.98 L37.24,25.1 Z M58.49,49.39 C58.49,52.95 58.79,54.61 59.92,55.21 C61.05,55.81 63.24,55.98 65.5,55.98 C68.5,55.98 71.26,55.68 72.57,54.26 C73.8700687,52.5119206 74.836259,50.5388584 75.42,48.44 L76.9,48.62 C76.6,50.28 75.3,56.34 74.82,57.94 L48,57.94 L48,56.57 C53,56.22 53.46,55.8 53.46,49.33 L53.46,27.95 C53.5,21.48 53,21.02 48,20.7 L48,19.34 L64,19.34 L64,20.7 C58.9,21.06 58.42,21.48 58.42,27.95 L58.49,49.39 Z M106.12,56.57 L108.02,56.34 C110.22,56.1 110.46,55.45 109.86,53.6 C109.45,52.18 107.72,47.6 106.06,43.27 L94,43.27 C93.4,44.81 91.86,49.45 91,51.94 C89.87,55.39 90.4,56.16 93.07,56.4 L94.86,56.57 L94.86,57.94 L82.19,57.94 L82.19,56.57 C86.05,56.16 86.52,55.8 88.6,50.57 L100.84,19.02 L102.2,18.49 L106.42,29.77 C109.21,37.31 111.82,44.85 114.14,50.91 C116.04,55.91 116.81,56.32 120.49,56.61 L120.49,57.98 L106.12,57.98 L106.12,56.57 Z M94.78,41.02 L105.29,41.02 L100.06,26.42 L99.94,26.42 L94.78,41.02 Z M137.71,49.33 C137.71,55.8 138.19,56.22 143.06,56.57 L143.06,57.94 L127.26,57.94 L127.26,56.57 C132.26,56.22 132.73,55.8 132.73,49.33 L132.73,27.95 C132.73,21.48 132.25,21.06 127.5,20.7 L127.5,19.34 L142.58,19.34 C146.38,19.34 149.77,19.87 151.97,21.34 C154.525088,23.0051428 156.01449,25.8927592 155.89,28.94 C155.89,33.87 152.89,37.37 148.05,39.33 C149.12,41.11 151.55,45.21 153.33,47.82 C154.833956,50.1197187 156.505137,52.3056236 158.33,54.36 C159.408075,55.8587151 160.98635,56.922721 162.78,57.36 L162.67,58.48 L161.83,58.48 C155,58.3 152.93,56.23 150.67,52.96 C148.83,50.29 146.33,45.9 144.67,43.1 C143.982157,41.6864041 142.496713,40.8404161 140.93,40.97 L137.72,40.97 L137.71,49.33 Z M137.71,39.23 L141.16,39.23 C143.59,39.23 145.49,38.94 147.1,37.63 C149.415587,35.7029123 150.689819,32.7988475 150.54,29.79 C150.54,23.56 146.03,21.06 141.54,21.06 C140.424385,20.979066 139.303036,21.0803927 138.22,21.36 C137.86,21.48 137.68,21.77 137.68,22.96 L137.71,39.23 Z M179.4,38.02 C184.437235,33.3698015 189.179761,28.4101883 193.6,23.17 C194.6,21.92 194.43,21.17 192.82,21.03 L190.39,20.73 L190.39,19.34 L204.7,19.34 L204.7,20.7 C201.02,21.06 199.53,21.36 195.61,24.98 C193.48,26.88 188.9,31.22 184.21,36.09 C189.5,42.32 196,49.45 198.58,52.18 C201.85,55.56 202.92,56.28 205.65,56.57 L205.65,57.94 L196.86,57.94 C194,54.79 183.5,42.38 179.4,38.1 L179.4,49.33 C179.4,55.8 179.88,56.22 184.98,56.57 L184.98,57.94 L169.25,57.94 L169.25,56.57 C173.94,56.22 174.41,55.8 174.41,49.33 L174.41,27.95 C174.41,21.48 173.94,21.06 168.95,20.7 L168.95,19.34 L184.69,19.34 L184.69,20.7 C179.88,21.06 179.4,21.48 179.4,27.95 L179.4,38.02 Z M11,63.81 L11,64.56 C9,64.72 8.79,64.88 8.79,67.79 L8.79,73.46 C8.79,77.73 10.19,80.12 13.36,80.12 C16.53,80.12 18.23,77.65 18.23,72.95 L18.23,71.33 C18.2653912,69.5369551 18.1885745,67.7434523 18,65.96 C17.86,64.96 17.11,64.67 15.39,64.56 L15.39,63.81 L21.9,63.81 L21.9,64.56 C20.55,64.56 19.9,64.99 19.72,65.96 C19.5226196,67.742823 19.4424474,69.5366772 19.48,71.33 L19.48,73.24 C19.48,75.85 18.99,78.08 17.48,79.67 C16.1543113,80.9883416 14.3491826,81.7103931 12.48,81.67 C10.7708584,81.7597761 9.08292325,81.2583393 7.7,80.25 C6.27,79.09 5.7,77.16 5.7,73.98 L5.7,67.78 C5.7,64.87 5.49,64.71 3.34,64.55 L3.34,63.8 L11,63.81 Z M32.4,63.81 L43.13,76.44 L43.13,71.33 C43.1675526,69.5366772 43.0873804,67.742823 42.89,65.96 C42.76,64.96 42,64.67 40.28,64.56 L40.28,63.81 L46.84,63.81 L46.84,64.56 C45.5,64.56 44.84,64.99 44.67,65.96 C44.466341,67.7423686 44.3828191,69.5364191 44.42,71.33 L44.42,81.49 L43.24,81.49 L32.16,67.95 L32.16,73.75 C32.1220091,75.5466551 32.202182,77.3438643 32.4,79.13 C32.53,80.13 33.29,80.42 35.01,80.53 L35.01,81.28 L28.4,81.28 L28.4,80.53 C29.74,80.47 30.4,80.1 30.58,79.13 C30.7697748,77.3432492 30.8499249,75.5465515 30.82,73.75 L30.82,68.48 C30.82,65.37 30.23,64.72 28.02,64.56 L28.02,63.81 L32.4,63.81 Z M61.3,63.81 L61.3,64.56 C59.3,64.72 59.04,64.94 59.04,67.84 L59.04,77.25 C59.04,80.15 59.25,80.36 61.3,80.53 L61.3,81.28 L53.72,81.28 L53.72,80.53 C55.81,80.36 56.03,80.15 56.03,77.25 L56.03,67.84 C56.03,64.94 55.81,64.72 53.72,64.56 L53.72,63.81 L61.3,63.81 Z M74.9,63.81 L74.9,64.56 L74.04,64.69 C73,64.83 73,65.02 73.28,66.02 C73.82,67.69 75.92,73.02 77.56,77.21 C78.63,74.33 80.89,68.21 81.38,66.78 C81.94,65.06 81.7,64.78 80.52,64.6 L79.71,64.52 L79.71,63.77 L85.81,63.77 L85.81,64.52 C84.09,64.73 83.98,64.92 82.75,67.42 C82.48,67.96 79.14,75.92 77.07,81.42 L75.92,81.42 C74.09,76.58 71.54,69.97 70.52,67.28 C69.6,64.86 69.17,64.7 67.67,64.54 L67.67,63.79 L74.9,63.81 Z M104.33,63.81 C104.33,64.24 104.49,66.23 104.65,67.89 L103.85,67.95 C103.742746,67.0583455 103.397314,66.2120381 102.85,65.5 C102.39,65.04 101.53,64.88 99.85,64.88 L98.52,64.88 C97.52,64.88 97.45,64.88 97.45,65.88 L97.45,71.58 L99.76,71.58 C102.07,71.58 102.12,71.42 102.39,69.35 L103.25,69.35 L103.25,75.02 L102.39,75.02 C102.12,72.89 102.07,72.78 99.76,72.78 L97.45,72.78 L97.45,77.19 C97.45,78.75 97.55,79.5 98.04,79.85 C98.8585811,80.1753499 99.7443256,80.295509 100.62,80.2 C101.96,80.2 103.2,80.1 103.76,79.42 C104.379432,78.6086009 104.84387,77.6898952 105.13,76.71 L105.94,76.87 C105.83,77.78 105.24,80.53 105.03,81.28 L91.91,81.28 L91.91,80.53 C94.22,80.36 94.44,80.15 94.44,77.25 L94.44,67.84 C94.44,64.94 94.22,64.72 92.18,64.56 L92.18,63.81 L104.33,63.81 Z M119.84,63.81 C121.373693,63.6769034 122.912966,63.9930973 124.27,64.72 C125.399533,65.4792697 126.054403,66.7700826 126,68.13 C125.984027,70.3040321 124.526121,72.2029852 122.43,72.78 C122.86,73.54 123.91,75.42 124.77,76.63 C125.446882,77.6777225 126.191817,78.6798775 127,79.63 C127.477295,80.2206722 128.122261,80.6529739 128.85,80.87 L128.75,81.57 L127.62,81.51 C124.69,81.3 123.77,80.51 122.73,79.04 C121.87,77.8 120.98,76.04 120.2,74.69 C119.77,73.93 119.45,73.69 118.64,73.69 L117.78,73.69 L117.78,77.3 C117.78,80.2 117.99,80.41 120.04,80.58 L120.04,81.33 L112.5,81.33 L112.5,80.58 C114.65,80.41 114.86,80.2 114.86,77.3 L114.86,67.84 C114.86,64.94 114.65,64.72 112.6,64.56 L112.6,63.81 L119.84,63.81 Z M117.84,72.73 L118.84,72.73 C119.73971,72.8046119 120.636595,72.5564621 121.37,72.03 C122.358022,71.1683411 122.893093,69.8989312 122.82,68.59 C122.909342,67.5857419 122.556199,66.5924672 121.852948,65.8700024 C121.149698,65.1475376 120.166301,64.7677549 119.16,64.83 C117.87,64.83 117.82,64.94 117.82,65.83 L117.84,72.73 Z M144.7,67.92 C144.21,66.36 143.38,64.48 141.12,64.48 C140.370293,64.4497911 139.643148,64.7400169 139.120284,65.2781478 C138.597419,65.8162787 138.328234,66.551473 138.38,67.3 C138.38,68.81 139.46,69.8 141.53,70.74 L142.22,71.06 C144.32,72.01 146.22,73.43 146.22,76.22 C146.22,79.42 143.72,81.68 140.09,81.68 C139.174095,81.6761391 138.265144,81.5207052 137.4,81.22 C136.65,80.98 136.16,80.77 135.84,80.66 C135.63,79.96 135.3,78.13 135.03,76.49 L135.84,76.22 C136.38,77.62 137.84,80.61 140.6,80.61 C141.380168,80.611591 142.126135,80.2899053 142.660481,79.7214521 C143.194827,79.1529988 143.4698,78.3885787 143.42,77.61 C143.42,76.1 142.7,75.03 140.57,73.98 L139.71,73.55 C137.94,72.64 135.71,71.21 135.71,68.55 C135.71,65.72 137.83,63.4099222 141.44,63.4099222 C142.268351,63.4062991 143.092005,63.534573 143.88,63.79 C144.31,63.95 144.69,64 145.01,64.14 C145.12,65.08 145.28,66.26 145.55,67.77 L144.7,67.92 Z M161.09,63.81 L161.09,64.56 C159.09,64.72 158.83,64.94 158.83,67.84 L158.83,77.25 C158.83,80.15 159.05,80.36 161.09,80.53 L161.09,81.28 L153.51,81.28 L153.51,80.53 C155.61,80.36 155.82,80.15 155.82,77.25 L155.82,67.84 C155.82,64.94 155.61,64.72 153.51,64.56 L153.51,63.81 L161.09,63.81 Z M168.08,68.02 C168.19,66.25 168.35,64.48 168.4,63.08 L168.89,63.08 C169.26,63.72 169.53,63.78 170.28,63.78 L181.36,63.78 C182.06,63.78 182.22,63.61 182.65,63.08 L183.08,63.08 C183.08,64.21 183.24,66.25 183.4,67.97 L182.59,67.97 C182.505905,67.0573852 182.158493,66.1888556 181.59,65.47 C181.13,64.96 180.27,64.8 178.59,64.8 L177.19,64.8 L177.19,77.25 C177.19,80.15 177.4,80.36 179.88,80.53 L179.88,81.28 L171.6,81.28 L171.6,80.53 C173.96,80.36 174.18,80.15 174.18,77.25 L174.18,64.88 L173.26,64.88 C170.95,64.88 170.26,65.2 169.82,65.69 C169.317755,66.3938826 168.976367,67.1995586 168.82,68.05 L168.08,68.02 Z M196.27,63.81 L196.27,64.56 L195.14,64.72 C194.45,64.83 194.39,65.04 194.82,65.9 C195.47,67.19 197.19,70.45 198.29,72.22 C199.12,70.79 200.6,67.89 201.41,66.06 C201.87,65.06 201.7,64.77 200.76,64.67 L199.69,64.56 L199.69,63.81 L205.74,63.81 L205.74,64.56 C204.12,64.72 203.88,65.04 202.74,66.82 C201.74,68.43 200.74,70.1 199.36,72.76 C199.068396,73.2431532 198.945301,73.8093895 199.01,74.37 L199.01,77.25 C199.01,80.15 199.22,80.36 201.64,80.53 L201.64,81.28 L193.47,81.28 L193.47,80.53 C195.78,80.36 196,80.15 196,77.25 L196,74.64 C196.044438,74.1272988 195.910182,73.6150075 195.62,73.19 C194.76,71.57 193.79,69.88 192.02,66.82 C190.86,64.82 190.73,64.72 189.33,64.56 L189.33,63.81 L196.27,63.81 Z" id="Shape" fill="#000000" fill-rule="nonzero"></path>
        <g id="CENTER-FOR-GEOSPATIA" transform="translate(6.637, 104.342)" fill="#000000" fill-rule="nonzero">
            <path d="M3.861,8.814 C4.94,8.814 5.785,8.398 6.487,7.592 L5.72,6.708 C5.265,7.202 4.693,7.501 3.965,7.501 C2.496,7.501 1.547,6.331 1.547,4.394 C1.547,2.496 2.561,1.313 3.926,1.313 C4.576,1.313 5.096,1.56 5.538,1.989 L6.344,1.079 C5.811,0.481 4.953,1.42108547e-14 3.887,1.42108547e-14 C1.742,1.42108547e-14 0,1.651 0,4.433 C0,7.254 1.703,8.814 3.861,8.814 Z" id="Path"></path>
            <polygon id="Path" points="8.93 8.658 14.182 8.658 14.182 7.384 10.438 7.384 10.438 4.875 13.493 4.875 13.493 3.601 10.438 3.601 10.438 1.43 14.052 1.43 14.052 0.156 8.93 0.156"></polygon>
            <path d="M16.924,8.658 L18.367,8.658 L18.367,4.94 C18.367,3.978 18.263,2.938 18.159,2.054 L18.211,2.054 C18.471,2.73 18.783,3.406 19.095,3.978 L21.643,8.658 L23.294,8.658 L23.294,0.156 L21.851,0.156 L21.851,3.874 C21.851,4.81 21.955,5.85 22.033,6.76 L21.981,6.76 C21.721,6.084 21.435,5.408 21.123,4.836 L18.575,0.156 L16.924,0.156 L16.924,8.658 Z" id="Path"></path>
            <polygon id="Path" points="28.181 8.658 29.689 8.658 29.689 1.43 32.146 1.43 32.146 0.156 25.724 0.156 25.724 1.43 28.181 1.43"></polygon>
            <polygon id="Path" points="34.563 8.658 39.815 8.658 39.815 7.384 36.071 7.384 36.071 4.875 39.126 4.875 39.126 3.601 36.071 3.601 36.071 1.43 39.685 1.43 39.685 0.156 34.563 0.156"></polygon>
            <path d="M42.557,8.658 L44.065,8.658 L44.065,5.33 L45.365,5.33 L47.198,8.658 L48.888,8.658 L46.86,5.109 C47.874,4.758 48.55,3.978 48.55,2.678 C48.55,0.78 47.198,0.156 45.43,0.156 L42.557,0.156 L42.557,8.658 Z M44.065,4.134 L44.065,1.365 L45.274,1.365 C46.431,1.365 47.068,1.703 47.068,2.678 C47.068,3.64 46.431,4.134 45.274,4.134 L44.065,4.134 Z" id="Shape"></path>
            <polygon id="Path" points="54.853 8.658 56.361 8.658 56.361 5.109 59.455 5.109 59.455 3.835 56.361 3.835 56.361 1.43 59.988 1.43 59.988 0.156 54.853 0.156"></polygon>
            <path d="M65.655,8.814 C67.878,8.814 69.412,7.124 69.412,4.368 C69.412,1.625 67.878,1.42108547e-14 65.655,1.42108547e-14 C63.445,1.42108547e-14 61.911,1.625 61.911,4.368 C61.911,7.124 63.445,8.814 65.655,8.814 Z M65.655,7.501 C64.316,7.501 63.458,6.279 63.458,4.368 C63.458,2.47 64.316,1.313 65.655,1.313 C66.994,1.313 67.852,2.47 67.852,4.368 C67.852,6.279 66.994,7.501 65.655,7.501 Z" id="Shape"></path>
            <path d="M72.115,8.658 L73.623,8.658 L73.623,5.33 L74.923,5.33 L76.756,8.658 L78.446,8.658 L76.418,5.109 C77.432,4.758 78.108,3.978 78.108,2.678 C78.108,0.78 76.756,0.156 74.988,0.156 L72.115,0.156 L72.115,8.658 Z M73.623,4.134 L73.623,1.365 L74.832,1.365 C75.989,1.365 76.626,1.703 76.626,2.678 C76.626,3.64 75.989,4.134 74.832,4.134 L73.623,4.134 Z" id="Shape"></path>
            <path d="M87.973,8.814 C89.13,8.814 90.118,8.372 90.69,7.8 L90.69,4.056 L87.726,4.056 L87.726,5.291 L89.338,5.291 L89.338,7.124 C89.065,7.371 88.597,7.501 88.116,7.501 C86.413,7.501 85.516,6.331 85.516,4.394 C85.516,2.483 86.53,1.313 88.038,1.313 C88.831,1.313 89.325,1.586 89.754,2.002 L90.56,1.079 C90.027,0.52 89.195,1.42108547e-14 87.986,1.42108547e-14 C85.724,1.42108547e-14 83.969,1.651 83.969,4.433 C83.969,7.254 85.672,8.814 87.973,8.814 Z" id="Path"></path>
            <polygon id="Path" points="93.575 8.658 98.827 8.658 98.827 7.384 95.083 7.384 95.083 4.875 98.138 4.875 98.138 3.601 95.083 3.601 95.083 1.43 98.697 1.43 98.697 0.156 93.575 0.156"></polygon>
            <path d="M104.871,8.814 C107.094,8.814 108.628,7.124 108.628,4.368 C108.628,1.625 107.094,1.42108547e-14 104.871,1.42108547e-14 C102.661,1.42108547e-14 101.127,1.625 101.127,4.368 C101.127,7.124 102.661,8.814 104.871,8.814 Z M104.871,7.501 C103.532,7.501 102.674,6.279 102.674,4.368 C102.674,2.47 103.532,1.313 104.871,1.313 C106.21,1.313 107.068,2.47 107.068,4.368 C107.068,6.279 106.21,7.501 104.871,7.501 Z" id="Shape"></path>
            <path d="M113.814,8.814 C115.738,8.814 116.869,7.67 116.869,6.292 C116.869,5.057 116.18,4.42 115.153,3.991 L113.996,3.51 C113.294,3.224 112.644,2.977 112.644,2.314 C112.644,1.69 113.177,1.313 113.983,1.313 C114.633,1.313 115.257,1.586 115.803,2.028 L116.596,1.04 C115.946,0.416 115.01,1.42108547e-14 113.983,1.42108547e-14 C112.306,1.42108547e-14 111.123,1.04 111.123,2.392 C111.123,3.627 111.994,4.303 112.839,4.654 L114.009,5.161 C114.776,5.486 115.322,5.707 115.322,6.409 C115.322,7.072 114.802,7.501 113.84,7.501 C113.021,7.501 112.176,7.163 111.565,6.578 L110.746,7.566 C111.552,8.372 112.631,8.814 113.814,8.814 Z" id="Path"></path>
            <path d="M119.416,8.658 L120.924,8.658 L120.924,5.538 L122.146,5.538 C123.979,5.538 125.383,4.667 125.383,2.782 C125.383,0.806 123.979,0.156 122.094,0.156 L119.416,0.156 L119.416,8.658 Z M120.924,4.329 L120.924,1.365 L121.977,1.365 C123.238,1.365 123.901,1.716 123.901,2.782 C123.901,3.822 123.29,4.329 122.029,4.329 L120.924,4.329 Z" id="Shape"></path>
            <path d="M129.152,4.134 C129.425,3.237 129.672,2.275 129.906,1.326 L129.958,1.326 C130.205,2.262 130.452,3.237 130.725,4.134 L131.024,5.174 L128.853,5.174 L129.152,4.134 Z M126.305,8.658 L127.839,8.658 L128.502,6.357 L131.362,6.357 L132.025,8.658 L133.611,8.658 L130.842,0.156 L129.074,0.156 L126.305,8.658 Z" id="Shape"></path>
            <polygon id="Path" points="136.548 8.658 138.056 8.658 138.056 1.43 140.513 1.43 140.513 0.156 134.091 0.156 134.091 1.43 136.548 1.43"></polygon>
            <polygon id="Path" points="142.93 8.658 144.438 8.658 144.438 0.156 142.93 0.156"></polygon>
            <path d="M149.338,4.134 C149.611,3.237 149.858,2.275 150.092,1.326 L150.144,1.326 C150.391,2.262 150.638,3.237 150.911,4.134 L151.21,5.174 L149.039,5.174 L149.338,4.134 Z M146.491,8.658 L148.025,8.658 L148.688,6.357 L151.548,6.357 L152.211,8.658 L153.797,8.658 L151.028,0.156 L149.26,0.156 L146.491,8.658 Z" id="Shape"></path>
            <polygon id="Path" points="155.85 8.658 160.894 8.658 160.894 7.384 157.358 7.384 157.358 0.156 155.85 0.156"></polygon>
            <path d="M168.718,4.134 C168.991,3.237 169.238,2.275 169.472,1.326 L169.524,1.326 C169.771,2.262 170.018,3.237 170.291,4.134 L170.59,5.174 L168.419,5.174 L168.718,4.134 Z M165.871,8.658 L167.405,8.658 L168.068,6.357 L170.928,6.357 L171.591,8.658 L173.177,8.658 L170.408,0.156 L168.64,0.156 L165.871,8.658 Z" id="Shape"></path>
            <path d="M175.23,8.658 L176.673,8.658 L176.673,4.94 C176.673,3.978 176.569,2.938 176.465,2.054 L176.517,2.054 C176.777,2.73 177.089,3.406 177.401,3.978 L179.949,8.658 L181.6,8.658 L181.6,0.156 L180.157,0.156 L180.157,3.874 C180.157,4.81 180.261,5.85 180.339,6.76 L180.287,6.76 C180.027,6.084 179.741,5.408 179.429,4.836 L176.881,0.156 L175.23,0.156 L175.23,8.658 Z" id="Path"></path>
            <path d="M186.513,4.134 C186.786,3.237 187.033,2.275 187.267,1.326 L187.319,1.326 C187.566,2.262 187.813,3.237 188.086,4.134 L188.385,5.174 L186.214,5.174 L186.513,4.134 Z M183.666,8.658 L185.2,8.658 L185.863,6.357 L188.723,6.357 L189.386,8.658 L190.972,8.658 L188.203,0.156 L186.435,0.156 L183.666,8.658 Z" id="Shape"></path>
            <polygon id="Path" points="193.025 8.658 198.069 8.658 198.069 7.384 194.533 7.384 194.533 0.156 193.025 0.156"></polygon>
            <path d="M200.915,8.658 L202.423,8.658 L202.423,5.499 L204.984,0.156 L203.411,0.156 L202.488,2.327 C202.241,2.964 201.981,3.549 201.708,4.199 L201.656,4.199 C201.383,3.549 201.149,2.964 200.902,2.327 L199.979,0.156 L198.367,0.156 L200.915,5.499 L200.915,8.658 Z" id="Path"></path>
            <polygon id="Path" points="208.519 8.658 210.027 8.658 210.027 1.43 212.484 1.43 212.484 0.156 206.062 0.156 206.062 1.43 208.519 1.43"></polygon>
            <polygon id="Path" points="214.901 8.658 216.409 8.658 216.409 0.156 214.901 0.156"></polygon>
            <path d="M222.986,8.814 C224.065,8.814 224.91,8.398 225.612,7.592 L224.845,6.708 C224.39,7.202 223.818,7.501 223.09,7.501 C221.621,7.501 220.672,6.331 220.672,4.394 C220.672,2.496 221.686,1.313 223.051,1.313 C223.701,1.313 224.221,1.56 224.663,1.989 L225.469,1.079 C224.936,0.481 224.078,1.42108547e-14 223.012,1.42108547e-14 C220.867,1.42108547e-14 219.125,1.651 219.125,4.433 C219.125,7.254 220.828,8.814 222.986,8.814 Z" id="Path"></path>
            <path d="M230.2,8.814 C232.124,8.814 233.255,7.67 233.255,6.292 C233.255,5.057 232.566,4.42 231.539,3.991 L230.382,3.51 C229.68,3.224 229.03,2.977 229.03,2.314 C229.03,1.69 229.563,1.313 230.369,1.313 C231.019,1.313 231.643,1.586 232.189,2.028 L232.982,1.04 C232.332,0.416 231.396,1.42108547e-14 230.369,1.42108547e-14 C228.692,1.42108547e-14 227.509,1.04 227.509,2.392 C227.509,3.627 228.38,4.303 229.225,4.654 L230.395,5.161 C231.162,5.486 231.708,5.707 231.708,6.409 C231.708,7.072 231.188,7.501 230.226,7.501 C229.407,7.501 228.562,7.163 227.951,6.578 L227.132,7.566 C227.938,8.372 229.017,8.814 230.2,8.814 Z" id="Path"></path>
        </g>
    </g>
</svg>