<svg xmlns="http://www.w3.org/2000/svg" width="312" height="101" viewBox="0 0 312 101"><title>Untitled 4</title><g fill="#000" fill-rule="nonzero"><path d="M38.59 39.657c-.901 3.11-2.577 7.775-3.542 9.786C33.18 49.833 28.154 51 23.259 51 7.86 50.995 0 40.692 0 29.355 0 16.135 9.986 7 24.42 7c5.542 0 10.05 1.168 12.176 1.488.26 2.917.71 6.804 1.225 10.041l-1.999.454c-1.289-4.341-2.837-6.997-6.12-8.357-1.675-.778-4.316-1.232-6.766-1.232-10.633 0-16.238 7.903-16.238 18.595 0 12.506 6.443 20.537 16.88 20.537 6.57 0 9.794-3.045 13.077-9.525l1.935.646zM81.243 39.268c-.387 2.01-2.318 8.746-2.965 10.756H48.321v-1.813c5.866-.581 6.38-.907 6.38-6.415v-25.72c0-5.508-.647-5.828-5.802-6.351V7.912h17.267v1.813c-5.154.517-5.865.779-5.865 6.351v26.37c0 3.952.514 4.858 4.19 4.922.063 0 4.703.064 5.09.064 3.288 0 4.253-.389 5.733-2.01 1.612-1.685 2.964-4.277 3.93-6.671zM104.825 15.49a3059 3059 0 0 1-6.183 16.584h12.049l-5.86-16.584zm6.444 34.534v-1.813c4.189-.517 4.703-1.168 3.802-3.632-.838-2.527-2.127-5.764-3.479-9.849H97.677c-1.029 2.917-2 5.445-2.9 8.1-1.417 4.213-.515 4.73 4.767 5.381v1.813H84.658v-1.813c4.057-.517 5.09-.97 7.345-6.805L105.34 7.39 107.403 7c4.056 11.081 8.506 23.325 12.563 34.534 2.062 5.637 2.64 6.154 7.217 6.677v1.813zM147.738 29.483c3.351 0 5.478-.518 7.09-1.877 2.513-1.878 3.542-4.47 3.542-7.968 0-6.932-4.576-9.46-9.535-9.46-1.866 0-2.964.262-3.415.646-.578.453-.774 1.103-.774 2.783v15.876zM171.51 50.54c-.838 0-1.548-.064-2.386-.128-4.704-.325-7.218-1.557-10.05-5.572-2.386-3.307-4.703-7.386-6.766-10.692-1.289-2.075-2.127-2.464-5.41-2.464h-2.253v10.17c0 5.508.71 5.828 5.865 6.35v1.814h-17.203v-1.813c5.346-.582 5.796-.843 5.796-6.352V16.002c0-5.51-.71-5.701-5.796-6.282V7.907h16.429c4.704 0 7.859.58 10.309 2.202 2.64 1.685 4.38 4.602 4.38 8.554 0 5.572-3.542 9.07-8.31 11.145 1.162 2.01 3.93 6.351 5.86 9.263 2.381 3.434 3.612 5.055 5.091 6.671 1.74 1.877 3.22 2.592 4.704 2.98l-.254 1.814zM177.763 7.912h17.204v1.813c-5.028.453-5.93.907-5.93 6.671v11.146c1.29-.128 2.769-1.168 4.64-2.981 3.607-3.435 7.929-7.84 10.888-11.21 1.93-2.202 1.74-3.045-1.029-3.434l-1.803-.192V7.912h15.655v1.813c-4.831.581-6.507.907-10.824 5.375-1.93 1.877-6.957 6.805-11.083 10.884 4.895 5.829 12.049 14.127 15.4 17.689 3.288 3.562 4.126 4.08 8.119 4.538v1.813h-10.31c-4.963-5.637-10.181-11.918-16.04-18.787-1.48-1.813-2.578-1.941-3.607-1.877v12.308c0 5.636.578 6.09 5.929 6.543v1.813h-17.203v-1.813c5.282-.453 5.796-.907 5.796-6.543V16.402c0-5.83-.45-6.282-5.796-6.672V7.917zM20.265 60.675v.728c-1.905.155-2.111.31-2.111 3.126v5.494c0 4.138 1.338 6.456 4.376 6.456 3.037 0 4.656-2.398 4.656-6.954V67.96c0-2.966-.127-4.427-.233-5.21-.127-.936-.852-1.247-2.497-1.354v-.728h6.28v.728c-1.285.054-1.957.418-2.084 1.355-.1.782-.233 2.238-.233 5.21v1.852c0 2.527-.466 4.69-1.879 6.226-1.132 1.248-2.963 1.955-4.762 1.955-1.592 0-3.296-.31-4.582-1.382-1.365-1.119-1.931-2.993-1.931-6.066V64.53c0-2.81-.207-2.971-2.265-3.126v-.728h7.265M40.806 60.675l10.27 12.244h.053v-4.952c0-2.966-.127-4.428-.233-5.21-.127-.937-.852-1.247-2.497-1.354v-.728h6.28v.728c-1.285.053-1.957.417-2.084 1.354-.1.782-.233 2.238-.233 5.21v9.846h-1.185L40.573 64.685h-.053v5.627c0 2.971.127 4.427.233 5.21.127.936.852 1.247 2.497 1.354v.728h-6.28v-.728c1.285-.054 1.957-.418 2.084-1.355.1-.782.233-2.238.233-5.21V65.21c0-3.02-.566-3.646-2.677-3.8v-.729h4.196zM68.474 60.675v.728c-1.958.155-2.164.364-2.164 3.175v9.117c0 2.811.206 3.02 2.164 3.175v.728h-7.26v-.728c2.006-.155 2.212-.364 2.212-3.175v-9.117c0-2.811-.206-3.02-2.212-3.175v-.728zM81.496 60.675v.728l-.826.128c-.979.129-1.031.31-.72 1.328.514 1.612 2.525 6.773 4.096 10.836 1.032-2.789 3.19-8.7 3.657-10.108.54-1.665.306-1.98-.826-2.11l-.772-.08v-.728h5.841v.728c-1.645.21-1.751.391-2.937 2.811-.259.52-3.45 8.23-5.428 13.546h-1.106c-1.752-4.69-4.196-11.094-5.175-13.701-.873-2.345-1.286-2.5-2.725-2.656v-.728H81.5zM108.889 60.675c.053.417.153 2.345.307 3.962l-.773.053c-.26-1.247-.566-1.98-.952-2.372-.44-.444-1.26-.6-2.858-.6h-1.285c-.98 0-1.032 0-1.032.938v5.52h2.212c2.211 0 2.264-.156 2.524-2.164h.825v5.52h-.825c-.26-2.055-.313-2.163-2.524-2.163h-2.212v4.273c0 1.51.1 2.238.566 2.58.466.311 1.392.338 2.471.338 1.286 0 2.471-.107 3.01-.755.44-.493.874-1.381 1.313-2.634l.773.155c-.1.883-.667 3.539-.873 4.272H96.994v-.728c2.212-.155 2.418-.364 2.418-3.175v-9.117c0-2.811-.206-3.02-2.164-3.175v-.728h11.641M122.604 69.321h.979c1.032 0 1.751-.155 2.418-.68 1.032-.835 1.392-2.082 1.392-3.335 0-2.71-1.852-3.646-3.498-3.646-1.238 0-1.286.107-1.286.937v6.719zm1.931-8.646c1.879 0 3.217.208 4.25.883 1.004.68 1.698 1.772 1.698 3.309 0 2.19-1.34 3.726-3.424 4.502.413.729 1.413 2.554 2.238 3.727.98 1.435 1.646 2.372 2.138 2.89.62.627 1.032 1.013 1.778 1.2l-.1.675-1.085-.054c-2.805-.209-3.683-.937-4.683-2.393-.826-1.2-1.672-2.864-2.418-4.219-.413-.728-.72-.99-1.492-.99h-.82v3.49c0 2.811.206 3.02 2.164 3.175v.728h-7.26v-.728c2.058-.155 2.265-.364 2.265-3.175v-9.117c0-2.811-.207-3.02-2.165-3.175v-.728h6.927zM147.547 64.663c-.466-1.51-1.26-3.335-3.423-3.335-1.699 0-2.625 1.247-2.625 2.736 0 1.488 1.032 2.425 3.01 3.335l.668.31c2.005.916 3.862 2.292 3.862 5.001 0 3.1-2.397 5.29-5.868 5.29a8 8 0 0 1-2.577-.444c-.72-.236-1.185-.445-1.492-.546-.206-.675-.513-2.447-.772-4.037l.772-.263c.513 1.355 1.905 4.246 4.556 4.246 1.672 0 2.704-1.328 2.704-2.945 0-1.456-.693-2.5-2.73-3.517l-.826-.418c-1.698-.883-3.863-2.265-3.863-4.818 0-2.736 2.032-4.974 5.482-4.974.693 0 1.625.101 2.344.364.413.155.773.209 1.085.337.1.91.254 2.056.513 3.518l-.825.155zM163.246 60.675v.728c-1.957.155-2.164.364-2.164 3.175v9.117c0 2.811.207 3.02 2.164 3.175v.728h-7.26v-.728c2.011-.155 2.212-.364 2.212-3.175v-9.117c0-2.811-.206-3.02-2.211-3.175v-.728zM169.94 64.792c.1-1.719.26-3.437.307-4.792h.465c.36.626.62.68 1.339.68h10.604c.672 0 .825-.155 1.238-.68h.413c.053 1.092.153 3.073.307 4.744l-.773.048c-.26-1.355-.566-2.03-.952-2.42-.44-.493-1.26-.653-2.858-.653h-1.338V73.7c0 2.816.206 3.02 2.576 3.18v.728h-7.926v-.728c2.265-.155 2.471-.364 2.471-3.18V61.719h-.873c-2.212 0-2.884.31-3.296.781-.307.364-.62 1.044-.926 2.292h-.778M196.941 60.675v.728l-1.084.155c-.667.102-.72.31-.307 1.146.619 1.253 2.264 4.4 3.323 6.12.799-1.382 2.211-4.193 2.984-5.965.44-.99.28-1.247-.62-1.355l-1.031-.107v-.728H206v.728c-1.545.156-1.778.472-2.857 2.19-.98 1.564-1.932 3.175-3.244 5.756-.26.47-.333.68-.333 1.563v2.79c0 2.81.206 3.02 2.524 3.174v.728h-7.826v-.728c2.212-.155 2.418-.364 2.418-3.175v-2.527c0-.546.026-.68-.36-1.408-.825-1.563-1.751-3.201-3.45-6.173-1.106-1.954-1.233-2.029-2.571-2.19v-.728h6.64zM270.447 11.774c-16.393 0-29.726 13.334-29.726 29.726 0 16.393 13.339 29.726 29.726 29.726s29.726-13.333 29.726-29.726c0-16.392-13.334-29.726-29.726-29.726m28.539 24.767-17.297-15.754c.74.165 1.522.351 2.283.554 1.468.393 2.543.85 3.59 1.292 1.209.511 2.347.995 3.9 1.283.687.127 1.448.228 2.235.319a28.8 28.8 0 0 1 5.289 12.306m-15.275 22.48c0 1.952 0 2.867.037 3.303-.117.086-.638.368-2.405.368-1.09 0-1.894-.293-2.745-.602-1-.361-2.033-.74-3.629-.74-2.468 0-4.341.873-4.9 1.166-.553-.293-2.426-1.165-4.9-1.165-1.596 0-2.628.378-3.623.74-.852.308-1.655.6-2.746.6-1.766 0-2.288-.281-2.405-.367.032-.441.032-1.35.038-3.304v-7.576c0-3.171-.006-6.331-.011-8.449v-2c.457.164 1.24.319 2.575.319 1.41 0 2.352-.357 3.267-.703.942-.356 1.83-.691 3.261-.691 2.57 0 4.353 1.197 4.368 1.208.112.074.261.074.373 0 .016-.011 1.798-1.208 4.368-1.208 1.431 0 2.32.335 3.262.691.91.346 1.856.703 3.266.703 1.336 0 2.118-.155 2.575-.32v1.99c0 2.118-.005 5.289-.01 8.46v7.576zm.67-15.606h.623s.042 0 .069-.005q.333-.07.548-.149v.5c0 1.852-.01 5.906-.01 9.97v7.577c0 1.91 0 2.82.031 3.272-.218.117-.963.405-2.985.405-1.51 0-2.543-.335-3.634-.687-1.08-.35-2.192-.707-3.772-.707-2.288 0-4.033.67-4.841 1.053v-1.553c.521-.272 2.287-1.08 4.565-1.08 1.479 0 2.452.356 3.4.702.91.33 1.766.644 2.974.644 2.463 0 2.931-.532 3.022-.766q.03-.08.02-.16c-.02-.522-.01-11.375 0-19.016zm-29.843 10.317c0-4.001-.01-7.992-.01-9.88v-.59q.222.077.548.148c.021 0 .042.005.064.005h.622c.01 7.64.021 18.494 0 19.016a.33.33 0 0 0 .021.16c.086.228.56.766 3.023.766 1.207 0 2.064-.314 2.974-.644.947-.346 1.92-.702 3.4-.702 2.277 0 4.043.808 4.564 1.08v1.553a11.5 11.5 0 0 0-4.841-1.053c-1.58 0-2.698.362-3.778.707-1.09.352-2.123.687-3.634.687-2.053 0-2.788-.298-2.984-.4.031-.446.031-1.361.031-3.277zm7.375-28.29c-.963.98-2 2.262-2.692 3.762a40 40 0 0 0-.964 2.33c-.819 2.113-1.596 4.103-3.17 5.497-1.027.91-2.214 1.803-3.363 2.665-1.208.905-2.346 1.767-3.299 2.629-1.298 1.176-2.59 4.24-3.554 6.826.17-.65.357-1.325.575-2.017l.149-.473c.393-1.293.936-3.06 1.787-4.342.782-1.17 2.118-2.367 3.528-3.628 1.628-1.458 3.315-2.97 4.15-4.507.468-.856.83-1.787 1.25-2.862.41-1.048.862-2.198 1.485-3.464l4.123-2.415zm-15.276 8.093 15.185-11.795q.297.31.617.596zm2.07 9.114c.942-.851 2.07-1.702 3.272-2.602 1.155-.867 2.352-1.766 3.39-2.686 1.649-1.463 2.479-3.597 3.288-5.661a41 41 0 0 1 .952-2.31c1.048-2.26 2.958-4.054 4.086-4.98l.92-.537q.09.048.187.096l-.66 3.203c-.729.755-1.506 1.601-2.054 2.336-.936 1.255-1.553 2.702-2.144 4.102-.654 1.543-1.277 3.006-2.25 4.006-2.294 2.352-3.911 3.075-5.342 3.714-1.054.468-2.043.915-3.129 1.91-1.548 1.426-3.032 4.299-4.235 6.858.963-2.676 2.362-6.21 3.725-7.443zm18.265-17.808q.431.128.878.224l-4.948 14.61-.24.08zm6.305 14.52a9.2 9.2 0 0 0-1.952.506c-.09-.5-.192-1.011-.293-1.538-.404-2.048-.867-4.373-.65-6.406.262-2.405.384-4.73.448-6.14l2.256 5.156c-.144.803-.277 1.564-.383 2.202-.41 2.405.048 4.422.574 6.22m.633-.074c-.521-1.756-.979-3.73-.59-6.044.064-.384.138-.81.218-1.261l3.32 7.576a8 8 0 0 0-2.235-.303c-.244 0-.484.016-.713.032m-3.953-7.406c-.223 2.096.245 4.453.655 6.533.111.553.218 1.096.308 1.618a8 8 0 0 0-.846.425 8 8 0 0 0-.893-.447c-.102-.425-.23-.856-.357-1.309-.49-1.676-1.085-3.767-.947-7.193l2.522-5.751a96 96 0 0 1-.442 6.124m-1.745 7.001c.085.298.17.58.24.857a9.3 9.3 0 0 0-2.937-.479c-.57 0-1.219.085-1.064.064l2.772-6.326c.058 2.655.564 4.426.99 5.89zm-6.768 1.325 16.893-.133-5.065-14.966s-.027 0-.064.01q.487-.094.958-.229l4.416 15.27c-.08-.032-.16-.058-.245-.09zm14.972-16.206q.13-.063.25-.133l.575.335c1.08.851 3.208 2.75 4.331 5.177.346.745.654 1.538.952 2.304.804 2.064 1.634 4.203 3.288 5.666 1.038.92 2.235 1.82 3.39 2.687 1.197.899 2.33 1.75 3.272 2.607 1.351 1.224 2.782 4.826 3.724 7.438-1.208-2.554-2.692-5.432-4.235-6.853-1.08-.995-2.075-1.442-3.129-1.91-1.43-.638-3.048-1.362-5.341-3.714-.974-1-1.596-2.458-2.25-4.006-.597-1.4-1.209-2.846-2.145-4.102-.553-.74-1.288-1.554-2.022-2.314zm16.345 18.329c-.958-.867-2.096-1.724-3.304-2.628-1.15-.862-2.336-1.756-3.363-2.666-1.574-1.394-2.351-3.39-3.17-5.501-.304-.772-.612-1.57-.964-2.33-.723-1.565-1.825-2.895-2.825-3.89l4.22 2.469c.638 1.293 1.1 2.468 1.516 3.538.42 1.08.787 2.011 1.25 2.868.835 1.537 2.522 3.043 4.15 4.506 1.41 1.266 2.745 2.458 3.528 3.629.856 1.282 1.399 3.054 1.793 4.341l.143.474c.213.686.405 1.367.575 2.016-.958-2.586-2.256-5.645-3.554-6.82zm-13.918-19.984q.32-.287.617-.59l15.142 11.763-15.76-11.168zm12.444-.942c-1.213-.468-2.511-1.01-3.964-1.617q-.86-.361-1.793-.745a23 23 0 0 0-1.702-.622l3.336-.554a29 29 0 0 1 4.118 3.544zm-9.23-5.857 1.175-.038q.695.347 1.367.724l-2.596.202q.047-.438.053-.883zm.819 3.027c.76.213 1.596.484 2.495.857q.925.384 1.788.744c1.782.745 3.351 1.4 4.793 1.932.415.457.809.936 1.192 1.42-.548-.069-1.08-.149-1.57-.24-1.484-.276-2.596-.744-3.766-1.239-1.064-.452-2.16-.915-3.672-1.32a71 71 0 0 0-3.33-.787c.213-.362.394-.734.558-1.117zm-22.783-4.129a28.8 28.8 0 0 1 10.348-1.915c3.645 0 7.439.745 10.77 2.085q.047.414.047.836c0 5.038-4.762 9.14-10.62 9.14s-10.62-4.102-10.62-9.14c0-.34.027-.67.07-1zm-1.995.846 1.133.043c0 .037-.005.069-.005.106 0 .26.021.522.048.782l-2.591-.218c.463-.25.936-.484 1.415-.713M241.466 41.5c0-10.003 5.097-18.83 12.828-24.038l3.31.548c-.586.186-1.209.404-1.863.676q-.933.382-1.793.75c-1.458.612-2.772 1.16-3.99 1.628-.15.149-.288.303-.431.452-.08.085-.165.17-.245.26 1.452-.537 3.038-1.196 4.836-1.946.575-.24 1.17-.49 1.793-.745a22 22 0 0 1 2.671-.905l1.165.192c.16.447.362.872.59 1.293-1.069.202-2.154.441-3.191.718-1.512.404-2.608.867-3.672 1.32-1.175.5-2.282.968-3.767 1.24-.516.095-1.074.175-1.654.25q-.08.096-.16.201-.2.246-.394.5c.82-.09 1.607-.196 2.32-.33 1.554-.287 2.692-.77 3.9-1.282 1.043-.441 2.123-.899 3.591-1.293.713-.191 1.89-.654 2.874-.755l-18.292 16.664-.048.298 14.993-8.774c-.436.958-.782 1.841-1.101 2.666-.415 1.059-.772 1.974-1.219 2.793-.782 1.442-2.426 2.91-4.017 4.336-1.442 1.293-2.804 2.512-3.628 3.751-.91 1.362-1.464 3.182-1.868 4.507l-.144.473a49 49 0 0 0-1.303 5.246q.264.663.553 1.31c.218-.453.452-.97.719-1.539 1.287-2.793 3.048-6.618 4.841-8.273 1.006-.926 1.91-1.33 2.958-1.798 1.48-.66 3.16-1.41 5.534-3.847 1.059-1.085 1.697-2.596 2.378-4.198.58-1.367 1.181-2.777 2.07-3.969.35-.474.835-1.01 1.298-1.516l-2.448 11.843c-.702.25-1.441.447-2.452.447-2.144 0-2.634-.42-2.64-.42-.084-.117-.233-.165-.366-.117a.34.34 0 0 0-.23.314v2.33h-.59c-.548-.117-.723-.25-.729-.25a.33.33 0 0 0-.367-.101.33.33 0 0 0-.218.308v1.134h-.729v20.877c-7.081-5.288-11.673-13.732-11.673-23.224zm14.913 25.326 11.046-1.011s-.16.133-.16.473c0 .724.74.777.74.777h4.134s.74-.053.74-.777c0-.346-.16-.473-.16-.473l11.684 1.07a28.77 28.77 0 0 1-13.956 3.596c-5.06 0-9.896-1.33-14.062-3.655zm30.625-1.57v-21.41h-.729v-1.133a.34.34 0 0 0-.207-.32.31.31 0 0 0-.357.091s-.165.144-.745.266h-.59v-2.33c0-.144-.085-.282-.218-.325a.32.32 0 0 0-.362.107s-.468.441-2.655.441c-.5 0-.931-.047-1.325-.127l-2.532-12.264c.463.553.915 1.107 1.298 1.623.888 1.191 1.49 2.601 2.07 3.969.68 1.601 1.319 3.112 2.378 4.198 2.373 2.436 4.054 3.187 5.533 3.846 1.048.469 1.953.873 2.958 1.799 1.793 1.65 3.554 5.475 4.842 8.273l.57 1.23a29.17 29.17 0 0 1-9.945 12.06zm9.338-18.308-.144-.468c-.404-1.33-.963-3.15-1.873-4.512-.824-1.24-2.186-2.458-3.628-3.75-1.591-1.427-3.235-2.895-4.017-4.337-.447-.82-.804-1.734-1.219-2.793a53 53 0 0 0-1.133-2.74l14.738 8.624c.234 1.474.356 2.985.356 4.528 0 3.597-.665 7.039-1.867 10.22a49 49 0 0 0-1.213-4.772M234.033 39.58c-1.165.425-1.463 1.186-1.431 2.213.059 1.862 1.468 2.687 2.921 2.639 1.862-.059 3.075-1.203 3.027-2.81-.037-1.207-.617-1.809-1.713-2.4l.059-.435c.548.138 1.362.377 1.755.558.08.335.33 1.415.357 2.25.106 3.23-1.564 4.566-3.187 4.619-1.985.064-3.58-1.761-3.671-4.613-.032-1.027.138-1.846.191-2.187.554-.117.995-.18 1.623-.271l.075.431zM237.752 34.908c.719.149.947.149 1.091-.08.112-.186.186-.505.266-.872.096-.463.149-1.017-.037-1.341-.15-.229-.426-.484-.857-.772l.16-.41c.372.155 1.33.602 1.57.761l-1.187 5.65-.314-.068c.144-.985.096-1.091-.968-1.314l-3.395-.713c-1.07-.224-1.154-.144-1.405.744l-.313-.069.744-3.554.314.064c-.133.936-.085 1.043.98 1.266l3.357.703zM238.907 27.757l.766-1.59-2.25-.118-.017.032zm2.98-.702.1-.298c.15-.426.075-.527-.404-.532-.367 0-.942-.021-1.357-.021l-.925 1.93c.202.256.532.591.856.921.378.383.484.41.772-.069l.16-.26.292.138-1.187 2.463-.292-.138c.25-.686.271-.851-.362-1.623l-3.613-4.448.128-.596 2.038.096c1.303.064 2.612.101 3.73.128 1.037.032 1.165-.123 1.5-.676l.292.138-1.436 2.99-.293-.138z"/><path d="m242.977 19.808.223-.271c.32-.383.474-.676.511-1.022.064-.564-.186-1.005-.564-1.324-.766-.639-1.58-.23-2.016.287-.362.436-.362.484-.053.745zm1.282 1.07c.836.697.953.67 1.57.021l.25.208-2.256 2.702-.25-.207c.543-.745.553-.867-.287-1.564l-2.666-2.224c-.835-.697-.952-.67-1.554-.038l-.25-.207 2.102-2.517c.66-.787 1.15-1.234 1.65-1.442a1.44 1.44 0 0 1 1.51.219c.676.564.681 1.388.309 2.293.324.048 1.144.138 1.734.17.676.027 1.187.027 1.49 0 .325-.043.516-.101.777-.282l.218.213-.293.324c-1 1.086-1.463 1.235-2.218 1.224-.596-.01-1.261-.122-1.884-.229-.367-.069-.537.01-.776.298l-.176.213 1 .835zM250.192 15.238c.617.9.755.883 1.548.388l.186.261-2.846 2.048-.187-.26c.66-.554.697-.665.064-1.548l-2.027-2.815c-.633-.883-.755-.883-1.537-.4l-.192-.26 2.852-2.048.186.26c-.67.56-.708.67-.075 1.554l.974 1.352c.192-.708.628-2.687.713-3.406.059-.5-.005-.569-.287-.399l-.394.234-.191-.26 2.505-1.804.187.26c-.575.49-.73.65-1.011 1.597-.277.92-.522 1.766-.692 2.56 1.261.26 2.549.515 3.794.696.814.112 1.053.101 1.484-.149l.192.26-1.937 1.395c-.644-.17-2.825-.612-4.262-.91l-.032.021.985 1.368zM258.81 5.124l.097.308c-.814.314-.889.41-.564 1.453l.611 1.984c.469 1.511 1.31 2.15 2.57 1.761 1.368-.42 1.735-1.473 1.224-3.133l-.197-.634c-.314-1.01-.548-1.521-.68-1.803-.16-.32-.49-.357-1.262-.15l-.096-.308 2.868-.883.096.309c-.575.197-.809.42-.76.771.047.314.137.862.451 1.878l.218.703c.288.925.378 1.835-.095 2.601-.367.612-1.123 1.128-1.932 1.378-.76.234-1.585.351-2.277.133-.74-.223-1.218-.835-1.57-1.963l-.67-2.176c-.319-1.043-.436-1.08-1.33-.867l-.096-.309 3.4-1.048zM272.745 9.822l-.74.021-4.947-4.762h-.027l.07 2.086c.031 1.059.122 1.612.18 1.92.075.352.378.474 1.176.474l.01.325-3 .095-.01-.324c.606-.043.888-.192.936-.543.037-.314.09-.872.058-1.926l-.064-1.995c-.021-.644-.026-.889-.255-1.123-.24-.234-.543-.292-1.038-.308l-.01-.325 2.107-.07 4.815 4.38h.021l-.059-1.772c-.037-1.059-.122-1.612-.186-1.92-.069-.352-.378-.474-1.176-.474l-.01-.325 3-.1.011.324c-.606.037-.888.191-.936.548-.037.314-.09.872-.059 1.926l.128 3.857zM277.32 8.976c-.196 1.07-.11 1.16.756 1.378l-.058.319-3.501-.638.059-.32c.888.101 1 .048 1.197-1.021l.622-3.41c.197-1.07.112-1.16-.755-1.379l.058-.319 3.501.639-.058.319c-.889-.101-1-.048-1.198 1.021zM281.519 11.854c-.139-2-.32-4.735-.389-5.778-.063-1.016-.244-1.154-.819-1.442l.117-.303 3.25 1.25-.116.304-.4-.112c-.435-.112-.505-.043-.494.404.01.612.18 2.804.282 4.326.702-.681 2.384-2.49 2.735-2.863.505-.542.452-.68-.037-.92l-.33-.16.117-.303 2.665 1.021-.117.304c-.723-.202-.867-.202-1.697.537-.117.107-2.591 2.362-4.177 3.959l-.596-.23zM288.68 9.545c.59-.915.543-1.027-.154-1.548l.175-.272 4.677 3.001a82 82 0 0 0-.74 1.394l-.382-.207c.154-.463.191-.772.117-1.017-.07-.25-.373-.516-.974-.899l-.4-.255c-.387-.25-.409-.26-.6.037l-1.118 1.74.745.479c.878.564.937.537 1.463-.064l.368.234-1.192 1.857-.367-.234c.33-.734.324-.798-.548-1.362l-.745-.48-.857 1.336c-.399.618-.473.825-.314 1.043.128.181.405.357.82.623.468.303.968.548 1.324.49.272-.043.623-.224 1.043-.528l.33.293c-.271.293-1.032 1.027-1.272 1.197l-5.027-3.23.175-.27c.867.483.99.478 1.575-.442l1.873-2.921zM295.028 16.61l.244.25c.346.357.623.543.963.623.554.123 1.022-.074 1.378-.415.719-.691.4-1.548-.069-2.032-.394-.41-.441-.415-.734-.133l-1.782 1.713zm-1.208 1.166c-.782.755-.766.872-.192 1.559l-.234.223-2.442-2.538.234-.223c.681.622.798.644 1.586-.112l2.5-2.405c.788-.755.766-.872.208-1.543l.234-.223 2.277 2.362c.713.74 1.101 1.277 1.256 1.799.154.52.032 1.08-.383 1.479-.633.606-1.453.526-2.31.058-.085.32-.26 1.128-.356 1.708-.101.665-.154 1.176-.16 1.48.011.329.048.526.197.797l-.234.192-.287-.33c-.974-1.112-1.07-1.591-.974-2.336.075-.59.261-1.245.431-1.846.107-.357.048-.532-.213-.803l-.191-.203-.937.905zM298.092 22.101c-.367.469-.92 1.618-.292 2.64.42.68 1.074.803 1.564.5.585-.362.633-.916.436-1.873l-.048-.256c-.213-1.058-.17-2.101.65-2.601.92-.564 2.207-.181 3.09 1.25.192.309.362.66.463 1.021.059.192.117.368.16.511-.287.234-.628.543-1.08.963l-.287-.335c.377-.516.798-1.202.26-2.08-.388-.628-.995-.766-1.473-.474-.437.272-.511.84-.325 1.745l.085.405c.213 1.005.229 2.048-.697 2.617-1.01.623-2.378.139-3.288-1.34a5 5 0 0 1-.505-1.128 7 7 0 0 1-.187-.74c.17-.218.692-.708 1.134-1.138l.34.303zM301.71 29.896c-1.01.404-1.043.521-.766 1.373l-.298.122-1.325-3.304.298-.122c.389.808.49.872 1.5.468l3.22-1.288c1.01-.404 1.037-.521.76-1.372l.298-.123 1.325 3.304-.298.123c-.388-.81-.49-.873-1.5-.469l-3.22 1.293zM303.328 35.908c-1.07.208-1.118.32-.974 1.4l-.314.063-.745-3.825.314-.064c.26 1.01.346 1.09 1.415.883l4.475-.872-.059-.298c-.186-.963-.367-1.261-.569-1.405-.17-.128-.473-.218-.995-.26l-.085-.426c.713-.09 1.41-.155 1.92-.229l.043.223c-.186.261-.18.384-.122.703l.931 4.772c.058.309.144.426.378.607l.042.223c-.415.096-1.176.304-1.835.495l-.112-.42c.51-.224.76-.41.883-.628.133-.224.112-.628-.021-1.325l-.096-.49zM303.578 43.133c-1.091-.026-1.16.07-1.25 1.134h-.325l.096-3.858h.324c.037 1.027.106 1.123 1.192 1.15l.92.02c.272.006.357-.036.58-.153.59-.314 1.24-.745 2.405-1.49.772-.49.782-.575.857-1.192h.324l-.085 3.336h-.324l-.048-.505c-.032-.304-.101-.33-.431-.144-.777.452-1.564.915-2.315 1.383.575.389 1.538.958 2.198 1.325.377.218.463.154.51-.277l.054-.457h.319l-.07 2.825h-.318c-.043-.76-.128-.873-.815-1.394-.585-.452-1.085-.873-1.963-1.415-.346-.213-.388-.25-.809-.261zM245.685 62.202l-.234.15c-.495-.65-.543-.666-1.33-.118l-2.448 1.713c-.792.548-.798.58-.41 1.298l-.233.15-1.623-2.496.234-.149c.468.612.51.623 1.309.09l2.703-1.792-.022-.038-4.985.543-.191-.298 2.378-4.16-.01-.017-1.842 1.097c-.643.383-1.032.654-1.234.84-.245.208-.192.436.138 1.027l-.234.149-1.34-2.07.233-.149c.298.4.474.511.777.389a12 12 0 0 0 1.426-.703l1.538-.85c1.01-.56 1.048-.682.628-1.437l.234-.15 1.138 1.756-2.117 3.906 4.363-.447 1.149 1.771zM244.621 67.225c-.585.542-.654.745-.149 1.298 1.016 1.101 2.357 1.123 3.432.133 1.372-1.266 1.027-2.495.026-3.58-.207-.219-.377-.373-.447-.394-.069-.022-.207.095-.383.25l-2.479 2.287zm3.772-2.192c.814.878 1.373 1.803 1.437 2.692.048.622-.15 1.357-.718 1.883-1.57 1.447-3.586.633-5.246-1.165l-1.788-1.931.202-.186c.59.558.692.58 1.378-.054l2.192-2.021c.686-.634.676-.735.218-1.31l.202-.186 2.113 2.288zM255.544 71.907c.197-1.048-.234-1.607-1.006-2.033-1.404-.776-2.633-.095-3.234 1-.777 1.405-.463 2.804.744 3.475.91.505 1.607.34 2.528-.213l.298.234c-.346.346-.884.84-1.187 1.048-.282-.09-1.192-.383-1.82-.729-2.43-1.34-2.686-3.165-2.01-4.389.824-1.495 2.872-1.873 5.022-.686.771.425 1.304.915 1.532 1.101-.16.458-.303.814-.516 1.32l-.351-.134zM261.966 74.344c-.016-1.065-.548-1.527-1.394-1.788-1.527-.479-2.602.43-2.974 1.623-.48 1.532.1 2.84 1.426 3.256.995.314 1.644.016 2.436-.708l.341.17c-.266.405-.697 1-.952 1.267-.298-.032-1.245-.139-1.932-.351-2.655-.83-3.267-2.57-2.846-3.9.51-1.628 2.442-2.405 4.788-1.671.846.266 1.458.638 1.719.777-.064.479-.139.856-.24 1.399l-.372-.064zM268.968 75.45c-.202-1.048-.809-1.404-1.687-1.516-1.59-.202-2.485.883-2.639 2.123-.202 1.59.607 2.777 1.98 2.953 1.032.133 1.617-.277 2.271-1.128l.367.106c-.191.447-.505 1.107-.713 1.415-.298.022-1.25.085-1.963 0-2.756-.35-3.666-1.952-3.49-3.336.213-1.697 1.98-2.798 4.416-2.495.878.112 1.548.373 1.83.458.021.484.016.867.01 1.415h-.377zM272.474 78.052c.037.633.09.82.314.888.18.048.463.043.782.022.404-.022.878-.107 1.107-.335.154-.176.308-.463.447-.889l.377.037c-.042.34-.197 1.235-.276 1.474l-4.954.293-.016-.277c.852-.101.926-.17.873-1.107l-.176-2.98c-.053-.936-.143-.989-.936-.994l-.016-.277 3.118-.18.016.276c-.81.101-.889.165-.83 1.101l.175 2.943zM280.013 77.988l.277-.096c.372-.138.367-.244.122-.457a84 84 0 0 0-1.553-1.288c-.304.676-.591 1.522-.692 1.804-.08.207-.144.457.255.394l.383-.059.07.271-2.538.628-.064-.271c.532-.176.777-.282.973-.607.16-.26.841-1.59 1.24-2.452l-1.953-1.565c-.532-.42-.649-.457-1.34-.345l-.07-.272 2.97-.734.069.271-.314.112c-.314.112-.336.165-.165.325.095.09.798.707 1.372 1.133.208-.426.463-1.032.655-1.564.1-.277.106-.346-.277-.288l-.351.054-.07-.272 2.416-.596.07.272c-.666.228-.777.282-1.118.856a23 23 0 0 0-.968 1.815l2.33 1.824c.575.458.724.447 1.389.336l.07.271-3.124.771zM287.127 75.36l.25-.15c.34-.207.314-.313.026-.473-.202-.111-.59-.324-1.777-.947-.165.724-.271 1.612-.314 1.91-.032.218-.048.474.33.33l.362-.133.117.25-2.357 1.128-.122-.25c.49-.282.707-.43.835-.793.106-.292.5-1.729.718-2.65l-2.229-1.138c-.607-.303-.729-.314-1.383-.069l-.123-.25 2.762-1.32.122.25-.287.176c-.288.176-.293.229-.096.351.117.07.92.527 1.575.836a17 17 0 0 0 .324-1.666c.048-.292.032-.362-.33-.229l-.335.123-.122-.25 2.245-1.07.123.25c-.602.357-.703.431-.92 1.064-.16.48-.4 1.214-.58 1.97l2.649 1.319c.654.33.798.292 1.431.047l.122.25-2.9 1.39-.122-.25zM293.564 71.348l.219-.197c.287-.271.244-.367-.07-.468-.223-.07-.643-.197-1.93-.57-.017.74.058 1.629.079 1.932.01.218.048.474.388.255l.33-.207.17.223-2.085 1.575-.165-.223c.42-.373.601-.564.654-.942.043-.303.144-1.793.17-2.74l-2.41-.665c-.654-.176-.776-.165-1.367.207l-.165-.223 2.442-1.846.17.223-.244.23c-.245.228-.245.281-.022.366.128.048 1.011.335 1.708.5.022-.473.016-1.133-.016-1.692-.016-.292-.037-.361-.367-.16l-.303.187-.17-.223 1.984-1.5.17.223c-.521.468-.606.564-.691 1.229a21 21 0 0 0-.176 2.048l2.863.76c.707.192.84.129 1.41-.239l.164.224-2.564 1.942-.165-.224z"/><path d="M298.826 66.916a602 602 0 0 1-4.772-1.42c-.84-.256-1-.15-1.405.228l-.207-.186 1.984-2.245.208.186-.208.287c-.223.32-.186.394.181.522.495.175 2.315.697 3.57 1.064-.34-.772-1.293-2.666-1.484-3.06-.282-.569-.41-.569-.756-.25l-.223.219-.208-.181 1.628-1.841.208.18c-.383.528-.426.64-.074 1.528.047.127 1.127 2.798 1.936 4.554l-.367.415zM301.848 60.553c.788.5.889.463 1.341-.16l.234.15-1.638 2.585-.234-.15c.367-.675.361-.781-.426-1.281l-2.522-1.602c-.793-.5-.889-.463-1.34.16l-.235-.15 1.639-2.58.234.15c-.367.675-.362.782.43 1.282l2.523 1.601zM303.743 57.015c.84.415.93.367 1.32-.304l.25.123-1.347 2.745-.25-.122c.293-.713.277-.814-.57-1.23l-2.676-1.313c-.84-.41-.93-.362-1.319.303l-.25-.123 1.346-2.745.25.122c-.293.713-.277.814.564 1.23l2.676 1.314zM237.62 53.663a7 7 0 0 0-.634-.681 2.5 2.5 0 0 0-.479-.362 2.5 2.5 0 0 0-.569-.186 8 8 0 0 0-.936-.123l-.038-.111q.446-.383.692-.644.246-.265.356-.474.11-.216.181-.569.07-.351.117-.926l.112-.037c.245.293.458.527.633.686q.263.246.48.357c.143.074.329.133.568.18.235.049.543.091.937.123l.037.112a8 8 0 0 0-.692.644 2.2 2.2 0 0 0-.356.478q-.113.215-.186.564a8 8 0 0 0-.117.926l-.112.037zM305.18 48.885q.063.568.143.92c.053.234.117.42.197.57q.12.214.367.468c.165.17.404.378.707.622l-.032.117a9 9 0 0 0-.936.15q-.35.078-.564.196a2.2 2.2 0 0 0-.468.373q-.257.255-.617.702l-.117-.032a9 9 0 0 0-.139-.926 2.4 2.4 0 0 0-.197-.564 2.5 2.5 0 0 0-.367-.468 9 9 0 0 0-.707-.628l.032-.117c.388-.042.702-.09.93-.143a2.4 2.4 0 0 0 .565-.197q.214-.112.468-.367.257-.256.617-.703l.117.032z"/><path d="M270.5 0C247.616 0 229 18.616 229 41.5S247.616 83 270.5 83 312 64.384 312 41.5 293.384 0 270.5 0m0 82.074c-22.41 0-40.574-18.164-40.574-40.574S248.09.926 270.5.926 311.074 19.09 311.074 41.5 292.91 82.074 270.5 82.074"/><path d="M265.046 49.997c.878-.059.969-.133.969-1.15V45.56c0-1.017-.09-1.091-.969-1.15v-.26h3.182v.26c-.856.059-.947.133-.947 1.15v3.288c0 1.016.09 1.09.947 1.149v.26h-3.182zM259.045 49.997c.835-.059.926-.133.926-1.15V45.56c0-1.017-.09-1.091-.926-1.15v-.26h5.097c.021.149.07.846.133 1.394l-.34.037c-.112-.431-.25-.697-.416-.835-.191-.16-.553-.219-1.255-.219h-.585c-.431 0-.453 0-.453.34v2.087h1.128c.969 0 .995-.059 1.107-.756h.362v1.926h-.362c-.112-.708-.133-.745-1.107-.745h-1.128v1.469c0 1.016.09 1.09 1.128 1.149v.26h-3.314v-.26zM265.015 58.568h-5.29v-.26c.948-.059 1.038-.134 1.038-1.15V53.87c0-1.016-.09-1.09-.994-1.149v-.26h3.25v.26c-.904.058-.995.133-.995 1.15v3.271c0 .543.07.809.261.92.192.112.564.134.926.134.521 0 1.059-.037 1.298-.272.192-.175.373-.5.553-.952l.362.059c-.069.298-.314 1.26-.41 1.543zM273 52.721c-.563.021-.856.149-.915.49-.042.281-.1.808-.1 1.878v.665c0 .91-.203 1.692-.825 2.245-.495.452-1.298.702-2.086.702-.697 0-1.442-.112-2.006-.5-.601-.404-.846-1.08-.846-2.192v-2.17c0-1.017-.09-1.07-.995-1.129v-.26h3.182v.26c-.835.059-.926.112-.926 1.128v1.985c0 1.495.586 2.33 1.916 2.33s2.043-.867 2.043-2.511v-.564c0-1.07-.059-1.596-.101-1.878-.059-.34-.373-.452-1.096-.49v-.26h2.75v.26zM281.008 58.568h-3.272v-.26l.314-.038c.43-.037.441-.149.271-.415-.133-.207-.473-.66-1.42-1.9-.586.714-1.15 1.618-1.31 1.842-.159.229-.223.452.203.473l.426.038v.26h-2.756v-.26c.633-.059.904-.112 1.218-.431.229-.23 1.26-1.448 1.92-2.294l-1.6-2.107c-.464-.611-.586-.675-1.358-.75v-.26h3.113v.26l-.362.038c-.362.037-.452.111-.271.34.09.112.675.942 1.229 1.628.362-.441.835-1.064 1.149-1.553.18-.282.18-.378-.223-.415l-.384-.038v-.26h2.629v.26c-.745.075-.857.075-1.4.65-.34.356-.877.952-1.468 1.702l1.915 2.485c.495.638.655.697 1.421.75v.26zM281.508 45.634c-.112-.49-.25-.734-.415-.873-.191-.18-.553-.234-1.25-.234h-.585v4.326c0 1.016.09 1.09 1.127 1.15v.26h-3.474v-.26c.995-.06 1.086-.134 1.086-1.15v-4.326h-.383c-.969 0-1.261.112-1.442.282-.133.133-.272.378-.405.83h-.34c.042-.622.112-1.24.133-1.729h.202c.16.224.271.245.585.245h4.65c.293 0 .362-.059.543-.245h.18c.022.394.07 1.112.134 1.713l-.34.016zM274.804 49.04c-.43-.943-.925-2.108-1.43-3.252l-.778-1.75-.452.112-2.277 4.89c-.394.845-.516.882-1.219.957v.26h2.506v-.26l-.314-.027c-.494-.048-.585-.17-.383-.665.16-.394.362-.92.511-1.202h2.086c.234.49.505 1.07.617 1.356.138.357.112.453-.314.506l-.314.037v.26h2.969v-.26c-.654-.058-.814-.122-1.197-.958zm-3.724-1.374.883-2.07h.032l.878 2.07zM18.498 100.156c1.079 0 1.924-.416 2.626-1.222l-.767-.884c-.455.494-1.027.793-1.755.793-1.469 0-2.418-1.17-2.418-3.107 0-1.898 1.014-3.081 2.379-3.081.65 0 1.17.247 1.612.676l.806-.91a3.28 3.28 0 0 0-2.457-1.079c-2.145 0-3.887 1.651-3.887 4.433 0 2.821 1.703 4.381 3.861 4.381m5.069-.156h5.252v-1.274h-3.744v-2.509h3.055v-1.274h-3.055v-2.171h3.614v-1.274h-5.122zm7.994 0h1.443v-3.718c0-.962-.104-2.002-.208-2.886h.052c.26.676.572 1.352.884 1.924L36.28 100h1.651v-8.502h-1.443v3.718c0 .936.104 1.976.182 2.886h-.052c-.26-.676-.546-1.352-.858-1.924l-2.548-4.68h-1.651zm11.257 0h1.508v-7.228h2.457v-1.274h-6.422v1.274h2.457zm6.382 0h5.252v-1.274h-3.744v-2.509h3.055v-1.274h-3.055v-2.171h3.614v-1.274H49.2zm7.994 0h1.508v-3.328h1.3L61.835 100h1.69l-2.028-3.549c1.014-.351 1.69-1.131 1.69-2.431 0-1.898-1.352-2.522-3.12-2.522h-2.873zm1.508-4.524v-2.769h1.209c1.157 0 1.794.338 1.794 1.313 0 .962-.637 1.456-1.794 1.456zM69.49 100h1.508v-3.549h3.094v-1.274h-3.094v-2.405h3.627v-1.274H69.49zm10.802.156c2.223 0 3.757-1.69 3.757-4.446 0-2.743-1.534-4.368-3.757-4.368-2.21 0-3.744 1.625-3.744 4.368 0 2.756 1.534 4.446 3.744 4.446m0-1.313c-1.339 0-2.197-1.222-2.197-3.133 0-1.898.858-3.055 2.197-3.055s2.197 1.157 2.197 3.055c0 1.911-.858 3.133-2.197 3.133m6.46 1.157h1.508v-3.328h1.3L91.393 100h1.69l-2.028-3.549c1.014-.351 1.69-1.131 1.69-2.431 0-1.898-1.352-2.522-3.12-2.522h-2.873zm1.508-4.524v-2.769h1.209c1.157 0 1.794.338 1.794 1.313 0 .962-.637 1.456-1.794 1.456zm14.35 4.68c1.157 0 2.145-.442 2.717-1.014v-3.744h-2.964v1.235h1.612v1.833c-.273.247-.741.377-1.222.377-1.703 0-2.6-1.17-2.6-3.107 0-1.911 1.014-3.081 2.522-3.081.793 0 1.287.273 1.716.689l.806-.923c-.533-.559-1.365-1.079-2.574-1.079-2.262 0-4.017 1.651-4.017 4.433 0 2.821 1.703 4.381 4.004 4.381m5.602-.156h5.252v-1.274h-3.744v-2.509h3.055v-1.274h-3.055v-2.171h3.614v-1.274h-5.122zm11.296.156c2.223 0 3.757-1.69 3.757-4.446 0-2.743-1.534-4.368-3.757-4.368-2.21 0-3.744 1.625-3.744 4.368 0 2.756 1.534 4.446 3.744 4.446m0-1.313c-1.339 0-2.197-1.222-2.197-3.133 0-1.898.858-3.055 2.197-3.055s2.197 1.157 2.197 3.055c0 1.911-.858 3.133-2.197 3.133m8.943 1.313c1.924 0 3.055-1.144 3.055-2.522 0-1.235-.689-1.872-1.716-2.301l-1.157-.481c-.702-.286-1.352-.533-1.352-1.196 0-.624.533-1.001 1.339-1.001.65 0 1.274.273 1.82.715l.793-.988a3.8 3.8 0 0 0-2.613-1.04c-1.677 0-2.86 1.04-2.86 2.392 0 1.235.871 1.911 1.716 2.262l1.17.507c.767.325 1.313.546 1.313 1.248 0 .663-.52 1.092-1.482 1.092a3.36 3.36 0 0 1-2.275-.923l-.819.988c.806.806 1.885 1.248 3.068 1.248m5.602-.156h1.508v-3.12h1.222c1.833 0 3.237-.871 3.237-2.756 0-1.976-1.404-2.626-3.289-2.626h-2.678zm1.508-4.329v-2.964h1.053c1.261 0 1.924.351 1.924 1.417 0 1.04-.611 1.547-1.872 1.547zm8.228-.195c.273-.897.52-1.859.754-2.808h.052c.247.936.494 1.911.767 2.808l.299 1.04h-2.171zM140.942 100h1.534l.663-2.301h2.86l.663 2.301h1.586l-2.769-8.502h-1.768zm10.243 0h1.508v-7.228h2.457v-1.274h-6.422v1.274h2.457zm6.382 0h1.508v-8.502h-1.508zm6.408-4.524c.273-.897.52-1.859.754-2.808h.052c.247.936.494 1.911.767 2.808l.299 1.04h-2.171zM161.128 100h1.534l.663-2.301h2.86l.663 2.301h1.586l-2.769-8.502h-1.768zm9.359 0h5.044v-1.274h-3.536v-7.228h-1.508zm12.868-4.524c.273-.897.52-1.859.754-2.808h.052c.247.936.494 1.911.767 2.808l.299 1.04h-2.171zM180.508 100h1.534l.663-2.301h2.86l.663 2.301h1.586l-2.769-8.502h-1.768zm9.359 0h1.443v-3.718c0-.962-.104-2.002-.208-2.886h.052c.26.676.572 1.352.884 1.924l2.548 4.68h1.651v-8.502h-1.443v3.718c0 .936.104 1.976.182 2.886h-.052c-.26-.676-.546-1.352-.858-1.924l-2.548-4.68h-1.651zm11.283-4.524c.273-.897.52-1.859.754-2.808h.052c.247.936.494 1.911.767 2.808l.299 1.04h-2.171zM198.303 100h1.534l.663-2.301h2.86l.663 2.301h1.586l-2.769-8.502h-1.768zm9.359 0h5.044v-1.274h-3.536v-7.228h-1.508zm7.89 0h1.508v-3.159l2.561-5.343h-1.573l-.923 2.171c-.247.637-.507 1.222-.78 1.872h-.052q-.39-.93-.754-1.872l-.923-2.171h-1.612l2.548 5.343zm7.604 0h1.508v-7.228h2.457v-1.274h-6.422v1.274h2.457zm6.382 0h1.508v-8.502h-1.508zm8.085.156c1.079 0 1.924-.416 2.626-1.222l-.767-.884c-.455.494-1.027.793-1.755.793-1.469 0-2.418-1.17-2.418-3.107 0-1.898 1.014-3.081 2.379-3.081.65 0 1.17.247 1.612.676l.806-.91a3.28 3.28 0 0 0-2.457-1.079c-2.145 0-3.887 1.651-3.887 4.433 0 2.821 1.703 4.381 3.861 4.381m7.214 0c1.924 0 3.055-1.144 3.055-2.522 0-1.235-.689-1.872-1.716-2.301l-1.157-.481c-.702-.286-1.352-.533-1.352-1.196 0-.624.533-1.001 1.339-1.001.65 0 1.274.273 1.82.715l.793-.988a3.8 3.8 0 0 0-2.613-1.04c-1.677 0-2.86 1.04-2.86 2.392 0 1.235.871 1.911 1.716 2.262l1.17.507c.767.325 1.313.546 1.313 1.248 0 .663-.52 1.092-1.482 1.092a3.36 3.36 0 0 1-2.275-.923l-.819.988c.806.806 1.885 1.248 3.068 1.248"/></g></svg>