<svg xmlns="http://www.w3.org/2000/svg" xmlns:xlink="http://www.w3.org/1999/xlink" width="486" height="81" viewBox="0 0 486 81"><title>21_CCS_Blue</title><defs><path id="a" d="M0 0h485.057v33.871H0z"/></defs><g fill="none" fill-rule="evenodd"><path fill="#000" d="M170.236 32.46c-.723 0-1.722-.065-2.388-.369-.785-.382-.806-.663-.893-1.848l-.007-.105c-.032-.405-.032-3.575-.032-5.673V22.99c0-.119.064-.119.087-.119 1.203 0 1.928.02 2.15.06q.231.044.49.073c.589.074 1.253.157 1.966.608 2.479 1.581 2.606 4.281 2.606 4.806 0 1.843-.691 4.042-3.979 4.042m-3.32-17.976c0-.1.04-.151.29-.213.424-.092 1.068-.125 1.398-.125 2.639 0 3.821 2.125 3.821 4.229 0 1.095-.353 2.041-1.049 2.81-.551.612-1.131.666-2.647.666-.696 0-1.279-.042-1.68-.122-.08-.021-.133-.046-.133-.216zm10.011 13.057c0-2.808-2.463-4.847-4.795-5.587 1.498-1.338 2.724-2.629 2.724-4.647 0-.343-.085-1.551-1.195-2.619-1.053-1.015-2.628-1.53-4.681-1.53-.75 0-1.514.022-2.128.039-.445.014-.83.024-1.104.024-.042 0-.191-.004-.414-.01-.65-.019-1.859-.053-2.788-.053-.251 0-.509.035-.509.29 0 .135.153.228.291.228.246 0 .714.032.931.063.834.114 1.005.546 1.068 1.473.063.844.063 1.592.063 5.737v4.707c0 2.611 0 4.672-.157 5.765l-.018.123c-.11.706-.19 1.212-.643 1.295-.092.009-.2.03-.31.05a3 3 0 0 1-.528.073c-.26 0-.29.157-.29.225 0 .291.384.291.51.291.448 0 1.127-.032 1.663-.061.425 0 .82-.017 1.009-.027l.122-.006c.075 0 .389.013.827.028.282.011.613.025.956.034a39 39 0 0 0 2.391.095c2.194 0 4.021-.645 5.281-1.867 1.113-1.078 1.724-2.545 1.724-4.133m-67.383 5.227c.221-.786.411-2.395.411-2.685 0-.12 0-.479-.258-.479-.178 0-.311.152-.353.402-.101.573-.335 1.109-.644 1.473-.614.736-1.744.792-3.272.792-2.114 0-3.197-.181-3.623-.607-.491-.462-.544-2.167-.544-5.945v-4.77c0-4.148 0-4.895.032-5.737.063-.939.221-1.298.972-1.443.306-.03.716-.061.903-.061.127 0 .29-.122.29-.26 0-.29-.383-.29-.509-.29-.612 0-1.881.034-2.56.053l-.485.012c-.039 0-.188-.005-.407-.011a99 99 0 0 0-2.732-.054c-.251 0-.508.035-.508.29 0 .133.158.289.29.289.245 0 .715.032.931.064.834.113 1.006.469 1.069 1.411.063.842.063 1.59.063 5.737v4.707c0 2.611 0 4.672-.155 5.765l-.012.075c-.117.729-.188 1.167-.658 1.281a4 4 0 0 1-.831.122.284.284 0 0 0-.29.291c0 .288.383.288.511.288.434 0 1.031-.029 1.604-.063.351-.02.731-.031 1.125-.031.628 0 1.319.019 2.194.042l.816.02a99 99 0 0 0 4.804.097c1.494 0 1.622-.097 1.826-.775m-47.426 1.151c1.864 0 4.332-.191 5.676-.729.59-.262.664-.342.856-.954.317-1.079.695-3.799.695-4.037 0-.345-.107-.542-.291-.542-.265 0-.325.22-.383.53-.094.555-.495 1.921-1.144 2.599-1.325 1.362-3.383 1.547-5.409 1.547-3.141 0-6.029-1.231-8.131-3.471-1.987-2.118-3.128-5.012-3.128-7.943 0-2.698.334-5.773 2.803-8.143 1.573-1.527 3.92-2.271 7.17-2.271 2.876 0 5.203.89 6.23 1.774.775.655 1.295 1.919 1.295 3.147 0 .341 0 .729.319.729.282 0 .325-.328.354-.726.013-.199.021-.622.03-1.112.011-.676.028-1.52.065-2.12.036-.689.087-1.099.12-1.368.022-.175.036-.293.036-.393 0-.265-.137-.385-.473-.415-.982-.062-1.978-.247-3.132-.459l-.063-.012c-1.849-.339-3.807-.376-4.563-.376-4.199 0-7.346 1.104-9.62 3.377-2.608 2.607-3.536 6.16-3.536 8.619 0 3.925 1.285 7.067 3.82 9.341 2.588 2.325 5.895 3.408 10.404 3.408m98.011-1.02c-.272 0-.993 0-1.765-.246-1.131-.378-1.283-1.891-1.365-2.703l-1.884-16.385c-.081-.646-.305-.782-.478-.782-.242 0-.385.246-.503.477l-7.971 16.411-8.284-16.443c-.193-.387-.478-.445-.628-.445-.196 0-.348.209-.384.533l-2.008 17.417q-.015.127-.031.256c-.106.903-.199 1.683-.979 1.817l-.052.008c-.364.057-.547.085-.752.085-.192 0-.351.118-.351.257 0 .322.408.322.54.322.479 0 1.185-.038 1.701-.065.297-.015.531-.029.62-.029.068 0 .245.011.488.023.549.03 1.377.071 2.087.071.156 0 .573 0 .573-.322 0-.136-.163-.257-.291-.257-.077 0-.499-.008-1.051-.155-.276-.063-.605-.235-.605-.685 0-.44 0-.939.032-1.343l1.061-11.988h.016c.347.8 1.491 3.137 2.414 5.02.434.888.827 1.693 1.083 2.223.675 1.412 2.491 4.827 3.233 6.185.539.978.706 1.261 1.003 1.261.3 0 .464-.275 1.037-1.452l6.597-13.503 1.304 13.355c.071.566.002.849-.074.866-.144.035-.239.148-.239.285 0 .201.223.294.848.354 1.018.095 4.103.156 4.714.156.385 0 .634-.126.634-.322 0-.156-.113-.257-.29-.257m-49.146-19.16c.243 0 .714.032.93.06.836.115 1.006.53 1.07 1.413.063.844.063 1.592.063 5.737v3.923c0 4.24 1.304 5.994 2.44 7.051 1.329 1.242 3.332 1.902 5.791 1.902 1.646 0 3.795-.223 5.821-1.963 2.302-1.974 2.597-5.343 2.597-8.055v-2.858c0-1.292-.003-2.256-.004-2.993-.006-1.619-.008-2.165.034-2.744.062-.858.208-1.265.918-1.413.337-.06.487-.06.676-.06.164 0 .29-.156.29-.291 0-.255-.257-.29-.509-.29-.554 0-1.329.029-1.842.048-.242.009-.42.015-.48.015-.041 0-.182-.004-.393-.01a87 87 0 0 0-2.588-.053c-.252 0-.51.035-.51.29 0 .135.127.291.289.291.243 0 .716.032.931.06.843.117 1.007.547 1.039 1.409l.003.055c.03.842.06 1.636.06 5.686v3.357c0 2.373-.188 4.793-1.555 6.421-.953 1.147-2.568 1.859-4.212 1.859-1.58 0-2.749-.234-4.064-1.428-1.048-.937-2.017-2.367-2.017-6.476v-3.733c0-4.145 0-4.893.061-5.737.062-.864.211-1.295.884-1.413.341-.06.489-.06.679-.06.156 0 .32-.15.32-.291 0-.29-.393-.29-.539-.29-.526 0-1.419.026-2.071.044-.359.012-.634.019-.723.019-.077 0-.289-.006-.583-.013-.641-.018-1.718-.05-2.586-.05-.251 0-.51.035-.51.29 0 .133.158.291.29.291m-28.372.188c2.218 0 4.246.872 5.712 2.457 1.618 1.747 2.473 4.248 2.473 7.231 0 3.353-.936 5.83-2.779 7.363-1.746 1.45-3.813 1.608-4.62 1.608-2.436 0-4.634-.959-6.182-2.701-1.617-1.816-2.473-4.354-2.473-7.335 0-5.4 2.942-8.623 7.869-8.623m0 19.898c3.173 0 6.043-1.147 8.086-3.231 1.974-2.015 3.063-4.76 3.063-7.731 0-3.01-1.09-5.564-3.153-7.388-1.967-1.736-4.749-2.692-7.838-2.692-7.604 0-11.024 6.132-11.024 10.489 0 2.615.941 5.2 2.579 7.088 1.968 2.266 4.834 3.465 8.287 3.465m97.602-20.086c.179 0 .515.029.836.093.545.115.76.475.822 1.38.063.842.063 1.59.063 5.737v4.707c0 2.047-.019 4.553-.158 5.768-.09.764-.182 1.236-.667 1.353a4 4 0 0 1-.831.122.283.283 0 0 0-.29.288c0 .291.383.291.51.291.593 0 1.619-.045 2.232-.072.263-.013.451-.022.497-.022.028 0 .137.003.305.013.585.024 1.95.081 3.148.081.444 0 .51-.18.51-.291a.284.284 0 0 0-.29-.288c-.255 0-.848-.065-1.246-.125-.759-.117-.851-.567-.944-1.35-.125-1.095-.125-3.157-.125-5.768v-4.707c0-4.148 0-4.895.032-5.739.061-.928.204-1.263.915-1.409.308-.062.487-.062.678-.062.132 0 .29-.158.29-.291 0-.255-.257-.288-.51-.288-.613 0-1.731.032-2.331.049-.235.008-.398.012-.432.012-.044 0-.226-.006-.48-.012a92 92 0 0 0-2.312-.049c-.251 0-.508.033-.508.288 0 .135.124.291.286.291m20.496 11.062h-5.587q-.03-.001-.03-.005c-.005-.007-.011-.034.001-.089l2.573-7.311c.098-.253.163-.261.171-.261s.072.008.17.261l2.729 7.305c.017.071.016.094.017.095 0 0-.009.005-.044.005m.595 1.352 2.478 6.123q.099.227.027.399a.45.45 0 0 1-.244.231c-.023.013-.044.019-.062.03-.086.038-.166.075-.166.221 0 .203.334.221.838.249l.203.009c1.236.04 2.786.063 4.364.063.21 0 .698-.029.698-.288 0-.201-.214-.291-.414-.291-.216 0-.644-.02-1.078-.153-.641-.202-1.346-.59-2.31-2.879-.875-2.087-2.475-6.029-3.885-9.506-1.339-3.295-2.494-6.141-2.741-6.691q-.084-.184-.151-.334c-.18-.41-.298-.678-.57-.678-.24 0-.382.211-.725 1.079l-6.495 16.694c-.573 1.449-1.104 2.26-2.265 2.408-.227.03-.627.06-.808.06-.155 0-.323.117-.323.291 0 .288.441.288.607.288.754 0 1.62-.041 2.196-.069.28-.014.503-.025.596-.025.126 0 .456.017.838.034.557.028 1.25.06 1.639.06.397 0 .481-.156.481-.288 0-.133-.061-.291-.353-.291h-.252c-.204 0-.871-.048-.871-.652 0-.447.146-1.089.404-1.763l1.569-4.267c.063-.154.143-.175.216-.175h6.369c.132 0 .139.015.19.111M220.954 30.464c-3.062-2.747-3.82-6.346-3.82-9.345 0-2.118.726-5.81 3.535-8.619 1.896-1.896 4.768-3.379 9.629-3.379 1.265 0 3.032.095 4.579.378 1.2.221 2.21.411 3.219.474.349.032.413.158.413.347 0 .253-.095.632-.16 1.768-.063 1.043-.063 2.779-.095 3.253-.031.473-.094.662-.284.662-.219 0-.25-.22-.25-.662 0-1.231-.508-2.527-1.328-3.222-1.104-.947-3.535-1.799-6.315-1.799-4.198 0-6.156 1.233-7.261 2.306-2.305 2.21-2.841 5.019-2.841 8.238 0 6.032 4.641 11.557 11.399 11.557 2.367 0 4.229-.285 5.492-1.579.662-.694 1.073-2.083 1.167-2.652.063-.348.127-.473.316-.473.16 0 .223.22.223.473 0 .222-.381 2.968-.696 4.041-.188.6-.251.663-.821.916-1.263.506-3.662.726-5.681.726-4.737 0-7.925-1.169-10.42-3.409M247.027 25.696c0 3.946.063 5.558.567 6.03.445.444 1.517.632 3.695.632 1.453 0 2.683-.031 3.346-.82.348-.413.57-.979.664-1.517.031-.189.125-.345.284-.345.126 0 .19.123.19.408 0 .284-.19 1.895-.411 2.684-.189.632-.283.727-1.767.727-1.99 0-3.537-.032-4.832-.095-1.262-.031-2.209-.063-3.03-.063-.127 0-.6 0-1.138.032a33 33 0 0 1-1.61.061c-.284 0-.441-.061-.441-.218 0-.096.062-.223.22-.223.253 0 .6-.063.852-.126.538-.126.6-.632.726-1.421.158-1.106.158-3.221.158-5.809v-4.736c0-4.168 0-4.926-.062-5.779-.065-.915-.222-1.357-1.137-1.483a9 9 0 0 0-.947-.063c-.095 0-.221-.127-.221-.22 0-.158.126-.221.441-.221 1.263 0 3.001.063 3.159.063.126 0 2.21-.063 3.062-.063.284 0 .442.063.442.221 0 .093-.126.188-.221.188-.188 0-.6.032-.916.064-.82.157-.977.568-1.042 1.514-.031.853-.031 1.611-.031 5.779zM262.998 25.633c0 2.588 0 4.703.126 5.809.096.789.192 1.295 1.011 1.421.41.063 1.01.126 1.263.126.158 0 .22.127.22.223 0 .125-.126.218-.441.218-1.547 0-3.346-.093-3.472-.093-.159 0-1.896.093-2.748.093-.284 0-.441-.061-.441-.218 0-.096.062-.223.219-.223.252 0 .601-.063.853-.126.537-.126.631-.632.725-1.421.127-1.106.159-3.221.159-5.809v-4.736c0-4.168 0-4.926-.064-5.779-.063-.915-.283-1.325-.884-1.451a5 5 0 0 0-.851-.095c-.126 0-.222-.127-.222-.22 0-.158.127-.221.443-.221.915 0 2.652.063 2.811.063.126 0 1.925-.063 2.777-.063.316 0 .442.063.442.221 0 .093-.126.22-.221.22-.189 0-.38 0-.694.063-.758.158-.916.537-.979 1.483-.032.853-.032 1.611-.032 5.779zM292.641 29.99c.095.947.285 2.4 1.421 2.779.789.251 1.515.251 1.8.251.127 0 .221.062.221.192 0 .157-.253.253-.569.253-.631 0-3.725-.033-4.735-.127-.663-.065-.789-.159-.789-.287 0-.095.063-.189.19-.219.157-.032.188-.442.124-.949l-1.325-13.637h-.063l-6.695 13.701c-.566 1.167-.725 1.422-.978 1.422-.251 0-.409-.255-.946-1.233-.726-1.324-2.555-4.766-3.252-6.221-.82-1.704-3.062-6.217-3.536-7.323h-.126l-1.073 12.123c-.031.411-.031.918-.031 1.357 0 .412.25.665.663.76.472.124.883.156 1.073.156.094 0 .22.094.22.191 0 .19-.189.253-.503.253-1.046 0-2.368-.094-2.592-.094-.252 0-1.578.094-2.335.094-.285 0-.474-.063-.474-.253 0-.097.126-.191.283-.191.222 0 .412-.032.822-.094.915-.157.948-1.134 1.074-2.147l2.019-17.522c.031-.283.157-.473.318-.473.189 0 .409.095.567.41l8.4 16.67 8.081-16.638c.126-.252.252-.442.442-.442.189 0 .347.221.41.726z"/><path fill="#000" d="M307.977 24.842c.126 0 .126-.061.095-.188l-2.746-7.356q-.238-.617-.473 0l-2.59 7.356q-.047.19.094.188zm-3.094-11.176c.347-.884.474-1.04.663-1.04.285 0 .379.379.663.978.505 1.137 4.957 12.219 6.663 16.291 1.009 2.4 1.768 2.746 2.367 2.937.41.125.82.157 1.105.157.158 0 .346.062.346.221 0 .157-.315.22-.631.22-.41 0-2.461 0-4.388-.063-.536-.032-.979-.032-.979-.19 0-.126.063-.126.19-.188.157-.064.442-.285.253-.727l-2.494-6.155c-.063-.127-.095-.158-.253-.158h-6.41c-.126 0-.22.062-.284.219l-1.578 4.296c-.253.662-.41 1.325-.41 1.798 0 .539.473.727.946.727h.253c.221 0 .284.095.284.221 0 .157-.157.22-.41.22-.663 0-2.178-.095-2.494-.095-.285 0-1.674.095-2.809.095-.349 0-.538-.063-.538-.22 0-.126.126-.221.252-.221.19 0 .6-.032.822-.064 1.262-.157 1.799-1.104 2.336-2.461zM323.476 25.633c0 2.588 0 4.703.126 5.809.094.789.22 1.295 1.073 1.421.379.063 1.011.126 1.264.126.189 0 .22.127.22.223 0 .125-.127.218-.443.218-1.514 0-3.282-.093-3.44-.093-.126 0-2.052.093-2.873.093-.316 0-.441-.061-.441-.218 0-.096.063-.192.22-.192.253 0 .569-.061.821-.126.569-.126.726-.663.82-1.452.126-1.106.126-3.221.126-5.809V14.361l-4.008.063c-1.737.032-2.4.223-2.81.853-.316.474-.348.663-.442.854-.063.221-.159.252-.284.252a.21.21 0 0 1-.19-.221c0-.286.537-2.685.6-2.905.031-.158.189-.506.284-.506.189 0 .473.221 1.231.316.789.095 1.863.127 2.179.127h10.481c.915 0 1.547-.063 1.99-.127.41-.063.663-.126.789-.126s.126.158.126.316c0 .82-.095 2.746-.095 3.063 0 .221-.125.347-.252.347-.126 0-.189-.095-.221-.473l-.031-.286c-.096-.821-.695-1.421-3.348-1.484l-3.472-.063zM335.754 20.897c0-4.168 0-4.926-.064-5.779-.063-.915-.22-1.357-1.136-1.483a9 9 0 0 0-.947-.063c-.095 0-.221-.126-.221-.22 0-.158.126-.221.442-.221 1.262 0 3.063.063 3.22.063.189 0 5.998.031 6.629 0 .537-.032 1.043-.127 1.264-.158.126-.032.253-.127.379-.127.094 0 .126.127.126.253 0 .19-.158.505-.222 1.262-.03.253-.094 1.452-.157 1.77-.032.126-.126.284-.253.284-.157 0-.22-.126-.22-.349 0-.189-.032-.63-.159-.947-.189-.442-.473-.632-1.988-.821-.475-.063-3.694-.095-4.01-.095-.127 0-.158.095-.158.284v7.293c0 .191 0 .286.158.286.348 0 4.01 0 4.64-.064.665-.063 1.075-.096 1.358-.379.19-.19.317-.347.412-.347s.157.064.157.221-.157.599-.22 1.482a26 26 0 0 0-.127 1.737c0 .224-.063.507-.252.507-.127 0-.191-.095-.191-.252 0-.255 0-.537-.126-.885-.093-.379-.346-.694-1.42-.82-.757-.095-3.726-.128-4.199-.128-.159 0-.19.097-.19.191v2.241c0 .916-.032 4.043 0 4.576.064 1.802.569 2.149 3.316 2.149.725 0 2.051 0 2.777-.284.726-.316 1.105-.789 1.264-1.865.063-.314.126-.41.284-.41s.189.222.189.41c0 .192-.221 2.022-.379 2.591-.189.695-.475.695-1.548.695-2.083 0-3.692-.065-4.83-.095-1.168-.063-1.894-.063-2.304-.063-.063 0-.6 0-1.199.032a32 32 0 0 1-1.611.061c-.285 0-.442-.061-.442-.218 0-.096.063-.223.22-.223.253 0 .601-.095.854-.126.537-.095.6-.632.726-1.421.158-1.106.158-3.221.158-5.809zM360.28 33.02c-.443-.221-.474-.348-.474-1.199 0-1.578.127-2.842.157-3.346.033-.349.096-.507.253-.507.19 0 .222.096.222.349 0 .285 0 .724.094 1.168.473 2.336 2.557 3.219 4.674 3.219 3.03 0 4.512-2.177 4.512-4.196 0-2.181-.914-3.443-3.63-5.685l-1.418-1.168c-3.348-2.747-4.105-4.705-4.105-6.851 0-3.379 2.524-5.683 6.534-5.683 1.232 0 2.148.126 2.937.316.599.126.852.158 1.105.158.252 0 .316.062.316.22s-.126 1.2-.126 3.346c0 .505-.064.726-.222.726-.19 0-.221-.158-.253-.408-.031-.381-.221-1.233-.41-1.58-.19-.348-1.042-1.673-3.945-1.673-2.18 0-3.886 1.357-3.886 3.661 0 1.801.822 2.937 3.852 5.305l.884.694c3.727 2.937 4.61 4.895 4.61 7.419 0 1.297-.504 3.695-2.684 5.242-1.357.946-3.062 1.326-4.767 1.326-1.484 0-2.936-.22-4.23-.853M378.871 30.906c-2.715-2.337-3.377-5.398-3.377-7.956 0-1.8.662-4.927 3.125-7.326 1.673-1.61 4.198-2.872 8.46-2.872 1.105 0 2.685.095 4.042.316 1.041.189 1.925.378 2.841.41.284 0 .347.126.347.284 0 .221-.063.537-.126 1.516-.031.883-.031 2.368-.063 2.745-.032.412-.158.571-.315.571-.189 0-.221-.191-.221-.571 0-1.041-.443-2.115-1.169-2.682-.979-.821-2.999-1.484-5.462-1.484-3.567 0-5.272.946-6.25 1.862-2.053 1.896-2.495 4.295-2.495 7.009 0 5.148 4.073 9.724 10.008 9.724 2.084 0 3.473-.159 4.579-1.262.599-.601.978-1.736 1.074-2.242.062-.283.093-.379.283-.379.126 0 .253.19.253.379 0 .188-.379 2.525-.663 3.44-.158.506-.222.6-.696.789-1.135.445-3.219.602-5.019.602-4.168 0-6.978-.978-9.156-2.873M417.037 25.633c0 2.588.034 4.703.158 5.809.095.789.158 1.295 1.01 1.421.379.063 1.011.126 1.233.126.188 0 .251.127.251.223 0 .125-.158.218-.473.218-1.516 0-3.285-.093-3.442-.093-.126 0-1.926.093-2.746.093-.316 0-.442-.061-.442-.218 0-.096.063-.223.22-.223.253 0 .569-.063.822-.126.568-.126.662-.663.756-1.452.126-1.106.126-3.125.126-5.715v-2.685c0-.126-.063-.157-.157-.157h-11.587c-.094 0-.157.031-.157.157v2.685c0 2.59 0 4.64.126 5.746.095.789.19 1.295 1.01 1.421.411.063 1.01.126 1.263.126.16 0 .221.127.221.223 0 .125-.127.218-.442.218-1.546 0-3.316-.093-3.442-.093-.157 0-1.925.093-2.777.093-.285 0-.442-.061-.442-.218 0-.096.062-.223.219-.223.253 0 .602-.063.855-.126.536-.126.599-.632.725-1.421.158-1.106.158-3.221.158-5.809v-4.736c0-4.168 0-4.926-.064-5.779-.062-.915-.22-1.357-1.136-1.483a9 9 0 0 0-.947-.063c-.095 0-.221-.127-.221-.22 0-.158.126-.221.443-.221 1.262 0 3.03.063 3.187.063.126 0 1.896-.063 2.748-.063.315 0 .441.063.441.221 0 .093-.126.22-.221.22-.189 0-.379 0-.694.063-.757.158-.916.537-.98 1.483-.03.853-.03 1.674-.03 5.842v.569c0 .159.063.159.157.159h11.587c.094 0 .157 0 .157-.159v-.569c0-4.168-.03-4.989-.063-5.842-.063-.915-.188-1.357-1.104-1.483a9 9 0 0 0-.947-.063c-.127 0-.221-.127-.221-.22 0-.158.127-.221.442-.221 1.231 0 3.031.063 3.157.063.157 0 1.926-.063 2.747-.063.316 0 .473.063.473.221 0 .093-.126.22-.253.22-.19 0-.347 0-.694.063-.725.158-.884.537-.947 1.483-.063.853-.063 1.611-.063 5.779zM433.952 32.674c2.496 0 7.515-1.326 7.515-9.092 0-6.441-3.915-9.821-8.304-9.821-4.641 0-7.987 2.906-7.987 8.748 0 6.251 3.756 10.165 8.776 10.165m-.63-19.923c6.251 0 10.986 3.821 10.986 10.071 0 6-4.451 10.957-11.145 10.957-7.608 0-10.86-5.715-10.86-10.545 0-4.326 3.346-10.483 11.019-10.483M458.542 32.674c2.495 0 7.514-1.326 7.514-9.092 0-6.441-3.914-9.821-8.303-9.821-4.641 0-7.988 2.906-7.988 8.748 0 6.251 3.756 10.165 8.777 10.165m-.631-19.923c6.252 0 10.986 3.821 10.986 10.071 0 6-4.451 10.957-11.144 10.957-7.609 0-10.861-5.715-10.861-10.545 0-4.326 3.347-10.483 11.019-10.483"/><g transform="translate(0 -.148)"><mask id="b" fill="#fff"><use xlink:href="#a"/></mask><path fill="#000" d="M476.312 25.844c0 3.946.064 5.558.568 6.03.442.444 1.516.632 3.694.632 1.453 0 2.683-.03 3.347-.82.347-.413.568-.979.664-1.517.03-.189.126-.345.283-.345.127 0 .189.123.189.408 0 .284-.189 1.895-.41 2.684-.189.632-.285.727-1.768.727-1.989 0-3.537-.032-4.832-.095-1.261-.03-2.208-.063-3.03-.063-.126 0-.599 0-1.136.032-.568.031-1.168.061-1.61.061-.285 0-.442-.06-.442-.218 0-.096.063-.223.22-.223.253 0 .601-.063.854-.126.536-.126.6-.632.726-1.42.157-1.107.157-3.222.157-5.81v-4.736c0-4.168 0-4.926-.063-5.779-.063-.915-.22-1.357-1.136-1.483a9 9 0 0 0-.948-.063c-.095 0-.22-.127-.22-.22 0-.158.125-.22.442-.22 1.261 0 2.999.062 3.156.062.127 0 2.211-.063 3.063-.063.284 0 .442.063.442.221 0 .093-.126.188-.222.188-.189 0-.599.032-.915.064-.82.157-.979.568-1.042 1.514-.031.853-.031 1.611-.031 5.78z" mask="url(#b)"/><path fill="#000" d="m4.463 33.868 29.946.003v-2.545H4.463zm31.38-14.928c-1.493 3.05-4.007 7.45-6.036 8.017-1.088.305-1.771-.148-1.768-1.025.001-.692.116-1.367.552-1.698 0 0 2.097-.013 2.309-.199.218-.188.385-1.447.346-1.7-.04-.25-2.286.205-2.404-.039-.118-.243.578-1.675.454-1.917-.125-.24-1.817.012-1.817.012-.222.105-.42 1.82-.635 1.995-.215.172-1.817-.064-2.017.114-.202.178-.543 1.563-.418 1.74.126.176 1.901-.097 2.049.094.171.56-.367 1.51-1.025 2.085-.478.421-1.006.668-1.662.666-1-.008-2.205-1.382-2.583-3.546-.267-1.514.371-4.513 1.005-5.92 1.365-3.025.539-2.839.914-3.073 1.54-.955 4.15-1.75 6.128-2.339 1.89-.56 3.731-.939 5.488-.268 2.879 1.097 2.217 4.762 1.12 7.001m-18.159 4.6c-.379 2.163-1.583 3.537-2.584 3.545-.655.002-1.181-.245-1.662-.666-.658-.575-1.197-1.526-1.022-2.085.145-.19 1.92.082 2.045-.095.128-.176-.215-1.56-.415-1.739-.201-.178-1.805.058-2.02-.114-.213-.176-.413-1.89-.631-1.995 0 0-1.696-.253-1.819-.012-.124.242.572 1.674.453 1.917s-2.364-.212-2.403.04.128 1.511.344 1.7c.213.185 2.31.198 2.31.198.437.331.551 1.006.553 1.698.004.877-.681 1.33-1.767 1.025-2.029-.567-4.545-4.968-6.038-8.017-1.097-2.239-1.758-5.904 1.122-7 1.755-.672 3.597-.293 5.486.267 1.977.59 4.588 1.384 6.129 2.34.377.233-.452.047.913 3.071.637 1.408 1.272 4.407 1.006 5.921m16.36-13.807c-4.233-.339-7.885 1.924-11.99 2.65-.328.056-.77-.643-1.168-1.042 1.903-1.435 1.644-4.248-.561-5.462-.151-.176-.096-1.795-.009-1.867.181-.15 1.586.12 1.785-.056.2-.172.161-1.859.031-2.02-.125-.162-1.71.01-1.799-.098-.091-.108.044-1.625-.107-1.745-.105-.087-.546-.096-.791-.093-.244-.003-.684.006-.79.093-.15.12-.016 1.637-.107 1.745-.087.108-1.672-.064-1.801.097-.127.162-.166 1.85.033 2.021.199.176 1.604-.095 1.785.056.087.072.142 1.691-.009 1.867-2.206 1.214-2.464 4.027-.559 5.462-.401.4-.841 1.098-1.17 1.042-4.105-.726-7.757-2.989-11.991-2.65-2.367.191-4.301 1.86-4.713 4.255-.743 4.313 2.358 7.627 3.861 11.291.476 1.154.894 2.706.817 4.043H19.27v.002h.333v-.002h14.476c-.075-1.337.34-2.889.819-4.043 1.503-3.664 4.603-6.978 3.86-11.29-.41-2.397-2.346-4.065-4.714-4.256" mask="url(#b)"/></g><path fill="#000" d="M52.22 50.829c2.535-1.98 5.764-2.951 9.376-2.951 1.875 0 4.514.381 6.147.833.416.104.659.174.971.138.035.8.209 2.988.487 5.106-.174.242-.695.277-.937.069-.521-2.361-2.084-5.07-7.119-5.07-5.314 0-9.829 3.368-9.829 10.557 0 7.292 4.619 11.321 10.315 11.321 4.479 0 6.458-2.917 7.258-4.966.242-.173.763-.104.902.139-.243 1.806-1.146 4.098-1.667 4.757-.417.07-.833.208-1.215.348-.764.277-3.264.798-5.487.798-3.125 0-6.112-.625-8.646-2.326-2.779-1.91-4.932-5.07-4.932-9.55 0-3.855 1.737-7.154 4.376-9.203M75.935 67.463c0 2.5.069 2.848 1.319 3.021l.833.105c.244.173.174.764-.069.868a53 53 0 0 0-3.368-.104c-1.25 0-2.292.034-3.334.104-.243-.104-.312-.695-.069-.868l.798-.105c1.285-.173 1.32-.521 1.32-3.021V51.767c0-2.049-.035-2.257-1.076-2.882l-.348-.209c-.173-.104-.173-.59 0-.694.868-.279 2.5-.799 3.751-1.459a.38.38 0 0 1 .347.209c-.035 1.042-.104 2.778-.104 4.305zM84.996 51.489c0 1.25-.867 1.806-1.84 1.806-1.076 0-1.771-.799-1.771-1.737 0-1.146.833-1.875 1.875-1.875s1.736.834 1.736 1.806m-2.882 9.897c0-1.354 0-1.528-.938-2.153l-.312-.208c-.138-.139-.138-.521.035-.625.798-.278 2.778-1.181 3.577-1.702.174 0 .312.07.347.208a82 82 0 0 0-.139 4.307v6.25c0 2.5.07 2.848 1.32 3.021l.728.105c.244.173.175.764-.069.868a47 47 0 0 0-3.264-.104c-1.25 0-2.292.034-3.264.104-.243-.104-.313-.695-.07-.868l.73-.105c1.285-.173 1.319-.521 1.319-3.021zM109.269 62.428c0-2.361-1.042-3.577-3.23-3.577-1.319 0-2.395.591-2.882 1.216-.417.521-.521.867-.521 2.083v5.313c0 2.5.07 2.848 1.32 3.021l.729.105c.243.173.173.764-.069.868a47 47 0 0 0-3.264-.104c-1.25 0-2.188.034-3.161.104-.243-.104-.312-.695-.069-.868l.625-.105c1.285-.208 1.32-.521 1.32-3.021v-5.035c0-2.327-1.042-3.577-3.195-3.577-1.424 0-2.396.625-2.917 1.25-.348.417-.521.868-.521 1.979v5.383c0 2.5.069 2.813 1.32 3.021l.624.105c.244.173.174.764-.069.868a42 42 0 0 0-3.161-.104c-1.249 0-2.291.034-3.368.104-.242-.104-.312-.695-.069-.868l.833-.105c1.285-.173 1.32-.521 1.32-3.021v-6.077c0-1.354 0-1.528-.938-2.153l-.312-.208c-.139-.139-.139-.521.034-.625.799-.278 2.779-1.181 3.473-1.702.139 0 .313.07.382.243-.069.798-.069 1.319-.069 1.632 0 .208.139.382.382.382 1.32-.937 2.952-1.77 4.619-1.77 1.736 0 2.709.625 3.68 2.048.313.069.556-.069.869-.278 1.389-.972 3.09-1.77 4.722-1.77 2.778 0 4.133 1.909 4.133 4.305v5.973c0 2.5.069 2.848 1.319 3.021l.834.105c.243.173.174.764-.069.868a53 53 0 0 0-3.369-.104c-1.25 0-2.187.034-3.16.104-.244-.104-.313-.695-.069-.868l.625-.105c1.284-.208 1.319-.521 1.319-3.021zM120.691 70.276c.694 0 1.771-.521 2.118-.868.416-.417.416-.903.452-1.632l.069-2.049c0-.382-.139-.451-.347-.451-.209 0-.799.138-1.424.347-2.049.695-3.056 1.215-3.056 2.569 0 .59.417 2.084 2.188 2.084m2.153-6.112c.521-.173.59-.486.59-1.007l.035-1.598c.035-1.284-.382-3.02-2.536-3.02-.971 0-2.153.486-2.222 1.562-.035.556-.069.972-.347 1.181-.521.417-1.459.66-1.98.66-.312 0-.486-.174-.486-.487 0-1.805 3.924-4.27 6.46-4.27 2.5 0 3.715 1.458 3.611 4.062l-.208 6.043c-.07 1.597.243 3.021 1.597 3.021.348 0 .66-.104.869-.208.173-.104.346-.244.45-.244.14 0 .244.209.244.452 0 .173-1.215 1.528-2.917 1.528-.834 0-1.667-.313-2.258-1.077-.138-.208-.347-.486-.555-.486-.243 0-.66.313-1.354.694-.764.417-1.529.869-2.5.869-1.008 0-1.841-.278-2.432-.799a3.25 3.25 0 0 1-1.076-2.431c0-1.354.659-2.153 2.882-2.951zM134.718 59.129c-.59 0-.625.104-.625.833v6.494c0 2.014.243 3.855 2.535 3.855.347 0 .66-.07.937-.174.313-.104.765-.486.869-.486.277 0 .417.382.347.59-.626.729-1.876 1.598-3.647 1.598-2.985 0-3.61-1.667-3.61-3.751v-7.952c0-.938-.036-1.007-.73-1.007h-.973c-.208-.139-.243-.521-.104-.729 1.007-.313 1.876-.765 2.223-1.077.451-.417 1.111-1.355 1.459-2.049.173-.069.59-.069.729.173v1.563c0 .625.034.66.625.66h3.854c.417.313.348 1.251.035 1.459zM145.62 61.421c2.57 0 3.334-.139 3.611-.348.105-.069.209-.208.209-.659 0-.972-.66-2.188-2.674-2.188-2.05 0-3.82 1.875-3.855 3.021 0 .07 0 .174.243.174zm-2.153 1.042c-.903 0-.938.069-.938.938 0 3.506 2.049 6.493 5.765 6.493 1.146 0 2.118-.347 3.195-1.702.347-.104.59.105.625.417-1.146 2.361-3.647 3.23-5.452 3.23-2.258 0-4.029-.973-5.035-2.292-1.042-1.355-1.459-2.987-1.459-4.514 0-4.272 2.813-7.848 6.98-7.848 2.986 0 4.931 2.048 4.931 4.132 0 .486-.069.763-.139.903-.104.208-.59.243-2.049.243zM159.196 70.52c0 2.742-2.084 4.305-4.514 5.035-.313-.105-.417-.66-.209-.834 1.076-.347 2.848-1.215 2.848-3.021 0-1.459-1.667-1.841-1.98-2.014-.451-.243-.59-.591-.59-1.008 0-.798.59-1.562 1.702-1.562 1.215 0 2.743 1.111 2.743 3.404M173.987 53.642c0-3.611-.069-4.132-2.119-4.376l-.555-.069c-.208-.139-.139-.764.069-.868a82 82 0 0 0 4.098.104h6.528c2.223 0 4.272 0 4.689-.104.208.591.417 3.091.556 4.618-.139.208-.695.278-.869.07-.521-1.632-.833-2.847-2.639-3.299-.729-.173-1.841-.208-3.368-.208h-2.501c-1.042 0-1.042.069-1.042 1.389v6.945c0 .972.105.972 1.146.972h2.015c1.458 0 2.534-.069 2.951-.208s.66-.348.834-1.215l.277-1.425c.174-.208.765-.208.904.035 0 .834-.139 2.188-.139 3.508 0 1.25.139 2.569.139 3.334-.139.243-.73.243-.904.035l-.312-1.355c-.139-.625-.382-1.146-1.076-1.32-.486-.138-1.32-.173-2.674-.173h-2.015c-1.041 0-1.146.035-1.146.937v4.897c0 1.84.105 3.021.66 3.612.417.416 1.146.798 4.202.798 2.674 0 3.681-.139 4.445-.521.625-.347 1.563-1.563 2.466-3.368.243-.174.73-.069.868.243-.243 1.215-1.111 3.89-1.563 4.827-3.125-.07-6.216-.104-9.307-.104h-3.125c-1.493 0-2.674.034-4.723.104-.208-.104-.277-.66-.069-.868l1.146-.105c1.98-.173 2.153-.694 2.153-4.34zM195.723 70.276c.695 0 1.771-.521 2.119-.868.417-.417.417-.903.452-1.632l.069-2.049c0-.382-.14-.451-.348-.451s-.798.138-1.424.347c-2.048.695-3.056 1.215-3.056 2.569 0 .59.417 2.084 2.188 2.084m2.154-6.112c.521-.173.59-.486.59-1.007l.035-1.598c.034-1.284-.383-3.02-2.536-3.02-.972 0-2.152.486-2.222 1.562-.035.556-.07.972-.347 1.181-.521.417-1.459.66-1.98.66-.312 0-.486-.174-.486-.487 0-1.805 3.924-4.27 6.459-4.27 2.5 0 3.716 1.458 3.612 4.062l-.209 6.043c-.069 1.597.243 3.021 1.598 3.021.347 0 .659-.104.867-.208.175-.104.348-.244.452-.244.14 0 .244.209.244.452 0 .173-1.216 1.528-2.918 1.528-.833 0-1.666-.313-2.257-1.077-.139-.208-.347-.486-.556-.486-.242 0-.659.313-1.354.694-.763.417-1.528.869-2.5.869-1.007 0-1.841-.278-2.431-.799a3.25 3.25 0 0 1-1.077-2.431c0-1.354.66-2.153 2.883-2.951zM206.903 61.386c0-1.354 0-1.528-.938-2.153l-.312-.208c-.139-.139-.139-.521.035-.625.798-.278 2.639-1.181 3.507-1.702.174.035.278.104.278.243v2.014q0 .26.104.313c1.215-1.008 2.534-2.083 3.82-2.083.868 0 1.563.554 1.563 1.388a1.54 1.54 0 0 1-1.494 1.598c-.347 0-.521-.104-.763-.244-.521-.347-1.042-.555-1.529-.555-.555 0-.972.312-1.25.695-.347.486-.451 1.492-.451 2.674v4.722c0 2.5.069 2.917 1.388 3.021l1.25.105c.244.173.175.764-.069.868-1.632-.07-2.639-.104-3.854-.104-1.25 0-2.292.034-3.195.104-.243-.104-.313-.695-.069-.868l.66-.105c1.284-.208 1.319-.521 1.319-3.021zM221.381 59.129c-.59 0-.625.104-.625.833v6.494c0 2.014.244 3.855 2.536 3.855.347 0 .66-.07.937-.174.313-.104.764-.486.869-.486.277 0 .416.382.347.59-.626.729-1.876 1.598-3.647 1.598-2.986 0-3.611-1.667-3.611-3.751v-7.952c0-.938-.035-1.007-.729-1.007h-.973c-.208-.139-.243-.521-.104-.729 1.007-.313 1.875-.765 2.223-1.077.451-.417 1.11-1.355 1.458-2.049.173-.069.59-.069.729.173v1.563c0 .625.035.66.625.66h3.855c.417.313.347 1.251.035 1.459zM228.672 51.767c0-2.049-.035-2.257-1.076-2.882l-.348-.209c-.173-.104-.173-.59 0-.694.868-.279 2.5-.799 3.751-1.459a.38.38 0 0 1 .347.209c-.035 1.042-.104 2.778-.104 4.305v7.293c0 .313.034.591.138.66 1.251-.972 2.918-1.805 4.689-1.805 3.299 0 4.48 2.048 4.48 4.479v5.799c0 2.5.069 2.882 1.319 3.021l.938.105c.242.173.173.764-.07.868a58 58 0 0 0-3.472-.104c-1.251 0-2.293.034-3.23.104-.243-.104-.313-.695-.069-.868l.694-.105c1.285-.208 1.32-.521 1.32-3.021v-4.966c0-2.222-1.077-3.716-3.299-3.716-1.181 0-2.083.417-2.709.938s-.729.695-.729 1.911v5.833c0 2.5.069 2.848 1.319 3.021l.73.105c.243.139.173.764-.069.868a47 47 0 0 0-3.265-.104c-1.25 0-2.292.034-3.403.104-.243-.104-.313-.695-.07-.868l.869-.105c1.284-.139 1.319-.521 1.319-3.021zM249.992 70.52c0 2.742-2.084 4.305-4.514 5.035-.313-.105-.417-.66-.209-.834 1.076-.347 2.848-1.215 2.848-3.021 0-1.459-1.667-1.841-1.98-2.014-.451-.243-.59-.591-.59-1.008 0-.798.59-1.562 1.702-1.562 1.215 0 2.743 1.111 2.743 3.404M266.416 70.276c.694 0 1.771-.521 2.118-.868.416-.417.416-.903.452-1.632l.069-2.049c0-.382-.139-.451-.347-.451s-.799.138-1.424.347c-2.049.695-3.056 1.215-3.056 2.569 0 .59.417 2.084 2.188 2.084m2.153-6.112c.521-.173.59-.486.59-1.007l.035-1.598c.035-1.284-.382-3.02-2.535-3.02-.972 0-2.154.486-2.223 1.562-.035.556-.069.972-.347 1.181-.521.417-1.459.66-1.98.66-.312 0-.486-.174-.486-.487 0-1.805 3.924-4.27 6.46-4.27 2.5 0 3.715 1.458 3.611 4.062l-.208 6.043c-.069 1.597.243 3.021 1.597 3.021.348 0 .66-.104.869-.208.173-.104.346-.244.45-.244.14 0 .244.209.244.452 0 .173-1.215 1.528-2.917 1.528-.833 0-1.667-.313-2.258-1.077-.138-.208-.346-.486-.555-.486-.243 0-.66.313-1.354.694-.764.417-1.528.869-2.5.869-1.007 0-1.841-.278-2.432-.799a3.25 3.25 0 0 1-1.076-2.431c0-1.354.659-2.153 2.882-2.951zM277.595 61.386c0-1.354 0-1.528-.938-2.153l-.312-.208c-.139-.139-.139-.521.034-.625.799-.278 2.778-1.181 3.473-1.702.138 0 .313.07.382.243-.069.798-.069 1.319-.069 1.632 0 .208.138.382.381.382 1.459-.903 3.091-1.77 4.862-1.77 2.882 0 4.063 1.979 4.063 4.305v5.973c0 2.5.07 2.848 1.32 3.021l.764.105c.243.173.174.764-.07.868a47 47 0 0 0-3.264-.104c-1.25 0-2.292.034-3.23.104-.242-.104-.312-.695-.069-.868l.66-.105c1.285-.208 1.319-.521 1.319-3.021v-5.174c0-1.98-.903-3.438-3.264-3.438-1.319 0-2.465.556-2.951 1.216-.452.59-.521 1.076-.521 2.083v5.313c0 2.5.069 2.813 1.319 3.021l.625.105c.244.173.174.764-.069.868a42 42 0 0 0-3.161-.104c-1.25 0-2.292.034-3.263.104-.244-.104-.313-.695-.07-.868l.729-.105c1.285-.173 1.32-.521 1.32-3.021zM304.401 61.073c0-.694-.139-1.006-.382-1.354-.521-.729-1.563-1.459-2.917-1.459-3.161 0-4.792 2.744-4.792 5.766 0 3.16 1.77 6.146 5.174 6.146.937 0 2.118-.417 2.673-.973.209-.208.244-.729.244-1.284zm2.569 5.21c0 2.743.036 4.028 1.008 4.028.382 0 .972-.174 1.493-.348.243.07.278.938-.034 1.111-1.459.209-3.613.73-4.584 1.112-.209 0-.383-.104-.383-.278v-.59c0-.521 0-.938-.069-1.077h-.139c-1.528 1.042-2.708 1.598-4.375 1.598-3.855 0-6.425-3.022-6.425-6.667 0-4.863 3.681-7.987 8.404-7.987 1.18 0 1.945.173 2.327.312.173 0 .208-.208.208-.487v-5.243c0-2.049-.035-2.257-1.077-2.882l-.347-.209c-.174-.104-.174-.59 0-.694.868-.279 2.501-.799 3.751-1.459a.38.38 0 0 1 .347.209c-.034 1.042-.105 2.778-.105 4.305zM326.031 71.908c-2.917 0-4.757-.903-5.417-1.284-.417-.765-.868-3.23-.938-4.862.174-.244.695-.313.834-.104.52 1.77 1.945 5.174 5.973 5.174 2.917 0 4.341-1.91 4.341-3.994 0-1.528-.313-3.229-2.848-4.862l-3.299-2.153c-1.737-1.146-3.751-3.125-3.751-5.972 0-3.299 2.57-5.973 7.085-5.973 1.076 0 2.326.208 3.229.451a4.7 4.7 0 0 0 1.216.208c.312.833.625 2.779.625 4.237-.14.208-.695.312-.869.104-.451-1.666-1.388-3.924-4.722-3.924-3.404 0-4.133 2.258-4.133 3.855 0 2.013 1.667 3.472 2.952 4.271l2.778 1.736c2.188 1.355 4.341 3.368 4.341 6.668 0 3.819-2.882 6.424-7.397 6.424M342.837 58.226c-2.291 0-3.993 2.188-3.993 6.008 0 3.16 1.423 6.563 4.479 6.563s3.994-3.195 3.994-5.869c0-2.952-1.181-6.702-4.48-6.702m7.466 6.146c0 4.341-2.986 7.467-7.327 7.467-3.993 0-7.119-2.813-7.119-7.154 0-4.376 3.299-7.5 7.397-7.5 3.889 0 7.049 2.916 7.049 7.187M364.087 57.775c.278.243.521.798.521 1.389 0 .625-.348 1.284-.764 1.284a.6.6 0 0 1-.486-.243c-.764-.937-2.049-1.84-3.473-1.84-2.43 0-4.792 1.91-4.792 5.591 0 2.709 1.875 5.938 5.591 5.938 2.014 0 3.056-.903 3.855-2.083.277-.07.59.173.625.486-1.181 2.569-3.785 3.542-5.8 3.542-1.84 0-3.542-.59-4.757-1.771s-2.015-2.882-2.015-5.14c0-3.75 2.64-7.743 8.405-7.743.799 0 2.153.173 3.09.59M371.343 51.489c0 1.25-.868 1.806-1.84 1.806-1.077 0-1.771-.799-1.771-1.737 0-1.146.833-1.875 1.875-1.875s1.736.834 1.736 1.806m-2.882 9.897c0-1.354 0-1.528-.938-2.153l-.312-.208c-.139-.139-.139-.521.035-.625.798-.278 2.778-1.181 3.576-1.702.174 0 .312.07.348.208a81 81 0 0 0-.139 4.307v6.25c0 2.5.069 2.848 1.319 3.021l.729.105c.244.173.175.764-.07.868a47 47 0 0 0-3.263-.104c-1.25 0-2.292.034-3.264.104-.244-.104-.313-.695-.07-.868l.729-.105c1.285-.173 1.32-.521 1.32-3.021zM380.474 61.421c2.571 0 3.334-.139 3.613-.348.103-.069.208-.208.208-.659 0-.972-.661-2.188-2.675-2.188-2.049 0-3.82 1.875-3.855 3.021 0 .07 0 .174.243.174zm-2.153 1.042c-.902 0-.938.069-.938.938 0 3.506 2.049 6.493 5.765 6.493 1.147 0 2.118-.347 3.195-1.702.347-.104.59.105.625.417-1.146 2.361-3.646 3.23-5.452 3.23-2.258 0-4.028-.973-5.035-2.292-1.042-1.355-1.459-2.987-1.459-4.514 0-4.272 2.813-7.848 6.981-7.848 2.986 0 4.93 2.048 4.93 4.132 0 .486-.069.763-.138.903-.105.208-.591.243-2.049.243zM393.633 59.129c-.589 0-.625.104-.625.833v6.494c0 2.014.244 3.855 2.536 3.855.346 0 .66-.07.937-.174.313-.104.765-.486.868-.486.278 0 .417.382.348.59-.626.729-1.876 1.598-3.647 1.598-2.986 0-3.611-1.667-3.611-3.751v-7.952c0-.938-.035-1.007-.729-1.007h-.973c-.208-.139-.243-.521-.105-.729 1.008-.313 1.876-.765 2.223-1.077.452-.417 1.111-1.355 1.459-2.049.174-.069.591-.069.73.173v1.563c0 .625.034.66.625.66h3.854c.417.313.348 1.251.034 1.459z"/><path fill="#000" d="M398.702 78.507c0-.938.626-1.39 1.389-1.39h.66c.555 0 .903-.243 1.146-.625 1.007-1.563 1.701-3.021 2.015-3.855.103-.277.346-1.006.346-1.492 0-.696-.138-1.112-.59-2.397l-2.708-7.431c-.59-1.633-.834-2.466-2.049-2.709l-.868-.173c-.208-.175-.174-.765.104-.869 1.111.069 2.152.104 3.298.104.938 0 1.911-.035 3.022-.104.278.104.312.694.07.869l-.869.173c-.486.104-.764.208-.764.452 0 .416.8 2.674 1.008 3.264l1.111 3.194c.208.556.867 2.397 1.007 2.466.104-.069.659-1.146 1.284-2.57l1.181-2.743c.764-1.806 1.216-3.091 1.216-3.473 0-.243-.208-.486-.833-.59l-1.078-.173c-.243-.175-.208-.765.07-.869 1.111.069 2.153.104 3.055.104.87 0 1.668-.035 2.64-.104.278.139.313.66.069.869l-.589.104c-1.147.208-1.772 1.215-2.953 3.681l-1.944 3.993c-1.146 2.327-3.994 8.369-5.695 12.155-.591 1.319-1.424 1.632-2.223 1.632-1.007 0-1.528-.626-1.528-1.493"/></g></svg>