<?xml version="1.0" encoding="UTF-8"?>
<svg width="486px" height="81px" viewBox="0 0 486 81" version="1.1" xmlns="http://www.w3.org/2000/svg" xmlns:xlink="http://www.w3.org/1999/xlink">
    <title>21_CCS_Blue</title>
    <defs>
        <polygon id="path-1" points="0 0 485.057 0 485.057 33.8714741 0 33.8714741"></polygon>
    </defs>
    <g id="Page-1" stroke="none" stroke-width="1" fill="none" fill-rule="evenodd">
        <g id="21_CCS_Blue" transform="translate(0.000000, -1.000000)">
            <path d="" id="Fill-1" fill="#223E77"></path>
            <path d="M170.236,33.46 C169.513,33.46 168.514,33.395 167.848,33.091 C167.063,32.709 167.042,32.428 166.955,31.243 L166.948,31.138 C166.916,30.733 166.916,27.563 166.916,25.465 L166.916,23.99 C166.916,23.871 166.98,23.871 167.003,23.871 C168.206,23.871 168.931,23.891 169.153,23.931 C169.307,23.961 169.471,23.984 169.643,24.004 C170.232,24.078 170.896,24.161 171.609,24.612 C174.088,26.193 174.215,28.893 174.215,29.418 C174.215,31.261 173.524,33.46 170.236,33.46 L170.236,33.46 Z M166.916,15.484 C166.916,15.384 166.956,15.333 167.206,15.271 C167.63,15.179 168.274,15.146 168.604,15.146 C171.243,15.146 172.425,17.271 172.425,19.375 C172.425,20.47 172.072,21.416 171.376,22.185 C170.825,22.797 170.245,22.851 168.729,22.851 C168.033,22.851 167.45,22.809 167.049,22.729 C166.969,22.708 166.916,22.683 166.916,22.513 L166.916,15.484 Z M176.927,28.541 C176.927,25.733 174.464,23.694 172.132,22.954 C173.63,21.616 174.856,20.325 174.856,18.307 C174.856,17.964 174.771,16.756 173.661,15.688 C172.608,14.673 171.033,14.158 168.98,14.158 C168.23,14.158 167.466,14.18 166.852,14.197 C166.407,14.211 166.022,14.221 165.748,14.221 C165.706,14.221 165.557,14.217 165.334,14.211 C164.684,14.192 163.475,14.158 162.546,14.158 C162.295,14.158 162.037,14.193 162.037,14.448 C162.037,14.583 162.19,14.676 162.328,14.676 C162.574,14.676 163.042,14.708 163.259,14.739 C164.093,14.853 164.264,15.285 164.327,16.212 C164.39,17.056 164.39,17.804 164.39,21.949 L164.39,26.656 C164.39,29.267 164.39,31.328 164.233,32.421 L164.215,32.544 C164.105,33.25 164.025,33.756 163.572,33.839 C163.48,33.848 163.372,33.869 163.262,33.889 C163.077,33.925 162.886,33.962 162.734,33.962 C162.474,33.962 162.444,34.119 162.444,34.187 C162.444,34.478 162.828,34.478 162.954,34.478 C163.402,34.478 164.081,34.446 164.617,34.417 C165.042,34.417 165.437,34.4 165.626,34.39 C165.689,34.387 165.732,34.384 165.748,34.384 C165.823,34.384 166.137,34.397 166.575,34.412 C166.857,34.423 167.188,34.437 167.531,34.446 C168.388,34.508 169.403,34.541 169.922,34.541 C172.116,34.541 173.943,33.896 175.203,32.674 C176.316,31.596 176.927,30.129 176.927,28.541 L176.927,28.541 Z M109.544,33.768 C109.765,32.982 109.955,31.373 109.955,31.083 C109.955,30.963 109.955,30.604 109.697,30.604 C109.519,30.604 109.386,30.756 109.344,31.006 C109.243,31.579 109.009,32.115 108.7,32.479 C108.086,33.215 106.956,33.271 105.428,33.271 C103.314,33.271 102.231,33.09 101.805,32.664 C101.314,32.202 101.261,30.497 101.261,26.719 L101.261,21.949 C101.261,17.801 101.261,17.054 101.293,16.212 C101.356,15.273 101.514,14.914 102.265,14.769 C102.571,14.739 102.981,14.708 103.168,14.708 C103.295,14.708 103.458,14.586 103.458,14.448 C103.458,14.158 103.075,14.158 102.949,14.158 C102.337,14.158 101.068,14.192 100.389,14.211 C100.124,14.218 99.939,14.223 99.904,14.223 C99.865,14.223 99.716,14.218 99.497,14.212 C98.867,14.193 97.695,14.158 96.765,14.158 C96.514,14.158 96.257,14.193 96.257,14.448 C96.257,14.581 96.415,14.737 96.547,14.737 C96.792,14.737 97.262,14.769 97.478,14.801 C98.312,14.914 98.484,15.27 98.547,16.212 C98.61,17.054 98.61,17.802 98.61,21.949 L98.61,26.656 C98.61,29.267 98.61,31.328 98.455,32.421 L98.443,32.496 C98.326,33.225 98.255,33.663 97.785,33.777 C97.547,33.836 97.207,33.899 96.954,33.899 C96.765,33.899 96.664,34.048 96.664,34.19 C96.664,34.478 97.047,34.478 97.175,34.478 C97.609,34.478 98.206,34.449 98.779,34.415 C99.13,34.395 99.51,34.384 99.904,34.384 C100.532,34.384 101.223,34.403 102.098,34.426 L102.914,34.446 C104.232,34.51 105.758,34.543 107.718,34.543 C109.212,34.543 109.34,34.446 109.544,33.768 L109.544,33.768 Z M62.118,34.919 C63.982,34.919 66.45,34.728 67.794,34.19 C68.384,33.928 68.458,33.848 68.65,33.236 C68.967,32.157 69.345,29.437 69.345,29.199 C69.345,28.854 69.238,28.657 69.054,28.657 C68.789,28.657 68.729,28.877 68.671,29.187 C68.577,29.742 68.176,31.108 67.527,31.786 C66.202,33.148 64.144,33.333 62.118,33.333 C58.977,33.333 56.089,32.102 53.987,29.862 C52,27.744 50.859,24.85 50.859,21.919 C50.859,19.221 51.193,16.146 53.662,13.776 C55.235,12.249 57.582,11.505 60.832,11.505 C63.708,11.505 66.035,12.395 67.062,13.279 C67.837,13.934 68.357,15.198 68.357,16.426 C68.357,16.767 68.357,17.155 68.676,17.155 C68.958,17.155 69.001,16.827 69.03,16.429 C69.043,16.23 69.051,15.807 69.06,15.317 C69.071,14.641 69.088,13.797 69.125,13.197 C69.161,12.508 69.212,12.098 69.245,11.829 C69.267,11.654 69.281,11.536 69.281,11.436 C69.281,11.171 69.144,11.051 68.808,11.021 C67.826,10.959 66.83,10.774 65.676,10.562 L65.613,10.55 C63.764,10.211 61.806,10.174 61.05,10.174 C56.851,10.174 53.704,11.278 51.43,13.551 C48.822,16.158 47.894,19.711 47.894,22.17 C47.894,26.095 49.179,29.237 51.714,31.511 C54.302,33.836 57.609,34.919 62.118,34.919 L62.118,34.919 Z M160.129,33.899 C159.857,33.899 159.136,33.899 158.364,33.653 C157.233,33.275 157.081,31.762 156.999,30.95 L155.115,14.565 C155.034,13.919 154.81,13.783 154.637,13.783 C154.395,13.783 154.252,14.029 154.134,14.26 L146.163,30.671 L137.879,14.228 C137.686,13.841 137.401,13.783 137.251,13.783 C137.055,13.783 136.903,13.992 136.867,14.316 L134.859,31.733 C134.85,31.817 134.838,31.904 134.828,31.989 C134.722,32.892 134.629,33.672 133.849,33.806 L133.797,33.814 C133.433,33.871 133.25,33.899 133.045,33.899 C132.853,33.899 132.694,34.017 132.694,34.156 C132.694,34.478 133.102,34.478 133.234,34.478 C133.713,34.478 134.419,34.44 134.935,34.413 C135.232,34.398 135.466,34.384 135.555,34.384 C135.623,34.384 135.8,34.395 136.043,34.407 C136.592,34.437 137.42,34.478 138.13,34.478 C138.286,34.478 138.703,34.478 138.703,34.156 C138.703,34.02 138.54,33.899 138.412,33.899 C138.335,33.899 137.913,33.891 137.361,33.744 C137.085,33.681 136.756,33.509 136.756,33.059 C136.756,32.619 136.756,32.12 136.788,31.716 L137.849,19.728 L137.865,19.728 C138.212,20.528 139.356,22.865 140.279,24.748 C140.713,25.636 141.106,26.441 141.362,26.971 C142.037,28.383 143.853,31.798 144.595,33.156 C145.134,34.134 145.301,34.417 145.598,34.417 C145.898,34.417 146.062,34.142 146.635,32.965 L153.232,19.462 L154.536,32.817 C154.607,33.383 154.538,33.666 154.462,33.683 C154.318,33.718 154.223,33.831 154.223,33.968 C154.223,34.169 154.446,34.262 155.071,34.322 C156.089,34.417 159.174,34.478 159.785,34.478 C160.17,34.478 160.419,34.352 160.419,34.156 C160.419,34 160.306,33.899 160.129,33.899 L160.129,33.899 Z M110.983,14.739 C111.226,14.739 111.697,14.771 111.913,14.799 C112.749,14.914 112.919,15.329 112.983,16.212 C113.046,17.056 113.046,17.804 113.046,21.949 L113.046,25.872 C113.046,30.112 114.35,31.866 115.486,32.923 C116.815,34.165 118.818,34.825 121.277,34.825 C122.923,34.825 125.072,34.602 127.098,32.862 C129.4,30.888 129.695,27.519 129.695,24.807 L129.695,21.949 C129.695,20.657 129.692,19.693 129.691,18.956 C129.685,17.337 129.683,16.791 129.725,16.212 C129.787,15.354 129.933,14.947 130.643,14.799 C130.98,14.739 131.13,14.739 131.319,14.739 C131.483,14.739 131.609,14.583 131.609,14.448 C131.609,14.193 131.352,14.158 131.1,14.158 C130.546,14.158 129.771,14.187 129.258,14.206 C129.016,14.215 128.838,14.221 128.778,14.221 C128.737,14.221 128.596,14.217 128.385,14.211 C127.795,14.192 126.698,14.158 125.797,14.158 C125.545,14.158 125.287,14.193 125.287,14.448 C125.287,14.583 125.414,14.739 125.576,14.739 C125.819,14.739 126.292,14.771 126.507,14.799 C127.35,14.916 127.514,15.346 127.546,16.208 L127.549,16.263 C127.579,17.105 127.609,17.899 127.609,21.949 L127.609,25.306 C127.609,27.679 127.421,30.099 126.054,31.727 C125.101,32.874 123.486,33.586 121.842,33.586 C120.262,33.586 119.093,33.352 117.778,32.158 C116.73,31.221 115.761,29.791 115.761,25.682 L115.761,21.949 C115.761,17.804 115.761,17.056 115.822,16.212 C115.884,15.348 116.033,14.917 116.706,14.799 C117.047,14.739 117.195,14.739 117.385,14.739 C117.541,14.739 117.705,14.589 117.705,14.448 C117.705,14.158 117.312,14.158 117.166,14.158 C116.64,14.158 115.747,14.184 115.095,14.202 C114.736,14.214 114.461,14.221 114.372,14.221 C114.295,14.221 114.083,14.215 113.789,14.208 C113.148,14.19 112.071,14.158 111.203,14.158 C110.952,14.158 110.693,14.193 110.693,14.448 C110.693,14.581 110.851,14.739 110.983,14.739 L110.983,14.739 Z M82.611,14.927 C84.829,14.927 86.857,15.799 88.323,17.384 C89.941,19.131 90.796,21.632 90.796,24.615 C90.796,27.968 89.86,30.445 88.017,31.978 C86.271,33.428 84.204,33.586 83.397,33.586 C80.961,33.586 78.763,32.627 77.215,30.885 C75.598,29.069 74.742,26.531 74.742,23.55 C74.742,18.15 77.684,14.927 82.611,14.927 L82.611,14.927 Z M82.611,34.825 C85.784,34.825 88.654,33.678 90.697,31.594 C92.671,29.579 93.76,26.834 93.76,23.863 C93.76,20.853 92.67,18.299 90.607,16.475 C88.64,14.739 85.858,13.783 82.769,13.783 C75.165,13.783 71.745,19.915 71.745,24.272 C71.745,26.887 72.686,29.472 74.324,31.36 C76.292,33.626 79.158,34.825 82.611,34.825 L82.611,34.825 Z M180.213,14.739 C180.392,14.739 180.728,14.768 181.049,14.832 C181.594,14.947 181.809,15.307 181.871,16.212 C181.934,17.054 181.934,17.802 181.934,21.949 L181.934,26.656 C181.934,28.703 181.915,31.209 181.776,32.424 C181.686,33.188 181.594,33.66 181.109,33.777 C180.865,33.836 180.522,33.899 180.278,33.899 C180.089,33.899 179.988,34.048 179.988,34.187 C179.988,34.478 180.371,34.478 180.498,34.478 C181.091,34.478 182.117,34.433 182.73,34.406 C182.993,34.393 183.181,34.384 183.227,34.384 C183.255,34.384 183.364,34.387 183.532,34.397 C184.117,34.421 185.482,34.478 186.68,34.478 C187.124,34.478 187.19,34.298 187.19,34.187 C187.19,34.048 187.087,33.899 186.9,33.899 C186.645,33.899 186.052,33.834 185.654,33.774 C184.895,33.657 184.803,33.207 184.71,32.424 C184.585,31.329 184.585,29.267 184.585,26.656 L184.585,21.949 C184.585,17.801 184.585,17.054 184.617,16.21 C184.678,15.282 184.821,14.947 185.532,14.801 C185.84,14.739 186.019,14.739 186.21,14.739 C186.342,14.739 186.5,14.581 186.5,14.448 C186.5,14.193 186.243,14.16 185.99,14.16 C185.377,14.16 184.259,14.192 183.659,14.209 C183.424,14.217 183.261,14.221 183.227,14.221 C183.183,14.221 183.001,14.215 182.747,14.209 C182.124,14.19 181.079,14.16 180.435,14.16 C180.184,14.16 179.927,14.193 179.927,14.448 C179.927,14.583 180.051,14.739 180.213,14.739 L180.213,14.739 Z M200.709,25.801 L195.122,25.801 C195.101,25.801 195.093,25.798 195.092,25.796 C195.087,25.789 195.081,25.762 195.093,25.707 L197.666,18.396 C197.764,18.143 197.829,18.135 197.837,18.135 C197.845,18.135 197.909,18.143 198.007,18.396 L200.736,25.701 C200.753,25.772 200.752,25.795 200.753,25.796 C200.753,25.796 200.744,25.801 200.709,25.801 L200.709,25.801 Z M201.304,27.153 L203.782,33.276 C203.848,33.427 203.857,33.561 203.809,33.675 C203.76,33.792 203.652,33.871 203.565,33.906 C203.542,33.919 203.521,33.925 203.503,33.936 C203.417,33.974 203.337,34.011 203.337,34.157 C203.337,34.36 203.671,34.378 204.175,34.406 L204.378,34.415 C205.614,34.455 207.164,34.478 208.742,34.478 C208.952,34.478 209.44,34.449 209.44,34.19 C209.44,33.989 209.226,33.899 209.026,33.899 C208.81,33.899 208.382,33.879 207.948,33.746 C207.307,33.544 206.602,33.156 205.638,30.867 C204.763,28.78 203.163,24.838 201.753,21.361 C200.414,18.066 199.259,15.22 199.012,14.67 C198.955,14.548 198.907,14.436 198.861,14.336 C198.681,13.926 198.563,13.658 198.291,13.658 C198.051,13.658 197.909,13.869 197.566,14.737 L191.071,31.431 C190.498,32.88 189.967,33.691 188.806,33.839 C188.579,33.869 188.179,33.899 187.998,33.899 C187.843,33.899 187.675,34.016 187.675,34.19 C187.675,34.478 188.116,34.478 188.282,34.478 C189.036,34.478 189.902,34.437 190.478,34.409 C190.758,34.395 190.981,34.384 191.074,34.384 C191.2,34.384 191.53,34.401 191.912,34.418 C192.469,34.446 193.162,34.478 193.551,34.478 C193.948,34.478 194.032,34.322 194.032,34.19 C194.032,34.057 193.971,33.899 193.679,33.899 L193.427,33.899 C193.223,33.899 192.556,33.851 192.556,33.247 C192.556,32.8 192.702,32.158 192.96,31.484 L194.529,27.217 C194.592,27.063 194.672,27.042 194.745,27.042 L201.114,27.042 C201.246,27.042 201.253,27.057 201.304,27.153 L201.304,27.153 Z" id="Fill-2" fill="#223E77"></path>
            <path d="M220.954,31.464 C217.892,28.717 217.134,25.118 217.134,22.119 C217.134,20.001 217.86,16.309 220.669,13.5 C222.565,11.604 225.437,10.121 230.298,10.121 C231.563,10.121 233.33,10.216 234.877,10.499 C236.077,10.72 237.087,10.91 238.096,10.973 C238.445,11.005 238.509,11.131 238.509,11.32 C238.509,11.573 238.414,11.952 238.349,13.088 C238.286,14.131 238.286,15.867 238.254,16.341 C238.223,16.814 238.16,17.003 237.97,17.003 C237.751,17.003 237.72,16.783 237.72,16.341 C237.72,15.11 237.212,13.814 236.392,13.119 C235.288,12.172 232.857,11.32 230.077,11.32 C225.879,11.32 223.921,12.553 222.816,13.626 C220.511,15.836 219.975,18.645 219.975,21.864 C219.975,27.896 224.616,33.421 231.374,33.421 C233.741,33.421 235.603,33.136 236.866,31.842 C237.528,31.148 237.939,29.759 238.033,29.19 C238.096,28.842 238.16,28.717 238.349,28.717 C238.509,28.717 238.572,28.937 238.572,29.19 C238.572,29.412 238.191,32.158 237.876,33.231 C237.688,33.831 237.625,33.894 237.055,34.147 C235.792,34.653 233.393,34.873 231.374,34.873 C226.637,34.873 223.449,33.704 220.954,31.464" id="Fill-3" fill="#223E77"></path>
            <path d="M247.027,26.696 C247.027,30.642 247.09,32.254 247.594,32.726 C248.039,33.17 249.111,33.358 251.289,33.358 C252.742,33.358 253.972,33.327 254.635,32.538 C254.983,32.125 255.205,31.559 255.299,31.021 C255.33,30.832 255.424,30.676 255.583,30.676 C255.709,30.676 255.773,30.799 255.773,31.084 C255.773,31.368 255.583,32.979 255.362,33.768 C255.173,34.4 255.079,34.495 253.595,34.495 C251.605,34.495 250.058,34.463 248.763,34.4 C247.501,34.369 246.554,34.337 245.733,34.337 C245.606,34.337 245.133,34.337 244.595,34.369 C244.028,34.4 243.427,34.43 242.985,34.43 C242.701,34.43 242.544,34.369 242.544,34.212 C242.544,34.116 242.606,33.989 242.764,33.989 C243.017,33.989 243.364,33.926 243.616,33.863 C244.154,33.737 244.216,33.231 244.342,32.442 C244.5,31.336 244.5,29.221 244.5,26.633 L244.5,21.897 C244.5,17.729 244.5,16.971 244.438,16.118 C244.373,15.203 244.216,14.761 243.301,14.635 C243.082,14.604 242.606,14.572 242.354,14.572 C242.259,14.572 242.133,14.445 242.133,14.352 C242.133,14.194 242.259,14.131 242.574,14.131 C243.837,14.131 245.575,14.194 245.733,14.194 C245.859,14.194 247.943,14.131 248.795,14.131 C249.079,14.131 249.237,14.194 249.237,14.352 C249.237,14.445 249.111,14.54 249.016,14.54 C248.828,14.54 248.416,14.572 248.1,14.604 C247.28,14.761 247.123,15.172 247.058,16.118 C247.027,16.971 247.027,17.729 247.027,21.897 L247.027,26.696" id="Fill-4" fill="#223E77"></path>
            <path d="M262.998,26.633 C262.998,29.221 262.998,31.336 263.124,32.442 C263.22,33.231 263.316,33.737 264.135,33.863 C264.545,33.926 265.145,33.989 265.398,33.989 C265.556,33.989 265.618,34.116 265.618,34.212 C265.618,34.337 265.492,34.43 265.177,34.43 C263.63,34.43 261.831,34.337 261.705,34.337 C261.546,34.337 259.809,34.43 258.957,34.43 C258.673,34.43 258.516,34.369 258.516,34.212 C258.516,34.116 258.578,33.989 258.735,33.989 C258.987,33.989 259.336,33.926 259.588,33.863 C260.125,33.737 260.219,33.231 260.313,32.442 C260.44,31.336 260.472,29.221 260.472,26.633 L260.472,21.897 C260.472,17.729 260.472,16.971 260.408,16.118 C260.345,15.203 260.125,14.793 259.524,14.667 C259.21,14.604 258.861,14.572 258.673,14.572 C258.547,14.572 258.451,14.445 258.451,14.352 C258.451,14.194 258.578,14.131 258.894,14.131 C259.809,14.131 261.546,14.194 261.705,14.194 C261.831,14.194 263.63,14.131 264.482,14.131 C264.798,14.131 264.924,14.194 264.924,14.352 C264.924,14.445 264.798,14.572 264.703,14.572 C264.514,14.572 264.323,14.572 264.009,14.635 C263.251,14.793 263.093,15.172 263.03,16.118 C262.998,16.971 262.998,17.729 262.998,21.897 L262.998,26.633" id="Fill-5" fill="#223E77"></path>
            <path d="M292.641,30.99 C292.736,31.937 292.926,33.39 294.062,33.769 C294.851,34.02 295.577,34.02 295.862,34.02 C295.989,34.02 296.083,34.082 296.083,34.212 C296.083,34.369 295.83,34.465 295.514,34.465 C294.883,34.465 291.789,34.432 290.779,34.338 C290.116,34.273 289.99,34.179 289.99,34.051 C289.99,33.956 290.053,33.862 290.18,33.832 C290.337,33.8 290.368,33.39 290.304,32.883 L288.979,19.246 L288.916,19.246 L282.221,32.947 C281.655,34.114 281.496,34.369 281.243,34.369 C280.992,34.369 280.834,34.114 280.297,33.136 C279.571,31.812 277.742,28.37 277.045,26.915 C276.225,25.211 273.983,20.698 273.509,19.592 L273.383,19.592 L272.31,31.715 C272.279,32.126 272.279,32.633 272.279,33.072 C272.279,33.484 272.529,33.737 272.942,33.832 C273.414,33.956 273.825,33.988 274.015,33.988 C274.109,33.988 274.235,34.082 274.235,34.179 C274.235,34.369 274.046,34.432 273.732,34.432 C272.686,34.432 271.364,34.338 271.14,34.338 C270.888,34.338 269.562,34.432 268.805,34.432 C268.52,34.432 268.331,34.369 268.331,34.179 C268.331,34.082 268.457,33.988 268.614,33.988 C268.836,33.988 269.026,33.956 269.436,33.894 C270.351,33.737 270.384,32.76 270.51,31.747 L272.529,14.225 C272.56,13.942 272.686,13.752 272.847,13.752 C273.036,13.752 273.256,13.847 273.414,14.162 L281.814,30.832 L289.895,14.194 C290.021,13.942 290.147,13.752 290.337,13.752 C290.526,13.752 290.684,13.973 290.747,14.478 L292.641,30.99" id="Fill-6" fill="#223E77"></path>
            <path d="M307.977,25.842 C308.103,25.842 308.103,25.781 308.072,25.654 L305.326,18.298 C305.167,17.887 305.01,17.887 304.853,18.298 L302.263,25.654 C302.231,25.781 302.263,25.842 302.357,25.842 L307.977,25.842 Z M304.883,14.666 C305.23,13.782 305.357,13.626 305.546,13.626 C305.831,13.626 305.925,14.005 306.209,14.604 C306.714,15.741 311.166,26.823 312.872,30.895 C313.881,33.295 314.64,33.641 315.239,33.832 C315.649,33.957 316.059,33.989 316.344,33.989 C316.502,33.989 316.69,34.051 316.69,34.21 C316.69,34.367 316.375,34.43 316.059,34.43 C315.649,34.43 313.598,34.43 311.671,34.367 C311.135,34.335 310.692,34.335 310.692,34.177 C310.692,34.051 310.755,34.051 310.882,33.989 C311.039,33.925 311.324,33.704 311.135,33.262 L308.641,27.107 C308.578,26.98 308.546,26.949 308.388,26.949 L301.978,26.949 C301.852,26.949 301.758,27.011 301.694,27.168 L300.116,31.464 C299.863,32.126 299.706,32.789 299.706,33.262 C299.706,33.801 300.179,33.989 300.652,33.989 L300.905,33.989 C301.126,33.989 301.189,34.084 301.189,34.21 C301.189,34.367 301.032,34.43 300.779,34.43 C300.116,34.43 298.601,34.335 298.285,34.335 C298,34.335 296.611,34.43 295.476,34.43 C295.127,34.43 294.938,34.367 294.938,34.21 C294.938,34.084 295.064,33.989 295.19,33.989 C295.38,33.989 295.79,33.957 296.012,33.925 C297.274,33.768 297.811,32.821 298.348,31.464 L304.883,14.666 L304.883,14.666 Z" id="Fill-7" fill="#223E77"></path>
            <path d="M323.476,26.633 C323.476,29.221 323.476,31.336 323.602,32.442 C323.696,33.231 323.822,33.737 324.675,33.863 C325.054,33.926 325.686,33.989 325.939,33.989 C326.128,33.989 326.159,34.116 326.159,34.212 C326.159,34.337 326.032,34.43 325.716,34.43 C324.202,34.43 322.434,34.337 322.276,34.337 C322.15,34.337 320.224,34.43 319.403,34.43 C319.087,34.43 318.962,34.369 318.962,34.212 C318.962,34.116 319.025,34.02 319.182,34.02 C319.435,34.02 319.751,33.959 320.003,33.894 C320.572,33.768 320.729,33.231 320.823,32.442 C320.949,31.336 320.949,29.221 320.949,26.633 L320.949,15.361 L316.941,15.424 C315.204,15.456 314.541,15.647 314.131,16.277 C313.815,16.751 313.783,16.94 313.689,17.131 C313.626,17.352 313.53,17.383 313.405,17.383 C313.342,17.383 313.215,17.32 313.215,17.162 C313.215,16.876 313.752,14.477 313.815,14.257 C313.846,14.099 314.004,13.751 314.099,13.751 C314.288,13.751 314.572,13.972 315.33,14.067 C316.119,14.162 317.193,14.194 317.509,14.194 L327.99,14.194 C328.905,14.194 329.537,14.131 329.98,14.067 C330.39,14.004 330.643,13.941 330.769,13.941 C330.895,13.941 330.895,14.099 330.895,14.257 C330.895,15.077 330.8,17.003 330.8,17.32 C330.8,17.541 330.675,17.667 330.548,17.667 C330.422,17.667 330.359,17.572 330.327,17.194 L330.296,16.908 C330.2,16.087 329.601,15.487 326.948,15.424 L323.476,15.361 L323.476,26.633" id="Fill-8" fill="#223E77"></path>
            <path d="M335.754,21.897 C335.754,17.729 335.754,16.971 335.69,16.118 C335.627,15.203 335.47,14.761 334.554,14.635 C334.332,14.604 333.859,14.572 333.607,14.572 C333.512,14.572 333.386,14.446 333.386,14.352 C333.386,14.194 333.512,14.131 333.828,14.131 C335.09,14.131 336.891,14.194 337.048,14.194 C337.237,14.194 343.046,14.225 343.677,14.194 C344.214,14.162 344.72,14.067 344.941,14.036 C345.067,14.004 345.194,13.909 345.32,13.909 C345.414,13.909 345.446,14.036 345.446,14.162 C345.446,14.352 345.288,14.667 345.224,15.424 C345.194,15.677 345.13,16.876 345.067,17.194 C345.035,17.32 344.941,17.478 344.814,17.478 C344.657,17.478 344.594,17.352 344.594,17.129 C344.594,16.94 344.562,16.499 344.435,16.182 C344.246,15.74 343.962,15.55 342.447,15.361 C341.972,15.298 338.753,15.266 338.437,15.266 C338.31,15.266 338.279,15.361 338.279,15.55 L338.279,22.843 C338.279,23.034 338.279,23.129 338.437,23.129 C338.785,23.129 342.447,23.129 343.077,23.065 C343.742,23.002 344.152,22.969 344.435,22.686 C344.625,22.496 344.752,22.339 344.847,22.339 C344.941,22.339 345.004,22.403 345.004,22.56 C345.004,22.717 344.847,23.159 344.784,24.042 C344.72,24.582 344.657,25.591 344.657,25.779 C344.657,26.003 344.594,26.286 344.405,26.286 C344.278,26.286 344.214,26.191 344.214,26.034 C344.214,25.779 344.214,25.497 344.088,25.149 C343.995,24.77 343.742,24.455 342.668,24.329 C341.911,24.234 338.942,24.201 338.469,24.201 C338.31,24.201 338.279,24.298 338.279,24.392 L338.279,26.633 C338.279,27.549 338.247,30.676 338.279,31.209 C338.343,33.011 338.848,33.358 341.595,33.358 C342.32,33.358 343.646,33.358 344.372,33.074 C345.098,32.758 345.477,32.285 345.636,31.209 C345.699,30.895 345.762,30.799 345.92,30.799 C346.077,30.799 346.109,31.021 346.109,31.209 C346.109,31.401 345.888,33.231 345.73,33.8 C345.541,34.495 345.255,34.495 344.182,34.495 C342.099,34.495 340.49,34.43 339.352,34.4 C338.184,34.337 337.458,34.337 337.048,34.337 C336.985,34.337 336.448,34.337 335.849,34.369 C335.311,34.4 334.681,34.43 334.238,34.43 C333.953,34.43 333.796,34.369 333.796,34.212 C333.796,34.116 333.859,33.989 334.016,33.989 C334.269,33.989 334.617,33.894 334.87,33.863 C335.407,33.768 335.47,33.231 335.596,32.442 C335.754,31.336 335.754,29.221 335.754,26.633 L335.754,21.897" id="Fill-9" fill="#223E77"></path>
            <path d="M360.28,34.02 C359.837,33.799 359.806,33.672 359.806,32.821 C359.806,31.243 359.933,29.979 359.963,29.475 C359.996,29.126 360.059,28.968 360.216,28.968 C360.406,28.968 360.438,29.064 360.438,29.317 C360.438,29.602 360.438,30.041 360.532,30.485 C361.005,32.821 363.089,33.704 365.206,33.704 C368.236,33.704 369.718,31.527 369.718,29.508 C369.718,27.327 368.804,26.065 366.088,23.823 L364.67,22.655 C361.322,19.908 360.565,17.95 360.565,15.804 C360.565,12.425 363.089,10.121 367.099,10.121 C368.331,10.121 369.247,10.247 370.036,10.437 C370.635,10.563 370.888,10.595 371.141,10.595 C371.393,10.595 371.457,10.657 371.457,10.815 C371.457,10.973 371.331,12.015 371.331,14.161 C371.331,14.666 371.267,14.887 371.109,14.887 C370.919,14.887 370.888,14.729 370.856,14.479 C370.825,14.098 370.635,13.246 370.446,12.899 C370.256,12.551 369.404,11.226 366.501,11.226 C364.321,11.226 362.615,12.583 362.615,14.887 C362.615,16.688 363.437,17.824 366.467,20.192 L367.351,20.886 C371.078,23.823 371.961,25.781 371.961,28.305 C371.961,29.602 371.457,32 369.277,33.547 C367.92,34.493 366.215,34.873 364.51,34.873 C363.026,34.873 361.574,34.653 360.28,34.02" id="Fill-10" fill="#223E77"></path>
            <path d="M378.871,31.906 C376.156,29.569 375.494,26.508 375.494,23.95 C375.494,22.15 376.156,19.023 378.619,16.624 C380.292,15.014 382.817,13.752 387.079,13.752 C388.184,13.752 389.764,13.847 391.121,14.068 C392.162,14.257 393.046,14.446 393.962,14.478 C394.246,14.478 394.309,14.604 394.309,14.762 C394.309,14.983 394.246,15.299 394.183,16.278 C394.152,17.161 394.152,18.646 394.12,19.023 C394.088,19.435 393.962,19.594 393.805,19.594 C393.616,19.594 393.584,19.403 393.584,19.023 C393.584,17.982 393.141,16.908 392.415,16.341 C391.436,15.52 389.416,14.857 386.953,14.857 C383.386,14.857 381.681,15.803 380.703,16.719 C378.65,18.615 378.208,21.014 378.208,23.728 C378.208,28.876 382.281,33.452 388.216,33.452 C390.3,33.452 391.689,33.293 392.795,32.19 C393.394,31.589 393.773,30.454 393.869,29.948 C393.931,29.665 393.962,29.569 394.152,29.569 C394.278,29.569 394.405,29.759 394.405,29.948 C394.405,30.136 394.026,32.473 393.742,33.388 C393.584,33.894 393.52,33.988 393.046,34.177 C391.911,34.622 389.827,34.779 388.027,34.779 C383.859,34.779 381.049,33.801 378.871,31.906" id="Fill-11" fill="#223E77"></path>
            <path d="M417.037,26.633 C417.037,29.221 417.071,31.336 417.195,32.442 C417.29,33.231 417.353,33.737 418.205,33.863 C418.584,33.926 419.216,33.989 419.438,33.989 C419.626,33.989 419.689,34.116 419.689,34.212 C419.689,34.337 419.531,34.43 419.216,34.43 C417.7,34.43 415.931,34.337 415.774,34.337 C415.648,34.337 413.848,34.43 413.028,34.43 C412.712,34.43 412.586,34.369 412.586,34.212 C412.586,34.116 412.649,33.989 412.806,33.989 C413.059,33.989 413.375,33.926 413.628,33.863 C414.196,33.737 414.29,33.2 414.384,32.411 C414.51,31.305 414.51,29.286 414.51,26.696 L414.51,24.011 C414.51,23.885 414.447,23.854 414.353,23.854 L402.766,23.854 C402.672,23.854 402.609,23.885 402.609,24.011 L402.609,26.696 C402.609,29.286 402.609,31.336 402.735,32.442 C402.83,33.231 402.925,33.737 403.745,33.863 C404.156,33.926 404.755,33.989 405.008,33.989 C405.168,33.989 405.229,34.116 405.229,34.212 C405.229,34.337 405.102,34.43 404.787,34.43 C403.241,34.43 401.471,34.337 401.345,34.337 C401.188,34.337 399.42,34.43 398.568,34.43 C398.283,34.43 398.126,34.369 398.126,34.212 C398.126,34.116 398.188,33.989 398.345,33.989 C398.598,33.989 398.947,33.926 399.2,33.863 C399.736,33.737 399.799,33.231 399.925,32.442 C400.083,31.336 400.083,29.221 400.083,26.633 L400.083,21.897 C400.083,17.729 400.083,16.971 400.019,16.118 C399.957,15.203 399.799,14.761 398.883,14.635 C398.662,14.604 398.188,14.572 397.936,14.572 C397.841,14.572 397.715,14.445 397.715,14.352 C397.715,14.194 397.841,14.131 398.158,14.131 C399.42,14.131 401.188,14.194 401.345,14.194 C401.471,14.194 403.241,14.131 404.093,14.131 C404.408,14.131 404.534,14.194 404.534,14.352 C404.534,14.445 404.408,14.572 404.313,14.572 C404.124,14.572 403.934,14.572 403.619,14.635 C402.862,14.793 402.703,15.172 402.639,16.118 C402.609,16.971 402.609,17.792 402.609,21.96 L402.609,22.529 C402.609,22.688 402.672,22.688 402.766,22.688 L414.353,22.688 C414.447,22.688 414.51,22.688 414.51,22.529 L414.51,21.96 C414.51,17.792 414.48,16.971 414.447,16.118 C414.384,15.203 414.259,14.761 413.343,14.635 C413.124,14.604 412.649,14.572 412.396,14.572 C412.269,14.572 412.175,14.445 412.175,14.352 C412.175,14.194 412.302,14.131 412.617,14.131 C413.848,14.131 415.648,14.194 415.774,14.194 C415.931,14.194 417.7,14.131 418.521,14.131 C418.837,14.131 418.994,14.194 418.994,14.352 C418.994,14.445 418.868,14.572 418.741,14.572 C418.551,14.572 418.394,14.572 418.047,14.635 C417.322,14.793 417.163,15.172 417.1,16.118 C417.037,16.971 417.037,17.729 417.037,21.897 L417.037,26.633" id="Fill-12" fill="#223E77"></path>
            <path d="M433.952,33.674 C436.448,33.674 441.467,32.348 441.467,24.582 C441.467,18.141 437.552,14.761 433.163,14.761 C428.522,14.761 425.176,17.667 425.176,23.509 C425.176,29.76 428.932,33.674 433.952,33.674 M433.322,13.751 C439.573,13.751 444.308,17.572 444.308,23.822 C444.308,29.822 439.857,34.779 433.163,34.779 C425.555,34.779 422.303,29.064 422.303,24.234 C422.303,19.908 425.649,13.751 433.322,13.751" id="Fill-13" fill="#223E77"></path>
            <path d="M458.542,33.674 C461.037,33.674 466.056,32.348 466.056,24.582 C466.056,18.141 462.142,14.761 457.753,14.761 C453.112,14.761 449.765,17.667 449.765,23.509 C449.765,29.76 453.521,33.674 458.542,33.674 M457.911,13.751 C464.163,13.751 468.897,17.572 468.897,23.822 C468.897,29.822 464.446,34.779 457.753,34.779 C450.144,34.779 446.892,29.064 446.892,24.234 C446.892,19.908 450.239,13.751 457.911,13.751" id="Fill-14" fill="#223E77"></path>
            <g id="Group-18" transform="translate(0.000000, 0.851526)">
                <mask id="mask-2" fill="white">
                    <use xlink:href="#path-1"></use>
                </mask>
                <g id="Clip-16"></g>
                <path d="M476.312,25.8444741 C476.312,29.7904741 476.376,31.4024741 476.88,31.8744741 C477.322,32.3184741 478.396,32.5064741 480.574,32.5064741 C482.027,32.5064741 483.257,32.4754741 483.921,31.6864741 C484.268,31.2734741 484.489,30.7074741 484.585,30.1694741 C484.615,29.9804741 484.711,29.8244741 484.868,29.8244741 C484.995,29.8244741 485.057,29.9474741 485.057,30.2324741 C485.057,30.5164741 484.868,32.1274741 484.647,32.9164741 C484.458,33.5484741 484.362,33.6434741 482.879,33.6434741 C480.89,33.6434741 479.342,33.6114741 478.047,33.5484741 C476.786,33.5174741 475.839,33.4854741 475.017,33.4854741 C474.891,33.4854741 474.418,33.4854741 473.881,33.5174741 C473.313,33.5484741 472.713,33.5784741 472.271,33.5784741 C471.986,33.5784741 471.829,33.5174741 471.829,33.3604741 C471.829,33.2644741 471.892,33.1374741 472.049,33.1374741 C472.302,33.1374741 472.65,33.0744741 472.903,33.0114741 C473.439,32.8854741 473.503,32.3794741 473.629,31.5904741 C473.786,30.4844741 473.786,28.3694741 473.786,25.7814741 L473.786,21.0454741 C473.786,16.8774741 473.786,16.1194741 473.723,15.2664741 C473.66,14.3514741 473.503,13.9094741 472.587,13.7834741 C472.365,13.7524741 471.892,13.7204741 471.639,13.7204741 C471.544,13.7204741 471.419,13.5934741 471.419,13.5004741 C471.419,13.3424741 471.544,13.2794741 471.861,13.2794741 C473.122,13.2794741 474.86,13.3424741 475.017,13.3424741 C475.144,13.3424741 477.228,13.2794741 478.08,13.2794741 C478.364,13.2794741 478.522,13.3424741 478.522,13.5004741 C478.522,13.5934741 478.396,13.6884741 478.3,13.6884741 C478.111,13.6884741 477.701,13.7204741 477.385,13.7524741 C476.565,13.9094741 476.406,14.3204741 476.343,15.2664741 C476.312,16.1194741 476.312,16.8774741 476.312,21.0454741 L476.312,25.8444741" id="Fill-15" fill="#223E77" mask="url(#mask-2)"></path>
                <path d="M4.463,33.8684741 L34.409,33.8714741 L34.409,31.3264741 L4.463,31.3264741 L4.463,33.8684741 Z M35.843,18.9404741 C34.35,21.9894741 31.836,26.3904741 29.807,26.9574741 C28.719,27.2624741 28.036,26.8094741 28.039,25.9324741 C28.04,25.2404741 28.155,24.5654741 28.591,24.2344741 C28.591,24.2344741 30.688,24.2214741 30.9,24.0354741 C31.118,23.8474741 31.285,22.5884741 31.246,22.3354741 C31.206,22.0844741 28.96,22.5404741 28.842,22.2964741 C28.724,22.0534741 29.42,20.6214741 29.296,20.3794741 C29.171,20.1384741 27.479,20.3914741 27.479,20.3914741 C27.257,20.4964741 27.059,22.2104741 26.844,22.3864741 C26.629,22.5584741 25.027,22.3224741 24.827,22.5004741 C24.625,22.6784741 24.284,24.0634741 24.409,24.2394741 C24.535,24.4164741 26.31,24.1434741 26.458,24.3344741 C26.629,24.8934741 26.091,25.8444741 25.433,26.4194741 C24.955,26.8404741 24.427,27.0874741 23.771,27.0845012 C22.771,27.0774741 21.566,25.7034741 21.188,23.5394741 C20.921,22.0254741 21.559,19.0264741 22.193,17.6184741 C23.558,14.5944741 22.732,14.7804741 23.107,14.5464741 C24.647,13.5914741 27.257,12.7964741 29.235,12.2074741 C31.125,11.6474741 32.966,11.2684741 34.723,11.9394741 C37.602,13.0364741 36.94,16.7014741 35.843,18.9404741 L35.843,18.9404741 Z M17.684,23.5394741 C17.305,25.7034741 16.101,27.0774741 15.1,27.0845012 C14.445,27.0874741 13.919,26.8404741 13.438,26.4194741 C12.78,25.8444741 12.241,24.8934741 12.416,24.3344741 C12.561,24.1434741 14.336,24.4164741 14.461,24.2394741 C14.589,24.0634741 14.246,22.6784741 14.046,22.5004741 C13.845,22.3224741 12.241,22.5584741 12.026,22.3864741 C11.813,22.2104741 11.613,20.4964741 11.395,20.3914741 C11.395,20.3914741 9.699,20.1384741 9.576,20.3794741 C9.452,20.6214741 10.148,22.0534741 10.029,22.2964741 C9.911,22.5404741 7.665,22.0844741 7.626,22.3354741 C7.586,22.5884741 7.754,23.8474741 7.97,24.0354741 C8.183,24.2214741 10.28,24.2344741 10.28,24.2344741 C10.717,24.5654741 10.831,25.2404741 10.833,25.9324741 C10.837,26.8094741 10.152,27.2624741 9.066,26.9574741 C7.037,26.3904741 4.521,21.9894741 3.028,18.9404741 C1.931,16.7014741 1.27,13.0364741 4.15,11.9394741 C5.905,11.2684741 7.747,11.6474741 9.636,12.2074741 C11.613,12.7964741 14.224,13.5914741 15.765,14.5464741 C16.142,14.7804741 15.313,14.5944741 16.678,17.6184741 C17.315,19.0264741 17.95,22.0254741 17.684,23.5394741 L17.684,23.5394741 Z M34.044,9.73347415 C29.811,9.39447415 26.159,11.6574741 22.054,12.3834741 C21.726,12.4394741 21.284,11.7404741 20.886,11.3414741 C22.789,9.90647415 22.53,7.09347415 20.325,5.87947415 C20.174,5.70347415 20.229,4.08447415 20.316,4.01247415 C20.497,3.86147415 21.902,4.13247415 22.101,3.95647415 C22.301,3.78447415 22.262,2.09747415 22.132,1.93547415 C22.007,1.77447415 20.422,1.94647415 20.333,1.83847415 C20.242,1.73047415 20.377,0.213474145 20.226,0.0934741454 C20.121,0.00647414544 19.68,-0.00252585456 19.435,0.000474145439 C19.191,-0.00252585456 18.751,0.00647414544 18.645,0.0934741454 C18.495,0.213474145 18.629,1.73047415 18.538,1.83847415 C18.451,1.94647415 16.866,1.77447415 16.737,1.93547415 C16.61,2.09747415 16.571,3.78447415 16.77,3.95647415 C16.969,4.13247415 18.374,3.86147415 18.555,4.01247415 C18.642,4.08447415 18.697,5.70347415 18.546,5.87947415 C16.34,7.09347415 16.082,9.90647415 17.987,11.3414741 C17.586,11.7404741 17.146,12.4394741 16.817,12.3834741 C12.712,11.6574741 9.06,9.39447415 4.826,9.73347415 C2.459,9.92447415 0.525,11.5924741 0.113,13.9884741 C-0.63,18.3014741 2.471,21.6154741 3.974,25.2794741 C4.45,26.4334741 4.868,27.9854741 4.791,29.3224741 C4.791,29.3224741 17.081,29.3224741 19.27,29.3224741 L19.27,29.3244741 L19.603,29.3244741 L19.603,29.3224741 C21.791,29.3224741 34.079,29.3224741 34.079,29.3224741 C34.004,27.9854741 34.419,26.4334741 34.898,25.2794741 C36.401,21.6154741 39.501,18.3014741 38.758,13.9884741 C38.348,11.5924741 36.412,9.92447415 34.044,9.73347415 L34.044,9.73347415 Z" id="Fill-17" fill="#223E77" mask="url(#mask-2)"></path>
            </g>
            <path d="M52.22,51.829 C54.755,49.849 57.984,48.878 61.596,48.878 C63.471,48.878 66.11,49.259 67.743,49.711 C68.159,49.815 68.402,49.885 68.714,49.849 C68.749,50.649 68.923,52.837 69.201,54.955 C69.027,55.197 68.506,55.232 68.264,55.024 C67.743,52.663 66.18,49.954 61.145,49.954 C55.831,49.954 51.316,53.322 51.316,60.511 C51.316,67.803 55.935,71.832 61.631,71.832 C66.11,71.832 68.089,68.915 68.889,66.866 C69.131,66.693 69.652,66.762 69.791,67.005 C69.548,68.811 68.645,71.103 68.124,71.762 C67.707,71.832 67.291,71.97 66.909,72.11 C66.145,72.387 63.645,72.908 61.422,72.908 C58.297,72.908 55.31,72.283 52.776,70.582 C49.997,68.672 47.844,65.512 47.844,61.032 C47.844,57.177 49.581,53.878 52.22,51.829" id="Fill-19" fill="#223E77"></path>
            <path d="M75.935,68.463 C75.935,70.963 76.004,71.311 77.254,71.484 L78.087,71.589 C78.331,71.762 78.261,72.353 78.018,72.457 C76.873,72.387 75.865,72.353 74.65,72.353 C73.4,72.353 72.358,72.387 71.316,72.457 C71.073,72.353 71.004,71.762 71.247,71.589 L72.045,71.484 C73.33,71.311 73.365,70.963 73.365,68.463 L73.365,52.767 C73.365,50.718 73.33,50.51 72.289,49.885 L71.941,49.676 C71.768,49.572 71.768,49.086 71.941,48.982 C72.809,48.703 74.441,48.183 75.692,47.523 C75.831,47.523 75.969,47.592 76.039,47.732 C76.004,48.774 75.935,50.51 75.935,52.037 L75.935,68.463" id="Fill-20" fill="#223E77"></path>
            <path d="M84.996,52.489 C84.996,53.739 84.129,54.295 83.156,54.295 C82.08,54.295 81.385,53.496 81.385,52.558 C81.385,51.412 82.218,50.683 83.26,50.683 C84.302,50.683 84.996,51.517 84.996,52.489 Z M82.114,62.386 C82.114,61.032 82.114,60.858 81.176,60.233 L80.864,60.025 C80.726,59.886 80.726,59.504 80.899,59.4 C81.697,59.122 83.677,58.219 84.476,57.698 C84.65,57.698 84.788,57.768 84.823,57.906 C84.754,59.122 84.684,60.789 84.684,62.213 L84.684,68.463 C84.684,70.963 84.754,71.311 86.004,71.484 L86.732,71.589 C86.976,71.762 86.907,72.353 86.663,72.457 C85.621,72.387 84.615,72.353 83.399,72.353 C82.149,72.353 81.107,72.387 80.135,72.457 C79.892,72.353 79.822,71.762 80.065,71.589 L80.795,71.484 C82.08,71.311 82.114,70.963 82.114,68.463 L82.114,62.386 L82.114,62.386 Z" id="Fill-21" fill="#223E77"></path>
            <path d="M109.269,63.428 C109.269,61.067 108.227,59.851 106.039,59.851 C104.72,59.851 103.644,60.442 103.157,61.067 C102.74,61.588 102.636,61.934 102.636,63.15 L102.636,68.463 C102.636,70.963 102.706,71.311 103.956,71.484 L104.685,71.589 C104.928,71.762 104.858,72.353 104.616,72.457 C103.574,72.387 102.567,72.353 101.352,72.353 C100.102,72.353 99.164,72.387 98.191,72.457 C97.948,72.353 97.879,71.762 98.122,71.589 L98.747,71.484 C100.032,71.276 100.067,70.963 100.067,68.463 L100.067,63.428 C100.067,61.101 99.025,59.851 96.872,59.851 C95.448,59.851 94.476,60.476 93.955,61.101 C93.607,61.518 93.434,61.969 93.434,63.08 L93.434,68.463 C93.434,70.963 93.503,71.276 94.754,71.484 L95.378,71.589 C95.622,71.762 95.552,72.353 95.309,72.457 C94.371,72.387 93.365,72.353 92.148,72.353 C90.899,72.353 89.857,72.387 88.78,72.457 C88.538,72.353 88.468,71.762 88.711,71.589 L89.544,71.484 C90.829,71.311 90.864,70.963 90.864,68.463 L90.864,62.386 C90.864,61.032 90.864,60.858 89.926,60.233 L89.614,60.025 C89.475,59.886 89.475,59.504 89.648,59.4 C90.447,59.122 92.427,58.219 93.121,57.698 C93.26,57.698 93.434,57.768 93.503,57.941 C93.434,58.739 93.434,59.26 93.434,59.573 C93.434,59.781 93.573,59.955 93.816,59.955 C95.136,59.018 96.768,58.185 98.435,58.185 C100.171,58.185 101.144,58.81 102.115,60.233 C102.428,60.302 102.671,60.164 102.984,59.955 C104.373,58.983 106.074,58.185 107.706,58.185 C110.484,58.185 111.839,60.094 111.839,62.49 L111.839,68.463 C111.839,70.963 111.908,71.311 113.158,71.484 L113.992,71.589 C114.235,71.762 114.166,72.353 113.923,72.457 C112.777,72.387 111.77,72.353 110.554,72.353 C109.304,72.353 108.367,72.387 107.394,72.457 C107.15,72.353 107.081,71.762 107.325,71.589 L107.95,71.484 C109.234,71.276 109.269,70.963 109.269,68.463 L109.269,63.428" id="Fill-22" fill="#223E77"></path>
            <path d="M120.691,71.276 C121.385,71.276 122.462,70.755 122.809,70.408 C123.225,69.991 123.225,69.505 123.261,68.776 L123.33,66.727 C123.33,66.345 123.191,66.276 122.983,66.276 C122.774,66.276 122.184,66.414 121.559,66.623 C119.51,67.318 118.503,67.838 118.503,69.192 C118.503,69.782 118.92,71.276 120.691,71.276 Z M122.844,65.164 C123.365,64.991 123.434,64.678 123.434,64.157 L123.469,62.559 C123.504,61.275 123.087,59.539 120.933,59.539 C119.962,59.539 118.78,60.025 118.711,61.101 C118.676,61.657 118.642,62.073 118.364,62.282 C117.843,62.699 116.905,62.942 116.384,62.942 C116.072,62.942 115.898,62.768 115.898,62.455 C115.898,60.65 119.822,58.185 122.358,58.185 C124.858,58.185 126.073,59.643 125.969,62.247 L125.761,68.29 C125.691,69.887 126.004,71.311 127.358,71.311 C127.706,71.311 128.018,71.207 128.227,71.103 C128.4,70.999 128.573,70.859 128.677,70.859 C128.817,70.859 128.921,71.068 128.921,71.311 C128.921,71.484 127.706,72.839 126.004,72.839 C125.17,72.839 124.337,72.526 123.746,71.762 C123.608,71.554 123.399,71.276 123.191,71.276 C122.948,71.276 122.531,71.589 121.837,71.97 C121.073,72.387 120.308,72.839 119.337,72.839 C118.329,72.839 117.496,72.561 116.905,72.04 C116.246,71.449 115.829,70.582 115.829,69.609 C115.829,68.255 116.488,67.456 118.711,66.658 L122.844,65.164 L122.844,65.164 Z" id="Fill-23" fill="#223E77"></path>
            <path d="M134.718,60.129 C134.128,60.129 134.093,60.233 134.093,60.962 L134.093,67.456 C134.093,69.47 134.336,71.311 136.628,71.311 C136.975,71.311 137.288,71.241 137.565,71.137 C137.878,71.033 138.33,70.651 138.434,70.651 C138.711,70.651 138.851,71.033 138.781,71.241 C138.155,71.97 136.905,72.839 135.134,72.839 C132.149,72.839 131.524,71.172 131.524,69.088 L131.524,61.136 C131.524,60.198 131.488,60.129 130.794,60.129 L129.821,60.129 C129.613,59.99 129.578,59.608 129.717,59.4 C130.724,59.087 131.593,58.635 131.94,58.323 C132.391,57.906 133.051,56.968 133.399,56.274 C133.572,56.205 133.989,56.205 134.128,56.447 L134.128,58.01 C134.128,58.635 134.162,58.67 134.753,58.67 L138.607,58.67 C139.024,58.983 138.955,59.921 138.642,60.129 L134.718,60.129" id="Fill-24" fill="#223E77"></path>
            <path d="M145.62,62.421 C148.19,62.421 148.954,62.282 149.231,62.073 C149.336,62.004 149.44,61.865 149.44,61.414 C149.44,60.442 148.78,59.226 146.766,59.226 C144.716,59.226 142.946,61.101 142.911,62.247 C142.911,62.317 142.911,62.421 143.154,62.421 L145.62,62.421 Z M143.467,63.463 C142.564,63.463 142.529,63.532 142.529,64.401 C142.529,67.907 144.578,70.894 148.294,70.894 C149.44,70.894 150.412,70.547 151.489,69.192 C151.836,69.088 152.079,69.297 152.114,69.609 C150.968,71.97 148.467,72.839 146.662,72.839 C144.404,72.839 142.633,71.866 141.627,70.547 C140.585,69.192 140.168,67.56 140.168,66.033 C140.168,61.761 142.981,58.185 147.148,58.185 C150.134,58.185 152.079,60.233 152.079,62.317 C152.079,62.803 152.01,63.08 151.94,63.22 C151.836,63.428 151.35,63.463 149.891,63.463 L143.467,63.463 L143.467,63.463 Z" id="Fill-25" fill="#223E77"></path>
            <path d="M159.196,71.52 C159.196,74.262 157.112,75.825 154.682,76.555 C154.369,76.45 154.265,75.895 154.473,75.721 C155.549,75.374 157.321,74.506 157.321,72.7 C157.321,71.241 155.654,70.859 155.341,70.686 C154.89,70.443 154.751,70.095 154.751,69.678 C154.751,68.88 155.341,68.116 156.453,68.116 C157.668,68.116 159.196,69.227 159.196,71.52" id="Fill-26" fill="#223E77"></path>
            <path d="M173.987,54.642 C173.987,51.031 173.918,50.51 171.868,50.266 L171.313,50.197 C171.105,50.058 171.174,49.433 171.382,49.329 C172.876,49.399 174.056,49.433 175.48,49.433 L182.008,49.433 C184.231,49.433 186.28,49.433 186.697,49.329 C186.905,49.92 187.114,52.42 187.253,53.947 C187.114,54.155 186.558,54.225 186.384,54.017 C185.863,52.385 185.551,51.17 183.745,50.718 C183.016,50.545 181.904,50.51 180.377,50.51 L177.876,50.51 C176.834,50.51 176.834,50.579 176.834,51.899 L176.834,58.844 C176.834,59.816 176.939,59.816 177.98,59.816 L179.995,59.816 C181.453,59.816 182.529,59.747 182.946,59.608 C183.363,59.469 183.606,59.26 183.78,58.393 L184.057,56.968 C184.231,56.76 184.822,56.76 184.961,57.003 C184.961,57.837 184.822,59.191 184.822,60.511 C184.822,61.761 184.961,63.08 184.961,63.845 C184.822,64.088 184.231,64.088 184.057,63.88 L183.745,62.525 C183.606,61.9 183.363,61.379 182.669,61.205 C182.183,61.067 181.349,61.032 179.995,61.032 L177.98,61.032 C176.939,61.032 176.834,61.067 176.834,61.969 L176.834,66.866 C176.834,68.706 176.939,69.887 177.494,70.478 C177.911,70.894 178.64,71.276 181.696,71.276 C184.37,71.276 185.377,71.137 186.141,70.755 C186.766,70.408 187.704,69.192 188.607,67.387 C188.85,67.213 189.337,67.318 189.475,67.63 C189.232,68.845 188.364,71.52 187.912,72.457 C184.787,72.387 181.696,72.353 178.605,72.353 L175.48,72.353 C173.987,72.353 172.806,72.387 170.757,72.457 C170.549,72.353 170.48,71.797 170.688,71.589 L171.834,71.484 C173.814,71.311 173.987,70.79 173.987,67.144 L173.987,54.642" id="Fill-27" fill="#223E77"></path>
            <path d="M195.723,71.276 C196.418,71.276 197.494,70.755 197.842,70.408 C198.259,69.991 198.259,69.505 198.294,68.776 L198.363,66.727 C198.363,66.345 198.223,66.276 198.015,66.276 C197.807,66.276 197.217,66.414 196.591,66.623 C194.543,67.318 193.535,67.838 193.535,69.192 C193.535,69.782 193.952,71.276 195.723,71.276 Z M197.877,65.164 C198.398,64.991 198.467,64.678 198.467,64.157 L198.502,62.559 C198.536,61.275 198.119,59.539 195.966,59.539 C194.994,59.539 193.814,60.025 193.744,61.101 C193.709,61.657 193.674,62.073 193.397,62.282 C192.876,62.699 191.938,62.942 191.417,62.942 C191.105,62.942 190.931,62.768 190.931,62.455 C190.931,60.65 194.855,58.185 197.39,58.185 C199.89,58.185 201.106,59.643 201.002,62.247 L200.793,68.29 C200.724,69.887 201.036,71.311 202.391,71.311 C202.738,71.311 203.05,71.207 203.258,71.103 C203.433,70.999 203.606,70.859 203.71,70.859 C203.85,70.859 203.954,71.068 203.954,71.311 C203.954,71.484 202.738,72.839 201.036,72.839 C200.203,72.839 199.37,72.526 198.779,71.762 C198.64,71.554 198.432,71.276 198.223,71.276 C197.981,71.276 197.564,71.589 196.869,71.97 C196.106,72.387 195.341,72.839 194.369,72.839 C193.362,72.839 192.528,72.561 191.938,72.04 C191.278,71.449 190.861,70.582 190.861,69.609 C190.861,68.255 191.521,67.456 193.744,66.658 L197.877,65.164 L197.877,65.164 Z" id="Fill-28" fill="#223E77"></path>
            <path d="M206.903,62.386 C206.903,61.032 206.903,60.858 205.965,60.233 L205.653,60.025 C205.514,59.886 205.514,59.504 205.688,59.4 C206.486,59.122 208.327,58.219 209.195,57.698 C209.369,57.733 209.473,57.802 209.473,57.941 L209.473,59.955 C209.473,60.129 209.507,60.233 209.577,60.268 C210.792,59.26 212.111,58.185 213.397,58.185 C214.265,58.185 214.96,58.739 214.96,59.573 C214.96,60.719 214.022,61.171 213.466,61.171 C213.119,61.171 212.945,61.067 212.703,60.927 C212.182,60.58 211.661,60.372 211.174,60.372 C210.619,60.372 210.202,60.684 209.924,61.067 C209.577,61.553 209.473,62.559 209.473,63.741 L209.473,68.463 C209.473,70.963 209.542,71.38 210.861,71.484 L212.111,71.589 C212.355,71.762 212.286,72.353 212.042,72.457 C210.41,72.387 209.403,72.353 208.188,72.353 C206.938,72.353 205.896,72.387 204.993,72.457 C204.75,72.353 204.68,71.762 204.924,71.589 L205.584,71.484 C206.868,71.276 206.903,70.963 206.903,68.463 L206.903,62.386" id="Fill-29" fill="#223E77"></path>
            <path d="M221.381,60.129 C220.791,60.129 220.756,60.233 220.756,60.962 L220.756,67.456 C220.756,69.47 221,71.311 223.292,71.311 C223.639,71.311 223.952,71.241 224.229,71.137 C224.542,71.033 224.993,70.651 225.098,70.651 C225.375,70.651 225.514,71.033 225.445,71.241 C224.819,71.97 223.569,72.839 221.798,72.839 C218.812,72.839 218.187,71.172 218.187,69.088 L218.187,61.136 C218.187,60.198 218.152,60.129 217.458,60.129 L216.485,60.129 C216.277,59.99 216.242,59.608 216.381,59.4 C217.388,59.087 218.256,58.635 218.604,58.323 C219.055,57.906 219.714,56.968 220.062,56.274 C220.235,56.205 220.652,56.205 220.791,56.447 L220.791,58.01 C220.791,58.635 220.826,58.67 221.416,58.67 L225.271,58.67 C225.688,58.983 225.618,59.921 225.306,60.129 L221.381,60.129" id="Fill-30" fill="#223E77"></path>
            <path d="M228.672,52.767 C228.672,50.718 228.637,50.51 227.596,49.885 L227.248,49.676 C227.075,49.572 227.075,49.086 227.248,48.982 C228.116,48.703 229.748,48.183 230.999,47.523 C231.138,47.523 231.276,47.592 231.346,47.732 C231.311,48.774 231.242,50.51 231.242,52.037 L231.242,59.33 C231.242,59.643 231.276,59.921 231.38,59.99 C232.631,59.018 234.298,58.185 236.069,58.185 C239.368,58.185 240.549,60.233 240.549,62.664 L240.549,68.463 C240.549,70.963 240.618,71.345 241.868,71.484 L242.806,71.589 C243.048,71.762 242.979,72.353 242.736,72.457 C241.486,72.387 240.48,72.353 239.264,72.353 C238.013,72.353 236.971,72.387 236.034,72.457 C235.791,72.353 235.721,71.762 235.965,71.589 L236.659,71.484 C237.944,71.276 237.979,70.963 237.979,68.463 L237.979,63.497 C237.979,61.275 236.902,59.781 234.68,59.781 C233.499,59.781 232.597,60.198 231.971,60.719 C231.346,61.24 231.242,61.414 231.242,62.63 L231.242,68.463 C231.242,70.963 231.311,71.311 232.561,71.484 L233.291,71.589 C233.534,71.728 233.464,72.353 233.222,72.457 C232.18,72.387 231.172,72.353 229.957,72.353 C228.707,72.353 227.665,72.387 226.554,72.457 C226.311,72.353 226.241,71.762 226.484,71.589 L227.353,71.484 C228.637,71.345 228.672,70.963 228.672,68.463 L228.672,52.767" id="Fill-31" fill="#223E77"></path>
            <path d="M249.992,71.52 C249.992,74.262 247.908,75.825 245.478,76.555 C245.165,76.45 245.061,75.895 245.269,75.721 C246.345,75.374 248.117,74.506 248.117,72.7 C248.117,71.241 246.45,70.859 246.137,70.686 C245.686,70.443 245.547,70.095 245.547,69.678 C245.547,68.88 246.137,68.116 247.249,68.116 C248.464,68.116 249.992,69.227 249.992,71.52" id="Fill-32" fill="#223E77"></path>
            <path d="M266.416,71.276 C267.11,71.276 268.187,70.755 268.534,70.408 C268.95,69.991 268.95,69.505 268.986,68.776 L269.055,66.727 C269.055,66.345 268.916,66.276 268.708,66.276 C268.5,66.276 267.909,66.414 267.284,66.623 C265.235,67.318 264.228,67.838 264.228,69.192 C264.228,69.782 264.645,71.276 266.416,71.276 Z M268.569,65.164 C269.09,64.991 269.159,64.678 269.159,64.157 L269.194,62.559 C269.229,61.275 268.812,59.539 266.659,59.539 C265.687,59.539 264.505,60.025 264.436,61.101 C264.401,61.657 264.367,62.073 264.089,62.282 C263.568,62.699 262.63,62.942 262.109,62.942 C261.797,62.942 261.623,62.768 261.623,62.455 C261.623,60.65 265.547,58.185 268.083,58.185 C270.583,58.185 271.798,59.643 271.694,62.247 L271.486,68.29 C271.417,69.887 271.729,71.311 273.083,71.311 C273.431,71.311 273.743,71.207 273.952,71.103 C274.125,70.999 274.298,70.859 274.402,70.859 C274.542,70.859 274.646,71.068 274.646,71.311 C274.646,71.484 273.431,72.839 271.729,72.839 C270.896,72.839 270.062,72.526 269.471,71.762 C269.333,71.554 269.125,71.276 268.916,71.276 C268.673,71.276 268.256,71.589 267.562,71.97 C266.798,72.387 266.034,72.839 265.062,72.839 C264.055,72.839 263.221,72.561 262.63,72.04 C261.971,71.449 261.554,70.582 261.554,69.609 C261.554,68.255 262.213,67.456 264.436,66.658 L268.569,65.164 L268.569,65.164 Z" id="Fill-33" fill="#223E77"></path>
            <path d="M277.595,62.386 C277.595,61.032 277.595,60.858 276.657,60.233 L276.345,60.025 C276.206,59.886 276.206,59.504 276.379,59.4 C277.178,59.122 279.157,58.219 279.852,57.698 C279.99,57.698 280.165,57.768 280.234,57.941 C280.165,58.739 280.165,59.26 280.165,59.573 C280.165,59.781 280.303,59.955 280.546,59.955 C282.005,59.052 283.637,58.185 285.408,58.185 C288.29,58.185 289.471,60.164 289.471,62.49 L289.471,68.463 C289.471,70.963 289.541,71.311 290.791,71.484 L291.555,71.589 C291.798,71.762 291.729,72.353 291.485,72.457 C290.443,72.387 289.436,72.353 288.221,72.353 C286.971,72.353 285.929,72.387 284.991,72.457 C284.749,72.353 284.679,71.762 284.922,71.589 L285.582,71.484 C286.867,71.276 286.901,70.963 286.901,68.463 L286.901,63.289 C286.901,61.309 285.998,59.851 283.637,59.851 C282.318,59.851 281.172,60.407 280.686,61.067 C280.234,61.657 280.165,62.143 280.165,63.15 L280.165,68.463 C280.165,70.963 280.234,71.276 281.484,71.484 L282.109,71.589 C282.353,71.762 282.283,72.353 282.04,72.457 C281.102,72.387 280.095,72.353 278.879,72.353 C277.629,72.353 276.587,72.387 275.616,72.457 C275.372,72.353 275.303,71.762 275.546,71.589 L276.275,71.484 C277.56,71.311 277.595,70.963 277.595,68.463 L277.595,62.386" id="Fill-34" fill="#223E77"></path>
            <path d="M304.401,62.073 C304.401,61.379 304.262,61.067 304.019,60.719 C303.498,59.99 302.456,59.26 301.102,59.26 C297.941,59.26 296.31,62.004 296.31,65.026 C296.31,68.186 298.08,71.172 301.484,71.172 C302.421,71.172 303.602,70.755 304.157,70.199 C304.366,69.991 304.401,69.47 304.401,68.915 L304.401,62.073 Z M306.97,67.283 C306.97,70.026 307.006,71.311 307.978,71.311 C308.36,71.311 308.95,71.137 309.471,70.963 C309.714,71.033 309.749,71.901 309.437,72.074 C307.978,72.283 305.824,72.804 304.853,73.186 C304.644,73.186 304.47,73.082 304.47,72.908 L304.47,72.318 C304.47,71.797 304.47,71.38 304.401,71.241 L304.262,71.241 C302.734,72.283 301.554,72.839 299.887,72.839 C296.032,72.839 293.462,69.817 293.462,66.172 C293.462,61.309 297.143,58.185 301.866,58.185 C303.046,58.185 303.811,58.358 304.193,58.497 C304.366,58.497 304.401,58.289 304.401,58.01 L304.401,52.767 C304.401,50.718 304.366,50.51 303.324,49.885 L302.977,49.676 C302.803,49.572 302.803,49.086 302.977,48.982 C303.845,48.703 305.478,48.183 306.728,47.523 C306.866,47.523 307.006,47.592 307.075,47.732 C307.041,48.774 306.97,50.51 306.97,52.037 L306.97,67.283 L306.97,67.283 Z" id="Fill-35" fill="#223E77"></path>
            <path d="M326.031,72.908 C323.114,72.908 321.274,72.005 320.614,71.624 C320.197,70.859 319.746,68.394 319.676,66.762 C319.85,66.518 320.371,66.449 320.51,66.658 C321.03,68.428 322.455,71.832 326.483,71.832 C329.4,71.832 330.824,69.922 330.824,67.838 C330.824,66.31 330.511,64.609 327.976,62.976 L324.677,60.823 C322.94,59.677 320.926,57.698 320.926,54.851 C320.926,51.552 323.496,48.878 328.011,48.878 C329.087,48.878 330.337,49.086 331.24,49.329 C331.691,49.468 332.178,49.537 332.456,49.537 C332.768,50.37 333.081,52.316 333.081,53.774 C332.941,53.982 332.386,54.086 332.212,53.878 C331.761,52.212 330.824,49.954 327.49,49.954 C324.086,49.954 323.357,52.212 323.357,53.809 C323.357,55.822 325.024,57.281 326.309,58.08 L329.087,59.816 C331.275,61.171 333.428,63.184 333.428,66.484 C333.428,70.303 330.546,72.908 326.031,72.908" id="Fill-36" fill="#223E77"></path>
            <path d="M342.837,59.226 C340.546,59.226 338.844,61.414 338.844,65.234 C338.844,68.394 340.267,71.797 343.323,71.797 C346.379,71.797 347.317,68.602 347.317,65.928 C347.317,62.976 346.136,59.226 342.837,59.226 Z M350.303,65.372 C350.303,69.713 347.317,72.839 342.976,72.839 C338.983,72.839 335.857,70.026 335.857,65.685 C335.857,61.309 339.156,58.185 343.254,58.185 C347.143,58.185 350.303,61.101 350.303,65.372 L350.303,65.372 Z" id="Fill-37" fill="#223E77"></path>
            <path d="M364.087,58.775 C364.365,59.018 364.608,59.573 364.608,60.164 C364.608,60.789 364.26,61.448 363.844,61.448 C363.671,61.448 363.497,61.379 363.358,61.205 C362.594,60.268 361.309,59.365 359.885,59.365 C357.455,59.365 355.093,61.275 355.093,64.956 C355.093,67.665 356.968,70.894 360.684,70.894 C362.698,70.894 363.74,69.991 364.539,68.811 C364.816,68.741 365.129,68.984 365.164,69.297 C363.983,71.866 361.379,72.839 359.364,72.839 C357.524,72.839 355.822,72.249 354.607,71.068 C353.392,69.887 352.592,68.186 352.592,65.928 C352.592,62.178 355.232,58.185 360.997,58.185 C361.796,58.185 363.15,58.358 364.087,58.775" id="Fill-38" fill="#223E77"></path>
            <path d="M371.343,52.489 C371.343,53.739 370.475,54.295 369.503,54.295 C368.426,54.295 367.732,53.496 367.732,52.558 C367.732,51.412 368.565,50.683 369.607,50.683 C370.649,50.683 371.343,51.517 371.343,52.489 Z M368.461,62.386 C368.461,61.032 368.461,60.858 367.523,60.233 L367.211,60.025 C367.072,59.886 367.072,59.504 367.246,59.4 C368.044,59.122 370.024,58.219 370.822,57.698 C370.996,57.698 371.134,57.768 371.17,57.906 C371.1,59.122 371.031,60.789 371.031,62.213 L371.031,68.463 C371.031,70.963 371.1,71.311 372.35,71.484 L373.079,71.589 C373.323,71.762 373.254,72.353 373.009,72.457 C371.968,72.387 370.962,72.353 369.746,72.353 C368.496,72.353 367.454,72.387 366.482,72.457 C366.238,72.353 366.169,71.762 366.412,71.589 L367.141,71.484 C368.426,71.311 368.461,70.963 368.461,68.463 L368.461,62.386 L368.461,62.386 Z" id="Fill-39" fill="#223E77"></path>
            <path d="M380.474,62.421 C383.045,62.421 383.808,62.282 384.087,62.073 C384.19,62.004 384.295,61.865 384.295,61.414 C384.295,60.442 383.634,59.226 381.62,59.226 C379.571,59.226 377.8,61.101 377.765,62.247 C377.765,62.317 377.765,62.421 378.008,62.421 L380.474,62.421 Z M378.321,63.463 C377.419,63.463 377.383,63.532 377.383,64.401 C377.383,67.907 379.432,70.894 383.148,70.894 C384.295,70.894 385.266,70.547 386.343,69.192 C386.69,69.088 386.933,69.297 386.968,69.609 C385.822,71.97 383.322,72.839 381.516,72.839 C379.258,72.839 377.488,71.866 376.481,70.547 C375.439,69.192 375.022,67.56 375.022,66.033 C375.022,61.761 377.835,58.185 382.003,58.185 C384.989,58.185 386.933,60.233 386.933,62.317 C386.933,62.803 386.864,63.08 386.795,63.22 C386.69,63.428 386.204,63.463 384.746,63.463 L378.321,63.463 L378.321,63.463 Z" id="Fill-40" fill="#223E77"></path>
            <path d="M393.633,60.129 C393.044,60.129 393.008,60.233 393.008,60.962 L393.008,67.456 C393.008,69.47 393.252,71.311 395.544,71.311 C395.89,71.311 396.204,71.241 396.481,71.137 C396.794,71.033 397.246,70.651 397.349,70.651 C397.627,70.651 397.766,71.033 397.697,71.241 C397.071,71.97 395.821,72.839 394.05,72.839 C391.064,72.839 390.439,71.172 390.439,69.088 L390.439,61.136 C390.439,60.198 390.404,60.129 389.71,60.129 L388.737,60.129 C388.529,59.99 388.494,59.608 388.632,59.4 C389.64,59.087 390.508,58.635 390.855,58.323 C391.307,57.906 391.966,56.968 392.314,56.274 C392.488,56.205 392.905,56.205 393.044,56.447 L393.044,58.01 C393.044,58.635 393.078,58.67 393.669,58.67 L397.523,58.67 C397.94,58.983 397.871,59.921 397.557,60.129 L393.633,60.129" id="Fill-41" fill="#223E77"></path>
            <path d="M398.702,79.507 C398.702,78.569 399.328,78.117 400.091,78.117 L400.751,78.117 C401.306,78.117 401.654,77.874 401.897,77.492 C402.904,75.929 403.598,74.471 403.912,73.637 C404.015,73.36 404.258,72.631 404.258,72.145 C404.258,71.449 404.12,71.033 403.668,69.748 L400.96,62.317 C400.37,60.684 400.126,59.851 398.911,59.608 L398.043,59.435 C397.835,59.26 397.869,58.67 398.147,58.566 C399.258,58.635 400.299,58.67 401.445,58.67 C402.383,58.67 403.356,58.635 404.467,58.566 C404.745,58.67 404.779,59.26 404.537,59.435 L403.668,59.608 C403.182,59.712 402.904,59.816 402.904,60.06 C402.904,60.476 403.704,62.734 403.912,63.324 L405.023,66.518 C405.231,67.074 405.89,68.915 406.03,68.984 C406.134,68.915 406.689,67.838 407.314,66.414 L408.495,63.671 C409.259,61.865 409.711,60.58 409.711,60.198 C409.711,59.955 409.503,59.712 408.878,59.608 L407.8,59.435 C407.557,59.26 407.592,58.67 407.87,58.566 C408.981,58.635 410.023,58.67 410.925,58.67 C411.795,58.67 412.593,58.635 413.565,58.566 C413.843,58.705 413.878,59.226 413.634,59.435 L413.045,59.539 C411.898,59.747 411.273,60.754 410.092,63.22 L408.148,67.213 C407.002,69.54 404.154,75.582 402.453,79.368 C401.862,80.687 401.029,81 400.23,81 C399.223,81 398.702,80.374 398.702,79.507" id="Fill-42" fill="#223E77"></path>
        </g>
    </g>
</svg>