<svg xmlns="http://www.w3.org/2000/svg" width="100" height="18" viewBox="0 0 100 18"><title>ds-logo-hor</title><g fill="none" fill-rule="evenodd"><path d="M0 0h100v17.021H0z"/><g fill="#000" fill-rule="nonzero"><path d="M26.064 3.191v2.607c0-.053-.426-.053-.585-.107-.16 0-.32-.053-.585-.053-.426 0-.851.053-1.17.213q-.48.24-.798.638c-.213.266-.373.639-.48 1.064-.052.426-.106.904-.106 1.383 0 1.01.16 1.809.532 2.34.373.533.905.798 1.543.798.425 0 .745-.053 1.01-.212.266-.16.48-.266.692-.639l.053.958h.958V3.19zm0 6.118c0 .265-.053.531-.107.797q-.08.4-.319.639c-.106.16-.266.319-.478.425-.16.107-.373.16-.586.16q-.638 0-.957-.639c-.213-.425-.32-1.01-.32-1.861 0-.798.107-1.383.373-1.809.213-.425.639-.585 1.17-.585.266 0 .48 0 .692.053.213.054.532.107.532.16zm5.213 2.553c-.373.16-.798.266-1.224.266-.798 0-1.383-.213-1.755-.692s-.585-1.223-.585-2.234c0-1.17.213-2.074.638-2.66.426-.585 1.01-.904 1.755-.904s1.277.266 1.703.798c.372.532.531 1.383.478 2.5h-3.564v.107c0 .85.107 1.436.373 1.808s.585.532 1.064.532c.266 0 .585-.053.85-.16.267-.106.586-.266.958-.532l.372.639a10 10 0 0 1-1.063.532m-.32-5a1.05 1.05 0 0 0-.904-.479c-.372 0-.691.16-.904.479s-.32.798-.372 1.383h2.5c0-.585-.107-1.064-.32-1.383m5.852.372c-.107.479-.266.957-.426 1.49q-.24.717-.479 1.595c-.16.532-.319 1.117-.532 1.702h-.957c-.213-.638-.372-1.223-.585-1.755L33.35 8.67c-.16-.479-.266-1.01-.425-1.436-.107-.479-.213-.957-.32-1.383h.905l.638 2.553c.213.851.479 1.702.745 2.607l.691-2.554c.213-.85.426-1.702.638-2.606h.851c0 .426-.106.904-.265 1.383m4.202 4.628c-.373.16-.798.266-1.224.266-.798 0-1.383-.213-1.755-.692s-.585-1.223-.585-2.234c0-1.17.213-2.074.638-2.66.426-.585 1.01-.904 1.755-.904s1.277.266 1.703.798c.372.532.531 1.383.478 2.5h-3.564v.107c0 .85.107 1.436.373 1.808s.585.532 1.064.532c.266 0 .585-.053.85-.16.267-.106.586-.266.958-.532l.372.639a10 10 0 0 1-1.063.532m-.32-5a1.05 1.05 0 0 0-.904-.479c-.372 0-.691.16-.904.479s-.32.798-.372 1.383h2.446c.054-.585-.053-1.064-.266-1.383m2.128 5.16V3.456h.904v8.564zm4.043.106c-.798 0-1.383-.266-1.756-.745-.372-.532-.585-1.33-.585-2.394 0-1.117.213-1.915.585-2.5.373-.532 1.011-.798 1.862-.798q1.197 0 1.755.798c.373.532.532 1.33.532 2.394 0 2.18-.798 3.245-2.393 3.245m1.117-5.107q-.32-.638-1.117-.638c-.479 0-.798.213-1.01.585-.214.426-.32 1.01-.32 1.862q0 1.356.32 1.915c.212.372.584.585 1.063.585.851 0 1.33-.798 1.33-2.447 0-.851-.107-1.49-.266-1.862m6.49 4.202c-.426.586-1.065.905-1.969.905-.213 0-.426 0-.585-.054-.16 0-.32-.053-.585-.106v2.075h-.904V5.798h.797l.054.798c.212-.373.425-.585.691-.745s.585-.213 1.01-.213c.692 0 1.17.266 1.543.798s.532 1.33.532 2.34c0 1.064-.16 1.862-.585 2.447m-.692-4.149q-.32-.638-.958-.638c-.213 0-.425.053-.585.16-.16.106-.32.266-.425.425q-.16.24-.32.639c-.106.266-.106.478-.106.797v2.713c.16.053.32.107.532.16s.425.053.691.053c.532 0 .905-.213 1.17-.585.267-.372.373-1.01.373-1.809-.053-.904-.16-1.542-.372-1.915m8.776 4.947V7.82c0-.425-.053-.798-.106-1.064s-.266-.372-.585-.372c-.213 0-.426.053-.639.213-.212.16-.478.372-.85.638v4.734h-.905V7.82c0-.425-.053-.798-.106-1.064s-.266-.372-.585-.372c-.213 0-.426.053-.639.213-.212.16-.478.372-.85.638v4.734h-.905v-6.17h.798l.053.745.904-.639c.266-.16.585-.266.905-.266.372 0 .638.107.797.266s.32.373.426.692q.48-.399.957-.639c.32-.16.586-.266.905-.266.532 0 .85.16 1.063.48.213.318.266.797.266 1.489v4.361zm5.266-.16c-.372.16-.798.267-1.223.267-.798 0-1.383-.213-1.756-.692-.372-.479-.585-1.223-.585-2.234 0-1.17.213-2.074.639-2.66.425-.585 1.01-.904 1.755-.904s1.277.266 1.702.798c.372.532.532 1.383.479 2.5h-3.564v.107c0 .85.106 1.436.372 1.808s.585.532 1.064.532c.266 0 .585-.053.851-.16.266-.106.585-.266.958-.532l.372.639c-.372.213-.745.372-1.064.532m-.372-5a1.05 1.05 0 0 0-.904-.478c-.373 0-.692.16-.905.479-.212.319-.319.798-.372 1.383h2.5c0-.585-.106-1.064-.32-1.383m5.372 5.107V7.82c0-.425-.053-.798-.16-1.064-.106-.266-.319-.372-.638-.372-.212 0-.425.053-.638.213s-.532.372-.851.638v4.734h-.904v-6.17h.798l.053.745c.319-.213.638-.426.904-.639.32-.16.585-.266.904-.266.532 0 .904.16 1.064.479.213.32.32.798.32 1.49v4.361zm4.15.16c-.32 0-.64-.054-.852-.107-.213-.053-.372-.212-.479-.372a1.2 1.2 0 0 1-.212-.692c-.054-.266-.054-.638-.054-1.01V6.543h-.904v-.745h.904V4.096l.905-.107v1.809h1.276l-.053.745h-1.17v3.989c0 .213.053.372.106.479s.16.212.266.266c.107.053.266.106.479.106h.266l.266-.053.106.744c-.319 0-.585.054-.85.054M83.723 10.851a1.45 1.45 0 0 1-.478.638c-.213.16-.479.32-.745.426q-.48.16-.957.16c-.798 0-1.33-.16-1.703-.48-.372-.318-.478-.797-.425-1.329l.798-.106c0 .16 0 .266.053.425.053.16.106.266.213.372.106.107.266.213.425.266.213.054.426.107.745.107.425 0 .745-.107 1.01-.32.267-.212.373-.531.373-.904 0-.319-.106-.585-.266-.744-.16-.213-.372-.32-.638-.479-.266-.106-.532-.266-.851-.372-.32-.107-.586-.266-.851-.426a1.83 1.83 0 0 1-.639-.638 1.9 1.9 0 0 1-.266-1.01q0-.4.16-.799c.106-.212.266-.425.425-.585.213-.16.426-.266.692-.372.266-.107.585-.107.957-.107.373 0 .692.054.905.16.266.106.478.213.638.372.16.16.266.32.319.532s.106.426.106.639l-.797.106c0-.16 0-.266-.054-.426-.053-.106-.106-.266-.212-.319a.86.86 0 0 0-.373-.212 1.9 1.9 0 0 0-.585-.107c-.213 0-.425.053-.585.107-.16.053-.32.16-.426.212-.106.107-.212.213-.265.32a1 1 0 0 0-.107.425c0 .32.107.585.266.745.16.212.426.319.692.478l.85.373c.32.106.586.266.852.425.266.16.478.373.691.639.16.266.266.585.266 1.01-.053.266-.106.532-.213.798m1.224 1.17V4.734h3.67l-.053.745H85.85v2.393h2.128v.745H85.85v2.66h2.82v.744zm4.84 0V4.734h3.67l-.053.745h-2.713v2.393h2.128v.745h-2.128v2.66h2.82v.744zm9.575-2.234c-.16.479-.373.851-.639 1.17-.266.32-.638.586-1.01.745-.426.16-.851.266-1.383.266h-1.543V4.734h1.543c1.064 0 1.915.32 2.447.957.532.639.797 1.49.797 2.607 0 .532-.053 1.01-.212 1.49m-1.277-3.564c-.372-.532-.957-.797-1.808-.797h-.586v5.797h.745c.745 0 1.277-.266 1.65-.744.371-.479.584-1.224.584-2.128-.053-.904-.213-1.596-.585-2.128"/></g><path fill="#000" fill-rule="nonzero" d="M15.957 0c.586 0 1.064.479 1.064 1.064v14.893c0 .586-.478 1.064-1.064 1.064h-6.61v-.689c.05-.197.05-.837.148-.984.295-.788.788-1.132 1.526-1.624-.69.246-.985.147-1.477.935 0-.296.099-.59.197-.886-.295.246-.394.541-.492.935.05-.443.246-3.396.246-3.544.738-2.166.394-8.564 1.378-9.401-1.083.197-1.476 1.329-1.82 2.215-.345-1.034-.05-1.723-1.231-2.117.935.788.738 1.477.935 2.56-.542-.738-.394-1.624-1.034-2.363-.197-.197-.787-.64-.787-.64 0 .05.492.985.59 1.526.099.492.296 1.526.296 1.92.098 2.067.59 4.085.984 6.152.05.345.246 1.379.246 1.379l.05.443c-.05-.296-.148-.542-.148-.64a51 51 0 0 1-.443-1.428C7.625 8.95 6.05 5.455 3.884 4.913c1.23 1.083 2.51 2.51 2.805 3.888-.64-.935-3.199-2.854-4.282-3.593 1.97 2.018 3.544 4.135 5.267 6.399.492.64 1.132 1.969 1.181 2.264.05.197.05 1.034.099 1.526-.936-2.313-1.477-3.495-3.249-4.528-.295-.148-1.23-.492-1.23-.492.443.492.935.492 1.329 1.132-.788-.542-1.625-.64-2.56-.64 2.953 1.526 4.528 1.969 5.513 4.873.098.492-.05.787-.05 1.28H1.065A1.067 1.067 0 0 1 0 15.956V1.064C0 .479.479 0 1.064 0Zm-3.312 5.258c-1.132.738-1.772 2.608-2.116 3.74-.099.443-1.477 3.101-.837 4.529.098-.542.394-1.034.738-1.477.148-.197.788-1.23 1.428-2.658.541-1.427 1.476-2.313 2.756-3.002-.935.147-1.477.689-2.166 1.378-.246.246-.984 1.132-.984 1.132.05-1.28.344-2.658 1.181-3.642"/></g></svg>