<?xml version="1.0" encoding="UTF-8"?>
<svg width="1200px" height="193px" viewBox="0 0 1200 193" version="1.1" xmlns="http://www.w3.org/2000/svg" xmlns:xlink="http://www.w3.org/1999/xlink">
    <title>slice</title>
    <g id="Page-1" stroke="none" stroke-width="1" fill="none" fill-rule="evenodd">
        <g id="02-Earthmover-Full-Lockup-Violet-RGB" transform="translate(0, -1)" fill="#000000">
            <path d="M114.8827,72.4486 L83.3207,58.7246 L115.3537,46.1066 L108.2717,28.1276 L76.2387,40.7456 L89.6417,9.9186 C86.9637,8.1946 84.1377,6.6506 81.1077,5.3336 C78.0777,4.0166 75.0217,3.0016 71.9217,2.2486 C45.0727,-4.4584 16.5347,9.0496 5.1387,35.2586 C-6.2573,61.4676 3.3267,91.5516 26.5427,106.6126 C29.2077,108.3666 32.0337,109.9106 35.0637,111.2276 C38.0937,112.5446 41.1507,113.5596 44.2377,114.3416 L57.6417,83.5146 L70.2597,115.5486 L88.2387,108.4666 L75.6207,76.4326 L107.1827,90.1566 L114.8827,72.4486 Z M0.3377,173.0576 L115.3537,173.0566 L115.3537,192.3656 L0.3377,192.3656 L0.3377,173.0576 Z" id="Fill-1"></path>
            <path d="M258.8122,121.8047 C254.5082,125.9317 251.7572,131.2827 250.5632,137.8587 L299.1642,137.8587 C298.4482,133.6747 297.0422,129.9077 294.9502,126.5607 C292.8562,123.2137 290.1352,120.5517 286.7912,118.5807 C283.4412,116.6047 279.5552,115.6217 275.1332,115.6217 C268.5552,115.6217 263.1162,117.6827 258.8122,121.8047 M258.0962,169.6927 C262.5162,174.2967 268.4962,176.5937 276.0292,176.5937 C280.0922,176.5937 283.5902,175.8807 286.5212,174.4437 C289.4502,173.0107 291.8392,171.2477 293.6952,169.1537 C295.5482,167.0637 296.7722,164.9367 297.3702,162.7857 L316.5612,162.7857 C316.0812,166.6147 314.3482,170.8887 311.3612,175.6107 C308.3712,180.3337 303.9182,184.4887 297.9992,188.0717 C292.0802,191.6597 284.7552,193.4567 276.0292,193.4567 C267.3002,193.4567 259.5002,191.3627 252.6242,187.1787 C245.7482,182.9947 240.3682,177.3127 236.4852,170.1417 C232.5972,162.9657 230.6562,154.9577 230.6562,146.1077 C230.6562,137.3807 232.6272,129.4017 236.5722,122.1637 C240.5202,114.9307 245.8382,109.2257 252.5342,105.0367 C259.2302,100.8537 266.7632,98.7587 275.1332,98.7587 C283.1412,98.7587 290.4662,100.8537 297.1032,105.0367 C303.7382,109.2257 308.9072,114.8747 312.6162,121.9847 C316.3202,129.0987 318.1752,136.7807 318.1752,145.0297 C318.1752,147.0677 318.0552,149.3367 317.8162,151.8467 L250.0242,151.8467 C250.9792,159.1407 253.6712,165.0877 258.0962,169.6927" id="Fill-3"></path>
            <path d="M386.0571,171.3043 C389.9401,168.7373 392.9611,165.2063 395.1121,160.7243 C397.2651,156.2383 398.3411,151.3693 398.3411,146.1073 C398.3411,140.7283 397.2651,135.8263 395.1121,131.4013 C392.9611,126.9813 389.9401,123.5113 386.0571,121.0013 C382.1691,118.4913 377.8341,117.2333 373.0551,117.2333 C368.1501,117.2333 363.7281,118.4913 359.7831,121.0013 C355.8381,123.5113 352.7581,127.0093 350.5451,131.4913 C348.3331,135.9723 347.2291,140.8463 347.2291,146.1073 C347.2291,151.3693 348.3051,156.2143 350.4561,160.6343 C352.6091,165.0593 355.6861,168.5863 359.6931,171.2143 C363.6971,173.8473 368.1501,175.1613 373.0551,175.1613 C377.8341,175.1613 382.1691,173.8763 386.0571,171.3043 L386.0571,171.3043 Z M416.9921,99.8373 L416.9921,192.3783 L398.5211,192.3783 L398.5211,178.5703 C394.9351,183.3543 390.6871,187.0273 385.7881,189.5993 C380.8831,192.1703 375.3851,193.4563 369.2871,193.4563 C361.7541,193.4563 354.9091,191.3623 348.7511,187.1783 C342.5941,182.9953 337.6611,177.2843 333.9571,170.0513 C330.2491,162.8183 328.3981,154.8393 328.3981,146.1073 C328.3981,137.3813 330.2491,129.4013 333.9571,122.1643 C337.6611,114.9313 342.5941,109.2253 348.7511,105.0373 C354.9091,100.8533 361.7541,98.7593 369.2871,98.7593 C375.3851,98.7593 380.9441,100.0783 385.9671,102.7063 C390.9881,105.3393 395.1711,108.9843 398.5211,113.6453 L398.5211,99.8373 L416.9921,99.8373 Z" id="Fill-5"></path>
            <path d="M479.7617,116.6945 L463.6207,116.6945 C460.3917,116.6945 457.6707,117.8905 455.4607,120.2825 C453.2467,122.6745 452.1427,125.5445 452.1427,128.8905 L452.1427,192.5585 L433.4907,192.5585 L433.4907,128.8905 C433.4907,123.5115 434.8357,118.6095 437.5257,114.1845 C440.2157,109.7645 443.7727,106.2665 448.1977,103.6945 C452.6197,101.1225 457.4607,99.8365 462.7247,99.8365 L479.7617,99.8365 L479.7617,116.6945 Z" id="Fill-7"></path>
            <path d="M535.7165,174.9822 C532.4905,174.9822 529.7105,173.8472 527.3775,171.5742 C525.0475,169.3052 523.8815,166.5532 523.8815,163.3242 L523.8815,116.6942 L546.9695,116.6942 L546.9695,99.8372 L524.0585,99.8372 L524.0585,73.6522 L505.4075,73.6522 L505.4075,99.8372 L490.7085,99.8372 L490.7085,116.6942 L505.5875,116.6942 L505.5875,163.3242 C505.5875,168.7042 506.7525,173.6112 509.0855,178.0312 C511.4155,182.4562 514.6445,185.9542 518.7695,188.5212 C522.8935,191.0972 527.6475,192.3782 533.0265,192.3782 L547.1945,192.3782 L547.1945,174.9822 L535.7165,174.9822 Z" id="Fill-9"></path>
            <path d="M658.5674,111.1352 C656.4114,107.3112 653.5474,104.2952 649.9544,102.0772 C646.3714,99.8652 642.3054,98.7592 637.7574,98.7592 C631.9054,98.7592 626.8474,100.1962 622.6024,103.0652 C618.3574,105.9352 615.0434,110.7762 612.6534,117.5932 L595.0774,166.9122 C594.3584,169.0632 593.3424,170.7652 592.0284,172.0232 C590.7114,173.2802 589.0384,173.9042 587.0054,173.9042 C584.9724,173.9042 583.2684,173.2192 581.8954,171.8432 C580.5194,170.4722 579.8314,168.7662 579.8314,166.7332 L579.8314,99.8372 L579.8314,63.2522 L561.3594,63.2522 L561.3594,99.8372 L561.3594,168.1652 C561.3594,172.9492 562.4044,177.2562 564.4984,181.0802 C566.5884,184.9092 569.4314,187.9252 573.0174,190.1382 C576.6054,192.3502 580.6684,193.4562 585.2134,193.4562 C591.7874,193.4562 597.1384,191.8732 601.2654,188.7012 C605.3904,185.5332 608.6444,180.6032 611.0394,173.9042 L628.2564,125.3032 C628.9744,123.1522 629.9294,121.4502 631.1204,120.1932 C632.3214,118.9352 633.9284,118.3112 635.9714,118.3112 C638.0034,118.3112 639.7054,118.9972 641.0764,120.3722 C642.4564,121.7482 643.1374,123.4502 643.1374,125.4822 L643.1374,192.3782 L661.7914,192.3782 L661.7914,124.0502 C661.7914,119.2662 660.7134,114.9642 658.5674,111.1352" id="Fill-11"></path>
            <path d="M857.0103,111.1352 C854.9163,107.3112 852.0753,104.2952 848.4913,102.0772 C844.9033,99.8652 840.8383,98.7592 836.2953,98.7592 C830.4333,98.7592 825.3233,100.1962 820.9603,103.0652 C816.5963,105.9352 813.2163,110.7762 810.8293,117.5932 L793.2533,166.9122 C792.5343,169.1862 791.5463,170.9172 790.2943,172.1132 C789.0363,173.3092 787.3913,173.9042 785.3633,173.9042 C783.3253,173.9042 781.6853,173.2192 780.4283,171.8432 C779.1753,170.4722 778.5463,168.7662 778.5463,166.7332 L778.5463,154.1772 L778.5463,139.4702 L778.5463,124.0502 C778.5463,119.2662 777.4683,114.9642 775.3173,111.1352 C773.1663,107.3112 770.2973,104.2952 766.7093,102.0772 C763.1213,99.8652 759.0553,98.7592 754.5133,98.7592 C748.6553,98.7592 743.5743,100.1962 739.2673,103.0652 C734.9653,105.9352 731.6183,110.7762 729.2263,117.5932 L711.6503,166.9122 C710.8133,169.1862 709.7973,170.9172 708.6013,172.1132 C707.4053,173.3092 705.7933,173.9042 703.7603,173.9042 C701.7233,173.9042 700.0213,173.2192 698.6503,171.8432 C697.2703,170.4722 696.5843,168.7662 696.5843,166.7332 L696.5843,99.8372 L678.1153,99.8372 L678.1153,168.1652 C678.1153,172.9492 679.1593,177.2562 681.2533,181.0802 C683.3433,184.9092 686.1843,187.9252 689.7723,190.1382 C693.3553,192.3502 697.4213,193.4562 701.9643,193.4562 C708.5393,193.4562 713.9523,191.8732 718.1973,188.7012 C722.4383,185.5332 725.7563,180.6032 728.1483,173.9042 L745.1863,125.3032 L745.5453,124.7642 C746.1453,122.7362 747.0103,121.1522 748.1453,120.0132 C749.2793,118.8782 750.8063,118.3112 752.7213,118.3112 C754.7543,118.3112 756.4553,118.9972 757.8313,120.3722 C759.2073,121.7482 759.8923,123.4502 759.8923,125.4822 L759.8923,139.4702 L759.8923,154.1772 L759.8923,168.1652 C759.8923,172.9492 760.9373,177.2562 763.0313,181.0802 C765.1213,184.9092 767.9663,187.9252 771.5503,190.1382 C775.1383,192.3502 779.2033,193.4562 783.7463,193.4562 C790.3223,193.4562 795.7023,191.8732 799.8903,188.7012 C804.0743,185.5332 807.3593,180.6032 809.7513,173.9042 L826.9683,125.3032 L827.1483,124.7642 C827.8663,122.7362 828.8213,121.1522 830.0173,120.0132 C831.2133,118.8782 832.6453,118.3112 834.3243,118.3112 C836.3523,118.3112 838.0873,118.9972 839.5243,120.3722 C840.9563,121.7482 841.6753,123.4502 841.6753,125.4822 L841.6753,192.3782 L860.1493,192.3782 L860.1493,124.0502 C860.1493,119.2662 859.0993,114.9642 857.0103,111.1352" id="Fill-13"></path>
            <path d="M918.2573,175.1618 C923.1543,175.1618 927.5793,173.8478 931.5273,171.2148 C935.4743,168.5858 938.5803,165.0598 940.8533,160.6348 C943.1233,156.2148 944.2623,151.3688 944.2623,146.1078 C944.2623,140.9688 943.1233,136.1848 940.8533,131.7608 C938.5803,127.3408 935.4743,123.7808 931.5273,121.0908 C927.5793,118.4008 923.1543,117.0538 918.2573,117.0538 L918.0773,117.0538 C913.0523,117.0538 908.5383,118.3728 904.5343,121.0008 C900.5303,123.6298 897.3913,127.1608 895.1223,131.5808 C892.8483,136.0058 891.7133,140.8458 891.7133,146.1078 C891.7133,151.3688 892.8483,156.2148 895.1223,160.6348 C897.3913,165.0598 900.5303,168.5858 904.5343,171.2148 C908.5383,173.8478 913.0523,175.1618 918.0773,175.1618 L918.2573,175.1618 Z M895.1223,187.0888 C888.1823,182.8438 882.7453,177.1048 878.7983,169.8718 C874.8563,162.6388 872.8803,154.7158 872.8803,146.1078 C872.8803,137.4998 874.8563,129.5808 878.7983,122.3438 C882.7453,115.1108 888.1823,109.3718 895.1223,105.1268 C902.0523,100.8868 909.7053,98.7588 918.0773,98.7588 L918.2573,98.7588 C926.5063,98.7588 934.0373,100.8868 940.8533,105.1268 C947.6663,109.3718 953.0503,115.1108 956.9933,122.3438 C960.9403,129.5808 962.9113,137.4998 962.9113,146.1078 C962.9113,154.7158 960.9403,162.6388 956.9933,169.8718 C953.0503,177.1048 947.6663,182.8438 940.8533,187.0888 C934.0373,191.3338 926.5063,193.4568 918.2573,193.4568 L918.0773,193.4568 C909.7053,193.4568 902.0523,191.3338 895.1223,187.0888 L895.1223,187.0888 Z" id="Fill-15"></path>
            <path d="M1052.7585,99.8369 L1027.2925,171.9329 C1024.5415,179.2269 1020.8635,184.6399 1016.2635,188.1619 C1011.6595,191.6929 1006.0105,193.4569 999.3165,193.4569 C992.3765,193.4569 986.7605,191.0649 982.4545,186.2809 C978.1525,181.5009 976.0015,175.4599 976.0015,168.1649 L976.0015,99.8369 L994.4705,99.8369 L994.4705,166.7329 C994.4705,168.7659 995.1565,170.4719 996.5365,171.8429 C997.9075,173.2189 999.6095,173.9039 1001.6465,173.9039 C1003.6795,173.9039 1005.3205,173.2799 1006.5775,172.0229 C1007.8345,170.7659 1008.8185,169.0639 1009.5365,166.9129 L1033.3905,99.6569 L1052.7585,99.8369 Z" id="Fill-17"></path>
            <path d="M1081.2784,121.8047 C1076.9714,125.9317 1074.2204,131.2827 1073.0244,137.8587 L1121.6304,137.8587 C1120.9124,133.6747 1119.5034,129.9077 1117.4134,126.5607 C1115.3194,123.2137 1112.6014,120.5517 1109.2544,118.5807 C1105.9074,116.6047 1102.0174,115.6217 1097.5974,115.6217 C1091.0214,115.6217 1085.5804,117.6827 1081.2784,121.8047 M1080.5594,169.6927 C1084.9794,174.2967 1090.9604,176.5937 1098.4954,176.5937 C1102.5564,176.5937 1106.0544,175.8807 1108.9854,174.4437 C1111.9114,173.0107 1114.3034,171.2477 1116.1564,169.1537 C1118.0094,167.0637 1119.2344,164.9367 1119.8344,162.7857 L1139.0274,162.7857 C1138.5454,166.6147 1136.8104,170.8887 1133.8224,175.6107 C1130.8344,180.3337 1126.3814,184.4887 1120.4634,188.0717 C1114.5444,191.6597 1107.2214,193.4567 1098.4954,193.4567 C1089.7634,193.4567 1081.9634,191.3627 1075.0904,187.1787 C1068.2124,182.9947 1062.8324,177.3127 1058.9464,170.1417 C1055.0604,162.9657 1053.1174,154.9577 1053.1174,146.1077 C1053.1174,137.3807 1055.0934,129.4017 1059.0364,122.1637 C1062.9834,114.9307 1068.3024,109.2257 1075.0004,105.0367 C1081.6944,100.8537 1089.2254,98.7587 1097.5974,98.7587 C1105.6054,98.7587 1112.9324,100.8537 1119.5644,105.0367 C1126.2024,109.2257 1131.3734,114.8747 1135.0804,121.9847 C1138.7864,129.0987 1140.6394,136.7807 1140.6394,145.0297 C1140.6394,147.0677 1140.5214,149.3367 1140.2794,151.8467 L1072.4904,151.8467 C1073.4454,159.1407 1076.1354,165.0877 1080.5594,169.6927" id="Fill-19"></path>
            <path d="M1200,116.6945 L1183.861,116.6945 C1180.632,116.6945 1177.909,117.8905 1175.697,120.2825 C1173.484,122.6745 1172.383,125.5445 1172.383,128.8905 L1172.383,192.5585 L1153.729,192.5585 L1153.729,128.8905 C1153.729,123.5115 1155.076,118.6095 1157.766,114.1845 C1160.456,109.7645 1164.011,106.2665 1168.436,103.6945 C1172.856,101.1225 1177.701,99.8365 1182.963,99.8365 L1200,99.8365 L1200,116.6945 Z" id="Fill-21"></path>
        </g>
    </g>
</svg>