<svg xmlns="http://www.w3.org/2000/svg" width="1200" height="193" viewBox="0 0 1200 193"><title>slice</title><g fill="#000" fill-rule="evenodd"><path d="M114.883 71.449 83.32 57.725l32.033-12.618-7.082-17.98-32.033 12.619L89.642 8.919a59.7 59.7 0 0 0-8.534-4.585 56.3 56.3 0 0 0-9.186-3.085c-26.85-6.707-55.387 6.8-66.783 33.01s-1.812 56.293 21.404 71.354a56 56 0 0 0 8.52 4.615 59.7 59.7 0 0 0 9.175 3.114l13.404-30.827 12.618 32.034 17.979-7.082L75.62 75.433l31.562 13.724zM.338 172.058l115.016-.001v19.309H.338zM258.812 120.805q-6.457 6.19-8.249 16.054h48.601q-1.075-6.277-4.214-11.298c-2.094-3.347-4.815-6.01-8.159-7.98q-5.025-2.962-11.658-2.96-9.866 0-16.32 6.184m-.717 47.888c4.42 4.604 10.4 6.9 17.933 6.9 4.063 0 7.561-.712 10.492-2.15 2.93-1.432 5.318-3.195 7.174-5.29 1.853-2.09 3.077-4.216 3.675-6.367h19.191q-.72 5.743-5.2 12.825-4.484 7.086-13.362 12.46-8.88 5.385-21.97 5.386-13.092-.001-23.405-6.278c-6.876-4.184-12.256-9.866-16.139-17.037-3.888-7.176-5.829-15.184-5.829-24.034q0-13.089 5.916-23.944c3.948-7.233 9.266-12.938 15.962-17.127q10.045-6.276 22.6-6.278 12.012.002 21.97 6.278 9.95 6.283 15.512 16.948c3.704 7.114 5.56 14.796 5.56 23.045 0 2.038-.12 4.307-.36 6.817h-67.792q1.434 10.939 8.072 17.846M386.057 170.304c3.883-2.567 6.904-6.098 9.055-10.58 2.153-4.486 3.23-9.355 3.23-14.617q0-8.068-3.23-14.706c-2.15-4.42-5.172-7.89-9.055-10.4q-5.833-3.767-13.002-3.768-7.356.001-13.272 3.768-5.918 3.766-9.238 10.49-3.317 6.723-3.316 14.616c0 5.262 1.076 10.107 3.227 14.527q3.228 6.638 9.237 10.58 6.005 3.948 13.362 3.947 7.17 0 13.002-3.857m30.935-71.467v92.541h-18.47V177.57c-3.587 4.784-7.835 8.457-12.734 11.03q-7.356 3.856-16.5 3.856-11.3-.001-20.537-6.278t-14.794-17.127q-5.56-10.848-5.559-23.944-.002-13.088 5.56-23.943c3.703-7.233 8.636-12.939 14.793-17.127q9.237-6.277 20.536-6.278c6.098 0 11.657 1.32 16.68 3.947q7.53 3.948 12.554 10.94V98.836zM479.762 115.695H463.62q-4.845 0-8.16 3.588-3.32 3.587-3.318 8.608v63.668H433.49V127.89q0-8.07 4.035-14.707 4.035-6.631 10.672-10.49 6.632-3.858 14.527-3.858h17.037zM535.717 173.982q-4.839 0-8.34-3.408-3.495-3.404-3.495-8.25v-46.63h23.088V98.837h-22.912V72.652h-18.65v26.185h-14.7v16.857h14.88v46.63c0 5.38 1.164 10.287 3.498 14.707q3.495 6.638 9.683 10.49c4.125 2.576 8.879 3.857 14.258 3.857h14.167v-17.396zM658.567 110.135c-2.156-3.824-5.02-6.84-8.613-9.058q-5.375-3.318-12.197-3.318c-5.852 0-10.91 1.437-15.155 4.306q-6.366 4.304-9.949 14.528l-17.576 49.32q-1.078 3.224-3.049 5.11c-1.317 1.257-2.99 1.881-5.023 1.881q-3.05.001-5.11-2.06-2.064-2.06-2.064-5.11V62.251H561.36v104.913q-.001 7.177 3.14 12.915c2.09 3.83 4.932 6.845 8.518 9.058q5.38 3.318 12.196 3.318 9.861.002 16.052-4.755c4.125-3.168 7.38-8.098 9.774-14.797l17.217-48.6q1.077-3.227 2.864-5.11c1.201-1.259 2.808-1.883 4.851-1.883q3.048 0 5.105 2.061c1.38 1.376 2.061 3.078 2.061 5.11v66.896h18.654V123.05c0-4.784-1.078-9.086-3.224-12.915M857.01 110.135c-2.094-3.824-4.935-6.84-8.519-9.058q-5.382-3.318-12.196-3.318-8.792.001-15.335 4.306c-4.364 2.87-7.744 7.711-10.13 14.528l-17.577 49.32q-1.08 3.408-2.959 5.2-1.888 1.793-4.93 1.791c-2.039 0-3.679-.685-4.936-2.06q-1.88-2.06-1.882-5.11V123.05c0-4.784-1.078-9.086-3.229-12.915-2.15-3.824-5.02-6.84-8.608-9.058q-5.382-3.318-12.196-3.318-8.786.001-15.246 4.306-6.453 4.304-10.04 14.528l-17.577 49.32q-1.255 3.408-3.049 5.2-1.793 1.793-4.84 1.791-3.056.001-5.11-2.06-2.069-2.06-2.067-5.11V98.836h-18.469v68.328q-.001 7.177 3.138 12.915c2.09 3.83 4.931 6.845 8.52 9.058q5.375 3.318 12.191 3.318 9.864.002 16.233-4.755 6.363-4.75 9.951-14.797l17.038-48.6.36-.54c.6-2.028 1.464-3.612 2.6-4.75q1.701-1.704 4.575-1.703 3.048 0 5.11 2.061 2.063 2.063 2.061 5.11v42.683q-.001 7.177 3.14 12.915c2.09 3.83 4.934 6.845 8.518 9.058q5.382 3.318 12.196 3.318 9.863.002 16.144-4.755 6.275-4.75 9.861-14.797l17.217-48.6.18-.54q1.076-3.043 2.87-4.75c1.195-1.136 2.627-1.703 4.306-1.703q3.043 0 5.2 2.061 2.15 2.063 2.151 5.11v66.896h18.474V123.05c0-4.784-1.05-9.086-3.139-12.915M918.257 174.162q7.347.001 13.27-3.947c3.947-2.63 7.053-6.155 9.326-10.58 2.27-4.42 3.41-9.266 3.41-14.527 0-5.14-1.14-9.923-3.41-14.347-2.273-4.42-5.379-7.98-9.326-10.67q-5.923-4.036-13.27-4.037h-.18c-5.025 0-9.539 1.319-13.543 3.947s-7.143 6.16-9.412 10.58q-3.41 6.636-3.409 14.527c0 5.26 1.135 10.107 3.41 14.527q3.404 6.636 9.411 10.58 6.006 3.948 13.543 3.947zm-23.135 11.927c-6.94-4.245-12.377-9.984-16.324-17.217-3.942-7.233-5.918-15.156-5.918-23.764s1.976-16.527 5.918-23.764c3.947-7.233 9.384-12.972 16.324-17.217 6.93-4.24 14.583-6.368 22.955-6.368h.18c8.25 0 15.78 2.128 22.596 6.368 6.813 4.245 12.197 9.984 16.14 17.217q5.92 10.854 5.918 23.764.002 12.913-5.918 23.764c-3.943 7.233-9.327 12.972-16.14 17.217q-10.223 6.368-22.596 6.368h-.18q-12.559 0-22.955-6.368M1052.759 98.837l-25.466 72.096c-2.751 7.294-6.43 12.707-11.03 16.229q-6.906 5.295-16.947 5.295c-6.94 0-12.556-2.392-16.861-7.176Q976 178.109 976 167.165V98.837h18.47v66.896c0 2.033.686 3.739 2.066 5.11 1.37 1.376 3.072 2.06 5.11 2.06 2.032 0 3.673-.623 4.93-1.88 1.258-1.257 2.241-2.96 2.96-5.11l23.853-67.256zM1081.278 120.805q-6.46 6.19-8.254 16.054h48.606c-.718-4.184-2.127-7.951-4.217-11.298-2.094-3.347-4.812-6.01-8.159-7.98-3.347-1.976-7.237-2.96-11.657-2.96q-9.865 0-16.319 6.184m-.719 47.888c4.42 4.604 10.401 6.9 17.936 6.9 4.061 0 7.56-.712 10.49-2.15q4.39-2.148 7.171-5.29c1.853-2.09 3.078-4.216 3.678-6.367h19.193q-.723 5.743-5.205 12.825-4.481 7.086-13.359 12.46-8.879 5.385-21.968 5.386-13.097-.001-23.405-6.278c-6.878-4.184-12.258-9.866-16.144-17.037-3.886-7.176-5.829-15.184-5.829-24.034 0-8.727 1.976-16.706 5.92-23.944 3.946-7.233 9.265-12.938 15.963-17.127q10.04-6.276 22.597-6.278c8.008 0 15.335 2.095 21.967 6.278q9.957 6.283 15.516 16.948 5.56 10.671 5.56 23.045c0 2.038-.119 4.307-.36 6.817h-67.79q1.433 10.939 8.07 17.846M1200 115.695h-16.139q-4.845 0-8.164 3.588c-2.213 2.391-3.314 5.261-3.314 8.608v63.668h-18.654V127.89q.001-8.07 4.037-14.707 4.034-6.631 10.67-10.49 6.632-3.858 14.527-3.858H1200z"/></g></svg>