<?xml version="1.0" encoding="UTF-8" standalone="no"?>
<!-- Created with Inkscape (http://www.inkscape.org/) -->

<svg
   xmlns:dc="http://purl.org/dc/elements/1.1/"
   xmlns:cc="http://creativecommons.org/ns#"
   xmlns:rdf="http://www.w3.org/1999/02/22-rdf-syntax-ns#"
   xmlns:svg="http://www.w3.org/2000/svg"
   xmlns="http://www.w3.org/2000/svg"
   xmlns:sodipodi="http://sodipodi.sourceforge.net/DTD/sodipodi-0.dtd"
   xmlns:inkscape="http://www.inkscape.org/namespaces/inkscape"
   width="105.39"
   height="28.879999"
   id="svg3689"
   version="1.1"
   inkscape:version="0.48.1 "
   sodipodi:docname="Neues Dokument 4">
  <defs
     id="defs3691" />
  <sodipodi:namedview
     id="base"
     pagecolor="#ffffff"
     bordercolor="#666666"
     borderopacity="1.0"
     inkscape:pageopacity="0.0"
     inkscape:pageshadow="2"
     inkscape:zoom="8.6467866"
     inkscape:cx="52.694995"
     inkscape:cy="14.439996"
     inkscape:document-units="px"
     inkscape:current-layer="layer1"
     showgrid="false"
     fit-margin-top="0"
     fit-margin-left="0"
     fit-margin-right="0"
     fit-margin-bottom="0"
     inkscape:window-width="1024"
     inkscape:window-height="708"
     inkscape:window-x="-4"
     inkscape:window-y="-4"
     inkscape:window-maximized="1" />
  <metadata
     id="metadata3694">
    <rdf:RDF>
      <cc:Work
         rdf:about="">
        <dc:format>image/svg+xml</dc:format>
        <dc:type
           rdf:resource="http://purl.org/dc/dcmitype/StillImage" />
        <dc:title></dc:title>
      </cc:Work>
    </rdf:RDF>
  </metadata>
  <g
     inkscape:label="Ebene 1"
     inkscape:groupmode="layer"
     id="layer1"
     transform="translate(-293.26396,-535.94196)">
    <g
       id="g290"
       transform="matrix(1.25,0,0,-1.25,302.31095,556.3896)">
      <path
         inkscape:connector-curvature="0"
         d="m 0,0 c -0.071,-0.045 -0.145,-0.105 -0.22,-0.168 l -0.021,-0.017 c -0.015,-0.011 -0.03,-0.023 -0.045,-0.034 -0.015,-0.012 -0.031,-0.023 -0.047,-0.034 -0.016,-0.012 -0.032,-0.023 -0.049,-0.034 -0.016,-0.011 -0.033,-0.022 -0.05,-0.032 -0.017,-0.011 -0.035,-0.022 -0.053,-0.032 -0.017,-0.011 -0.035,-0.021 -0.054,-0.031 -0.018,-0.01 -0.036,-0.02 -0.055,-0.03 -0.019,-0.01 -0.038,-0.019 -0.057,-0.029 -0.02,-0.009 -0.039,-0.018 -0.059,-0.027 -0.02,-0.009 -0.04,-0.018 -0.06,-0.027 -0.02,-0.008 -0.041,-0.017 -0.061,-0.025 -0.02,-0.008 -0.04,-0.015 -0.061,-0.023 -0.02,-0.007 -0.04,-0.014 -0.06,-0.021 -0.02,-0.006 -0.04,-0.013 -0.06,-0.019 -0.02,-0.006 -0.04,-0.012 -0.06,-0.017 -0.02,-0.006 -0.039,-0.011 -0.059,-0.016 -0.02,-0.005 -0.039,-0.01 -0.059,-0.014 -0.019,-0.004 -0.038,-0.008 -0.057,-0.012 -0.02,-0.003 -0.039,-0.007 -0.058,-0.01 -0.23,-0.04 -0.47,-0.06 -0.717,-0.062 l -0.183,0 c -1.195,0.029 -2.191,0.421 -2.99,1.177 -0.798,0.756 -1.212,1.703 -1.243,2.842 l 0,4.479 c 0.031,1.139 0.445,2.086 1.243,2.842 0.799,0.755 1.795,1.148 2.99,1.176 l 0.235,0 c 0.226,-0.004 0.437,-0.019 0.633,-0.046 l 0.057,-0.009 c 0.02,-0.004 0.039,-0.007 0.059,-0.011 0.02,-0.004 0.04,-0.008 0.06,-0.013 0.02,-0.004 0.04,-0.009 0.061,-0.014 0.02,-0.005 0.04,-0.01 0.061,-0.016 0.02,-0.006 0.041,-0.012 0.061,-0.018 0.021,-0.006 0.041,-0.013 0.062,-0.02 0.021,-0.007 0.041,-0.014 0.062,-0.021 0.021,-0.008 0.041,-0.016 0.061,-0.024 0.021,-0.008 0.041,-0.016 0.06,-0.024 0.02,-0.008 0.04,-0.017 0.059,-0.026 0.019,-0.009 0.038,-0.018 0.057,-0.027 0.019,-0.009 0.037,-0.018 0.056,-0.028 0.018,-0.009 0.036,-0.019 0.054,-0.029 0.017,-0.009 0.035,-0.019 0.052,-0.029 l 0.016,-0.01 0.022,-0.014 0.022,-0.015 0.023,-0.014 0.021,-0.015 0.021,-0.015 0.021,-0.015 0.021,-0.014 0.02,-0.016 0.02,-0.015 0.019,-0.015 0.019,-0.015 0.019,-0.016 0.018,-0.015 0.018,-0.016 0.017,-0.016 0.017,-0.015 0.017,-0.016 c 0,0 0.015,-0.015 0.034,-0.028 0.012,-0.007 0.021,-0.012 0.03,-0.016 0.014,-0.006 0.027,-0.01 0.042,-0.013 0.014,-0.003 0.029,-0.004 0.045,-0.004 0.015,0 0.03,10e-4 0.044,0.004 0.015,0.003 0.028,0.008 0.042,0.013 0.013,0.006 0.025,0.013 0.037,0.021 0.012,0.008 0.023,0.017 0.033,0.027 0.01,0.01 0.019,0.021 0.027,0.032 0.008,0.012 0.015,0.025 0.02,0.038 0.006,0.013 0.01,0.027 0.013,0.041 0.003,0.015 0.006,0.03 0.006,0.045 -0.002,0.147 -0.005,0.348 0.161,0.397 0.099,0.029 0.22,0.015 0.319,0.015 l 0.986,0 0.526,0 c 0.154,0 0.386,0.038 0.45,-0.151 0.048,-0.14 0.016,-0.433 0.016,-0.583 l 0,-2.09 0,-4.891 -10e-4,-2.569 c 0,-0.848 0.034,-1.705 -0.061,-2.55 -0.267,-2.355 -1.444,-4.356 -3.935,-4.795 -1.508,-0.265 -3.011,0.272 -4.175,1.233 -0.142,0.117 -0.438,0.314 -0.426,0.516 0.005,0.071 0.039,0.137 0.086,0.19 0,0 0.966,1.021 1.036,1.11 0.069,0.076 0.165,0.185 0.272,0.185 0.152,-0.001 0.311,-0.143 0.587,-0.305 0.47,-0.276 0.974,-0.529 1.51,-0.609 0.339,-0.051 0.708,-0.004 1.033,0.101 1.263,0.409 1.613,2.004 1.686,3.254 l 0,0.021 c 0,0.008 0,0.015 -0.001,0.022 C 0.337,-0.151 0.336,-0.144 0.335,-0.137 0.333,-0.13 0.331,-0.123 0.329,-0.116 0.327,-0.109 0.325,-0.102 0.322,-0.096 0.319,-0.089 0.316,-0.083 0.313,-0.077 0.31,-0.071 0.306,-0.065 0.302,-0.059 0.298,-0.053 0.294,-0.047 0.289,-0.042 0.285,-0.037 0.28,-0.032 0.275,-0.027 0.27,-0.022 0.265,-0.017 0.26,-0.013 0.255,-0.008 0.249,-0.004 0.243,0 0.237,0.004 0.231,0.008 0.225,0.011 0.219,0.014 0.213,0.017 0.206,0.02 0.2,0.023 0.193,0.025 0.186,0.027 0.179,0.03 0.172,0.031 0.165,0.033 0.158,0.034 0.151,0.035 0.143,0.036 0.136,0.037 0.129,0.037 0.121,0.037 0.114,0.037 0.106,0.037 0.099,0.036 0.092,0.035 0.084,0.034 0.077,0.033 0.07,0.031 0.063,0.03 0.056,0.027 0.049,0.025 0.043,0.023 0.036,0.02 0.03,0.017 0.006,0.004 0,0 m 0.265,3.272 0,4.496 C 0.246,8.366 0.03,8.739 -0.385,9.074 -0.799,9.408 -1.188,9.579 -1.777,9.584 l -0.228,0 C -2.617,9.57 -3.017,9.369 -3.429,8.983 -3.842,8.597 -4.056,8.206 -4.072,7.623 l 0,-4.158 c 0.016,-0.582 0.23,-0.973 0.643,-1.359 0.412,-0.386 0.812,-0.587 1.424,-0.601 l 0.228,0 c 0.589,0.008 0.978,0.179 1.392,0.513 0.415,0.334 0.631,0.69 0.65,1.254"
         style="fill:#da1c23;fill-opacity:1;fill-rule:nonzero;stroke:none"
         id="path292" />
    </g>
    <g
       id="g294"
       transform="matrix(1.25,0,0,-1.25,327.0422,556.9211)">
      <path
         inkscape:connector-curvature="0"
         d="M 0,0 0,1.644 C -0.001,1.74 -0.026,1.809 -0.076,1.853 -0.125,1.897 -0.191,1.919 -0.274,1.918 l -4.528,0 c -0.109,0.001 -0.186,0.02 -0.233,0.059 -0.042,0.037 -0.072,0.083 -0.072,0.154 -0.003,0.065 0.025,0.145 0.058,0.199 l 4.961,9.363 c 0.014,0.028 0.027,0.06 0.038,0.096 0.011,0.035 0.016,0.067 0.017,0.096 -0.005,0.141 -0.105,0.214 -0.302,0.219 l -8.127,0 c -0.187,0.004 -0.279,-0.087 -0.274,-0.274 l 0,-1.645 C -8.741,9.998 -8.649,9.907 -8.462,9.911 l 4.245,0 c 0.096,0 0.174,-0.017 0.226,-0.055 C -3.939,9.817 -3.916,9.761 -3.915,9.692 -3.916,9.663 -3.922,9.631 -3.932,9.596 -3.943,9.56 -3.956,9.528 -3.97,9.5 L -8.983,0.137 C -8.997,0.109 -9.01,0.077 -9.021,0.041 -9.032,0.006 -9.037,-0.026 -9.038,-0.055 c 0.004,-0.141 0.105,-0.214 0.302,-0.219 l 8.462,0 c 0.095,-0.001 0.165,0.021 0.209,0.065 C -0.021,-0.165 0,-0.095 0,0"
         style="fill:#da1c23;fill-opacity:1;fill-rule:nonzero;stroke:none"
         id="path296" />
    </g>
    <g
       id="g298"
       transform="matrix(1.25,0,0,-1.25,309.4702,539.80247)">
      <path
         inkscape:connector-curvature="0"
         d="M 0,0 C 0.008,-0.09 0.035,-0.16 0.081,-0.207 0.135,-0.261 0.218,-0.289 0.33,-0.292 l 1.711,0 c 0.112,0.003 0.195,0.031 0.249,0.085 0.046,0.046 0.08,0.115 0.08,0.204 0,0 0,0.048 0,0.05 l 0,1.901 C 2.367,2.061 2.341,2.147 2.287,2.201 2.233,2.255 2.15,2.283 2.038,2.287 l -0.136,0 C 1.796,2.287 1.707,2.264 1.609,2.16 L 0.173,0.557 0.104,0.476 C 0.027,0.387 -0.002,0.312 -0.002,0.216 l 0,-0.169 C -0.002,0.033 0,0 0,0"
         style="fill:#da1c23;fill-opacity:1;fill-rule:nonzero;stroke:none"
         id="path300" />
    </g>
    <g
       id="g302"
       transform="matrix(1.25,0,0,-1.25,312.41833,542.14472)">
      <path
         inkscape:connector-curvature="0"
         d="m 0,0 c 0,0.097 -0.024,0.173 -0.068,0.22 -0.048,0.049 -0.124,0.074 -0.227,0.073 l -1.781,0 C -2.179,0.292 -2.254,0.263 -2.302,0.208 -2.347,0.156 -2.372,0.087 -2.372,0 l 0,-0.049 -0.001,-6.691 0.002,-5.062 c 0,-0.097 0.024,-0.173 0.069,-0.22 0.047,-0.049 0.123,-0.073 0.226,-0.073 l 1.781,0 c 0.103,0.001 0.179,0.03 0.226,0.085 0.045,0.052 0.069,0.121 0.069,0.208 L 0,0 z"
         style="fill:#da1c23;fill-opacity:1;fill-rule:nonzero;stroke:none"
         id="path304" />
    </g>
    <g
       id="g306"
       transform="matrix(1.25,0,0,-1.25,397.65446,553.76548)">
      <path
         inkscape:connector-curvature="0"
         d="m 0,0 c 0,0.055 -0.017,0.096 -0.052,0.124 -0.035,0.027 -0.073,0.041 -0.113,0.041 -0.04,0 -0.078,-0.014 -0.113,-0.041 C -0.313,0.096 -0.33,0.055 -0.33,0 l 0,-1.146 -1.028,0 0,1.146 c 0,0.055 -0.018,0.096 -0.053,0.124 -0.034,0.027 -0.072,0.041 -0.112,0.041 -0.041,0 -0.078,-0.014 -0.113,-0.041 C -1.671,0.096 -1.688,0.055 -1.688,0 l 0,-2.721 c 0,-0.055 0.017,-0.096 0.052,-0.122 0.035,-0.026 0.072,-0.039 0.113,-0.039 0.04,0 0.078,0.013 0.112,0.039 0.035,0.026 0.053,0.067 0.053,0.122 l 0,1.246 1.028,0 0,-1.246 c 0,-0.058 0.017,-0.099 0.052,-0.124 0.035,-0.024 0.073,-0.037 0.113,-0.037 0.04,0 0.078,0.013 0.113,0.037 C -0.017,-2.82 0,-2.779 0,-2.721 L 0,0 z m -2.832,-2.184 c 0,-0.101 -0.037,-0.188 -0.109,-0.26 -0.072,-0.072 -0.16,-0.108 -0.264,-0.108 l -0.039,0 c -0.099,0 -0.185,0.03 -0.259,0.091 -0.074,0.061 -0.11,0.144 -0.11,0.251 l 0,0.805 c 0,0.101 0.036,0.182 0.11,0.242 0.074,0.061 0.16,0.091 0.259,0.091 l 0.039,0 c 0.104,0 0.192,-0.036 0.264,-0.108 0.072,-0.072 0.109,-0.159 0.109,-0.26 l 0,-0.744 z m 0.33,0.743 c 0,0.096 -0.018,0.186 -0.055,0.271 -0.036,0.086 -0.085,0.16 -0.149,0.224 -0.064,0.064 -0.139,0.114 -0.224,0.15 -0.085,0.036 -0.177,0.054 -0.275,0.054 l -0.031,0 c -0.075,0 -0.147,-0.012 -0.217,-0.037 -0.069,-0.025 -0.123,-0.06 -0.16,-0.106 l 0,0.885 c 0,0.055 -0.018,0.096 -0.052,0.124 C -3.7,0.151 -3.738,0.165 -3.778,0.165 -3.819,0.165 -3.856,0.151 -3.891,0.124 -3.926,0.096 -3.943,0.055 -3.943,0 l 0,-2.73 c 0,-0.052 0.017,-0.09 0.052,-0.115 0.035,-0.024 0.072,-0.037 0.113,-0.037 0.037,0 0.072,0.011 0.104,0.031 0.031,0.021 0.05,0.053 0.056,0.097 0.032,-0.032 0.079,-0.062 0.141,-0.088 0.063,-0.026 0.14,-0.04 0.233,-0.04 l 0.039,0 c 0.095,0 0.186,0.018 0.271,0.055 0.085,0.036 0.16,0.085 0.223,0.147 0.064,0.062 0.114,0.135 0.152,0.219 0.037,0.084 0.057,0.175 0.057,0.274 l 0,0.746 z m -2.243,0.005 c 0,0.118 -0.02,0.222 -0.057,0.31 -0.038,0.088 -0.089,0.16 -0.154,0.217 -0.065,0.056 -0.14,0.098 -0.223,0.126 -0.085,0.027 -0.173,0.041 -0.265,0.041 l -0.039,0 c -0.111,0 -0.211,-0.023 -0.302,-0.067 -0.091,-0.045 -0.17,-0.105 -0.236,-0.18 -0.067,0.075 -0.146,0.135 -0.237,0.18 -0.091,0.044 -0.192,0.067 -0.302,0.067 l -0.039,0 c -0.075,0 -0.146,-0.012 -0.212,-0.035 -0.067,-0.023 -0.121,-0.055 -0.161,-0.095 -0.009,0.043 -0.029,0.076 -0.061,0.097 -0.032,0.022 -0.065,0.033 -0.099,0.033 -0.044,0 -0.083,-0.015 -0.118,-0.043 -0.034,-0.029 -0.052,-0.07 -0.052,-0.122 l 0,-1.814 c 0,-0.055 0.018,-0.096 0.052,-0.122 0.035,-0.026 0.072,-0.039 0.113,-0.039 0.041,0 0.078,0.013 0.113,0.039 0.035,0.026 0.052,0.067 0.052,0.122 l 0,1.315 c 0,0.101 0.037,0.182 0.113,0.243 0.075,0.061 0.162,0.091 0.26,0.091 l 0.039,0 c 0.105,0 0.193,-0.035 0.265,-0.104 0.072,-0.07 0.109,-0.159 0.109,-0.269 l 0,-1.267 c 0,-0.058 0.017,-0.101 0.052,-0.128 0.034,-0.028 0.072,-0.042 0.113,-0.042 0.04,0 0.078,0.014 0.112,0.042 0.035,0.027 0.052,0.07 0.052,0.128 l 0,1.267 c 0,0.107 0.036,0.196 0.109,0.267 0.072,0.071 0.161,0.106 0.265,0.106 l 0.039,0 c 0.11,0 0.198,-0.03 0.266,-0.091 0.069,-0.061 0.103,-0.152 0.103,-0.273 l 0,-1.285 c 0,-0.055 0.017,-0.096 0.052,-0.122 0.034,-0.026 0.072,-0.039 0.113,-0.039 0.04,0 0.078,0.013 0.112,0.039 0.035,0.026 0.053,0.067 0.053,0.122 l 0,1.285 z m -3.352,0.047 c 0,0.044 -0.016,0.082 -0.049,0.115 -0.034,0.034 -0.072,0.05 -0.115,0.05 l -0.621,0 c -0.055,0 -0.096,-0.017 -0.124,-0.052 -0.027,-0.035 -0.041,-0.072 -0.041,-0.113 0,-0.04 0.014,-0.078 0.041,-0.113 0.028,-0.034 0.069,-0.052 0.124,-0.052 l 0.456,0 0,-0.505 c 0,-0.069 -0.013,-0.134 -0.039,-0.193 -0.027,-0.059 -0.062,-0.111 -0.106,-0.155 -0.046,-0.045 -0.098,-0.08 -0.157,-0.106 -0.059,-0.026 -0.124,-0.039 -0.193,-0.039 l -0.044,0 c -0.069,0 -0.134,0.013 -0.192,0.039 -0.06,0.026 -0.112,0.061 -0.157,0.106 -0.045,0.045 -0.08,0.097 -0.106,0.156 -0.026,0.059 -0.039,0.124 -0.039,0.193 l 0,1.404 c 0,0.066 0.013,0.129 0.039,0.188 0.026,0.059 0.061,0.111 0.106,0.156 0.045,0.045 0.097,0.08 0.157,0.106 0.058,0.026 0.123,0.039 0.192,0.039 l 0.044,0 c 0.142,0 0.254,-0.04 0.337,-0.121 0.082,-0.081 0.135,-0.183 0.158,-0.304 0.008,-0.049 0.029,-0.085 0.06,-0.107 0.032,-0.021 0.067,-0.032 0.105,-0.032 0.04,0 0.078,0.014 0.112,0.041 0.035,0.028 0.052,0.067 0.052,0.12 l 0,0.026 c -0.014,0.101 -0.045,0.195 -0.093,0.282 -0.048,0.087 -0.109,0.161 -0.182,0.223 -0.074,0.062 -0.158,0.112 -0.252,0.148 -0.094,0.036 -0.193,0.054 -0.297,0.054 l -0.044,0 c -0.112,0 -0.22,-0.022 -0.321,-0.065 -0.101,-0.044 -0.188,-0.102 -0.262,-0.176 -0.074,-0.074 -0.133,-0.16 -0.176,-0.26 -0.043,-0.1 -0.065,-0.208 -0.065,-0.324 l 0,-1.402 c 0,-0.115 0.022,-0.223 0.065,-0.323 0.043,-0.1 0.102,-0.186 0.176,-0.26 0.074,-0.074 0.161,-0.132 0.262,-0.174 0.101,-0.042 0.209,-0.063 0.321,-0.063 l 0.044,0 c 0.113,0 0.22,0.021 0.321,0.063 0.101,0.042 0.189,0.1 0.263,0.174 0.073,0.074 0.132,0.16 0.175,0.26 0.044,0.1 0.065,0.208 0.065,0.323 l 0,0.673 z m -3.434,0.51 c -0.034,0.184 -0.08,0.356 -0.137,0.517 -0.058,0.16 -0.127,0.306 -0.207,0.438 -0.079,0.132 -0.165,0.242 -0.258,0.332 -0.034,0.035 -0.072,0.052 -0.113,0.052 -0.034,0 -0.072,-0.016 -0.112,-0.048 -0.035,-0.034 -0.053,-0.072 -0.053,-0.112 0,-0.038 0.017,-0.073 0.048,-0.105 0.075,-0.072 0.147,-0.165 0.215,-0.277 0.068,-0.113 0.128,-0.241 0.18,-0.382 0.052,-0.142 0.093,-0.296 0.124,-0.462 0.031,-0.167 0.045,-0.34 0.045,-0.519 0,-0.185 -0.016,-0.362 -0.047,-0.53 -0.032,-0.167 -0.075,-0.322 -0.128,-0.464 -0.054,-0.142 -0.115,-0.268 -0.185,-0.38 -0.069,-0.111 -0.142,-0.203 -0.217,-0.275 -0.031,-0.032 -0.048,-0.067 -0.048,-0.105 0,-0.04 0.018,-0.078 0.053,-0.112 0.037,-0.035 0.076,-0.052 0.117,-0.052 0.038,0 0.073,0.017 0.108,0.052 0.093,0.089 0.179,0.199 0.261,0.329 0.081,0.131 0.151,0.276 0.21,0.437 0.059,0.16 0.106,0.334 0.141,0.52 0.035,0.187 0.052,0.38 0.052,0.58 0,0.194 -0.017,0.382 -0.049,0.566 m -1.495,-1.703 c -0.028,0.034 -0.069,0.052 -0.124,0.052 l -1.094,0 1.233,2.365 c 0.02,0.038 0.03,0.075 0.03,0.113 0,0.052 -0.019,0.097 -0.056,0.135 -0.038,0.037 -0.085,0.056 -0.144,0.056 l -1.241,0 c -0.057,0 -0.1,-0.017 -0.126,-0.052 -0.026,-0.035 -0.039,-0.072 -0.039,-0.113 0,-0.041 0.013,-0.078 0.039,-0.113 0.026,-0.034 0.069,-0.052 0.126,-0.052 l 1.029,0 -1.228,-2.357 c -0.018,-0.031 -0.026,-0.066 -0.026,-0.104 0,-0.055 0.016,-0.103 0.05,-0.145 0.033,-0.042 0.08,-0.063 0.14,-0.063 l 1.307,0 c 0.055,0 0.096,0.017 0.124,0.052 0.027,0.035 0.041,0.072 0.041,0.113 0,0.04 -0.014,0.078 -0.041,0.113 M -15.437,0 c 0,0.055 -0.018,0.096 -0.052,0.124 -0.035,0.027 -0.072,0.041 -0.113,0.041 -0.041,0 -0.078,-0.014 -0.113,-0.041 C -15.75,0.096 -15.767,0.055 -15.767,0 l 0,-2.721 c 0,-0.055 0.017,-0.096 0.052,-0.122 0.035,-0.026 0.072,-0.039 0.113,-0.039 0.041,0 0.078,0.013 0.113,0.039 0.034,0.026 0.052,0.067 0.052,0.122 l 0,2.721 z m -1.202,-1.389 c 0,0.044 -0.017,0.082 -0.05,0.115 -0.033,0.034 -0.071,0.05 -0.115,0.05 l -0.62,0 c -0.056,0 -0.097,-0.017 -0.124,-0.052 -0.028,-0.035 -0.041,-0.072 -0.041,-0.113 0,-0.04 0.013,-0.078 0.041,-0.113 0.027,-0.034 0.068,-0.052 0.124,-0.052 l 0.455,0 0,-0.505 c 0,-0.069 -0.013,-0.134 -0.039,-0.193 -0.026,-0.059 -0.061,-0.111 -0.106,-0.155 -0.045,-0.045 -0.097,-0.08 -0.156,-0.106 -0.06,-0.026 -0.124,-0.039 -0.194,-0.039 l -0.043,0 c -0.069,0 -0.134,0.013 -0.193,0.039 -0.059,0.026 -0.111,0.061 -0.156,0.106 -0.045,0.045 -0.081,0.097 -0.107,0.156 -0.026,0.059 -0.039,0.124 -0.039,0.193 l 0,1.404 c 0,0.066 0.013,0.129 0.039,0.188 0.026,0.059 0.062,0.111 0.107,0.156 0.045,0.045 0.097,0.08 0.156,0.106 0.059,0.026 0.124,0.039 0.193,0.039 l 0.043,0 c 0.142,0 0.255,-0.04 0.337,-0.121 0.083,-0.081 0.135,-0.183 0.158,-0.304 0.009,-0.049 0.029,-0.085 0.061,-0.107 0.032,-0.021 0.067,-0.032 0.104,-0.032 0.041,0 0.078,0.014 0.113,0.041 0.035,0.028 0.052,0.067 0.052,0.12 l 0,0.026 c -0.014,0.101 -0.045,0.195 -0.093,0.282 -0.048,0.087 -0.108,0.161 -0.182,0.223 -0.074,0.062 -0.158,0.112 -0.252,0.148 -0.094,0.036 -0.193,0.054 -0.298,0.054 l -0.043,0 c -0.113,0 -0.22,-0.022 -0.321,-0.065 -0.101,-0.044 -0.189,-0.102 -0.262,-0.176 -0.074,-0.074 -0.133,-0.16 -0.176,-0.26 -0.044,-0.1 -0.066,-0.208 -0.066,-0.324 l 0,-1.402 c 0,-0.115 0.022,-0.223 0.066,-0.323 0.043,-0.1 0.102,-0.186 0.176,-0.26 0.073,-0.074 0.161,-0.132 0.262,-0.174 0.101,-0.042 0.208,-0.063 0.321,-0.063 l 0.043,0 c 0.113,0 0.221,0.021 0.322,0.063 0.101,0.042 0.189,0.1 0.262,0.174 0.074,0.074 0.133,0.16 0.176,0.26 0.043,0.1 0.065,0.208 0.065,0.323 l 0,0.673 z m -2.469,-1.43 c -0.07,0.112 -0.132,0.238 -0.185,0.38 -0.053,0.142 -0.096,0.297 -0.128,0.464 -0.032,0.168 -0.048,0.345 -0.048,0.53 0,0.179 0.016,0.352 0.048,0.519 0.032,0.166 0.074,0.32 0.126,0.462 0.052,0.141 0.112,0.269 0.18,0.382 0.068,0.112 0.138,0.205 0.21,0.277 0.032,0.032 0.048,0.067 0.048,0.105 0,0.04 -0.018,0.078 -0.052,0.112 -0.041,0.032 -0.078,0.048 -0.113,0.048 -0.041,0 -0.078,-0.017 -0.112,-0.052 -0.09,-0.093 -0.175,-0.205 -0.255,-0.336 -0.079,-0.132 -0.148,-0.277 -0.205,-0.436 -0.059,-0.16 -0.105,-0.33 -0.14,-0.513 -0.035,-0.182 -0.051,-0.371 -0.051,-0.568 0,-0.2 0.016,-0.393 0.051,-0.58 0.035,-0.186 0.082,-0.36 0.141,-0.52 0.06,-0.161 0.13,-0.306 0.211,-0.437 0.081,-0.13 0.168,-0.24 0.26,-0.329 0.035,-0.035 0.071,-0.052 0.108,-0.052 0.045,0 0.083,0.017 0.118,0.052 0.037,0.029 0.056,0.065 0.056,0.108 0,0.038 -0.017,0.074 -0.051,0.109 -0.076,0.072 -0.149,0.164 -0.217,0.275 m -2.451,0.21 c -0.024,0.032 -0.063,0.051 -0.115,0.057 -0.066,0.006 -0.125,0.03 -0.175,0.072 -0.051,0.041 -0.076,0.1 -0.076,0.175 l 0,1.22 0.234,0 c 0.055,0 0.096,0.017 0.124,0.052 0.027,0.035 0.041,0.072 0.041,0.113 0,0.041 -0.014,0.078 -0.041,0.113 -0.028,0.035 -0.069,0.052 -0.124,0.052 l -0.234,0 0,0.755 c 0,0.055 -0.018,0.096 -0.052,0.124 -0.035,0.027 -0.073,0.041 -0.113,0.041 -0.041,0 -0.078,-0.014 -0.113,-0.041 C -22.238,0.096 -22.255,0.055 -22.255,0 l 0,-0.755 -0.152,0 c -0.055,0 -0.096,-0.017 -0.124,-0.052 -0.027,-0.035 -0.041,-0.072 -0.041,-0.113 0,-0.041 0.014,-0.078 0.041,-0.113 0.028,-0.035 0.069,-0.052 0.124,-0.052 l 0.152,0 0,-1.228 c 0,-0.078 0.014,-0.152 0.043,-0.221 0.029,-0.07 0.07,-0.131 0.122,-0.183 0.052,-0.052 0.113,-0.092 0.182,-0.121 0.069,-0.029 0.143,-0.044 0.221,-0.044 0.058,0 0.1,0.017 0.126,0.051 0.026,0.034 0.039,0.071 0.039,0.112 0,0.041 -0.012,0.078 -0.037,0.11 m -1.716,1.702 c 0,0.055 -0.017,0.096 -0.052,0.124 -0.035,0.027 -0.072,0.041 -0.113,0.041 -0.04,0 -0.078,-0.014 -0.113,-0.041 -0.034,-0.028 -0.052,-0.069 -0.052,-0.124 l 0,-1.814 c 0,-0.055 0.018,-0.096 0.052,-0.122 0.035,-0.026 0.073,-0.039 0.113,-0.039 0.041,0 0.078,0.013 0.113,0.039 0.035,0.026 0.052,0.067 0.052,0.122 l 0,1.814 z m 0,0.907 c 0,0.055 -0.017,0.096 -0.052,0.124 -0.035,0.027 -0.072,0.041 -0.113,0.041 -0.04,0 -0.078,-0.014 -0.113,-0.041 C -23.587,0.096 -23.605,0.055 -23.605,0 l 0,-0.095 c 0,-0.055 0.018,-0.097 0.052,-0.124 0.035,-0.028 0.073,-0.041 0.113,-0.041 0.041,0 0.078,0.013 0.113,0.041 0.035,0.027 0.052,0.069 0.052,0.124 l 0,0.095 z m -1.398,-1.662 -0.782,0 0,0.218 c 0,0.105 0.037,0.194 0.111,0.265 0.074,0.071 0.161,0.107 0.263,0.107 l 0.043,0 c 0.096,0 0.18,-0.036 0.254,-0.107 0.074,-0.071 0.111,-0.161 0.111,-0.269 l 0,-0.214 z m 0.329,0.217 c 0,0.101 -0.018,0.194 -0.054,0.28 -0.036,0.085 -0.086,0.16 -0.149,0.223 -0.064,0.064 -0.139,0.113 -0.224,0.148 -0.085,0.034 -0.176,0.052 -0.271,0.052 l -0.044,0 c -0.095,0 -0.185,-0.018 -0.271,-0.054 -0.085,-0.036 -0.16,-0.086 -0.223,-0.15 -0.064,-0.064 -0.114,-0.138 -0.15,-0.224 -0.036,-0.085 -0.054,-0.175 -0.054,-0.271 l 0,-0.746 c 0,-0.099 0.018,-0.19 0.054,-0.274 0.036,-0.084 0.086,-0.157 0.15,-0.219 0.063,-0.062 0.138,-0.111 0.223,-0.147 0.086,-0.037 0.176,-0.055 0.271,-0.055 l 0.044,0 c 0.147,0 0.277,0.038 0.388,0.115 0.112,0.076 0.193,0.175 0.245,0.298 0.012,0.02 0.018,0.044 0.018,0.073 0,0.05 -0.018,0.09 -0.052,0.122 -0.035,0.032 -0.074,0.048 -0.117,0.048 -0.029,0 -0.057,-0.008 -0.083,-0.024 -0.026,-0.016 -0.046,-0.043 -0.061,-0.081 -0.029,-0.06 -0.071,-0.112 -0.128,-0.156 -0.056,-0.043 -0.126,-0.065 -0.21,-0.065 l -0.044,0 c -0.101,0 -0.188,0.036 -0.26,0.108 -0.072,0.072 -0.109,0.158 -0.109,0.258 l 0,0.22 0.947,0 c 0.046,0 0.085,0.017 0.117,0.05 0.032,0.033 0.047,0.072 0.047,0.115 l 0,0.356 z m -2.483,-0.739 c 0,-0.101 -0.036,-0.188 -0.108,-0.26 -0.073,-0.072 -0.161,-0.108 -0.265,-0.108 l -0.039,0 c -0.099,0 -0.185,0.03 -0.258,0.091 -0.074,0.061 -0.111,0.144 -0.111,0.251 l 0,0.805 c 0,0.101 0.037,0.182 0.111,0.242 0.073,0.061 0.159,0.091 0.258,0.091 l 0.039,0 c 0.104,0 0.192,-0.036 0.265,-0.108 0.072,-0.072 0.108,-0.159 0.108,-0.26 l 0,-0.744 z m 0.33,0.743 c 0,0.096 -0.018,0.186 -0.054,0.271 -0.036,0.086 -0.086,0.16 -0.15,0.224 -0.064,0.064 -0.138,0.114 -0.223,0.15 -0.086,0.036 -0.178,0.054 -0.276,0.054 l -0.03,0 c -0.076,0 -0.148,-0.012 -0.217,-0.037 -0.07,-0.025 -0.123,-0.06 -0.161,-0.106 l 0,0.885 c 0,0.055 -0.017,0.096 -0.052,0.124 -0.035,0.027 -0.072,0.041 -0.113,0.041 -0.04,0 -0.078,-0.014 -0.113,-0.041 C -27.92,0.096 -27.938,0.055 -27.938,0 l 0,-2.73 c 0,-0.052 0.018,-0.09 0.052,-0.115 0.035,-0.024 0.073,-0.037 0.113,-0.037 0.038,0 0.072,0.011 0.104,0.031 0.032,0.021 0.051,0.053 0.057,0.097 0.031,-0.032 0.078,-0.062 0.141,-0.088 0.062,-0.026 0.139,-0.04 0.232,-0.04 l 0.039,0 c 0.095,0 0.186,0.018 0.271,0.055 0.086,0.036 0.16,0.085 0.224,0.147 0.063,0.062 0.114,0.135 0.152,0.219 0.037,0.084 0.056,0.175 0.056,0.274 l 0,0.746 z m -2.148,0.486 c -0.052,0.076 -0.119,0.13 -0.202,0.163 -0.082,0.033 -0.165,0.05 -0.249,0.05 -0.058,0 -0.106,-0.004 -0.143,-0.013 -0.038,-0.009 -0.07,-0.019 -0.096,-0.03 -0.032,-0.012 -0.056,-0.027 -0.074,-0.044 -0.014,0.032 -0.034,0.054 -0.06,0.067 -0.026,0.013 -0.054,0.02 -0.083,0.02 -0.04,0 -0.079,-0.015 -0.115,-0.043 -0.036,-0.029 -0.054,-0.07 -0.054,-0.122 l 0,-1.805 c 0,-0.058 0.017,-0.101 0.052,-0.128 0.035,-0.028 0.072,-0.042 0.113,-0.042 0.04,0 0.078,0.014 0.113,0.042 0.034,0.027 0.052,0.07 0.052,0.128 l 0,1.349 c 0,0.035 0.003,0.07 0.008,0.105 0.006,0.034 0.019,0.065 0.039,0.093 0.021,0.027 0.05,0.05 0.087,0.067 0.038,0.017 0.09,0.026 0.157,0.026 0.054,0 0.097,-0.011 0.128,-0.032 0.03,-0.022 0.054,-0.042 0.071,-0.059 0.041,-0.041 0.085,-0.061 0.135,-0.061 0.043,0 0.081,0.015 0.113,0.044 0.031,0.028 0.047,0.066 0.047,0.112 0,0.035 -0.013,0.073 -0.039,0.113 m -2.314,-1.228 c 0,-0.104 -0.037,-0.192 -0.111,-0.262 -0.073,-0.071 -0.161,-0.107 -0.262,-0.107 l -0.039,0 c -0.11,0 -0.199,0.028 -0.267,0.083 -0.068,0.055 -0.102,0.128 -0.102,0.221 l 0,0.035 c 0,0.075 0.025,0.133 0.076,0.173 0.051,0.041 0.115,0.073 0.193,0.096 0.078,0.023 0.163,0.041 0.254,0.054 0.091,0.013 0.177,0.03 0.258,0.05 l 0,-0.343 z m 0.549,-0.436 c -0.021,0.03 -0.057,0.05 -0.106,0.059 -0.075,0.014 -0.113,0.062 -0.113,0.143 l 0,1.006 c 0,0.093 -0.017,0.18 -0.052,0.261 -0.035,0.081 -0.082,0.152 -0.143,0.213 -0.061,0.06 -0.133,0.108 -0.217,0.143 -0.084,0.034 -0.174,0.052 -0.269,0.052 l -0.031,0 c -0.058,0 -0.117,-0.007 -0.178,-0.02 -0.06,-0.013 -0.12,-0.034 -0.178,-0.065 -0.058,-0.03 -0.112,-0.071 -0.162,-0.123 -0.051,-0.052 -0.094,-0.118 -0.128,-0.196 -0.012,-0.02 -0.018,-0.046 -0.018,-0.078 0,-0.046 0.018,-0.083 0.052,-0.11 0.035,-0.028 0.073,-0.042 0.113,-0.042 0.029,0 0.056,0.007 0.083,0.02 0.026,0.013 0.047,0.035 0.065,0.067 0.04,0.072 0.087,0.127 0.139,0.163 0.052,0.036 0.123,0.054 0.212,0.054 l 0.031,0 c 0.095,0 0.177,-0.026 0.247,-0.078 0.069,-0.052 0.104,-0.143 0.104,-0.273 0,-0.012 -0.001,-0.025 -0.002,-0.04 -0.001,-0.014 -0.005,-0.026 -0.011,-0.034 -0.017,-0.023 -0.057,-0.041 -0.119,-0.054 -0.062,-0.013 -0.134,-0.027 -0.215,-0.042 -0.081,-0.014 -0.166,-0.033 -0.256,-0.056 -0.09,-0.023 -0.172,-0.057 -0.248,-0.102 -0.075,-0.045 -0.137,-0.104 -0.186,-0.178 -0.049,-0.074 -0.074,-0.167 -0.074,-0.28 l 0,-0.052 c 0,-0.101 0.02,-0.191 0.061,-0.269 0.04,-0.078 0.093,-0.143 0.158,-0.195 0.065,-0.052 0.14,-0.092 0.224,-0.118 0.084,-0.026 0.169,-0.039 0.256,-0.039 l 0.039,0 c 0.182,0 0.338,0.057 0.469,0.17 0.029,-0.041 0.066,-0.076 0.113,-0.105 0.046,-0.029 0.107,-0.049 0.182,-0.06 0.003,-0.003 0.013,-0.005 0.03,-0.005 0.052,0 0.092,0.017 0.119,0.05 0.028,0.033 0.042,0.072 0.042,0.115 0,0.035 -0.011,0.067 -0.033,0.098 m -2.338,1.178 c 0,0.119 -0.018,0.222 -0.056,0.31 -0.038,0.089 -0.088,0.162 -0.152,0.22 -0.064,0.058 -0.138,0.1 -0.221,0.128 -0.084,0.027 -0.173,0.041 -0.265,0.041 l -0.039,0 c -0.075,0 -0.146,-0.012 -0.213,-0.035 -0.066,-0.023 -0.12,-0.055 -0.16,-0.095 -0.009,0.043 -0.029,0.076 -0.061,0.097 -0.032,0.022 -0.067,0.033 -0.104,0.033 -0.044,0 -0.083,-0.015 -0.118,-0.043 -0.034,-0.029 -0.052,-0.07 -0.052,-0.122 l 0,-1.814 c 0,-0.055 0.018,-0.096 0.052,-0.122 0.035,-0.026 0.073,-0.039 0.113,-0.039 0.041,0 0.078,0.013 0.113,0.039 0.035,0.026 0.052,0.067 0.052,0.122 l 0,1.28 c 0,0.104 0.037,0.192 0.11,0.263 0.074,0.071 0.161,0.106 0.262,0.106 l 0.038,0 c 0.104,0 0.192,-0.036 0.264,-0.108 0.071,-0.073 0.107,-0.16 0.107,-0.261 l 0,-1.28 c 0,-0.055 0.018,-0.096 0.053,-0.122 0.035,-0.026 0.074,-0.039 0.115,-0.039 0.041,0 0.078,0.013 0.112,0.039 0.033,0.026 0.05,0.067 0.05,0.122 l 0,1.28 z m -2.485,-0.221 -0.781,0 0,0.218 c 0,0.105 0.037,0.194 0.11,0.265 0.074,0.071 0.162,0.107 0.263,0.107 l 0.043,0 c 0.096,0 0.18,-0.036 0.254,-0.107 0.074,-0.071 0.111,-0.161 0.111,-0.269 l 0,-0.214 z m 0.33,0.217 c 0,0.101 -0.019,0.194 -0.055,0.28 -0.036,0.085 -0.086,0.16 -0.149,0.223 -0.064,0.064 -0.138,0.113 -0.224,0.148 -0.085,0.034 -0.176,0.052 -0.271,0.052 l -0.044,0 c -0.095,0 -0.185,-0.018 -0.271,-0.054 -0.085,-0.036 -0.16,-0.086 -0.223,-0.15 -0.064,-0.064 -0.114,-0.138 -0.15,-0.224 -0.036,-0.085 -0.054,-0.175 -0.054,-0.271 l 0,-0.746 c 0,-0.099 0.018,-0.19 0.054,-0.274 0.036,-0.084 0.086,-0.157 0.15,-0.219 0.063,-0.062 0.138,-0.111 0.223,-0.147 0.086,-0.037 0.176,-0.055 0.271,-0.055 l 0.044,0 c 0.147,0 0.277,0.038 0.388,0.115 0.112,0.076 0.193,0.175 0.245,0.298 0.012,0.02 0.018,0.044 0.018,0.073 0,0.05 -0.018,0.09 -0.052,0.122 -0.035,0.032 -0.074,0.048 -0.117,0.048 -0.029,0 -0.057,-0.008 -0.083,-0.024 -0.026,-0.016 -0.046,-0.043 -0.061,-0.081 -0.028,-0.06 -0.071,-0.112 -0.128,-0.156 -0.056,-0.043 -0.126,-0.065 -0.21,-0.065 l -0.044,0 c -0.101,0 -0.188,0.036 -0.26,0.108 -0.072,0.072 -0.108,0.158 -0.108,0.258 l 0,0.22 0.946,0 c 0.046,0 0.085,0.017 0.117,0.05 0.032,0.033 0.048,0.072 0.048,0.115 l 0,0.356 z m -2.168,0.009 c 0,0.118 -0.019,0.222 -0.056,0.31 -0.038,0.088 -0.089,0.16 -0.154,0.217 -0.065,0.056 -0.14,0.098 -0.224,0.126 -0.084,0.027 -0.172,0.041 -0.264,0.041 l -0.039,0 c -0.11,0 -0.211,-0.023 -0.302,-0.067 -0.091,-0.045 -0.17,-0.105 -0.237,-0.18 -0.066,0.075 -0.145,0.135 -0.236,0.18 -0.091,0.044 -0.192,0.067 -0.302,0.067 l -0.039,0 c -0.075,0 -0.146,-0.012 -0.212,-0.035 -0.067,-0.023 -0.121,-0.055 -0.161,-0.095 -0.009,0.043 -0.029,0.076 -0.061,0.097 -0.032,0.022 -0.065,0.033 -0.1,0.033 -0.043,0 -0.082,-0.015 -0.117,-0.043 -0.035,-0.029 -0.052,-0.07 -0.052,-0.122 l 0,-1.814 c 0,-0.055 0.017,-0.096 0.052,-0.122 0.035,-0.026 0.072,-0.039 0.113,-0.039 0.04,0 0.078,0.013 0.113,0.039 0.035,0.026 0.052,0.067 0.052,0.122 l 0,1.315 c 0,0.101 0.037,0.182 0.113,0.243 0.075,0.061 0.162,0.091 0.26,0.091 l 0.039,0 c 0.104,0 0.193,-0.035 0.265,-0.104 0.072,-0.07 0.108,-0.159 0.108,-0.269 l 0,-1.267 c 0,-0.058 0.018,-0.101 0.053,-0.128 0.034,-0.028 0.072,-0.042 0.112,-0.042 0.041,0 0.079,0.014 0.113,0.042 0.035,0.027 0.052,0.07 0.052,0.128 l 0,1.267 c 0,0.107 0.036,0.196 0.109,0.267 0.072,0.071 0.16,0.106 0.265,0.106 l 0.039,0 c 0.109,0 0.199,-0.03 0.266,-0.091 0.068,-0.061 0.102,-0.152 0.102,-0.273 l 0,-1.285 c 0,-0.055 0.018,-0.096 0.053,-0.122 0.034,-0.026 0.072,-0.039 0.112,-0.039 0.041,0 0.079,0.013 0.113,0.039 0.035,0.026 0.052,0.067 0.052,0.122 l 0,1.285 z m -3.323,0 c 0,0.118 -0.019,0.222 -0.057,0.31 -0.037,0.088 -0.089,0.16 -0.154,0.217 -0.065,0.056 -0.139,0.098 -0.223,0.126 -0.084,0.027 -0.172,0.041 -0.265,0.041 l -0.039,0 c -0.11,0 -0.21,-0.023 -0.302,-0.067 -0.091,-0.045 -0.17,-0.105 -0.236,-0.18 -0.067,0.075 -0.145,0.135 -0.237,0.18 -0.091,0.044 -0.191,0.067 -0.301,0.067 l -0.039,0 c -0.076,0 -0.147,-0.012 -0.213,-0.035 -0.067,-0.023 -0.12,-0.055 -0.161,-0.095 -0.008,0.043 -0.029,0.076 -0.06,0.097 -0.032,0.022 -0.065,0.033 -0.1,0.033 -0.044,0 -0.083,-0.015 -0.117,-0.043 -0.035,-0.029 -0.052,-0.07 -0.052,-0.122 l 0,-1.814 c 0,-0.055 0.017,-0.096 0.052,-0.122 0.034,-0.026 0.072,-0.039 0.112,-0.039 0.041,0 0.079,0.013 0.113,0.039 0.035,0.026 0.052,0.067 0.052,0.122 l 0,1.315 c 0,0.101 0.038,0.182 0.113,0.243 0.075,0.061 0.162,0.091 0.261,0.091 l 0.039,0 c 0.104,0 0.192,-0.035 0.264,-0.104 0.073,-0.07 0.109,-0.159 0.109,-0.269 l 0,-1.267 c 0,-0.058 0.017,-0.101 0.052,-0.128 0.035,-0.028 0.072,-0.042 0.113,-0.042 0.04,0 0.078,0.014 0.113,0.042 0.034,0.027 0.052,0.07 0.052,0.128 l 0,1.267 c 0,0.107 0.036,0.196 0.108,0.267 0.073,0.071 0.161,0.106 0.265,0.106 l 0.039,0 c 0.11,0 0.199,-0.03 0.267,-0.091 0.068,-0.061 0.102,-0.152 0.102,-0.273 l 0,-1.285 c 0,-0.055 0.017,-0.096 0.052,-0.122 0.035,-0.026 0.072,-0.039 0.113,-0.039 0.04,0 0.078,0.013 0.113,0.039 0.035,0.026 0.052,0.067 0.052,0.122 l 0,1.285 z M -44.2,-2.183 c 0,-0.104 -0.037,-0.192 -0.111,-0.262 -0.073,-0.071 -0.161,-0.107 -0.262,-0.107 l -0.039,0 c -0.11,0 -0.199,0.028 -0.267,0.083 -0.068,0.055 -0.102,0.128 -0.102,0.221 l 0,0.035 c 0,0.075 0.025,0.133 0.076,0.173 0.05,0.041 0.115,0.073 0.193,0.096 0.078,0.023 0.163,0.041 0.254,0.054 0.091,0.013 0.177,0.03 0.258,0.05 l 0,-0.343 z m 0.549,-0.436 c -0.022,0.03 -0.057,0.05 -0.106,0.059 -0.076,0.014 -0.113,0.062 -0.113,0.143 l 0,1.006 c 0,0.093 -0.017,0.18 -0.052,0.261 -0.035,0.081 -0.083,0.152 -0.143,0.213 -0.061,0.06 -0.133,0.108 -0.217,0.143 -0.084,0.034 -0.174,0.052 -0.269,0.052 l -0.031,0 c -0.058,0 -0.117,-0.007 -0.178,-0.02 -0.061,-0.013 -0.12,-0.034 -0.178,-0.065 -0.058,-0.03 -0.112,-0.071 -0.162,-0.123 -0.051,-0.052 -0.094,-0.118 -0.129,-0.196 -0.011,-0.02 -0.017,-0.046 -0.017,-0.078 0,-0.046 0.017,-0.083 0.052,-0.11 0.035,-0.028 0.073,-0.042 0.113,-0.042 0.029,0 0.056,0.007 0.083,0.02 0.026,0.013 0.047,0.035 0.065,0.067 0.04,0.072 0.086,0.127 0.139,0.163 0.052,0.036 0.122,0.054 0.212,0.054 l 0.031,0 c 0.095,0 0.177,-0.026 0.247,-0.078 0.069,-0.052 0.104,-0.143 0.104,-0.273 0,-0.012 -10e-4,-0.025 -0.002,-0.04 -0.002,-0.014 -0.005,-0.026 -0.011,-0.034 -0.017,-0.023 -0.057,-0.041 -0.119,-0.054 -0.063,-0.013 -0.134,-0.027 -0.215,-0.042 -0.081,-0.014 -0.167,-0.033 -0.256,-0.056 -0.09,-0.023 -0.172,-0.057 -0.248,-0.102 -0.075,-0.045 -0.137,-0.104 -0.186,-0.178 -0.049,-0.074 -0.074,-0.167 -0.074,-0.28 l 0,-0.052 c 0,-0.101 0.02,-0.191 0.061,-0.269 0.04,-0.078 0.093,-0.143 0.158,-0.195 0.065,-0.052 0.14,-0.092 0.224,-0.118 0.084,-0.026 0.169,-0.039 0.256,-0.039 l 0.039,0 c 0.182,0 0.338,0.057 0.469,0.17 0.028,-0.041 0.066,-0.076 0.112,-0.105 0.047,-0.029 0.107,-0.049 0.183,-0.06 0.003,-0.003 0.013,-0.005 0.03,-0.005 0.052,0 0.092,0.017 0.119,0.05 0.028,0.033 0.042,0.072 0.042,0.115 0,0.035 -0.011,0.067 -0.033,0.098 m -2.29,0.361 c 0,0.141 -0.029,0.252 -0.085,0.333 -0.057,0.081 -0.126,0.144 -0.208,0.188 -0.083,0.045 -0.173,0.078 -0.272,0.1 -0.098,0.022 -0.188,0.043 -0.271,0.065 -0.082,0.022 -0.152,0.051 -0.208,0.087 -0.057,0.036 -0.085,0.091 -0.085,0.166 l 0,0.013 c 0.003,0.064 0.036,0.119 0.1,0.165 0.064,0.046 0.156,0.069 0.278,0.069 l 0.017,0 c 0.098,0 0.175,-0.014 0.23,-0.041 0.055,-0.028 0.106,-0.053 0.152,-0.076 0.035,-0.017 0.066,-0.026 0.095,-0.026 0.047,0 0.084,0.016 0.113,0.048 0.029,0.031 0.044,0.068 0.044,0.108 0,0.053 -0.021,0.095 -0.061,0.128 -0.017,0.014 -0.043,0.033 -0.076,0.055 -0.033,0.022 -0.074,0.042 -0.122,0.061 -0.047,0.019 -0.102,0.036 -0.164,0.051 -0.063,0.015 -0.131,0.022 -0.207,0.022 l -0.017,0 c -0.069,0 -0.145,-0.01 -0.228,-0.028 -0.082,-0.019 -0.159,-0.05 -0.23,-0.093 -0.071,-0.044 -0.131,-0.101 -0.18,-0.171 -0.049,-0.071 -0.074,-0.158 -0.074,-0.262 0,-0.136 0.028,-0.241 0.085,-0.314 0.056,-0.074 0.126,-0.131 0.208,-0.171 0.083,-0.041 0.173,-0.07 0.271,-0.089 0.099,-0.019 0.189,-0.041 0.272,-0.067 0.082,-0.026 0.152,-0.061 0.208,-0.106 0.056,-0.045 0.085,-0.113 0.085,-0.206 l 0,-0.013 c -0.003,-0.072 -0.04,-0.138 -0.111,-0.199 -0.071,-0.06 -0.173,-0.091 -0.306,-0.091 l -0.022,0 c -0.081,0 -0.163,0.028 -0.247,0.083 -0.084,0.055 -0.153,0.118 -0.208,0.19 -0.021,0.029 -0.044,0.049 -0.07,0.059 -0.026,0.01 -0.052,0.015 -0.078,0.015 -0.043,0 -0.082,-0.014 -0.117,-0.043 -0.035,-0.029 -0.052,-0.068 -0.052,-0.117 0,-0.012 0.007,-0.039 0.021,-0.083 0.035,-0.066 0.08,-0.127 0.135,-0.181 0.055,-0.054 0.116,-0.1 0.182,-0.136 0.067,-0.037 0.137,-0.065 0.211,-0.086 0.074,-0.02 0.145,-0.031 0.215,-0.031 l 0.026,0 c 0.089,0 0.179,0.013 0.269,0.039 0.089,0.026 0.17,0.064 0.243,0.115 0.072,0.051 0.13,0.113 0.173,0.188 0.044,0.075 0.066,0.163 0.066,0.265 l 0,0.017 z m -2.223,1.351 c 0,0.055 -0.018,0.096 -0.053,0.124 -0.034,0.027 -0.072,0.041 -0.112,0.041 -0.041,0 -0.078,-0.014 -0.113,-0.041 -0.035,-0.028 -0.052,-0.069 -0.052,-0.124 l 0,-1.277 c 0,-0.101 -0.037,-0.188 -0.109,-0.26 -0.072,-0.072 -0.16,-0.108 -0.265,-0.108 l -0.039,0 c -0.101,0 -0.188,0.036 -0.26,0.108 -0.072,0.072 -0.108,0.159 -0.108,0.26 l 0,1.277 c 0,0.055 -0.018,0.096 -0.053,0.124 -0.034,0.027 -0.072,0.041 -0.112,0.041 -0.041,0 -0.078,-0.014 -0.113,-0.041 -0.035,-0.028 -0.052,-0.069 -0.052,-0.124 l 0,-1.28 c 0,-0.122 0.018,-0.226 0.056,-0.313 0.038,-0.087 0.088,-0.158 0.152,-0.215 0.064,-0.056 0.138,-0.098 0.223,-0.125 0.086,-0.028 0.175,-0.042 0.267,-0.042 l 0.039,0 c 0.076,0 0.147,0.011 0.213,0.033 0.067,0.022 0.12,0.054 0.161,0.095 0.008,-0.044 0.029,-0.076 0.06,-0.097 0.032,-0.02 0.067,-0.031 0.105,-0.031 0.04,0 0.078,0.014 0.112,0.042 0.035,0.027 0.053,0.067 0.053,0.119 l 0,1.814 z m -2.127,-1.675 c -0.027,0.034 -0.069,0.052 -0.124,0.052 l -1.093,0 1.232,2.365 c 0.02,0.038 0.031,0.075 0.031,0.113 0,0.052 -0.019,0.097 -0.057,0.135 -0.037,0.037 -0.085,0.056 -0.143,0.056 l -1.241,0 c -0.058,0 -0.1,-0.017 -0.126,-0.052 -0.026,-0.035 -0.039,-0.072 -0.039,-0.113 0,-0.041 0.013,-0.078 0.039,-0.113 0.026,-0.034 0.068,-0.052 0.126,-0.052 l 1.028,0 -1.228,-2.357 c -0.017,-0.031 -0.026,-0.066 -0.026,-0.104 0,-0.055 0.017,-0.103 0.05,-0.145 0.033,-0.042 0.08,-0.063 0.141,-0.063 l 1.306,0 c 0.055,0 0.097,0.017 0.124,0.052 0.027,0.035 0.041,0.072 0.041,0.113 0,0.04 -0.014,0.078 -0.041,0.113"
         style="fill:#da1c23;fill-opacity:1;fill-rule:nonzero;stroke:none"
         id="path308" />
    </g>
    <g
       id="g310"
       transform="matrix(1.25,0,0,-1.25,372.7467,549.91372)">
      <path
         inkscape:connector-curvature="0"
         d="m 0,0 -0.781,0 0,0.219 c 0,0.105 0.037,0.193 0.111,0.264 0.074,0.071 0.161,0.107 0.262,0.107 l 0.043,0 c 0.096,0 0.18,-0.036 0.255,-0.107 C -0.037,0.412 0,0.322 0,0.214 L 0,0 z M 0.33,0.217 C 0.33,0.318 0.312,0.411 0.275,0.497 0.239,0.582 0.19,0.657 0.126,0.72 0.062,0.784 -0.012,0.833 -0.097,0.868 -0.183,0.903 -0.273,0.92 -0.369,0.92 l -0.043,0 C -0.508,0.92 -0.598,0.902 -0.683,0.866 -0.769,0.83 -0.843,0.78 -0.907,0.716 -0.971,0.652 -1.021,0.578 -1.057,0.493 -1.093,0.407 -1.111,0.317 -1.111,0.221 l 0,-0.746 c 0,-0.099 0.018,-0.19 0.054,-0.274 0.036,-0.084 0.086,-0.157 0.15,-0.219 0.064,-0.062 0.138,-0.111 0.224,-0.148 0.085,-0.036 0.175,-0.054 0.271,-0.054 l 0.043,0 c 0.148,0 0.277,0.038 0.389,0.115 0.111,0.076 0.193,0.175 0.245,0.298 0.011,0.02 0.017,0.044 0.017,0.073 0,0.05 -0.017,0.09 -0.052,0.122 -0.035,0.032 -0.074,0.048 -0.117,0.048 -0.029,0 -0.057,-0.008 -0.083,-0.024 -0.026,-0.016 -0.046,-0.043 -0.06,-0.081 -0.03,-0.06 -0.072,-0.112 -0.129,-0.156 -0.056,-0.043 -0.126,-0.065 -0.21,-0.065 l -0.043,0 c -0.101,0 -0.188,0.036 -0.261,0.108 -0.072,0.072 -0.108,0.158 -0.108,0.258 l 0,0.22 0.946,0 c 0.046,0 0.085,0.017 0.117,0.05 0.032,0.033 0.048,0.072 0.048,0.115 l 0,0.356 z m -2.079,-1.16 c -0.026,0.035 -0.068,0.053 -0.125,0.053 -0.067,0.003 -0.123,0.028 -0.17,0.074 -0.046,0.046 -0.069,0.102 -0.069,0.169 l 0,2.309 c 0,0.055 -0.017,0.096 -0.052,0.124 -0.035,0.027 -0.072,0.041 -0.113,0.041 -0.04,0 -0.078,-0.014 -0.113,-0.041 C -2.426,1.758 -2.443,1.717 -2.443,1.662 l 0,-2.313 c 0,-0.078 0.014,-0.152 0.043,-0.222 0.029,-0.069 0.07,-0.13 0.122,-0.182 0.052,-0.052 0.113,-0.092 0.182,-0.121 0.07,-0.029 0.143,-0.044 0.222,-0.044 0.057,0 0.099,0.017 0.125,0.051 0.026,0.034 0.039,0.071 0.039,0.112 0,0.041 -0.013,0.079 -0.039,0.114 m -1.933,0.422 c 0,-0.104 -0.037,-0.192 -0.111,-0.263 -0.073,-0.07 -0.161,-0.106 -0.262,-0.106 l -0.039,0 c -0.11,0 -0.199,0.028 -0.267,0.083 -0.068,0.055 -0.102,0.128 -0.102,0.221 l 0,0.035 c 0,0.075 0.025,0.133 0.076,0.173 0.05,0.041 0.115,0.073 0.193,0.096 0.078,0.023 0.163,0.041 0.254,0.054 0.091,0.013 0.177,0.03 0.258,0.05 l 0,-0.343 z m 0.549,-0.436 c -0.022,0.03 -0.057,0.05 -0.106,0.058 -0.076,0.015 -0.113,0.063 -0.113,0.144 l 0,1.007 c 0,0.092 -0.018,0.179 -0.052,0.26 -0.035,0.081 -0.083,0.152 -0.143,0.213 -0.061,0.061 -0.134,0.108 -0.217,0.143 -0.084,0.035 -0.174,0.052 -0.269,0.052 l -0.031,0 C -4.122,0.92 -4.181,0.914 -4.242,0.901 -4.303,0.888 -4.362,0.866 -4.42,0.835 -4.478,0.805 -4.532,0.764 -4.583,0.712 -4.633,0.66 -4.676,0.595 -4.711,0.516 -4.722,0.496 -4.728,0.47 -4.728,0.438 c 0,-0.046 0.017,-0.083 0.052,-0.11 0.035,-0.028 0.072,-0.042 0.113,-0.042 0.029,0 0.056,0.007 0.082,0.02 0.027,0.013 0.048,0.035 0.066,0.067 0.04,0.073 0.086,0.127 0.138,0.163 0.052,0.036 0.123,0.054 0.213,0.054 l 0.031,0 c 0.095,0 0.177,-0.026 0.247,-0.078 C -3.717,0.46 -3.682,0.369 -3.682,0.239 -3.682,0.227 -3.683,0.214 -3.684,0.2 -3.686,0.185 -3.689,0.174 -3.695,0.165 -3.712,0.142 -3.752,0.124 -3.814,0.111 -3.877,0.098 -3.948,0.084 -4.029,0.069 -4.11,0.055 -4.196,0.036 -4.285,0.013 -4.375,-0.01 -4.457,-0.044 -4.533,-0.089 -4.608,-0.134 -4.67,-0.193 -4.719,-0.267 -4.768,-0.341 -4.793,-0.434 -4.793,-0.547 l 0,-0.052 c 0,-0.101 0.02,-0.191 0.061,-0.269 0.04,-0.078 0.093,-0.143 0.158,-0.196 0.065,-0.052 0.14,-0.091 0.224,-0.117 0.084,-0.026 0.169,-0.039 0.256,-0.039 l 0.039,0 c 0.182,0 0.338,0.057 0.469,0.169 0.028,-0.04 0.066,-0.075 0.112,-0.104 0.047,-0.029 0.107,-0.049 0.183,-0.06 0.002,-0.003 0.013,-0.005 0.03,-0.005 0.052,0 0.092,0.017 0.119,0.05 0.028,0.033 0.042,0.072 0.042,0.115 0,0.035 -0.011,0.067 -0.033,0.098 m -2.338,1.178 c 0,0.119 -0.019,0.222 -0.056,0.311 -0.038,0.088 -0.089,0.161 -0.152,0.219 -0.064,0.058 -0.138,0.1 -0.222,0.128 -0.083,0.027 -0.172,0.041 -0.264,0.041 l -0.039,0 C -6.28,0.92 -6.35,0.908 -6.417,0.885 -6.484,0.862 -6.537,0.83 -6.578,0.79 -6.586,0.833 -6.607,0.866 -6.638,0.888 -6.67,0.909 -6.705,0.92 -6.742,0.92 -6.786,0.92 -6.825,0.906 -6.86,0.877 -6.894,0.848 -6.912,0.807 -6.912,0.755 l 0,-1.814 c 0,-0.055 0.018,-0.096 0.052,-0.122 0.035,-0.026 0.073,-0.039 0.113,-0.039 0.041,0 0.078,0.013 0.113,0.039 0.035,0.026 0.052,0.067 0.052,0.122 l 0,1.28 c 0,0.105 0.037,0.192 0.11,0.263 0.074,0.071 0.161,0.106 0.261,0.106 l 0.039,0 c 0.104,0 0.191,-0.036 0.263,-0.108 0.072,-0.073 0.108,-0.159 0.108,-0.261 l 0,-1.28 c 0,-0.055 0.018,-0.096 0.053,-0.122 0.035,-0.026 0.073,-0.039 0.114,-0.039 0.041,0 0.079,0.013 0.113,0.039 0.033,0.026 0.05,0.067 0.05,0.122 l 0,1.28 z m -2.524,-0.743 c 0,-0.101 -0.036,-0.188 -0.108,-0.26 -0.073,-0.072 -0.16,-0.108 -0.261,-0.108 l -0.039,0 c -0.104,0 -0.192,0.036 -0.265,0.108 -0.072,0.072 -0.108,0.159 -0.108,0.26 l 0,0.744 c 0,0.101 0.036,0.188 0.108,0.26 0.073,0.072 0.159,0.108 0.261,0.108 l 0.043,0 c 0.101,0 0.188,-0.036 0.261,-0.108 0.072,-0.072 0.108,-0.159 0.108,-0.26 l 0,-0.744 z m 0.33,0.743 c 0,0.096 -0.018,0.186 -0.054,0.272 -0.037,0.085 -0.087,0.159 -0.15,0.223 C -7.933,0.78 -8.007,0.83 -8.093,0.866 -8.178,0.902 -8.268,0.92 -8.364,0.92 l -0.043,0 C -8.503,0.92 -8.593,0.902 -8.678,0.866 -8.764,0.83 -8.838,0.78 -8.902,0.716 -8.966,0.652 -9.016,0.578 -9.052,0.493 -9.088,0.407 -9.106,0.317 -9.106,0.221 l 0,-0.746 c 0,-0.099 0.018,-0.19 0.054,-0.274 0.036,-0.084 0.086,-0.157 0.15,-0.219 0.064,-0.062 0.138,-0.111 0.224,-0.148 0.085,-0.036 0.175,-0.054 0.271,-0.054 l 0.043,0 c 0.096,0 0.186,0.018 0.271,0.054 0.086,0.037 0.16,0.086 0.224,0.148 0.063,0.062 0.113,0.135 0.15,0.219 0.036,0.084 0.054,0.175 0.054,0.274 l 0,0.746 z m -2.218,0.534 c 0,0.055 -0.017,0.096 -0.052,0.124 -0.035,0.027 -0.072,0.041 -0.113,0.041 -0.04,0 -0.078,-0.014 -0.113,-0.041 -0.034,-0.028 -0.052,-0.069 -0.052,-0.124 l 0,-1.814 c 0,-0.055 0.018,-0.096 0.052,-0.122 0.035,-0.026 0.073,-0.039 0.113,-0.039 0.041,0 0.078,0.013 0.113,0.039 0.035,0.026 0.052,0.067 0.052,0.122 l 0,1.814 z m 0,0.907 c 0,0.055 -0.017,0.096 -0.052,0.124 -0.035,0.027 -0.072,0.041 -0.113,0.041 -0.04,0 -0.078,-0.014 -0.113,-0.041 -0.034,-0.028 -0.052,-0.069 -0.052,-0.124 l 0,-0.095 c 0,-0.055 0.018,-0.097 0.052,-0.124 0.035,-0.027 0.073,-0.041 0.113,-0.041 0.041,0 0.078,0.014 0.113,0.041 0.035,0.027 0.052,0.069 0.052,0.124 l 0,0.095 z m -1.068,-2.609 c -0.025,0.032 -0.063,0.051 -0.115,0.057 -0.066,0.006 -0.125,0.03 -0.176,0.072 -0.05,0.041 -0.076,0.1 -0.076,0.175 l 0,1.22 0.235,0 c 0.055,0 0.096,0.018 0.123,0.052 0.028,0.035 0.042,0.073 0.042,0.113 0,0.041 -0.014,0.078 -0.042,0.113 -0.027,0.035 -0.068,0.052 -0.123,0.052 l -0.235,0 0,0.755 c 0,0.055 -0.017,0.096 -0.052,0.124 -0.034,0.027 -0.072,0.041 -0.113,0.041 -0.04,0 -0.078,-0.014 -0.112,-0.041 -0.035,-0.028 -0.052,-0.069 -0.052,-0.124 l 0,-0.755 -0.152,0 c -0.055,0 -0.097,-0.017 -0.124,-0.052 -0.028,-0.035 -0.041,-0.072 -0.041,-0.113 0,-0.04 0.013,-0.078 0.041,-0.113 0.027,-0.034 0.069,-0.052 0.124,-0.052 l 0.152,0 0,-1.228 c 0,-0.078 0.014,-0.152 0.043,-0.222 0.029,-0.069 0.069,-0.13 0.121,-0.182 0.053,-0.052 0.113,-0.092 0.183,-0.121 0.069,-0.029 0.143,-0.044 0.221,-0.044 0.058,0 0.1,0.017 0.126,0.051 0.026,0.034 0.039,0.071 0.039,0.112 0,0.041 -0.012,0.078 -0.037,0.11 m -2.019,0.426 c 0,-0.104 -0.037,-0.192 -0.111,-0.263 -0.074,-0.07 -0.161,-0.106 -0.263,-0.106 l -0.038,0 c -0.11,0 -0.199,0.028 -0.267,0.083 -0.068,0.055 -0.102,0.128 -0.102,0.221 l 0,0.035 c 0,0.075 0.025,0.133 0.076,0.173 0.05,0.041 0.115,0.073 0.193,0.096 0.078,0.023 0.162,0.041 0.254,0.054 0.091,0.013 0.177,0.03 0.258,0.05 l 0,-0.343 z m 0.549,-0.436 c -0.022,0.03 -0.057,0.05 -0.107,0.058 -0.075,0.015 -0.112,0.063 -0.112,0.144 l 0,1.007 c 0,0.092 -0.018,0.179 -0.053,0.26 -0.034,0.081 -0.082,0.152 -0.143,0.213 -0.06,0.061 -0.133,0.108 -0.217,0.143 -0.084,0.035 -0.173,0.052 -0.269,0.052 l -0.03,0 c -0.058,0 -0.117,-0.006 -0.178,-0.019 -0.061,-0.013 -0.12,-0.035 -0.178,-0.066 -0.058,-0.03 -0.112,-0.071 -0.163,-0.123 -0.05,-0.052 -0.093,-0.117 -0.128,-0.196 -0.011,-0.02 -0.017,-0.046 -0.017,-0.078 0,-0.046 0.017,-0.083 0.052,-0.11 0.035,-0.028 0.072,-0.042 0.113,-0.042 0.029,0 0.056,0.007 0.082,0.02 0.026,0.013 0.048,0.035 0.065,0.067 0.041,0.073 0.087,0.127 0.139,0.163 0.052,0.036 0.123,0.054 0.213,0.054 l 0.03,0 c 0.096,0 0.178,-0.026 0.248,-0.078 0.069,-0.052 0.104,-0.143 0.104,-0.273 0,-0.012 -10e-4,-0.025 -0.002,-0.039 -0.002,-0.015 -0.005,-0.026 -0.011,-0.035 -0.018,-0.023 -0.057,-0.041 -0.12,-0.054 -0.062,-0.013 -0.133,-0.027 -0.214,-0.042 -0.081,-0.014 -0.167,-0.033 -0.256,-0.056 -0.09,-0.023 -0.173,-0.057 -0.248,-0.102 -0.075,-0.045 -0.137,-0.104 -0.186,-0.178 -0.05,-0.074 -0.074,-0.167 -0.074,-0.28 l 0,-0.052 c 0,-0.101 0.02,-0.191 0.06,-0.269 0.041,-0.078 0.094,-0.143 0.159,-0.196 0.065,-0.052 0.139,-0.091 0.223,-0.117 0.084,-0.026 0.17,-0.039 0.257,-0.039 l 0.038,0 c 0.183,0 0.339,0.057 0.469,0.169 0.029,-0.04 0.067,-0.075 0.113,-0.104 0.046,-0.029 0.107,-0.049 0.182,-0.06 0.003,-0.003 0.013,-0.005 0.031,-0.005 0.052,0 0.092,0.017 0.119,0.05 0.028,0.033 0.041,0.072 0.041,0.115 0,0.035 -0.01,0.067 -0.032,0.098 m -2.338,1.178 c 0,0.119 -0.019,0.222 -0.057,0.311 -0.037,0.088 -0.088,0.161 -0.151,0.219 -0.064,0.058 -0.138,0.1 -0.222,0.128 -0.084,0.027 -0.172,0.041 -0.264,0.041 l -0.039,0 c -0.076,0 -0.147,-0.012 -0.213,-0.035 -0.067,-0.023 -0.12,-0.055 -0.161,-0.095 -0.009,0.043 -0.029,0.076 -0.061,0.098 -0.031,0.021 -0.066,0.032 -0.104,0.032 -0.043,0 -0.082,-0.014 -0.117,-0.043 C -16.182,0.848 -16.2,0.807 -16.2,0.755 l 0,-1.814 c 0,-0.055 0.018,-0.096 0.052,-0.122 0.035,-0.026 0.072,-0.039 0.113,-0.039 0.04,0 0.078,0.013 0.113,0.039 0.035,0.026 0.052,0.067 0.052,0.122 l 0,1.28 c 0,0.105 0.037,0.192 0.11,0.263 0.073,0.071 0.16,0.106 0.261,0.106 l 0.039,0 c 0.103,0 0.191,-0.036 0.263,-0.108 0.072,-0.073 0.108,-0.159 0.108,-0.261 l 0,-1.28 c 0,-0.055 0.018,-0.096 0.053,-0.122 0.035,-0.026 0.073,-0.039 0.114,-0.039 0.041,0 0.078,0.013 0.112,0.039 0.034,0.026 0.051,0.067 0.051,0.122 l 0,1.28 z m -2.044,0.486 c -0.052,0.076 -0.12,0.13 -0.202,0.163 -0.082,0.033 -0.166,0.05 -0.249,0.05 -0.059,0 -0.106,-0.004 -0.144,-0.013 -0.037,-0.009 -0.069,-0.019 -0.095,-0.03 -0.032,-0.012 -0.057,-0.026 -0.074,-0.044 -0.015,0.032 -0.035,0.055 -0.061,0.068 -0.026,0.013 -0.053,0.019 -0.082,0.019 -0.041,0 -0.079,-0.014 -0.115,-0.043 -0.036,-0.029 -0.054,-0.07 -0.054,-0.122 l 0,-1.806 c 0,-0.057 0.017,-0.1 0.052,-0.128 0.034,-0.027 0.072,-0.041 0.113,-0.041 0.04,0 0.078,0.014 0.112,0.041 0.035,0.028 0.052,0.071 0.052,0.128 l 0,1.35 c 0,0.035 0.003,0.07 0.009,0.105 0.006,0.034 0.019,0.065 0.039,0.093 0.02,0.027 0.049,0.05 0.087,0.067 0.037,0.018 0.09,0.026 0.156,0.026 0.055,0 0.098,-0.011 0.128,-0.032 0.031,-0.022 0.054,-0.042 0.072,-0.059 0.04,-0.04 0.085,-0.061 0.134,-0.061 0.044,0 0.081,0.015 0.113,0.044 0.032,0.029 0.048,0.066 0.048,0.113 0,0.034 -0.013,0.072 -0.039,0.112 M -18.912,0 l -0.782,0 0,0.219 c 0,0.105 0.037,0.193 0.111,0.264 0.074,0.071 0.161,0.107 0.263,0.107 l 0.043,0 c 0.096,0 0.18,-0.036 0.254,-0.107 0.074,-0.071 0.111,-0.161 0.111,-0.269 l 0,-0.214 z m 0.33,0.217 c 0,0.101 -0.019,0.194 -0.055,0.28 -0.036,0.085 -0.086,0.16 -0.149,0.223 -0.064,0.064 -0.139,0.113 -0.224,0.148 -0.085,0.035 -0.176,0.052 -0.271,0.052 l -0.044,0 c -0.095,0 -0.186,-0.018 -0.271,-0.054 -0.085,-0.036 -0.16,-0.086 -0.223,-0.15 -0.064,-0.064 -0.114,-0.138 -0.15,-0.223 -0.036,-0.086 -0.054,-0.176 -0.054,-0.272 l 0,-0.746 c 0,-0.099 0.018,-0.19 0.054,-0.274 0.036,-0.084 0.086,-0.157 0.15,-0.219 0.063,-0.062 0.138,-0.111 0.223,-0.148 0.085,-0.036 0.176,-0.054 0.271,-0.054 l 0.044,0 c 0.147,0 0.277,0.038 0.388,0.115 0.112,0.076 0.193,0.175 0.245,0.298 0.012,0.02 0.018,0.044 0.018,0.073 0,0.05 -0.018,0.09 -0.052,0.122 -0.035,0.032 -0.074,0.048 -0.117,0.048 -0.029,0 -0.057,-0.008 -0.083,-0.024 -0.026,-0.016 -0.046,-0.043 -0.061,-0.081 -0.029,-0.06 -0.071,-0.112 -0.128,-0.156 -0.056,-0.043 -0.126,-0.065 -0.21,-0.065 l -0.044,0 c -0.101,0 -0.188,0.036 -0.26,0.108 -0.072,0.072 -0.109,0.158 -0.109,0.258 l 0,0.22 0.947,0 c 0.046,0 0.085,0.017 0.117,0.05 0.032,0.033 0.048,0.072 0.048,0.115 l 0,0.356 z m -2.078,-1.164 c -0.025,0.032 -0.063,0.051 -0.115,0.057 -0.067,0.006 -0.126,0.03 -0.176,0.072 -0.051,0.041 -0.076,0.1 -0.076,0.175 l 0,1.22 0.234,0 c 0.055,0 0.096,0.018 0.124,0.052 0.027,0.035 0.041,0.073 0.041,0.113 0,0.041 -0.014,0.078 -0.041,0.113 -0.028,0.035 -0.069,0.052 -0.124,0.052 l -0.234,0 0,0.755 c 0,0.055 -0.018,0.096 -0.052,0.124 -0.035,0.027 -0.073,0.041 -0.113,0.041 -0.041,0 -0.078,-0.014 -0.113,-0.041 -0.035,-0.028 -0.052,-0.069 -0.052,-0.124 l 0,-0.755 -0.152,0 c -0.055,0 -0.096,-0.017 -0.124,-0.052 -0.027,-0.035 -0.041,-0.072 -0.041,-0.113 0,-0.04 0.014,-0.078 0.041,-0.113 0.028,-0.034 0.069,-0.052 0.124,-0.052 l 0.152,0 0,-1.228 c 0,-0.078 0.014,-0.152 0.043,-0.222 0.029,-0.069 0.07,-0.13 0.122,-0.182 0.052,-0.052 0.113,-0.092 0.182,-0.121 0.07,-0.029 0.143,-0.044 0.222,-0.044 0.057,0 0.099,0.017 0.125,0.051 0.026,0.034 0.039,0.071 0.039,0.112 0,0.041 -0.012,0.078 -0.036,0.11 m -1.626,1.168 c 0,0.119 -0.019,0.222 -0.057,0.311 -0.037,0.088 -0.088,0.161 -0.152,0.219 -0.063,0.058 -0.137,0.1 -0.221,0.128 -0.084,0.027 -0.172,0.041 -0.265,0.041 l -0.039,0 c -0.075,0 -0.146,-0.012 -0.212,-0.035 -0.067,-0.023 -0.12,-0.055 -0.161,-0.095 -0.008,0.043 -0.029,0.076 -0.061,0.098 -0.031,0.021 -0.066,0.032 -0.104,0.032 -0.043,0 -0.082,-0.014 -0.117,-0.043 -0.035,-0.029 -0.052,-0.07 -0.052,-0.122 l 0,-1.814 c 0,-0.055 0.017,-0.096 0.052,-0.122 0.035,-0.026 0.072,-0.039 0.113,-0.039 0.04,0 0.078,0.013 0.113,0.039 0.034,0.026 0.052,0.067 0.052,0.122 l 0,1.28 c 0,0.105 0.037,0.192 0.11,0.263 0.073,0.071 0.16,0.106 0.261,0.106 l 0.039,0 c 0.103,0 0.191,-0.036 0.263,-0.108 0.072,-0.073 0.108,-0.159 0.108,-0.261 l 0,-1.28 c 0,-0.055 0.018,-0.096 0.053,-0.122 0.035,-0.026 0.073,-0.039 0.114,-0.039 0.041,0 0.078,0.013 0.112,0.039 0.034,0.026 0.051,0.067 0.051,0.122 l 0,1.28 z m -2.318,1.441 c 0,0.055 -0.017,0.096 -0.052,0.124 -0.035,0.027 -0.073,0.041 -0.113,0.041 -0.041,0 -0.078,-0.014 -0.113,-0.041 -0.035,-0.028 -0.052,-0.069 -0.052,-0.124 l 0,-2.721 c 0,-0.055 0.017,-0.096 0.052,-0.122 0.035,-0.026 0.072,-0.039 0.113,-0.039 0.04,0 0.078,0.013 0.113,0.039 0.035,0.026 0.052,0.067 0.052,0.122 l 0,2.721 z m -2.474,-0.955 c -0.052,0.076 -0.119,0.13 -0.202,0.163 -0.082,0.033 -0.165,0.05 -0.249,0.05 -0.058,0 -0.106,-0.004 -0.143,-0.013 -0.038,-0.009 -0.07,-0.019 -0.096,-0.03 -0.032,-0.012 -0.056,-0.026 -0.074,-0.044 -0.014,0.032 -0.034,0.055 -0.06,0.068 -0.026,0.013 -0.054,0.019 -0.083,0.019 -0.04,0 -0.079,-0.014 -0.115,-0.043 -0.036,-0.029 -0.054,-0.07 -0.054,-0.122 l 0,-1.806 c 0,-0.057 0.017,-0.1 0.052,-0.128 0.035,-0.027 0.072,-0.041 0.113,-0.041 0.04,0 0.078,0.014 0.113,0.041 0.034,0.028 0.052,0.071 0.052,0.128 l 0,1.35 c 0,0.035 0.003,0.07 0.008,0.105 0.006,0.034 0.019,0.065 0.04,0.093 0.02,0.027 0.049,0.05 0.086,0.067 0.038,0.018 0.09,0.026 0.157,0.026 0.054,0 0.097,-0.011 0.128,-0.032 0.03,-0.022 0.054,-0.042 0.071,-0.059 0.041,-0.04 0.085,-0.061 0.135,-0.061 0.043,0 0.081,0.015 0.113,0.044 0.031,0.029 0.047,0.066 0.047,0.113 0,0.034 -0.013,0.072 -0.039,0.112 m -1.85,0.048 c 0,0.055 -0.018,0.096 -0.052,0.124 -0.035,0.027 -0.073,0.041 -0.113,0.041 -0.041,0 -0.078,-0.014 -0.113,-0.041 -0.035,-0.027 -0.052,-0.069 -0.052,-0.123 l 0,-1.278 c 0,-0.101 -0.036,-0.187 -0.109,-0.26 -0.072,-0.072 -0.16,-0.108 -0.264,-0.108 l -0.039,0 c -0.102,0 -0.189,0.036 -0.261,0.108 -0.072,0.073 -0.108,0.159 -0.108,0.26 l 0,1.278 c 0,0.054 -0.018,0.096 -0.052,0.123 -0.035,0.027 -0.073,0.041 -0.113,0.041 -0.041,0 -0.078,-0.014 -0.113,-0.041 -0.035,-0.028 -0.052,-0.069 -0.052,-0.124 l 0,-1.28 c 0,-0.122 0.019,-0.226 0.056,-0.313 0.038,-0.087 0.088,-0.158 0.152,-0.215 0.064,-0.056 0.138,-0.098 0.224,-0.126 0.085,-0.027 0.174,-0.041 0.267,-0.041 l 0.039,0 c 0.075,0 0.146,0.011 0.212,0.033 0.067,0.022 0.12,0.054 0.161,0.095 0.009,-0.044 0.029,-0.077 0.061,-0.097 0.031,-0.02 0.066,-0.031 0.104,-0.031 0.04,0 0.078,0.014 0.113,0.041 0.034,0.028 0.052,0.068 0.052,0.12 l 0,1.814 z m -0.959,0.907 c 0,0.055 -0.018,0.096 -0.053,0.124 -0.034,0.027 -0.072,0.041 -0.112,0.041 -0.041,0 -0.078,-0.014 -0.113,-0.041 -0.035,-0.028 -0.052,-0.069 -0.052,-0.124 l 0,-0.095 c 0,-0.055 0.017,-0.097 0.052,-0.124 0.035,-0.027 0.072,-0.041 0.113,-0.041 0.04,0 0.078,0.014 0.112,0.041 0.035,0.027 0.053,0.069 0.053,0.124 l 0,0.095 z m 0.798,0 c 0,0.055 -0.018,0.096 -0.054,0.124 -0.036,0.027 -0.075,0.041 -0.115,0.041 -0.041,0 -0.078,-0.014 -0.111,-0.041 -0.033,-0.028 -0.05,-0.069 -0.05,-0.124 l 0,-0.095 c 0,-0.055 0.018,-0.097 0.052,-0.124 0.035,-0.027 0.073,-0.041 0.113,-0.041 0.041,0 0.078,0.014 0.113,0.041 0.035,0.027 0.052,0.069 0.052,0.124 l 0,0.095 z m -1.931,0.113 c -0.028,0.035 -0.069,0.052 -0.124,0.052 -0.081,0 -0.155,-0.014 -0.223,-0.043 -0.068,-0.029 -0.128,-0.069 -0.178,-0.12 -0.051,-0.05 -0.09,-0.111 -0.117,-0.182 -0.028,-0.071 -0.042,-0.147 -0.042,-0.228 l 0,-0.347 -0.095,0 c -0.055,0 -0.096,-0.017 -0.124,-0.052 -0.027,-0.035 -0.041,-0.072 -0.041,-0.113 0,-0.04 0.014,-0.078 0.041,-0.113 0.028,-0.034 0.069,-0.052 0.124,-0.052 l 0.095,0 0,-1.636 c 0,-0.055 0.018,-0.096 0.052,-0.122 0.035,-0.026 0.073,-0.039 0.113,-0.039 0.041,0 0.078,0.013 0.113,0.039 0.035,0.026 0.052,0.067 0.052,0.122 l 0,1.636 0.204,0 c 0.055,0 0.096,0.018 0.124,0.052 0.027,0.035 0.041,0.073 0.041,0.113 0,0.041 -0.013,0.078 -0.039,0.113 -0.026,0.035 -0.068,0.052 -0.126,0.052 l -0.204,0 0,0.347 c 0,0.067 0.021,0.124 0.063,0.172 0.042,0.047 0.098,0.071 0.167,0.071 0.055,0 0.096,0.018 0.124,0.052 0.027,0.035 0.041,0.073 0.041,0.113 0,0.041 -0.014,0.078 -0.041,0.113"
         style="fill:#da1c23;fill-opacity:1;fill-rule:nonzero;stroke:none"
         id="path312" />
    </g>
    <g
       id="g314"
       transform="matrix(1.25,0,0,-1.25,384.26558,545.1686)">
      <path
         inkscape:connector-curvature="0"
         d="m 0,0 c -0.024,0.032 -0.063,0.051 -0.115,0.057 -0.067,0.006 -0.125,0.03 -0.176,0.072 -0.05,0.041 -0.075,0.1 -0.075,0.175 l 0,1.22 0.234,0 c 0.054,0 0.096,0.017 0.123,0.052 0.028,0.035 0.042,0.072 0.042,0.113 0,0.04 -0.014,0.078 -0.042,0.113 -0.027,0.035 -0.069,0.052 -0.123,0.052 l -0.234,0 0,0.755 c 0,0.055 -0.018,0.096 -0.053,0.124 C -0.453,2.76 -0.491,2.774 -0.531,2.774 -0.572,2.774 -0.609,2.76 -0.644,2.733 -0.679,2.705 -0.696,2.664 -0.696,2.609 l 0,-0.755 -0.152,0 c -0.055,0 -0.096,-0.017 -0.124,-0.052 -0.027,-0.035 -0.041,-0.073 -0.041,-0.113 0,-0.041 0.014,-0.078 0.041,-0.113 0.028,-0.035 0.069,-0.052 0.124,-0.052 l 0.152,0 0,-1.228 c 0,-0.078 0.014,-0.152 0.043,-0.222 0.029,-0.069 0.07,-0.13 0.122,-0.182 0.052,-0.052 0.112,-0.092 0.182,-0.121 0.069,-0.029 0.143,-0.044 0.221,-0.044 0.058,0 0.1,0.017 0.126,0.051 0.026,0.034 0.039,0.071 0.039,0.112 C 0.037,-0.069 0.025,-0.032 0,0 M -1.424,2.722 C -1.451,2.757 -1.492,2.774 -1.547,2.774 -1.628,2.774 -1.703,2.759 -1.771,2.731 -1.838,2.702 -1.898,2.662 -1.949,2.611 -1.999,2.561 -2.038,2.5 -2.066,2.429 -2.093,2.358 -2.107,2.282 -2.107,2.201 l 0,-0.347 -0.095,0 c -0.055,0 -0.096,-0.017 -0.124,-0.052 -0.028,-0.035 -0.041,-0.073 -0.041,-0.113 0,-0.041 0.013,-0.078 0.041,-0.113 0.028,-0.035 0.069,-0.052 0.124,-0.052 l 0.095,0 0,-1.636 c 0,-0.055 0.018,-0.096 0.052,-0.122 0.035,-0.026 0.072,-0.039 0.113,-0.039 0.04,0 0.078,0.013 0.113,0.039 0.035,0.026 0.052,0.067 0.052,0.122 l 0,1.636 0.204,0 c 0.055,0 0.096,0.017 0.123,0.052 0.028,0.035 0.042,0.072 0.042,0.113 0,0.04 -0.013,0.078 -0.039,0.113 -0.026,0.035 -0.068,0.052 -0.126,0.052 l -0.204,0 0,0.347 c 0,0.067 0.021,0.124 0.063,0.172 0.042,0.047 0.098,0.071 0.167,0.071 0.055,0 0.096,0.017 0.123,0.052 0.028,0.035 0.042,0.072 0.042,0.113 0,0.041 -0.014,0.078 -0.042,0.113 M -3.427,0.426 C -3.427,0.322 -3.464,0.234 -3.538,0.163 -3.612,0.092 -3.699,0.057 -3.801,0.057 l -0.039,0 c -0.109,0 -0.198,0.028 -0.266,0.083 -0.068,0.054 -0.103,0.128 -0.103,0.221 l 0,0.035 c 0,0.075 0.026,0.133 0.077,0.173 0.05,0.041 0.114,0.073 0.193,0.096 0.078,0.023 0.163,0.041 0.254,0.054 0.091,0.013 0.177,0.03 0.258,0.05 l 0,-0.343 z M -2.878,-0.01 C -2.9,0.02 -2.935,0.04 -2.985,0.048 -3.06,0.063 -3.097,0.111 -3.097,0.192 l 0,1.007 c 0,0.092 -0.018,0.179 -0.053,0.26 C -3.184,1.54 -3.232,1.611 -3.293,1.672 -3.354,1.732 -3.425,1.78 -3.51,1.815 -3.594,1.85 -3.683,1.867 -3.778,1.867 l -0.031,0 C -3.867,1.867 -3.926,1.86 -3.987,1.847 -4.047,1.834 -4.107,1.813 -4.165,1.782 -4.223,1.752 -4.277,1.711 -4.328,1.659 -4.378,1.606 -4.421,1.541 -4.455,1.463 -4.467,1.443 -4.473,1.417 -4.473,1.385 c 0,-0.046 0.018,-0.083 0.052,-0.111 0.035,-0.027 0.072,-0.041 0.113,-0.041 0.029,0 0.056,0.007 0.082,0.02 0.026,0.013 0.048,0.035 0.065,0.067 0.041,0.072 0.087,0.127 0.14,0.163 0.051,0.036 0.122,0.054 0.212,0.054 l 0.031,0 c 0.095,0 0.177,-0.026 0.247,-0.078 0.069,-0.052 0.104,-0.143 0.104,-0.273 0,-0.012 -10e-4,-0.025 -0.002,-0.04 C -3.431,1.132 -3.434,1.12 -3.44,1.112 -3.458,1.089 -3.497,1.071 -3.559,1.057 -3.622,1.044 -3.693,1.031 -3.775,1.016 -3.855,1.002 -3.941,0.983 -4.031,0.96 -4.12,0.937 -4.202,0.903 -4.278,0.858 -4.353,0.813 -4.415,0.754 -4.465,0.68 -4.514,0.606 -4.538,0.513 -4.538,0.4 l 0,-0.052 c 0,-0.101 0.02,-0.191 0.06,-0.269 0.041,-0.078 0.094,-0.143 0.159,-0.195 0.065,-0.053 0.14,-0.092 0.223,-0.118 0.085,-0.026 0.17,-0.039 0.256,-0.039 l 0.039,0 c 0.183,0 0.339,0.057 0.469,0.17 0.029,-0.041 0.067,-0.076 0.113,-0.105 0.046,-0.029 0.107,-0.049 0.182,-0.06 0.003,-0.003 0.013,-0.005 0.031,-0.005 0.052,0 0.091,0.017 0.119,0.05 0.028,0.033 0.041,0.072 0.041,0.115 0,0.035 -0.01,0.067 -0.032,0.098 m -2.328,1.178 c 0,0.096 -0.018,0.186 -0.054,0.271 -0.037,0.086 -0.086,0.16 -0.15,0.224 -0.063,0.064 -0.138,0.113 -0.223,0.15 -0.086,0.036 -0.176,0.054 -0.272,0.054 l -0.035,0 c -0.075,0 -0.147,-0.012 -0.217,-0.035 -0.069,-0.023 -0.122,-0.055 -0.16,-0.095 l 0,0.872 c 0,0.055 -0.018,0.096 -0.052,0.124 C -6.404,2.76 -6.442,2.774 -6.482,2.774 -6.522,2.774 -6.56,2.76 -6.595,2.733 -6.63,2.705 -6.647,2.664 -6.647,2.609 l 0,-2.721 c 0,-0.055 0.017,-0.096 0.052,-0.122 0.035,-0.026 0.073,-0.039 0.113,-0.039 0.04,0 0.078,0.013 0.113,0.039 0.034,0.026 0.052,0.067 0.052,0.122 l 0,1.302 c 0,0.055 0.012,0.104 0.035,0.147 0.023,0.044 0.052,0.081 0.089,0.111 0.036,0.03 0.078,0.053 0.126,0.067 0.047,0.015 0.096,0.022 0.145,0.022 0.046,0 0.092,-0.007 0.139,-0.022 0.046,-0.014 0.088,-0.037 0.126,-0.067 0.037,-0.03 0.067,-0.069 0.089,-0.115 0.021,-0.046 0.032,-0.101 0.032,-0.165 l 0,-1.28 c 0,-0.055 0.017,-0.096 0.052,-0.122 0.035,-0.026 0.073,-0.039 0.113,-0.039 0.04,0 0.078,0.013 0.113,0.039 0.034,0.026 0.052,0.067 0.052,0.122 l 0,1.28 z M -7.393,0.554 C -7.428,0.582 -7.466,0.595 -7.506,0.595 -7.547,0.595 -7.584,0.582 -7.617,0.554 -7.65,0.527 -7.668,0.484 -7.671,0.426 -7.677,0.325 -7.715,0.238 -7.784,0.166 -7.854,0.093 -7.938,0.057 -8.04,0.057 l -0.039,0 c -0.104,0 -0.192,0.036 -0.265,0.108 -0.072,0.072 -0.108,0.159 -0.108,0.26 l 0,0.744 c 0,0.101 0.036,0.188 0.108,0.26 0.073,0.072 0.159,0.108 0.26,0.108 l 0.044,0 c 0.102,0 0.186,-0.035 0.256,-0.104 0.069,-0.07 0.107,-0.159 0.113,-0.269 0.003,-0.055 0.021,-0.096 0.054,-0.122 0.033,-0.026 0.07,-0.039 0.111,-0.039 0.04,0 0.078,0.014 0.113,0.041 0.034,0.028 0.052,0.069 0.052,0.124 0,0.096 -0.019,0.186 -0.057,0.271 -0.038,0.086 -0.087,0.16 -0.149,0.224 -0.063,0.064 -0.137,0.113 -0.222,0.15 -0.085,0.036 -0.176,0.054 -0.271,0.054 l -0.044,0 C -8.179,1.867 -8.27,1.849 -8.354,1.813 -8.44,1.776 -8.514,1.727 -8.576,1.665 -8.638,1.603 -8.688,1.529 -8.726,1.444 -8.764,1.358 -8.782,1.266 -8.782,1.168 l 0,-0.746 c 0,-0.099 0.018,-0.19 0.054,-0.274 0.036,-0.084 0.086,-0.157 0.15,-0.219 0.064,-0.062 0.138,-0.111 0.224,-0.147 0.084,-0.037 0.175,-0.055 0.27,-0.055 l 0.044,0 c 0.095,0 0.186,0.019 0.271,0.055 0.085,0.037 0.16,0.087 0.224,0.15 0.063,0.063 0.113,0.136 0.15,0.22 0.036,0.084 0.054,0.176 0.054,0.274 0,0.058 -0.018,0.101 -0.052,0.128 M -9.448,0.351 c 0,0.141 -0.028,0.252 -0.084,0.333 -0.057,0.081 -0.126,0.144 -0.209,0.188 -0.082,0.045 -0.173,0.078 -0.271,0.1 -0.098,0.022 -0.189,0.043 -0.271,0.065 -0.083,0.022 -0.152,0.051 -0.209,0.087 -0.056,0.036 -0.084,0.091 -0.084,0.166 l 0,0.013 c 0.003,0.064 0.036,0.119 0.1,0.165 0.063,0.046 0.156,0.069 0.277,0.069 l 0.018,0 c 0.098,0 0.175,-0.014 0.229,-0.041 0.056,-0.028 0.106,-0.053 0.153,-0.076 0.034,-0.017 0.066,-0.026 0.095,-0.026 0.046,0 0.084,0.016 0.113,0.048 0.029,0.031 0.043,0.068 0.043,0.108 0,0.053 -0.02,0.095 -0.06,0.128 -0.018,0.014 -0.043,0.033 -0.076,0.055 -0.034,0.022 -0.074,0.042 -0.122,0.061 -0.048,0.019 -0.103,0.036 -0.165,0.051 -0.062,0.015 -0.131,0.022 -0.206,0.022 l -0.017,0 c -0.07,0 -0.146,-0.009 -0.228,-0.028 -0.083,-0.019 -0.159,-0.05 -0.23,-0.093 -0.071,-0.044 -0.131,-0.101 -0.18,-0.171 -0.05,-0.071 -0.074,-0.158 -0.074,-0.262 0,-0.136 0.028,-0.241 0.084,-0.314 0.057,-0.074 0.126,-0.131 0.209,-0.171 0.082,-0.041 0.173,-0.07 0.271,-0.089 0.098,-0.019 0.189,-0.041 0.271,-0.067 0.083,-0.026 0.152,-0.061 0.209,-0.106 0.056,-0.045 0.085,-0.113 0.085,-0.206 l 0,-0.013 C -9.78,0.275 -9.818,0.209 -9.888,0.148 -9.959,0.087 -10.061,0.057 -10.194,0.057 l -0.022,0 c -0.081,0 -0.164,0.028 -0.247,0.083 -0.084,0.054 -0.154,0.118 -0.209,0.191 -0.02,0.028 -0.043,0.048 -0.069,0.058 -0.026,0.01 -0.052,0.015 -0.078,0.015 -0.044,0 -0.083,-0.014 -0.118,-0.043 -0.034,-0.029 -0.052,-0.068 -0.052,-0.117 0,-0.012 0.008,-0.039 0.022,-0.083 0.035,-0.066 0.08,-0.127 0.135,-0.181 0.055,-0.054 0.115,-0.1 0.182,-0.136 0.066,-0.037 0.137,-0.065 0.21,-0.086 0.074,-0.02 0.146,-0.031 0.215,-0.031 l 0.026,0 c 0.09,0 0.18,0.013 0.269,0.039 0.09,0.026 0.171,0.064 0.243,0.115 0.073,0.05 0.131,0.113 0.174,0.188 0.043,0.075 0.065,0.163 0.065,0.264 l 0,0.018 z m -2.143,-0.347 c -0.026,0.036 -0.068,0.053 -0.126,0.053 -0.067,0.003 -0.123,0.028 -0.17,0.074 -0.046,0.046 -0.069,0.102 -0.069,0.169 l 0,2.309 c 0,0.055 -0.017,0.096 -0.052,0.124 -0.035,0.027 -0.072,0.041 -0.113,0.041 -0.04,0 -0.078,-0.014 -0.113,-0.041 -0.034,-0.028 -0.052,-0.069 -0.052,-0.124 l 0,-2.313 c 0,-0.078 0.015,-0.152 0.044,-0.222 0.028,-0.069 0.069,-0.13 0.121,-0.182 0.052,-0.052 0.113,-0.092 0.182,-0.121 0.07,-0.029 0.144,-0.044 0.222,-0.044 0.058,0 0.1,0.017 0.126,0.051 0.026,0.034 0.039,0.071 0.039,0.112 0,0.041 -0.013,0.079 -0.039,0.114 m -1.363,0 c -0.026,0.036 -0.068,0.053 -0.126,0.053 -0.067,0.003 -0.123,0.028 -0.169,0.074 -0.047,0.046 -0.07,0.102 -0.07,0.169 l 0,2.309 c 0,0.055 -0.017,0.096 -0.052,0.124 -0.034,0.027 -0.072,0.041 -0.113,0.041 -0.04,0 -0.078,-0.014 -0.112,-0.041 -0.035,-0.028 -0.052,-0.069 -0.052,-0.124 l 0,-2.313 c 0,-0.078 0.014,-0.152 0.043,-0.222 0.029,-0.069 0.069,-0.13 0.121,-0.182 0.053,-0.052 0.113,-0.092 0.183,-0.121 0.069,-0.029 0.143,-0.044 0.221,-0.044 0.058,0 0.1,0.017 0.126,0.051 0.026,0.034 0.039,0.071 0.039,0.112 0,0.041 -0.013,0.079 -0.039,0.114 m -1.763,0.943 -0.781,0 0,0.218 c 0,0.105 0.037,0.194 0.111,0.265 0.073,0.071 0.161,0.107 0.262,0.107 l 0.044,0 c 0.095,0 0.18,-0.036 0.253,-0.107 0.074,-0.071 0.111,-0.161 0.111,-0.269 l 0,-0.214 z m 0.33,0.217 c 0,0.101 -0.018,0.194 -0.054,0.28 -0.037,0.085 -0.086,0.16 -0.15,0.223 -0.064,0.064 -0.138,0.113 -0.224,0.148 -0.085,0.035 -0.175,0.052 -0.271,0.052 l -0.043,0 c -0.096,0 -0.186,-0.018 -0.271,-0.054 -0.086,-0.037 -0.16,-0.086 -0.224,-0.15 -0.064,-0.064 -0.114,-0.138 -0.15,-0.224 -0.036,-0.085 -0.054,-0.175 -0.054,-0.271 l 0,-0.746 c 0,-0.099 0.018,-0.19 0.054,-0.274 0.036,-0.084 0.086,-0.157 0.15,-0.219 0.064,-0.062 0.138,-0.111 0.224,-0.147 0.085,-0.037 0.175,-0.055 0.271,-0.055 l 0.043,0 c 0.148,0 0.277,0.038 0.389,0.115 0.111,0.076 0.193,0.175 0.245,0.298 0.011,0.02 0.017,0.044 0.017,0.073 0,0.05 -0.017,0.09 -0.052,0.122 -0.035,0.032 -0.074,0.048 -0.117,0.048 -0.029,0 -0.057,-0.008 -0.083,-0.024 -0.026,-0.016 -0.046,-0.043 -0.06,-0.081 -0.029,-0.06 -0.072,-0.112 -0.128,-0.156 -0.057,-0.043 -0.127,-0.065 -0.211,-0.065 l -0.043,0 c -0.102,0 -0.188,0.036 -0.261,0.108 -0.072,0.072 -0.108,0.158 -0.108,0.258 l 0,0.22 0.946,0 c 0.046,0 0.085,0.017 0.117,0.05 0.032,0.033 0.048,0.072 0.048,0.115 l 0,0.356 z m -2.105,-0.813 c 0,0.141 -0.028,0.252 -0.084,0.333 -0.057,0.081 -0.126,0.144 -0.208,0.188 -0.083,0.045 -0.173,0.078 -0.272,0.1 -0.098,0.022 -0.189,0.043 -0.271,0.065 -0.082,0.022 -0.152,0.051 -0.208,0.087 -0.057,0.036 -0.085,0.091 -0.085,0.166 l 0,0.013 c 0.003,0.064 0.036,0.119 0.1,0.165 0.064,0.046 0.156,0.069 0.278,0.069 l 0.017,0 c 0.098,0 0.175,-0.014 0.23,-0.041 0.055,-0.028 0.106,-0.053 0.152,-0.076 0.035,-0.017 0.066,-0.026 0.095,-0.026 0.047,0 0.084,0.016 0.113,0.048 0.029,0.031 0.044,0.068 0.044,0.108 0,0.053 -0.021,0.095 -0.061,0.128 -0.017,0.014 -0.043,0.033 -0.076,0.055 -0.033,0.022 -0.074,0.042 -0.122,0.061 -0.047,0.019 -0.102,0.036 -0.164,0.051 -0.063,0.015 -0.131,0.022 -0.207,0.022 l -0.017,0 c -0.069,0 -0.145,-0.009 -0.228,-0.028 -0.082,-0.019 -0.159,-0.05 -0.23,-0.093 -0.071,-0.044 -0.131,-0.101 -0.18,-0.171 -0.049,-0.071 -0.074,-0.158 -0.074,-0.262 0,-0.136 0.028,-0.241 0.085,-0.314 0.056,-0.074 0.126,-0.131 0.208,-0.171 0.083,-0.041 0.173,-0.07 0.271,-0.089 0.099,-0.019 0.189,-0.041 0.272,-0.067 0.082,-0.026 0.152,-0.061 0.208,-0.106 0.056,-0.045 0.085,-0.113 0.085,-0.206 l 0,-0.013 c -0.003,-0.072 -0.04,-0.138 -0.111,-0.199 -0.071,-0.061 -0.173,-0.091 -0.306,-0.091 l -0.022,0 c -0.081,0 -0.163,0.028 -0.247,0.083 -0.084,0.054 -0.154,0.118 -0.208,0.191 -0.021,0.028 -0.044,0.048 -0.07,0.058 -0.026,0.01 -0.052,0.015 -0.078,0.015 -0.043,0 -0.082,-0.014 -0.117,-0.043 -0.035,-0.029 -0.052,-0.068 -0.052,-0.117 0,-0.012 0.007,-0.039 0.022,-0.083 0.034,-0.066 0.079,-0.127 0.134,-0.181 0.055,-0.054 0.116,-0.1 0.182,-0.136 0.067,-0.037 0.137,-0.065 0.211,-0.086 0.074,-0.02 0.145,-0.031 0.215,-0.031 l 0.026,0 c 0.089,0 0.179,0.013 0.269,0.039 0.089,0.026 0.17,0.064 0.243,0.115 0.072,0.05 0.13,0.113 0.173,0.188 0.044,0.075 0.065,0.163 0.065,0.264 l 0,0.018 z m -2.493,0.596 -0.781,0 0,0.218 c 0,0.105 0.037,0.194 0.111,0.265 0.073,0.071 0.161,0.107 0.262,0.107 l 0.044,0 c 0.095,0 0.18,-0.036 0.253,-0.107 0.074,-0.071 0.111,-0.161 0.111,-0.269 l 0,-0.214 z m 0.33,0.217 c 0,0.101 -0.018,0.194 -0.054,0.28 -0.036,0.085 -0.086,0.16 -0.15,0.223 -0.064,0.064 -0.138,0.113 -0.223,0.148 -0.086,0.035 -0.176,0.052 -0.272,0.052 l -0.043,0 c -0.096,0 -0.186,-0.018 -0.271,-0.054 -0.086,-0.037 -0.16,-0.086 -0.224,-0.15 -0.064,-0.064 -0.114,-0.138 -0.15,-0.224 -0.036,-0.085 -0.054,-0.175 -0.054,-0.271 l 0,-0.746 c 0,-0.099 0.018,-0.19 0.054,-0.274 0.036,-0.084 0.086,-0.157 0.15,-0.219 0.064,-0.062 0.138,-0.111 0.224,-0.147 0.085,-0.037 0.175,-0.055 0.271,-0.055 l 0.043,0 c 0.148,0 0.277,0.038 0.389,0.115 0.111,0.076 0.193,0.175 0.245,0.298 0.011,0.02 0.017,0.044 0.017,0.073 0,0.05 -0.017,0.09 -0.052,0.122 -0.034,0.032 -0.074,0.048 -0.117,0.048 -0.029,0 -0.056,-0.008 -0.082,-0.024 C -18.98,0.343 -19.001,0.316 -19.015,0.278 -19.044,0.218 -19.087,0.166 -19.143,0.122 -19.2,0.079 -19.27,0.057 -19.354,0.057 l -0.043,0 c -0.101,0 -0.188,0.036 -0.26,0.108 -0.073,0.072 -0.109,0.158 -0.109,0.258 l 0,0.22 0.946,0 c 0.046,0 0.085,0.017 0.117,0.05 0.032,0.033 0.048,0.072 0.048,0.115 l 0,0.356 z m -2.203,0.056 c 0,0.044 -0.016,0.082 -0.049,0.115 -0.034,0.033 -0.072,0.05 -0.115,0.05 l -0.621,0 c -0.055,0 -0.096,-0.017 -0.124,-0.052 -0.027,-0.035 -0.041,-0.072 -0.041,-0.113 0,-0.04 0.014,-0.078 0.041,-0.113 0.028,-0.034 0.069,-0.052 0.124,-0.052 l 0.456,0 0,-0.505 c 0,-0.069 -0.013,-0.134 -0.039,-0.193 -0.026,-0.059 -0.062,-0.111 -0.107,-0.155 -0.045,-0.045 -0.097,-0.08 -0.156,-0.106 -0.059,-0.026 -0.124,-0.039 -0.193,-0.039 l -0.044,0 c -0.069,0 -0.133,0.013 -0.193,0.039 -0.059,0.026 -0.111,0.061 -0.156,0.106 -0.045,0.045 -0.08,0.097 -0.106,0.156 -0.026,0.059 -0.039,0.124 -0.039,0.193 l 0,1.404 c 0,0.066 0.013,0.129 0.039,0.188 0.026,0.059 0.061,0.111 0.106,0.156 0.045,0.045 0.097,0.08 0.156,0.106 0.06,0.026 0.124,0.039 0.193,0.039 l 0.044,0 c 0.142,0 0.254,-0.04 0.336,-0.121 0.083,-0.081 0.135,-0.183 0.159,-0.304 0.008,-0.049 0.029,-0.085 0.06,-0.107 0.032,-0.021 0.067,-0.032 0.105,-0.032 0.04,0 0.078,0.014 0.112,0.041 0.035,0.028 0.052,0.067 0.052,0.119 l 0,0.027 c -0.014,0.101 -0.045,0.195 -0.093,0.282 -0.048,0.086 -0.108,0.161 -0.182,0.223 -0.074,0.062 -0.158,0.111 -0.252,0.148 -0.094,0.036 -0.193,0.054 -0.297,0.054 l -0.044,0 c -0.112,0 -0.219,-0.022 -0.321,-0.065 -0.101,-0.044 -0.188,-0.102 -0.262,-0.176 -0.074,-0.074 -0.133,-0.16 -0.176,-0.26 -0.043,-0.1 -0.065,-0.208 -0.065,-0.324 l 0,-1.401 c 0,-0.116 0.022,-0.224 0.065,-0.324 0.043,-0.1 0.102,-0.186 0.176,-0.26 0.074,-0.074 0.161,-0.132 0.262,-0.174 0.102,-0.042 0.209,-0.063 0.321,-0.063 l 0.044,0 c 0.113,0 0.22,0.021 0.321,0.063 0.101,0.042 0.189,0.1 0.263,0.174 0.073,0.074 0.132,0.16 0.175,0.26 0.044,0.1 0.065,0.208 0.065,0.324 l 0,0.672 z m -4.17,-0.273 -0.781,0 0,0.218 c 0,0.105 0.037,0.194 0.11,0.265 0.074,0.071 0.162,0.107 0.263,0.107 l 0.043,0 c 0.096,0 0.18,-0.036 0.254,-0.107 0.074,-0.071 0.111,-0.161 0.111,-0.269 l 0,-0.214 z m 0.33,0.217 c 0,0.101 -0.018,0.194 -0.055,0.28 -0.036,0.085 -0.086,0.16 -0.149,0.223 -0.064,0.064 -0.138,0.113 -0.224,0.148 -0.085,0.035 -0.176,0.052 -0.271,0.052 l -0.043,0 c -0.096,0 -0.186,-0.018 -0.272,-0.054 -0.085,-0.037 -0.16,-0.086 -0.223,-0.15 -0.064,-0.064 -0.114,-0.138 -0.15,-0.224 -0.036,-0.085 -0.054,-0.175 -0.054,-0.271 l 0,-0.746 c 0,-0.099 0.018,-0.19 0.054,-0.274 0.036,-0.084 0.086,-0.157 0.15,-0.219 0.063,-0.062 0.138,-0.111 0.223,-0.147 0.086,-0.037 0.176,-0.055 0.272,-0.055 l 0.043,0 c 0.147,0 0.277,0.038 0.388,0.115 0.112,0.076 0.194,0.175 0.246,0.298 0.011,0.02 0.017,0.044 0.017,0.073 0,0.05 -0.017,0.09 -0.052,0.122 -0.035,0.032 -0.074,0.048 -0.117,0.048 -0.029,0 -0.057,-0.008 -0.083,-0.024 -0.026,-0.016 -0.046,-0.043 -0.061,-0.081 -0.028,-0.06 -0.071,-0.112 -0.128,-0.156 -0.056,-0.043 -0.126,-0.065 -0.21,-0.065 l -0.043,0 c -0.102,0 -0.188,0.036 -0.261,0.108 -0.072,0.072 -0.108,0.158 -0.108,0.258 l 0,0.22 0.946,0 c 0.046,0 0.085,0.017 0.117,0.05 0.032,0.033 0.048,0.072 0.048,0.115 l 0,0.356 z m -2.152,0.004 c 0,0.096 -0.018,0.186 -0.054,0.271 -0.036,0.086 -0.086,0.16 -0.15,0.224 -0.063,0.064 -0.138,0.113 -0.223,0.15 -0.085,0.036 -0.176,0.054 -0.271,0.054 l -0.035,0 c -0.075,0 -0.148,-0.012 -0.217,-0.035 -0.069,-0.023 -0.123,-0.055 -0.161,-0.095 l 0,0.872 c 0,0.055 -0.017,0.096 -0.052,0.124 -0.034,0.027 -0.072,0.041 -0.113,0.041 -0.04,0 -0.078,-0.014 -0.112,-0.041 -0.035,-0.028 -0.053,-0.069 -0.053,-0.124 l 0,-2.721 c 0,-0.055 0.018,-0.096 0.053,-0.122 0.034,-0.026 0.072,-0.039 0.112,-0.039 0.041,0 0.079,0.013 0.113,0.039 0.035,0.026 0.052,0.067 0.052,0.122 l 0,1.302 c 0,0.055 0.012,0.104 0.035,0.147 0.023,0.044 0.053,0.081 0.089,0.111 0.036,0.03 0.078,0.053 0.126,0.067 0.048,0.015 0.096,0.022 0.145,0.022 0.046,0 0.093,-0.007 0.139,-0.022 0.046,-0.014 0.088,-0.037 0.126,-0.067 0.038,-0.03 0.067,-0.069 0.089,-0.115 0.022,-0.046 0.032,-0.101 0.032,-0.165 l 0,-1.28 c 0,-0.055 0.018,-0.096 0.053,-0.122 0.034,-0.026 0.072,-0.039 0.112,-0.039 0.041,0 0.079,0.013 0.113,0.039 0.035,0.026 0.052,0.067 0.052,0.122 l 0,1.28 z m -2.229,-0.614 c -0.035,0.028 -0.072,0.041 -0.113,0.041 -0.04,0 -0.077,-0.013 -0.11,-0.041 -0.034,-0.027 -0.052,-0.07 -0.055,-0.128 -0.006,-0.101 -0.043,-0.188 -0.113,-0.26 -0.069,-0.073 -0.154,-0.109 -0.256,-0.109 l -0.039,0 c -0.104,0 -0.192,0.036 -0.264,0.108 -0.073,0.072 -0.109,0.159 -0.109,0.26 l 0,0.744 c 0,0.101 0.036,0.188 0.109,0.26 0.072,0.072 0.159,0.108 0.26,0.108 l 0.043,0 c 0.102,0 0.187,-0.035 0.256,-0.104 0.07,-0.07 0.107,-0.159 0.113,-0.269 0.003,-0.055 0.021,-0.096 0.055,-0.122 0.033,-0.026 0.07,-0.039 0.11,-0.039 0.041,0 0.078,0.014 0.113,0.041 0.035,0.028 0.052,0.069 0.052,0.124 0,0.096 -0.019,0.186 -0.056,0.271 -0.038,0.086 -0.088,0.16 -0.15,0.224 -0.062,0.064 -0.136,0.113 -0.221,0.15 -0.086,0.036 -0.176,0.054 -0.272,0.054 l -0.043,0 c -0.096,0 -0.186,-0.018 -0.271,-0.054 -0.086,-0.037 -0.16,-0.086 -0.222,-0.148 -0.062,-0.062 -0.112,-0.136 -0.149,-0.221 -0.038,-0.086 -0.057,-0.178 -0.057,-0.276 l 0,-0.746 c 0,-0.099 0.018,-0.19 0.054,-0.274 0.037,-0.084 0.086,-0.157 0.15,-0.219 0.064,-0.062 0.138,-0.111 0.224,-0.147 0.085,-0.037 0.175,-0.055 0.271,-0.055 l 0.043,0 c 0.096,0 0.186,0.019 0.272,0.055 0.085,0.037 0.159,0.087 0.223,0.15 0.064,0.063 0.114,0.136 0.15,0.22 0.036,0.084 0.054,0.176 0.054,0.274 0,0.058 -0.017,0.101 -0.052,0.128 m -2.055,-0.203 c 0,0.141 -0.028,0.252 -0.084,0.333 -0.057,0.081 -0.126,0.144 -0.209,0.188 -0.082,0.045 -0.172,0.078 -0.271,0.1 -0.098,0.022 -0.189,0.043 -0.271,0.065 -0.082,0.022 -0.152,0.051 -0.208,0.087 -0.057,0.036 -0.085,0.091 -0.085,0.166 l 0,0.013 c 0.003,0.064 0.036,0.119 0.1,0.165 0.063,0.046 0.156,0.069 0.278,0.069 l 0.017,0 c 0.098,0 0.175,-0.014 0.23,-0.041 0.055,-0.028 0.106,-0.053 0.152,-0.076 0.035,-0.017 0.066,-0.026 0.095,-0.026 0.047,0 0.084,0.016 0.113,0.048 0.029,0.031 0.044,0.068 0.044,0.108 0,0.053 -0.021,0.095 -0.061,0.128 -0.017,0.014 -0.043,0.033 -0.076,0.055 -0.033,0.022 -0.074,0.042 -0.122,0.061 -0.047,0.019 -0.102,0.036 -0.164,0.051 -0.063,0.015 -0.131,0.022 -0.207,0.022 l -0.017,0 c -0.069,0 -0.145,-0.009 -0.228,-0.028 -0.082,-0.019 -0.159,-0.05 -0.23,-0.093 -0.071,-0.044 -0.131,-0.101 -0.18,-0.171 -0.049,-0.071 -0.074,-0.158 -0.074,-0.262 0,-0.136 0.028,-0.241 0.085,-0.314 0.056,-0.074 0.126,-0.131 0.208,-0.171 0.083,-0.041 0.173,-0.07 0.271,-0.089 0.099,-0.019 0.189,-0.041 0.272,-0.067 0.082,-0.026 0.152,-0.061 0.208,-0.106 0.056,-0.045 0.085,-0.113 0.085,-0.206 l 0,-0.013 c -0.003,-0.072 -0.04,-0.138 -0.111,-0.199 -0.071,-0.061 -0.173,-0.091 -0.306,-0.091 l -0.022,0 c -0.081,0 -0.163,0.028 -0.247,0.083 -0.084,0.054 -0.153,0.118 -0.208,0.191 -0.021,0.028 -0.044,0.048 -0.07,0.058 -0.026,0.01 -0.052,0.015 -0.078,0.015 -0.043,0 -0.082,-0.014 -0.117,-0.043 -0.035,-0.029 -0.052,-0.068 -0.052,-0.117 0,-0.012 0.007,-0.039 0.021,-0.083 0.035,-0.066 0.08,-0.127 0.135,-0.181 0.055,-0.054 0.116,-0.1 0.182,-0.136 0.067,-0.037 0.137,-0.065 0.211,-0.086 0.074,-0.02 0.145,-0.031 0.215,-0.031 l 0.026,0 c 0.089,0 0.179,0.013 0.269,0.039 0.089,0.026 0.17,0.064 0.243,0.115 0.072,0.05 0.13,0.113 0.173,0.188 0.044,0.075 0.065,0.163 0.065,0.264 l 0,0.018 z M -33.273,0 c -0.024,0.032 -0.063,0.051 -0.115,0.057 -0.066,0.006 -0.125,0.03 -0.175,0.072 -0.051,0.041 -0.076,0.1 -0.076,0.175 l 0,1.22 0.234,0 c 0.055,0 0.096,0.017 0.124,0.052 0.027,0.035 0.041,0.072 0.041,0.113 0,0.04 -0.014,0.078 -0.041,0.113 -0.028,0.035 -0.069,0.052 -0.124,0.052 l -0.234,0 0,0.755 c 0,0.055 -0.018,0.096 -0.052,0.124 -0.035,0.027 -0.073,0.041 -0.113,0.041 -0.041,0 -0.078,-0.014 -0.113,-0.041 -0.035,-0.028 -0.052,-0.069 -0.052,-0.124 l 0,-0.755 -0.152,0 c -0.055,0 -0.096,-0.017 -0.124,-0.052 -0.027,-0.035 -0.041,-0.073 -0.041,-0.113 0,-0.041 0.014,-0.078 0.041,-0.113 0.028,-0.035 0.069,-0.052 0.124,-0.052 l 0.152,0 0,-1.228 c 0,-0.078 0.014,-0.152 0.043,-0.222 0.029,-0.069 0.07,-0.13 0.122,-0.182 0.052,-0.052 0.113,-0.092 0.182,-0.121 0.069,-0.029 0.143,-0.044 0.221,-0.044 0.058,0 0.1,0.017 0.126,0.051 0.026,0.034 0.039,0.071 0.039,0.112 0,0.041 -0.012,0.078 -0.037,0.11 m -1.683,1.702 c 0,0.055 -0.018,0.096 -0.052,0.124 -0.035,0.027 -0.073,0.041 -0.113,0.041 -0.041,0 -0.078,-0.014 -0.113,-0.041 -0.035,-0.028 -0.052,-0.069 -0.052,-0.124 l 0,-1.277 c 0,-0.101 -0.036,-0.187 -0.108,-0.26 -0.073,-0.072 -0.161,-0.108 -0.265,-0.108 l -0.039,0 c -0.102,0 -0.188,0.036 -0.261,0.108 -0.072,0.073 -0.108,0.159 -0.108,0.26 l 0,1.277 c 0,0.055 -0.018,0.096 -0.052,0.124 -0.035,0.027 -0.073,0.041 -0.113,0.041 -0.041,0 -0.078,-0.014 -0.113,-0.041 -0.035,-0.028 -0.052,-0.069 -0.052,-0.124 l 0,-1.28 c 0,-0.122 0.019,-0.226 0.056,-0.313 0.038,-0.087 0.089,-0.158 0.152,-0.215 0.064,-0.056 0.138,-0.098 0.224,-0.125 0.085,-0.028 0.174,-0.042 0.267,-0.042 l 0.039,0 c 0.075,0 0.146,0.011 0.212,0.033 0.067,0.022 0.12,0.054 0.161,0.095 0.009,-0.044 0.029,-0.076 0.061,-0.097 0.032,-0.02 0.066,-0.031 0.104,-0.031 0.04,0 0.078,0.014 0.113,0.042 0.034,0.027 0.052,0.067 0.052,0.119 l 0,1.814 z m -2.465,-0.755 -0.781,0 0,0.218 c 0,0.105 0.037,0.194 0.111,0.265 0.073,0.071 0.161,0.107 0.262,0.107 l 0.044,0 c 0.095,0 0.18,-0.036 0.254,-0.107 0.073,-0.071 0.11,-0.161 0.11,-0.269 l 0,-0.214 z m 0.33,0.217 c 0,0.101 -0.018,0.194 -0.054,0.28 -0.036,0.085 -0.086,0.16 -0.15,0.223 -0.064,0.064 -0.138,0.113 -0.223,0.148 -0.086,0.035 -0.176,0.052 -0.272,0.052 l -0.043,0 c -0.096,0 -0.186,-0.018 -0.271,-0.054 -0.086,-0.037 -0.16,-0.086 -0.224,-0.15 -0.063,-0.064 -0.113,-0.138 -0.15,-0.224 -0.036,-0.085 -0.054,-0.175 -0.054,-0.271 l 0,-0.746 c 0,-0.099 0.018,-0.19 0.054,-0.274 0.037,-0.084 0.087,-0.157 0.15,-0.219 0.064,-0.062 0.138,-0.111 0.224,-0.147 0.085,-0.037 0.175,-0.055 0.271,-0.055 l 0.043,0 c 0.148,0 0.277,0.038 0.389,0.115 0.111,0.076 0.193,0.175 0.245,0.298 0.012,0.02 0.017,0.044 0.017,0.073 0,0.05 -0.017,0.09 -0.052,0.122 -0.034,0.032 -0.074,0.048 -0.117,0.048 -0.029,0 -0.056,-0.008 -0.082,-0.024 -0.026,-0.016 -0.047,-0.043 -0.061,-0.081 -0.029,-0.06 -0.072,-0.112 -0.128,-0.156 -0.057,-0.043 -0.127,-0.065 -0.211,-0.065 l -0.043,0 c -0.101,0 -0.188,0.036 -0.261,0.108 -0.072,0.072 -0.108,0.158 -0.108,0.258 l 0,0.22 0.946,0 c 0.046,0 0.085,0.017 0.117,0.05 0.032,0.033 0.048,0.072 0.048,0.115 l 0,0.356 z m -2.534,-0.59 c 0,-0.07 -0.013,-0.134 -0.039,-0.194 -0.026,-0.059 -0.062,-0.111 -0.106,-0.156 -0.045,-0.045 -0.097,-0.08 -0.156,-0.106 -0.059,-0.026 -0.123,-0.039 -0.192,-0.039 l -0.536,0 0,2.339 0.54,0 c 0.069,0 0.133,-0.013 0.192,-0.039 0.06,-0.026 0.111,-0.061 0.154,-0.106 0.043,-0.045 0.078,-0.097 0.104,-0.157 0.026,-0.059 0.039,-0.123 0.039,-0.193 l 0,-1.349 z m 0.329,1.354 c 0,0.112 -0.021,0.219 -0.065,0.319 -0.043,0.099 -0.102,0.186 -0.175,0.26 -0.074,0.074 -0.161,0.132 -0.261,0.176 -0.1,0.043 -0.206,0.065 -0.319,0.065 l -0.703,0 c -0.043,0 -0.082,-0.017 -0.115,-0.05 -0.033,-0.033 -0.05,-0.072 -0.05,-0.115 l 0,-2.669 c 0,-0.043 0.017,-0.082 0.05,-0.115 0.033,-0.033 0.072,-0.05 0.115,-0.05 l 0.703,0 c 0.113,0 0.219,0.022 0.319,0.065 0.1,0.043 0.187,0.102 0.261,0.176 0.073,0.074 0.132,0.161 0.175,0.262 0.044,0.102 0.065,0.209 0.065,0.322 l 0,1.354 z"
         style="fill:#da1c23;fill-opacity:1;fill-rule:nonzero;stroke:none"
         id="path316" />
    </g>
  </g>
</svg>
