<svg xmlns="http://www.w3.org/2000/svg" width="105.39" height="28.88"><path d="M0 0a2 2 0 0 1-.22-.168l-.021-.017-.045-.034-.047-.034a1 1 0 0 0-.099-.066l-.053-.032-.054-.031-.055-.03-.057-.029-.059-.027-.06-.027-.061-.025-.061-.023-.06-.021-.06-.019-.06-.017-.059-.016-.059-.014-.057-.012-.058-.01q-.346-.06-.717-.062h-.183q-1.792.043-2.99 1.177-1.197 1.134-1.243 2.842v4.479q.046 1.708 1.243 2.842 1.198 1.133 2.99 1.176h.235q.339-.006.633-.046l.057-.009.059-.011.06-.013.061-.014.061-.016.061-.018.062-.02.062-.021a4 4 0 0 0 .18-.074l.057-.027.056-.028.054-.029.052-.029.016-.01.022-.014.022-.015.023-.014.021-.015.021-.015.021-.015.021-.014.02-.016.02-.015.019-.015.019-.015.019-.016.018-.015.018-.016.017-.016.017-.015.017-.016s.015-.015.034-.028l.03-.016a.2.2 0 0 1 .087-.017q.023 0 .044.004.022.005.042.013a.3.3 0 0 1 .07.048l.027.032a.2.2 0 0 1 .02.038q.009.02.013.041.005.022.006.045c-.002.147-.005.348.161.397.099.029.22.015.319.015h1.512c.154 0 .386.038.45-.151.048-.14.016-.433.016-.583V4.037l-.001-2.569c0-.848.034-1.705-.061-2.55-.267-2.355-1.444-4.356-3.935-4.795-1.508-.265-3.011.272-4.175 1.233-.142.117-.438.314-.426.516a.33.33 0 0 0 .086.19s.966 1.021 1.036 1.11c.069.076.165.185.272.185.152-.001.311-.143.587-.305.47-.276.974-.529 1.51-.609a2.3 2.3 0 0 1 1.033.101C-.084-3.047.266-1.452.339-.202v.021l-.001.022-.003.022-.006.021-.007.02-.009.019-.011.018-.013.017a.2.2 0 0 1-.029.029L.243 0 .225.011.186.027.165.033.143.036.121.037.099.036.077.033.056.027.036.02zm.265 3.272v4.496c-.019.598-.235.971-.65 1.306-.414.334-.803.505-1.392.51h-.228c-.612-.014-1.012-.215-1.424-.601-.413-.386-.627-.777-.643-1.36V3.465c.016-.582.23-.973.643-1.359.412-.386.812-.587 1.424-.601h.228c.589.008.978.179 1.392.513.415.334.631.69.65 1.254" style="fill:#000;fill-opacity:1;fill-rule:nonzero;stroke:none" transform="matrix(1.25 0 0 -1.25 9.047 20.448)"/><path d="M0 0v1.644q-.001.143-.076.209a.28.28 0 0 1-.198.065h-4.528q-.163.001-.233.059a.2.2 0 0 0-.072.154.4.4 0 0 0 .058.199l4.961 9.363a1 1 0 0 1 .038.096.4.4 0 0 1 .017.096q-.007.212-.302.219h-8.127q-.281.006-.274-.274v-1.645q-.007-.28.274-.274h4.245a.4.4 0 0 0 .226-.055.2.2 0 0 0 .076-.164.4.4 0 0 0-.017-.096A1 1 0 0 0-3.97 9.5L-8.983.137a1 1 0 0 1-.038-.096.4.4 0 0 1-.017-.096q.006-.211.302-.219h8.462q.143-.001.209.065T0 0" style="fill:#000;fill-opacity:1;fill-rule:nonzero;stroke:none" transform="matrix(1.25 0 0 -1.25 33.778 20.98)"/><path d="M0 0a.33.33 0 0 1 .081-.207q.081-.08.249-.085h1.711q.168.004.249.085c.046.046.08.115.08.204v1.951q-.003.17-.083.253-.081.08-.249.086h-.136a.36.36 0 0 1-.293-.127L.173.557.104.476a.37.37 0 0 1-.106-.26V.047z" style="fill:#000;fill-opacity:1;fill-rule:nonzero;stroke:none" transform="matrix(1.25 0 0 -1.25 16.206 3.86)"/><path d="M0 0q-.001.148-.068.22-.072.074-.227.073h-1.781Q-2.23.291-2.302.208A.3.3 0 0 1-2.372 0v-.049l-.001-6.691.002-5.062c0-.097.024-.173.069-.22q.071-.073.226-.073h1.781q.155.002.226.085a.3.3 0 0 1 .069.208z" style="fill:#000;fill-opacity:1;fill-rule:nonzero;stroke:none" transform="matrix(1.25 0 0 -1.25 19.154 6.203)"/><path d="M0 0q0 .082-.052.124a.2.2 0 0 1-.113.041.2.2 0 0 1-.113-.041Q-.33.082-.33 0v-1.146h-1.028V0q0 .082-.053.124a.18.18 0 0 1-.112.041.18.18 0 0 1-.113-.041Q-1.688.082-1.688 0v-2.721q0-.083.052-.122a.182.182 0 0 1 .225 0q.053.04.053.122v1.246H-.33v-1.246q0-.087.052-.124a.2.2 0 0 1 .113-.037q.06 0 .113.037.052.037.052.124zm-2.832-2.184a.36.36 0 0 0-.109-.26.36.36 0 0 0-.264-.108h-.039a.4.4 0 0 0-.259.091.3.3 0 0 0-.11.251v.805q0 .152.11.242.11.091.259.091h.039a.36.36 0 0 0 .264-.108.36.36 0 0 0 .109-.26zm.33.743a.7.7 0 0 1-.055.271.69.69 0 0 1-.373.374.7.7 0 0 1-.275.054h-.031a.6.6 0 0 1-.217-.037.35.35 0 0 1-.16-.106V0q0 .082-.052.124a.2.2 0 0 1-.113.041.18.18 0 0 1-.113-.041Q-3.943.082-3.943 0v-2.73q0-.078.052-.115a.2.2 0 0 1 .113-.037q.056 0 .104.031t.056.097a.4.4 0 0 1 .141-.088.6.6 0 0 1 .233-.04h.039q.143 0 .271.055a.7.7 0 0 1 .375.366.7.7 0 0 1 .057.274zm-2.243.005q0 .177-.057.31a.6.6 0 0 1-.377.343.9.9 0 0 1-.265.041h-.039a.7.7 0 0 1-.302-.067.8.8 0 0 1-.236-.18.8.8 0 0 1-.237.18.7.7 0 0 1-.302.067h-.039a.6.6 0 0 1-.212-.035.4.4 0 0 1-.161-.095.15.15 0 0 1-.061.097.17.17 0 0 1-.099.033.2.2 0 0 1-.118-.043.15.15 0 0 1-.052-.122v-1.814q0-.083.052-.122a.184.184 0 0 1 .226 0q.052.04.052.122v1.315q0 .151.113.243a.4.4 0 0 0 .26.091h.039a.37.37 0 0 0 .265-.104.36.36 0 0 0 .109-.269v-1.267q0-.087.052-.128a.17.17 0 0 1 .113-.042q.06 0 .112.042.052.04.052.128v1.267q0 .16.109.267a.36.36 0 0 0 .265.106h.039q.165 0 .266-.091.103-.091.103-.273v-1.285q0-.083.052-.122a.18.18 0 0 1 .225 0q.053.04.053.122zm-3.352.047a.16.16 0 0 1-.049.115.16.16 0 0 1-.115.05h-.621q-.082 0-.124-.052a.18.18 0 0 1-.041-.113q0-.06.041-.113.042-.052.124-.052h.456v-.505a.48.48 0 0 0-.145-.348.5.5 0 0 0-.157-.106.5.5 0 0 0-.193-.039h-.044a.5.5 0 0 0-.494.494v1.404q0 .1.039.188a.5.5 0 0 0 .263.262.5.5 0 0 0 .192.039h.044q.213 0 .337-.121a.57.57 0 0 0 .158-.304.16.16 0 0 1 .06-.107.178.178 0 0 1 .217.009q.052.041.052.12v.026a.81.81 0 0 1-.527.653.8.8 0 0 1-.297.054h-.044a.82.82 0 0 1-.583-.241.82.82 0 0 1-.241-.584v-1.402a.81.81 0 0 1 .503-.757.8.8 0 0 1 .321-.063h.044a.83.83 0 0 1 .584.237q.11.11.175.26.066.15.065.323zm-3.434.51q-.051.276-.137.517a2.5 2.5 0 0 1-.207.438 1.6 1.6 0 0 1-.258.332.16.16 0 0 1-.113.052.2.2 0 0 1-.112-.048.16.16 0 0 1-.053-.112.15.15 0 0 1 .048-.105q.113-.108.215-.277t.18-.382a2.9 2.9 0 0 0 .122-1.511 3 3 0 0 0-.128-.464 2 2 0 0 0-.185-.38 1.4 1.4 0 0 0-.217-.275.15.15 0 0 1-.048-.105q0-.06.053-.112a.17.17 0 0 1 .117-.052q.056 0 .108.052.139.134.261.329.121.196.21.437a3.23 3.23 0 0 1 .144 1.666m-1.495-1.703q-.042.051-.124.052h-1.094l1.233 2.365a.24.24 0 0 1 .03.113.19.19 0 0 1-.056.135.2.2 0 0 1-.144.056h-1.241q-.086 0-.126-.052a.184.184 0 0 1 0-.226q.04-.051.126-.052h1.029l-1.228-2.357a.2.2 0 0 1-.026-.104q0-.082.05-.145a.17.17 0 0 1 .14-.063h1.307q.082 0 .124.052a.18.18 0 0 1 .041.113q0 .06-.041.113M-15.437 0q0 .082-.052.124a.18.18 0 0 1-.113.041.18.18 0 0 1-.113-.041q-.052-.042-.052-.124v-2.721q0-.083.052-.122a.184.184 0 0 1 .226 0q.051.04.052.122zm-1.202-1.389a.16.16 0 0 1-.05.115.15.15 0 0 1-.115.05h-.62q-.084 0-.124-.052a.175.175 0 0 1 0-.226q.04-.052.124-.052h.455v-.505a.48.48 0 0 0-.145-.348.48.48 0 0 0-.35-.145h-.043a.48.48 0 0 0-.349.145.476.476 0 0 0-.146.349v1.404q0 .1.039.188a.5.5 0 0 0 .263.262.5.5 0 0 0 .193.039h.043a.46.46 0 0 0 .337-.121.56.56 0 0 0 .158-.304q.013-.074.061-.107a.18.18 0 0 1 .217.009q.052.041.052.12v.026a.81.81 0 0 1-.527.653.8.8 0 0 1-.298.054h-.043a.8.8 0 0 1-.583-.241.82.82 0 0 1-.242-.584v-1.402q0-.173.066-.323a.82.82 0 0 1 .438-.434.8.8 0 0 1 .321-.063h.043a.83.83 0 0 1 .584.237.82.82 0 0 1 .241.583zm-2.469-1.43q-.105.168-.185.38a2.9 2.9 0 0 0-.128 1.513q.048.249.126.462.078.212.18.382.102.168.21.277a.15.15 0 0 1 .048.105q0 .06-.052.112-.061.048-.113.048a.15.15 0 0 1-.112-.052 2 2 0 0 1-.255-.336 2.5 2.5 0 0 1-.205-.436 3 3 0 0 1-.14-.513 3 3 0 0 1-.051-.568 3.2 3.2 0 0 1 .192-1.1q.09-.241.211-.437.122-.195.26-.329.052-.052.108-.052a.16.16 0 0 1 .118.052.13.13 0 0 1 .056.108.16.16 0 0 1-.051.109 1.4 1.4 0 0 0-.217.275m-2.451.21q-.037.048-.115.057a.3.3 0 0 0-.175.072.21.21 0 0 0-.076.175v1.22h.234q.082 0 .124.052a.18.18 0 0 1 .041.113.18.18 0 0 1-.041.113q-.042.052-.124.052h-.234V0q0 .082-.052.124a.2.2 0 0 1-.113.041.18.18 0 0 1-.113-.041q-.052-.042-.052-.124v-.755h-.152q-.082 0-.124-.052a.18.18 0 0 1-.041-.113.18.18 0 0 1 .041-.113q.042-.052.124-.052h.152v-1.228a.565.565 0 0 1 .568-.569q.087 0 .126.051a.18.18 0 0 1 .002.222m-1.716 1.702q0 .082-.052.124a.18.18 0 0 1-.113.041.2.2 0 0 1-.113-.041q-.052-.042-.052-.124v-1.814q0-.083.052-.122a.184.184 0 0 1 .226 0q.052.04.052.122zm0 .907q0 .082-.052.124a.18.18 0 0 1-.113.041.2.2 0 0 1-.113-.041q-.052-.042-.052-.124v-.095q0-.083.052-.124a.18.18 0 0 1 .226 0q.052.041.052.124zm-1.398-1.662h-.782v.218q0 .158.111.265a.37.37 0 0 0 .263.107h.043q.143 0 .254-.107a.36.36 0 0 0 .111-.269zm.329.217a.698.698 0 0 1-.203.503.7.7 0 0 1-.224.148.7.7 0 0 1-.271.052h-.044a.694.694 0 0 1-.698-.699v-.746a.69.69 0 0 1 .204-.493.7.7 0 0 1 .494-.202h.044q.221 0 .388.115a.67.67 0 0 1 .245.298q.018.03.018.073a.16.16 0 0 1-.052.122.17.17 0 0 1-.117.048.16.16 0 0 1-.083-.024.16.16 0 0 1-.061-.081.43.43 0 0 0-.128-.156.34.34 0 0 0-.21-.065h-.044a.36.36 0 0 0-.26.108.35.35 0 0 0-.109.258v.22h.947q.069 0 .117.05a.16.16 0 0 1 .047.115zm-2.483-.739a.36.36 0 0 0-.108-.26.36.36 0 0 0-.265-.108h-.039a.4.4 0 0 0-.258.091.3.3 0 0 0-.111.251v.805q0 .152.111.242a.4.4 0 0 0 .258.091h.039a.36.36 0 0 0 .265-.108.36.36 0 0 0 .108-.26zm.33.743a.69.69 0 0 1-.204.495.7.7 0 0 1-.499.204h-.03a.6.6 0 0 1-.217-.037.36.36 0 0 1-.161-.106V0q0 .082-.052.124a.18.18 0 0 1-.113.041.2.2 0 0 1-.113-.041q-.052-.042-.052-.124v-2.73q0-.078.052-.115a.192.192 0 0 1 .217-.006.13.13 0 0 1 .057.097.4.4 0 0 1 .141-.088.6.6 0 0 1 .232-.04h.039q.143 0 .271.055a.71.71 0 0 1 .376.366.7.7 0 0 1 .056.274zm-2.148.486a.43.43 0 0 1-.202.163.66.66 0 0 1-.488.007.2.2 0 0 1-.074-.044.13.13 0 0 1-.06.067.2.2 0 0 1-.083.02.2.2 0 0 1-.115-.043.15.15 0 0 1-.054-.122v-1.805q0-.087.052-.128a.18.18 0 0 1 .113-.042q.06 0 .113.042.051.04.052.128v1.349q0 .052.008.105a.2.2 0 0 0 .039.093.23.23 0 0 0 .087.067.4.4 0 0 0 .157.026.23.23 0 0 0 .128-.032 1 1 0 0 0 .071-.059.19.19 0 0 1 .135-.061q.065 0 .113.044a.14.14 0 0 1 .047.112.2.2 0 0 1-.039.113m-2.314-1.228a.35.35 0 0 0-.111-.262.36.36 0 0 0-.262-.107h-.039a.4.4 0 0 0-.267.083.27.27 0 0 0-.102.221v.035q0 .113.076.173a.6.6 0 0 0 .193.096q.117.034.254.054t.258.05zm.549-.436q-.032.045-.106.059-.113.021-.113.143v1.006a.65.65 0 0 1-.195.474.68.68 0 0 1-.486.195h-.031a1 1 0 0 1-.178-.02.7.7 0 0 1-.34-.188.7.7 0 0 1-.128-.196.15.15 0 0 1-.018-.078q0-.07.052-.11a.18.18 0 0 1 .196-.022.16.16 0 0 1 .065.067q.06.109.139.163a.37.37 0 0 0 .212.054h.031a.4.4 0 0 0 .247-.078q.104-.078.104-.273l-.002-.04a.1.1 0 0 0-.011-.034q-.026-.034-.119-.054l-.215-.042a3 3 0 0 1-.256-.056 1 1 0 0 1-.248-.102.496.496 0 0 1-.26-.458v-.052a.57.57 0 0 1 .219-.464.7.7 0 0 1 .224-.118.9.9 0 0 1 .256-.039h.039q.273 0 .469.17a.4.4 0 0 1 .113-.105.5.5 0 0 1 .182-.06q.005-.005.03-.005.078 0 .119.05a.17.17 0 0 1 .042.115.17.17 0 0 1-.033.098m-2.338 1.178a.8.8 0 0 1-.056.31.6.6 0 0 1-.152.22.6.6 0 0 1-.221.128.9.9 0 0 1-.265.041h-.039a.7.7 0 0 1-.213-.035.4.4 0 0 1-.16-.095.15.15 0 0 1-.061.097.18.18 0 0 1-.222-.01.15.15 0 0 1-.052-.122v-1.814q0-.083.052-.122a.184.184 0 0 1 .226 0q.052.04.052.122v1.28q0 .156.11.263a.37.37 0 0 0 .262.106h.038a.36.36 0 0 0 .264-.108.36.36 0 0 0 .107-.261v-1.28q0-.083.053-.122a.2.2 0 0 1 .115-.039.18.18 0 0 1 .112.039q.05.04.05.122zm-2.485-.221h-.781v.218q0 .158.11.265a.37.37 0 0 0 .263.107h.043q.144 0 .254-.107a.36.36 0 0 0 .111-.269zm.33.217a.72.72 0 0 1-.204.503.7.7 0 0 1-.224.148.7.7 0 0 1-.271.052h-.044a.694.694 0 0 1-.698-.699v-.746a.69.69 0 0 1 .204-.493.7.7 0 0 1 .494-.202h.044q.221 0 .388.115a.67.67 0 0 1 .245.298q.018.03.018.073a.16.16 0 0 1-.052.122.17.17 0 0 1-.117.048.16.16 0 0 1-.083-.024.16.16 0 0 1-.061-.081.4.4 0 0 0-.128-.156.34.34 0 0 0-.21-.065h-.044a.36.36 0 0 0-.26.108.35.35 0 0 0-.108.258v.22h.946q.069 0 .117.05a.16.16 0 0 1 .048.115zm-2.168.009a.8.8 0 0 1-.056.31.6.6 0 0 1-.378.343.9.9 0 0 1-.264.041h-.039a.7.7 0 0 1-.302-.067.8.8 0 0 1-.237-.18.8.8 0 0 1-.236.18.7.7 0 0 1-.302.067h-.039a.6.6 0 0 1-.212-.035.4.4 0 0 1-.161-.095.15.15 0 0 1-.061.097.17.17 0 0 1-.217-.01.15.15 0 0 1-.052-.122v-1.814q0-.083.052-.122a.184.184 0 0 1 .226 0q.052.04.052.122v1.315q0 .151.113.243a.4.4 0 0 0 .26.091h.039a.37.37 0 0 0 .265-.104.36.36 0 0 0 .108-.269v-1.267q0-.087.053-.128a.17.17 0 0 1 .112-.042q.062 0 .113.042.052.04.052.128v1.267q0 .16.109.267.108.106.265.106h.039q.164 0 .266-.091t.102-.273v-1.285q0-.083.053-.122a.18.18 0 0 1 .225 0q.052.04.052.122zm-3.323 0a.8.8 0 0 1-.057.31.59.59 0 0 1-.377.343.9.9 0 0 1-.265.041h-.039a.7.7 0 0 1-.302-.067.8.8 0 0 1-.236-.18.8.8 0 0 1-.237.18.7.7 0 0 1-.301.067h-.039a.6.6 0 0 1-.213-.035.4.4 0 0 1-.161-.095.14.14 0 0 1-.06.097.17.17 0 0 1-.217-.01.15.15 0 0 1-.052-.122v-1.814q0-.083.052-.122a.18.18 0 0 1 .225 0q.052.04.052.122v1.315q0 .151.113.243a.4.4 0 0 0 .261.091h.039a.37.37 0 0 0 .264-.104.36.36 0 0 0 .109-.269v-1.267q0-.087.052-.128a.18.18 0 0 1 .113-.042q.06 0 .113.042.051.04.052.128v1.267a.365.365 0 0 0 .373.373h.039q.165 0 .267-.091t.102-.273v-1.285q0-.083.052-.122a.184.184 0 0 1 .226 0q.052.04.052.122zm-3.806-.747a.35.35 0 0 0-.111-.262.36.36 0 0 0-.262-.107h-.039a.4.4 0 0 0-.267.083.27.27 0 0 0-.102.221v.035q0 .113.076.173.076.061.193.096.117.034.254.054t.258.05zm.549-.436a.16.16 0 0 1-.106.059q-.114.021-.113.143v1.006a.65.65 0 0 1-.195.474.68.68 0 0 1-.486.195h-.031a1 1 0 0 1-.178-.02.67.67 0 0 1-.34-.188.7.7 0 0 1-.129-.196.16.16 0 0 1-.017-.078q0-.07.052-.11a.18.18 0 0 1 .196-.022.16.16 0 0 1 .065.067q.06.109.139.163a.37.37 0 0 0 .212.054h.031a.4.4 0 0 0 .247-.078q.104-.078.104-.273l-.002-.04a.1.1 0 0 0-.011-.034q-.026-.034-.119-.054l-.215-.042a3 3 0 0 1-.256-.056 1 1 0 0 1-.248-.102.496.496 0 0 1-.26-.458v-.052a.57.57 0 0 1 .219-.464.7.7 0 0 1 .224-.118.9.9 0 0 1 .256-.039h.039q.273 0 .469.17a.4.4 0 0 1 .112-.105.5.5 0 0 1 .183-.06q.004-.005.03-.005.078 0 .119.05a.17.17 0 0 1 .042.115.17.17 0 0 1-.033.098m-2.29.361a.58.58 0 0 1-.085.333.6.6 0 0 1-.208.188 1 1 0 0 1-.272.1 7 7 0 0 0-.271.065.7.7 0 0 0-.208.087q-.085.054-.085.166v.013q.004.096.1.165a.47.47 0 0 0 .278.069h.017a.5.5 0 0 0 .23-.041l.152-.076a.2.2 0 0 1 .095-.026q.07 0 .113.048a.16.16 0 0 1 .044.108.16.16 0 0 1-.061.128.66.66 0 0 1-.198.116 1 1 0 0 1-.164.051 1 1 0 0 1-.207.022h-.017q-.104 0-.228-.028a.8.8 0 0 1-.23-.093.6.6 0 0 1-.18-.171.45.45 0 0 1-.074-.262q0-.204.085-.314a.6.6 0 0 1 .208-.171q.124-.061.271-.089a3 3 0 0 0 .272-.067.6.6 0 0 0 .208-.106q.084-.067.085-.206v-.013q-.004-.108-.111-.199a.46.46 0 0 0-.306-.091h-.022a.45.45 0 0 0-.247.083.8.8 0 0 0-.208.19.16.16 0 0 1-.07.059.2.2 0 0 1-.078.015.18.18 0 0 1-.117-.043.14.14 0 0 1-.052-.117.4.4 0 0 1 .021-.083.7.7 0 0 1 .135-.181.8.8 0 0 1 .182-.136 1 1 0 0 1 .211-.086.8.8 0 0 1 .215-.031h.026q.134 0 .269.039.133.039.243.115.108.076.173.188a.5.5 0 0 1 .066.265zm-2.223 1.351q0 .082-.053.124a.18.18 0 0 1-.112.041.18.18 0 0 1-.113-.041q-.052-.042-.052-.124v-1.277a.36.36 0 0 0-.109-.26.36.36 0 0 0-.265-.108h-.039a.36.36 0 0 0-.26.108.36.36 0 0 0-.108.26v1.277q0 .082-.053.124a.18.18 0 0 1-.112.041.18.18 0 0 1-.113-.041q-.052-.042-.052-.124v-1.28q0-.183.056-.313a.6.6 0 0 1 .152-.215.6.6 0 0 1 .223-.125.9.9 0 0 1 .267-.042h.039a.7.7 0 0 1 .213.033q.1.033.161.095a.14.14 0 0 1 .06-.097.2.2 0 0 1 .105-.031q.06 0 .112.042a.14.14 0 0 1 .053.119zm-2.127-1.675q-.041.051-.124.052h-1.093l1.232 2.365a.24.24 0 0 1 .031.113.194.194 0 0 1-.2.191h-1.241q-.087 0-.126-.052a.184.184 0 0 1 0-.226q.039-.051.126-.052h1.028l-1.228-2.357a.228.228 0 0 1 .024-.249.17.17 0 0 1 .141-.063h1.306q.083 0 .124.052a.18.18 0 0 1 .041.113q0 .06-.041.113" style="fill:#000;fill-opacity:1;fill-rule:nonzero;stroke:none" transform="matrix(1.25 0 0 -1.25 104.39 17.824)"/><path d="M0 0h-.781v.219q0 .158.111.264A.37.37 0 0 0-.408.59h.043A.36.36 0 0 0-.11.483.36.36 0 0 0 0 .214zm.33.217a.7.7 0 0 1-.427.651.7.7 0 0 1-.272.052h-.043A.69.69 0 0 1-.907.716a.7.7 0 0 1-.204-.495v-.746a.69.69 0 0 1 .204-.493.7.7 0 0 1 .224-.148.7.7 0 0 1 .271-.054h.043a.67.67 0 0 1 .634.413q.017.03.017.073 0 .075-.052.122a.17.17 0 0 1-.117.048.16.16 0 0 1-.083-.024.15.15 0 0 1-.06-.081.45.45 0 0 0-.129-.156.34.34 0 0 0-.21-.065h-.043a.36.36 0 0 0-.261.108.35.35 0 0 0-.108.258v.22h.946q.069 0 .117.05a.16.16 0 0 1 .048.115zm-2.079-1.16q-.04.053-.125.053a.25.25 0 0 0-.17.074.23.23 0 0 0-.069.169v2.309q0 .082-.052.124a.18.18 0 0 1-.113.041.2.2 0 0 1-.113-.041q-.052-.042-.052-.124V-.651a.57.57 0 0 1 .165-.404.56.56 0 0 1 .404-.165q.086 0 .125.051a.18.18 0 0 1 .039.112.2.2 0 0 1-.039.114m-1.933.422a.35.35 0 0 0-.111-.263.37.37 0 0 0-.262-.106h-.039a.4.4 0 0 0-.267.083.27.27 0 0 0-.102.221v.035q0 .113.076.173.076.061.193.096t.254.054q.137.02.258.05zm.549-.436a.16.16 0 0 1-.106.058q-.113.022-.113.144V.252a.667.667 0 0 1-.681.668h-.031a1 1 0 0 1-.178-.019.67.67 0 0 1-.341-.189.7.7 0 0 1-.128-.196.16.16 0 0 1-.017-.078q0-.07.052-.11a.18.18 0 0 1 .195-.022.15.15 0 0 1 .066.067q.06.11.138.163a.37.37 0 0 0 .213.054h.031a.4.4 0 0 0 .247-.078q.104-.078.104-.273L-3.684.2a.1.1 0 0 0-.011-.035q-.026-.034-.119-.054l-.215-.042a3 3 0 0 1-.256-.056 1 1 0 0 1-.248-.102.496.496 0 0 1-.26-.458v-.052a.6.6 0 0 1 .061-.269.6.6 0 0 1 .382-.313.9.9 0 0 1 .256-.039h.039q.273 0 .469.169a.4.4 0 0 1 .112-.104.5.5 0 0 1 .183-.06q.004-.005.03-.005.078 0 .119.05a.17.17 0 0 1 .042.115.17.17 0 0 1-.033.098M-5.471.221a.8.8 0 0 1-.056.311.6.6 0 0 1-.152.219.6.6 0 0 1-.222.128.9.9 0 0 1-.264.041h-.039a.7.7 0 0 1-.213-.035.4.4 0 0 1-.161-.095.15.15 0 0 1-.06.098.2.2 0 0 1-.104.032.18.18 0 0 1-.118-.043.15.15 0 0 1-.052-.122v-1.814q0-.083.052-.122a.184.184 0 0 1 .226 0q.052.04.052.122v1.28q0 .157.11.263a.36.36 0 0 0 .261.106h.039a.36.36 0 0 0 .263-.108.36.36 0 0 0 .108-.261v-1.28q0-.083.053-.122a.2.2 0 0 1 .114-.039q.062 0 .113.039.05.04.05.122zm-2.524-.743a.36.36 0 0 0-.108-.26.36.36 0 0 0-.261-.108h-.039a.36.36 0 0 0-.265.108.36.36 0 0 0-.108.26v.744q0 .152.108.26a.36.36 0 0 0 .261.108h.043a.36.36 0 0 0 .261-.108.36.36 0 0 0 .108-.26zm.33.743a.695.695 0 0 1-.699.699h-.043a.69.69 0 0 1-.495-.204.7.7 0 0 1-.204-.495v-.746a.69.69 0 0 1 .204-.493.7.7 0 0 1 .224-.148.7.7 0 0 1 .271-.054h.043q.144 0 .271.054.129.055.224.148a.687.687 0 0 1 .204.493zm-2.218.534q0 .082-.052.124a.18.18 0 0 1-.113.041.2.2 0 0 1-.113-.041q-.052-.042-.052-.124v-1.814q0-.083.052-.122a.184.184 0 0 1 .226 0q.052.04.052.122zm0 .907q0 .082-.052.124a.18.18 0 0 1-.113.041.2.2 0 0 1-.113-.041q-.052-.042-.052-.124v-.095q0-.083.052-.124a.2.2 0 0 1 .113-.041.18.18 0 0 1 .113.041q.052.041.052.124zm-1.068-2.609q-.037.048-.115.057a.3.3 0 0 0-.176.072.22.22 0 0 0-.076.175v1.22h.235q.082 0 .123.052a.18.18 0 0 1 .042.113.18.18 0 0 1-.042.113q-.04.052-.123.052h-.235v.755q0 .082-.052.124a.18.18 0 0 1-.113.041.18.18 0 0 1-.112-.041q-.052-.042-.052-.124V.907h-.152q-.083 0-.124-.052a.175.175 0 0 1 0-.226q.041-.052.124-.052h.152V-.651a.57.57 0 0 1 .164-.404.57.57 0 0 1 .404-.165q.087 0 .126.051a.18.18 0 0 1 .002.222m-2.019.426a.35.35 0 0 0-.111-.263.37.37 0 0 0-.263-.106h-.038a.4.4 0 0 0-.267.083.27.27 0 0 0-.102.221v.035q0 .113.076.173.076.061.193.096t.254.054q.136.02.258.05zm.549-.436a.16.16 0 0 1-.107.058q-.112.022-.112.144V.252a.66.66 0 0 1-.413.616.7.7 0 0 1-.269.052h-.03a1 1 0 0 1-.178-.019.67.67 0 0 1-.341-.189.7.7 0 0 1-.128-.196.16.16 0 0 1-.017-.078q0-.07.052-.11a.18.18 0 0 1 .195-.022.15.15 0 0 1 .065.067.5.5 0 0 0 .139.163.37.37 0 0 0 .213.054h.03a.4.4 0 0 0 .248-.078q.104-.078.104-.273L-12.972.2a.1.1 0 0 0-.011-.035q-.026-.035-.12-.054l-.214-.042a3 3 0 0 1-.256-.056 1 1 0 0 1-.248-.102.6.6 0 0 1-.186-.178.5.5 0 0 1-.074-.28v-.052a.58.58 0 0 1 .219-.465.7.7 0 0 1 .223-.117.9.9 0 0 1 .257-.039h.038q.274 0 .469.169a.4.4 0 0 1 .295-.164q.004-.005.031-.005.078 0 .119.05a.17.17 0 0 1 .009.213M-14.759.221a.8.8 0 0 1-.057.311.6.6 0 0 1-.151.219.6.6 0 0 1-.222.128.9.9 0 0 1-.264.041h-.039a.6.6 0 0 1-.213-.035.4.4 0 0 1-.161-.095.15.15 0 0 1-.061.098.18.18 0 0 1-.221-.011.15.15 0 0 1-.052-.122v-1.814q0-.083.052-.122a.184.184 0 0 1 .226 0q.052.04.052.122v1.28q0 .157.11.263a.36.36 0 0 0 .261.106h.039a.36.36 0 0 0 .263-.108.36.36 0 0 0 .108-.261v-1.28q0-.083.053-.122a.2.2 0 0 1 .114-.039.18.18 0 0 1 .112.039q.051.04.051.122zm-2.044.486a.44.44 0 0 1-.202.163.67.67 0 0 1-.488.007.2.2 0 0 1-.074-.044.14.14 0 0 1-.061.068.18.18 0 0 1-.197-.024.15.15 0 0 1-.054-.122v-1.806q0-.086.052-.128a.18.18 0 0 1 .113-.041q.06 0 .112.041.052.042.052.128v1.35q0 .052.009.105a.2.2 0 0 0 .039.093q.03.041.087.067t.156.026a.22.22 0 0 0 .128-.032 1 1 0 0 0 .072-.059.19.19 0 0 1 .134-.061q.066 0 .113.044a.14.14 0 0 1 .048.113.2.2 0 0 1-.039.112M-18.912 0h-.782v.219q0 .158.111.264a.37.37 0 0 0 .263.107h.043q.143 0 .254-.107a.36.36 0 0 0 .111-.269zm.33.217a.72.72 0 0 1-.204.503.707.707 0 0 1-.495.2h-.044a.69.69 0 0 1-.644-.427.7.7 0 0 1-.054-.272v-.746a.69.69 0 0 1 .204-.493.69.69 0 0 1 .494-.202h.044q.221 0 .388.115a.67.67 0 0 1 .245.298q.018.03.018.073a.16.16 0 0 1-.052.122.17.17 0 0 1-.117.048.16.16 0 0 1-.083-.024.16.16 0 0 1-.061-.081.43.43 0 0 0-.128-.156.34.34 0 0 0-.21-.065h-.044a.36.36 0 0 0-.26.108.35.35 0 0 0-.109.258v.22h.947q.069 0 .117.05a.16.16 0 0 1 .048.115zM-20.66-.947q-.037.048-.115.057a.3.3 0 0 0-.176.072.21.21 0 0 0-.076.175v1.22h.234q.082 0 .124.052a.2.2 0 0 1 .041.113.18.18 0 0 1-.041.113q-.042.052-.124.052h-.234v.755q0 .082-.052.124a.2.2 0 0 1-.113.041.18.18 0 0 1-.113-.041q-.052-.042-.052-.124V.907h-.152q-.082 0-.124-.052a.18.18 0 0 1-.041-.113q0-.06.041-.113.042-.052.124-.052h.152V-.651a.57.57 0 0 1 .165-.404.56.56 0 0 1 .404-.165q.086 0 .125.051a.18.18 0 0 1 .039.112.18.18 0 0 1-.036.11M-22.286.221a.8.8 0 0 1-.057.311.61.61 0 0 1-.373.347.9.9 0 0 1-.265.041h-.039a.6.6 0 0 1-.212-.035.4.4 0 0 1-.161-.095.15.15 0 0 1-.061.098.18.18 0 0 1-.221-.011.15.15 0 0 1-.052-.122v-1.814q0-.083.052-.122a.184.184 0 0 1 .226 0q.052.04.052.122v1.28q0 .157.11.263a.36.36 0 0 0 .261.106h.039a.36.36 0 0 0 .263-.108.36.36 0 0 0 .108-.261v-1.28q0-.083.053-.122a.2.2 0 0 1 .114-.039.18.18 0 0 1 .112.039q.051.04.051.122zm-2.318 1.441q0 .082-.052.124a.2.2 0 0 1-.113.041.18.18 0 0 1-.113-.041q-.052-.042-.052-.124v-2.721q0-.083.052-.122a.184.184 0 0 1 .226 0q.052.04.052.122zm-2.474-.955a.43.43 0 0 1-.202.163.66.66 0 0 1-.488.007.2.2 0 0 1-.074-.044.13.13 0 0 1-.06.068.181.181 0 0 1-.198-.024.15.15 0 0 1-.054-.122v-1.806q0-.086.052-.128a.18.18 0 0 1 .113-.041q.06 0 .113.041.051.042.052.128v1.35q0 .052.008.105a.22.22 0 0 0 .126.16q.057.026.157.026a.23.23 0 0 0 .128-.032 1 1 0 0 0 .071-.059.2.2 0 0 1 .135-.061q.065 0 .113.044a.15.15 0 0 1 .047.113.2.2 0 0 1-.039.112m-1.85.048q0 .082-.052.124a.2.2 0 0 1-.113.041.18.18 0 0 1-.113-.041q-.052-.041-.052-.123V-.522a.35.35 0 0 0-.109-.26.36.36 0 0 0-.264-.108h-.039a.36.36 0 0 0-.261.108.36.36 0 0 0-.108.26V.756q0 .082-.052.123a.2.2 0 0 1-.113.041.18.18 0 0 1-.113-.041q-.052-.042-.052-.124v-1.28q0-.183.056-.313a.6.6 0 0 1 .152-.215.6.6 0 0 1 .224-.126.9.9 0 0 1 .267-.041h.039q.113 0 .212.033.1.033.161.095a.14.14 0 0 1 .061-.097.183.183 0 0 1 .217.01.15.15 0 0 1 .052.12zm-.959.907q0 .082-.053.124a.18.18 0 0 1-.112.041.18.18 0 0 1-.113-.041q-.052-.042-.052-.124v-.095q0-.083.052-.124a.18.18 0 0 1 .113-.041q.06 0 .112.041t.053.124zm.798 0q0 .082-.054.124a.2.2 0 0 1-.115.041.17.17 0 0 1-.111-.041q-.05-.042-.05-.124v-.095q0-.083.052-.124a.2.2 0 0 1 .113-.041.18.18 0 0 1 .113.041q.052.041.052.124zm-1.931.113q-.042.052-.124.052a.56.56 0 0 1-.401-.163.5.5 0 0 1-.117-.182.6.6 0 0 1-.042-.228V.907h-.095q-.082 0-.124-.052a.18.18 0 0 1-.041-.113q0-.06.041-.113.042-.052.124-.052h.095v-1.636q0-.083.052-.122a.184.184 0 0 1 .226 0q.052.04.052.122V.577h.204q.082 0 .124.052a.2.2 0 0 1 .041.113.2.2 0 0 1-.039.113q-.039.052-.126.052h-.204v.347q0 .1.063.172a.21.21 0 0 0 .167.071q.082 0 .124.052a.2.2 0 0 1 .041.113.18.18 0 0 1-.041.113" style="fill:#000;fill-opacity:1;fill-rule:nonzero;stroke:none" transform="matrix(1.25 0 0 -1.25 79.483 13.972)"/><path d="M0 0q-.037.048-.115.057a.3.3 0 0 0-.176.072.21.21 0 0 0-.075.175v1.22h.234q.082 0 .123.052a.18.18 0 0 1 .042.113q0 .06-.042.113-.041.052-.123.052h-.234v.755q0 .082-.053.124a.18.18 0 0 1-.112.041.18.18 0 0 1-.113-.041q-.052-.042-.052-.124v-.755h-.152q-.082 0-.124-.052a.2.2 0 0 1-.041-.113.18.18 0 0 1 .041-.113q.042-.052.124-.052h.152V.296a.57.57 0 0 1 .165-.404.566.566 0 0 1 .403-.165q.087 0 .126.051A.18.18 0 0 1 0 0m-1.424 2.722q-.04.052-.123.052a.6.6 0 0 1-.224-.043.528.528 0 0 1-.295-.302.6.6 0 0 1-.041-.228v-.347h-.095q-.082 0-.124-.052a.18.18 0 0 1 0-.226q.042-.052.124-.052h.095V-.112q0-.083.052-.122a.184.184 0 0 1 .226 0q.052.04.052.122v1.636h.204q.083 0 .123.052a.176.176 0 0 1 .003.226q-.039.052-.126.052h-.204v.347q0 .1.063.172a.21.21 0 0 0 .167.071q.082 0 .123.052a.18.18 0 0 1 .042.113.18.18 0 0 1-.042.113M-3.427.426a.35.35 0 0 0-.111-.263.37.37 0 0 0-.263-.106h-.039a.4.4 0 0 0-.266.083.27.27 0 0 0-.103.221v.035q0 .113.077.173.075.062.193.096.117.035.254.054.136.02.258.05zm.549-.436a.16.16 0 0 1-.107.058q-.112.023-.112.144v1.007a.66.66 0 0 1-.413.616.7.7 0 0 1-.268.052h-.031a1 1 0 0 1-.178-.02.7.7 0 0 1-.341-.188.7.7 0 0 1-.127-.196.15.15 0 0 1-.018-.078q0-.069.052-.111a.18.18 0 0 1 .113-.041.2.2 0 0 1 .082.02.15.15 0 0 1 .065.067.5.5 0 0 0 .14.163.36.36 0 0 0 .212.054h.031a.4.4 0 0 0 .247-.078q.104-.078.104-.273l-.002-.04a.1.1 0 0 0-.011-.034q-.026-.034-.119-.055l-.216-.041A3 3 0 0 1-4.031.96a1 1 0 0 1-.247-.102.496.496 0 0 1-.26-.458V.348a.58.58 0 0 1 .219-.464.7.7 0 0 1 .223-.118.9.9 0 0 1 .256-.039h.039a.7.7 0 0 1 .469.17.4.4 0 0 1 .113-.105.5.5 0 0 1 .182-.06q.004-.005.031-.005.078 0 .119.05a.17.17 0 0 1 .009.213m-2.328 1.178a.69.69 0 0 1-.204.495.7.7 0 0 1-.495.204h-.035a.7.7 0 0 1-.217-.035.4.4 0 0 1-.16-.095v.872q0 .082-.052.124a.2.2 0 0 1-.113.041.2.2 0 0 1-.113-.041q-.052-.042-.052-.124V-.112q0-.083.052-.122a.2.2 0 0 1 .113-.039q.06 0 .113.039.051.04.052.122V1.19q0 .083.035.147a.35.35 0 0 0 .215.178.48.48 0 0 0 .284 0 .4.4 0 0 0 .126-.067.3.3 0 0 0 .089-.115.4.4 0 0 0 .032-.165v-1.28q0-.083.052-.122a.2.2 0 0 1 .113-.039q.06 0 .113.039.051.04.052.122zM-7.393.554a.18.18 0 0 1-.113.041.17.17 0 0 1-.111-.041q-.05-.04-.054-.128a.4.4 0 0 0-.113-.26.34.34 0 0 0-.256-.109h-.039a.36.36 0 0 0-.265.108.36.36 0 0 0-.108.26v.744q0 .152.108.26a.36.36 0 0 0 .26.108h.044a.35.35 0 0 0 .256-.104.4.4 0 0 0 .113-.269q.005-.083.054-.122a.18.18 0 0 1 .111-.039q.06 0 .113.041.051.042.052.124a.7.7 0 0 1-.057.271.696.696 0 0 1-.642.428h-.044a.702.702 0 0 1-.642-.423.7.7 0 0 1-.056-.276V.422a.69.69 0 0 1 .204-.493.71.71 0 0 1 .494-.202h.044a.7.7 0 0 1 .495.205.69.69 0 0 1 .204.494q0 .087-.052.128M-9.448.351a.6.6 0 0 1-.084.333.6.6 0 0 1-.209.188 1 1 0 0 1-.271.1 7 7 0 0 0-.271.065.8.8 0 0 0-.209.087q-.084.054-.084.166v.013q.004.096.1.165a.47.47 0 0 0 .277.069h.018a.5.5 0 0 0 .229-.041l.153-.076a.2.2 0 0 1 .095-.026q.07 0 .113.048a.15.15 0 0 1 .043.108q0 .079-.06.128l-.076.055a.7.7 0 0 1-.122.061 1 1 0 0 1-.165.051 1 1 0 0 1-.206.022h-.017q-.105 0-.228-.028a.8.8 0 0 1-.23-.093.6.6 0 0 1-.18-.171.44.44 0 0 1-.074-.262q0-.204.084-.314a.6.6 0 0 1 .209-.171q.123-.061.271-.089.147-.028.271-.067a.6.6 0 0 0 .209-.106q.085-.067.085-.206V.347q-.005-.108-.111-.199t-.306-.091h-.022a.45.45 0 0 0-.247.083.8.8 0 0 0-.209.191.16.16 0 0 1-.069.058.2.2 0 0 1-.078.015.18.18 0 0 1-.118-.043.15.15 0 0 1-.052-.117.4.4 0 0 1 .022-.083.8.8 0 0 1 .317-.317 1 1 0 0 1 .21-.086.8.8 0 0 1 .215-.031h.026q.135 0 .269.039a.8.8 0 0 1 .243.115q.11.075.174.188a.5.5 0 0 1 .065.264zm-2.143-.347q-.039.054-.126.053a.25.25 0 0 0-.17.074.23.23 0 0 0-.069.169v2.309q0 .082-.052.124a.18.18 0 0 1-.113.041.2.2 0 0 1-.113-.041q-.051-.042-.052-.124V.296a.57.57 0 0 1 .165-.404.56.56 0 0 1 .404-.165q.087 0 .126.051a.18.18 0 0 1 .039.112.2.2 0 0 1-.039.114m-1.363 0q-.039.054-.126.053a.25.25 0 0 0-.169.074.23.23 0 0 0-.07.169v2.309q0 .082-.052.124a.18.18 0 0 1-.113.041.18.18 0 0 1-.112-.041q-.052-.042-.052-.124V.296a.57.57 0 0 1 .164-.404.57.57 0 0 1 .404-.165q.087 0 .126.051a.18.18 0 0 1 .039.112.2.2 0 0 1-.039.114m-1.763.943h-.781v.218q0 .158.111.265a.36.36 0 0 0 .262.107h.044q.143 0 .253-.107a.36.36 0 0 0 .111-.269zm.33.217a.7.7 0 0 1-.428.651.7.7 0 0 1-.271.052h-.043a.69.69 0 0 1-.495-.204.7.7 0 0 1-.204-.495V.422a.69.69 0 0 1 .204-.493.71.71 0 0 1 .495-.202h.043a.67.67 0 0 1 .634.413q.017.03.017.073 0 .075-.052.122a.17.17 0 0 1-.117.048.16.16 0 0 1-.083-.024.15.15 0 0 1-.06-.081.44.44 0 0 0-.128-.156.34.34 0 0 0-.211-.065h-.043a.36.36 0 0 0-.261.108.35.35 0 0 0-.108.258v.22h.946q.069 0 .117.05a.16.16 0 0 1 .048.115zm-2.105-.813a.6.6 0 0 1-.084.333.6.6 0 0 1-.208.188 1 1 0 0 1-.272.1 7 7 0 0 0-.271.065.7.7 0 0 0-.208.087q-.085.054-.085.166v.013q.004.096.1.165a.47.47 0 0 0 .278.069h.017a.5.5 0 0 0 .23-.041l.152-.076a.2.2 0 0 1 .095-.026q.07 0 .113.048a.16.16 0 0 1 .044.108.16.16 0 0 1-.061.128.66.66 0 0 1-.198.116 1 1 0 0 1-.164.051 1 1 0 0 1-.207.022h-.017q-.104 0-.228-.028a.8.8 0 0 1-.23-.093.6.6 0 0 1-.18-.171.45.45 0 0 1-.074-.262q0-.204.085-.314a.6.6 0 0 1 .208-.171q.124-.061.271-.089a3 3 0 0 0 .272-.067.6.6 0 0 0 .208-.106q.084-.067.085-.206V.347q-.005-.108-.111-.199-.107-.091-.306-.091h-.022a.45.45 0 0 0-.247.083.8.8 0 0 0-.208.191.16.16 0 0 1-.07.058.2.2 0 0 1-.078.015.18.18 0 0 1-.117-.043.14.14 0 0 1-.052-.117q0-.018.022-.083a.7.7 0 0 1 .134-.181.8.8 0 0 1 .182-.136 1 1 0 0 1 .211-.086.8.8 0 0 1 .215-.031h.026q.134 0 .269.039.134.039.243.115.108.075.173.188a.5.5 0 0 1 .065.264zm-2.493.596h-.781v.218q0 .158.111.265a.36.36 0 0 0 .262.107h.044q.143 0 .253-.107a.36.36 0 0 0 .111-.269zm.33.217a.685.685 0 0 1-.699.703h-.043a.69.69 0 0 1-.495-.204.7.7 0 0 1-.204-.495V.422a.69.69 0 0 1 .204-.493.71.71 0 0 1 .495-.202h.043a.67.67 0 0 1 .634.413q.017.03.017.073 0 .075-.052.122a.17.17 0 0 1-.117.048.15.15 0 0 1-.082-.024.15.15 0 0 1-.061-.081.44.44 0 0 0-.128-.156.34.34 0 0 0-.211-.065h-.043a.36.36 0 0 0-.26.108.35.35 0 0 0-.109.258v.22h.946q.069 0 .117.05a.16.16 0 0 1 .048.115zm-2.203.056a.16.16 0 0 1-.049.115.16.16 0 0 1-.115.05h-.621q-.082 0-.124-.052a.18.18 0 0 1-.041-.113q0-.06.041-.113.042-.051.124-.052h.456V.55a.48.48 0 0 0-.146-.348.476.476 0 0 0-.349-.145h-.044a.48.48 0 0 0-.349.145.476.476 0 0 0-.145.349v1.404q0 .1.039.188a.5.5 0 0 0 .262.262q.09.039.193.039h.044q.213 0 .336-.121a.57.57 0 0 0 .159-.304.16.16 0 0 1 .06-.107.178.178 0 0 1 .217.009.14.14 0 0 1 .052.119v.027a.81.81 0 0 1-.527.653.8.8 0 0 1-.297.054h-.044a.82.82 0 0 1-.583-.241.82.82 0 0 1-.241-.584V.548a.81.81 0 0 1 .503-.758.8.8 0 0 1 .321-.063h.044a.83.83 0 0 1 .584.237q.11.11.175.26.066.15.065.324zm-4.17-.273h-.781v.218q0 .158.11.265a.37.37 0 0 0 .263.107h.043q.143 0 .254-.107a.36.36 0 0 0 .111-.269zm.33.217a.7.7 0 0 1-.428.651.7.7 0 0 1-.271.052h-.043a.695.695 0 0 1-.699-.699V.422a.69.69 0 0 1 .204-.493.7.7 0 0 1 .495-.202h.043q.221 0 .388.115a.67.67 0 0 1 .246.298q.017.03.017.073 0 .075-.052.122a.17.17 0 0 1-.117.048.16.16 0 0 1-.083-.024.16.16 0 0 1-.061-.081.4.4 0 0 0-.128-.156.34.34 0 0 0-.21-.065h-.043a.36.36 0 0 0-.261.108.35.35 0 0 0-.108.258v.22h.946q.069 0 .117.05a.16.16 0 0 1 .048.115zm-2.152.004a.69.69 0 0 1-.204.495.7.7 0 0 1-.494.204h-.035a.7.7 0 0 1-.217-.035.4.4 0 0 1-.161-.095v.872q0 .082-.052.124a.18.18 0 0 1-.113.041.18.18 0 0 1-.112-.041q-.053-.042-.053-.124V-.112q0-.083.053-.122a.18.18 0 0 1 .225 0q.052.04.052.122V1.19q0 .083.035.147a.36.36 0 0 0 .215.178.5.5 0 0 0 .284 0 .4.4 0 0 0 .126-.067.3.3 0 0 0 .089-.115.4.4 0 0 0 .032-.165v-1.28q0-.083.053-.122a.18.18 0 0 1 .225 0q.052.04.052.122zm-2.229-.614a.18.18 0 0 1-.113.041.17.17 0 0 1-.11-.041q-.05-.04-.055-.128a.4.4 0 0 0-.113-.26.34.34 0 0 0-.256-.109h-.039a.36.36 0 0 0-.264.108.35.35 0 0 0-.109.26v.744q0 .152.109.26a.36.36 0 0 0 .26.108h.043a.35.35 0 0 0 .256-.104.4.4 0 0 0 .113-.269q.004-.083.055-.122a.174.174 0 0 1 .223.002q.052.042.052.124a.7.7 0 0 1-.056.271.8.8 0 0 1-.15.224.68.68 0 0 1-.493.204h-.043a.69.69 0 0 1-.493-.202.7.7 0 0 1-.206-.497V.422a.69.69 0 0 1 .204-.493.71.71 0 0 1 .495-.202h.043a.7.7 0 0 1 .495.205.68.68 0 0 1 .204.494q0 .087-.052.128m-2.055-.203a.6.6 0 0 1-.084.333.6.6 0 0 1-.209.188 1 1 0 0 1-.271.1 7 7 0 0 0-.271.065.7.7 0 0 0-.208.087q-.085.054-.085.166v.013q.004.096.1.165a.47.47 0 0 0 .278.069h.017a.5.5 0 0 0 .23-.041l.152-.076a.2.2 0 0 1 .095-.026q.07 0 .113.048a.16.16 0 0 1 .044.108.16.16 0 0 1-.061.128.66.66 0 0 1-.198.116 1 1 0 0 1-.164.051 1 1 0 0 1-.207.022h-.017q-.104 0-.228-.028a.8.8 0 0 1-.23-.093.6.6 0 0 1-.18-.171.45.45 0 0 1-.074-.262q0-.204.085-.314a.6.6 0 0 1 .208-.171q.124-.061.271-.089a3 3 0 0 0 .272-.067.6.6 0 0 0 .208-.106q.084-.067.085-.206V.347q-.004-.108-.111-.199-.106-.091-.306-.091h-.022a.45.45 0 0 0-.247.083.8.8 0 0 0-.208.191.16.16 0 0 1-.07.058.2.2 0 0 1-.078.015.18.18 0 0 1-.117-.043.14.14 0 0 1-.052-.117.4.4 0 0 1 .021-.083.7.7 0 0 1 .135-.181.8.8 0 0 1 .182-.136 1 1 0 0 1 .211-.086.8.8 0 0 1 .215-.031h.026q.134 0 .269.039.134.039.243.115.108.075.173.188a.5.5 0 0 1 .065.264zM-33.273 0q-.037.048-.115.057a.3.3 0 0 0-.175.072.21.21 0 0 0-.076.175v1.22h.234q.082 0 .124.052a.18.18 0 0 1 .041.113q0 .06-.041.113-.042.052-.124.052h-.234v.755q0 .082-.052.124a.2.2 0 0 1-.113.041.18.18 0 0 1-.113-.041q-.052-.042-.052-.124v-.755h-.152q-.082 0-.124-.052a.2.2 0 0 1-.041-.113.18.18 0 0 1 .041-.113q.042-.052.124-.052h.152V.296a.57.57 0 0 1 .165-.404.56.56 0 0 1 .403-.165q.087 0 .126.051a.18.18 0 0 1 .002.222m-1.683 1.702q0 .082-.052.124a.2.2 0 0 1-.113.041.18.18 0 0 1-.113-.041q-.052-.042-.052-.124V.425a.36.36 0 0 0-.108-.26.36.36 0 0 0-.265-.108h-.039a.36.36 0 0 0-.261.108.36.36 0 0 0-.108.26v1.277q0 .082-.052.124a.2.2 0 0 1-.113.041.18.18 0 0 1-.113-.041q-.052-.042-.052-.124V.422q0-.183.056-.313a.6.6 0 0 1 .152-.215.6.6 0 0 1 .224-.125.9.9 0 0 1 .267-.042h.039q.113 0 .212.033.1.033.161.095a.14.14 0 0 1 .061-.097.2.2 0 0 1 .104-.031q.06 0 .113.042a.14.14 0 0 1 .052.119zm-2.465-.755h-.781v.218q0 .158.111.265a.36.36 0 0 0 .262.107h.044q.143 0 .254-.107a.36.36 0 0 0 .11-.269zm.33.217a.685.685 0 0 1-.699.703h-.043a.69.69 0 0 1-.495-.204.686.686 0 0 1-.204-.495V.422a.69.69 0 0 1 .204-.493.71.71 0 0 1 .495-.202h.043a.67.67 0 0 1 .634.413q.018.03.017.073 0 .075-.052.122a.17.17 0 0 1-.117.048.15.15 0 0 1-.082-.024.15.15 0 0 1-.061-.081.44.44 0 0 0-.128-.156.34.34 0 0 0-.211-.065h-.043a.36.36 0 0 0-.261.108.35.35 0 0 0-.108.258v.22h.946q.069 0 .117.05a.16.16 0 0 1 .048.115zm-2.534-.59a.48.48 0 0 0-.145-.35.5.5 0 0 0-.156-.106.5.5 0 0 0-.192-.039h-.536v2.339h.54a.47.47 0 0 0 .346-.145.5.5 0 0 0 .104-.157.5.5 0 0 0 .039-.193zm.329 1.354a.8.8 0 0 1-.065.319.9.9 0 0 1-.175.26.9.9 0 0 1-.261.176.8.8 0 0 1-.319.065h-.703a.16.16 0 0 1-.115-.05.16.16 0 0 1-.05-.115V-.086a.16.16 0 0 1 .05-.115.16.16 0 0 1 .115-.05h.703q.17 0 .319.065a.83.83 0 0 1 .436.438.8.8 0 0 1 .065.322z" style="fill:#000;fill-opacity:1;fill-rule:nonzero;stroke:none" transform="matrix(1.25 0 0 -1.25 91.002 9.227)"/></svg>