<svg height="98" viewBox="0 0 424 98" width="424" xmlns="http://www.w3.org/2000/svg"><g fill="#000"><path d="m76.66 87.22-.09.46s-.29-.06-.42-.07h-.4c-20.86-1.95-42.8-2-60.28-.18-.68 2.65-1.27 5.17-1.76 7.52 9.95-1.29 19.97-1.89 30-1.81 13.37 0 26.73.82 40 2.43 3.58-23.59 11.51-55.61 23.16-75.79-2.72-.23-5.57-.42-8.48-.59-9.7 18.69-17.39 42.71-21.66 67.62 0 0-.07.41-.07.41z"/><path d="m20.31 55.42h-.15l-2.35.12-5.27.3c-.25.86-.51 1.73-.76 2.61-.8 2.81-1.57 5.71-2.3 8.65l1.77-.1h.37l2.13-.16h.09l2.44-.16h.66l2.15-.13c.93-3.8 1.93-7.52 3-11.08 0 0-1.78-.05-1.78-.05z"/><path d="m10.05 56c-3.67.24-6.22.45-7.17.53-1.16 4.06-2.13 7.95-2.88 11.56 1.74-.24 3.92-.48 6.5-.72l1.32-.12c.95-3.87 2-7.67 3-11.3 0 0-.77.05-.77.05z"/><path d="m19.06 33c-3.94.25-6.82.48-8.13.59-1.34 3.21-2.62 6.52-3.82 9.88 1.38-.12 3.94-.31 7.3-.53h.76c1.23-3.48 2.54-6.81 3.89-9.94z"/><path d="m14.59 44.46c-4.05.26-6.92.49-8.06.59-1.16 3.32-2.23 6.63-3.18 9.86 1.29-.11 3.68-.29 6.88-.5l1.12-.08c1.02-3.33 2.11-6.67 3.24-9.87z"/><path d="m46.77 20.52c-3 .06-6.17.15-9.36.27-1.63 3.14-3.21 6.46-4.71 9.88 2-.08 4.06-.14 6.1-.19l3.32-.07c1.48-3.41 3.04-6.73 4.65-9.89z"/><path d="m22.44 44c-2.22.11-4.28.22-6.13.34-1.15 3.2-2.25 6.52-3.28 9.88 1.54-.1 3.2-.19 5-.28l2.35-.12h.12l2.09-.09c1-3.37 2.11-6.69 3.25-9.89 0 0-3.4.16-3.4.16z"/><path d="m34.76 43.54h-.16c-2.35.05-4.74.13-7.1.23-1.15 3.2-2.25 6.52-3.28 9.89l2.43-.09 3.3-.1h.65l3.16-.07c1-3.37 2.1-6.7 3.23-9.9z"/><path d="m48 30.36c1.84 0 3.62 0 5.33.05 1.47-3.41 3.04-6.76 4.67-9.93h-9.42c-1.63 3.15-3.21 6.47-4.71 9.9 0 0 4.13-.02 4.13-.02z"/><path d="m59.73 13.73-.06-.07-.07-.12-.79-1.15-.81-1.11-.26-.37c-.19-.26-.36-.5-.5-.68l-.2-.25c-.09-.12-.17-.21-.23-.3s-.12-.18-.17-.28c-.04-.09-.08-.19-.1-.29v-.11h-1.38c-.51.79-1 1.64-1.58 2.53s-1.11 1.85-1.68 2.83l-1.36 2.42-.48.88-.27.5-.4.74h9.37c.64-1.23 1.28-2.42 2-3.64l-.46-.7v-.11s-.57-.72-.57-.72z"/><path d="m40.21 53.33h4.74c1-3.38 2.11-6.71 3.25-9.92h-9.52c-1.14 3.21-2.24 6.54-3.27 9.91 1.59.02 3.24 0 4.8 0z"/><path d="m11.62 31.9c1.61-.13 4.3-.34 7.77-.56h.37c1.48-3.4 3-6.7 4.64-9.85-4.22.28-7.23.52-8.24.61-1.55 3.06-3.07 6.36-4.54 9.8z"/><path d="m43.17 32c-1.37 3.19-2.68 6.52-3.92 9.91h9.51c1.23-3.4 2.53-6.73 3.88-9.92-2.99-.06-6.17-.06-9.47.01z"/><path d="m35.6 20.87c-3.08.13-6.23.3-9.37.49-1.62 3.14-3.2 6.45-4.7 9.85 2.2-.13 4.43-.25 6.64-.35l2.83-.12c1.43-3.41 3-6.74 4.6-9.87z"/><path d="m37.56 41.9c1.23-3.38 2.53-6.71 3.88-9.9l-3 .07c-2.15 0-4.3.12-6.41.2-1.37 3.2-2.68 6.52-3.92 9.9l4.04-.17h2.85z"/><path d="m66.59 40.72v-1.53c-.03-.16-.07-.32-.12-.47-.03-.09-.08-.17-.13-.25s-.12-.16-.19-.23c-.1-.1-.22-.19-.35-.26l-.25-.11c-.26-.1-.5-.16-.75-.23l-.45-.13h-.16l-.31-.12h-.07l-.28-.14-.39 1c-.56 1.43-1.1 2.87-1.62 4.29 1.47.11 2.93.25 4.35.41.04-.08.08-.16.11-.25l.12-.26v-.06l.2-.58v-.07l.15-.6v-.1c.06-.1.1-.2.14-.31z"/><path d="m27.89 32.45c-2.37.12-4.74.24-7.07.39-1.37 3.19-2.69 6.51-3.93 9.89 1.77-.11 3.71-.21 5.77-.32l1.78-.08h.36l1.57-.07c1.23-3.38 2.54-6.71 3.89-9.89h-.93z"/><path d="m37.57 17.13c.25-.46.5-.91.75-1.35l.24-.43c.31-.56.62-1.1.93-1.63s.68-1.17 1-1.72c.54-.9 1.08-1.77 1.61-2.61h-1l-4.77.24-3.42.2-.21.34-.67 1v.08l-.63 1-.12.19-.59 1-.19.31-.55.92-.27.48-.49.84-1.58 2.85-.43.8c2.65-.16 5.3-.3 7.9-.41l1.45-.06c.29-.56.58-1.1.86-1.63 0 0 .18-.41.18-.41z"/><path d="m34 8.22 1.57-.08 7.64-.38.44-.67v-.08l.52-.76v-.06l.5-.74.53-.75c1.47-2.09 2.68-3.63 3.49-4.61-3 .1-6 .26-9 .47-2.07 2.42-3.97 4.98-5.69 7.66z"/><path d="m42.43 11.87-.74 1.22-1.37 2.35c-.23.39-.46.8-.69 1.22l-.24.43-.53 1-.23.43c-.13.23-.25.46-.37.69 3.22-.12 6.35-.21 9.34-.25l.63-1.2.26-.49c.17-.3.33-.6.49-.9l1.37-2.43c.55-1 1.09-1.89 1.61-2.76v-.07c.2-.34.4-.66.59-1l.72-1.11c-3 .06-6.07.15-9.24.28-.46.71-.94 1.48-1.43 2.28 0 0-.17.31-.17.31z"/><path d="m17 20.43c1.59-.13 4.48-.35 8.24-.59l.64-1.21.74-1.36c1.41-2.55 2.85-5 4.29-7.28-4.28.28-7.27.53-8.25.61-1.88 2.92-3.79 6.22-5.66 9.83z"/><path d="m29.75 1.46c-2.21 2.31-4.21 4.81-6 7.46 1.63-.13 4.51-.35 8.19-.58 1.73-2.64 3.59-5.19 5.59-7.63-2.85.22-5.46.47-7.78.75z"/><path d="m23.56 66.18h.16l1.87-.08h.34l1.78-.1h2.58c.92-3.75 1.91-7.43 3-11l-2.87.07h-.69l-3.32.11-2.66.1c-1.06 3.54-2.07 7.26-3 11.06l1-.06s1.81-.1 1.81-.1z"/><path d="m51.6 47.12c.51-.4.66-1 .54-1.92v-.53c-.06-.29-.1-.59-.11-.89v-.24l-2.11-.06c-1.14 3.21-2.24 6.54-3.27 9.92h.84l.1-.15.18-.3v-.13l.23-.32v-.08l.2-.4v-.12c0-.09.09-.18.12-.27v-.17l.68-1.89v-.58c.11-.57.5-.74.92-.91.61-.23 1.17-.55 1.68-.96z"/><path d="m29.84 67.8h-1.67l-2.31.08-1.8.08-4.4.23-1.85.12-4.45.3c-2.45.19-4.79.38-6.94.59-.72 2.77-1.35 5.44-1.88 8 1.74-.25 3.88-.5 6.23-.74l2-.19h.14c1.4-.13 2.84-.25 4.32-.36l1.42-.11 1.78-.12.83-.05 1.78-.1h.85l1.82-.08h.88l1.88-.06v-.27c.02-1.03.22-2.05.61-3 .51-1.44 1.35-2.74 2.44-3.8.19-.18.38-.36.55-.56l-1.28.06s-.95-.02-.95-.02z"/><path d="m64 20.64c-1.42-.05-2.86-.1-4.29-.13-1.61 3.16-3.19 6.49-4.71 9.93 3 .07 5.81.2 8.5.37.28-.25.5-.56.67-.89.42-.89.7-1.84.83-2.81.03-.15.05-.29.06-.44 0-.29.08-.57.1-.85v-.4c.01-.23.01-.47 0-.7v-.94l-.06-.29v-.22c0-.14-.07-.26-.11-.38l-.06-.17c0-.15-.1-.31-.16-.47l-.37-.93s-.4-.68-.4-.68z"/><path d="m50.43 41.92c.9 0 1.81 0 2.71.08.52-.56 1.23-.92 2-1h.41c.33.1.43.27.46.38.06.2.02.41-.12.57v.06l-.06.11c1.43.06 2.8.14 4.1.23.39-1.06.77-2.09 1.16-3.11s.75-1.94 1.12-2.88l-.19-.1-.38-.19c-.34-.16-.66-.38-.94-.64-.11-.11-.22-.24-.3-.37-.19-.3-.3-.65-.32-1-.03-.19-.03-.39 0-.58v-.15c.03-.13.07-.25.13-.37.03-.06.07-.12.11-.18.05-.09.12-.18.19-.26l.14-.14.14-.12c-2.08-.11-4.25-.19-6.48-.24-1.31 3.18-2.65 6.51-3.88 9.9z"/><path d="m57.72 45.22.28-.22.11-.09c.35-.32.74-.6 1.15-.83l.07-.2-2-.12v.47l.15.57c0 .07.05.13.07.19v.07c.12.05.15.11.17.16z"/><path d="m62.24 17c-.05-.12-.08-.24-.09-.37v-.17c-.09.01-.19.01-.28 0-.47.84-.91 1.66-1.35 2.49l2.81.08c-.3-.61-.58-1.09-.79-1.44s-.23-.43-.3-.59z"/><path d="m45.76 6.71-.57.84-.09.14c3.16-.12 6.24-.2 9.19-.25.39-.59.76-1.15 1.12-1.68l-.12-.17-.2-.28-.23-.31-.29-.3c-.09 0-.38-.71-.38-.72-.58-1.3-1.32-2.53-2.19-3.66-.11-.12-.24-.23-.38-.32h-.76c-1.63 1.89-3.16 3.87-4.56 5.93v.07z"/><path d="m41.06 59.34 1.13-.9 1.66-1.33c.21-.73.42-1.46.63-2.17h-9.54c-1 3.5-2 7.16-3 10.91h1.49l.27-.43c.5-1.08 1.33-1.98 2.37-2.56l.32-.14.11-.06.32-.18.1-.06 1.57-1z"/><path d="m66.66 18.5c.09.05.18.09.27.13.59.31 1.07.79 1.4 1.37.13.22.29.42.46.61-.07-.23-.16-.45-.27-.66-.26-.45-.43-.94-.52-1.45v-.23c0-.4 0-1.73.66-2h.2c.26.01.5.16.63.39.07.1.19.15.41.23.59.13 1.04.59 1.17 1.18v.19c.28 1.74.74 3.45 1.39 5.09.32.5 2.78 1.34 4 1.74l1.08.38c.6.23 1.28-.39 2-1 .38-.38.83-.71 1.31-.95l.38-.14.38-.12.26-.07h1.48c2.35-5.3 4.97-10.47 7.86-15.49l1.06-1.81c-11.71-.96-23.46-1.29-35.2-1 .22.33.49.62.8.86.19.16.4.34.61.55.32.28.71.48 1.12.58 1.05.34 2.04.84 2.95 1.47.53.34 1.02.74 1.45 1.2.11.13.21.26.3.4l.06.08c.15.25.27.51.34.79v.08c.04.25.04.49 0 .74v.08c-.02.22-.05.43-.11.64l-.1.36c0 .21 0 .35.44.78.73.65 1.11 1.61 1 2.58-.14.67-.07 1.37.2 2 .03.06.07.11.12.15.05.05.1.1.15.14h.06c.06.06.12.1.2.13z"/><path d="m83.25 23.61.01-.02h-.01z"/><path d="m61.75 44.33h.08c.26-.06.53 0 .74.15.14.13.21.31.21.5-.02.35-.12.69-.29 1-.2.39-.33.83-.36 1.27 0 .22.09.29.43.44s.71.31.6.83c-.21.57-.52 1.11-.9 1.58l-.2.29c-.3.45-.64.88-1 1.29-.51.52-.94 1.12-1.27 1.78v.1c-.79 1.44-1.61 3.06-2.93 3.66-.69.3-.68.56-.64 1.25v.5c0 .17 0 .16.5.34.69.14 1.21.7 1.32 1.39.11.48-.06.99-.45 1.3-.67.32-1.46.29-2.1-.08-.39-.19-.49-.16-1.43.12l-1.12.33c-1.65.63-2.95 1.93-3.58 3.57-.12.47-.21.95-.25 1.44-.2 2.41-.97 4.75-2.23 6.81-2.8 4.41-6 5.09-6.88 5.19-1.31.2-2.64-.11-3.73-.85-.3-.13-.62-.17-.94-.12-.47 0-1 0-1.27-.4-.34-.29-.78-.41-1.22-.34h-.08c-1.13.4-2.4.21-3.36-.51l-2.49.08h-.78l-2 .09h-.76l-2.14.13h-.65l-2.43.16h-.15c-2.43.18-4.78.38-7 .6-.72 2.81-1.35 5.5-1.88 8 2-.29 4.06-.54 6.21-.77 1-.11 2.09-.22 3.15-.31h.26l3.13-.14h.28c1.09-.08 2.2-.16 3.32-.22 2.29-.14 4.64-.25 7-.33h.33l3.4-.09h11.8c1.16 0 2.32.02 3.48.06h.54l3.51.1h.41l3.63.15h.06l3.62.19h.53l3.46.22h.63l3.47.26h.51l3.19.27c.23-1.3.47-2.59.71-3.88l.12-.63c.26-1.36.54-2.72.82-4.07l.15-.76c.29-1.35.58-2.7.88-4l.14-.61c.32-1.4.64-2.8 1-4.18s.69-2.78 1.05-4.15l.15-.58c.34-1.3.7-2.6 1.06-3.89l.19-.7c.37-1.29.74-2.57 1.12-3.84l.17-.56c.4-1.33.81-2.67 1.23-4 .42-1.32.85-2.62 1.29-3.91l.17-.5c.43-1.24.86-2.46 1.29-3.67l.23-.62c.44-1.21.89-2.4 1.34-3.59l.2-.5c.47-1.23 1-2.46 1.45-3.66.5-1.22 1-2.42 1.52-3.61l.19-.42c.49-1.14 1-2.26 1.5-3.37l.25-.55c.51-1.1 1-2.18 1.55-3.26l.22-.44c.54-1.12 1.1-2.22 1.66-3.31 1.26-2.43 2.57-4.8 3.89-7-2.91-.24-5.87-.44-9-.61l-.92 1.69-.6 1.13-.52 1c-.26.51-.52 1-.79 1.54l-.27.55-.85 1.7c-1.07 2.19-2.08 4.37-3 6.46-.09.48-.25.94-.46 1.38l-.17.41-.07.2c-.06.13-.09.24-.13.34v.11c0 .14-.09.29-.14.44v.09c0 .19-.09.35-.12.52-.12.97-.7 1.82-1.55 2.3-.32.16-.58.43-.74.75-.06.15-.24.64 0 .77.3.14.43.5.3.8-.17.48-.45.91-.82 1.26-.16.13-.38.16-.57.1-.23-.14-.35-.4-.3-.66 0-.17 0-.47-.12-.56-.43-.07-.86-.07-1.29 0-1.23.27-2.19.48-2.78 1.66-.2.3-.13.71.18.92.05.04.11.06.17.08.36.18.64.34.74.66.06.24 0 .5-.14.7-.08.14-.19.36-.34.62-.82 1.6-1.78 3.13-2.87 4.56-.5.63-.95 1.3-1.34 2-.63 1.24-1.55 2.31-2.68 3.12-1.38.8-2 1-2.39.74-.27-.19-.42-.51-.39-.84.02-.14-.03-.28-.14-.38-.63.27-1.36.13-1.85-.35-.32-.22-.47-.62-.38-1v-.1c.02-.07.05-.14.08-.21v-.1l.14-.25v-.06l.21-.28.07-.09.1-.13c-1.08-.11-2.17-.21-3.27-.3.08.09.14.19.18.3zm-25.13 37.87c-.29.27-.67.41-1.06.39h-.19c-.24 0-.44.1-.59.3-.2.31-.52.52-.88.57h-.07c-.25-.04-.47-.2-.58-.43-.15-.47-.12-.98.08-1.43 0-.1.07-.2.09-.3.06-.23.18-.45.35-.63.08-.07.12-.18.09-.28 0-.13-.03-.26-.06-.39-.13-.37-.05-.78.2-1.08.27-.2.62-.25.93-.14 1.05.32 1.82 1.22 2 2.3.05.4-.06.8-.31 1.12z"/><g transform="translate(117.25 .3952)"><path d="m25.37 6.60481455c-3 0-5.67-.08-9.15-.08-.05.92-.05 2-.05 2.69v15.32999995c0 1.6.05 4.87.17 6h-7.22c.21-2 .29-7.4.29-10.13v-7.34c0-1.64 0-4.32999995-.08-6.54999995-3.49 0-6.35 0-9.33.08.13-1.68.17-3.86.17-5.8 4 .13 7.9.21 12.64.21s8.87-.08 12.9-.21c-.23 1.92-.34 3.86-.34 5.8z"/><path d="m31.35 31.3448145c-5.43.18-9.98-4.08-10.16-9.51v-.69c0-6.43 4.28-11.21999995 10.71-11.21999995 5.43-.21 10 4.02999995 10.21 9.45999995v.75c0 6.47-4.24 11.21-10.76 11.21zm.4-16.74c-2.64 0-4.37 2.22-4.37 5.83 0 4.33 1.73 6.18 4.2 6.18 2.74 0 4.37-2.19 4.37-5.88-.02-4.34-1.86-6.13-4.2-6.13z"/><path d="m48.47 6.81481455c-1.87.14-3.51-1.26-3.65-3.13v-.14c.02-1.98 1.65-3.56 3.62-3.54h.16c1.9-.1 3.52 1.37 3.62 3.27v.05c-.03 1.95-1.64 3.52-3.59 3.49zm-3.61 23.78999995c.22-2.29.31-4.59.29-6.89v-6c0-2.43-.08-5.33-.29-7.14 1.51 0 5.54-.25 6.8-.38-.12 1.09-.17 3-.17 4.5v11.82c0 1.36.05 2.72.17 4.08h-6.8z"/><path d="m68.32 30.0848145c-1.44.79-3.07 1.19-4.71 1.180183-4.24 0-6.64-1.810183-6.64-6.930183v-9.41h-3.44l1-4.54h2.52l.38-4.10999995 5.88-1.94v5.99999995h5.16c-.08.93-.12 3-.12 4.54h-5v8.83c0 2.1.79 2.6 2.14 2.6 1.07-.02 2.1-.34 3-.92z"/><path d="m85.55 30.6048145-.67-3.53c-1.36 2.53-3.94 4.15-6.81 4.28-4.41 0-6.63-2.64-6.63-7.64v-6.11c0-2.4-.09-5-.21-6.94 2.35 0 4.79-.12 6.76-.29-.17 1.54-.25 3.08-.24 4.63v7.14c0 2.86.76 4.21 3.11 4.21 2.1-.13 3.78-1.81 3.91-3.91v-4.84c0-2.4-.09-5-.26-6.94 2.36 0 4.88-.12 6.85-.29-.18 1.55-.26 3.1-.25 4.66v8.57c-.02 2.34.08 4.67.29 7zm2.94-24.31999995c-1.85 0-3.36-.09-5-.09h-4.45c-2 0-3.44 0-5 .09.09-1 .13-3 .13-4.29 2.39.09 4.11.13 7.35.13 2.23 0 4.83 0 7.18-.13-.12 1.21-.21 2.89-.21 4.28z"/><path d="m126.14 6.60481455c-3 0-5.67-.08-9.16-.08v18.01999995c0 1.6 0 4.87.17 6h-7.23c.21-2 .3-7.4.3-10.13v-7.34c0-1.64 0-4.32999995-.09-6.54999995-3.48 0-6.34 0-9.32.08.12-1.68.17-3.86.17-5.8 4 .13 7.89.21 12.64.21s8.86-.08 12.9-.21c-.24 1.92-.37 3.86-.38 5.8z"/><path d="m140.81 21.4748145-11.72.34c.21 3.07 2 4.7 5.33 4.7 2.69-.02 5.31-.85 7.52-2.39l-.12 4.83c-2.41 1.53-5.21 2.35-8.07 2.35-7.23 0-10.75-4.66-10.75-10.29 0-6.43 4.36-11.08999995 10.75-11.08999995s9 4.40999995 9 9.90999995c0 0-1.94 1.64-1.94 1.64zm-3.7-3c-.25-2.65-1.3-4.12-3.61-4.12-2.48 0-4 1.85-4.37 4.33 0 0 7.98-.21 7.98-.21z"/><path d="m185.51 22.6048145c-1.3 3.57-2.05 5.79-2.81 8.23l-4.33.38-6.76-19.37-4 11.68c-.8 2.4-1.72 4.79-2.65 7.56h-4.37l-7.47-21.37999995c-.88-2.6-2.06-6-3.07-8.53l7.23-.33 6 19.81999995 4.16-12.80999995c.55-1.68 1.81-5.29 2.31-6.93l4.09-.32 6.68 19.99999995 3.61-12.55999995 2-6.89h7s-7.62 21.44999995-7.62 21.44999995z"/><path d="m207.52 30.6048145c.21-1.81.29-4.71.29-7.14v-4.68c0-2.43-.63-3.86-2.64-3.86-2.32.06-4.22 1.88-4.37 4.2v7.27c-.02 1.4.04 2.8.17 4.2h-6.77c.17-1.81.26-4.54.26-7v-15.99999995c0-2.44-.09-5-.26-6.77 1.47-.08 5.51-.5 6.77-.75-.13 1.09-.17 4.83-.17 5.58v8.77999995c1.51-2.62 4.25-4.3 7.27-4.44999995 4.15 0 6.09 2.68999995 6.09 7.13999995v9.2c0 1.47.08 3.24.16 4.33 0 0-6.8-.05-6.8-.05z"/><path d="m234.92 21.4748145-11.72.34c.21 3.07 2 4.7 5.34 4.7 2.69-.02 5.31-.85 7.52-2.39l-.13 4.83c-2.42 1.54-5.24 2.36-8.11 2.3500904-7.22 0-10.75-4.6600904-10.75-10.2900904 0-6.43 4.37-11.08999995 10.75-11.08999995s9 4.40999995 9 9.90999995c0 0-1.9 1.64-1.9 1.64zm-3.69-3c-.25-2.65-1.31-4.12-3.62-4.12-2.47 0-4 1.85-4.36 4.33z"/><path d="m253 30.6048145c.21-1.81.29-4.71.29-7.14v-4.68c0-2.43-.63-3.86-2.64-3.86-2.31.08-4.2 1.89-4.37 4.2v7.14c-.02 1.45.04 2.9.17 4.34h-6.77c.17-1.81.26-4.71.26-7.14v-5.8c0-2.44-.09-5.12-.26-6.93 1.47 0 5-.42 6.26-.55l.3 4.25c1.52-2.64 4.27-4.33 7.31-4.49999995 4.16 0 6.09 2.68999995 6.09 7.13999995v9.2c0 1.47.08 3.24.16 4.33z"/><path d="m277.75 30.6048145-.67-3.53c-1.36 2.52-3.95 4.15-6.81 4.28-4.41 0-6.64-2.64-6.64-7.64v-6.11c0-2.4-.08-5-.21-6.94 2.36 0 4.79-.12 6.77-.29-.16 1.55-.23 3.1-.21 4.66v7.14c0 2.86.75 4.21 3.1 4.21 2.1-.13 3.78-1.81 3.91-3.91v-4.87c0-2.4-.08-5-.25-6.94 2.35 0 4.87-.12 6.85-.29-.18 1.55-.27 3.1-.26 4.66v8.57c-.02 2.34.08 4.67.3 7z"/><path d="m286.22 25.5148145c0-4 3.45-6.73 10.34-6.73.46 0 1 .05 1.55.09v-.59c.09-2.23-.88-3.36-3.44-3.36-2.16.06-4.26.7-6.09 1.85l-.83-4.67c2.52-1.41 5.35-2.15999995 8.24-2.17999995 5.79 0 8.4 2.81999995 8.27 8.06999995l-.21 7.35c0 1.17.34 1.55 1.22 1.55.43 0 .86-.09 1.26-.25l-.29 3.78c-1.08.42-2.24.65-3.4.67-2.11 0-3.83-.92-4.33-3.27-1.33 2.09-3.65 3.34-6.13 3.31-3.76 0-6.16-2.14-6.16-5.62zm11.81-1.91v-1.9c-.46 0-.88-.08-1.35-.08-3.36 0-4.66 1.34-4.66 3.11-.08 1.29.89 2.4 2.18 2.49h.38c1.93.02 3.36-1.33 3.45-3.61z"/><path d="m21.35 65.7148145c-2-.12-4.37-.15-6.79-.15s-5 0-7.1.15c.16-1.49.22-5.61.22-7.63v-6.82c0-2-.06-6-.22-7.47 1.21 0 4.28 0 5.3-.15-.09.9-.12 3.38-.12 4.58v11.63c0 .44 0 1.18.06 1.74h2.51c2.39 0 4.44 0 6.42-.09-.15 1.36-.21 2.69-.28 4.21z"/><path d="m23.07 61.8448145c0-3 2.54-5 7.63-5 .34 0 .74 0 1.14.06v-.44c.07-1.64-.65-2.48-2.54-2.48-1.59.04-3.14.52-4.49 1.37l-.66-3.44c1.86-1.04 3.95-1.6 6.08-1.62 4.28 0 6.2 2.08 6.11 6l-.16 5.42c0 .87.25 1.15.9 1.15.32 0 .64-.07.93-.19l-.21 2.79c-.8.31-1.65.48-2.51.5-1.54.16-2.93-.9-3.2-2.42-.98 1.55-2.7 2.48-4.53 2.45-2.72 0-4.49-1.58-4.49-4.15zm8.71-1.4v-1.39c-.33-.04-.67-.07-1-.07-2.48 0-3.44 1-3.44 2.3-.06.95.67 1.77 1.62 1.83h.27c1.38 0 2.51-1.09 2.53-2.47v-.2h.03z"/><path d="m49.63 65.6048145c.16-1.75.24-3.51.22-5.27v-3.45c0-1.8-.47-2.86-1.95-2.86-1.71.06-3.1 1.39-3.23 3.1v5.27c0 1.07.03 2.14.13 3.2h-5c.13-1.33.19-3.47.19-5.27v-4.28c0-1.8-.06-3.78-.19-5.12 1.09 0 3.69-.31 4.62-.4l.22 3.13c1.12-1.95 3.15-3.2 5.4-3.32 3.07 0 4.49 2 4.49 5.27v6.79c0 1.09.06 2.39.13 3.2h-5.03z"/><path d="m67.55 51.2648145v-2.73c0-1.79 0-3.62-.16-5 1.12-.09 4.06-.37 5-.55-.09.8-.12 2.32-.12 3.38v14c-.03 1.75.03 3.5.18 5.24h-4.47l-.23-1.56c-1.02 1.33-2.6 2.11-4.27 2.11-4.13 0-6.58-3.45-6.58-7.35 0-4.81 3.1-8.47 7.38-8.47 1.16-.02 2.3.3 3.27.93zm-6 7.07c0 3 1.49 4.41 3.35 4.41 1.08 0 2.08-.58 2.61-1.52v-6.55c-.68-.63-1.58-.97-2.51-.93-2.16 0-3.41 2.08-3.41 4.59z"/><path d="m82.8 65.6048145c.15-1.49.21-5.46.21-7.47v-6.87c0-2-.06-6-.21-7.47 1.21 0 4.31 0 5.33-.15-.09.9-.12 3.38-.12 4.58v12.9c0 1.18 0 3.6.12 4.47h-5.33z"/><path d="m101.75 65.6048145c.16-1.75.24-3.51.22-5.27v-3.45c0-1.8-.46-2.86-1.95-2.86-1.71.06-3.1 1.39-3.23 3.1v5.27c0 1.09 0 2.39.13 3.2h-5c.12-1.33.18-3.47.18-5.27v-4.28c0-1.8-.06-3.78-.18-5.12 1.08 0 3.69-.31 4.62-.4l.21 3.13c1.12-1.95 3.15-3.2 5.4-3.32 3.07 0 4.49 2 4.49 5.27v6.79c0 1.09.07 2.39.13 3.2h-5.02z"/><path d="m119.4 46.9548145c-.45-.15-.92-.22-1.39-.21-1.68 0-2.48 1-2.48 2.94v1h3.66c-.1 1.11-.15 2.23-.13 3.35h-3.53v8.57c0 1 .03 2 .12 3h-5c.16-1.68.24-3.37.22-5.06v-6.52h-2.58l.72-3.35h1.86v-.77c0-4.28 2.17-6.92 6.26-6.92.67 0 1.35.08 2 .25z"/><path d="m127.33 66.1548145c-4.02.13-7.38-3.02-7.51-7.04v-.51c0-4.74 3.17-8.28 7.91-8.28 4.01-.15 7.38 2.97 7.53 6.98v.56c0 4.74-3.13 8.29-7.93 8.29zm.27-12.34c-1.95 0-3.22 1.64-3.22 4.31 0 3.19 1.27 4.55 3.1 4.55 2 0 3.23-1.61 3.23-4.34.04-3.22-1.37-4.52-3.11-4.52z"/><path d="m147.28 54.8948145c-2.39-.31-4.9.5-4.9 3.1v4.4c0 1.09 0 2.39.12 3.2h-5c.15-1.33.18-3.47.18-5.27v-4.62c.02-1.56-.06-3.13-.24-4.68 1.56-.1 3.11-.27 4.65-.53l.24 3.44c.94-2.11 3-3.51 5.31-3.6z"/><path d="m168.05 65.6048145c.15-1.75.22-3.51.19-5.27v-3.45c0-1.8-.38-2.86-1.83-2.86-1.59 0-2.88 1.28-2.89 2.87v5.5c-.01 1.07.03 2.14.13 3.2h-5c.15-1.75.22-3.51.19-5.27v-3.44c0-1.8-.31-2.86-1.77-2.86-1.6 0-2.9 1.29-2.91 2.89v5.48c0 1.09 0 2.39.12 3.2h-5c.12-1.33.19-3.47.19-5.27v-4.28c0-1.8-.07-3.78-.19-5.12 1.09 0 3.69-.31 4.62-.4l.22 2.79c1.07-1.76 2.94-2.88 5-3 1.99-.19 3.81 1.14 4.21 3.1 1.06-1.86 3.01-3.03 5.15-3.1 3.1 0 4.53 2 4.53 5.27v6.79c0 1.09 0 2.39.12 3.2z"/><path d="m175.16 61.8448145c0-3 2.55-5 7.63-5 .34 0 .75 0 1.15.06v-.44c.06-1.64-.65-2.48-2.54-2.48-1.6.04-3.15.52-4.5 1.37l-.65-3.44c1.86-1.04 3.95-1.6 6.08-1.62 4.28 0 6.2 2.08 6.11 6l-.16 5.42c0 .87.25 1.15.9 1.15.32 0 .64-.07.93-.19l-.22 2.79c-.8.32-1.65.48-2.51.5-1.53.15-2.93-.9-3.19-2.42-.98 1.55-2.7 2.47-4.53 2.45-2.73 0-4.5-1.58-4.5-4.15zm8.72-1.4v-1.39c-.33-.04-.67-.07-1-.07-2.49 0-3.45 1-3.45 2.3-.05.96.68 1.78 1.64 1.83h.26c1.39.02 2.53-1.08 2.55-2.46z"/><path d="m201.14 65.2248145c-1.07.57-2.26.87-3.47.86-3.13 0-4.9-1.33-4.9-5.11v-6.95h-2.54l.74-3.35h1.86l.28-3 4.34-1.43v4.46h3.81c-.06.69-.09 2.24-.09 3.35h-3.72v6.45c0 1.55.59 1.93 1.58 1.93.79-.02 1.57-.25 2.23-.69z"/><path d="m206.08 48.0448145c-1.38.11-2.59-.93-2.69-2.31v-.11c.03-1.46 1.23-2.63 2.7-2.6h.09c1.41-.07 2.6 1.02 2.67 2.43v.02c-.03 1.45-1.22 2.6-2.67 2.57zm-2.66 17.56c.16-1.69.23-3.39.21-5.09v-4.44c0-1.8-.06-3.94-.21-5.27 1.11 0 4.09-.19 5-.28-.09.81-.13 2.23-.13 3.32v8.76c0 1 .04 2 .13 3z"/><path d="m218.18 66.1548145c-4.01.13-7.37-3.02-7.5-7.03v-.51c0-4.74 3.16-8.28 7.9-8.28 4.01-.15 7.39 2.98 7.54 6.99v.55c0 4.73-3.13 8.28-7.94 8.28zm.28-12.34c-1.95 0-3.23 1.64-3.23 4.31 0 3.19 1.28 4.55 3.11 4.55 2 0 3.22-1.61 3.22-4.34 0-3.22-1.37-4.52-3.1-4.52z"/><path d="m238.22 65.6048145c.15-1.33.22-3.47.22-5.27v-3.45c0-1.8-.47-2.86-2-2.86-1.71.06-3.09 1.4-3.22 3.1v5.27c0 1.09 0 2.39.12 3.2h-5c.12-1.33.19-3.47.19-5.27v-4.28c0-1.8-.07-3.78-.19-5.12 1.09 0 3.69-.31 4.62-.4l.22 3.13c1.12-1.95 3.15-3.2 5.39-3.32 3.07 0 4.5 2 4.5 5.27v6.79c0 1.09.06 2.39.12 3.2h-4.97z"/><path d="m7.59 89.1248145.06-7.2c0-2 0-5.76-.16-7.25l3.07-.28 11.72 14v-6.13c0-2-.06-6-.24-7.47 1.21 0 4.09 0 5.14-.15-.12.9-.18 3.38-.18 4.58l-.1 13c0 1.21 0 3.69.07 4.55l-3 .28-11.72-14v9c0 1.21 0 3.6.12 4.47h-5.11c.17-1.42.3-5.39.33-7.4z"/><path d="m43.29 89.8648145-8.65.25c.15 2.26 1.45 3.47 3.94 3.47 1.99-.02 3.92-.64 5.55-1.77l-.1 3.57c-1.79 1.14-3.88 1.74-6 1.74-5.34 0-7.94-3.45-7.94-7.6 0-4.75 3.23-8.19 7.94-8.19s6.72 3.27 6.72 7.32zm-2.73-2.26c-.19-2-1-3-2.67-3s-3 1.36-3.22 3.19z"/><path d="m48.67 91.6648145-1.49-4c-.68-1.83-1.61-4.37-2.23-5.74.5 0 4.16-.28 4.68-.31l2.79 8.78 1.21-3.41 1.77-5.21 3.13-.16 3 8.75 1.12-3.41c.18-.62 1.36-4.35 1.58-5.18 1.74 0 3 0 4.46-.1l-5.61 15-3.25.19c-.47-1.58-1.15-3.54-1.93-5.62l-1.11-3.1-3.04 8.51-3.29.15c-.45-1.45-1.1-3.28-1.79-5.14z"/><path d="m94.49 76.8148145-11.74 15.87h3.72c2.67 0 5.74 0 7.51-.09-.13 1.24-.22 2.63-.25 4.12-1.86-.12-5.43-.15-8.43-.15-3.57 0-6.82 0-9.12.15l-.37-2.29 11.68-15.82h-3.41c-2.76 0-5.21 0-7.35.06.15-1.15.31-2.76.37-4.1 3.07.1 4.4.16 8.49.16s6.36-.06 8.5-.16z"/><path d="m108.88 89.8648145-8.65.25c.15 2.26 1.46 3.47 3.94 3.47 2-.01 3.94-.63 5.58-1.77l-.1 3.57c-1.79 1.14-3.87 1.74-6 1.74-5.33 0-7.94-3.45-7.94-7.6 0-4.75 3.23-8.19 7.94-8.19s6.67 3.26 6.67 7.32zm-2.73-2.26c-.18-2-1-3-2.66-3s-3 1.36-3.23 3.19z"/><path d="m111.6 92.8448145c0-3 2.54-5 7.63-5 .34 0 .74 0 1.14.06v-.44c.07-1.64-.65-2.48-2.54-2.48-1.59.04-3.14.52-4.49 1.37l-.59-3.4c1.83-1.03 3.9-1.59 6-1.62 4.28 0 6.2 2.08 6.11 6l-.11 5.38c0 .87.24 1.15.89 1.15.32 0 .64-.07.93-.19l-.21 2.79c-.8.31-1.65.48-2.51.5-1.53.13-2.91-.91-3.2-2.42-.98 1.55-2.69 2.48-4.52 2.45-2.76 0-4.53-1.58-4.53-4.15zm8.71-1.4v-1.39c-.33-.04-.67-.07-1-.07-2.48 0-3.44 1-3.44 2.3-.06.95.67 1.77 1.62 1.83h.27c1.38.03 2.52-1.06 2.56-2.44v-.23z"/><path d="m128.34 96.6048145c.12-1.33.18-3.35.18-5.18v-11.82c0-1.8-.06-3.66-.18-5 1.08-.06 4.06-.37 5-.55-.1.8-.13 3.56-.13 4.12v15.32c0 1.03.03 2.07.13 3.1h-5z"/><path d="m135.46 92.8448145c0-3 2.55-5 7.63-5 .34 0 .75 0 1.15.06v-.44c.06-1.64-.65-2.48-2.54-2.48-1.6.05-3.15.52-4.5 1.37l-.65-3.44c1.86-1.04 3.95-1.6 6.08-1.62 4.28 0 6.2 2.08 6.11 6l-.16 5.42c0 .87.25 1.15.9 1.15.32 0 .64-.07.93-.19l-.22 2.79c-.8.32-1.65.48-2.51.5-1.53.15-2.93-.9-3.19-2.42-.98 1.55-2.7 2.47-4.53 2.45-2.73 0-4.5-1.58-4.5-4.15zm8.72-1.4v-1.39c-.33-.04-.67-.07-1-.07-2.48 0-3.45 1-3.45 2.3-.05.96.68 1.78 1.64 1.83h.26c1.38.03 2.52-1.06 2.56-2.44v-.23z"/><path d="m162.03 96.6048145c.16-1.75.24-3.51.22-5.27v-3.45c0-1.8-.47-2.86-2-2.86-1.71.06-3.09 1.4-3.22 3.1v5.27c0 1.09 0 2.39.12 3.2h-5c.13-1.33.19-3.47.19-5.27v-4.28c0-1.8-.06-3.78-.19-5.12 1.09 0 3.69-.31 4.62-.4l.22 3.13c1.12-1.95 3.15-3.2 5.39-3.32 3.07 0 4.5 2 4.5 5.27v6.79c0 1.09.06 2.39.12 3.2h-4.97z"/><path d="m179.95 82.2648145v-2.73c0-1.79 0-3.62-.15-5 1.12-.09 4.06-.37 5-.55-.09.8-.12 2.32-.12 3.38v14c0 1.8.06 3.72.21 5.15h-4.46l-.22-1.55c-1.02 1.33-2.6 2.11-4.28 2.11-4.12 0-6.57-3.45-6.57-7.35 0-4.81 3.1-8.47 7.38-8.47 1.15.02 2.26.37 3.21 1.01zm-6 7.07c0 3 1.49 4.41 3.35 4.41 1.08 0 2.08-.58 2.61-1.52v-6.55c-.68-.64-1.59-.97-2.52-.93-2.16 0-3.4 2.08-3.4 4.59z"/></g></g></svg>