<svg xmlns="http://www.w3.org/2000/svg" viewBox="0 0 194 150"><path d="M96.026 14c-33.363 0-60.898 27.443-60.898 60.752 0 33.338 27.42 60.758 60.758 60.758 33.331 0 60.752-27.422 60.752-60.758C156.638 41.395 129.332 14 96.026 14m0 4.2c30.983 0 56.412 25.512 56.412 56.552 0 31.016-25.54 56.558-56.552 56.558-31.019 0-56.558-25.54-56.558-56.558 0-30.987 25.651-56.552 56.698-56.552"/><path d="m75.081 115.123.244 1.257c.289.08.515.32.578.615l1.263.18-1.272.224a.83.83 0 0 1-.6.583l-.213 1.28-.215-1.289a.84.84 0 0 1-.578-.6l-1.21-.198 1.212-.215a.84.84 0 0 1 .624-.594zm47.994.372c.261 0 .474.213.474.472 0 .26-.213.474-.474.474a.476.476 0 0 1-.471-.474c0-.26.215-.472.471-.472m-43.207-4.43c.261 0 .474.212.474.473a.473.473 0 1 1-.474-.474m-6.53-1.233a.473.473 0 0 1 0 .943.476.476 0 0 1-.474-.47c0-.262.215-.473.474-.473m19.454-.074c.259 0 .472.213.472.471a.474.474 0 0 1-.472.472.475.475 0 0 1-.47-.472c0-.258.216-.471.47-.471m42.161-6.12.244 1.254a.84.84 0 0 1 .584.62l1.26.178-1.273.224a.83.83 0 0 1-.597.583l-.218 1.278-.21-1.29a.84.84 0 0 1-.579-.597l-1.217-.198 1.224-.217a.85.85 0 0 1 .624-.591zm-30.898 2.126c.257 0 .472.213.472.472 0 .26-.215.474-.472.474a.477.477 0 0 1-.473-.474c0-.259.215-.472.473-.472m-24.95-.365a.582.582 0 0 1 0 1.165.585.585 0 0 1-.576-.582c0-.32.263-.583.576-.583m-17.426-.215a.58.58 0 0 1 0 1.16.58.58 0 0 1 0-1.16m76.362-.146c.259 0 .471.213.471.47 0 .26-.212.474-.471.474a.472.472 0 0 1 0-.944m-78.65-1.598c.257 0 .473.215.473.472a.472.472 0 0 1-.946 0c0-.257.215-.472.474-.472m9.873-.434c.26 0 .478.21.478.471a.48.48 0 0 1-.478.472.475.475 0 0 1-.468-.472c0-.26.216-.471.468-.471m51.637-.144a.47.47 0 1 1 0 .941.476.476 0 0 1-.474-.471c0-.26.216-.47.474-.47m12.853-.51c.256 0 .471.212.471.47a.477.477 0 0 1-.471.475.48.48 0 0 1-.474-.474c0-.259.215-.472.474-.472m-79.958-1.599c.263 0 .478.215.478.474a.474.474 0 0 1-.95 0c0-.259.213-.474.472-.474m6.359-.652c.32 0 .576.26.576.578 0 .32-.257.58-.576.58a.58.58 0 1 1 0-1.159m15.248-2.833c.317 0 .582.261.582.579 0 .32-.265.582-.582.582a.585.585 0 0 1-.58-.582c0-.318.262-.579.58-.579m63.583.144c.253 0 .466.21.466.474a.474.474 0 0 1-.466.472.474.474 0 1 1 0-.946m-13.62-.287a.58.58 0 1 1 0 1.159.59.59 0 0 1-.582-.58c0-.318.267-.579.583-.579m16.555-.948c.32 0 .583.263.583.583s-.263.58-.583.58a.58.58 0 0 1 0-1.163m-21.02.146a.473.473 0 1 1-.002.945.473.473 0 0 1 .002-.945m18.796-5.494.244 1.257a.82.82 0 0 1 .578.62l1.263.178-1.272.223a.83.83 0 0 1-.6.579l-.213 1.28-.217-1.287a.81.81 0 0 1-.567-.598l-1.218-.197 1.222-.218a.81.81 0 0 1 .613-.593zm-14.259 2.228c.32 0 .585.261.585.579a.584.584 0 0 1-1.167 0c0-.318.263-.579.582-.579m8.35-.293c.325 0 .583.265.583.583a.585.585 0 0 1-.582.582.59.59 0 0 1-.58-.582c0-.318.264-.583.58-.583m-1.052-2.759a.471.471 0 1 1 .001.943.471.471 0 0 1 0-.943m-57.516-3.63c.261 0 .474.21.474.472a.474.474 0 0 1-.474.471.475.475 0 0 1-.472-.471c0-.261.216-.472.472-.472m5.666-42.855.25 1.254a.83.83 0 0 1 .578.62l1.259.178-1.266.224a.84.84 0 0 1-.608.583l-.213 1.278-.216-1.29a.83.83 0 0 1-.571-.597l-1.216-.198 1.222-.215a.82.82 0 0 1 .615-.594zm-4.066 2.985c.261 0 .472.215.472.474 0 .256-.21.471-.472.471a.477.477 0 0 1-.474-.471c0-.26.216-.474.474-.474m-2.032-2.468c.258 0 .471.213.471.472a.476.476 0 0 1-.471.474.476.476 0 0 1-.474-.474c0-.259.213-.472.474-.472m33.083-3.704a.58.58 0 0 1 0 1.16.585.585 0 0 1-.59-.578c0-.32.264-.582.59-.582M85.753 36.34c.257 0 .472.214.472.47 0 .26-.215.472-.472.472a.475.475 0 0 1-.474-.472c0-.256.215-.47.474-.47m13.657-.871a.47.47 0 0 1 .467.471.47.47 0 1 1-.939 0c0-.258.21-.471.472-.471m-11.553-.946c.257 0 .472.213.472.472a.477.477 0 0 1-.472.474.473.473 0 0 1 0-.946m-1.376-.946c.257 0 .472.216.472.474a.475.475 0 0 1-.472.472.476.476 0 0 1-.474-.472c0-.258.216-.474.474-.474m7.842-.797a.47.47 0 0 1 .467.471.47.47 0 0 1-.467.474.475.475 0 0 1-.472-.474c0-.258.213-.471.472-.471m-9.224-.146a.471.471 0 1 1 0 .942.471.471 0 0 1 0-.942m22.537-6.594.248 1.253c.289.084.515.323.585.62l1.252.18-1.263.221a.84.84 0 0 1-.607.585l-.215 1.278-.21-1.289a.83.83 0 0 1-.58-.598l-1.212-.198 1.221-.215a.82.82 0 0 1 .614-.593zm-8.268 2.598c.316 0 .585.265.585.583a.584.584 0 0 1-1.167 0c0-.318.263-.583.582-.583m-6.68-.796a.58.58 0 0 1 0 1.161.58.58 0 1 1 0-1.16m3.524-6.245c.259 0 .474.21.474.472a.476.476 0 0 1-.952 0c0-.261.217-.472.478-.472"/><path d="m171 22.055-.387 1.173c-5.379 15.616-19.284 28.463-36.924 41.077h4.289l7.424 18.705 2.476 2.484H134.39l2.474-2.484-.879-2.28h-7.441l-.77 2.606 1.772 2.158h-4.285c3.252 9.611 6.889 29.726-16.2 19.977l-.05-.158c18.418 7.584 20.722-4.825 15.216-19.818h-1.716l1.243-1.246a70 70 0 0 0-2.46-5.53c.387 3.65-2.587 5.819-5.435 6.749-3.302 1.074-6.854.67-9.825-.342l-.193-.067-2.47 1.813-.146-2.342c-3.952 2.552-7.95 5.146-11.958 7.801 3.662 3.421 8.45 5.386 6.36 7.261-1.946 1.738-5.835-3.151-7.964-6.194l-.887.592c-14.482 9.683-28.998 20.214-41.87 32.479l.11-1.994c12.47-12.724 26.773-23.393 41.242-33.189l-.073-.118c-2.699-3.253-5.326-6.626-7.944-10.439h-.22l-.77 2.607 1.78 2.158H73.99l2.476-2.484 4.778-16.54-2.152-2.165h10.363l7.42 18.705 1.535 1.536q2.32-1.515 4.627-3.013l-.101-1.602a6.6 6.6 0 0 0 1.045.99l5.651-3.66c2.677-1.736 5.33-3.46 7.949-5.182a79 79 0 0 0-1.367-2.115 97 97 0 0 0-1.983-2.85c-.785-.182-1.57-.257-2.284-.158-3.03.422-3.17 2.503-1.907 3.16l.074.037.084.042c.878.43 2.896 1.248 4.441 1.87a2000 2000 0 0 1-7.523 4.89l-.181-.09-.117-.061c-1.908-.992-3.663-2.371-3.912-5.095-.316-3.376 2.252-5.75 4.632-6.876 1.23-.583 2.713-.894 4.27-.938q-.371-.474-.745-.941c-1.431.113-2.785.444-3.944.993-3.018 1.427-5.141 3.956-5.218 7.025a354 354 0 0 1-7.891 2.157l-2.381-6.002 1.23-.418c5.563-1.893 11.108-3.816 16.516-5.81-5.924-7.046-12.15-12.709-16.542-15.915-20.476-14.964-32.97-5.811-18.594 23.526q.75 1.528 1.544 2.953l-1.118.383q-.484-.84-.969-1.71c-11.072-19.927-9.476-40.26 10.568-31.399 9.468 4.184 18.7 12.575 26.152 21.776 2.4-.893 4.774-1.801 7.107-2.728a257 257 0 0 0 9.405-3.941c18.678-8.291 34.797-18.476 44.072-31.79M49.147 82.503v.188l-3.56 3.573h.011c-4.799 1.804-9.209 3.83-13.104 6.202L31 91.946c5.193-3.41 11.357-6.516 18.147-9.443m38.317-1.774h-5.616c2.664 3.557 5.333 6.679 7.674 9.705 2.479-1.67 4.962-3.314 7.44-4.94H85.868l2.476-2.484zM57.146 64.305l7.89 13.198V66.47l-2.153-2.165h7.172l-2.154 2.165v16.54l2.476 2.484H60.96l-8.11-13.722V83.01l2.084 2.484h-7.493l2.476-2.484V66.47l-2.148-2.165zm63.41 8.98-.864.57c1.729 2.944 3.2 5.805 4.364 8.472l.074.172q.19.441.397.972l.461-.461 4.562-15.794a498 498 0 0 1-8.994 6.069m-64.043 6.197 1.608 2.721q-2.009.572-3.961 1.17l-.54-.644v-2.094q1.431-.58 2.893-1.153m55.434-.58-.743.481-1.805 1.165-2.724 1.757c1.812.609 3.587.726 4.365.75 1.487.05 3.41-.779 3.442-1.937.028-1.04-1.043-1.637-2.535-2.216m-33.169-7.427-1.692 5.857-1.548.376-1.54.375q-2.691.656-5.328 1.318v-4.427a855 855 0 0 1 10.108-3.5m4.368-1.616-2.197 7.594h5.193zm48.523 0-2.198 7.594h5.194zm16.328-19.993-.365.275c-6.033 4.539-12.62 8.274-19.528 11.436a146 146 0 0 1-7.985 3.361l-.062-1.83a.98.98 0 0 0-1.537-.772l-1.817 1.256-.044-.014a15.4 15.4 0 0 0-4.356-.668q.385.502.763 1.007c1.243.077 2.503.319 3.694.723l.1.034 2.217-1.532.224 6.595c-.47-.559-1.936-1.527-3.618-2.172a107 107 0 0 1 2.639 4.026 541 541 0 0 0 9.75-6.563l-.849-.723h1.892c6.619-4.605 12.875-9.277 18.56-14.162z"/></svg>