<?xml version="1.0" encoding="UTF-8"?>
<svg width="405px" height="143px" viewBox="0 0 405 143" version="1.1" xmlns="http://www.w3.org/2000/svg" xmlns:xlink="http://www.w3.org/1999/xlink">
    <title>Slice</title>
    <g id="Page-1" stroke="none" stroke-width="1" fill="none" fill-rule="evenodd">
        <g id="North-Carolina-Insti" transform="translate(0.378, 1.046)" fill="#000000" fill-rule="nonzero">
            <polygon id="Path" points="20.58 0.63 20.58 26.586 20.496 26.586 8.694 0.63 3.234 0.63 3.234 30.954 6.678 30.954 6.678 4.662 6.762 4.662 18.732 30.954 24.024 30.954 24.024 0.63"></polygon>
            <path d="M38.136,28.56 C34.566,28.56 33.684,26.082 33.684,19.194 C33.684,13.398 35.49,12.138 38.136,12.138 C40.782,12.138 42.588,13.398 42.588,19.194 C42.588,26.082 41.706,28.56 38.136,28.56 Z M38.136,31.374 C42.63,31.374 46.2,30.03 46.2,20.664 C46.2,14.448 45.486,9.324 38.136,9.324 C30.786,9.324 30.072,14.448 30.072,20.664 C30.072,30.03 33.642,31.374 38.136,31.374 Z" id="Shape"></path>
            <path d="M55.23,9.744 L51.786,9.744 L51.786,30.954 L55.23,30.954 L55.23,18.438 C55.23,15.582 56.196,12.684 60.018,12.684 C60.354,12.684 60.648,12.726 60.942,12.768 C61.236,12.81 61.572,12.852 61.866,12.894 L61.866,9.324 C58.506,9.324 56.742,9.702 55.314,12.936 L55.23,12.936 L55.23,9.744 Z" id="Path"></path>
            <path d="M62.538,9.744 L62.538,12.348 L66.024,12.348 L66.024,27.426 C66.024,29.862 67.494,31.206 70.77,31.206 C71.904,31.206 73.038,30.954 74.172,30.87 L74.172,28.224 C73.416,28.308 72.87,28.392 72.618,28.392 C69.468,28.392 69.468,26.67 69.468,25.326 L69.468,12.348 L74.088,12.348 L74.088,9.744 L69.468,9.744 L69.468,4.116 L66.024,5.67 L66.024,9.744 L62.538,9.744 Z" id="Path"></path>
            <path d="M92.274,30.954 L92.274,15.918 C92.274,11.13 90.258,9.324 86.646,9.324 C83.874,9.324 82.278,9.996 80.892,12.474 L80.724,12.474 L80.724,0.63 L77.28,0.63 L77.28,30.954 L80.724,30.954 L80.724,18.48 C80.724,14.91 81.606,12.138 85.05,12.138 C87.99,12.138 88.83,13.986 88.83,16.59 L88.83,30.954 L92.274,30.954 Z" id="Path"></path>
            <path d="M125.37,8.988 C125.748,3.108 123.438,0 117.432,0 C111.468,0 107.688,2.436 107.688,11.004 L107.688,19.572 C107.688,31.332 113.484,31.584 117.264,31.584 C119.238,31.584 126,31.584 125.832,22.008 L121.842,22.008 C121.8,27.93 118.23,28.35 117.054,28.35 C114.072,28.35 111.636,27.468 111.636,20.034 L111.636,11.928 C111.636,6.72 112.392,5.964 112.518,5.628 C112.644,5.208 113.904,3.276 117.096,3.276 C117.894,3.276 119.7,3.612 120.498,4.578 C121.296,5.544 121.422,7.266 121.38,8.988 L125.37,8.988 Z" id="Path"></path>
            <path d="M141.834,20.412 C142.17,27.258 139.566,28.56 137.466,28.56 C135.156,28.56 134.148,26.712 134.148,24.654 C134.148,20.16 138.558,20.454 141.834,20.412 Z M141.918,30.954 L145.698,30.954 C145.446,29.316 145.278,27.594 145.278,25.914 L145.278,15.708 C145.278,12.138 143.85,9.324 138.39,9.324 C133.896,9.324 131.376,10.962 131.208,15.708 L134.946,15.708 C134.736,13.482 135.954,11.928 138.264,11.928 C141.96,11.928 141.918,14.994 141.834,17.808 C137.004,17.682 130.704,17.976 130.704,24.402 C130.704,28.476 132.006,31.374 136.5,31.374 C139.146,31.374 140.784,30.324 141.834,27.888 L141.918,27.888 L141.918,30.954 Z" id="Shape"></path>
            <path d="M155.568,9.744 L152.124,9.744 L152.124,30.954 L155.568,30.954 L155.568,18.438 C155.568,15.582 156.534,12.684 160.356,12.684 C160.692,12.684 160.986,12.726 161.28,12.768 C161.574,12.81 161.91,12.852 162.204,12.894 L162.204,9.324 C158.844,9.324 157.08,9.702 155.652,12.936 L155.568,12.936 L155.568,9.744 Z" id="Path"></path>
            <path d="M173.46,28.56 C169.89,28.56 169.008,26.082 169.008,19.194 C169.008,13.398 170.814,12.138 173.46,12.138 C176.106,12.138 177.912,13.398 177.912,19.194 C177.912,26.082 177.03,28.56 173.46,28.56 Z M173.46,31.374 C177.954,31.374 181.524,30.03 181.524,20.664 C181.524,14.448 180.81,9.324 173.46,9.324 C166.11,9.324 165.396,14.448 165.396,20.664 C165.396,30.03 168.966,31.374 173.46,31.374 Z" id="Shape"></path>
            <polygon id="Path" points="190.344 0.63 186.9 0.63 186.9 30.954 190.344 30.954"></polygon>
            <path d="M199.668,9.744 L196.224,9.744 L196.224,30.954 L199.668,30.954 L199.668,9.744 Z M196.014,4.326 L199.878,4.326 L199.878,0.63 L196.014,0.63 L196.014,4.326 Z" id="Shape"></path>
            <path d="M220.584,30.954 L220.584,16.254 C220.584,12.054 219.45,9.324 214.914,9.324 C212.184,9.324 210.588,10.08 209.244,12.474 L209.076,12.474 L209.076,9.744 L205.422,9.744 C205.548,11.214 205.632,12.684 205.632,14.154 L205.632,30.954 L209.076,30.954 L209.076,18.396 C209.076,15.498 209.622,12.138 213.402,12.138 C216.342,12.138 217.14,13.986 217.14,16.254 L217.14,30.954 L220.584,30.954 Z" id="Path"></path>
            <path d="M237.468,20.412 C237.804,27.258 235.2,28.56 233.1,28.56 C230.79,28.56 229.782,26.712 229.782,24.654 C229.782,20.16 234.192,20.454 237.468,20.412 Z M237.552,30.954 L241.332,30.954 C241.08,29.316 240.912,27.594 240.912,25.914 L240.912,15.708 C240.912,12.138 239.484,9.324 234.024,9.324 C229.53,9.324 227.01,10.962 226.842,15.708 L230.58,15.708 C230.37,13.482 231.588,11.928 233.898,11.928 C237.594,11.928 237.552,14.994 237.468,17.808 C232.638,17.682 226.338,17.976 226.338,24.402 C226.338,28.476 227.64,31.374 232.134,31.374 C234.78,31.374 236.418,30.324 237.468,27.888 L237.552,27.888 L237.552,30.954 Z" id="Shape"></path>
            <polygon id="Path" points="261.702 0.63 257.838 0.63 257.838 30.954 261.702 30.954"></polygon>
            <path d="M283.584,30.954 L283.584,16.254 C283.584,12.054 282.45,9.324 277.914,9.324 C275.184,9.324 273.588,10.08 272.244,12.474 L272.076,12.474 L272.076,9.744 L268.422,9.744 C268.548,11.214 268.632,12.684 268.632,14.154 L268.632,30.954 L272.076,30.954 L272.076,18.396 C272.076,15.498 272.622,12.138 276.402,12.138 C279.342,12.138 280.14,13.986 280.14,16.254 L280.14,30.954 L283.584,30.954 Z" id="Path"></path>
            <path d="M303.282,24.906 C303.282,18.438 292.698,18.522 292.698,14.784 C292.698,12.936 294.126,11.928 295.974,11.928 C298.158,11.928 299.334,13.104 299.292,15.33 L303.114,15.33 C303.408,11.13 300.174,9.324 296.394,9.324 C290.43,9.324 289.086,12.894 289.086,15.12 C289.086,21.462 299.67,21.546 299.67,25.326 C299.67,27.51 298.074,28.56 296.016,28.56 C292.53,28.56 292.488,25.704 292.488,24.486 L288.582,24.486 C288.456,29.358 291.312,31.374 295.89,31.374 C300.09,31.374 303.282,29.568 303.282,24.906 Z" id="Path"></path>
            <path d="M305.172,9.744 L305.172,12.348 L308.658,12.348 L308.658,27.426 C308.658,29.862 310.128,31.206 313.404,31.206 C314.538,31.206 315.672,30.954 316.806,30.87 L316.806,28.224 C316.05,28.308 315.504,28.392 315.252,28.392 C312.102,28.392 312.102,26.67 312.102,25.326 L312.102,12.348 L316.722,12.348 L316.722,9.744 L312.102,9.744 L312.102,4.116 L308.658,5.67 L308.658,9.744 L305.172,9.744 Z" id="Path"></path>
            <path d="M323.316,9.744 L319.872,9.744 L319.872,30.954 L323.316,30.954 L323.316,9.744 Z M319.662,4.326 L323.526,4.326 L323.526,0.63 L319.662,0.63 L319.662,4.326 Z" id="Shape"></path>
            <path d="M326.172,9.744 L326.172,12.348 L329.658,12.348 L329.658,27.426 C329.658,29.862 331.128,31.206 334.404,31.206 C335.538,31.206 336.672,30.954 337.806,30.87 L337.806,28.224 C337.05,28.308 336.504,28.392 336.252,28.392 C333.102,28.392 333.102,26.67 333.102,25.326 L333.102,12.348 L337.722,12.348 L337.722,9.744 L333.102,9.744 L333.102,4.116 L329.658,5.67 L329.658,9.744 L326.172,9.744 Z" id="Path"></path>
            <path d="M352.296,23.814 C352.296,27.342 349.986,28.728 348.138,28.728 C345.702,28.728 344.526,27.006 344.526,24.444 L344.526,9.744 L341.082,9.744 L341.082,25.914 C341.082,29.526 343.098,31.374 346.794,31.374 C349.02,31.374 351.036,30.324 352.17,28.392 L352.296,28.392 L352.296,30.954 L355.95,30.954 C355.824,29.484 355.74,28.014 355.74,26.544 L355.74,9.744 L352.296,9.744 L352.296,23.814 Z" id="Path"></path>
            <path d="M358.848,9.744 L358.848,12.348 L362.334,12.348 L362.334,27.426 C362.334,29.862 363.804,31.206 367.08,31.206 C368.214,31.206 369.348,30.954 370.482,30.87 L370.482,28.224 C369.726,28.308 369.18,28.392 368.928,28.392 C365.778,28.392 365.778,26.67 365.778,25.326 L365.778,12.348 L370.398,12.348 L370.398,9.744 L365.778,9.744 L365.778,4.116 L362.334,5.67 L362.334,9.744 L358.848,9.744 Z" id="Path"></path>
            <path d="M376.992,18.858 C377.034,12.978 378.84,11.928 381.024,11.928 C383.544,11.928 385.266,12.684 385.266,18.858 L376.992,18.858 Z M388.92,21.462 L388.92,19.656 C388.92,12.642 387.408,9.324 381.36,9.324 C374.01,9.324 373.296,14.448 373.296,20.664 C373.296,30.03 376.866,31.374 381.36,31.374 C385.812,31.374 388.71,29.232 388.752,24.528 L384.972,24.528 C384.846,26.67 383.628,28.56 381.276,28.56 C378.588,28.56 376.992,27.384 376.992,21.462 L388.92,21.462 Z" id="Shape"></path>
            <path d="M1.42108547e-14,51.744 L1.42108547e-14,54.348 L3.276,54.348 L3.276,72.954 L6.72,72.954 L6.72,54.348 L11.004,54.348 L11.004,51.744 L6.72,51.744 L6.72,48.132 C6.72,46.41 7.35,44.856 11.004,45.108 L11.004,42.63 C10.5,42.546 10.08,42.504 9.366,42.504 C6.3,42.504 3.276,43.344 3.276,47.628 L3.276,51.744 L1.42108547e-14,51.744 Z" id="Path"></path>
            <path d="M21.798,70.56 C18.228,70.56 17.346,68.082 17.346,61.194 C17.346,55.398 19.152,54.138 21.798,54.138 C24.444,54.138 26.25,55.398 26.25,61.194 C26.25,68.082 25.368,70.56 21.798,70.56 Z M21.798,73.374 C26.292,73.374 29.862,72.03 29.862,62.664 C29.862,56.448 29.148,51.324 21.798,51.324 C14.448,51.324 13.734,56.448 13.734,62.664 C13.734,72.03 17.304,73.374 21.798,73.374 Z" id="Shape"></path>
            <path d="M38.892,51.744 L35.448,51.744 L35.448,72.954 L38.892,72.954 L38.892,60.438 C38.892,57.582 39.858,54.684 43.68,54.684 C44.016,54.684 44.31,54.726 44.604,54.768 C44.898,54.81 45.234,54.852 45.528,54.894 L45.528,51.324 C42.168,51.324 40.404,51.702 38.976,54.936 L38.892,54.936 L38.892,51.744 Z" id="Path"></path>
            <path d="M76.356,50.988 C76.734,45.108 74.424,42 68.418,42 C62.454,42 58.674,44.436 58.674,53.004 L58.674,61.572 C58.674,73.332 64.47,73.584 68.25,73.584 C70.224,73.584 76.986,73.584 76.818,64.008 L72.828,64.008 C72.786,69.93 69.216,70.35 68.04,70.35 C65.058,70.35 62.622,69.468 62.622,62.034 L62.622,53.928 C62.622,48.72 63.378,47.964 63.504,47.628 C63.63,47.208 64.89,45.276 68.082,45.276 C68.88,45.276 70.686,45.612 71.484,46.578 C72.282,47.544 72.408,49.266 72.366,50.988 L76.356,50.988 Z" id="Path"></path>
            <polygon id="Path" points="85.344 42.63 81.9 42.63 81.9 72.954 85.344 72.954"></polygon>
            <path d="M94.668,51.744 L91.224,51.744 L91.224,72.954 L94.668,72.954 L94.668,51.744 Z M91.014,46.326 L94.878,46.326 L94.878,42.63 L91.014,42.63 L91.014,46.326 Z" id="Shape"></path>
            <path d="M114.492,72.954 L114.492,58.674 C114.492,57.876 114.66,55.776 115.668,54.936 C116.592,54.18 116.97,54.138 118.272,54.138 C121.044,54.138 121.632,56.112 121.632,58.254 L121.632,72.954 L125.076,72.954 L125.076,56.826 C125.076,51.828 121.506,51.324 119.28,51.324 C117.348,51.324 115.416,51.786 114.24,54.054 C113.442,52.122 111.216,51.324 109.284,51.324 C106.806,51.324 105,52.122 103.992,54.39 L103.908,54.39 L103.908,51.744 L100.254,51.744 C100.38,53.214 100.464,54.684 100.464,56.154 L100.464,72.954 L103.908,72.954 L103.908,58.674 C103.908,57.876 104.076,56.616 104.706,55.566 C105.21,54.768 106.638,54.138 107.688,54.138 C110.46,54.138 111.048,56.112 111.048,58.254 L111.048,72.954 L114.492,72.954 Z" id="Path"></path>
            <path d="M141.792,62.412 C142.128,69.258 139.524,70.56 137.424,70.56 C135.114,70.56 134.106,68.712 134.106,66.654 C134.106,62.16 138.516,62.454 141.792,62.412 Z M141.876,72.954 L145.656,72.954 C145.404,71.316 145.236,69.594 145.236,67.914 L145.236,57.708 C145.236,54.138 143.808,51.324 138.348,51.324 C133.854,51.324 131.334,52.962 131.166,57.708 L134.904,57.708 C134.694,55.482 135.912,53.928 138.222,53.928 C141.918,53.928 141.876,56.994 141.792,59.808 C136.962,59.682 130.662,59.976 130.662,66.402 C130.662,70.476 131.964,73.374 136.458,73.374 C139.104,73.374 140.742,72.324 141.792,69.888 L141.876,69.888 L141.876,72.954 Z" id="Shape"></path>
            <path d="M148.848,51.744 L148.848,54.348 L152.334,54.348 L152.334,69.426 C152.334,71.862 153.804,73.206 157.08,73.206 C158.214,73.206 159.348,72.954 160.482,72.87 L160.482,70.224 C159.726,70.308 159.18,70.392 158.928,70.392 C155.778,70.392 155.778,68.67 155.778,67.326 L155.778,54.348 L160.398,54.348 L160.398,51.744 L155.778,51.744 L155.778,46.116 L152.334,47.67 L152.334,51.744 L148.848,51.744 Z" id="Path"></path>
            <path d="M166.992,60.858 C167.034,54.978 168.84,53.928 171.024,53.928 C173.544,53.928 175.266,54.684 175.266,60.858 L166.992,60.858 Z M178.92,63.462 L178.92,61.656 C178.92,54.642 177.408,51.324 171.36,51.324 C164.01,51.324 163.296,56.448 163.296,62.664 C163.296,72.03 166.866,73.374 171.36,73.374 C175.812,73.374 178.71,71.232 178.752,66.528 L174.972,66.528 C174.846,68.67 173.628,70.56 171.276,70.56 C168.588,70.56 166.992,69.384 166.992,63.462 L178.92,63.462 Z" id="Shape"></path>
            <path d="M193.494,63.924 C193.41,66.822 193.41,73.668 202.356,73.584 C207.354,73.584 211.764,71.526 211.764,65.142 C211.764,55.524 198.156,56.49 198.156,49.812 C198.156,46.536 200.508,45.36 202.818,45.36 C206.472,45.36 207.522,47.544 207.48,50.862 L211.512,50.862 C211.764,44.688 208.656,42 203.112,42 C198.03,42 194.208,44.856 194.208,50.232 C194.208,59.346 207.816,58.59 207.816,65.31 C207.816,68.922 205.464,70.224 202.398,70.224 C199.92,70.224 197.316,68.922 197.316,64.806 L197.316,63.924 L193.494,63.924 Z" id="Path"></path>
            <path d="M214.2,51.744 L214.2,54.348 L217.686,54.348 L217.686,69.426 C217.686,71.862 219.156,73.206 222.432,73.206 C223.566,73.206 224.7,72.954 225.834,72.87 L225.834,70.224 C225.078,70.308 224.532,70.392 224.28,70.392 C221.13,70.392 221.13,68.67 221.13,67.326 L221.13,54.348 L225.75,54.348 L225.75,51.744 L221.13,51.744 L221.13,46.116 L217.686,47.67 L217.686,51.744 L214.2,51.744 Z" id="Path"></path>
            <path d="M240.324,65.814 C240.324,69.342 238.014,70.728 236.166,70.728 C233.73,70.728 232.554,69.006 232.554,66.444 L232.554,51.744 L229.11,51.744 L229.11,67.914 C229.11,71.526 231.126,73.374 234.822,73.374 C237.048,73.374 239.064,72.324 240.198,70.392 L240.324,70.392 L240.324,72.954 L243.978,72.954 C243.852,71.484 243.768,70.014 243.768,68.544 L243.768,51.744 L240.324,51.744 L240.324,65.814 Z" id="Path"></path>
            <path d="M261.198,61.488 C261.198,65.772 261.198,70.56 257.334,70.56 C253.008,70.56 253.008,65.94 253.008,62.748 C253.008,57.078 253.512,54.138 257.208,54.138 C261.03,54.138 261.198,58.674 261.198,61.488 Z M261.198,53.886 L261.072,53.886 C259.896,52.206 258.426,51.324 256.41,51.324 C249.564,51.324 249.396,57.414 249.396,62.706 C249.396,72.03 252.84,73.374 256.242,73.374 C258.468,73.374 259.938,72.408 261.114,70.434 L261.198,70.434 L261.198,72.954 L264.642,72.954 L264.642,42.63 L261.198,42.63 L261.198,53.886 Z" id="Shape"></path>
            <path d="M274.344,51.744 L270.9,51.744 L270.9,72.954 L274.344,72.954 L274.344,51.744 Z M270.69,46.326 L274.554,46.326 L274.554,42.63 L270.69,42.63 L270.69,46.326 Z" id="Shape"></path>
            <path d="M283.668,60.858 C283.71,54.978 285.516,53.928 287.7,53.928 C290.22,53.928 291.942,54.684 291.942,60.858 L283.668,60.858 Z M295.596,63.462 L295.596,61.656 C295.596,54.642 294.084,51.324 288.036,51.324 C280.686,51.324 279.972,56.448 279.972,62.664 C279.972,72.03 283.542,73.374 288.036,73.374 C292.488,73.374 295.386,71.232 295.428,66.528 L291.648,66.528 C291.522,68.67 290.304,70.56 287.952,70.56 C285.264,70.56 283.668,69.384 283.668,63.462 L295.596,63.462 Z" id="Shape"></path>
            <path d="M314.958,66.906 C314.958,60.438 304.374,60.522 304.374,56.784 C304.374,54.936 305.802,53.928 307.65,53.928 C309.834,53.928 311.01,55.104 310.968,57.33 L314.79,57.33 C315.084,53.13 311.85,51.324 308.07,51.324 C302.106,51.324 300.762,54.894 300.762,57.12 C300.762,63.462 311.346,63.546 311.346,67.326 C311.346,69.51 309.75,70.56 307.692,70.56 C304.206,70.56 304.164,67.704 304.164,66.486 L300.258,66.486 C300.132,71.358 302.988,73.374 307.566,73.374 C311.766,73.374 314.958,71.568 314.958,66.906 Z" id="Path"></path>
        </g>
        <g id="ncstate-type-4x1-blk-rgb" transform="translate(0.1424, 108.7559)" fill="#000000" fill-rule="nonzero">
            <g id="g2" transform="translate(0, 0.0895)">
                <polygon id="Path" points="7.10542736e-15 32.796413 7.10542736e-15 0.530998 9.1105 0.530998 17.696331 22.871834 17.781746 22.871834 17.781746 0.530998 24.080501 0.530998 24.080501 32.796413 15.193664 32.796413 6.384291 9.206123 6.298832 9.206123 6.298832 32.796413"></polygon>
                <path d="M29.455501,16.668667 C29.455501,8.129875 29.455501,3.55271368e-15 40.584251,3.55271368e-15 C47.469246,3.55271368e-15 50.240082,3.796375 49.975494,10.721832 L43.355499,10.721832 C43.355499,6.435123 42.598411,4.819706 40.584251,4.819706 C36.788002,4.819706 36.287582,8.398415 36.287582,16.668667 C36.287582,24.934746 36.788002,28.507668 40.584251,28.507668 C43.709251,28.507668 43.583,24.491417 43.672584,21.938042 L50.329666,21.938042 C50.329666,30.558083 46.887161,33.3335 40.584251,33.3335 C29.455501,33.3335 29.455501,25.105583 29.455501,16.668667 Z" id="path1"></path>
                <path d="M73.299248,33.3335 C64.94133,33.3335 63.37883,28.405582 63.728828,22.835167 L70.487587,22.835167 C70.487587,25.915581 70.613411,28.507668 74.324669,28.507668 C76.611336,28.507668 77.713829,27.030582 77.713829,24.845169 C77.713829,19.024628 64.135918,18.674705 64.135918,9.06575 C64.135918,4.020164 66.548828,3.55271368e-15 74.776329,3.55271368e-15 C81.343414,3.55271368e-15 84.598831,2.941875 84.159256,9.694416 L77.587997,9.694416 C77.587997,7.279457 77.180916,4.819706 74.458832,4.819706 C72.273834,4.819706 70.975914,6.030251 70.975914,8.260082 C70.975914,14.390041 84.557999,13.846832 84.557999,23.991001 C84.557999,32.344749 78.425911,33.3335 73.299248,33.3335 Z" id="path2"></path>
                <polygon id="path3" points="108.601738 0.530998 108.601738 5.897999 101.102577 5.897999 101.102577 32.796413 94.347999 32.796413 94.347999 5.897999 86.840912 5.897999 86.840912 0.530998"></polygon>
            </g>
            <g id="g3" transform="translate(106.5917, 0.6205)">
                <path d="M0,32.265415 L8.92334,3.55271368e-15 L17.82251,3.55271368e-15 L26.574585,32.265415 L19.470429,32.265415 L17.687928,25.112084 L8.47583,25.112084 L6.648743,32.265415 L0,32.265415 Z M12.996674,6.217461 L12.902909,6.217461 L9.822495,20.161919 L16.255844,20.161919 L12.996674,6.217461 Z" id="path4"></path>
            </g>
            <g id="g4" transform="translate(131.083, 0.6205)">
                <polygon id="path5" points="21.769577 3.55271368e-15 21.769577 5.367001 14.25 5.367001 14.25 32.265415 7.503327 32.265415 7.503327 5.367001 0 5.367001 0 3.55271368e-15"></polygon>
                <polygon id="path6" points="24.902496 32.265415 24.902496 3.55271368e-15 42.500839 3.55271368e-15 42.500839 4.962166 31.648758 4.962166 31.648758 12.921128 41.654587 12.921128 41.654587 17.875168 31.648758 17.875168 31.648758 27.305001 42.863327 27.305001 42.863327 32.265415"></polygon>
            </g>
            <path d="M191.210915,20.904541 C191.210915,25.105957 191.210915,31.099292 197.778419,31.099292 C204.349663,31.099292 204.349663,25.105957 204.349663,20.904541 L204.349663,0.62054 L207.206322,0.62054 L207.206322,23.018459 C207.206322,31.323455 202.821739,33.512207 197.778419,33.512207 C192.728828,33.512207 188.350502,31.323455 188.350502,23.018459 L188.350502,0.62054 L191.210915,0.62054 L191.210915,20.904541 Z" id="path7"></path>
            <polygon id="path8" points="215.661751 32.885955 215.661751 0.62054 220.047996 0.62054 233.133827 28.950958 233.223427 28.861377 233.223427 0.62054 236.080086 0.62054 236.080086 32.885955 231.742165 32.885955 218.623833 4.239917 218.526329 4.337581 218.526329 32.885955"></polygon>
            <polygon id="path9" points="247.937172 0.62054 247.937172 32.885955 245.072578 32.885955 245.072578 0.62054"></polygon>
            <polygon id="path10" points="272.603401 0.62054 275.370094 0.62054 266.434669 32.885955 262.870094 32.885955 253.877571 0.62054 256.921333 0.62054 264.571358 29.483875 264.644234 29.483875"></polygon>
            <polygon id="path11" points="295.804665 0.62054 295.804665 3.031417 284.053413 3.031417 284.053413 15.094001 295.283821 15.094001 295.283821 17.519123 284.053413 17.519123 284.053413 30.472622 296.114265 30.472622 296.114265 32.885955 281.197151 32.885955 281.197151 0.62054"></polygon>
            <path d="M305.59507,17.242458 L305.59507,32.885955 L302.746742,32.885955 L302.746742,0.62054 L311.63343,0.62054 C317.850899,0.62054 319.405067,2.677417 319.405067,8.349624 C319.405067,12.379959 318.729652,15.055336 314.400062,16.040042 L314.400062,16.129585 C318.916756,17.063415 319.185524,17.600502 319.185524,29.134292 C319.185524,30.379291 319.405067,31.624294 319.486336,32.885955 L316.776344,32.885955 C316.499672,31.941791 316.369667,26.578876 316.32093,24.849292 C316.280067,23.453876 317.215919,17.242458 311.014656,17.242458 L305.59507,17.242458 Z M305.59507,14.827503 L310.249672,14.827503 C314.538399,14.827503 316.540504,13.718666 316.540504,8.304874 C316.540504,3.885917 314.798836,3.031417 311.454262,3.031417 L305.59507,3.031417 L305.59507,14.827503 Z" id="path12"></path>
            <path d="M340.913826,8.797206 C340.832588,4.827873 339.839668,2.410915 335.453407,2.410915 C331.978401,2.410915 329.780922,3.617374 329.780922,7.413749 C329.780922,12.200916 332.198006,12.325042 335.868416,14.971916 C339.839668,17.820251 343.90049,18.674751 343.90049,24.934711 C343.90049,30.696792 340.962562,33.512207 335.331337,33.512207 C329.03257,33.512207 326.208443,30.106792 326.468849,23.807624 L329.439247,23.807624 C329.439247,27.384292 329.699684,31.099292 335.453407,31.099292 C339.21299,31.099292 341.044258,29.085125 341.044258,25.370124 C341.044258,20.994083 338.138832,19.748958 333.492195,16.892501 C327.250099,13.041168 326.973396,11.126709 326.92466,7.906082 C326.883827,2.323417 330.415901,0 335.681343,0 C342.386757,0 343.819221,4.150417 343.819221,8.797206 L340.913826,8.797206 Z" id="path13"></path>
            <polygon id="path14" points="354.81382 0.62054 354.81382 32.885955 351.957161 32.885955 351.957161 0.62054"></polygon>
            <polygon id="path15" points="368.843422 3.031417 360.990486 3.031417 360.990486 0.62054 379.577583 0.62054 379.577583 3.031417 371.716347 3.031417 371.716347 32.885955 368.843422 32.885955"></polygon>
            <polygon id="path16" points="391.923012 19.480377 382.800514 0.62054 386.023018 0.62054 393.395943 16.664623 401.127174 0.62054 403.983406 0.62054 394.787605 19.480377 394.787605 32.885955 391.923012 32.885955"></polygon>
        </g>
    </g>
</svg>