<svg xmlns="http://www.w3.org/2000/svg" width="405" height="143" viewBox="0 0 405 143"><title>Slice</title><g fill="#000" fill-rule="nonzero"><path d="M20.958 1.676v25.956h-.084L9.072 1.676h-5.46V32h3.444V5.708h.084L19.11 32h5.292V1.676zM38.514 29.606c-3.57 0-4.452-2.478-4.452-9.366 0-5.796 1.806-7.056 4.452-7.056s4.452 1.26 4.452 7.056c0 6.888-.882 9.366-4.452 9.366m0 2.814c4.494 0 8.064-1.344 8.064-10.71 0-6.216-.714-11.34-8.064-11.34s-8.064 5.124-8.064 11.34c0 9.366 3.57 10.71 8.064 10.71M55.608 10.79h-3.444V32h3.444V19.484c0-2.856.966-5.754 4.788-5.754.336 0 .63.042.924.084s.63.084.924.126v-3.57c-3.36 0-5.124.378-6.552 3.612h-.084zM62.916 10.79v2.604h3.486v15.078c0 2.436 1.47 3.78 4.746 3.78 1.134 0 2.268-.252 3.402-.336V29.27c-.756.084-1.302.168-1.554.168-3.15 0-3.15-1.722-3.15-3.066V13.394h4.62V10.79h-4.62V5.162l-3.444 1.554v4.074zM92.652 32V16.964c0-4.788-2.016-6.594-5.628-6.594-2.772 0-4.368.672-5.754 3.15h-.168V1.676h-3.444V32h3.444V19.526c0-3.57.882-6.342 4.326-6.342 2.94 0 3.78 1.848 3.78 4.452V32zM125.748 10.034c.378-5.88-1.932-8.988-7.938-8.988-5.964 0-9.744 2.436-9.744 11.004v8.568c0 11.76 5.796 12.012 9.576 12.012 1.974 0 8.736 0 8.568-9.576h-3.99c-.042 5.922-3.612 6.342-4.788 6.342-2.982 0-5.418-.882-5.418-8.316v-8.106c0-5.208.756-5.964.882-6.3.126-.42 1.386-2.352 4.578-2.352.798 0 2.604.336 3.402 1.302s.924 2.688.882 4.41zM142.212 21.458c.336 6.846-2.268 8.148-4.368 8.148-2.31 0-3.318-1.848-3.318-3.906 0-4.494 4.41-4.2 7.686-4.242M142.296 32h3.78c-.252-1.638-.42-3.36-.42-5.04V16.754c0-3.57-1.428-6.384-6.888-6.384-4.494 0-7.014 1.638-7.182 6.384h3.738c-.21-2.226 1.008-3.78 3.318-3.78 3.696 0 3.654 3.066 3.57 5.88-4.83-.126-11.13.168-11.13 6.594 0 4.074 1.302 6.972 5.796 6.972 2.646 0 4.284-1.05 5.334-3.486h.084zM155.946 10.79h-3.444V32h3.444V19.484c0-2.856.966-5.754 4.788-5.754.336 0 .63.042.924.084s.63.084.924.126v-3.57c-3.36 0-5.124.378-6.552 3.612h-.084zM173.838 29.606c-3.57 0-4.452-2.478-4.452-9.366 0-5.796 1.806-7.056 4.452-7.056s4.452 1.26 4.452 7.056c0 6.888-.882 9.366-4.452 9.366m0 2.814c4.494 0 8.064-1.344 8.064-10.71 0-6.216-.714-11.34-8.064-11.34s-8.064 5.124-8.064 11.34c0 9.366 3.57 10.71 8.064 10.71M190.722 1.676h-3.444V32h3.444zM200.046 10.79h-3.444V32h3.444zm-3.654-5.418h3.864V1.676h-3.864zM220.962 32V17.3c0-4.2-1.134-6.93-5.67-6.93-2.73 0-4.326.756-5.67 3.15h-.168v-2.73H205.8c.126 1.47.21 2.94.21 4.41V32h3.444V19.442c0-2.898.546-6.258 4.326-6.258 2.94 0 3.738 1.848 3.738 4.116V32zM237.846 21.458c.336 6.846-2.268 8.148-4.368 8.148-2.31 0-3.318-1.848-3.318-3.906 0-4.494 4.41-4.2 7.686-4.242M237.93 32h3.78c-.252-1.638-.42-3.36-.42-5.04V16.754c0-3.57-1.428-6.384-6.888-6.384-4.494 0-7.014 1.638-7.182 6.384h3.738c-.21-2.226 1.008-3.78 3.318-3.78 3.696 0 3.654 3.066 3.57 5.88-4.83-.126-11.13.168-11.13 6.594 0 4.074 1.302 6.972 5.796 6.972 2.646 0 4.284-1.05 5.334-3.486h.084zM262.08 1.676h-3.864V32h3.864zM283.962 32V17.3c0-4.2-1.134-6.93-5.67-6.93-2.73 0-4.326.756-5.67 3.15h-.168v-2.73H268.8c.126 1.47.21 2.94.21 4.41V32h3.444V19.442c0-2.898.546-6.258 4.326-6.258 2.94 0 3.738 1.848 3.738 4.116V32zM303.66 25.952c0-6.468-10.584-6.384-10.584-10.122 0-1.848 1.428-2.856 3.276-2.856 2.184 0 3.36 1.176 3.318 3.402h3.822c.294-4.2-2.94-6.006-6.72-6.006-5.964 0-7.308 3.57-7.308 5.796 0 6.342 10.584 6.426 10.584 10.206 0 2.184-1.596 3.234-3.654 3.234-3.486 0-3.528-2.856-3.528-4.074h-3.906c-.126 4.872 2.73 6.888 7.308 6.888 4.2 0 7.392-1.806 7.392-6.468M305.55 10.79v2.604h3.486v15.078c0 2.436 1.47 3.78 4.746 3.78 1.134 0 2.268-.252 3.402-.336V29.27c-.756.084-1.302.168-1.554.168-3.15 0-3.15-1.722-3.15-3.066V13.394h4.62V10.79h-4.62V5.162l-3.444 1.554v4.074zM323.694 10.79h-3.444V32h3.444zm-3.654-5.418h3.864V1.676h-3.864zM326.55 10.79v2.604h3.486v15.078c0 2.436 1.47 3.78 4.746 3.78 1.134 0 2.268-.252 3.402-.336V29.27c-.756.084-1.302.168-1.554.168-3.15 0-3.15-1.722-3.15-3.066V13.394h4.62V10.79h-4.62V5.162l-3.444 1.554v4.074zM352.674 24.86c0 3.528-2.31 4.914-4.158 4.914-2.436 0-3.612-1.722-3.612-4.284v-14.7h-3.444v16.17c0 3.612 2.016 5.46 5.712 5.46 2.226 0 4.242-1.05 5.376-2.982h.126V32h3.654c-.126-1.47-.21-2.94-.21-4.41v-16.8h-3.444zM359.226 10.79v2.604h3.486v15.078c0 2.436 1.47 3.78 4.746 3.78 1.134 0 2.268-.252 3.402-.336V29.27c-.756.084-1.302.168-1.554.168-3.15 0-3.15-1.722-3.15-3.066V13.394h4.62V10.79h-4.62V5.162l-3.444 1.554v4.074zM377.37 19.904c.042-5.88 1.848-6.93 4.032-6.93 2.52 0 4.242.756 4.242 6.93zm11.928 2.604v-1.806c0-7.014-1.512-10.332-7.56-10.332-7.35 0-8.064 5.124-8.064 11.34 0 9.366 3.57 10.71 8.064 10.71 4.452 0 7.35-2.142 7.392-6.846h-3.78c-.126 2.142-1.344 4.032-3.696 4.032-2.688 0-4.284-1.176-4.284-7.098zM.378 52.79v2.604h3.276V74h3.444V55.394h4.284V52.79H7.098v-3.612c0-1.722.63-3.276 4.284-3.024v-2.478a9 9 0 0 0-1.638-.126c-3.066 0-6.09.84-6.09 5.124v4.116zM22.176 71.606c-3.57 0-4.452-2.478-4.452-9.366 0-5.796 1.806-7.056 4.452-7.056s4.452 1.26 4.452 7.056c0 6.888-.882 9.366-4.452 9.366m0 2.814c4.494 0 8.064-1.344 8.064-10.71 0-6.216-.714-11.34-8.064-11.34s-8.064 5.124-8.064 11.34c0 9.366 3.57 10.71 8.064 10.71M39.27 52.79h-3.444V74h3.444V61.484c0-2.856.966-5.754 4.788-5.754.336 0 .63.042.924.084s.63.084.924.126v-3.57c-3.36 0-5.124.378-6.552 3.612h-.084zM76.734 52.034c.378-5.88-1.932-8.988-7.938-8.988-5.964 0-9.744 2.436-9.744 11.004v8.568c0 11.76 5.796 12.012 9.576 12.012 1.974 0 8.736 0 8.568-9.576h-3.99c-.042 5.922-3.612 6.342-4.788 6.342-2.982 0-5.418-.882-5.418-8.316v-8.106c0-5.208.756-5.964.882-6.3.126-.42 1.386-2.352 4.578-2.352.798 0 2.604.336 3.402 1.302s.924 2.688.882 4.41zM85.722 43.676h-3.444V74h3.444zM95.046 52.79h-3.444V74h3.444zm-3.654-5.418h3.864v-3.696h-3.864zM114.87 74V59.72c0-.798.168-2.898 1.176-3.738.924-.756 1.302-.798 2.604-.798 2.772 0 3.36 1.974 3.36 4.116V74h3.444V57.872c0-4.998-3.57-5.502-5.796-5.502-1.932 0-3.864.462-5.04 2.73-.798-1.932-3.024-2.73-4.956-2.73-2.478 0-4.284.798-5.292 3.066h-.084V52.79h-3.654c.126 1.47.21 2.94.21 4.41V74h3.444V59.72c0-.798.168-2.058.798-3.108.504-.798 1.932-1.428 2.982-1.428 2.772 0 3.36 1.974 3.36 4.116V74zM142.17 63.458c.336 6.846-2.268 8.148-4.368 8.148-2.31 0-3.318-1.848-3.318-3.906 0-4.494 4.41-4.2 7.686-4.242M142.254 74h3.78c-.252-1.638-.42-3.36-.42-5.04V58.754c0-3.57-1.428-6.384-6.888-6.384-4.494 0-7.014 1.638-7.182 6.384h3.738c-.21-2.226 1.008-3.78 3.318-3.78 3.696 0 3.654 3.066 3.57 5.88-4.83-.126-11.13.168-11.13 6.594 0 4.074 1.302 6.972 5.796 6.972 2.646 0 4.284-1.05 5.334-3.486h.084zM149.226 52.79v2.604h3.486v15.078c0 2.436 1.47 3.78 4.746 3.78 1.134 0 2.268-.252 3.402-.336V71.27c-.756.084-1.302.168-1.554.168-3.15 0-3.15-1.722-3.15-3.066V55.394h4.62V52.79h-4.62v-5.628l-3.444 1.554v4.074zM167.37 61.904c.042-5.88 1.848-6.93 4.032-6.93 2.52 0 4.242.756 4.242 6.93zm11.928 2.604v-1.806c0-7.014-1.512-10.332-7.56-10.332-7.35 0-8.064 5.124-8.064 11.34 0 9.366 3.57 10.71 8.064 10.71 4.452 0 7.35-2.142 7.392-6.846h-3.78c-.126 2.142-1.344 4.032-3.696 4.032-2.688 0-4.284-1.176-4.284-7.098zM193.872 64.97c-.084 2.898-.084 9.744 8.862 9.66 4.998 0 9.408-2.058 9.408-8.442 0-9.618-13.608-8.652-13.608-15.33 0-3.276 2.352-4.452 4.662-4.452 3.654 0 4.704 2.184 4.662 5.502h4.032c.252-6.174-2.856-8.862-8.4-8.862-5.082 0-8.904 2.856-8.904 8.232 0 9.114 13.608 8.358 13.608 15.078 0 3.612-2.352 4.914-5.418 4.914-2.478 0-5.082-1.302-5.082-5.418v-.882zM214.578 52.79v2.604h3.486v15.078c0 2.436 1.47 3.78 4.746 3.78 1.134 0 2.268-.252 3.402-.336V71.27c-.756.084-1.302.168-1.554.168-3.15 0-3.15-1.722-3.15-3.066V55.394h4.62V52.79h-4.62v-5.628l-3.444 1.554v4.074zM240.702 66.86c0 3.528-2.31 4.914-4.158 4.914-2.436 0-3.612-1.722-3.612-4.284v-14.7h-3.444v16.17c0 3.612 2.016 5.46 5.712 5.46 2.226 0 4.242-1.05 5.376-2.982h.126V74h3.654c-.126-1.47-.21-2.94-.21-4.41v-16.8h-3.444zM261.576 62.534c0 4.284 0 9.072-3.864 9.072-4.326 0-4.326-4.62-4.326-7.812 0-5.67.504-8.61 4.2-8.61 3.822 0 3.99 4.536 3.99 7.35m0-7.602h-.126c-1.176-1.68-2.646-2.562-4.662-2.562-6.846 0-7.014 6.09-7.014 11.382 0 9.324 3.444 10.668 6.846 10.668 2.226 0 3.696-.966 4.872-2.94h.084V74h3.444V43.676h-3.444zM274.722 52.79h-3.444V74h3.444zm-3.654-5.418h3.864v-3.696h-3.864zM284.046 61.904c.042-5.88 1.848-6.93 4.032-6.93 2.52 0 4.242.756 4.242 6.93zm11.928 2.604v-1.806c0-7.014-1.512-10.332-7.56-10.332-7.35 0-8.064 5.124-8.064 11.34 0 9.366 3.57 10.71 8.064 10.71 4.452 0 7.35-2.142 7.392-6.846h-3.78c-.126 2.142-1.344 4.032-3.696 4.032-2.688 0-4.284-1.176-4.284-7.098zM315.336 67.952c0-6.468-10.584-6.384-10.584-10.122 0-1.848 1.428-2.856 3.276-2.856 2.184 0 3.36 1.176 3.318 3.402h3.822c.294-4.2-2.94-6.006-6.72-6.006-5.964 0-7.308 3.57-7.308 5.796 0 6.342 10.584 6.426 10.584 10.206 0 2.184-1.596 3.234-3.654 3.234-3.486 0-3.528-2.856-3.528-4.074h-3.906c-.126 4.872 2.73 6.888 7.308 6.888 4.2 0 7.392-1.806 7.392-6.468M.142 141.642v-32.266h9.11l8.587 22.341h.085v-22.34h6.299v32.265h-8.887l-8.81-23.59h-.085v23.59zM29.598 125.514c0-8.539 0-16.669 11.129-16.669 6.885 0 9.655 3.797 9.39 10.722h-6.62c0-4.286-.756-5.902-2.77-5.902-3.797 0-4.297 3.579-4.297 11.85 0 8.265.5 11.838 4.297 11.838 3.125 0 2.998-4.016 3.088-6.57h6.657c0 8.62-3.442 11.396-9.745 11.396-11.13 0-11.13-8.228-11.13-16.665M73.442 142.179c-8.358 0-9.92-4.928-9.57-10.498h6.758c0 3.08.126 5.672 3.837 5.672 2.287 0 3.39-1.477 3.39-3.662 0-5.821-13.579-6.17-13.579-15.78 0-5.045 2.413-9.066 10.64-9.066 6.568 0 9.823 2.942 9.384 9.695H77.73c0-2.415-.407-4.875-3.129-4.875-2.185 0-3.483 1.21-3.483 3.44 0 6.13 13.582 5.587 13.582 15.731 0 8.354-6.132 9.343-11.258 9.343M108.744 109.376v5.367h-7.499v26.899H94.49v-26.899h-7.507v-5.367zM106.734 141.642l8.923-32.266h8.9l8.752 32.266h-7.104l-1.783-7.154h-9.212l-1.827 7.154zm12.997-26.048h-.094l-3.08 13.944h6.433zM152.995 109.376v5.367h-7.52v26.899h-6.746v-26.899h-7.504v-5.367zM156.128 141.642v-32.266h17.598v4.963h-10.852v7.959h10.006v4.954h-10.006v9.43h11.215v4.96zM191.353 129.66c0 4.202 0 10.195 6.568 10.195 6.571 0 6.571-5.993 6.571-10.195v-20.284h2.857v22.398c0 8.305-4.385 10.494-9.428 10.494-5.05 0-9.428-2.189-9.428-10.494v-22.398h2.86zM215.804 141.642v-32.266h4.386l13.086 28.33.09-.089v-28.24h2.856v32.265h-4.337l-13.119-28.646-.097.097v28.549zM248.08 109.376v32.266h-2.865v-32.266zM272.746 109.376h2.766l-8.935 32.266h-3.565l-8.992-32.266h3.044l7.65 28.864h.073zM295.947 109.376v2.411h-11.751v12.063h11.23v2.425h-11.23v12.954h12.06v2.413H281.34v-32.266zM305.737 125.998v15.644h-2.848v-32.266h8.887c6.217 0 7.771 2.057 7.771 7.73 0 4.03-.675 6.705-5.005 7.69v.09c4.517.933 4.786 1.47 4.786 13.004 0 1.245.22 2.49.3 3.752h-2.71c-.276-.944-.406-6.307-.455-8.037-.04-1.395.895-7.607-5.306-7.607zm0-2.415h4.655c4.289 0 6.29-1.108 6.29-6.522 0-4.42-1.74-5.274-5.085-5.274h-5.86zM341.056 117.553c-.081-3.97-1.074-6.386-5.46-6.386-3.475 0-5.673 1.206-5.673 5.003 0 4.787 2.417 4.91 6.088 7.558 3.971 2.848 8.032 3.703 8.032 9.963 0 5.762-2.938 8.577-8.57 8.577-6.298 0-9.122-3.405-8.862-9.704h2.97c0 3.576.261 7.291 6.015 7.291 3.76 0 5.59-2.014 5.59-5.729 0-4.376-2.905-5.621-7.551-8.478-6.243-3.85-6.52-5.765-6.568-8.986-.04-5.583 3.491-7.906 8.757-7.906 6.705 0 8.138 4.15 8.138 8.797zM354.956 109.376v32.266H352.1v-32.266zM368.986 111.787h-7.853v-2.41h18.587v2.41h-7.861v29.855h-2.873zM392.065 128.236l-9.122-18.86h3.222l7.373 16.045 7.732-16.045h2.856l-9.196 18.86v13.406h-2.865z"/></g></svg>