<?xml version="1.0" encoding="UTF-8"?>
<svg width="172px" height="137px" viewBox="0 0 172 137" version="1.1" xmlns="http://www.w3.org/2000/svg" xmlns:xlink="http://www.w3.org/1999/xlink">
    <title>Untitled 8</title>
    <g id="Page-1" stroke="none" stroke-width="1" fill="none" fill-rule="evenodd">
        <g id="logo-vertical-colored-white" fill="#000000">
            <path d="M94.7080979,4.39257668 C102.734562,7.78382133 108.358509,15.7263653 108.358509,24.9982188 C108.358509,30.704379 106.228467,35.8994835 102.721677,39.845396 C102.268708,38.9854428 101.70671,37.3142036 102.482803,35.0289246 C103.393696,32.3599574 101.827634,28.9425454 99.9622361,27.5311953 C98.9036574,26.7270459 97.2323322,27.7266572 96.237982,27.8958527 C94.1969472,28.2499045 92.9479631,27.2730904 91.8925562,24.4138154 C90.1411438,19.6828834 93.5741897,17.0870658 95.5506988,16.2218593 C97.523937,15.3513004 99.3764496,14.0063598 100.634255,14.6325912 C101.474775,15.0495833 101.640301,16.0369039 101.926752,16.2706256 C102.73258,16.9300619 103.634552,17.289466 104.575181,16.4886866 C105.851819,15.4001659 102.326197,11.9880072 100.220934,12.1606718 C97.8391317,12.3543496 97.6736049,13.4219564 96.403707,14.1982534 C95.1267717,14.9780197 92.991575,15.0198477 93.249777,12.9840503 C93.5672515,10.4808094 96.5939142,12.7450753 95.7722272,9.86320123 C94.9506393,7.55704782 96.8886907,9.49864293 97.7082962,8.34729089 C98.5280008,7.19593885 96.9846367,6.40569578 96.1193379,7.28665221 C95.2593914,8.16935313 94.1585886,7.29188568 94.5476261,5.16886384 C94.636634,4.68216166 94.6697393,4.55132507 94.7064129,4.39083219 L94.7080979,4.39257668 Z M77.6647834,4.24603971 C77.8427,4.99092609 78.29101,6.54351032 79.0027753,7.06510226 C79.9500446,7.75590952 80.4227376,9.14276742 79.2382793,9.6852833 C78.053821,10.2226054 77.6002577,10.5104459 78.3695113,10.8366453 C79.13708,11.1646288 78.5666568,12.6683574 77.443255,12.281101 C76.3197542,11.8973137 74.9573793,11.3181635 74.8596491,12.5322676 C74.762018,13.7464707 73.9455843,15.1472151 73.3315492,15.839757 C72.7175141,16.5358671 72.1173555,16.7905028 72.3319457,17.7325262 C72.550005,18.679803 71.9481614,19.4107037 71.5836059,18.602986 C71.2190505,17.7935833 69.751908,17.7185505 68.8220835,18.6187459 C68.8220835,18.6187459 66.2578055,21.5058732 67.5992665,21.779738 C69.2652394,22.1250672 71.185846,22.2420272 71.6986817,24.0545104 C72.0353851,25.2320397 72.8029537,26.2089528 74.3433442,25.5547699 C75.8801665,24.8988029 77.7763901,24.7662813 79.2853603,26.2909239 C80.7943305,27.8155666 81.841015,26.0449115 83.4388938,29.5880059 C85.1118049,31.8191662 89.3665378,28.1034071 87.041233,35.0063256 C85.5933195,39.3047039 83.911686,37.181682 83.5313708,39.0255858 C82.9086133,42.0365123 78.3398751,45.9545724 78.3398751,45.9545724 L74.9364655,44.3792801 C74.9364655,44.3792801 76.4977698,37.5131347 74.9364655,36.2605726 C73.3716919,35.0063256 71.6690455,31.2749058 72.0895034,29.532103 C72.5063931,27.7893993 73.4850828,27.2189716 71.1963525,25.9647246 C68.9076222,24.7121625 69.327981,23.5137192 67.5974824,23.1055487 C66.1931807,22.7705277 64.3790267,23.1002954 63.7195956,23.2398544 C63.7771831,22.5037004 63.8695609,21.779738 63.9987115,21.064498 L64.8831401,17.6540243 C67.0026762,11.5449469 71.6935276,6.6464351 77.6664684,4.24952868 L77.6647834,4.24603971 Z M86.0014868,0 C72.2098325,0 61,11.209926 61,24.9982188 C61,38.7865117 72.2098325,50 86.0014868,50 C99.7927446,50 111,38.79008 111,24.9982188 C111,11.2064568 99.7917534,0 86.0014868,0 Z" id="Shape"></path>
            <path d="M120.064368,57.4654417 L127.997101,61.5958586 L86.0936389,81 L44.3044956,58.2103386 L52.2367455,54.7954587 L55.8356108,56.7604115 L55.5821382,56.8744143 C55.6093892,56.9608247 55.6382829,57.0472351 55.6382829,57.1474908 C55.6382829,57.5052102 55.3423878,57.8076465 54.9886086,57.8076465 C54.7062424,57.8076465 54.4801174,57.6504385 54.3814535,57.4067219 L51.6993606,58.5836708 L54.3389343,60.0179851 L54.3389343,59.9315748 C54.3389343,59.3146242 54.8321572,58.8134439 55.4393123,58.8134439 C56.0464674,58.8134439 56.5396904,59.3146242 56.5396904,59.9315748 C56.5396904,60.3481121 56.3134688,60.7196768 55.9750545,60.9063429 L61.4939523,63.9185307 C61.550097,63.6178618 61.8188378,63.3879905 62.1300978,63.3879905 C62.4821376,63.3879905 62.7797721,63.6886594 62.7797721,64.0481463 C62.7797721,64.2209671 62.7100019,64.3921186 62.5960697,64.5078889 L67.7476595,67.3196635 C67.6353701,67.1468427 67.5775826,66.9463313 67.5775826,66.7320728 C67.5775826,66.1151222 68.0708055,65.6139419 68.6779606,65.6139419 C69.2851157,65.6139419 69.7783387,66.1151222 69.7783387,66.7320728 C69.7783387,67.3490234 69.3123667,67.8208438 68.7204799,67.8502037 L76.4266049,72.0514181 C76.5251722,71.5347232 76.962347,71.1613911 77.499732,71.1613911 C78.1068871,71.1613911 78.60011,71.6625713 78.60011,72.2795219 C78.60011,72.580289 78.4879172,72.8532673 78.2905894,73.0537787 L86.2518297,77.3690941 L90.7962644,75.2606805 C90.612562,75.0601691 90.5002726,74.7870926 90.5002726,74.5002691 C90.5002726,73.8833185 90.9934956,73.3821382 91.6006507,73.3821382 C92.1652866,73.3821382 92.6449806,73.826268 92.7010287,74.3861681 L109.736063,66.4987647 C109.722534,66.4417142 109.707073,66.3846637 109.707073,66.3259439 C109.707073,65.9682245 110.002775,65.6657882 110.356457,65.6657882 C110.582582,65.6657882 110.779717,65.7954038 110.892779,65.9664571 L114.661528,64.2175303 C114.181254,64.1034293 113.814043,63.6576302 113.814043,63.1269919 C113.814043,62.5100413 114.307846,62.008861 114.914711,62.008861 C115.521576,62.008861 116.015379,62.5100413 116.015379,63.1269919 C116.015379,63.3136579 115.972859,63.4848094 115.887821,63.6437849 L119.443974,61.9951139 C119.104786,61.8084478 118.865133,61.4351156 118.865133,61.0048311 C118.865133,60.8320103 118.894123,60.6747041 118.9637,60.5313414 L116.367129,59.1833393 L120.062435,57.4637724 L120.064368,57.4654417 Z M97.9920622,69.3242864 C97.9920622,68.7073358 97.4988392,68.2061556 96.8916841,68.2061556 C96.284529,68.2061556 95.7913061,68.7073358 95.7913061,69.3242864 C95.7913061,69.9413352 96.284529,70.4425155 96.8916841,70.4425155 C97.4988392,70.4425155 97.9920622,69.9413352 97.9920622,69.3242864 Z M105.585608,67.4613569 C105.585608,66.8426388 105.092772,66.343226 104.485906,66.343226 C103.878075,66.343226 103.385238,66.8444063 103.385238,67.4613569 C103.385238,68.0783075 103.878075,68.5794877 104.485906,68.5794877 C105.092772,68.5794877 105.585608,68.0783075 105.585608,67.4613569 Z M110.340996,63.3741452 C110.340996,62.7571946 109.848159,62.2560144 109.241294,62.2560144 C108.633463,62.2560144 108.140626,62.7571946 108.140626,63.3741452 C108.140626,63.9910958 108.633463,64.4922761 109.241294,64.4922761 C109.848159,64.4922761 110.340996,63.9910958 110.340996,63.3741452 Z M84.7959331,73.3976528 C84.7959331,72.7807022 84.3027101,72.2795219 83.695555,72.2795219 C83.0883999,72.2795219 82.595177,72.7807022 82.595177,73.3976528 C82.595177,74.0146034 83.0883999,74.5157836 83.695555,74.5157836 C84.3027101,74.5157836 84.7959331,74.0146034 84.7959331,73.3976528 Z M61.3256148,60.4759602 C61.6215099,60.4759602 61.9038762,60.3619574 62.1011074,60.161446 L60.2388623,59.1435709 C60.2252368,59.2143685 60.2252368,59.2870318 60.2252368,59.3595969 C60.2252368,59.9765474 60.7184597,60.4777277 61.3256148,60.4777277 L61.3256148,60.4759602 Z M74.7768592,68.2908967 C75.2292057,68.2908967 75.6238614,68.0178202 75.7921988,67.6168956 L73.8448187,66.5558152 C73.7326259,66.728636 73.6747418,66.9428945 73.6747418,67.157153 C73.6747418,67.7879489 74.1679647,68.2908967 74.7751198,68.2908967 L74.7768592,68.2908967 Z M64.3613903,62.8850428 C64.3613903,63.5020915 64.8546133,64.0032718 65.461865,64.0032718 C66.0690201,64.0032718 66.562243,63.5020915 66.562243,62.8850428 C66.562243,62.7710399 66.5486176,62.669115 66.5197238,62.555014 L65.1369795,61.8084478 C64.6862758,61.9380634 64.3613903,62.3666786 64.3613903,62.8833735 L64.3613903,62.8850428 Z M127.998067,51.9871209 L86.0953783,71.3912623 L44.3061384,48.6016009 L51.5888106,45.4044164 L54.8066457,47.1533431 L55.1875792,47.3693691 L56.8815835,48.2870868 L58.3203759,52.547021 L61.6657686,54.368611 L60.2405051,50.1085786 L62.3154429,51.242224 L63.7407064,55.5022565 L67.1982919,57.3946441 L65.7730284,53.1346117 L67.8479662,54.2683553 L69.2732297,58.5282896 L72.533584,60.3066744 L71.1083205,56.046642 L73.1832583,57.1802874 L74.5948963,61.4248053 L78.0524818,63.3170947 L76.6272183,59.0571605 L78.7021561,60.1908059 L80.1274196,64.4508384 L83.4302931,66.2152797 L82.0050296,61.9553455 L84.0799674,63.0889909 L85.5052309,67.3472559 L86.2109533,67.7344334 L88.2433719,66.7873558 L87.0852064,63.3447853 L88.5528925,62.6707843 L89.7111546,66.1133547 L92.2095452,64.965864 L91.0512831,61.5232935 L92.5190658,60.8492924 L93.6773279,64.2918629 L96.4716136,63.0009112 L95.3134481,59.5583408 L96.7811342,58.8843397 L97.9389131,62.3269102 L100.381835,61.1931665 L99.2231868,57.750596 L100.691066,57.076595 L101.849715,60.5191654 L104.741988,59.1850086 L103.584306,55.7424381 L105.052185,55.0685352 L106.209867,58.5110075 L109.00454,57.2200559 L107.845891,53.7774854 L109.31377,53.1035825 L110.472419,56.5460548 L112.914375,55.4124093 L111.756693,51.9698388 L113.223606,51.2958378 L114.382254,54.7384082 L117.176926,53.4474566 L116.018278,50.0048861 L116.638672,49.7179643 L117.486157,49.330885 L120.352339,47.9967282 L128,51.9836841 L127.998067,51.9871209 Z M51.6584842,48.9317279 L56.2318126,51.4272208 L54.9188385,47.4973154 L51.6584842,48.9317279 L51.6584842,48.9317279 Z M118.654469,52.775223 L120.686695,51.8281454 L117.836941,50.3366824 L118.654469,52.775223 Z M94.0429932,71.4051076 C94.0429932,70.5253909 92.7452873,70.5253909 92.7452873,71.4051076 C92.7452873,72.2847262 94.0429932,72.2847262 94.0429932,71.4051076 Z M88.4253348,74.7179643 C88.4253348,73.8383458 87.1277256,73.8383458 87.1277256,74.7179643 C87.1277256,75.5976811 88.4253348,75.5976811 88.4253348,74.7179643 Z M72.3498816,67.8329216 C72.3498816,66.9532048 71.0521758,66.9532048 71.0521758,67.8329216 C71.0521758,68.7125401 72.3498816,68.7125401 72.3498816,67.8329216 Z M77.2905181,69.3242864 C77.2905181,68.4446679 75.9929089,68.4446679 75.9929089,69.3242864 C75.9929089,70.2040032 77.2905181,70.2040032 77.2905181,69.3242864 Z M59.3238294,60.8768848 C59.3238294,59.9972663 58.0261235,59.9972663 58.0261235,60.8768848 C58.0261235,61.7566016 59.3238294,61.7566016 59.3238294,60.8768848 Z M101.5946,69.1532331 C101.5946,68.2736146 100.296797,68.2736146 100.296797,69.1532331 C100.296797,70.0328517 101.5946,70.0328517 101.5946,69.1532331 Z M106.902737,64.749838 C106.902737,63.8701212 105.604935,63.8701212 105.604935,64.749838 C105.604935,65.6294565 106.902737,65.6294565 106.902737,64.749838 Z M81.2295371,71.1458765 C81.2295371,70.2661597 79.9318312,70.2661597 79.9318312,71.1458765 C79.9318312,72.025495 81.2295371,72.025495 81.2295371,71.1458765 Z M109.660688,33.8791354 C109.572751,34.0985982 109.479015,34.3163917 109.38528,34.5324176 C109.354357,34.6032153 109.322467,34.6741111 109.290578,34.7450069 C108.979415,35.4413961 108.637328,36.1206014 108.264319,36.7825247 L120.339776,42.7101795 L85.9167976,58.5836708 L51.3677107,39.7394295 L63.8784107,34.1401341 C63.8699068,34.1210845 63.8631424,34.1003657 63.8546386,34.0813161 C63.7322026,33.7858515 63.616531,33.4850844 63.505981,33.182648 C63.4515757,33.0357503 63.3988132,32.8871834 63.3460508,32.7368489 C63.2967671,32.5950573 63.2491263,32.4516946 63.2032248,32.3082337 C63.0620417,31.8778511 62.9311018,31.4441298 62.812048,31.0034368 L62.812048,31 L44,39.4231478 L53.4698028,44.5852851 L57.0669287,46.5502378 L59.4666553,47.8688801 L61.5415931,49.0025255 L64.9991786,50.8949132 L67.0741164,52.0285586 L70.3344707,53.8069435 L72.4094085,54.9405889 L75.866994,56.8329766 L77.9419318,57.966622 L81.2600736,59.7743667 L83.3350114,60.9080122 L85.7908828,62.2421691 L86.5817402,61.8689351 L88.0495229,61.194934 L90.5326452,60.0474432 L92.0003313,59.3734422 L94.7947136,58.0824905 L96.2623997,57.4084894 L98.7042591,56.2747458 L100.172138,55.6007447 L103.065378,54.2665878 L104.533257,53.5925868 L107.327929,52.3016351 L108.794842,51.627634 L111.237765,50.4939886 L112.705644,49.8199875 L114.822908,48.8453175 L115.49935,48.5307051 L116.967229,47.8567041 L118.533676,47.1257507 L127.693668,42.881331 L109.662621,33.8791354 L109.660688,33.8791354 Z" id="Shape" fill-rule="nonzero"></path>
            <path d="M12,98.342683 L12,110.608803 C12,113.583088 9.2996194,116 6.02688946,116 C2.75415952,116 0,113.583088 0,110.608803 L0,98.342683 C0,95.4154476 2.70038173,93 6.02688946,93 C9.35339719,93 12,95.4154476 12,98.342683 Z M8.67542382,98.342683 C8.67542382,97.0424704 7.48079953,95.9736019 6.02688946,95.9736019 C4.57299031,95.9736019 3.32650886,97.0424704 3.32650886,98.342683 L3.32650886,110.608803 C3.32650886,111.95587 4.52113315,113.026691 6.02688946,113.026691 C7.53265668,113.026691 8.67542382,111.957822 8.67542382,110.608803 L8.67542382,98.342683 Z" id="Shape" fill-rule="nonzero"></path>
            <path d="M27,93.7453491 L27,108.224741 C27,109.295672 26.6354772,110.319659 26.0087652,111.204768 L23.1915197,115.628352 C23.0352799,115.860143 22.7749534,116 22.4607209,116 L19.5392791,116 C19.2269092,116 18.9665827,115.860143 18.8084803,115.628352 L15.9911252,111.204768 C15.3644133,110.319659 15,109.295672 15,108.224741 L15,93.7453491 C15,93.3253873 15.3644133,93 15.8349951,93 L17.5048756,93 C17.9734853,93 18.3398707,93.3253873 18.3398707,93.7453491 L18.3398707,108.224741 C18.3398707,108.503476 18.3919141,108.738201 18.4960009,108.969992 L20.9990139,112.974006 L23.5540703,108.969992 C23.6061137,108.738201 23.6581571,108.503476 23.6581571,108.224741 L23.6581571,93.7453491 C23.6581571,93.3253873 24.0747233,93 24.4931522,93 L26.1630328,93 C26.6316424,93 26.9980278,93.3253873 26.9980278,93.7453491 L27,93.7453491 Z" id="Path" fill-rule="nonzero"></path>
            <path d="M33.0668545,95.9716524 L33.0668545,102.98743 L37.2332612,102.98743 C37.6635646,102.98743 38,103.312452 38,103.731173 L38,105.218658 C38,105.638356 37.6653755,105.962401 37.2332612,105.962401 L33.0668545,105.962401 L33.0668545,113.024053 L37.2332612,113.024053 C37.6635646,113.024053 38,113.349074 38,113.768772 L38,115.256257 C38,115.673026 37.6653755,116 37.2332612,116 L31.5333769,116 C30.6710599,116 30,115.302131 30,114.512515 L30,94.4875831 C30,93.6510189 30.6710599,93 31.5333769,93 L37.2332612,93 C37.6635646,93 38,93.324631 38,93.7437427 L38,95.2314234 C38,95.6488759 37.6653755,95.9755566 37.2332612,95.9755566 L33.0668545,95.9755566 L33.0668545,95.9716524 Z" id="Path" fill-rule="nonzero"></path>
            <path d="M53,100.57173 C53,102.104114 52.3211331,103.498875 51.1735795,104.474916 C52.3211331,105.450956 53,106.797892 53,108.331251 L53,115.254305 C53,115.625201 52.6355268,115.998048 52.1649773,115.998048 L50.4947126,115.998048 C50.0261356,115.998048 49.6596899,115.627153 49.6596899,115.254305 L49.6596899,108.331251 C49.6596899,107.031165 48.4599748,105.962401 47,105.962401 L44.3404197,105.962401 L44.3404197,115.256257 C44.3404197,115.627153 43.9238946,116 43.505397,116 L41.8351323,116 C41.3664457,116 41,115.629105 41,115.256257 L41,94.4875831 C41,93.6510189 41.7310284,93 42.6702646,93 L47,93 C50.3385568,93 52.9981371,95.4152118 52.9981371,98.3424544 L52.9981371,100.57173 L53,100.57173 Z M49.6615528,98.3424544 C49.6615528,97.0423686 48.4619473,95.9736045 47.0019725,95.9736045 L44.3423922,95.9736045 L44.3423922,102.989382 L47.0019725,102.989382 C48.4619473,102.989382 49.6615528,101.920618 49.6615528,100.573683 L49.6615528,98.3444064 L49.6615528,98.3424544 Z" id="Shape" fill-rule="nonzero"></path>
            <path d="M61,93.7436891 L61,95.2312624 C61,95.6485872 60.6995551,95.9750491 60.3115783,95.9750491 L58.376753,95.9750491 L58.376753,115.256311 C58.376753,115.627179 58.0763081,116 57.6884217,116 L56.3115783,116 C55.9253179,116 55.623247,115.629131 55.623247,115.256311 L55.623247,95.9750491 L53.6884217,95.9750491 C53.3020709,95.9750491 53,95.6503439 53,95.2312624 L53,93.7436891 C53,93.3246076 53.3004449,93 53.6884217,93 L60.3100427,93 C60.6963935,93 60.9984644,93.3246076 60.9984644,93.7436891 L61,93.7436891 Z" id="Path" fill-rule="nonzero"></path>
            <path d="M76.998036,93.7437522 L76.998036,110.609261 C76.998036,113.583293 74.2981397,116 71.0259679,116 C67.753687,116 65,113.583293 65,110.609261 L65,93.7437522 C65,93.3246351 65.4148315,93 65.8315179,93 L67.4945537,93 C67.9611027,93 68.3259624,93.3246351 68.3259624,93.7437522 L68.3259624,110.609261 C68.3259624,111.956213 69.5203761,113.026943 71.0259679,113.026943 C72.5314506,113.026943 73.6740376,111.958166 73.6740376,110.609261 L73.6740376,93.7437522 C73.6740376,93.3246351 74.0369333,93 74.5054463,93 L76.1684821,93 C76.6351403,93 77,93.3246351 77,93.7437522 L76.998036,93.7437522 Z" id="Path" fill-rule="nonzero"></path>
            <path d="M91,100.57173 C91,102.104114 90.3211351,103.498875 89.1737701,104.474916 C90.3211351,105.450956 91,106.797892 91,108.331251 L91,115.254305 C91,115.625201 90.6354772,115.998048 90.1650049,115.998048 L88.4950148,115.998048 C88.0265147,115.998048 87.6601293,115.627153 87.6601293,115.254305 L87.6601293,108.331251 C87.6601293,107.031165 86.4607209,105.962401 84.9990139,105.962401 L82.3398707,105.962401 L82.3398707,115.256257 C82.3398707,115.627153 81.9233045,116 81.5048756,116 L79.8349951,116 C79.3663854,116 79,115.629105 79,115.256257 L79,94.4875831 C79,93.6510189 79.7307987,93 80.6698806,93 L84.9990139,93 C88.3369125,93 90.9980278,95.4152118 90.9980278,98.3424544 L90.9980278,100.57173 L91,100.57173 Z M87.6619919,98.3424544 C87.6619919,97.0423686 86.4625835,95.9736045 85.0008765,95.9736045 L82.3417333,95.9736045 L82.3417333,102.989382 L85.0008765,102.989382 C86.4607209,102.989382 87.6619919,101.920618 87.6619919,100.573683 L87.6619919,98.3444064 L87.6619919,98.3424544 Z" id="Shape" fill-rule="nonzero"></path>
            <path d="M97.0666616,95.9716524 L97.0666616,102.98743 L101.232404,102.98743 C101.662982,102.98743 102,103.312452 102,103.731173 L102,105.218658 C102,105.638356 101.664994,105.962401 101.232404,105.962401 L97.0666616,105.962401 L97.0666616,113.024053 L101.232404,113.024053 C101.662982,113.024053 102,113.349074 102,113.768772 L102,115.256257 C102,115.673026 101.664994,116 101.232404,116 L95.5333811,116 C94.6710177,116 94,115.302131 94,114.512515 L94,94.4875831 C94,93.6510189 94.6710177,93 95.5333811,93 L101.232404,93 C101.662982,93 102,93.324631 102,93.7437427 L102,95.2314234 C102,95.6488759 101.664994,95.9755566 101.232404,95.9755566 L97.0666616,95.9755566 L97.0666616,95.9716524 Z" id="Path" fill-rule="nonzero"></path>
            <path d="M129,97.342683 L129,114.256185 C129,114.627116 128.684611,115 128.276124,115 L126.828372,115 C126.421786,115 126.104497,114.629068 126.104497,114.256185 L126.104497,97.342683 C126.104497,96.0424704 125.064281,94.9737971 123.753325,94.9737971 C122.443319,94.9737971 121.447752,96.0424704 121.447752,97.342683 L121.447752,114.256185 C121.447752,114.627116 121.132362,115 120.723876,115 L119.276124,115 C118.870488,115 118.552248,114.629068 118.552248,114.256185 L118.552248,97.342683 C118.552248,96.0424704 117.512033,94.9737971 116.246675,94.9737971 C114.981317,94.9737971 113.896453,96.0424704 113.896453,97.342683 L113.896453,114.256185 C113.896453,114.627116 113.580114,115 113.172578,115 L111.723876,115 C111.362888,115 111,114.629068 111,114.256185 L111,97.342683 C111,94.4154476 113.351172,92 116.246675,92 C117.694427,92 119.050982,92.649423 120,93.6732917 C120.949968,92.6510824 122.305573,92 123.753325,92 C126.647878,92 129,94.4154476 129,97.342683 L129,97.342683 Z" id="Path" fill-rule="nonzero"></path>
            <path d="M144,97.3539643 L144,114.254682 C144,114.673312 143.636727,115 143.168727,115 L141.506182,115 C141.039273,115 140.674909,114.675268 140.674909,114.254682 L140.674909,104.988093 L135.325091,104.988093 L135.325091,114.254682 C135.325091,114.673312 134.962909,115 134.493818,115 L132.831273,115 C132.364364,115 132,114.675268 132,114.254682 L132,97.3539643 C132,94.4203268 134.7,92 138.025091,92 C141.350182,92 143.995636,94.4203268 143.995636,97.3539643 L144,97.3539643 Z M140.676,97.3539643 C140.676,96.0501471 139.482545,94.9798042 138.028364,94.9798042 C136.575273,94.9798042 135.329455,96.0501471 135.329455,97.3539643 L135.329455,102.009756 L140.678182,102.009756 L140.678182,97.3539643 L140.676,97.3539643 Z" id="Shape" fill-rule="nonzero"></path>
            <path d="M158,97.3440318 L158,99.5743313 C158,102.547413 155.299263,104.963164 152.026735,104.963164 L149.327089,104.963164 L149.327089,114.256241 C149.327089,114.627145 148.963717,115 148.49559,115 L146.831499,115 C146.416841,115 146,114.629097 146,114.256241 L146,92.7438561 C146,92.3246379 146.41575,92 146.831499,92 L152.026735,92 C155.299263,92 158,94.415263 158,97.3420797 L158,97.3440318 Z M154.675093,97.3440318 C154.675093,96.0439185 153.481313,94.9753269 152.026735,94.9753269 L149.327089,94.9753269 L149.327089,101.991058 L152.026735,101.991058 C153.481313,101.991058 154.675093,100.922272 154.675093,99.5753074 L154.675093,97.3459839 L154.675093,97.3440318 Z" id="Shape" fill-rule="nonzero"></path>
            <path d="M168.659421,98.9220704 L168.659421,97.342683 C168.659421,96.0424704 167.459311,94.9737971 165.999452,94.9737971 C164.538497,94.9737971 163.339483,96.0424704 163.339483,97.342683 C163.339483,97.745827 163.390995,98.0093836 163.495114,98.1333529 L170.748379,106.683325 C171.582428,107.675078 172,108.666832 172,109.65761 C172,112.585041 169.287424,115 166.000548,115 C162.713672,115 160,112.583088 160,109.65761 L160,108.077246 C160,107.65946 160.364965,107.333431 160.835145,107.333431 L162.505434,107.333431 C162.974518,107.333431 163.340579,107.657508 163.340579,108.077246 L163.340579,109.65761 C163.340579,110.957822 164.540689,112.026691 166.000548,112.026691 C167.461503,112.026691 168.660517,110.957822 168.660517,109.65761 C168.660517,109.254466 168.609005,108.990909 168.504886,108.86694 L161.251621,100.316968 C160.417572,99.3252144 160,98.3334607 160,97.342683 C160,94.4154476 162.712576,92 166.000548,92 C169.289615,92 172,94.4154476 172,97.342683 L172,98.9220704 C172,99.3388803 171.635035,99.6658858 171.164855,99.6658858 L169.494566,99.6658858 C169.025482,99.6658858 168.659421,99.3408326 168.659421,98.9220704 Z" id="Path" fill-rule="nonzero"></path>
            <polygon id="Path" fill-rule="nonzero" points="23 137 23 125 31 125 31 126.330874 24.520349 126.330874 24.520349 130.199765 30.872059 130.199765 30.872059 131.53064 24.520349 131.53064 24.520349 137 23.0018424 137"></polygon>
            <path d="M34,131.000486 C34,127.573859 36.42601,125 39.990183,125 C43.5544573,125 46,127.573859 46,131.000486 C46,134.426141 43.5561778,137 39.990183,137 C36.4241882,137 34,134.426141 34,131.000486 L34,131.000486 Z M44.4432487,131.000486 C44.4432487,128.287578 42.6869191,126.287416 39.990183,126.287416 C37.2934469,126.287416 35.5550308,128.287578 35.5550308,131.000486 C35.5550308,133.712422 37.2739141,135.713556 39.990183,135.713556 C42.7065531,135.713556 44.4432487,133.695892 44.4432487,131.000486 Z" id="Shape" fill-rule="nonzero"></path>
            <path d="M51,132.210474 L51,125 L52.3875839,125 L52.3875839,132.175889 C52.3875839,134.332016 53.459984,135.692688 55.4910449,135.692688 C57.5221057,135.692688 58.6123238,134.332016 58.6123238,132.175889 L58.6123238,125 L60,125 L60,132.193676 C60,135.12747 58.4807665,137 55.4927066,137 C52.5046468,137 51.0016618,135.109684 51.0016618,132.210474 L51,132.210474 Z" id="Path" fill-rule="nonzero"></path>
            <polygon id="Path" fill-rule="nonzero" points="72.6954527 137 66.3525938 127.428368 66.3525938 137 65 137 65 125 66.3863266 125 72.6473151 134.372454 72.6473151 125 74 125 74 137"></polygon>
            <path d="M79,137 L79,125 L83.0003335,125 C86.6501633,125 89,127.607427 89,131.008551 C89,134.409674 86.6484957,137 83.0003335,137 L79,137 L79,137 Z M87.4909603,131.008551 C87.4909603,128.418224 85.8940249,126.330874 83.0003335,126.330874 L80.457244,126.330874 L80.457244,135.66812 L83.0003335,135.66812 C85.8422292,135.66812 87.4909603,133.58077 87.4909603,131.008551 Z" id="Shape" fill-rule="nonzero"></path>
            <path d="M102.221725,137 L101.114497,134.319138 L94.888019,134.319138 L93.7807913,137 L92,137 L97.0434433,125 L98.9755347,125 L104,137 L102.219628,137 L102.221725,137 Z M98.0030407,126.529047 L95.3585908,133.005365 L100.665735,133.005365 L98.0030407,126.529047 Z" id="Shape" fill-rule="nonzero"></path>
            <polygon id="Path" fill-rule="nonzero" points="108.335249 137 108.335249 126.330874 105 126.330874 105 125 113 125 113 126.330874 109.64884 126.330874 109.64884 137 108.337017 137"></polygon>
            <polygon id="Path" fill-rule="nonzero" points="118 137 118 125 119 125 119 137"></polygon>
            <path d="M123,131.000486 C123,127.573859 125.425909,125 128.989373,125 C132.55385,125 135,127.573859 135,131.000486 C135,134.426141 132.555874,137 128.989373,137 C125.423885,137 123,134.426141 123,131.000486 L123,131.000486 Z M133.442439,131.000486 C133.442439,128.287578 131.686514,126.287416 128.989373,126.287416 C126.293244,126.287416 124.554525,128.287578 124.554525,131.000486 C124.554525,133.712422 126.274015,135.713556 128.989373,135.713556 C131.705743,135.713556 133.442439,133.695892 133.442439,131.000486 Z" id="Shape" fill-rule="nonzero"></path>
            <polygon id="Path" fill-rule="nonzero" points="146.695401 137 140.352917 127.428368 140.352917 137 139 137 139 125 140.386649 125 146.647994 134.372454 146.647994 125 148 125 148 137"></polygon>
        </g>
    </g>
</svg>