<svg xmlns="http://www.w3.org/2000/svg" viewBox="0 0 240.1 117.3" class="css-135ug32"><path fill="#000" d="M58.64 117.28A58.64 58.64 0 1 1 115 42.37a2.11 2.11 0 0 1-4 1.17 54.43 54.43 0 1 0 .15 29.67 2.11 2.11 0 0 1 4.06 1.12 58.8 58.8 0 0 1-56.57 42.95"></path><path fill="000" d="M40.84 40.83H41a6 6 0 0 1 6 6h.12a14.33 14.33 0 0 1 12.06-6.12c11.5 0 17.56 9.24 17.56 18.3 0 8.57-6.43 17.38-17.13 17.38-7.1 0-10.65-3.61-11.93-5.75h-.14v17.57a6.69 6.69 0 0 1-6.69-6.69V40.83zm17.89 5.65c-6.67 0-11.32 5.75-11.32 12 0 6.85 5.08 12.06 11.5 12.06A11.54 11.54 0 0 0 70.36 58.6c0-6.06-4.71-12.12-11.63-12.12m30.78 29.01h-6.36V30.21h6.36zm36.05 0v-5.26h-.12c-2.45 4.16-6.91 6.12-11.5 6.12-11.44 0-18-8.75-18-17.69 0-8.26 5.81-18 18-18 4.71 0 9.06 2 11.5 5.69h.12v-4.76h6.36v33.9zm-11.63-29c-7.83 0-11.63 6.79-11.63 12.12 0 6.12 4.83 11.93 11.57 11.93a11.84 11.84 0 0 0 11.81-11.94c0-7.22-5.2-12.12-11.75-12.12zm49.87 29V57.07c0-2.63 0-10.59-8.44-10.59-5.32 0-8.93 3.73-8.93 10.53v18.48h-6.36v-33.9H146v3.61h.12a12 12 0 0 1 9.88-4.53c5.26 0 9.55 2.26 12 6.06a16.53 16.53 0 0 1 2.14 8.69v20.07zm61.44 0a6.36 6.36 0 0 1-6.36-6.36V47.4h-4.59v-5.81h4.59V30.21a6.36 6.36 0 0 1 6.36 6.36v5h5.57v5.83h-5.57zm-14.02-17.44a17.32 17.32 0 1 0-34.64.43q0 .87.08 1.72A18.26 18.26 0 0 0 195 76.3a18.73 18.73 0 0 0 14.76-7.06l-5-2.94a13.05 13.05 0 0 1-9.8 4.29c-5.18 0-10.74-3.15-12-9.29H211c.1-.43.22-2.15.22-3.25M183 56.4a11 11 0 0 1 21.91 0z"></path><path fill="#000" d="M240.12 72.16a3.42 3.42 0 1 1-3.42-3.35 3.38 3.38 0 0 1 3.42 3.35"></path></svg>