<svg version="1.1" xmlns="http://www.w3.org/2000/svg" x="0" y="0" viewBox="-252.7 499.4 220 57.4" xml:space="preserve"><style type="text/css">.st0{fill:#000;}</style><path class="st0 change green" d="M-229.3 532.2c-6.8 0-12.3 5.6-12.3 12.3 0 6.8 5.6 12.3 12.3 12.3s12.3-5.6 12.3-12.3c0-6.8-5.6-12.3-12.3-12.3z"></path><path class="st0 change yellow" d="M-192.9 524.1c6.8 0 12.3-5.6 12.3-12.3 0-6.8-5.6-12.3-12.3-12.3-6.8 0-12.3 5.6-12.3 12.3s5.6 12.3 12.3 12.3z"></path><path class="st0" d="M-178.9 523.3c-2.1 1.8-4.2 3.1-6.5 4-2.4.9-5 1.4-8.1 1.4-2.4 0-5-.6-7.8-1.6-4.1-1.5-8.6-3.8-13.4-5.8-2.4-1-4.9-1.9-7.5-2.6-2.6-.7-5.3-1.1-8.2-1.1-3.9 0-7.8.9-11.4 2.7-3.6 1.7-7 4.3-10.1 7.6l-.6.6v12.6l3.9-4.1c2.9-3 5.6-5.5 8.4-7.2 1.4-.9 3-1.6 4.6-2 1.6-.5 3.4-.8 5.4-.8 3 0 5.9.6 8.7 1.6 4.3 1.5 8.5 3.8 13.1 5.8 2.3 1 4.6 1.9 7.1 2.6s5.2 1.1 7.9 1.1c3.9 0 7.9-.7 11.6-2.3 3.8-1.6 7.3-3.9 10.4-7.4l.6-.6v-13.1l-3.9 4.3c-1.4 1.7-2.8 3.1-4.2 4.3zM-154.4 515.4c-2.1 0-3.6-1.3-4.2-3.5h-.7l.6 4.2h.6c.2-.2.4-.2.7-.2.7 0 1.4.4 3.3.4 3.1 0 5.2-1.7 5.2-4.2 0-4.7-7.7-5.7-7.7-8.9 0-1.1.8-2 2.4-2 1.8 0 3.2 1.1 4 3.1h.7l-.5-3.7h-.6c-.2.2-.4.3-.7.3-.4 0-.8-.1-1.3-.2s-1.1-.2-1.9-.2c-2.6 0-4.5 1.4-4.5 3.6 0 4.2 7.7 5.6 7.7 8.9-.1 1.3-1.4 2.4-3.1 2.4zM-137.5 516.2c2.1 0 3.7-.5 4.8-.5.4 0 .5.1.8.2l1.6-4h-.7c-1.3 2.3-3.4 3.6-5.9 3.6-3.7 0-6.5-3.1-6.5-7.4 0-4.1 2.4-6.8 6-6.8 2.7 0 4.6 1.4 5.6 3.9h.7l-.1-4h-.6c-.1.1-.2.2-.4.2-.7 0-2.6-.8-5.2-.8-6.2 0-8.9 4.1-8.9 8.2.1 4.2 3.2 7.4 8.8 7.4zM-121.9 515.2c-1.9-.1-2.1-.7-2.1-2.1v-4.4h8.8v4.2c0 1.8-.4 2.2-2.2 2.3v.7h7.1v-.7c-1.9-.1-2.2-.5-2.2-2.2v-9.2c0-1.9.3-2.3 2.2-2.4v-.7h-7.1v.7c2 .1 2.2.6 2.2 2.5v3.6h-8.8v-3.6c0-2.1.4-2.5 2.2-2.6v-.7h-7.1v.7c1.9 0 2.2.6 2.2 2.5v9.1c0 1.6-.2 2.2-2.2 2.3v.7h7v-.7zM-103.9 515.2c-1.7-.1-2.2-.1-2.1-2.7l.6-9h.1l5.7 12.4h.8l5.6-12.7h.1l.7 8.9c.2 2.6-.1 3.1-2.1 3.1v.7h6.9v-.7c-1.4 0-1.9-.1-2-1.3l-.8-11c-.1-1.1.2-1.4 1.6-1.4v-.7h-4.5l-4.9 11.2-5.3-11.2h-4.5v.7c1.4 0 1.7.3 1.5 2.5l-.6 8.9c-.1 2.1-.6 2.4-2.1 2.4v.7h5.4l-.1-.8zM-79.7 515.2c-1.8.1-2.1-.4-2.1-2.2v-9.4c0-1.8.5-2.1 2.1-2.1v-.7h-6.8v.7c1.7 0 2 .5 2 1.8v9.9c0 1.4-.1 2.1-2 2.1v.7h6.8v-.8zM-60.1 507.9c0-1.8-.6-3.7-2.1-5.2s-4.1-2.1-7.8-2.1c-.9 0-2.2 0-3.4.1-1 .1-3.1.1-3.8.1v.7c1.9 0 2.3.4 2.3 2.1v9.7c0 1.6-.2 2-2.3 2v.7h7.5c7-.1 9.6-4.5 9.6-8.1zm-12.2 5.5v-12.1c.6-.1 1.4-.1 1.8-.1 2.8 0 4.3.5 5.6 1.8 1.5 1.5 1.9 3.4 1.9 5.2 0 1.7-.4 3.7-1.9 5.2-1.1 1.1-2.6 1.8-5.6 1.8-1.6 0-1.8-.2-1.8-1.8zM-45.8 501.9c1.4 0 1.9.1 2.3 2.7h.7l-.4-4.2h-.7c-.1.4-.4.4-1.6.4h-10.3c-.6 0-1 0-1.2-.1s-.3-.2-.4-.4h-.7l-.4 4.2h.7c.4-2.5.8-2.7 2.3-2.7h3.4v11.4c0 1.6-.4 1.9-2.8 1.9v.7h8.3v-.7c-2.5 0-2.8-.2-2.8-1.9v-11.4h3.6v.1zM-159.3 528.6c0 4.5 4 7.6 8.8 7.6 4.7 0 8.6-3.4 8.6-8.3 0-4.3-3.9-7.5-8.5-7.5-5.2-.1-8.9 3.4-8.9 8.2zm15.1 0c0 3.4-1.9 6.9-5.9 6.9-3.9 0-7-3.2-7-7.7 0-2.9 1.7-6.9 6-6.9 4.1 0 6.9 3.2 6.9 7.7zM-126.4 535.5c.6-1 1.2-2.5 1.6-3.6h-.5c-1.6 3-4 3.6-5.9 3.6-3.7 0-6.8-3.2-6.8-7.6 0-4.1 2.5-7 6.6-7 2.7 0 4.7 1.5 5.6 3.7h.5l-.2-3.5h-.5c-.1.1-.2.1-.4.1-.7 0-2.1-1-5.1-1-5.1 0-8.7 3.4-8.7 8.1 0 4.5 3.6 7.7 8.5 7.7 2.7.1 3.8-.7 5.3-.5zM-123.1 535.3h-.7v.5h12.9l.4-3.6h-.5c-.6 2.1-1.1 2.7-2.8 2.7h-3.7c-.9 0-1.3-.2-1.3-1.3v-5.2h4.1c1 0 1.4.2 1.6 1.9h.5v-4.6h-.5c-.1 1.4-.5 1.8-1.4 1.8h-4.3v-6h5.1c.8 0 1.5.4 1.8 2.5h.4l-.2-3.4h-11.6v.5h.5c1.6 0 1.9.6 1.9 1.9v10.3c.1 1.5-.3 2-2.2 2zM-103.7 535.3h-.4c-1.3 0-2-.2-2-.9 0-.4.3-1.1.5-1.5l1.4-3.8h5l1.6 4.4c.1.2.2.6.2 1 0 .7-.5.8-1.9.8h-.6v.5h6.7v-.5c-1.2 0-1.8-.2-2.2-1.5l-5.1-13.5h-2.1l.2.5-4.4 12.1c-.8 2.1-1 2.4-2.6 2.4v.5h5.6v-.5h.1zm2-12.9l2.1 5.7h-4.2l2.1-5.7zM-77 522.9v9.7l-11.4-11.9h-3.8v.5c.8 0 1.5.2 2.1.6v12c0 1.1-.5 1.6-2 1.6h-.1v.5h5.6v-.5c-2.1 0-2.5-.4-2.5-2.1v-10.4l12.6 13.2h.6v-13.5c0-1 .4-1.3 2.2-1.3v-.5h-5.6v.5c1.8-.1 2.3.2 2.3 1.6zM-159.4 541.1c1.4.1 1.8.4 1.8 1.8v10.3c0 1.6-.3 2-1.8 2.1v.5h5.9v-.5c-1.7 0-2.1-.5-2.1-1.9v-10.3c0-1.6.5-2 2.1-2v-.5h-5.9v.5zM-138.9 541.1c2 .1 2.4.3 2.4 1.8v9.7l-11.4-11.9h-3.8v.5c.8 0 1.5.2 2.1.6v12c0 1.1-.5 1.6-2 1.6h-.1v.5h5.6v-.5c-2.1 0-2.5-.4-2.5-2.1v-10.4l12.6 13.2h.6v-13.5c0-1 .4-1.3 2.2-1.3v-.5h-5.7v.3zM-129.7 543.1c0-1.4 1.1-2.3 2.7-2.3 1.7 0 3.2 1.1 3.9 2.8h.4l-.4-3.1h-.4c-.1.2-.2.2-.4.2-.8 0-1.3-.6-3.3-.6-2.5 0-4.3 1.5-4.3 3.5 0 4.2 7.8 5.3 7.8 8.8 0 1.9-1.8 2.8-3.3 2.8-1.9 0-3.6-1.3-4.1-3.4h-.5l.5 3.7h.4c.1-.1.2-.2.5-.2.4 0 2.1.7 3.4.7 2.8 0 4.9-1.8 4.9-4.2-.1-4.3-7.8-5.3-7.8-8.7zM-106.6 540.2c-.1.3-.4.4-.7.4h-11.6c-.2 0-.4 0-.5-.1-.1-.1-.2-.1-.2-.3h-.5l-.4 3.9h.4c.4-2.1.8-2.7 1.8-2.7h4.2v12c0 1.3-.4 1.8-1.9 1.8h-.9v.5h7.7v-.5h-.9c-1.5 0-1.9-.5-1.9-1.8v-12h4.2c1 0 1.4.5 1.8 2.7h.4l-.4-3.9h-.6zM-103.8 541.1c1.4.1 1.8.4 1.8 1.8v10.3c0 1.6-.3 2-1.8 2.1v.5h5.9v-.5c-1.7 0-2.1-.5-2.1-1.9v-10.3c0-1.6.5-2 2.1-2v-.5h-5.9v.5zM-82.1 540.2c-.1.3-.4.4-.7.4h-11.7c-.2 0-.4 0-.5-.1-.1-.1-.2-.1-.2-.3h-.5l-.4 3.9h.4c.4-2.1.8-2.7 1.8-2.7h4.2v12c0 1.3-.4 1.8-1.9 1.8h-.9v.5h7.7v-.5h-.9c-1.5 0-1.9-.5-1.9-1.8v-12h4.2c1 0 1.4.5 1.8 2.7h.4l-.4-3.9h-.5zM-67.6 541.1c1.9.1 2.3.5 2.3 2.8v5.7c0 4.1-2.8 5.3-5.6 5.3-3.6 0-5.6-2-5.6-5.3v-6.8c0-1.4.6-1.8 1.9-1.8h.2v-.5h-6.2v.5c1.6 0 2.1.2 2.1 1.8v7.1c0 3.4 2.4 6.1 7 6.1 5.3 0 7.2-3.2 7.2-6.2v-6.6c0-1.6.6-2.2 2.2-2.2v-.5h-5.7v.6h.2zM-47.3 540.2c-.1.3-.4.4-.7.4h-11.6c-.2 0-.4 0-.5-.1-.1-.1-.2-.1-.2-.3h-.5l-.4 3.9h.4c.4-2.1.8-2.7 1.8-2.7h4.2v12c0 1.3-.4 1.8-1.9 1.8h-.9v.5h7.7v-.5h-1c-1.5 0-1.9-.5-1.9-1.8v-12h4.2c1 0 1.4.5 1.8 2.7h.4l-.4-3.9h-.5zM-32.8 552.1c-.6 2.1-1.1 2.7-2.8 2.7h-3.7c-.9 0-1.3-.2-1.3-1.3v-5.2h4.1c1 0 1.4.2 1.6 1.9h.5v-4.6h-.6c-.1 1.4-.5 1.8-1.4 1.8h-4.3v-6h5.1c.8 0 1.5.4 1.8 2.5h.4l-.2-3.4h-11.6v.5h.5c1.6 0 1.9.6 1.9 1.9v10.3c0 1.4-.4 2-2.3 2h-.7v.5h12.9l.4-3.6h-.3z"></path></svg>