<?xml version="1.0" encoding="utf-8"?>
<!-- Generator: Adobe Illustrator 21.0.0, SVG Export Plug-In . SVG Version: 6.00 Build 0)  -->
<svg version="1.1" id="Layer_1" xmlns="http://www.w3.org/2000/svg" xmlns:xlink="http://www.w3.org/1999/xlink" x="0px" y="0px"
	 viewBox="0 0 225 60" style="enable-background:new 0 0 225 60;" xml:space="preserve">
<style type="text/css">
	.st0{fill:#000;}
	.st1{fill:#000;}
</style>
<g>
	<g id="XMLID_703_">
		<g id="XMLID_704_">
			<g id="XMLID_727_">
				<path class="st0" d="M131,42.4h-9.1c-3.5,0-6.4-2.9-6.4-6.4v-1.3c0-3.2,2.4-6,5.6-6.3l11.7-1.3c0.7-0.1,1.3-0.4,1.7-0.9
					c0.4-0.5,0.6-1.3,0.4-2c0,0,0-0.1,0-0.1c-0.7-2.5-3-4.4-5.7-4.4h-10c-0.6,0-1-0.5-1-1s0.5-1,1-1h10c4.4,0,8,3.6,8,8V36
					C137.3,39.5,134.5,42.4,131,42.4z M135.2,28.4c-0.6,0.4-1.4,0.7-2.1,0.7l-11.7,1.3c-2.2,0.3-3.8,2.1-3.8,4.3V36
					c0,2.4,1.9,4.3,4.3,4.3h9.1c2.4,0,4.3-1.9,4.3-4.3V28.4z"/>
			</g>
			<g id="XMLID_725_">
				<path class="st0" d="M46.1,42.4h-8.5c-4.2,0-7.7-2.7-9-6.5c0,0,0-0.1,0-0.1c-0.3-0.9-0.5-1.9-0.5-3v-7c0-4.6,3.7-8.3,8.3-8.3
					h7.2c3.5,0,6.4,2.9,6.4,6.4v0.1c0,3.2-2.4,6-5.6,6.3l-11,1.3c-0.7,0.1-1.6,0.5-2.2,1.3c-0.5,0.6-0.6,1.4-0.5,2.3
					c1,2.9,3.8,5,7,5h8.5c0.6,0,1,0.5,1,1C47.2,41.9,46.7,42.4,46.1,42.4z M36.4,19.7c-3.4,0-6.2,2.8-6.2,6.2v5
					c0.8-0.7,1.8-1.1,2.8-1.2l11-1.3c2.2-0.3,3.8-2.1,3.8-4.3V24c0-2.4-1.9-4.3-4.3-4.3H36.4z"/>
			</g>
			<g id="XMLID_722_">
				<path class="st0" d="M220.4,42.4h-8.5c-4.2,0-7.7-2.7-9-6.5c0,0,0,0,0-0.1c-0.3-0.9-0.5-1.9-0.5-3v-7c0-4.6,3.7-8.3,8.3-8.3h7.2
					c3.5,0,6.4,2.9,6.4,6.4v0.1c0,3.2-2.4,6-5.6,6.3l-11,1.3c-0.7,0.1-1.6,0.5-2.2,1.3c-0.5,0.6-0.6,1.4-0.5,2.3c1,2.9,3.8,5,7,5
					h8.5c0.6,0,1,0.5,1,1C221.4,41.9,221,42.4,220.4,42.4z M210.7,19.7c-3.4,0-6.2,2.8-6.2,6.2v5c0.8-0.7,1.8-1.1,2.8-1.2l11-1.3
					c2.2-0.3,3.8-2.1,3.8-4.3V24c0-2.4-1.9-4.3-4.3-4.3H210.7z"/>
			</g>
			<g id="XMLID_720_">
				<path class="st0" d="M184.7,42.4h-2.2c-5.4,0-9.8-4.4-9.8-9.8V18.7c0-0.6,0.5-1,1-1c0.6,0,1,0.5,1,1v13.9c0,4.3,3.5,7.7,7.7,7.7
					h2.2c4.3,0,7.7-3.5,7.7-7.7V18.7c0-0.6,0.5-1,1-1c0.6,0,1,0.5,1,1v13.9C194.5,38,190.1,42.4,184.7,42.4z"/>
			</g>
			<g id="XMLID_714_">
				<g id="XMLID_717_">
					<path class="st0" d="M12,42.4c-0.6,0-1-0.5-1-1V18.7c0-0.6,0.5-1,1-1s1,0.5,1,1v22.7C13,41.9,12.5,42.4,12,42.4z"/>
				</g>
				<g id="XMLID_715_">
					<path class="st0" d="M21.8,19.7H2.1c-0.6,0-1-0.5-1-1s0.5-1,1-1h19.7c0.6,0,1,0.5,1,1S22.4,19.7,21.8,19.7z"/>
				</g>
			</g>
			<g id="XMLID_711_">
				<path class="st0" d="M105.5,42.4c-0.3,0-0.6-0.1-0.8-0.3L95.4,32c-0.4-0.4-0.5-1-0.3-1.5c0.2-0.5,0.6-0.9,1.2-1l7.3-1.2
					c2.1-0.3,3.7-2.1,3.7-4.2c0-2.4-1.9-4.3-4.3-4.3H92.5c-1.6,0-2.9,1.3-2.9,2.9v18.8c0,0.6-0.5,1-1,1s-1-0.5-1-1V22.6
					c0-2.7,2.2-4.9,4.9-4.9H103c3.5,0,6.4,2.9,6.4,6.4c0,3.2-2.4,5.9-5.5,6.3l-6.2,1l8.6,9.3c0.4,0.4,0.4,1.1-0.1,1.5
					C106.1,42.3,105.8,42.4,105.5,42.4z"/>
			</g>
			<g id="XMLID_709_">
				<path class="st0" d="M75.8,42.4c-0.3,0-0.6-0.1-0.8-0.3L65.7,32c-0.4-0.4-0.5-1-0.3-1.5c0.2-0.5,0.6-0.9,1.2-1l7.3-1.2
					c2.1-0.3,3.7-2.1,3.7-4.2c0-2.4-1.9-4.3-4.3-4.3H62.8c-1.6,0-2.9,1.3-2.9,2.9v18.8c0,0.6-0.5,1-1,1c-0.6,0-1-0.5-1-1V22.6
					c0-2.7,2.2-4.9,4.9-4.9h10.5c3.5,0,6.4,2.9,6.4,6.4c0,3.2-2.4,5.9-5.5,6.3l-6.2,1l8.6,9.3c0.4,0.4,0.4,1.1-0.1,1.5
					C76.3,42.3,76.1,42.4,75.8,42.4z"/>
			</g>
		</g>
	</g>
	<g>
		<linearGradient id="SVGID_1_" gradientUnits="userSpaceOnUse" x1="154.5641" y1="12.5" x2="154.5641" y2="47.5">
			<stop  offset="0.25" style="stop-color:#2BAA9F"/>
			<stop  offset="0.4442" style="stop-color:#25A19D"/>
			<stop  offset="0.7599" style="stop-color:#168998"/>
			<stop  offset="1" style="stop-color:#077294"/>
		</linearGradient>
		<path class="st1" d="M147.3,47.5h-1.8c-0.6,0-1.2-0.5-1.2-1.2c0-0.6,0.5-1.2,1.2-1.2h1.8c8.4,0,15.2-6.8,15.2-15.2
			c0-8.4-6.8-15.2-15.2-15.2h-1.8c-0.6,0-1.2-0.5-1.2-1.2c0-0.6,0.5-1.2,1.2-1.2h1.8c9.6,0,17.5,7.9,17.5,17.5
			S156.9,47.5,147.3,47.5z"/>
	</g>
</g>
</svg>
