<svg xmlns="http://www.w3.org/2000/svg" width="322" height="215" viewBox="0 0 322 215"><title>Slice</title><g fill="#1a1919" fill-rule="evenodd"><path d="M276.261 64.949c-24.11-19.627-53.227-31.102-84.587-31.102-2.002 0-3.992.061-5.975.153 29.074 1.358 56.03 12.584 78.598 30.949z"/><path d="M287.436 64.034H322c-28.64-30.17-66.237-48.483-107.42-48.483-31.028 0-60.021 10.394-84.682 28.42 19.575-9.986 41.123-15.52 63.754-15.52 34.932 0 67.288 13.173 93.784 35.583"/><path d="M39.255 214.972C40.975 101.175 118.018 9.56 212.822 9.56c25.202 0 49.146 6.482 70.758 18.126C256.397 10.028 225.3 0 192.258 0 90.65 0 7.406 94.76 0 214.972z"/><path d="M130.378 213.142h16.252V105.164h37.24V91.477H93.306v13.687h37.071zM305.534 213.142H322V91.477h-16.466zM256.275 159.215v15.834h15.94v20.72c-5.426 2.525-15.432 4.379-24.08 4.379-27.808 0-47.817-20.213-47.817-47.838 0-27.458 19.33-47.67 48.325-47.67 15.94 0 28.658 5.053 36.628 9.096V98.24c-4.071-2.192-17.804-8.592-36.288-8.592-37.473 0-65.114 26.615-65.114 62.662s27.301 62.662 64.266 62.662c14.585 0 30.016-3.876 40.018-9.265v-46.492h-31.879"/></g></svg>