<svg xmlns="http://www.w3.org/2000/svg" width="187.046" height="118.179" viewBox="0 0 187.046 118.179">
          <title>Logo for the Flanders Marine Institute (VLIZ)</title>
          <path d="M159.1 105.113h24.877v13.066H133.2l28.105-46.29h-23.382V58.823h49.123zM110.365 58.823h15.43v59.356h-15.43zM83.915 58.823v46.29h18.5v13.066h-33.93V58.823ZM16.768 58.823l14.326 36.135 14.4-36.135h16.773l-25.033 59.356H24.955L0 58.823Z"></path>
          <path d="M51.116 8c6.916.337 13.725 2.257 21.5 5.119 6.394 2.359 13.4 5.3 21.35 8.934 5.251 2.081 10.321 4.543 15.65 6.154a44.665 44.665 0 0 0 12.123 2.042 58.78 58.78 0 0 0 25.082-6.027 98.345 98.345 0 0 0 13.667-8.055 1.943 1.943 0 0 0-1.944-3.346 108.553 108.553 0 0 1-14.067 5.261c-7.385 2.159-14.829 3.214-22.058 2.208a37.771 37.771 0 0 1-9.222-2.53c-4.953-1.9-9.7-4.381-14.595-6.609a232.639 232.639 0 0 0-22.752-8.1C66.788.566 58.766-.489 50.946.214a56.424 56.424 0 0 0-23.558 7.752 91.835 91.835 0 0 0-6.218 3.922 2.072 2.072 0 0 0 1.92 3.644C32.609 11.7 44.356 7.678 51.116 8"></path>
          <path d="M116.539 39.04c-3.81-.518-9.6-1.475-13.1-2.843a113.882 113.882 0 0 1-13.995-7.023c-3.136-1.758-6.252-3.541-9.456-5.148a66.763 66.763 0 0 0-6.755-2.994 52.928 52.928 0 0 0-11.1-2.755 55.785 55.785 0 0 0-16.632.8 96.753 96.753 0 0 0-20.124 7.048.356.356 0 0 0 .2.679c4.127-.694 12.035-1.949 16.7-2.208a78.475 78.475 0 0 1 9.467.056 53.908 53.908 0 0 1 9.085 1.319 62.082 62.082 0 0 1 9.447 2.984c2.125.8 4.259 1.612 6.394 2.462 3.287 1.309 6.579 2.638 9.9 3.9a90.849 90.849 0 0 0 15.767 4.757c4.3.791 10.961.254 14.859-.181 2.115-.44-.65-.86-.655-.86z"></path>
      </svg>