<svg xmlns="http://www.w3.org/2000/svg" width="640" height="148" fill="none" viewBox="0 0 640 148"><g clip-path="url(#a)"><path fill="#000" d="m173.541 106.34-9.99-67.89h10.48l8.15 60.81h1.55l10.48-60.81h18.33l10.48 60.81h1.55l8.05-60.81h10.48l-9.99 67.89h-18.33l-10.67-61.69h-1.55l-10.57 61.69h-18.45M250.061 106.34V38.45h9.99v26.87h1.55c.65-1.23 1.57-2.42 2.76-3.59 1.2-1.16 2.78-2.12 4.75-2.86s4.48-1.12 7.52-1.12c3.62 0 6.84.81 9.65 2.42 2.81 1.62 5.03 3.9 6.64 6.84 1.62 2.94 2.42 6.48 2.42 10.62v28.71h-9.99V78.41c0-4.14-1.04-7.19-3.1-9.17-2.07-1.97-4.92-2.96-8.54-2.96-4.14 0-7.45 1.36-9.94 4.07-2.49 2.72-3.73 6.66-3.73 11.83v24.15h-9.99zM327.951 107.7c-4.85 0-9.09-1.02-12.71-3.06s-6.45-4.91-8.49-8.63-3.06-8.03-3.06-12.95V81.9c0-4.98 1-9.33 3.01-13.05 2-3.72 4.8-6.6 8.39-8.63 3.59-2.04 7.74-3.06 12.46-3.06s8.62 1.02 12.08 3.06q5.19 3.06 8.1 8.49c1.94 3.62 2.91 7.86 2.91 12.71v3.78h-36.76c.13 4.2 1.54 7.55 4.22 10.04s6.03 3.73 10.04 3.73q5.625 0 8.49-2.52t4.41-5.82l8.24 4.27c-.91 1.81-2.22 3.72-3.93 5.72-1.71 2.01-3.96 3.69-6.74 5.04-2.78 1.36-6.34 2.04-10.67 2.04zm-13.97-30.16h26.48c-.26-3.62-1.55-6.45-3.88-8.49q-3.495-3.06-9.12-3.06c-3.75 0-6.81 1.02-9.17 3.06q-3.54 3.06-4.32 8.49zM358.98 106.34V58.52h9.8v5.63h1.55c.78-2 2.02-3.48 3.73-4.41 1.71-.94 3.83-1.41 6.35-1.41h5.72v9.02h-6.11q-4.845 0-7.95 2.67c-2.07 1.78-3.1 4.51-3.1 8.2v28.13h-9.99zM413.492 107.7c-4.79 0-9.04-.99-12.75-2.96-3.72-1.97-6.64-4.8-8.78-8.49-2.13-3.69-3.2-8.05-3.2-13.09v-1.45c0-5.04 1.07-9.39 3.2-13.05 2.13-3.65 5.06-6.48 8.78-8.49 3.72-2 7.97-3.01 12.75-3.01s9.05 1 12.8 3.01c3.75 2 6.69 4.83 8.83 8.49 2.13 3.65 3.2 8 3.2 13.05v1.45c0 5.04-1.07 9.41-3.2 13.09-2.13 3.69-5.08 6.51-8.83 8.49-3.75 1.97-8.02 2.96-12.8 2.96m0-8.92c4.4 0 7.97-1.41 10.72-4.22s4.12-6.71 4.12-11.69V82c0-4.98-1.36-8.88-4.07-11.69-2.72-2.81-6.3-4.22-10.77-4.22s-7.87 1.41-10.62 4.22-4.12 6.71-4.12 11.69v.87c0 4.98 1.37 8.88 4.12 11.69s6.29 4.22 10.62 4.22M474.689 107.7c-4.66 0-8.23-.84-10.72-2.52s-4.35-3.56-5.58-5.63h-1.55v6.79h-9.8V38.45h9.99v26.58h1.55c.78-1.29 1.81-2.54 3.1-3.73 1.29-1.2 3.01-2.18 5.14-2.96s4.75-1.16 7.86-1.16c4.01 0 7.69.97 11.06 2.91 3.36 1.94 6.05 4.75 8.05 8.44s3.01 8.08 3.01 13.19v1.45c0 5.17-1.02 9.59-3.06 13.24s-4.72 6.45-8.05 8.39q-4.995 2.91-11.01 2.91zm-2.91-8.73c4.33 0 7.9-1.39 10.72-4.17 2.81-2.78 4.22-6.76 4.22-11.93V82c0-5.11-1.39-9.05-4.17-11.83q-4.17-4.17-10.77-4.17c-4.4 0-7.81 1.39-10.62 4.17s-4.22 6.73-4.22 11.83v.87c0 5.17 1.41 9.15 4.22 11.93q4.215 4.17 10.62 4.17M527.941 107.7c-4.79 0-9.04-.99-12.75-2.96-3.72-1.97-6.64-4.8-8.78-8.49-2.13-3.69-3.2-8.05-3.2-13.09v-1.45c0-5.04 1.07-9.39 3.2-13.05 2.13-3.65 5.06-6.48 8.78-8.49 3.72-2 7.97-3.01 12.75-3.01s9.05 1 12.8 3.01c3.75 2 6.69 4.83 8.83 8.49 2.13 3.65 3.2 8 3.2 13.05v1.45c0 5.04-1.07 9.41-3.2 13.09-2.13 3.69-5.08 6.51-8.83 8.49-3.75 1.97-8.02 2.96-12.8 2.96m0-8.92c4.4 0 7.97-1.41 10.72-4.22s4.12-6.71 4.12-11.69V82c0-4.98-1.36-8.88-4.07-11.69-2.72-2.81-6.3-4.22-10.77-4.22s-7.87 1.41-10.62 4.22-4.12 6.71-4.12 11.69v.87c0 4.98 1.37 8.88 4.12 11.69s6.29 4.22 10.62 4.22M577.7 106.34c-2.91 0-5.22-.87-6.94-2.62-1.71-1.75-2.57-4.07-2.57-6.98V66.96H555v-8.44h13.19V42.71h9.99v15.81h14.26v8.44h-14.26v28.03c0 1.94.9 2.91 2.72 2.91h9.99v8.44zM620.082 107.7c-6.08 0-11.12-1.36-15.13-4.07-4.01-2.72-6.47-6.82-7.37-12.32l9.31-2.23c.52 2.65 1.39 4.75 2.62 6.3s2.76 2.65 4.61 3.3c1.84.65 3.83.97 5.97.97 3.17 0 5.61-.61 7.32-1.84s2.57-2.81 2.57-4.75-.81-3.36-2.42-4.27c-1.62-.9-4.01-1.65-7.18-2.23l-3.3-.58c-3.23-.58-6.18-1.42-8.83-2.52q-3.975-1.65-6.3-4.56c-1.55-1.94-2.33-4.43-2.33-7.47 0-4.53 1.68-8.03 5.04-10.52s7.82-3.73 13.38-3.73 9.78 1.21 13.24 3.64c3.46 2.42 5.71 5.71 6.74 9.84l-9.31 2.62c-.58-2.91-1.81-4.96-3.69-6.16s-4.2-1.79-6.98-1.79-4.85.5-6.4 1.5-2.33 2.41-2.33 4.22c0 1.94.76 3.36 2.28 4.27s3.57 1.59 6.16 2.04l3.4.58c3.43.58 6.56 1.39 9.41 2.42 2.84 1.04 5.09 2.52 6.74 4.46s2.47 4.53 2.47 7.76c0 4.79-1.78 8.5-5.33 11.15-3.56 2.65-8.34 3.98-14.35 3.98z"/><mask id="b" width="142" height="148" x="0" y="0" maskUnits="userSpaceOnUse" style="mask-type:luminance"><path fill="#fff" d="M141.007 0H0v148h141.007z"/></mask><g fill="#000" mask="url(#b)"><path d="M141.018 0 6.566 53.067l78.386 9.24 16.751 78.619z"/><path d="M78.712 159.882 62.967 85.948l-73.639-8.67 1.565-13.275 83.143 9.799 17.736 83.295z"/><path d="m57.928 180.657-15.744-73.934-73.63-8.67 1.556-13.264 83.153 9.788 17.736 83.305z"/><path d="M36.864 201.728 21.12 127.794l-73.64-8.68 1.566-13.265 83.142 9.799 17.747 83.295z"/><path d="M16.048 222.544.303 148.61l-73.639-8.67 1.565-13.274 83.143 9.798 17.736 83.295z"/></g></g><defs><clipPath id="a"><path fill="#fff" d="M0 0h640v148H0z"/></clipPath></defs></svg>