<?xml version="1.0" encoding="UTF-8"?>
<svg width="286px" height="65px" viewBox="0 0 286 65" version="1.1" xmlns="http://www.w3.org/2000/svg" xmlns:xlink="http://www.w3.org/1999/xlink">
    <title>Slice</title>
    <g id="Page-1" stroke="none" stroke-width="1" fill="none" fill-rule="evenodd">
        <g id="yale" transform="translate(-0, -2)" fill="#000000" fill-rule="nonzero">
            <path d="M26.40625,3.08148716 C24.230581,3.15797183 22.8174129,3.8794391 21.7352266,5.71507101 L15.0862196,16.8087718 L15.0862196,24.2745882 C15.8487204,26.0668407 17.7916854,26.3065688 19.6363725,26.3830535 L19.6363725,27.421875 L6.61511807,27.421875 L6.61511807,26.3830535 C8.4711015,26.3065688 10.7235854,26.0223198 11.3313267,24.830529 L11.3313267,17.1364002 L4.55015293,5.79155567 C3.39002208,3.8794391 2.25248385,3.23445649 3.60822483e-15,3.08148716 L3.60822483e-15,2.04266562 L11.3313267,2.04266562 L11.3313267,3.08148716 C9.19971338,3.20135119 8.51515711,3.59519012 7.90854536,4.07578778 L14.191552,14.8407187 L20.3548177,4.10889309 C19.714317,3.62829543 18.863705,3.19107713 16.7207954,3.07007154 L16.7207954,2.03125 L26.3960833,2.03125 L26.3960833,3.07007154 L26.40625,3.08148716 Z" id="Path"></path>
            <path d="M29.9312808,10.15625 C33.6472019,10.15625 35.0026088,12.0393233 34.956818,14.9425819 L34.8331829,23.1939485 C34.7885369,24.8073693 35.6951942,25.1949948 36.5125594,25.1949948 C37.1616436,25.1949948 37.8221755,24.7972573 38.59375,24.0545894 L38.59375,25.1860063 L38.4391451,25.3566488 C37.5213945,26.3373941 36.0203086,27.4207514 34.6774943,27.4207514 C32.4726686,27.4207514 31.409178,25.9691221 31.3301889,24.9478133 C29.9427285,26.3567476 28.1408617,27.421875 26.4282868,27.421875 C24.2234612,27.421875 22.34375,26.1309136 22.34375,23.8939214 C22.34375,22.796211 22.6230737,21.6558057 23.2046165,20.7524698 L31.3301889,17.9233656 L31.3301889,15.0189835 C31.3301889,13.2550067 30.4681776,11.5663079 28.6331125,11.5663079 C27.5249758,11.5663079 26.4729328,12.8572692 26.3836408,14.8684275 L22.700918,15.4605394 L22.700918,15.0616784 C23.9212421,11.5224893 27.9725806,10.15625 29.9312808,10.15625 Z M31.3187412,18.9019795 C30.2563953,19.3749949 27.6371632,20.4727053 26.4958282,21.0209987 C26.3275471,21.6456937 26.2050568,22.1939871 26.2050568,23.0658635 C26.2050568,24.2377284 26.898787,25.4208287 28.253049,25.4208287 C29.4722283,25.4208287 30.1774062,25.0332033 31.27524,24.2051454 L31.3187412,18.9019795 Z" id="Combined-Shape"></path>
            <path d="M47.7221341,27.421875 L38.9097882,27.421875 L38.9097882,26.5087967 C40.6936233,26.3884158 41.2166442,25.9977455 41.5315696,25.3231578 L41.5315696,4.76186208 C41.5315696,3.41382242 41.3357149,2.85961572 38.59375,2.61998947 L38.59375,1.82615651 L45.8626278,0 L46.1029949,0.674587665 L44.9490105,2.09871718 L44.9490105,25.3118011 C45.3518478,26.1067698 46.1029949,26.3884158 47.734375,26.4974401 L47.734375,27.4105183 L47.7221341,27.421875 Z" id="Path"></path>
            <path d="M58.3648432,10.15625 C62.411062,10.15625 64.6640572,12.3601562 64.6640572,15.8719618 L64.6640572,16.5851563 L53.622661,16.5095486 C53.5435482,16.9417535 53.4988323,17.6549479 53.4988323,18.5182292 C53.4988323,22.5378472 56.1221671,25.1852431 59.5973978,25.1852431 C61.6818483,25.1852431 62.7470048,24.4720486 64.3831494,23.1314236 L65,24.0398437 L64.9885344,24.028559 C62.657573,26.0823785 60.729055,27.421875 57.377653,27.421875 C53.0837767,27.421875 49.765625,24.1481771 49.765625,19.5778646 C49.765625,13.9806424 53.3199685,10.15625 58.3648432,10.15625 Z M57.7468461,11.3659722 C55.6956459,11.3659722 54.2727619,12.9435764 53.7797401,15.4284722 L60.9755659,15.3528646 C60.9755659,13.2685764 59.6191825,11.3659722 57.7468461,11.3659722 Z" id="Combined-Shape"></path>
        </g>
        <g id="Center-for-Geospatia" transform="translate(74.596, 5.092)" fill="#000000" fill-rule="nonzero">
            <path d="M17.052,3.108 C15.008,2.436 13.244,1.764 10.444,1.764 C4.592,1.764 -1.42108547e-14,6.216 -1.42108547e-14,12.068 C-1.42108547e-14,17.64 3.976,20.272 9.464,20.272 C11.2,20.272 12.264,20.02 13.86,19.544 L15.568,15.26 L14.924,15.064 C14.448,16.38 13.44,17.696 12.18,18.536 C11.676,18.872 10.724,19.292 9.548,19.292 C5.628,19.292 2.856,16.576 2.856,12.068 C2.856,7.476 5.292,2.772 10.248,2.772 C12.768,2.772 14.168,3.864 14.644,4.228 C15.428,4.816 15.68,5.908 15.68,7 C15.68,7.224 15.68,7.42 15.652,7.644 L16.268,7.7 L17.052,3.108 Z" id="Path"></path>
            <path d="M25.956,9.8 C25.956,8.68 25.256,7.616 23.632,7.616 C22.176,7.616 20.72,8.568 19.46,10.024 C18.088,11.592 17.136,13.72 17.136,15.876 C17.136,18.396 18.256,20.188 20.02,20.188 C21.42,20.188 23.38,19.04 25.2,16.856 L24.752,16.408 C23.408,17.836 22.26,18.732 21.336,18.732 C20.048,18.732 19.292,17.472 19.292,15.484 C19.292,15.148 19.32,14.7 19.348,14.364 C23.772,13.16 25.956,11.396 25.956,9.8 Z M23.94,10.864 C23.94,11.004 23.884,11.228 23.828,11.368 C22.96,12.152 21.7,13.048 19.404,13.664 C19.796,11.368 20.832,9.464 21.924,8.736 C23.716,8.736 23.94,9.716 23.94,10.864 Z" id="Shape"></path>
            <path d="M39.452,16.324 C38.388,17.584 37.38,18.592 37.072,18.592 C36.736,18.592 36.708,18.368 36.708,17.92 C36.708,17.724 36.792,17.108 36.876,16.8 L38.248,11.676 C38.528,10.668 38.64,10.024 38.64,9.52 C38.64,8.68 37.968,7.616 37.492,7.616 C35.98,7.616 33.404,10.332 30.94,13.328 L31.668,10.22 C31.752,9.912 31.808,9.548 31.808,9.268 C31.808,8.4 31.528,7.616 30.912,7.616 C29.624,7.616 28.448,8.708 26.88,10.948 L27.412,11.312 C28.532,9.744 29.344,8.932 29.708,8.932 C29.764,8.932 29.792,9.128 29.792,9.212 C29.792,9.324 29.512,10.388 29.428,10.864 L27.58,19.908 L29.652,19.908 L30.688,14.56 C32.9,11.872 35.42,9.268 35.952,9.268 C36.372,9.268 36.428,9.436 36.428,10.164 C36.232,11.312 35.028,16.044 35.028,16.044 C34.832,16.912 34.608,17.752 34.608,18.256 C34.608,19.236 34.776,20.132 35.392,20.132 C36.848,20.132 38.332,18.704 39.956,16.744 L39.452,16.324 Z" id="Path"></path>
            <path d="M45.612,7.98 L46.48,4.956 L45.864,4.956 C44.66,6.888 43.624,7.728 41.72,8.596 L41.58,9.184 L43.344,9.128 L42.028,16.072 C41.86,16.884 41.72,17.78 41.72,18.284 C41.72,19.264 42.112,20.132 42.728,20.132 C44.184,20.132 45.836,18.788 47.6,16.52 L47.096,16.1 C46.004,17.528 44.66,18.62 44.352,18.62 C44.044,18.62 43.876,18.256 43.876,17.724 C43.876,17.528 43.932,16.884 43.988,16.604 L45.388,9.156 L48.328,9.156 L48.664,7.98 L45.612,7.98 Z" id="Path"></path>
            <path d="M57.652,9.8 C57.652,8.68 56.952,7.616 55.328,7.616 C53.872,7.616 52.416,8.568 51.156,10.024 C49.784,11.592 48.832,13.72 48.832,15.876 C48.832,18.396 49.952,20.188 51.716,20.188 C53.116,20.188 55.076,19.04 56.896,16.856 L56.448,16.408 C55.104,17.836 53.956,18.732 53.032,18.732 C51.744,18.732 50.988,17.472 50.988,15.484 C50.988,15.148 51.016,14.7 51.044,14.364 C55.468,13.16 57.652,11.396 57.652,9.8 Z M55.636,10.864 C55.636,11.004 55.58,11.228 55.524,11.368 C54.656,12.152 53.396,13.048 51.1,13.664 C51.492,11.368 52.528,9.464 53.62,8.736 C55.412,8.736 55.636,9.716 55.636,10.864 Z" id="Shape"></path>
            <path d="M68.964,8.26 C68.376,7.952 67.732,7.616 67.032,7.616 C66.052,7.98 64.484,9.128 63,11.732 L63.224,10.248 C63.28,9.94 63.336,9.576 63.336,9.296 C63.336,8.428 63.084,7.616 62.468,7.616 C61.18,7.616 60.032,8.708 58.464,10.948 L58.996,11.312 C60.116,9.744 60.9,8.932 61.264,8.932 C61.32,8.932 61.376,9.128 61.376,9.212 C61.376,9.324 61.264,10.388 61.18,10.864 L59.388,19.908 L61.46,19.908 L62.664,13.748 C62.832,12.88 64.624,9.856 65.352,9.856 C66.08,9.856 66.304,9.968 67.088,10.472 L67.368,10.472 L68.964,8.26 Z" id="Path"></path>
            <path d="M87.556,1.428 C87.556,0.868 86.716,-1.42108547e-14 85.288,-1.42108547e-14 C82.292,-1.42108547e-14 80.276,1.96 78.792,4.396 C78.26,5.264 77.84,6.608 77.56,7.98 L75.236,8.512 L75.124,9.1 L77.448,9.1 L75.796,19.04 C75.096,23.296 74.228,25.704 72.828,25.788 C71.568,25.704 70.644,24.836 69.888,24.164 C69.328,24.36 68.544,25.2 68.544,25.704 C68.544,26.32 69.272,27.104 70.644,27.104 C73.472,27.104 75.292,25.228 76.776,22.708 C77.28,21.84 77.672,20.468 77.896,19.124 L79.492,9.128 L82.824,9.128 L83.16,7.952 L79.688,7.952 C80.612,2.8 81.396,1.484 83.048,1.344 C84.364,1.428 85.344,2.128 86.128,2.912 C86.688,2.688 87.556,1.932 87.556,1.428 Z" id="Path"></path>
            <path d="M92.176,12.488 C92.176,9.38 90.58,7.616 88.984,7.616 C88.032,7.616 85.82,8.652 84.056,10.836 C82.908,12.264 82.348,13.888 82.348,15.344 C82.348,18.452 84,20.216 85.54,20.216 C86.576,20.216 88.564,19.292 90.468,16.968 C91.616,15.568 92.176,13.944 92.176,12.488 Z M89.992,12.628 C89.992,16.548 87.948,19.068 86.688,19.068 C85.54,19.068 84.532,17.78 84.532,15.092 C84.532,11.256 86.688,8.792 87.864,8.792 C88.984,8.792 89.992,10.136 89.992,12.628 Z" id="Shape"></path>
            <path d="M103.992,8.26 C103.404,7.952 102.76,7.616 102.06,7.616 C101.08,7.98 99.512,9.128 98.028,11.732 L98.252,10.248 C98.308,9.94 98.364,9.576 98.364,9.296 C98.364,8.428 98.112,7.616 97.496,7.616 C96.208,7.616 95.06,8.708 93.492,10.948 L94.024,11.312 C95.144,9.744 95.928,8.932 96.292,8.932 C96.348,8.932 96.404,9.128 96.404,9.212 C96.404,9.324 96.292,10.388 96.208,10.864 L94.416,19.908 L96.488,19.908 L97.692,13.748 C97.86,12.88 99.652,9.856 100.38,9.856 C101.108,9.856 101.332,9.968 102.116,10.472 L102.396,10.472 L103.992,8.26 Z" id="Path"></path>
            <path d="M10.416,45.096 L10.276,45.712 C11.564,45.768 12.908,46.16 13.104,46.72 L12.208,51.004 C11.676,51.508 10.276,52.376 8.792,52.376 C5.012,52.376 2.828,49.324 2.828,45.264 C2.828,40.812 5.488,35.744 10.22,35.744 C13.16,35.744 14.476,37.368 14.868,37.816 C15.568,38.628 15.708,39.636 15.708,40.448 C15.708,40.616 15.68,40.728 15.68,40.896 L16.296,40.952 L17.136,36.388 C15.008,35.576 13.216,34.764 10.36,34.764 C4.592,34.764 0.028,39.244 0.028,45.04 C0.028,49.66 3.024,53.328 8.428,53.328 C10.836,53.328 12.628,52.628 14.392,51.984 L15.484,46.72 C15.904,46.16 16.744,45.768 18.004,45.712 L18.116,45.096 L10.416,45.096 Z" id="Path"></path>
            <path d="M27.58,42.8 C27.58,41.68 26.88,40.616 25.256,40.616 C23.8,40.616 22.344,41.568 21.084,43.024 C19.712,44.592 18.76,46.72 18.76,48.876 C18.76,51.396 19.88,53.188 21.644,53.188 C23.044,53.188 25.004,52.04 26.824,49.856 L26.376,49.408 C25.032,50.836 23.884,51.732 22.96,51.732 C21.672,51.732 20.916,50.472 20.916,48.484 C20.916,48.148 20.944,47.7 20.972,47.364 C25.396,46.16 27.58,44.396 27.58,42.8 Z M25.564,43.864 C25.564,44.004 25.508,44.228 25.452,44.368 C24.584,45.152 23.324,46.048 21.028,46.664 C21.42,44.368 22.456,42.464 23.548,41.736 C25.34,41.736 25.564,42.716 25.564,43.864 Z" id="Shape"></path>
            <path d="M38.36,45.488 C38.36,42.38 36.764,40.616 35.168,40.616 C34.216,40.616 32.004,41.652 30.24,43.836 C29.092,45.264 28.532,46.888 28.532,48.344 C28.532,51.452 30.184,53.216 31.724,53.216 C32.76,53.216 34.748,52.292 36.652,49.968 C37.8,48.568 38.36,46.944 38.36,45.488 Z M36.176,45.628 C36.176,49.548 34.132,52.068 32.872,52.068 C31.724,52.068 30.716,50.78 30.716,48.092 C30.716,44.256 32.872,41.792 34.048,41.792 C35.168,41.792 36.176,43.136 36.176,45.628 Z" id="Shape"></path>
            <path d="M47.74,42.128 C47.74,41.484 46.844,40.616 45.332,40.616 C43.344,40.616 40.908,42.912 40.908,44.732 C40.908,45.768 41.608,46.524 42.644,47.616 C43.68,48.708 44.772,49.548 44.772,50.444 C44.772,51.088 44.24,51.76 43.932,51.928 C43.736,51.984 43.54,52.012 43.372,52.012 C41.636,52.012 40.572,50.724 40.096,49.968 C39.62,50.192 38.752,50.892 38.752,51.34 C38.752,51.956 39.732,53.216 41.552,53.216 C44.184,53.216 46.284,51.144 46.284,49.184 C46.284,48.372 45.724,47.616 45.22,47.084 C44.604,46.44 43.848,45.768 43.204,44.956 C42.868,44.536 42.7,43.948 42.7,43.528 C42.7,42.856 43.176,42.1 43.4,41.932 C43.484,41.904 43.568,41.904 43.652,41.904 C44.856,41.904 45.696,42.716 46.368,43.528 C46.872,43.276 47.74,42.548 47.74,42.128 Z" id="Path"></path>
            <path d="M60.172,45.068 C60.172,42.52 59.08,40.616 58.268,40.616 C57.512,40.616 55.384,42.128 52.836,45.04 C52.836,45.04 53.284,42.996 53.284,41.512 C53.284,40.952 53.2,40.532 52.892,40.532 C51.52,40.532 49.924,42.016 48.412,43.724 L48.888,44.144 C50.176,42.828 50.82,42.1 51.184,42.1 C51.324,42.1 51.268,42.38 51.268,42.464 C51.268,42.576 51.1,43.556 51.016,43.976 L48.356,57.388 C48.048,58.984 47.404,59.292 45.472,59.516 L45.472,60.104 L52.5,60.104 L52.5,59.46 L52.36,59.46 C51.436,59.46 50.26,59.124 50.26,58.508 C50.26,58.312 50.288,57.892 50.4,57.332 L51.296,52.516 C51.828,52.768 52.5,53.132 53.116,53.132 C54.852,53.132 56.588,52.124 58.212,50.052 C59.5,48.428 60.172,46.72 60.172,45.068 Z M57.932,44.872 C57.932,48.176 56.616,50.976 55.188,51.956 C54.572,51.984 53.004,51.956 51.632,50.836 L52.584,46.244 C54.74,43.752 56.42,42.324 56.84,42.324 C57.428,42.324 57.932,43.136 57.932,44.872 Z" id="Shape"></path>
            <path d="M72.772,49.324 C71.708,50.584 70.7,51.536 70.364,51.536 C70.056,51.536 70.056,51.256 70.056,50.892 C70.056,50.696 70.112,50.164 70.168,49.884 L72.128,40.672 L71.288,40.672 C68.432,40.672 65.744,41.82 63.644,43.976 C61.964,45.684 61.152,47.868 61.152,50.136 C61.152,52.32 62.02,53.132 62.496,53.132 C64.008,53.132 66.304,50.836 68.6,48.036 L67.844,51.284 C67.844,52.264 68.096,53.132 68.712,53.132 C70.168,53.132 71.652,51.704 73.276,49.744 L72.772,49.324 Z M68.74,46.888 C66.724,49.38 64.568,51.508 64.064,51.508 C63.756,51.508 63.336,51.032 63.336,49.352 C63.336,46.132 64.456,44.088 65.828,42.996 C66.248,42.66 67.48,42.436 68.6,42.436 C68.908,42.436 69.328,42.464 69.664,42.548 L68.74,46.888 Z" id="Shape"></path>
            <path d="M78.54,40.98 L79.408,37.956 L78.792,37.956 C77.588,39.888 76.552,40.728 74.648,41.596 L74.508,42.184 L76.272,42.128 L74.956,49.072 C74.788,49.884 74.648,50.78 74.648,51.284 C74.648,52.264 75.04,53.132 75.656,53.132 C77.112,53.132 78.764,51.788 80.528,49.52 L80.024,49.1 C78.932,50.528 77.588,51.62 77.28,51.62 C76.972,51.62 76.804,51.256 76.804,50.724 C76.804,50.528 76.86,49.884 76.916,49.604 L78.316,42.156 L81.256,42.156 L81.592,40.98 L78.54,40.98 Z" id="Path"></path>
            <path d="M88.172,35.492 C88.172,34.82 87.612,34.092 86.772,34.092 C85.904,34.092 85.344,34.82 85.344,35.492 C85.344,36.136 85.904,36.836 86.772,36.836 C87.612,36.836 88.172,36.136 88.172,35.492 Z M87.584,49.324 C86.52,50.584 85.568,51.508 85.288,51.508 C84.98,51.508 84.84,51.06 84.84,50.64 C84.84,50.444 84.924,49.94 84.98,49.716 L86.604,43.22 C86.688,42.912 86.688,42.548 86.688,42.268 C86.688,41.4 86.464,40.616 85.848,40.616 C84.56,40.616 83.328,41.708 81.76,43.948 L82.292,44.312 C83.412,42.744 84.224,41.932 84.588,41.932 C84.728,41.932 84.672,42.128 84.672,42.212 C84.672,42.324 84.476,43.248 84.336,43.864 L83.076,48.932 C82.852,49.8 82.684,50.78 82.684,51.284 C82.684,52.264 82.908,53.132 83.524,53.132 C84.98,53.132 86.464,51.704 88.088,49.744 L87.584,49.324 Z" id="Shape"></path>
            <path d="M100.492,49.324 C99.428,50.584 98.42,51.536 98.084,51.536 C97.776,51.536 97.776,51.256 97.776,50.892 C97.776,50.696 97.832,50.164 97.888,49.884 L99.848,40.672 L99.008,40.672 C96.152,40.672 93.464,41.82 91.364,43.976 C89.684,45.684 88.872,47.868 88.872,50.136 C88.872,52.32 89.74,53.132 90.216,53.132 C91.728,53.132 94.024,50.836 96.32,48.036 L95.564,51.284 C95.564,52.264 95.816,53.132 96.432,53.132 C97.888,53.132 99.372,51.704 100.996,49.744 L100.492,49.324 Z M96.46,46.888 C94.444,49.38 92.288,51.508 91.784,51.508 C91.476,51.508 91.056,51.032 91.056,49.352 C91.056,46.132 92.176,44.088 93.548,42.996 C93.968,42.66 95.2,42.436 96.32,42.436 C96.628,42.436 97.048,42.464 97.384,42.548 L96.46,46.888 Z" id="Shape"></path>
            <path d="M107.464,33.084 L103.376,34.148 L103.236,34.792 C103.6,34.764 104.02,34.68 104.272,34.68 C105.056,34.68 105.308,34.876 105.308,35.436 C105.308,35.716 105.252,36.052 105.14,36.556 L102.592,49.072 C102.424,49.856 102.256,50.78 102.256,51.284 C102.256,52.264 102.452,53.132 103.068,53.132 C104.524,53.132 106.036,51.704 107.688,49.688 L107.184,49.268 C106.12,50.556 105.14,51.508 104.832,51.508 C104.524,51.508 104.412,51.144 104.412,50.724 C104.412,50.528 104.496,49.856 104.552,49.604 L107.912,33.084 L107.464,33.084 Z" id="Path"></path>
            <path d="M129.584,35.996 C128.604,35.436 126.896,34.792 124.712,34.792 C120.792,34.792 117.852,37.032 117.852,40.224 C117.852,42.24 119.28,43.668 122.248,45.152 C124.292,46.188 125.44,47.056 125.44,48.736 C125.44,50.752 123.928,52.376 121.408,52.376 C119.896,52.376 118.748,51.536 118.02,50.948 C117.04,50.164 116.536,48.624 116.508,47.392 L115.892,47.336 L115.612,51.788 C116.76,52.432 118.636,53.328 121.128,53.328 C124.908,53.328 127.96,51.312 127.96,47.868 C127.96,45.852 126.476,44.508 123.732,42.996 C121.156,41.568 120.316,40.84 120.316,39.328 C120.316,37.396 121.576,35.772 124.152,35.772 C125.832,35.772 126.728,36.528 127.176,36.892 C127.988,37.536 128.268,38.516 128.268,39.72 C128.268,39.916 128.268,40.084 128.24,40.28 L128.856,40.336 L129.584,35.996 Z" id="Path"></path>
            <path d="M140.028,45.488 C140.028,42.38 138.432,40.616 136.836,40.616 C135.884,40.616 133.672,41.652 131.908,43.836 C130.76,45.264 130.2,46.888 130.2,48.344 C130.2,51.452 131.852,53.216 133.392,53.216 C134.428,53.216 136.416,52.292 138.32,49.968 C139.468,48.568 140.028,46.944 140.028,45.488 Z M137.844,45.628 C137.844,49.548 135.8,52.068 134.54,52.068 C133.392,52.068 132.384,50.78 132.384,48.092 C132.384,44.256 134.54,41.792 135.716,41.792 C136.836,41.792 137.844,43.136 137.844,45.628 Z" id="Shape"></path>
            <path d="M147.196,33.084 L143.108,34.148 L142.968,34.792 C143.332,34.764 143.752,34.68 144.004,34.68 C144.788,34.68 145.04,34.876 145.04,35.436 C145.04,35.716 144.984,36.052 144.872,36.556 L142.324,49.072 C142.156,49.856 141.988,50.78 141.988,51.284 C141.988,52.264 142.184,53.132 142.8,53.132 C144.256,53.132 145.768,51.704 147.42,49.688 L146.916,49.268 C145.852,50.556 144.872,51.508 144.564,51.508 C144.256,51.508 144.144,51.144 144.144,50.724 C144.144,50.528 144.228,49.856 144.284,49.604 L147.644,33.084 L147.196,33.084 Z" id="Path"></path>
            <path d="M161.224,49.324 C160.16,50.584 159.152,51.592 158.844,51.592 C158.536,51.592 158.48,51.284 158.48,50.864 C158.48,50.668 158.536,50.22 158.62,49.884 L160.58,40.896 L158.48,40.896 L157.36,46.16 C155.148,48.988 152.768,51.508 152.18,51.508 C151.872,51.508 151.704,51.2 151.704,50.444 C151.9,49.296 152.74,46.104 153.496,43.136 C153.552,42.856 153.608,42.576 153.608,42.296 C153.608,41.4 153.356,40.616 152.74,40.616 C151.452,40.616 150.248,41.708 148.68,43.948 L149.212,44.312 C150.332,42.744 151.144,41.932 151.508,41.932 C151.648,41.932 151.592,42.184 151.592,42.296 C151.592,42.408 151.34,43.444 151.2,43.948 L149.856,49.072 C149.604,50.08 149.436,50.724 149.436,51.228 C149.436,52.068 150.164,53.132 150.64,53.132 C152.152,53.132 154.756,50.444 157.22,47.28 C157.22,47.28 156.324,50.584 156.324,51.284 C156.324,52.264 156.548,53.132 157.164,53.132 C158.62,53.132 160.104,51.704 161.728,49.744 L161.224,49.324 Z" id="Path"></path>
            <path d="M167.104,40.98 L167.972,37.956 L167.356,37.956 C166.152,39.888 165.116,40.728 163.212,41.596 L163.072,42.184 L164.836,42.128 L163.52,49.072 C163.352,49.884 163.212,50.78 163.212,51.284 C163.212,52.264 163.604,53.132 164.22,53.132 C165.676,53.132 167.328,51.788 169.092,49.52 L168.588,49.1 C167.496,50.528 166.152,51.62 165.844,51.62 C165.536,51.62 165.368,51.256 165.368,50.724 C165.368,50.528 165.424,49.884 165.48,49.604 L166.88,42.156 L169.82,42.156 L170.156,40.98 L167.104,40.98 Z" id="Path"></path>
            <path d="M176.736,35.492 C176.736,34.82 176.176,34.092 175.336,34.092 C174.468,34.092 173.908,34.82 173.908,35.492 C173.908,36.136 174.468,36.836 175.336,36.836 C176.176,36.836 176.736,36.136 176.736,35.492 Z M176.148,49.324 C175.084,50.584 174.132,51.508 173.852,51.508 C173.544,51.508 173.404,51.06 173.404,50.64 C173.404,50.444 173.488,49.94 173.544,49.716 L175.168,43.22 C175.252,42.912 175.252,42.548 175.252,42.268 C175.252,41.4 175.028,40.616 174.412,40.616 C173.124,40.616 171.892,41.708 170.324,43.948 L170.856,44.312 C171.976,42.744 172.788,41.932 173.152,41.932 C173.292,41.932 173.236,42.128 173.236,42.212 C173.236,42.324 173.04,43.248 172.9,43.864 L171.64,48.932 C171.416,49.8 171.248,50.78 171.248,51.284 C171.248,52.264 171.472,53.132 172.088,53.132 C173.544,53.132 175.028,51.704 176.652,49.744 L176.148,49.324 Z" id="Shape"></path>
            <path d="M187.628,45.488 C187.628,42.38 186.032,40.616 184.436,40.616 C183.484,40.616 181.272,41.652 179.508,43.836 C178.36,45.264 177.8,46.888 177.8,48.344 C177.8,51.452 179.452,53.216 180.992,53.216 C182.028,53.216 184.016,52.292 185.92,49.968 C187.068,48.568 187.628,46.944 187.628,45.488 Z M185.444,45.628 C185.444,49.548 183.4,52.068 182.14,52.068 C180.992,52.068 179.984,50.78 179.984,48.092 C179.984,44.256 182.14,41.792 183.316,41.792 C184.436,41.792 185.444,43.136 185.444,45.628 Z" id="Shape"></path>
            <path d="M201.628,49.324 C200.564,50.584 199.556,51.592 199.248,51.592 C198.912,51.592 198.884,51.368 198.884,50.92 C198.884,50.724 198.968,50.108 199.052,49.8 L200.424,44.676 C200.704,43.668 200.816,43.024 200.816,42.52 C200.816,41.68 200.144,40.616 199.668,40.616 C198.156,40.616 195.58,43.332 193.116,46.328 L193.844,43.22 C193.928,42.912 193.984,42.548 193.984,42.268 C193.984,41.4 193.704,40.616 193.088,40.616 C191.8,40.616 190.624,41.708 189.056,43.948 L189.588,44.312 C190.708,42.744 191.52,41.932 191.884,41.932 C191.94,41.932 191.968,42.128 191.968,42.212 C191.968,42.324 191.688,43.388 191.604,43.864 L189.756,52.908 L191.828,52.908 L192.864,47.56 C195.076,44.872 197.596,42.268 198.128,42.268 C198.548,42.268 198.604,42.436 198.604,43.164 C198.408,44.312 197.204,49.044 197.204,49.044 C197.008,49.912 196.784,50.752 196.784,51.256 C196.784,52.236 196.952,53.132 197.568,53.132 C199.024,53.132 200.508,51.704 202.132,49.744 L201.628,49.324 Z" id="Path"></path>
            <path d="M211.204,42.128 C211.204,41.484 210.308,40.616 208.796,40.616 C206.808,40.616 204.372,42.912 204.372,44.732 C204.372,45.768 205.072,46.524 206.108,47.616 C207.144,48.708 208.236,49.548 208.236,50.444 C208.236,51.088 207.704,51.76 207.396,51.928 C207.2,51.984 207.004,52.012 206.836,52.012 C205.1,52.012 204.036,50.724 203.56,49.968 C203.084,50.192 202.216,50.892 202.216,51.34 C202.216,51.956 203.196,53.216 205.016,53.216 C207.648,53.216 209.748,51.144 209.748,49.184 C209.748,48.372 209.188,47.616 208.684,47.084 C208.068,46.44 207.312,45.768 206.668,44.956 C206.332,44.536 206.164,43.948 206.164,43.528 C206.164,42.856 206.64,42.1 206.864,41.932 C206.948,41.904 207.032,41.904 207.116,41.904 C208.32,41.904 209.16,42.716 209.832,43.528 C210.336,43.276 211.204,42.548 211.204,42.128 Z" id="Path"></path>
        </g>
    </g>
</svg>